<svg xmlns="http://www.w3.org/2000/svg" width="87.35" height="91" viewBox="0 0 87.35 91">
  <g id="Grupo_1213206" data-name="Grupo 1213206" transform="translate(-184.809 -3165)">
    <path id="Trazado_1259060" data-name="Trazado 1259060" d="M8,0H79.35a8,8,0,0,1,8,8V83a8,8,0,0,1-8,8H8a8,8,0,0,1-8-8V8A8,8,0,0,1,8,0Z" transform="translate(184.809 3165)" fill="#5a8441"/>
    <g id="sprout_16912132" transform="translate(196.711 3178.729)">
      <circle id="Elipse_12152" data-name="Elipse 12152" cx="18.012" cy="18.012" r="18.012" transform="translate(13.762 0.75)" fill="#edf7ff"/>
      <path id="Trazado_1031601" data-name="Trazado 1031601" d="M50.021,19.01a17.953,17.953,0,0,0-1.688-7.624A17.257,17.257,0,1,0,24.386,35.333,18.021,18.021,0,0,0,50.021,19.01Z" transform="translate(-0.237 -0.248)" fill="#f7fdff"/>
      <g id="Grupo_1199661" data-name="Grupo 1199661" transform="translate(19.766 4.753)">
        <path id="Trazado_1031602" data-name="Trazado 1031602" d="M29.25,10.5C29.25,7.464,32,5,32,5s2.752,2.464,2.752,5.5S32,16.007,32,16.007,29.25,13.543,29.25,10.5Z" transform="translate(-19.994 -5)" fill="#61db70"/>
        <path id="Trazado_1031603" data-name="Trazado 1031603" d="M38.162,13.951C40.312,11.8,44,12.005,44,12.005s.2,3.688-1.946,5.838-5.837,1.945-5.837,1.945-.209-3.685,1.94-5.837Z" transform="translate(-19.99 -4.996)" fill="#61db70"/>
        <path id="Trazado_1031604" data-name="Trazado 1031604" d="M25.843,13.951c-2.149-2.149-5.838-1.946-5.838-1.946s-.2,3.688,1.946,5.838,5.837,1.945,5.837,1.945.2-3.685-1.945-5.837Z" transform="translate(-20 -4.996)" fill="#61db70"/>
      </g>
      <path id="Trazado_1031605" data-name="Trazado 1031605" d="M43.016,28a4,4,0,0,0-3.6,2.254,4,4,0,0,0-3.976.684,4,4,0,0,0-6.86,0,4,4,0,0,0-3.976-.684A4,4,0,0,0,21,28a5.99,5.99,0,0,0-3.5,1.635,17.966,17.966,0,0,0,29.019,0A5.99,5.99,0,0,0,43.016,28Z" transform="translate(-0.236 -0.232)" fill="#dd8457"/>
      <path id="Trazado_1031606" data-name="Trazado 1031606" d="M49.479,44.01l4.614-14.244A2.555,2.555,0,0,1,59,31.188L55,46.875Z" transform="translate(-0.216 -0.232)" fill="#fac7ad"/>
      <path id="Trazado_1031607" data-name="Trazado 1031607" d="M36.443,49.849v8.17H48.451V54.862l9.675-8.806A6,6,0,0,0,59.9,43.1l3.035-11.908a2.554,2.554,0,0,0-4.9-1.422L54.381,41.032l-8.933,4.893" transform="translate(-0.224 -0.232)" fill="#ffe3d2"/>
      <path id="Trazado_1031608" data-name="Trazado 1031608" d="M44.448,46.457l6.973-3.82a2.5,2.5,0,1,0-2.4-4.388l-8.935,4.9a7,7,0,0,0-3.639,6.143v1.556" transform="translate(-0.224 -0.226)" fill="#ffe3d2"/>
      <path id="Trazado_1031609" data-name="Trazado 1031609" d="M54.7,40.026l-.323,1-8.933,4.894-.088.039-.035.019a1,1,0,1,0,.962,1.755l6.1-3.34A4.494,4.494,0,0,0,54.7,40.026Z" transform="translate(-0.219 -0.225)" fill="#ffd1bb"/>
      <path id="Trazado_1031610" data-name="Trazado 1031610" d="M34.443,58h16.01v5H34.443Z" transform="translate(-0.225 -0.213)" fill="#72eb8f"/>
      <path id="Trazado_1031611" data-name="Trazado 1031611" d="M37.443,60H50.451v3H37.443Z" transform="translate(-0.223 -0.212)" fill="#61db70"/>
      <path id="Trazado_1031612" data-name="Trazado 1031612" d="M14.527,44.01,9.913,29.766a2.555,2.555,0,0,0-4.905,1.422L9,46.875Z" transform="translate(-0.244 -0.232)" fill="#fac7ad"/>
      <path id="Trazado_1031613" data-name="Trazado 1031613" d="M27.574,49.849v8.17H15.566V54.862L5.891,46.057A6,6,0,0,1,4.114,43.1L1.079,31.191a2.554,2.554,0,0,1,4.9-1.422L9.636,41.032l8.933,4.893" transform="translate(-0.247 -0.232)" fill="#ffe3d2"/>
      <path id="Trazado_1031614" data-name="Trazado 1031614" d="M19.562,46.457l-6.973-3.82a2.5,2.5,0,1,1,2.4-4.388l8.935,4.9a7,7,0,0,1,3.639,6.143v1.556" transform="translate(-0.24 -0.226)" fill="#ffe3d2"/>
      <path id="Trazado_1031615" data-name="Trazado 1031615" d="M9.307,40.026l.323,1,8.933,4.894.088.039.035.019a1,1,0,1,1-.962,1.755l-6.1-3.34a4.494,4.494,0,0,1-2.321-4.368Z" transform="translate(-0.241 -0.225)" fill="#ffd1bb"/>
      <path id="Trazado_1031616" data-name="Trazado 1031616" d="M13.557,58h16.01v5H13.557Z" transform="translate(-0.239 -0.213)" fill="#72eb8f"/>
      <path id="Trazado_1031617" data-name="Trazado 1031617" d="M16.557,60H29.565v3H16.557Z" transform="translate(-0.237 -0.212)" fill="#61db70"/>
      <path id="Trazado_1031618" data-name="Trazado 1031618" d="M29.576,57.269H28.325V49.3a7.757,7.757,0,0,0-4.029-6.8l-8.936-4.9a3.258,3.258,0,0,0-2.226-.331l-2.5-7.73A3.3,3.3,0,0,0,5.523,27.9a3.3,3.3,0,0,0-5.17,3.476L3.388,43.284a6.753,6.753,0,0,0,2,3.329l9.429,8.579v2.076H13.568a.75.75,0,0,0-.75.75v5a.75.75,0,0,0,.75.75h16.01a.75.75,0,0,0,.75-.75v-5a.75.75,0,0,0-.752-.75ZM6.724,28.923A1.8,1.8,0,0,1,9.206,30l2.563,7.913c-.083.067-.165.138-.243.214a3.231,3.231,0,0,0-.969,2.554l-.3-.162L6.7,29.54a3.289,3.289,0,0,0-.2-.491,1.758,1.758,0,0,1,.22-.126ZM6.4,45.5a5.257,5.257,0,0,1-1.555-2.589L1.807,31a1.8,1.8,0,1,1,3.467-1L8.923,41.264a.747.747,0,0,0,.353.427l9.936,5.431a.75.75,0,1,0,.722-1.316l-6.974-3.82a1.751,1.751,0,0,1,1.683-3.072l8.932,4.9A6.254,6.254,0,0,1,26.824,49.3v7.974H16.317v-2.4a.748.748,0,0,0-.246-.555ZM28.825,62.272H14.316v-3.5H28.825Z" transform="translate(-0.247 -0.233)"/>
      <path id="Trazado_1031619" data-name="Trazado 1031619" d="M61.865,27.565A3.3,3.3,0,0,0,58.5,27.9a3.3,3.3,0,0,0-5.1,1.636l-2.5,7.73a3.255,3.255,0,0,0-2.225.331l-8.936,4.9A7.755,7.755,0,0,0,35.7,49.3v7.971H34.451a.75.75,0,0,0-.75.75v5a.75.75,0,0,0,.75.75h16.01a.75.75,0,0,0,.75-.75v-5a.75.75,0,0,0-.75-.75H49.211V55.195l9.421-8.582a6.762,6.762,0,0,0,2-3.329l3.034-11.908A3.3,3.3,0,0,0,61.865,27.565ZM54.813,30a1.8,1.8,0,0,1,2.478-1.076,1.758,1.758,0,0,1,.225.126,3.4,3.4,0,0,0-.2.491L53.761,40.52l-.3.162a3.227,3.227,0,0,0-.969-2.554c-.078-.076-.159-.147-.243-.214ZM49.7,58.77v3.5H35.195v-3.5ZM62.212,31,59.177,42.91A5.249,5.249,0,0,1,57.622,45.5L47.948,54.3a.751.751,0,0,0-.245.555v2.4H37.2V49.3a6.253,6.253,0,0,1,3.249-5.485l8.935-4.9a1.751,1.751,0,1,1,1.683,3.072L44.09,45.812a.75.75,0,1,0,.717,1.311l9.933-5.431a.754.754,0,0,0,.353-.427L58.745,30a1.8,1.8,0,1,1,3.467,1Z" transform="translate(-0.226 -0.233)"/>
      <path id="Trazado_1031620" data-name="Trazado 1031620" d="M50.774,19.012A18.762,18.762,0,1,0,32.012,37.774,18.762,18.762,0,0,0,50.774,19.012Zm-36.023,0a17.261,17.261,0,1,1,31.631,9.553,6.342,6.342,0,0,0-3.363-1.3,4.717,4.717,0,0,0-3.958,2.117,4.813,4.813,0,0,0-3.447.534,4.709,4.709,0,0,0-2.854-1.593v-1A7.2,7.2,0,0,1,34.886,22.2l1.649-1.649c1.028,0,4.083-.191,6.063-2.171,2.359-2.36,2.172-6.245,2.164-6.4a.753.753,0,0,0-.708-.708c-.165-.007-4.051-.194-6.409,2.164-1.98,1.98-2.167,5.035-2.171,6.063l-1.649,1.649a8.927,8.927,0,0,0-1.064,1.286v-6.1c.724-.73,2.752-3.023,2.752-5.823,0-3.336-2.879-5.953-3-6.063a.751.751,0,0,0-1,0c-.123.11-3,2.727-3,6.063,0,2.8,2.027,5.092,2.752,5.823v6.1A8.927,8.927,0,0,0,30.2,21.139L28.547,19.49c0-1.028-.191-4.083-2.171-6.063-2.36-2.359-6.247-2.172-6.409-2.164a.753.753,0,0,0-.708.708c-.008.164-.194,4.05,2.164,6.4,1.98,1.98,5.035,2.167,6.063,2.171L29.134,22.2a7.2,7.2,0,0,1,2.125,5.129v1a4.709,4.709,0,0,0-2.85,1.593,4.818,4.818,0,0,0-3.445-.534A4.717,4.717,0,0,0,21,27.267a6.342,6.342,0,0,0-3.363,1.3,17.167,17.167,0,0,1-2.891-9.556ZM32.012,9.756a.75.75,0,0,0-.75.75v3.479a6.3,6.3,0,0,1-1.251-3.479,7.2,7.2,0,0,1,2-4.428,7.176,7.176,0,0,1,2,4.428,6.3,6.3,0,0,1-1.251,3.473V10.507A.75.75,0,0,0,32.012,9.756Zm8.642,5.618a.749.749,0,0,0-1.061,0l-2.461,2.461a6.3,6.3,0,0,1,1.575-3.345,7.2,7.2,0,0,1,4.547-1.714,7.172,7.172,0,0,1-1.716,4.545,6.316,6.316,0,0,1-3.34,1.571l2.456-2.457a.749.749,0,0,0,0-1.061ZM23.37,16.434l2.461,2.461a6.3,6.3,0,0,1-3.345-1.575,7.2,7.2,0,0,1-1.714-4.547,7.172,7.172,0,0,1,4.545,1.716,6.316,6.316,0,0,1,1.571,3.34l-2.457-2.456a.75.75,0,1,0-1.061,1.061Zm8.642,19.839a17.24,17.24,0,0,1-13.486-6.5A4.95,4.95,0,0,1,21,28.768,3.235,3.235,0,0,1,23.932,30.6a.75.75,0,0,0,.938.374,3.3,3.3,0,0,1,3.23.556.749.749,0,0,0,1.125-.187,3.255,3.255,0,0,1,5.576,0,.748.748,0,0,0,.519.353.729.729,0,0,0,.123.01.752.752,0,0,0,.482-.176,3.3,3.3,0,0,1,3.23-.556.75.75,0,0,0,.938-.374,3.235,3.235,0,0,1,2.927-1.832A4.95,4.95,0,0,1,45.5,29.776,17.239,17.239,0,0,1,32.012,36.273Z" transform="translate(-0.239 -0.25)"/>
    </g>
  </g>
</svg>
