<svg xmlns="http://www.w3.org/2000/svg" xmlns:xlink="http://www.w3.org/1999/xlink" width="74" height="74" viewBox="0 0 74 74">
  <defs>
    <clipPath id="clip-path">
      <path id="path4146" d="M0-682.665H53.809v53.809H0Z" transform="translate(0 682.665)"/>
    </clipPath>
  </defs>
  <g id="Grupo_1198222" data-name="Grupo 1198222" transform="translate(-180.144 -978)">
    <g id="Grupo_1112424" data-name="Grupo 1112424" transform="translate(180.143 978)">
      <g id="Grupo_1112415" data-name="Grupo 1112415" transform="translate(0 0)">
        <g id="Grupo_1098742" data-name="Grupo 1098742" transform="translate(0)">
          <g id="Rect치ngulo_400898" data-name="Rect치ngulo 400898" transform="translate(0.001)" fill="#bccdb2" stroke="#829f71" stroke-width="1">
            <rect width="74" height="74" rx="37" stroke="none"/>
            <rect x="0.5" y="0.5" width="73" height="73" rx="36.5" fill="none"/>
          </g>
          <g id="Rect치ngulo_400907" data-name="Rect치ngulo 400907" transform="translate(0.001)" fill="none" stroke="#829f71" stroke-width="1">
            <rect width="74" height="74" rx="37" stroke="none"/>
            <rect x="0.5" y="0.5" width="73" height="73" rx="36.5" fill="none"/>
          </g>
        </g>
      </g>
    </g>
    <g id="Grupo_1213223" data-name="Grupo 1213223" transform="translate(26.094 -11.292)">
      <g id="Grupo_1213222" data-name="Grupo 1213222" transform="translate(164.146 998)">
        <g id="g4140" transform="translate(0 0)">
          <g id="g4142">
            <g id="g4144" clip-path="url(#clip-path)">
              <g id="g4150" transform="translate(0.788 31.583)">
                <path id="path4152" d="M-166-4.343-180.042,9.743a.562.562,0,0,0,.4.958h36.57a1.263,1.263,0,0,0,.895-.372L-128.14-3.757a.562.562,0,0,0-.4-.958h-36.57a1.264,1.264,0,0,0-.9.372" transform="translate(180.207 4.715)" fill="#ffa78f"/>
              </g>
              <g id="g4154" transform="translate(11.313 43.51)">
                <path id="path4156" d="M-30.253,0a2.423,2.423,0,0,0-2.589,2.212,1.991,1.991,0,0,0,.475,1.276h4.227a1.991,1.991,0,0,0,.475-1.276A2.423,2.423,0,0,0-30.253,0" transform="translate(32.841 0)" fill="#f89580"/>
              </g>
              <g id="g4158" transform="translate(34.453 31.583)">
                <path id="path4160" d="M-210.419,0h-3.468a.562.562,0,0,1,.4.958l-14.039,14.086a1.264,1.264,0,0,1-.9.372h3.468a1.264,1.264,0,0,0,.9-.372L-210.021.958a.562.562,0,0,0-.4-.958" transform="translate(228.423)" fill="#f89580"/>
              </g>
              <g id="g4162" transform="translate(23.346 37.493)">
                <path id="path4164" d="M-82.139-28.542c0,1.349-1.573,2.442-3.514,2.442s-3.514-1.093-3.514-2.442,1.573-2.442,3.514-2.442,3.514,1.093,3.514,2.442" transform="translate(89.168 30.984)" fill="#f89580"/>
              </g>
              <g id="g4166" transform="translate(0.788 23.158)">
                <path id="path4168" d="M-166-4.343-180.042,9.743a.562.562,0,0,0,.4.958h36.57a1.263,1.263,0,0,0,.895-.372L-128.14-3.757a.562.562,0,0,0-.4-.958h-36.57a1.264,1.264,0,0,0-.9.372" transform="translate(180.207 4.715)" fill="#e8ad8c"/>
              </g>
              <g id="g4170" transform="translate(34.453 23.158)">
                <path id="path4172" d="M-210.419,0h-3.468a.562.562,0,0,1,.4.958l-14.039,14.086a1.264,1.264,0,0,1-.9.372h3.468a1.264,1.264,0,0,0,.9-.372L-210.021.958a.562.562,0,0,0-.4-.958" transform="translate(228.423)" fill="#e19a74"/>
              </g>
              <g id="g4174" transform="translate(0.788 14.217)">
                <path id="path4176" d="M-166-4.343-180.042,9.743a.562.562,0,0,0,.4.958h36.57a1.264,1.264,0,0,0,.9-.372L-128.14-3.757a.562.562,0,0,0-.4-.958h-36.57a1.264,1.264,0,0,0-.9.372" transform="translate(180.207 4.715)" fill="#68ca44"/>
              </g>
              <g id="g4178" transform="translate(34.453 14.217)">
                <path id="path4180" d="M-210.419,0h-3.468a.562.562,0,0,1,.4.958l-14.039,14.086a1.264,1.264,0,0,1-.9.372h3.468a1.264,1.264,0,0,0,.9-.372L-210.021.958a.562.562,0,0,0-.4-.958" transform="translate(228.423)" fill="#4fc123"/>
              </g>
              <g id="g4182" transform="translate(10.556 11.58)">
                <path id="path4184" d="M-60.8-81.064A1.734,1.734,0,0,1-62.532-82.8,1.734,1.734,0,0,1-60.8-84.532,1.734,1.734,0,0,1-59.064-82.8,1.734,1.734,0,0,1-60.8-81.064m0-6.936A5.208,5.208,0,0,0-66-82.8c0,4.222,5.2,7.409,5.2,7.409s5.2-3.33,5.2-7.409A5.208,5.208,0,0,0-60.8-88" transform="translate(66 88)" fill="#fd8087"/>
              </g>
              <g id="g4186" transform="translate(36.156 6.81)">
                <path id="path4188" d="M0-5.406a.462.462,0,0,1,.516-.459A4.191,4.191,0,0,1,4.19-1.706v.814H3.281A3.281,3.281,0,0,1,0-4.173Z" transform="translate(0 5.868)" fill="#68ca44"/>
              </g>
              <g id="g4190" transform="translate(40.346 6.81)">
                <path id="path4192" d="M-48.972-5.406a.462.462,0,0,0-.516-.459,4.191,4.191,0,0,0-3.674,4.159v.814h.909a3.281,3.281,0,0,0,3.281-3.281Z" transform="translate(53.163 5.868)" fill="#4fc123"/>
              </g>
              <g id="g4194" transform="translate(11.313 43.51)">
                <path id="path4196" d="M-54.955-40.774a1.992,1.992,0,0,0,.475-1.276,2.423,2.423,0,0,0-2.589-2.212,2.423,2.423,0,0,0-2.589,2.212,1.992,1.992,0,0,0,.475,1.276" transform="translate(59.657 44.263)" fill="none" stroke="#000" stroke-linecap="round" stroke-linejoin="round" stroke-miterlimit="10" stroke-width="1"/>
              </g>
              <g id="g4198" transform="translate(23.346 38.574)">
                <path id="path4200" d="M-75.18,0a1.956,1.956,0,0,1,.6,1.361c0,1.349-1.573,2.442-3.514,2.442s-3.514-1.093-3.514-2.442A1.956,1.956,0,0,1-81.017,0" transform="translate(81.613 0)" fill="none" stroke="#000" stroke-linecap="round" stroke-linejoin="round" stroke-miterlimit="10" stroke-width="1"/>
              </g>
              <g id="g4202" transform="translate(0.788 38.574)">
                <path id="path4204" d="M-88.9,0l-7.442,7.467a.561.561,0,0,0,.4.957h25.831" transform="translate(96.507)" fill="none" stroke="#000" stroke-linecap="round" stroke-linejoin="round" stroke-miterlimit="10" stroke-width="1"/>
              </g>
              <g id="g4206" transform="translate(30.86 31.583)">
                <path id="path4208" d="M-170.086,0h7.045a.562.562,0,0,1,.4.958l-14.04,14.086a1.263,1.263,0,0,1-.894.371h-7.061" transform="translate(184.64)" fill="none" stroke="#000" stroke-linecap="round" stroke-linejoin="round" stroke-miterlimit="10" stroke-width="1"/>
              </g>
              <g id="g4210" transform="translate(5.621 32.932)">
                <path id="path4212" d="M-65.934-65.934l-5.642-5.642" transform="translate(71.576 71.576)" fill="none" stroke="#000" stroke-linecap="round" stroke-linejoin="round" stroke-miterlimit="10" stroke-width="1"/>
              </g>
              <g id="g4214" transform="translate(8.957 29.634)">
                <path id="path4216" d="M-104.474-104.486l-8.939-8.94" transform="translate(113.413 113.426)" fill="none" stroke="#000" stroke-linecap="round" stroke-linejoin="round" stroke-miterlimit="10" stroke-width="1"/>
              </g>
              <g id="g4218" transform="translate(15.592 29.634)">
                <path id="path4220" d="M-104.486-104.486l-8.94-8.94" transform="translate(113.426 113.426)" fill="none" stroke="#000" stroke-linecap="round" stroke-linejoin="round" stroke-miterlimit="10" stroke-width="1"/>
              </g>
              <g id="g4222" transform="translate(22.228 29.634)">
                <path id="path4224" d="M-104.486-104.486l-8.94-8.94" transform="translate(113.426 113.426)" fill="none" stroke="#000" stroke-linecap="round" stroke-linejoin="round" stroke-miterlimit="10" stroke-width="1"/>
              </g>
              <g id="g4226" transform="translate(28.861 29.634)">
                <path id="path4228" d="M-104.5-104.486l-8.941-8.94" transform="translate(113.44 113.426)" fill="none" stroke="#000" stroke-linecap="round" stroke-linejoin="round" stroke-miterlimit="10" stroke-width="1"/>
              </g>
              <g id="g4230" transform="translate(35.497 29.634)">
                <path id="path4232" d="M-69.432-69.432l-5.941-5.941" transform="translate(75.373 75.373)" fill="none" stroke="#000" stroke-linecap="round" stroke-linejoin="round" stroke-miterlimit="10" stroke-width="1"/>
              </g>
              <g id="g4234" transform="translate(40.286 27.786)">
                <path id="path4236" d="M-52.163-52.163l-4.463-4.463" transform="translate(56.627 56.627)" fill="none" stroke="#000" stroke-linecap="round" stroke-linejoin="round" stroke-miterlimit="10" stroke-width="1"/>
              </g>
              <g id="g4238" transform="translate(43.598 24.464)">
                <path id="path4240" d="M-52.163-52.163l-4.463-4.463" transform="translate(56.627 56.627)" fill="none" stroke="#000" stroke-linecap="round" stroke-linejoin="round" stroke-miterlimit="10" stroke-width="1"/>
              </g>
              <g id="g4242" transform="translate(0.788 23.158)">
                <path id="path4244" d="M-515.526,0h7.558a.562.562,0,0,1,.4.958l-14.04,14.087a1.263,1.263,0,0,1-.894.371h-36.571a.562.562,0,0,1-.4-.958l7.956-7.982" transform="translate(559.638)" fill="none" stroke="#000" stroke-linecap="round" stroke-linejoin="round" stroke-miterlimit="10" stroke-width="1"/>
              </g>
              <g id="g4246" transform="translate(0.788 14.217)">
                <path id="path4248" d="M-318.506,0h24.417a.562.562,0,0,1,.4.958l-14.04,14.086a1.264,1.264,0,0,1-.894.372H-345.2a.562.562,0,0,1-.4-.958l9.949-9.983" transform="translate(345.76)" fill="none" stroke="#000" stroke-linecap="round" stroke-linejoin="round" stroke-miterlimit="10" stroke-width="1"/>
              </g>
              <g id="g4250" transform="translate(20.282 14.217)">
                <path id="path4252" d="M-47.692,0h-4.081" transform="translate(51.773)" fill="none" stroke="#000" stroke-linecap="round" stroke-linejoin="round" stroke-miterlimit="10" stroke-width="1"/>
              </g>
              <g id="g4254" transform="translate(19.384 14.217)">
                <path id="path4256" d="M-179.887,0-195.28,15.416" transform="translate(195.28)" fill="none" stroke="#000" stroke-linecap="round" stroke-linejoin="round" stroke-miterlimit="10" stroke-width="1"/>
              </g>
              <g id="g4258" transform="translate(18.446 21.925)">
                <path id="path4260" d="M-323.517,0H-351.2" transform="translate(351.199)" fill="none" stroke="#000" stroke-linecap="round" stroke-linejoin="round" stroke-miterlimit="10" stroke-width="1"/>
              </g>
              <g id="g4262" transform="translate(7.68 21.925)">
                <path id="path4264" d="M-62.37,0h-5.337" transform="translate(67.706)" fill="none" stroke="#000" stroke-linecap="round" stroke-linejoin="round" stroke-miterlimit="10" stroke-width="1"/>
              </g>
              <g id="g4266" transform="translate(10.556 11.58)">
                <path id="path4268" d="M-60.8-81.064A1.734,1.734,0,0,1-62.532-82.8,1.734,1.734,0,0,1-60.8-84.532,1.734,1.734,0,0,1-59.064-82.8,1.734,1.734,0,0,1-60.8-81.064Zm0-6.936A5.208,5.208,0,0,0-66-82.8c0,4.222,5.2,7.409,5.2,7.409s5.2-3.33,5.2-7.409A5.208,5.208,0,0,0-60.8-88Z" transform="translate(66 88)" fill="none" stroke="#000" stroke-linecap="round" stroke-linejoin="round" stroke-miterlimit="10" stroke-width="1"/>
              </g>
              <g id="g4270" transform="translate(40.346 11.464)">
                <path id="path4272" d="M0,0V6.894" fill="none" stroke="#000" stroke-linecap="round" stroke-linejoin="round" stroke-miterlimit="10" stroke-width="1"/>
              </g>
              <g id="g4274" transform="translate(36.156 6.81)">
                <path id="path4276" d="M0-5.406a.462.462,0,0,1,.516-.459A4.191,4.191,0,0,1,4.19-1.706v.814H3.281A3.281,3.281,0,0,1,0-4.173Z" transform="translate(0 5.868)" fill="none" stroke="#000" stroke-linecap="round" stroke-linejoin="round" stroke-miterlimit="10" stroke-width="1"/>
              </g>
              <g id="g4278" transform="translate(40.346 6.81)">
                <path id="path4280" d="M-48.972-5.406a.462.462,0,0,0-.516-.459,4.191,4.191,0,0,0-3.674,4.159v.814h.909a3.281,3.281,0,0,0,3.281-3.281Z" transform="translate(53.163 5.868)" fill="none" stroke="#000" stroke-linecap="round" stroke-linejoin="round" stroke-miterlimit="10" stroke-width="1"/>
              </g>
            </g>
          </g>
        </g>
      </g>
    </g>
  </g>
</svg>
