<svg xmlns="http://www.w3.org/2000/svg" xmlns:xlink="http://www.w3.org/1999/xlink" width="293" height="224" viewBox="0 0 293 224">
  <defs>
    <filter id="Rectángulo_410074" x="0" y="0" width="293" height="224" filterUnits="userSpaceOnUse">
      <feOffset dy="3" input="SourceAlpha"/>
      <feGaussianBlur stdDeviation="3" result="blur"/>
      <feFlood flood-opacity="0.161"/>
      <feComposite operator="in" in2="blur"/>
      <feComposite in="SourceGraphic"/>
    </filter>
    <clipPath id="clip-path">
      <rect id="Rectángulo_411681" data-name="Rectángulo 411681" width="172.181" height="165.966" fill="none"/>
    </clipPath>
  </defs>
  <g id="_13" data-name="13" transform="translate(-211.051 -4321)">
    <g id="Grupo_1202632" data-name="Grupo 1202632" transform="translate(20.051 -1155.366)">
      <g transform="matrix(1, 0, 0, 1, 191, 5476.37)" filter="url(#Rectángulo_410074)">
        <rect id="Rectángulo_410074-2" data-name="Rectángulo 410074" width="275" height="206" rx="10" transform="translate(9 6)" fill="#ff9800"/>
      </g>
    </g>
    <g id="Grupo_1213297" data-name="Grupo 1213297" transform="translate(271.051 4347)">
      <g id="Grupo_1213296" data-name="Grupo 1213296" clip-path="url(#clip-path)">
        <path id="Trazado_1259892" data-name="Trazado 1259892" d="M279.794,30.5c-4.216.943-8.1,1.849-10.237,5.824-.869.725-3.636.493-4.723.111-2.143-4.065-5.62-4.764-10.163-5.9a14.054,14.054,0,0,1,.74-5.132,22.829,22.829,0,0,1,11.745,4.972,23.652,23.652,0,0,1,11.762-4.991,24.922,24.922,0,0,1,.876,5.117" transform="translate(-130.167 -12.973)" fill="#070707"/>
        <path id="Trazado_1259893" data-name="Trazado 1259893" d="M56.871,52.073c-10.773,2.08-7.752,6.051-12.047,6.25-5.215.241-1.192-3.905-12.646-6.241a10.156,10.156,0,0,1,.566-5.141,22.635,22.635,0,0,1,11.719,5.01,23.163,23.163,0,0,1,11.953-4.989,15.246,15.246,0,0,1,.455,5.111" transform="translate(-16.376 -23.994)" fill="#060606"/>
        <path id="Trazado_1259894" data-name="Trazado 1259894" d="M172.146,218.954l.031,26.36H.258l.031-26.36ZM26.317,230.661a26.327,26.327,0,0,0-3.228-3.864l-7.163,5.409-7.164-5.518-3.068,4.028,10.237,8.328Zm120,.357,10.2,8,10.22-8.3a42.5,42.5,0,0,0-3.06-4.018l-7.341,5.494-7.012-5.415c-1.227,1.449-2.621,2.439-3.013,4.239m-88.528-4.09L51.1,232.174l-7.229-5.349a19.363,19.363,0,0,0-3.08,4.041l10.456,8.118,10.116-8.237c-1.136-1.542-1.8-3.329-3.578-3.819m35.166-.036-6.729,5.287-7.2-5.383a18.65,18.65,0,0,0-3.074,4.052l10.278,8.176,10.331-8.31c-1.252-1.454-1.8-3.159-3.6-3.822m38.741,3.787c-1.4-1.729-1.966-2.918-3.394-3.866l-6.955,5.36-7.185-5.377a15.186,15.186,0,0,0-3.061,4.082l10.269,8.137Z" transform="translate(-0.132 -111.918)" fill="#78c542"/>
        <path id="Trazado_1259895" data-name="Trazado 1259895" d="M172.045,130.522H.127a27.688,27.688,0,0,1,.048-5.192l13.075-.1.008-12.242L.1,112.771c0-1.953-.287-3.447.126-5.166H171.932a15.525,15.525,0,0,1,.044,5.251l-13.065.117.012,12.254,13.067.1a25.683,25.683,0,0,1,.055,5.192M48.329,112.9H18.536v12.375H48.329Zm35.113,0H53.564v12.375H83.441Zm35.166,0H88.73v12.375h29.878Zm35.028,0H123.843v12.375h29.793Z" transform="translate(0 -55.002)" fill="#050504"/>
        <path id="Trazado_1259896" data-name="Trazado 1259896" d="M172.16,272.876l.017,5.212H.224l.017-5.212Z" transform="translate(-0.115 -139.481)" fill="#040502"/>
        <rect id="Rectángulo_411680" data-name="Rectángulo 411680" width="171.857" height="5.16" transform="translate(0.157 101.876)"/>
        <path id="Trazado_1259897" data-name="Trazado 1259897" d="M172.178,154.486l-.031,26.355H.29L.259,154.486ZM26.3,166.041a26.708,26.708,0,0,0-3.254-3.819l-7.127,5.4-6.963-5.407a11.957,11.957,0,0,0-3.2,4.126l10.359,8.089Zm35.139-.007A44.083,44.083,0,0,0,58.23,162.2l-7.18,5.414-6.968-5.388a19.738,19.738,0,0,0-3.326,3.976l10.328,8.265Zm31.6-3.767-6.818,5.4-7.209-5.434a23.231,23.231,0,0,0-3.1,4l10.3,8.192,10.319-8.206c-1.049-1.458-1.766-3.019-3.49-3.957m38.638,3.818c-1.448-1.7-1.985-2.869-3.345-3.857l-6.948,5.386-7.194-5.418a20.456,20.456,0,0,0-3.157,4.064l10.348,8.194Zm35.079-.073c-1.538-1.886-2-2.776-3.277-3.807l-6.968,5.412-7.12-5.385a14.443,14.443,0,0,0-3.219,4.071l10.365,8.151Z" transform="translate(-0.132 -78.966)" fill="#c4d62d"/>
        <path id="Trazado_1259898" data-name="Trazado 1259898" d="M103.788,174.1l-10.358,8.429L83.1,174.261a19.751,19.751,0,0,1,3.326-3.976l6.968,5.389,7.18-5.414a44.08,44.08,0,0,1,3.213,3.837" transform="translate(-42.477 -87.028)" fill="#060601"/>
        <path id="Trazado_1259899" data-name="Trazado 1259899" d="M247.51,174.149l-10.3,8.369-10.348-8.194a20.423,20.423,0,0,1,3.157-4.065l7.194,5.418,6.948-5.387c1.36.988,1.9,2.161,3.345,3.858" transform="translate(-115.963 -87.028)" fill="#060601"/>
        <path id="Trazado_1259900" data-name="Trazado 1259900" d="M32.052,174.123l-10.188,8.39-10.359-8.089a11.964,11.964,0,0,1,3.2-4.126l6.963,5.408,7.127-5.4a26.794,26.794,0,0,1,3.254,3.819" transform="translate(-5.881 -87.048)" fill="#060601"/>
        <path id="Trazado_1259901" data-name="Trazado 1259901" d="M319.332,174.084l-10.218,8.442-10.365-8.151a14.444,14.444,0,0,1,3.219-4.071l7.12,5.385,6.968-5.412c1.274,1.031,1.738,1.921,3.277,3.807" transform="translate(-152.706 -87.037)" fill="#060601"/>
        <path id="Trazado_1259902" data-name="Trazado 1259902" d="M172.144,170.37c1.724.939,2.441,2.5,3.49,3.958l-10.319,8.205-10.3-8.193a23.271,23.271,0,0,1,3.1-4l7.209,5.434Z" transform="translate(-79.235 -87.068)" fill="#060601"/>
        <path id="Trazado_1259903" data-name="Trazado 1259903" d="M100.166,235.16c1.778.49,2.442,2.277,3.578,3.819l-10.116,8.238L83.172,239.1a19.364,19.364,0,0,1,3.08-4.041l7.229,5.348Z" transform="translate(-42.513 -120.149)" fill="#040602"/>
        <path id="Trazado_1259904" data-name="Trazado 1259904" d="M247.588,238.878l-10.326,8.336-10.269-8.137a15.186,15.186,0,0,1,3.061-4.082l7.185,5.377,6.955-5.36c1.428.948,1.992,2.138,3.394,3.866" transform="translate(-116.028 -120.118)" fill="#040602"/>
        <path id="Trazado_1259905" data-name="Trazado 1259905" d="M299.03,239.117c.393-1.8,1.787-2.79,3.014-4.239l7.011,5.414L316.4,234.8a42.4,42.4,0,0,1,3.06,4.017l-10.22,8.3Z" transform="translate(-152.849 -120.018)" fill="#040602"/>
        <path id="Trazado_1259906" data-name="Trazado 1259906" d="M32,238.748l-10.386,8.383L11.38,238.8l3.068-4.028,7.164,5.518,7.163-5.408A26.3,26.3,0,0,1,32,238.748" transform="translate(-5.817 -120.005)" fill="#040602"/>
        <path id="Trazado_1259907" data-name="Trazado 1259907" d="M172.09,235.093c1.8.663,2.35,2.368,3.6,3.822l-10.331,8.31-10.278-8.176A18.634,18.634,0,0,1,158.158,235l7.2,5.383Z" transform="translate(-79.271 -120.119)" fill="#040602"/>
        <path id="Trazado_1259908" data-name="Trazado 1259908" d="M175.1,21.934A21.934,21.934,0,1,1,153.164,0,21.934,21.934,0,0,1,175.1,21.934m-5.3,0a16.632,16.632,0,1,0-16.632,16.632A16.632,16.632,0,0,0,169.8,21.931" transform="translate(-67.078)" fill="#070605"/>
        <path id="Trazado_1259909" data-name="Trazado 1259909" d="M175.34,27.473a16.632,16.632,0,1,1-16.632-16.632A16.632,16.632,0,0,1,175.34,27.473" transform="translate(-72.623 -5.541)" fill="#fcd047"/>
        <path id="Trazado_1259910" data-name="Trazado 1259910" d="M172.155,283.537l.02,27.358H.184L.2,283.537ZM26.278,295.326a35.3,35.3,0,0,0-3.189-3.993L15.944,296.8l-7.212-5.431a24,24,0,0,0-3.056,4.046L15.9,303.638Zm35.113.006a32.527,32.527,0,0,0-3.212-4.014l-7.159,5.5-7.132-5.44a31.96,31.96,0,0,0-3.175,4l10.446,8.238Zm35.144.005a27.685,27.685,0,0,0-3.239-3.955L86.18,296.86l-7.122-5.477a21.6,21.6,0,0,0-3.2,4.013l10.323,8.235Zm35.125.015a36.93,36.93,0,0,0-3.194-3.973l-7.127,5.437-7.166-5.5a22.71,22.71,0,0,0-3.16,4.087l10.192,8.209Zm35.079-.015a22.006,22.006,0,0,0-3.278-3.987l-7.041,5.463-7.16-5.48a26.5,26.5,0,0,0-3.145,4.053l10.238,8.247Z" transform="translate(-0.094 -144.93)" fill="#c7d82e"/>
        <path id="Trazado_1259911" data-name="Trazado 1259911" d="M103.771,303.468l-10.233,8.287-10.445-8.238a31.842,31.842,0,0,1,3.175-4l7.132,5.44,7.159-5.5a32.532,32.532,0,0,1,3.212,4.014" transform="translate(-42.473 -153.066)" fill="#070702"/>
        <path id="Trazado_1259912" data-name="Trazado 1259912" d="M247.548,303.491l-10.456,8.264-10.192-8.21a22.729,22.729,0,0,1,3.16-4.087l7.166,5.5,7.127-5.437a36.776,36.776,0,0,1,3.195,3.973" transform="translate(-115.98 -153.068)" fill="#070702"/>
        <path id="Trazado_1259913" data-name="Trazado 1259913" d="M175.665,303.541l-10.352,8.292L154.99,303.6a21.58,21.58,0,0,1,3.2-4.013l7.122,5.477,7.117-5.478a27.622,27.622,0,0,1,3.239,3.955" transform="translate(-79.223 -153.133)" fill="#060601"/>
        <path id="Trazado_1259914" data-name="Trazado 1259914" d="M32.021,303.477l-10.376,8.312L11.418,303.57a23.974,23.974,0,0,1,3.056-4.045l7.212,5.431,7.145-5.472a35.227,35.227,0,0,1,3.19,3.993" transform="translate(-5.836 -153.081)" fill="#060601"/>
        <path id="Trazado_1259915" data-name="Trazado 1259915" d="M319.331,303.489l-10.386,8.3-10.238-8.247a26.5,26.5,0,0,1,3.145-4.053l7.16,5.48,7.041-5.463a22,22,0,0,1,3.278,3.987" transform="translate(-152.684 -153.082)" fill="#060601"/>
      </g>
    </g>
  </g>
</svg>
