<svg xmlns="http://www.w3.org/2000/svg" xmlns:xlink="http://www.w3.org/1999/xlink" width="129.063" height="73.56" viewBox="0 0 129.063 73.56">
  <defs>
    <clipPath id="clip-path">
      <rect id="Rect치ngulo_411677" data-name="Rect치ngulo 411677" width="85.801" height="73.56" fill="none"/>
    </clipPath>
  </defs>
  <g id="_17" data-name="17" transform="translate(0 -20.074)">
    <g id="Rect치ngulo_410589" data-name="Rect치ngulo 410589" transform="translate(0 35.344)" fill="#5a8441" stroke="#3e5b2c" stroke-width="1">
      <rect width="129.063" height="43.021" rx="8" stroke="none"/>
      <rect x="0.5" y="0.5" width="128.063" height="42.021" rx="7.5" fill="none"/>
    </g>
    <g id="Grupo_1213291" data-name="Grupo 1213291" transform="translate(21.63 20.074)">
      <g id="Grupo_1213290" data-name="Grupo 1213290" clip-path="url(#clip-path)">
        <path id="Trazado_1259788" data-name="Trazado 1259788" d="M84.581,14.126c-2.041-.306-.99-2.732-1.32-4.506a8.321,8.321,0,0,0-2.075-.136A61.928,61.928,0,0,1,74.8,8.257a30.839,30.839,0,0,0-13.633,0,39.043,39.043,0,0,1-19.753.035,28.832,28.832,0,0,0-13.647-.006,38.1,38.1,0,0,1-19.86-.1,23.024,23.024,0,0,0-5.4-.615L2.494,27.267a31.18,31.18,0,0,1,7.9,1.1,33.714,33.714,0,0,0,17.242-.558c4.693-.634,9.5-1.028,14.121.162A37.515,37.515,0,0,0,60.613,28c5.7-1.421,11.677-.825,17.273.541a11.846,11.846,0,0,0,3.286.449c.652-.012,1.328.353,2.112.1l.035-11.316a1.26,1.26,0,0,1,1.233-1.208A1.33,1.33,0,0,1,85.8,18.058l0,51.574a3.776,3.776,0,0,1-3.928,3.927l-47.224-.007a1.251,1.251,0,1,1,.007-2.5l47.2-.008a1.343,1.343,0,0,0,1.451-1.4L83.288,50.6a8.952,8.952,0,0,0-2.113-.123,61.886,61.886,0,0,1-7.026-1.339A32.152,32.152,0,0,0,66.1,48.6c.808,2.539-.474,4.827-2.822,5.256a3.849,3.849,0,0,1-4.511-4.033,38.267,38.267,0,0,1-17.206-.505,6.936,6.936,0,0,1-1.721,8.876,6.734,6.734,0,0,1-8.806-.368,6.85,6.85,0,0,1-.958-8.93c-2.279.119-4.118.911-6.256,1.218a36.735,36.735,0,0,1-13.216-.294A34.667,34.667,0,0,0,2.5,48.6l.038,20.347c0,.734-.143,1.88.958,2.015a50.253,50.253,0,0,0,5.45.062c-.237-.865-1.226-1.287-1.63-2.107a9.62,9.62,0,0,1,2-11.574,9.317,9.317,0,0,1,11.85-.446c3.609,2.773,4.6,7.473,2.647,11.839l-1.77,2.259,7.459.07a1.249,1.249,0,1,1-.014,2.493l-25.571,0A3.778,3.778,0,0,1,0,69.625L0,3.933A3.763,3.763,0,0,1,3.944,0l77.91,0a3.687,3.687,0,0,1,3.914,3.653L85.8,12.67a1.484,1.484,0,0,1-1.22,1.456M58.325,6.234a37,37,0,0,1,18.022-.213,30,30,0,0,0,6.907,1.009c-.062-1.321.677-4.523-1.244-4.522L3.577,2.53C2.4,2.531,2.33,4.239,2.6,5.014a43.115,43.115,0,0,1,8.589,1.327,30.4,30.4,0,0,0,13.641-.065,38.81,38.81,0,0,1,19.56.009,29.363,29.363,0,0,0,13.932-.05M17.407,36.763a1.338,1.338,0,0,1-1.326,1.215c-5.561-.2-8.279-1.93-13.524-1.942a24.527,24.527,0,0,0-.023,3.714,39.543,39.543,0,0,1,8.534,1.308,34.416,34.416,0,0,0,16.1-.5,35.345,35.345,0,0,1,17.091.478,30.062,30.062,0,0,0,6.983.759,1.259,1.259,0,0,1,1.241,1.278c.373,2.63-9.375.28-10.976-.059a30.832,30.832,0,0,0-13.629-.023A38.249,38.249,0,0,1,8,42.941a20.667,20.667,0,0,0-5.455-.592,24.471,24.471,0,0,0,0,3.706,27.625,27.625,0,0,1,6.025.723,35.017,35.017,0,0,0,18.529.035,29.662,29.662,0,0,1,7.261-.753,33.528,33.528,0,0,1,9.147,1.081,34,34,0,0,0,16.93-.331,29.568,29.568,0,0,1,7.078-.751,34.693,34.693,0,0,1,9.759,1.186,10.992,10.992,0,0,0,3.91.5,3.849,3.849,0,0,0,2.094.2l-.01-3.579a6.933,6.933,0,0,0-2.076-.174c-4.631-.35-11.224-3.121-18.722-1.51L56.8,43.9a1.433,1.433,0,0,1-1.752-1.044c-.064-1.2.93-1.263,1.906-1.532a37.527,37.527,0,0,1,20.044-.41,20.037,20.037,0,0,0,4.194.651,4.375,4.375,0,0,0,2.1.061l-.015-3.509c-.744-.313-1.459-.045-2.1-.136-2.233-.319-4.358-.876-6.716-1.334a31.043,31.043,0,0,0-13.531.11,38.078,38.078,0,0,1-19.412-.006,31.575,31.575,0,0,0-13.8-.059c-1.765.343-7.893,2.273-7.773.055.021-.325.156-1.171.682-1.241,2.37-.316,4.617-.831,6.966-1.343a37.557,37.557,0,0,1,16.806.585,29.725,29.725,0,0,0,13.578.015,37.769,37.769,0,0,1,18.02-.37,28.249,28.249,0,0,0,5.181.926,5.4,5.4,0,0,0,2.1.035,34.229,34.229,0,0,0-.02-3.573,8.836,8.836,0,0,0-2.075-.113c-2.232-.285-4.443-.785-6.729-1.3-5.328-1.2-10.464-.678-15.744.538a32.16,32.16,0,0,1-14.837.014c-15.99-4-17.859,3.1-33.209.072-2.8-.551-5.3-1.325-8.141-1.229a28.932,28.932,0,0,0,.039,3.729c5.371.03,8.379,1.789,13.577,1.968a1.31,1.31,0,0,1,1.27,1.3M32.175,55.081c.609,1.6,2.517,2.176,4.07,1.99a4.249,4.249,0,0,0,3.583-3.229,4.017,4.017,0,0,0-1.988-4.562,4.092,4.092,0,0,0-5.1.436,4.014,4.014,0,0,0-.563,5.365m29.547-4.2a1.025,1.025,0,0,0,1.57.31c.552-.4.92-1.376.071-1.779a.938.938,0,0,0-1.444-.292,1.145,1.145,0,0,0-.2,1.761M10.678,69a6.772,6.772,0,1,0,.045-9.522A6.776,6.776,0,0,0,10.678,69" fill="#050403"/>
        <path id="Trazado_1259789" data-name="Trazado 1259789" d="M78.972,176.819H76.449a1.294,1.294,0,0,0-1.318-1.269l-7.459-.07,1.77-2.259c.083.166.262.207.566.207l22.62-.006c.213,0,.406-.008.367-.258a8.149,8.149,0,0,0,9.36.052l7.144.177c.415.179.78.743,1.3.683.438-.05.8-.462,1.138-.665h13.631a1.223,1.223,0,0,0,1.245-1.193l-.006-17.257a8.951,8.951,0,0,1,2.113.123l.012,19.054a1.343,1.343,0,0,1-1.45,1.4l-47.2.008a1.26,1.26,0,0,0-1.306,1.28" transform="translate(-45.63 -104.485)" fill="#bc8354"/>
        <path id="Trazado_1259790" data-name="Trazado 1259790" d="M252.621,33.76a12.767,12.767,0,0,0-.029,2.444,1.26,1.26,0,0,0-1.233,1.208l-.035,11.316c-.785.251-1.46-.114-2.113-.1l.014-19.508a8.321,8.321,0,0,1,2.075.136c.33,1.774-.721,4.2,1.32,4.506" transform="translate(-168.04 -19.635)" fill="#bf8656"/>
        <path id="Trazado_1259791" data-name="Trazado 1259791" d="M86.349,24.955l-.014,19.509a11.844,11.844,0,0,1-3.286-.449c-5.6-1.367-11.572-1.962-17.273-.541a37.516,37.516,0,0,1-18.858-.032c-4.621-1.19-9.428-.8-14.12-.161a33.715,33.715,0,0,1-17.242.557,31.175,31.175,0,0,0-7.9-1.1l.014-19.693a23.006,23.006,0,0,1,5.4.614,38.1,38.1,0,0,0,19.86.1,28.828,28.828,0,0,1,13.647.005,39.047,39.047,0,0,0,19.753-.034,30.834,30.834,0,0,1,13.633,0,61.927,61.927,0,0,0,6.39,1.228M20.425,31.131A3.766,3.766,0,1,0,16.658,34.9a3.765,3.765,0,0,0,3.766-3.765m26.495,1.218a4.983,4.983,0,1,0-4.983,4.98,4.982,4.982,0,0,0,4.983-4.98m14.661-1.217a3.765,3.765,0,1,0-3.765,3.763,3.764,3.764,0,0,0,3.765-3.763M74,28.618a1.248,1.248,0,1,0-1.248,1.247A1.248,1.248,0,0,0,74,28.618m-45.5.5a1.246,1.246,0,1,0-1.246,1.245,1.245,1.245,0,0,0,1.246-1.245m51.113,6.956a3.762,3.762,0,1,0-3.763,3.761,3.762,3.762,0,0,0,3.763-3.761m5.37-2.4a1.237,1.237,0,1,0-1.237,1.236,1.237,1.237,0,0,0,1.237-1.236M31.024,38.593a3.764,3.764,0,1,0-3.764,3.763,3.763,3.763,0,0,0,3.764-3.763M55.991,40a1.244,1.244,0,1,0-1.244,1.244A1.244,1.244,0,0,0,55.991,40" transform="translate(-5.163 -15.471)" fill="#d3975b"/>
        <path id="Trazado_1259792" data-name="Trazado 1259792" d="M86.35,150.993l.006,17.257a1.223,1.223,0,0,1-1.245,1.193H71.48a1.709,1.709,0,0,0-.438-1.6,1.308,1.308,0,0,0-1.537.018c-.453.359-.443,1.019-.461,1.568L61.9,169.25a8.145,8.145,0,1,0-9.36-.052c.038.25-.154.258-.368.258l-22.619.006c-.3,0-.483-.041-.566-.207,1.956-4.366.962-9.066-2.648-11.839a9.316,9.316,0,0,0-11.85.446,9.621,9.621,0,0,0-2,11.574l-4.777.031-.038-20.347a34.681,34.681,0,0,1,8.106,1.217A36.735,36.735,0,0,0,29,150.629c2.138-.306,3.977-1.1,6.256-1.218a6.851,6.851,0,0,0,.958,8.93,6.734,6.734,0,0,0,8.806.368,6.937,6.937,0,0,0,1.721-8.876,38.271,38.271,0,0,0,17.206.5,3.849,3.849,0,0,0,4.511,4.033c2.348-.429,3.63-2.717,2.822-5.256a32.151,32.151,0,0,1,8.048.538,61.894,61.894,0,0,0,7.026,1.339M31,153.891a1.247,1.247,0,1,0-1.247,1.247A1.247,1.247,0,0,0,31,153.891m54.178,6.9a6.8,6.8,0,1,0-6.8,6.792,6.794,6.794,0,0,0,6.8-6.792" transform="translate(-5.175 -100.518)" fill="#d3975b"/>
        <path id="Trazado_1259793" data-name="Trazado 1259793" d="M22.531,111.2a25.061,25.061,0,0,1,2.532-.014c-.119,2.218,6.008.288,7.773-.055a31.575,31.575,0,0,1,13.8.059,38.078,38.078,0,0,0,19.412.006,31.043,31.043,0,0,1,13.531-.11c2.358.459,4.483,1.015,6.716,1.334l.019,3.584a20.037,20.037,0,0,1-4.194-.651,37.527,37.527,0,0,0-20.044.41c-.976.269-1.971.327-1.906,1.532l-2.565.212a1.259,1.259,0,0,0-1.241-1.278,30.062,30.062,0,0,1-6.983-.759,35.345,35.345,0,0,0-17.091-.478,34.416,34.416,0,0,1-16.1.5,39.542,39.542,0,0,0-8.534-1.308,24.532,24.532,0,0,1,.023-3.714c5.244.013,7.963,1.747,13.524,1.942a1.338,1.338,0,0,0,1.326-1.215" transform="translate(-5.124 -74.438)" fill="#edb785"/>
        <path id="Trazado_1259794" data-name="Trazado 1259794" d="M86.318,93.084l-.009,3.651a28.257,28.257,0,0,1-5.181-.926,37.767,37.767,0,0,0-18.019.37,29.725,29.725,0,0,1-13.578-.015,37.556,37.556,0,0,0-16.806-.585c-2.349.512-4.6,1.026-6.966,1.343-.526.07-.662.916-.682,1.241a25.059,25.059,0,0,0-2.532.014,1.31,1.31,0,0,0-1.27-1.3c-5.2-.178-8.206-1.938-13.577-1.968a28.99,28.99,0,0,1-.039-3.729c2.842-.1,5.345.678,8.141,1.229,15.35,3.025,17.219-4.067,33.209-.072a32.155,32.155,0,0,0,14.837-.014c5.28-1.217,10.416-1.742,15.744-.538,2.286.516,4.5,1.016,6.729,1.3" transform="translate(-5.136 -61.414)" fill="#dea36c"/>
        <path id="Trazado_1259795" data-name="Trazado 1259795" d="M57.6,130.394l2.565-.212a1.433,1.433,0,0,0,1.752,1.043l5.677-1.22c7.5-1.611,14.091,1.161,18.722,1.51l-.008,3.558a11,11,0,0,1-3.91-.5,34.692,34.692,0,0,0-9.759-1.186,29.549,29.549,0,0,0-7.078.751,34,34,0,0,1-16.93.331,33.543,33.543,0,0,0-9.147-1.081,29.646,29.646,0,0,0-7.261.753A35.018,35.018,0,0,1,13.7,134.1a27.622,27.622,0,0,0-6.025-.723,24.387,24.387,0,0,1,0-3.706,20.652,20.652,0,0,1,5.455.592A38.253,38.253,0,0,0,33,130.312a30.832,30.832,0,0,1,13.629.023c1.6.339,11.349,2.689,10.976.059" transform="translate(-5.123 -87.324)" fill="#dfa46d"/>
        <path id="Trazado_1259796" data-name="Trazado 1259796" d="M63.44,11.427a29.363,29.363,0,0,1-13.932.05,38.81,38.81,0,0,0-19.56-.009,30.4,30.4,0,0,1-13.642.065,43.112,43.112,0,0,0-8.588-1.327c-.274-.775-.2-2.483.974-2.484L87.126,7.7c1.921,0,1.182,3.2,1.244,4.522a30,30,0,0,1-6.907-1.009,37,37,0,0,0-18.022.213" transform="translate(-5.116 -5.193)" fill="#c9f09c"/>
        <path id="Trazado_1259797" data-name="Trazado 1259797" d="M38.345,178.427a9.016,9.016,0,0,1-2.451,7.229,9.077,9.077,0,0,1-7.12,2.352,6.772,6.772,0,0,1,9.571-9.581" transform="translate(-18.097 -119.011)" fill="#efb986"/>
        <path id="Trazado_1259798" data-name="Trazado 1259798" d="M32.782,192a9.079,9.079,0,0,0,7.12-2.352,9.018,9.018,0,0,0,2.451-7.229A6.772,6.772,0,1,1,32.782,192" transform="translate(-22.104 -123.001)" fill="#dfa46d"/>
        <path id="Trazado_1259799" data-name="Trazado 1259799" d="M102.82,149.871a5.634,5.634,0,0,1-5.664,5.8,4.013,4.013,0,0,1,.563-5.365,4.092,4.092,0,0,1,5.1-.436" transform="translate(-64.981 -100.591)" fill="#edb785"/>
        <path id="Trazado_1259800" data-name="Trazado 1259800" d="M98.781,157.1a5.634,5.634,0,0,0,5.664-5.8,4.017,4.017,0,0,1,1.988,4.562,4.249,4.249,0,0,1-3.583,3.229c-1.553.186-3.461-.392-4.07-1.99" transform="translate(-66.607 -102.018)" fill="#dea36c"/>
        <path id="Trazado_1259801" data-name="Trazado 1259801" d="M12.556,211.584c.4.819,1.393,1.241,1.63,2.107a50.175,50.175,0,0,1-5.45-.062c-1.1-.134-.956-1.28-.958-2.014Z" transform="translate(-5.242 -142.668)" fill="#b27d4f"/>
        <path id="Trazado_1259802" data-name="Trazado 1259802" d="M249.255,139.234l.008-3.558a6.925,6.925,0,0,1,2.076.174l.01,3.579a3.852,3.852,0,0,1-2.094-.2" transform="translate(-168.069 -91.484)" fill="#cb9258"/>
        <path id="Trazado_1259803" data-name="Trazado 1259803" d="M249.212,100.859l.009-3.651a8.818,8.818,0,0,1,2.075.113,34.229,34.229,0,0,1,.02,3.573,5.4,5.4,0,0,1-2.1-.035" transform="translate(-168.04 -65.538)" fill="#cb9258"/>
        <path id="Trazado_1259804" data-name="Trazado 1259804" d="M249.223,120.157l-.019-3.584c.643.092,1.358-.177,2.1.136l.015,3.509a4.375,4.375,0,0,1-2.1-.061" transform="translate(-168.035 -78.59)" fill="#dea36c"/>
        <path id="Trazado_1259805" data-name="Trazado 1259805" d="M190.467,150.675a3.769,3.769,0,0,1-1.641,1.469,1.144,1.144,0,0,1,.2-1.76.938.938,0,0,1,1.444.292" transform="translate(-127.105 -101.262)" fill="#edb785"/>
        <path id="Trazado_1259806" data-name="Trazado 1259806" d="M189.5,153.177a3.773,3.773,0,0,0,1.641-1.469c.849.4.481,1.382-.07,1.779a1.025,1.025,0,0,1-1.571-.31" transform="translate(-127.775 -102.295)" fill="#dea36c"/>
        <path id="Trazado_1259807" data-name="Trazado 1259807" d="M151.181,173.62a8.146,8.146,0,1,0-8.146,8.142,8.144,8.144,0,0,0,8.146-8.142m-12.5,3.561a5.625,5.625,0,1,0,.369-7.546,5.628,5.628,0,0,0-.369,7.546" transform="translate(-90.954 -111.58)" fill="#060403"/>
        <path id="Trazado_1259808" data-name="Trazado 1259808" d="M198.524,207.8c-.334.2-.7.615-1.138.665-.518.06-.883-.5-1.3-.683.018-.549.008-1.209.461-1.568a1.308,1.308,0,0,1,1.537-.018,1.709,1.709,0,0,1,.438,1.6" transform="translate(-132.219 -138.87)" fill="#0b0805"/>
        <path id="Trazado_1259809" data-name="Trazado 1259809" d="M107.568,41.507a4.983,4.983,0,1,1-4.983-4.98,4.982,4.982,0,0,1,4.983,4.98M100.7,42.881a2.249,2.249,0,0,0,3.586.4,2.464,2.464,0,1,0-3.586-.4" transform="translate(-65.812 -24.63)" fill="#060403"/>
        <path id="Trazado_1259810" data-name="Trazado 1259810" d="M31.262,40.286A3.766,3.766,0,1,1,27.5,36.521a3.766,3.766,0,0,1,3.767,3.765m-4.766.677a1.228,1.228,0,1,0,.132-1.554,1.228,1.228,0,0,0-.132,1.554" transform="translate(-16 -24.626)" fill="#060403"/>
        <path id="Trazado_1259811" data-name="Trazado 1259811" d="M157.625,40.292a3.765,3.765,0,1,1-3.765-3.763,3.764,3.764,0,0,1,3.765,3.763m-4.668.67c.206.643,1.087.66,1.631.315s.83-1.423,0-1.8c-.23-.558-.982-.486-1.391-.238a1.1,1.1,0,0,0-.24,1.718" transform="translate(-101.208 -24.631)" fill="#060403"/>
        <path id="Trazado_1259812" data-name="Trazado 1259812" d="M213.014,55.481a3.763,3.763,0,1,1-3.763-3.761,3.762,3.762,0,0,1,3.763,3.761m-4.687.642a1.045,1.045,0,0,0,1.565.418,1.1,1.1,0,0,0,.073-1.92c-.453-.306-.823-.6-1.45-.145a1.124,1.124,0,0,0-.188,1.647" transform="translate(-138.558 -34.874)" fill="#060403"/>
        <path id="Trazado_1259813" data-name="Trazado 1259813" d="M63.812,63.2a3.764,3.764,0,1,1-3.765-3.762A3.764,3.764,0,0,1,63.812,63.2m-4.62.719c.233.605,1.055.6,1.574.275s.859-1.346.071-1.741a1.035,1.035,0,0,0-1.561-.216,1.07,1.07,0,0,0-.085,1.683" transform="translate(-37.951 -40.08)" fill="#060403"/>
        <path id="Trazado_1259814" data-name="Trazado 1259814" d="M150.9,72.732a1.244,1.244,0,1,1-1.244-1.244,1.244,1.244,0,0,1,1.244,1.244" transform="translate(-100.072 -48.203)" fill="#0b0805"/>
        <path id="Trazado_1259815" data-name="Trazado 1259815" d="M239.958,53.345a1.237,1.237,0,1,1-1.237-1.236,1.236,1.236,0,0,1,1.237,1.236" transform="translate(-160.132 -35.136)" fill="#0b0805"/>
        <path id="Trazado_1259816" data-name="Trazado 1259816" d="M66.509,39.333a1.246,1.246,0,1,1-1.246-1.245,1.245,1.245,0,0,1,1.246,1.245" transform="translate(-43.166 -25.682)" fill="#0b0805"/>
        <path id="Trazado_1259817" data-name="Trazado 1259817" d="M206.18,37.783a1.248,1.248,0,1,1-1.248-1.247,1.247,1.247,0,0,1,1.248,1.247" transform="translate(-137.341 -24.636)" fill="#060403"/>
        <path id="Trazado_1259818" data-name="Trazado 1259818" d="M217.494,170.973a6.8,6.8,0,1,1-6.8-6.792,6.794,6.794,0,0,1,6.8,6.792m-10.473,2.177a4.279,4.279,0,1,0,.617-5.172,4.28,4.28,0,0,0-.617,5.172" transform="translate(-137.488 -110.705)" fill="#060403"/>
        <path id="Trazado_1259819" data-name="Trazado 1259819" d="M74.135,161.283a1.247,1.247,0,1,1-1.247-1.246,1.247,1.247,0,0,1,1.247,1.246" transform="translate(-48.307 -107.911)" fill="#0b0805"/>
        <path id="Trazado_1259820" data-name="Trazado 1259820" d="M151.815,174.463a7.156,7.156,0,0,1-7.92,7.914,5.625,5.625,0,0,1,7.92-7.914" transform="translate(-96.164 -116.775)" fill="#efb986"/>
        <path id="Trazado_1259821" data-name="Trazado 1259821" d="M146.543,185.025a7.157,7.157,0,0,0,7.92-7.914,5.625,5.625,0,1,1-7.92,7.914" transform="translate(-98.812 -119.423)" fill="#dea36c"/>
        <path id="Trazado_1259822" data-name="Trazado 1259822" d="M109.194,44.814a3.675,3.675,0,0,1-3.2,3.331,2.326,2.326,0,0,1,3.2-3.331" transform="translate(-71.1 -29.894)" fill="#edb785"/>
        <path id="Trazado_1259823" data-name="Trazado 1259823" d="M107.121,49.14a3.674,3.674,0,0,0,3.2-3.331,2.3,2.3,0,0,1,.383,3.733,2.249,2.249,0,0,1-3.586-.4" transform="translate(-72.23 -30.888)" fill="#dea36c"/>
        <path id="Trazado_1259824" data-name="Trazado 1259824" d="M33.457,44.45a2.1,2.1,0,0,1-1.683,1.724,1.228,1.228,0,0,1,1.683-1.724" transform="translate(-21.278 -29.837)" fill="#edb785"/>
        <path id="Trazado_1259825" data-name="Trazado 1259825" d="M32.223,46.589a2.1,2.1,0,0,0,1.683-1.724,1.228,1.228,0,1,1-1.683,1.724" transform="translate(-21.728 -30.252)" fill="#dea36c"/>
        <path id="Trazado_1259826" data-name="Trazado 1259826" d="M159.872,44.714a2.63,2.63,0,0,1-1.631,1.48,1.1,1.1,0,0,1,.24-1.718c.409-.248,1.161-.321,1.391.238" transform="translate(-106.491 -29.863)" fill="#edb785"/>
        <path id="Trazado_1259827" data-name="Trazado 1259827" d="M158.88,47.073a2.629,2.629,0,0,0,1.631-1.48c.83.373.547,1.45,0,1.8s-1.425.328-1.631-.315" transform="translate(-107.131 -30.743)" fill="#dea36c"/>
        <path id="Trazado_1259828" data-name="Trazado 1259828" d="M215.273,59.841a2.27,2.27,0,0,1-1.638,1.5,1.124,1.124,0,0,1,.188-1.647c.627-.454,1-.161,1.45.145" transform="translate(-143.866 -40.094)" fill="#edb785"/>
        <path id="Trazado_1259829" data-name="Trazado 1259829" d="M214.2,62.129a2.271,2.271,0,0,0,1.638-1.5,1.1,1.1,0,0,1-.073,1.92,1.045,1.045,0,0,1-1.565-.418" transform="translate(-144.434 -40.88)" fill="#dea36c"/>
        <path id="Trazado_1259830" data-name="Trazado 1259830" d="M66.09,67.731c-.512.55-.914,1.213-1.646,1.467a1.07,1.07,0,0,1,.085-1.683,1.034,1.034,0,0,1,1.56.216" transform="translate(-43.203 -45.356)" fill="#edb785"/>
        <path id="Trazado_1259831" data-name="Trazado 1259831" d="M65.215,70.163c.732-.253,1.133-.917,1.646-1.467.788.4.454,1.409-.071,1.741s-1.342.331-1.574-.275" transform="translate(-43.974 -46.321)" fill="#d3975b"/>
        <path id="Trazado_1259832" data-name="Trazado 1259832" d="M218.011,172.426a5.429,5.429,0,0,1-5.775,5.915,4.279,4.279,0,0,1,5.775-5.915" transform="translate(-142.703 -115.895)" fill="#efb986"/>
        <path id="Trazado_1259833" data-name="Trazado 1259833" d="M213.478,179.474a5.429,5.429,0,0,0,5.775-5.915,4.279,4.279,0,1,1-5.775,5.915" transform="translate(-143.945 -117.028)" fill="#dea36c"/>
      </g>
    </g>
  </g>
</svg>
