<svg xmlns="http://www.w3.org/2000/svg" xmlns:xlink="http://www.w3.org/1999/xlink" width="70" height="70" viewBox="0 0 70 70">
  <defs>
    <clipPath id="clip-path">
      <rect id="Rectángulo_411694" data-name="Rectángulo 411694" width="47.053" height="47.502" fill="none"/>
    </clipPath>
  </defs>
  <g id="Grupo_1202268" data-name="Grupo 1202268" transform="translate(-1041.835 -3716)">
    <circle id="Elipse_12373" data-name="Elipse 12373" cx="35" cy="35" r="35" transform="translate(1041.835 3716)" fill="#ffc94a"/>
    <g id="Grupo_1213317" data-name="Grupo 1213317" transform="translate(1053.309 3727.249)">
      <g id="Grupo_1213316" data-name="Grupo 1213316" clip-path="url(#clip-path)">
        <path id="Trazado_1260072" data-name="Trazado 1260072" d="M43.588.176a1.663,1.663,0,0,1,.822.1.822.822,0,0,1,.169.709A47.157,47.157,0,0,0,42.2,12.007c.926-.485,4.371-2.293,4.8-1.358a.953.953,0,0,1-.2.94,12.488,12.488,0,0,0-2.405,4.754l1.9.222a.748.748,0,0,1,.67.722V46.714a.749.749,0,0,1-.763.788H.874a.748.748,0,0,1-.763-.788V17.288a.752.752,0,0,1,.666-.725l.973-.154C1.309,15.077-.387,14.091.081,13.335a.8.8,0,0,1,.645-.284,11.059,11.059,0,0,1,4.8,2.465A16.043,16.043,0,0,0,2.567,8.353a.91.91,0,0,1-.018-.694c.637-1.145,4.875,1.793,5.682,2.6A32.871,32.871,0,0,0,5.349.851.867.867,0,0,1,5.594.087a1.052,1.052,0,0,1,.81,0c3.315,1.814,5.337,4.66,6.878,7.976A17.668,17.668,0,0,1,19.066.222a1.5,1.5,0,0,1,.718-.043A.8.8,0,0,1,20.106,1a47.634,47.634,0,0,0-2.378,11c.938-.483,4.063-2.133,4.738-1.452a.822.822,0,0,1,.068.747,11.833,11.833,0,0,0-2.319,4.218l5.451-.018c-.417-.957-1.561-1.4-1.1-2.2a.767.767,0,0,1,.7-.234,11.317,11.317,0,0,1,4.756,2.46,17.277,17.277,0,0,0-2.961-7.15.878.878,0,0,1,.04-.835c.783-.8,4.669,1.808,5.585,2.7A32.1,32.1,0,0,0,29.842.929.8.8,0,0,1,30,.133a.9.9,0,0,1,.779-.076c3.329,1.769,5.359,4.582,6.964,8A17.731,17.731,0,0,1,43.588.176M14,15.519C13.379,11.025,11.31,5.286,7.547,2.495A39.586,39.586,0,0,1,9.983,18.921l2.474.014A11.425,11.425,0,0,1,14,15.519m24.453.01a25.189,25.189,0,0,0-2.758-8.619,13.675,13.675,0,0,0-3.655-4.384,40.031,40.031,0,0,1,2.41,16.4l2.491.006a10.9,10.9,0,0,1,1.512-3.4M15.137,14.091,16.3,13.034A59.334,59.334,0,0,1,18.034,2.94a17.819,17.819,0,0,0-4.011,7.073,37.946,37.946,0,0,1,1.115,4.078m24.465.018L40.774,13a57.253,57.253,0,0,1,1.742-10.09,17.745,17.745,0,0,0-4.022,7.12A38.952,38.952,0,0,1,39.6,14.109m-30.94,4.8a42.925,42.925,0,0,0-.122-6.339A11.354,11.354,0,0,0,4.927,9.562a18.679,18.679,0,0,1,2.2,9.365ZM33.136,18.9c.059-2.284.039-4.169-.1-6.294A10.828,10.828,0,0,0,29.4,9.589a18.847,18.847,0,0,1,2.2,9.329Zm-19.26.037,4.088,0a20.913,20.913,0,0,1,2.155-6.581c-2.706.99-5.568,3.676-6.244,6.586m28.563-.013a21.587,21.587,0,0,1,2.1-6.551,11.185,11.185,0,0,0-4.656,3.451,8.631,8.631,0,0,0-1.546,3.117Zm-36.642,0c.478-1.266-2.162-3.4-3.128-3.717a11.09,11.09,0,0,1,1.115,3.731Zm24.49.022c.444-1.2-2.012-3.332-3.077-3.685a13.4,13.4,0,0,1,1.039,3.654Zm-3.407-.014a8.577,8.577,0,0,0-.461-2.068l-6.659.01-.439,2.061Zm18.72,0-.052-1.125-1.527-.124-.262,1.241ZM2.447,18.921,2.253,17.8l-.739.017-.033,1.12Zm43.134,1.355H1.488V22.4H45.581ZM3.366,23.759l-1.894-.042L1.52,27.8Zm1.226,6.307,2.853-6.331-2.612,0L1.968,30.082c.964.033,1.778.034,2.624-.016m4.065.015,2.859-6.343-2.6-.012L6.039,30.082Zm4.076-.01,2.854-6.335-2.612,0-2.865,6.342Zm4.069.007,2.855-6.341-2.6-.009-2.874,6.356Zm4.08-.019,2.851-6.323H21.119l-2.87,6.353Zm4.058.025,2.86-6.345-2.6-.011-2.875,6.357Zm4.085-.029,2.848-6.314-2.6-.024L26.4,30.081a21.041,21.041,0,0,0,2.626-.027m4.055.033,2.862-6.349-2.6-.01-2.874,6.349Zm4.056.025,2.883-6.373-2.6-.023-2.877,6.37Zm4.079-.011,2.871-6.364-2.608-.007L38.606,30.09Zm4.38,0-.043-6.3-2.875,6.293ZM5.075,38.119l40.509,0-.013-6.675-44.084,0,.008,6.679,2.545-.04a1.818,1.818,0,0,1-1.084-1.947A1.6,1.6,0,0,1,4.584,34.85a1.647,1.647,0,0,1,1.538,1.377c.154.822-.424,1.329-1.048,1.892m40.506,1.311H1.488v6.744H45.581Z" transform="translate(0 0)"/>
        <path id="Trazado_1260088" data-name="Trazado 1260088" d="M57.194,174.133a1.605,1.605,0,1,1-1.605-1.6,1.605,1.605,0,0,1,1.605,1.6" transform="translate(-44.044 -140.765)"/>
        <path id="Trazado_1260089" data-name="Trazado 1260089" d="M122.317,181.788a1.606,1.606,0,1,1-1.606-1.605,1.606,1.606,0,0,1,1.606,1.605" transform="translate(-97.177 -147.01)"/>
        <path id="Trazado_1260090" data-name="Trazado 1260090" d="M190.939,173.09a1.606,1.606,0,1,1-1.606-1.605,1.606,1.606,0,0,1,1.606,1.605" transform="translate(-153.165 -139.914)"/>
        <path id="Trazado_1260091" data-name="Trazado 1260091" d="M95.308,189.3a1.606,1.606,0,1,1-1.606-1.605,1.606,1.606,0,0,1,1.606,1.605" transform="translate(-75.141 -153.138)"/>
        <path id="Trazado_1260092" data-name="Trazado 1260092" d="M229.066,189.872a1.606,1.606,0,1,1-1.606-1.605,1.605,1.605,0,0,1,1.606,1.605" transform="translate(-184.274 -153.606)"/>
        <path id="Trazado_1260093" data-name="Trazado 1260093" d="M152.832,188.268a1.6,1.6,0,1,1-1.6-1.6,1.6,1.6,0,0,1,1.6,1.6" transform="translate(-122.078 -152.299)"/>
        <path id="Trazado_1260094" data-name="Trazado 1260094" d="M178.381,184.882a1.314,1.314,0,1,1-1.314-1.314,1.314,1.314,0,0,1,1.314,1.314" transform="translate(-143.395 -149.772)"/>
        <path id="Trazado_1260095" data-name="Trazado 1260095" d="M205.4,190.347a1.32,1.32,0,1,1-1.32-1.32,1.32,1.32,0,0,1,1.32,1.32" transform="translate(-165.427 -154.226)"/>
        <path id="Trazado_1260096" data-name="Trazado 1260096" d="M44.717,191.421A1.316,1.316,0,1,1,43.4,190.1a1.316,1.316,0,0,1,1.316,1.316" transform="translate(-34.337 -155.106)"/>
        <path id="Trazado_1260097" data-name="Trazado 1260097" d="M17.1,175.258a1.316,1.316,0,1,1-1.316-1.315,1.316,1.316,0,0,1,1.316,1.315" transform="translate(-11.803 -141.919)"/>
        <path id="Trazado_1260098" data-name="Trazado 1260098" d="M233.026,174.2a1.319,1.319,0,1,1-1.319-1.318,1.319,1.319,0,0,1,1.319,1.318" transform="translate(-187.972 -141.054)"/>
        <path id="Trazado_1260099" data-name="Trazado 1260099" d="M71.745,185.92a1.317,1.317,0,1,1-1.317-1.317,1.317,1.317,0,0,1,1.317,1.317" transform="translate(-56.386 -150.617)"/>
      </g>
    </g>
  </g>
</svg>
