<svg xmlns="http://www.w3.org/2000/svg" xmlns:xlink="http://www.w3.org/1999/xlink" width="70" height="70" viewBox="0 0 70 70">
  <defs>
    <clipPath id="clip-path">
      <rect id="Rectángulo_411695" data-name="Rectángulo 411695" width="54.847" height="54.883" fill="none"/>
    </clipPath>
  </defs>
  <g id="Grupo_1202276" data-name="Grupo 1202276" transform="translate(-1040.835 -3827)">
    <circle id="Elipse_12375" data-name="Elipse 12375" cx="35" cy="35" r="35" transform="translate(1040.835 3827)" fill="#ffc94a"/>
    <g id="Grupo_1213319" data-name="Grupo 1213319" transform="translate(1048.411 3834.559)">
      <g id="Grupo_1213318" data-name="Grupo 1213318" clip-path="url(#clip-path)">
        <path id="Trazado_1260100" data-name="Trazado 1260100" d="M142.885,233.985a.526.526,0,1,1-.526-.526.525.525,0,0,1,.526.526" transform="translate(-111.198 -183.032)"/>
        <path id="Trazado_1260101" data-name="Trazado 1260101" d="M149.1,239.685a.526.526,0,1,1-.526-.526.526.526,0,0,1,.526.526" transform="translate(-116.073 -187.501)"/>
        <path id="Trazado_1260106" data-name="Trazado 1260106" d="M31.582,42.526,29.362,44.8a.886.886,0,0,1-1.176,0l-2.172-2.2a.778.778,0,0,1,1.225-.958l.721.645a7.09,7.09,0,0,1,6.386-6.737c.985-.088,1.924-.045,2.931-.051a.794.794,0,0,1,.826.774c-.008,1.156-1.58.631-3.557.811a5.406,5.406,0,0,0-4.961,5.194l.731-.653a1.109,1.109,0,0,1,.945-.167c.242.09.532.85.322,1.065" transform="translate(-20.313 -27.829)"/>
        <path id="Trazado_1260107" data-name="Trazado 1260107" d="M15.85,97.8a5.521,5.521,0,0,1-6.935,1.421,5.512,5.512,0,0,1-6.79-1.256,8.581,8.581,0,0,1-.077-11.217,5.6,5.6,0,0,1,6.147-1.67c.321-.883,1.531-4.061,2.677-3.344,1.161.727-.746,1.977-.94,3.208a5.731,5.731,0,0,1,6.035,2.028A8.628,8.628,0,0,1,15.85,97.8m-6.145.039a3.858,3.858,0,0,0,4.853-.916,7.026,7.026,0,0,0-.067-9.283,3.86,3.86,0,0,0-4.872-.8,1.269,1.269,0,0,1-1.353.036,3.812,3.812,0,0,0-4.628.477A6.989,6.989,0,0,0,3.73,97.358a3.812,3.812,0,0,0,4.651.342,1.358,1.358,0,0,1,1.324.139" transform="translate(0 -63.998)"/>
        <path id="Trazado_1260108" data-name="Trazado 1260108" d="M44.845,180.485a.878.878,0,0,1,.007,1.173l-2.212,2.188a.971.971,0,0,1-1.046-.159.944.944,0,0,1,.1-1.081l.641-.72a7.1,7.1,0,0,1-6.75-6.544c-.062-.939-.03-1.815-.038-2.774a.792.792,0,0,1,.776-.823c1.119,0,.671,1.528.8,3.418a5.413,5.413,0,0,0,5.2,5.1l-.648-.728a1.059,1.059,0,0,1-.162-.945c.145-.31.874-.514,1.12-.272Z" transform="translate(-27.87 -134.648)"/>
        <path id="Trazado_1260110" data-name="Trazado 1260110" d="M104.949,22.774H98.768a.791.791,0,0,1-.813-.757.84.84,0,0,1,.8-.792l2.289,0,0-7.375a6.947,6.947,0,1,1,1.619,0l0,7.375,2.289,0a.839.839,0,0,1,.8.791.794.794,0,0,1-.812.758m-2.3-15.837.033,1.832,1.84-1.029a.837.837,0,0,1,1.068.38.947.947,0,0,1-.385,1.011l-2.553,1.476.033,1.671a5.386,5.386,0,1,0-1.662,0l.033-1.673L98.507,9.136a.959.959,0,0,1-.334-1.128.953.953,0,0,1,1.01-.277l1.846,1.039.043-1.869a.907.907,0,0,1,.845-.727.982.982,0,0,1,.737.764" transform="translate(-74.409 0)"/>
        <path id="Trazado_1260111" data-name="Trazado 1260111" d="M187.5,95.747a.93.93,0,0,1,.812.7.876.876,0,0,1-.756.883l-6.335,0a.947.947,0,0,1-.753-.735c-.019-.285.337-.823.625-.829l2.535-.052,0-9.46c-3.85.216-6.718-2.525-7.6-6.19a.873.873,0,0,1,.661-1.192,6.765,6.765,0,0,1,7.714,3.315,6.748,6.748,0,0,1,7.7-3.316,1.194,1.194,0,0,1,.645.43,2.079,2.079,0,0,1,.036.8c-.912,3.574-3.717,6.4-7.618,6.134l0,9.482Zm-3.79-11.215a8.286,8.286,0,0,0-1.42-2.637,5.074,5.074,0,0,0-4.58-1.623c.621,2.377,3.31,5.029,6,4.26m7.374-4.271a5.4,5.4,0,0,0-5.975,4.316c2.728.63,5.339-1.857,5.975-4.316" transform="translate(-137.952 -61.645)"/>
        <path id="Trazado_1260112" data-name="Trazado 1260112" d="M182.467,34.856a5.384,5.384,0,0,0-5.21-5.3l.647.722a1.072,1.072,0,0,1,.159.943.862.862,0,0,1-1.122.27l-2.2-2.167a.872.872,0,0,1,0-1.177l2.2-2.18a1,1,0,0,1,1.049.156.94.94,0,0,1-.1,1.079l-.645.73a7.073,7.073,0,0,1,6.754,6.535c.063.945.032,1.8.041,2.783a.874.874,0,0,1-.614.805.76.76,0,0,1-.9-.637Z" transform="translate(-136.813 -20.29)"/>
        <path id="Trazado_1260113" data-name="Trazado 1260113" d="M175.391,183.941c-1.208.083-3.443.306-3.6-.585-.046-.265.2-.869.482-.877l2.934-.08a5.332,5.332,0,0,0,5.1-5.2l-.726.646a1.063,1.063,0,0,1-.945.162c-.312-.147-.515-.873-.272-1.12l2.171-2.208a.879.879,0,0,1,1.177,0l2.174,2.2a.965.965,0,0,1-.15,1.057.946.946,0,0,1-1.075-.1l-.726-.649a7.1,7.1,0,0,1-6.542,6.754" transform="translate(-134.683 -136.772)"/>
        <path id="Trazado_1260115" data-name="Trazado 1260115" d="M95.549,197.92l-.032,3.943a.848.848,0,0,1-.832.8.9.9,0,0,1-.737-.912v-3.013l-1.529.322-.009,2.861a.854.854,0,0,1-.794.75.834.834,0,0,1-.719-.752l-.016-2.935a6.069,6.069,0,0,1-5.038-5.554c-.573.235-1.105.222-1.3-.11a.853.853,0,0,1,.409-1.221l.957-.543a2.587,2.587,0,0,1,2.2-3.027,2.506,2.506,0,0,1,2.881,2.211l.088,1.571,6.773,0c.578,0,.887.36.966,1l2.123,0a.9.9,0,0,1,.888.814l-.005,2.28a.854.854,0,0,1-.763.7l-4.6.015c-.275,0-.9.537-.9.8m-3.236-.506a4.886,4.886,0,0,1-2.811-4.157l-.006-2.214a1.076,1.076,0,0,0-1.129-.992,1.1,1.1,0,0,0-.947.976l.009,2.139a4.3,4.3,0,0,0,4.884,4.248m4.7-3.549H91.2a2.925,2.925,0,0,0,2.991,2.267,2.868,2.868,0,0,0,2.822-2.268m3.249,1.724c-.035-.337-.072-.683-.179-.684l-1.48-.011c-.208,0-.506.467-.529.68Z" transform="translate(-66.178 -147.785)"/>
        <path id="Trazado_1260117" data-name="Trazado 1260117" d="M101.753,199.61a.525.525,0,1,1-.525-.525.525.525,0,0,1,.525.525" transform="translate(-78.951 -156.083)"/>
      </g>
    </g>
  </g>
</svg>
