<svg xmlns="http://www.w3.org/2000/svg" xmlns:xlink="http://www.w3.org/1999/xlink" width="70" height="70" viewBox="0 0 70 70">
  <defs>
    <clipPath id="clip-path">
      <rect id="Rectángulo_411691" data-name="Rectángulo 411691" width="41.766" height="41.718" fill="none"/>
    </clipPath>
  </defs>
  <g id="Grupo_1202282" data-name="Grupo 1202282" transform="translate(-621.835 -3938)">
    <path id="Trazado_1256080" data-name="Trazado 1256080" d="M35,0A35,35,0,1,1,0,35,35,35,0,0,1,35,0Z" transform="translate(621.835 3938)" fill="#ffc94a"/>
    <g id="Grupo_1213315" data-name="Grupo 1213315" transform="translate(635.952 3952.141)">
      <g id="Grupo_1213314" data-name="Grupo 1213314" clip-path="url(#clip-path)">
        <path id="Trazado_1260040" data-name="Trazado 1260040" d="M228.662.241c1.1,1.663,2.582,3.353,1.57,5.011a2.514,2.514,0,0,1-3.92.093c-1.153-1.648.445-3.5,1.529-5.124a.645.645,0,0,1,.821.02m.591,4.3a1.605,1.605,0,0,0-.177-1.5l-.831-1.276-.882,1.355a1.556,1.556,0,0,0-.138,1.422,1.224,1.224,0,0,0,2.029,0" transform="translate(-188.833 -0.069)"/>
        <path id="Trazado_1260041" data-name="Trazado 1260041" d="M2.55,6.167A2.266,2.266,0,0,1,.515,5.185C-.5,3.56.988,1.791,2.087.182c.217-.318.754-.173.929.1l1.341,2.1a2.865,2.865,0,0,1,.369,2.3A2.175,2.175,0,0,1,2.55,6.167M3.5,4.511a1.534,1.534,0,0,0-.162-1.538L2.5,1.7,1.627,3.052a1.5,1.5,0,0,0-.083,1.521A1.244,1.244,0,0,0,3.5,4.511" transform="translate(-0.147 -0.001)"/>
        <path id="Trazado_1260047" data-name="Trazado 1260047" d="M95.009,178.183a3.516,3.516,0,1,1-3.516-3.515,3.516,3.516,0,0,1,3.516,3.515m-1.186,0a2.334,2.334,0,1,0-2.334,2.333,2.334,2.334,0,0,0,2.334-2.333" transform="translate(-73.537 -146)"/>
        <path id="Trazado_1260048" data-name="Trazado 1260048" d="M163.434,174.438a2.578,2.578,0,1,1-2.578-2.577,2.577,2.577,0,0,1,2.578,2.577m-1.18,0a1.4,1.4,0,1,0-1.4,1.394,1.395,1.395,0,0,0,1.4-1.394" transform="translate(-132.3 -143.653)"/>
        <path id="Trazado_1260049" data-name="Trazado 1260049" d="M31.671,175.917a2.409,2.409,0,1,1-2.409-2.408,2.408,2.408,0,0,1,2.409,2.408m-1.183,0a1.225,1.225,0,1,0-1.225,1.224,1.225,1.225,0,0,0,1.225-1.224" transform="translate(-22.446 -145.031)"/>
        <path id="Trazado_1260050" data-name="Trazado 1260050" d="M209.389,211.6a2.409,2.409,0,1,1-2.409-2.408,2.409,2.409,0,0,1,2.409,2.408m-1.183,0a1.225,1.225,0,1,0-1.225,1.225,1.225,1.225,0,0,0,1.225-1.225" transform="translate(-170.995 -174.86)"/>
        <path id="Trazado_1260051" data-name="Trazado 1260051" d="M214.563,169.731a2.086,2.086,0,1,1-2.086-2.085,2.085,2.085,0,0,1,2.086,2.085m-1.185,0a.9.9,0,1,0-.9.9.9.9,0,0,0,.9-.9" transform="translate(-175.86 -140.13)"/>
        <path id="Trazado_1260052" data-name="Trazado 1260052" d="M51.588,212.035a1.891,1.891,0,1,1-1.891-1.89,1.89,1.89,0,0,1,1.891,1.89m-1.186,0a.7.7,0,1,0-.7.7.7.7,0,0,0,.7-.7" transform="translate(-39.96 -175.654)"/>
        <path id="Trazado_1260053" data-name="Trazado 1260053" d="M20.394,222.9a.837.837,0,1,1-.837-.837.837.837,0,0,1,.837.837" transform="translate(-15.647 -185.618)"/>
        <path id="Trazado_1260054" data-name="Trazado 1260054" d="M134.932,158.7a.837.837,0,1,1-.837-.836.836.836,0,0,1,.837.836" transform="translate(-111.387 -131.957)"/>
        <path id="Trazado_1260055" data-name="Trazado 1260055" d="M77.687,161.778a.836.836,0,1,1-.836-.836.836.836,0,0,1,.836.836" transform="translate(-63.539 -134.527)"/>
        <path id="Trazado_1260056" data-name="Trazado 1260056" d="M133.555,218.72a.836.836,0,1,1-.836-.836.836.836,0,0,1,.836.836" transform="translate(-110.236 -182.123)"/>
        <path id="Trazado_1260057" data-name="Trazado 1260057" d="M171.5,224.227a.836.836,0,1,1-.836-.836.836.836,0,0,1,.836.836" transform="translate(-141.954 -186.726)"/>
        <path id="Trazado_1260058" data-name="Trazado 1260058" d="M41.765,40.98a.711.711,0,0,1-.762.808H.762A.706.706,0,0,1,0,41.047L0,27.178c0-.321.39-.6.652-.727,5.5-2.757,13.534-3.391,19.6-3.514l-.009-3.243A11.184,11.184,0,0,1,7.753,11.3a.652.652,0,0,1,.476-.689A11.161,11.161,0,0,1,20.217,14.81a22.08,22.08,0,0,0,.008-2.691c-1.588-2.539-3.082-4.54-2.2-7.683A9.479,9.479,0,0,1,20.4.288a.645.645,0,0,1,.9-.04,9.266,9.266,0,0,1,2.446,4.185c.836,3.008-.659,5.254-2.23,7.7a19.2,19.2,0,0,0,.011,2.689,11.2,11.2,0,0,1,12.111-4.18.685.685,0,0,1,.385.657,11.184,11.184,0,0,1-12.533,8.384v3.254a58.918,58.918,0,0,1,16.593,2.265,22.265,22.265,0,0,1,3.3,1.4.941.941,0,0,1,.393.7ZM21.459,6.349l.04,3.539c1.944-2.963,1.628-5.652-.632-8.354-2.129,2.62-2.669,5.386-.63,8.337l.035-3.578a.675.675,0,0,1,.654-.559.7.7,0,0,1,.533.616m-5.864,8.235L20.1,17.16c-1.777-4.432-6.494-6.384-11.029-5.523A9.953,9.953,0,0,0,20,18.516l-4.979-2.9a.7.7,0,0,1-.22-.842.678.678,0,0,1,.79-.185m11.062,1.059-4.933,2.87a9.968,9.968,0,0,0,10.968-6.866,9.675,9.675,0,0,0-11.068,5.513l4.5-2.567a.616.616,0,0,1,.853.289.692.692,0,0,1-.322.761M40.538,40.567l0-13.071a26.741,26.741,0,0,0-5.819-1.99,60.045,60.045,0,0,0-9.9-1.263,73.022,73.022,0,0,0-7.87,0,60.064,60.064,0,0,0-9.993,1.281A26.354,26.354,0,0,0,1.23,27.485V40.568Z" transform="translate(0 -0.071)"/>
        <path id="Trazado_1260059" data-name="Trazado 1260059" d="M25.827,100.2a2.208,2.208,0,0,1-2.228,1.382,2.284,2.284,0,0,1-1.936-.978c-1.025-1.619.475-3.431,1.58-5.024.224-.323.769-.126.935.136l1.3,2.042a2.851,2.851,0,0,1,.351,2.443m-1.192-.224c.57-.817-.479-2.108-.992-2.847-.554.824-1.533,2.021-.982,2.844a1.357,1.357,0,0,0,1.975,0" transform="translate(-17.822 -79.749)"/>
        <path id="Trazado_1260060" data-name="Trazado 1260060" d="M207.268,101.57a2.228,2.228,0,0,1-2.275-1.336,2.845,2.845,0,0,1,.339-2.489l1.3-2.038c.167-.263.707-.463.935-.136,1.1,1.583,2.544,3.331,1.627,4.945a2.227,2.227,0,0,1-1.923,1.054m.925-1.681c.408-.936-.485-1.952-1.041-2.765-.543.782-1.621,2.178-.923,2.916a1.347,1.347,0,0,0,1.964-.151" transform="translate(-171.22 -79.743)"/>
      </g>
    </g>
  </g>
</svg>
