<svg xmlns="http://www.w3.org/2000/svg" xmlns:xlink="http://www.w3.org/1999/xlink" width="70" height="70" viewBox="0 0 70 70">
  <defs>
    <clipPath id="clip-path">
      <rect id="Rectángulo_411696" data-name="Rectángulo 411696" width="45.357" height="45.358" fill="none"/>
    </clipPath>
  </defs>
  <g id="Grupo_1212886" data-name="Grupo 1212886" transform="translate(-621.835 -3938)">
    <path id="Trazado_1256080" data-name="Trazado 1256080" d="M35,0A35,35,0,1,1,0,35,35,35,0,0,1,35,0Z" transform="translate(621.835 3938)" fill="#ffc94a"/>
    <g id="Grupo_1213321" data-name="Grupo 1213321" transform="translate(634.157 3950.321)">
      <g id="Grupo_1213320" data-name="Grupo 1213320" clip-path="url(#clip-path)">
        <path id="Trazado_1260118" data-name="Trazado 1260118" d="M152.291,150.193l.466,1.717c1.463-.989,1.181-3.4,2.293-2.916.423.183.433.59.326.988a5.27,5.27,0,0,1-3.525,3.845,3.91,3.91,0,0,0-1.894,1.189l.722.7c.979-.176,5.715,1.351,3.961,2.62a7.122,7.122,0,0,1-4.71,1.284l-3.27,6.769a2.149,2.149,0,0,1-1.822,1.305,2.092,2.092,0,0,1-2.016-1.226l-3.328-6.864a6.952,6.952,0,0,1-4.764-1.318,1.078,1.078,0,0,1-.339-.529.975.975,0,0,1,.346-.626,7.325,7.325,0,0,1,3.908-1.446c.25-.028.592-.423.806-.681a3.5,3.5,0,0,0-1.765-1.141,5.279,5.279,0,0,1-3.643-3.962.722.722,0,0,1,.358-.916c1.112-.457.815,1.964,2.28,2.909l.4-1.52a.672.672,0,0,1,.816-.525.719.719,0,0,1,.433.813l-.45,1.863,1.136.488,1.111-1.211a.75.75,0,0,1,.827-.05.8.8,0,0,1,.137.888l-.976,1.088.745,1.113,7.729,0,.722-1.094-.9-1.013a.713.713,0,0,1,0-.926.69.69,0,0,1,.9.018l1.133,1.2,1.09-.488-.448-1.941a.8.8,0,0,1,.357-.724c.252-.093.767.057.839.323m-6.767,15.6,4.166-8.643c.236-.489-.3-1.04-.745-1.04l-8.42,0a.8.8,0,0,0-.732,1.149l4.181,8.647a.891.891,0,0,0,.763.5.942.942,0,0,0,.787-.611m-6.718-7.451-.407-1.305a5.728,5.728,0,0,0-2.155.653,5.038,5.038,0,0,0,2.563.653m14.385-.644a5.616,5.616,0,0,0-2.143-.671l-.454,1.348a5.821,5.821,0,0,0,2.6-.677" transform="translate(-110.093 -122.352)"/>
        <path id="Trazado_1260122" data-name="Trazado 1260122" d="M203.678,202.8a.707.707,0,1,1-.707-.707.707.707,0,0,1,.707.707" transform="translate(-166.166 -166.025)"/>
        <path id="Trazado_1260123" data-name="Trazado 1260123" d="M179.255,202.8a.7.7,0,1,1-.7-.7.7.7,0,0,1,.7.7" transform="translate(-146.106 -166.029)"/>
        <path id="Trazado_1260124" data-name="Trazado 1260124" d="M191.761,228.49a.756.756,0,0,1-.5.935c-.3.034-.636-.533-.619-.925a5.4,5.4,0,0,1,1.12-.011" transform="translate(-156.617 -187.692)"/>
        <path id="Trazado_1260125" data-name="Trazado 1260125" d="M154.158,12.833c-.783,1.225-2.771,1.211-4.136.855a4.488,4.488,0,0,1-3.951,4.8,15.076,15.076,0,0,1-2.891-.008,4.467,4.467,0,0,1-3.885-4.79c-1.407.369-3.315.33-4.177-.836-.421-1.784.783-3.536,2.322-4.433A5.108,5.108,0,0,1,134.1,5c-.7-2.742,1.08-5.213,1.981-4.966a.763.763,0,0,1,.4.625,3.584,3.584,0,0,0,3.4,3.644l9.477.009A3.59,3.59,0,0,0,152.834.59a.81.81,0,0,1,.454-.576c.82-.2,2.661,2.235,1.946,4.964a5.153,5.153,0,0,1-3.342,3.447c1.455.9,2.766,2.606,2.266,4.409M140.919,5.6a5.084,5.084,0,0,1-5.453-3.264,3.607,3.607,0,0,0,.74,3.835,3.524,3.524,0,0,0,3.529.978Zm8.653,1.6a3.754,3.754,0,0,0,3.56-1.031,3.523,3.523,0,0,0,.722-3.752c-1.231,2.555-2.925,3.241-5.464,3.234A9.081,9.081,0,0,1,149.572,7.2m-.872,7.092,0-5.227a3.048,3.048,0,0,0-2.634-3.013,14.673,14.673,0,0,0-2.775-.008,3,3,0,0,0-2.667,2.881l-.024,5.362a5.07,5.07,0,0,1,2.435-1.163c2.136-.155,3.982-.3,5.662,1.167m-12.239-2.011a2.544,2.544,0,0,0,2.809-.123,27.886,27.886,0,0,0,.031-3.232c-1.365.6-3.257,1.779-2.84,3.355M153,12.227a3.139,3.139,0,0,0-1.618-2.567l-1.4-.766V12.2a2.976,2.976,0,0,0,3.016.026m-7.5,5.029a3.022,3.022,0,0,0,2.694-1.481c-1.15-1.7-2.736-1.48-4.572-1.439a3.126,3.126,0,0,0-2.507,1.434,2.935,2.935,0,0,0,2.557,1.478Z" transform="translate(-110.04 -0.002)"/>
        <path id="Trazado_1260132" data-name="Trazado 1260132" d="M177.506,58.835a.865.865,0,1,1-.865-.864.865.865,0,0,1,.865.864" transform="translate(-144.406 -47.625)"/>
        <path id="Trazado_1260133" data-name="Trazado 1260133" d="M204.18,58.848a.864.864,0,1,1-.864-.863.864.864,0,0,1,.864.863" transform="translate(-166.321 -47.637)"/>
        <path id="Trazado_1260134" data-name="Trazado 1260134" d="M14.968,154.8l-.006-3.15c0-.16-.406-.527-.5-.379a6.7,6.7,0,0,1-5.342,3.02,6.636,6.636,0,0,1-5.453-2.872c-.08-.125-.34-.2-.4-.149a.748.748,0,0,0-.231.4l-.024,3.155c0,.218-.377.516-.571.545-.218.033-.71-.266-.71-.514v-4.1l1.155-.746-.386-2.384L1.3,147.606a.734.734,0,0,1-.608-.577.7.7,0,0,1,.587-.694l1.279-.026.01-2.327-1.953-.035a.636.636,0,0,1-.006-1.272l1.954-.006c-.024-1,.909-1.4,1.638-1.645.48-1.2.957-2.612,2.364-3.316l-2.72-2.747a.808.808,0,0,1-.012-.872.747.747,0,0,1,.918-.027l3.095,3.069a7.211,7.211,0,0,1,2.28-.009l3.1-3.077a.739.739,0,0,1,.9.048.73.73,0,0,1-.054.915l-2.663,2.658a4.871,4.871,0,0,1,2.282,3.4,1.744,1.744,0,0,1,1.734,1.587l1.948.029a.705.705,0,0,1,.606.627.731.731,0,0,1-.589.645l-1.951.018-.005,2.34,1.284.029a.712.712,0,0,1,.581.689.721.721,0,0,1-.734.589l-1.066.017-.39,2.4a5.3,5.3,0,0,1,1.164.821l0,3.881a.834.834,0,0,1-.6.633c-.217.029-.7-.249-.7-.572m-2.594-13.7a3.409,3.409,0,0,0-3.5-2.781,3.349,3.349,0,0,0-3.237,2.789Zm-2.743,3.474.012,8.369a5.124,5.124,0,0,0,4.485-5.154l-.019-5.369H3.875c-.005,2.066-.084,3.925.031,5.877a5.043,5.043,0,0,0,4.444,4.647l.023-8.513a.63.63,0,0,1,.759-.537.7.7,0,0,1,.5.681" transform="translate(0 -110.017)"/>
        <path id="Trazado_1260137" data-name="Trazado 1260137" d="M13.809,11.517v5.413a.755.755,0,0,1-.556.653.666.666,0,0,1-.738-.644L12.5,12.293a10.265,10.265,0,0,1-2.7.656l-.01,3.941a.712.712,0,0,1-.54.7c-.273.038-.717-.212-.719-.518L8.5,12.891A7.412,7.412,0,0,1,2.035,5.41L1,5.885a.791.791,0,0,1-.769-.238.688.688,0,0,1,.221-.9l1.65-.909A3.086,3.086,0,0,1,4.5.051a2.944,2.944,0,0,1,3.47,2.592c.056.756.04,1.477.056,2.273l9.305,0a.709.709,0,0,1,.636.77l-.042.847,3.029.008a.692.692,0,0,1,.65.614l0,2.849a.714.714,0,0,1-.685.735H14.684Zm-2.168-.329a5.675,5.675,0,0,1-4.85-5.062C6.707,5.1,6.763,4.07,6.748,3.05a1.716,1.716,0,1,0-3.431,0l.022,2.8a5.922,5.922,0,0,0,2.613,4.719,5.784,5.784,0,0,0,5.689.622m4.944-4.973-8.506,0A4.316,4.316,0,0,0,12.451,9.9a4.222,4.222,0,0,0,4.135-3.684M20.319,9.45,20.3,7.839l-2.776.011L16.5,9.442Z" transform="translate(-0.123 0)"/>
        <path id="Trazado_1260141" data-name="Trazado 1260141" d="M25.027,15.274a.692.692,0,1,1-.692-.692.692.692,0,0,1,.692.692" transform="translate(-19.424 -11.98)"/>
      </g>
    </g>
  </g>
</svg>
