<svg xmlns="http://www.w3.org/2000/svg" xmlns:xlink="http://www.w3.org/1999/xlink" width="76.345" height="76.345" viewBox="0 0 76.345 76.345">
  <defs>
    <clipPath id="clip-path">
      <rect id="Rectángulo_411698" data-name="Rectángulo 411698" width="53.405" height="51.497" fill="none"/>
    </clipPath>
  </defs>
  <g id="Grupo_1200943" data-name="Grupo 1200943" transform="translate(-1021.967 -3092.655)">
    <g id="Grupo_1200255" data-name="Grupo 1200255">
      <g id="Grupo_1187152" data-name="Grupo 1187152">
        <g id="Grupo_1185946" data-name="Grupo 1185946" transform="translate(-3.07)">
          <g id="Grupo_1184280" data-name="Grupo 1184280">
            <g id="Grupo_1182168" data-name="Grupo 1182168">
              <g id="Grupo_1178877" data-name="Grupo 1178877">
                <g id="Grupo_1111311" data-name="Grupo 1111311">
                  <g id="Grupo_1098742" data-name="Grupo 1098742" transform="translate(1025.482 3093.101)">
                    <g id="Rectángulo_400898" data-name="Rectángulo 400898" transform="translate(-0.445 -0.445)" fill="#fff4da" stroke="#f6f6f6" stroke-width="1" opacity="0.859">
                      <rect width="76.345" height="76.345" rx="38.172" stroke="none"/>
                      <rect x="0.5" y="0.5" width="75.345" height="75.345" rx="37.672" fill="none"/>
                    </g>
                    <g id="Rectángulo_400907" data-name="Rectángulo 400907" transform="translate(-0.446 -0.445)" fill="none" stroke="#f6f6f6" stroke-width="1">
                      <rect width="76.345" height="76.345" rx="38.172" stroke="none"/>
                      <rect x="0.5" y="0.5" width="75.345" height="75.345" rx="37.672" fill="none"/>
                    </g>
                  </g>
                </g>
              </g>
            </g>
          </g>
        </g>
      </g>
    </g>
    <g id="Grupo_1213325" data-name="Grupo 1213325" transform="translate(1033.436 3105.079)">
      <g id="Grupo_1213324" data-name="Grupo 1213324" clip-path="url(#clip-path)">
        <path id="Trazado_1260165" data-name="Trazado 1260165" d="M19.632,79.435h-8.9a.777.777,0,0,1-.789-.764c0-.528.356-.8.914-.8l8.65,0c.507,0,.854.214.9.652a.772.772,0,0,1-.776.906" transform="translate(-8.431 -66.056)" fill="#101010"/>
        <path id="Trazado_1260166" data-name="Trazado 1260166" d="M19.706,100.925l-9,.013a.769.769,0,1,1-.007-1.539l8.8-.011c.474,0,.816.194.89.583a.747.747,0,0,1-.678.954" transform="translate(-8.422 -84.303)" fill="#040403"/>
        <path id="Trazado_1260167" data-name="Trazado 1260167" d="M45.685,57.889l-4.234.007a.783.783,0,0,1-.806-.693.757.757,0,0,1,.791-.878l4.113-.015a.8.8,0,0,1,.9.741.77.77,0,0,1-.766.839" transform="translate(-34.472 -47.764)" fill="#040403"/>
        <path id="Trazado_1260168" data-name="Trazado 1260168" d="M12.525,57.7c-1.009.046-2.513.231-2.583-.68a.755.755,0,0,1,.752-.875c1.15-.07,2.543-.23,2.6.711a.762.762,0,0,1-.768.844" transform="translate(-8.431 -47.573)" fill="#070606"/>
        <path id="Trazado_1260169" data-name="Trazado 1260169" d="M50.273,139.59a3.764,3.764,0,0,1-1.138-2.2l-.061-1.585a2.876,2.876,0,0,1,2.421,1.145,3.588,3.588,0,0,1,.525,2.76,4.258,4.258,0,0,1-1.748-.116" transform="translate(-41.626 -115.187)" fill="#b8e96b"/>
        <path id="Trazado_1260170" data-name="Trazado 1260170" d="M80.933,135.265a3.641,3.641,0,0,1-1.844.2,1.975,1.975,0,0,1,1.035-2.421,3.769,3.769,0,0,1,1.734-.118,1.975,1.975,0,0,1-.924,2.342" transform="translate(-67.014 -112.712)" fill="#b5e468"/>
        <path id="Trazado_1260171" data-name="Trazado 1260171" d="M43.733,135.659l.061,1.585a3.763,3.763,0,0,0,1.138,2.2,3.077,3.077,0,0,1-2.069-3.789,4.38,4.38,0,0,1,.87,0" transform="translate(-36.284 -115.046)" fill="#9edf2f"/>
        <path id="Trazado_1260172" data-name="Trazado 1260172" d="M20.144,11.241a.832.832,0,0,1,.037,1.087.789.789,0,0,1-1.1.062L10.9,4.221,6.8,4.208A3.512,3.512,0,0,1,3.12,6.853,3.434,3.434,0,1,1,6.771,2.609l4.782.061ZM5.283,3.426A1.857,1.857,0,1,0,3.426,5.283,1.857,1.857,0,0,0,5.283,3.426" transform="translate(0 0)" fill="#070606"/>
        <path id="Trazado_1260173" data-name="Trazado 1260173" d="M14.051,12.191a1.857,1.857,0,1,1-1.857-1.857,1.857,1.857,0,0,1,1.857,1.857" transform="translate(-8.768 -8.766)" fill="#ed7979"/>
        <path id="Trazado_1260174" data-name="Trazado 1260174" d="M280.061,37.746a3.932,3.932,0,0,1-1.391,1.22c-.86-1.265-1.4.136-3.791.135h-2.985a6.618,6.618,0,0,1,5.708-7.7c1.29-.141,2.48,0,3.749-.037a7.107,7.107,0,0,1-1.233,4.949,1.116,1.116,0,0,0-.058,1.432" transform="translate(-230.563 -26.582)" fill="#b8e96b"/>
        <path id="Trazado_1260175" data-name="Trazado 1260175" d="M234.435,74.375c-2.173-1.779-2.408-3.159-2.374-5.872a4.384,4.384,0,0,1,4.458,4.051,13.112,13.112,0,0,1,0,1.852,11.263,11.263,0,0,1-2.088-.031" transform="translate(-196.838 -58.105)" fill="#b8e96b"/>
        <path id="Trazado_1260176" data-name="Trazado 1260176" d="M274.362,137.339a13.261,13.261,0,0,1-2.4.071,2.564,2.564,0,0,1,2.28-3.283,17.63,17.63,0,0,1,1.96-.01,2.562,2.562,0,0,1-1.835,3.223" transform="translate(-230.603 -113.742)" fill="#b5e468"/>
        <path id="Trazado_1260177" data-name="Trazado 1260177" d="M219.918,68.157c-.034,2.713.2,4.093,2.374,5.872a4.42,4.42,0,0,1-4.533-4.32,10.857,10.857,0,0,1,.019-1.524,8.524,8.524,0,0,1,2.139-.028" transform="translate(-184.694 -57.76)" fill="#9edf2f"/>
        <path id="Trazado_1260178" data-name="Trazado 1260178" d="M158.434,91.886a3.572,3.572,0,0,1-1.465-.093,1.272,1.272,0,0,1-.552-1.63,2.585,2.585,0,0,1,1.669.221,1.394,1.394,0,0,1,.349,1.5" transform="translate(-132.598 -76.453)" fill="#b5e468"/>
        <path id="Trazado_1260179" data-name="Trazado 1260179" d="M182.956,101.063c-.492.648-1.8.4-1.8.4-.11-.069-.362-1.532.7-1.686.377-.054,1.025-.16,1.266.06a1.334,1.334,0,0,1-.166,1.23" transform="translate(-153.566 -84.567)" fill="#aedc65"/>
        <path id="Trazado_1260180" data-name="Trazado 1260180" d="M50.318,28.758a1.116,1.116,0,0,1,.058-1.432,7.107,7.107,0,0,0,1.233-4.949c-1.269.039-2.458-.1-3.749.037a6.618,6.618,0,0,0-5.708,7.7h2.985c2.4,0,2.931-1.4,3.791-.135.275,1.307-2.893,1.678-3.794,1.684l-3.074.021.079,5.5a4.335,4.335,0,0,1,2.383-.785l1.955,0c1.153,0,1.563.8,1.624,1.785a4.227,4.227,0,0,1-4.188,4.69c-.595.006-1.185-.03-1.8.028l-.017,2.625,11.488,6.523a1.173,1.173,0,0,1,.646,1.087,1.16,1.16,0,0,1-.6.995l-3.418,2a1.067,1.067,0,0,1-1.252-.162c.032-.243-.153-.77.139-.952L52.2,53.073l-10.082-5.7-.039,5.078a.765.765,0,0,1-1.529-.009l-.028-5.892a2.254,2.254,0,0,0-1.188-.682L29.179,51.615,42.11,58.966l4.133-2.347c.338-.192.7.065,1.018.237a1.021,1.021,0,0,1-.533,1.29L28.246,68.9a1.175,1.175,0,0,1-1.3,0L1.573,54.123A1.149,1.149,0,0,1,.968,52.99a1.163,1.163,0,0,1,.645-.946L5,50.129a1.033,1.033,0,0,1,1.122.206c.033.351.124.86-.261,1.086L2.988,53.109l9.979,5.815a22.457,22.457,0,0,0,3.38-1.946l9.6-5.343c-2.365-1.378-4.621-2.69-6.935-3.872-1.057-.54-2-1.384-3.23-1.884l-2.93,1.6c-.055,1.4-.052,2.708.019,4.025a13.485,13.485,0,0,1-.223,2.6,1.664,1.664,0,0,1-.795.124.634.634,0,0,1-.552-.555l-.056-5.215-2.481,1.3c-.357.188-.642-.2-.931-.317.005-.285-.126-.8.215-1l3.181-1.854a25.824,25.824,0,0,0,.017-2.916,5.041,5.041,0,0,1-4.126-1.221c-1.629-1.557-1.687-4.616-.947-5.383C7,36.2,10.418,36.5,11.617,38a3.7,3.7,0,0,1,3.768-1.818c.579.046,1.085,0,1.492.409a2.034,2.034,0,0,1,.453,1.433A3.5,3.5,0,0,1,14.3,41.9a11.591,11.591,0,0,0-1.474.077l.05,3.676,13.818-7.832c.025-1.082.057-2.045-.012-3.116-.025-.384-1.689.366-2.928-.87-.975-.972-1.06-3-.279-3.74.651-.615,3.938-.826,4.654,1.308,1.009-.29,2.787-.455,3.462.191a1.966,1.966,0,0,1,.457,1.425,2.728,2.728,0,0,1-2.7,3.042,5,5,0,0,0-1.006.047,8.4,8.4,0,0,0,0,1.621l12.18,6.89.006-9.093-2.072-.046a6.051,6.051,0,0,1-6.139-5.83c-.054-1.45-.311-3.276,1.279-3.262l2.444-.005a6.254,6.254,0,0,1,4.5,1.943,8.118,8.118,0,0,1,7.343-7.516,33.163,33.163,0,0,1,4.207,0c.936.035,1.082,1,1.106,1.723a8.485,8.485,0,0,1-1.829,6.091c-.25.289-.744.169-1.044.131m-11.9,5.105a11.263,11.263,0,0,0,2.088.031,13.115,13.115,0,0,0,0-1.852,4.385,4.385,0,0,0-4.458-4.051,8.509,8.509,0,0,0-2.139.028,10.853,10.853,0,0,0-.019,1.524,4.421,4.421,0,0,0,4.533,4.32m-11.761-.837a1.394,1.394,0,0,0-.349-1.5,2.587,2.587,0,0,0-1.669-.221,1.272,1.272,0,0,0,.552,1.63,3.57,3.57,0,0,0,1.465.093m3.553,1.063a1.335,1.335,0,0,0,.166-1.23c-.241-.22-.889-.115-1.266-.06-1.067.154-.815,1.617-.7,1.685,0,0,1.312.252,1.8-.4m-15.47,6.057a1.975,1.975,0,0,0,.924-2.342,3.765,3.765,0,0,0-1.734.118,1.975,1.975,0,0,0-1.035,2.421,3.642,3.642,0,0,0,1.844-.2m29.84,1.044a2.562,2.562,0,0,0,1.835-3.223,17.558,17.558,0,0,0-1.96.01,2.564,2.564,0,0,0-2.279,3.283,13.261,13.261,0,0,0,2.4-.071M9.467,42a4.257,4.257,0,0,0,1.748.116,3.588,3.588,0,0,0-.525-2.76,2.875,2.875,0,0,0-2.421-1.145,4.395,4.395,0,0,0-.87,0A3.077,3.077,0,0,0,9.467,42m18.874.316L28.3,44.861a.822.822,0,0,1-.736.836.8.8,0,0,1-.85-.833l-.03-1.389c-.026-1.241.084-2.5-.025-3.81L17.35,44.92c1.134.8,2.33,1.231,3.481,1.9L27.558,50.7l10.2-5.777c-2.273-1.359-4.489-2.638-6.869-3.863a21.284,21.284,0,0,0-2.551-1.471,24.14,24.14,0,0,0,0,2.721m-9.974,15.5A35.742,35.742,0,0,0,14.635,59.9L27.62,67.457l3.395-2.083,9.541-5.464-13-7.386Z" transform="translate(-0.82 -17.594)" fill="#050504"/>
        <path id="Trazado_1260181" data-name="Trazado 1260181" d="M206.62,196.373a19.091,19.091,0,0,1-1.689.9c-.32-.172-.68-.428-1.017-.237l-4.133,2.347-12.932-7.351L197,186.28a2.256,2.256,0,0,1,1.188.682l.028,5.892a.765.765,0,0,0,1.529.008l.039-5.078,10.082,5.7-3.112,1.935c-.292.182-.107.709-.139.952" transform="translate(-158.489 -158.007)" fill="#de9772"/>
        <path id="Trazado_1260182" data-name="Trazado 1260182" d="M23.944,208.946a3.762,3.762,0,0,0,1.252,1.228l2.3,1.347c.141.083.2.2.149.306a22.46,22.46,0,0,1-3.38,1.946l-9.979-5.815,2.872-1.687c.384-.226.294-.735.261-1.086l1.71-.9c.289.116.573.5.931.317l2.481-1.3.056,5.215a.634.634,0,0,0,.552.555,1.665,1.665,0,0,0,.795-.124" transform="translate(-12.118 -172.443)" fill="#d98557"/>
        <path id="Trazado_1260183" data-name="Trazado 1260183" d="M127.96,242.987a26.862,26.862,0,0,0-2.72-1.546l.036-2.078a10.8,10.8,0,0,1,1.156-.064,2.526,2.526,0,0,0,2.268-2.865,1.7,1.7,0,0,0-.373-1.191c-.66-.624-2.82-.54-3.719.087-.866-1.17-3.512-1.1-4.142-.557-.915.788-.6,2.732.044,3.671-1.792-.645-3.346-1.891-5.141-2.786-.107-.054-.153-.2-.056-.235l9.189-5.285,13,7.386Z" transform="translate(-97.765 -195.208)" fill="#e4aa8a"/>
        <path id="Trazado_1260184" data-name="Trazado 1260184" d="M141.912,154.624c2.38,1.225,4.6,2.5,6.869,3.863l-10.2,5.777-6.726-3.886a60.972,60.972,0,0,1,5.857-3.34l.03,1.389a.805.805,0,0,0,.85.833.822.822,0,0,0,.736-.836l.037-2.549c.559.012,1.933-1.112,2.551-1.25" transform="translate(-111.84 -131.156)" fill="#e5ab8a"/>
        <path id="Trazado_1260185" data-name="Trazado 1260185" d="M81.618,207.988c.046-.105-.008-.224-.149-.306l-2.3-1.347a3.765,3.765,0,0,1-1.252-1.228,13.486,13.486,0,0,0,.223-2.6,4.685,4.685,0,0,1,1.3-1.017l4.838-2.72c2.313,1.182,4.569,2.494,6.935,3.872Z" transform="translate(-66.091 -168.604)" fill="#df9873"/>
        <path id="Trazado_1260186" data-name="Trazado 1260186" d="M99.953,267.978a9.825,9.825,0,0,1,1.366.837c.571.338,1.063.942,1.763,1.107a2.424,2.424,0,0,0,.163,1.14.738.738,0,0,0,.857.326c.2-.04.37-.262.583-.411a26.858,26.858,0,0,1,2.719,1.546l-3.395,2.083L91.025,267.05a35.727,35.727,0,0,1,3.731-2.093c-.1.039-.052.181.056.235,1.8.9,3.349,2.141,5.141,2.786" transform="translate(-77.21 -224.743)" fill="#de9772"/>
        <path id="Trazado_1260187" data-name="Trazado 1260187" d="M118.254,149.231a60.925,60.925,0,0,0-5.857,3.34c-1.151-.665-2.347-1.1-3.481-1.9l9.313-5.254c.108,1.306,0,2.569.025,3.81" transform="translate(-92.385 -123.35)" fill="#dc9571"/>
        <path id="Trazado_1260188" data-name="Trazado 1260188" d="M85.21,188.245l-4.838,2.72a4.69,4.69,0,0,0-1.3,1.017c-.071-1.316-.073-2.623-.019-4.025l2.929-1.6c1.231.5,2.174,1.344,3.23,1.884" transform="translate(-67.021 -158.076)" fill="#d98557"/>
        <path id="Trazado_1260189" data-name="Trazado 1260189" d="M183.664,146.406c-.618.139-1.992,1.262-2.551,1.25a24.133,24.133,0,0,1,0-2.721,21.285,21.285,0,0,1,2.551,1.471" transform="translate(-153.593 -122.938)" fill="#dc9571"/>
        <path id="Trazado_1260190" data-name="Trazado 1260190" d="M151.151,265.237c-.213.149-.386.371-.583.411a.738.738,0,0,1-.857-.326,2.424,2.424,0,0,1-.163-1.139,5.711,5.711,0,0,0-.007-1.028l-1.756-.079a9.854,9.854,0,0,0-1.366-.837c-.643-.939-.959-2.883-.044-3.671.63-.542,3.276-.613,4.142.557.9-.626,3.059-.71,3.719-.086a1.7,1.7,0,0,1,.373,1.191,2.526,2.526,0,0,1-2.268,2.865,10.832,10.832,0,0,0-1.156.064Zm-1.624-3.695c.111-.718.061-1.322-.5-1.6a3.283,3.283,0,0,0-1.556-.112,1.328,1.328,0,0,0,.572,1.63,3.035,3.035,0,0,0,1.481.079m3.415-1.2c-.112-.13-1.42-.318-1.683.363-.1.267-.218.814.112.86a1.754,1.754,0,0,0,1.336-.246c.2-.18.484-.688.235-.977" transform="translate(-123.676 -219.004)" fill="#040403"/>
        <path id="Trazado_1260191" data-name="Trazado 1260191" d="M160.611,291.484c-.7-.165-1.192-.769-1.763-1.107l1.756.079a5.729,5.729,0,0,1,.007,1.028" transform="translate(-134.739 -246.305)" fill="#e5ab8a"/>
        <path id="Trazado_1260192" data-name="Trazado 1260192" d="M158.456,270.52a3.034,3.034,0,0,1-1.481-.079,1.328,1.328,0,0,1-.572-1.63,3.285,3.285,0,0,1,1.556.112c.558.275.608.88.5,1.6" transform="translate(-132.604 -227.982)" fill="#aedc65"/>
        <path id="Trazado_1260193" data-name="Trazado 1260193" d="M182.829,271.674c.249.289-.031.8-.235.977a1.754,1.754,0,0,1-1.336.246c-.331-.047-.215-.593-.112-.86.263-.681,1.571-.493,1.683-.363" transform="translate(-153.562 -230.334)" fill="#aedc65"/>
      </g>
    </g>
  </g>
</svg>
