<svg xmlns="http://www.w3.org/2000/svg" xmlns:xlink="http://www.w3.org/1999/xlink" width="129.063" height="84.229" viewBox="0 0 129.063 84.229">
  <defs>
    <clipPath id="clip-path">
      <rect id="Rectángulo_411685" data-name="Rectángulo 411685" width="90" height="84.229" fill="none"/>
    </clipPath>
  </defs>
  <g id="Grupo_1212628" data-name="Grupo 1212628" transform="translate(0 -7.494)">
    <g id="Rectángulo_410589" data-name="Rectángulo 410589" transform="translate(0 35.344)" fill="#5a8441" stroke="#3e5b2c" stroke-width="1">
      <rect width="129.063" height="43.021" rx="8" stroke="none"/>
      <rect x="0.5" y="0.5" width="128.063" height="42.021" rx="7.5" fill="none"/>
    </g>
    <g id="Grupo_1213303" data-name="Grupo 1213303" transform="translate(14.531 1.494)">
      <g id="Grupo_1213302" data-name="Grupo 1213302" transform="translate(6 6)" clip-path="url(#clip-path)">
        <path id="Trazado_1259947" data-name="Trazado 1259947" d="M90.082,203.414l.037,10.73H.18l.034-10.73c.3.182.53.917,1.061.914l13.295-.08c1.029-.007.944-1.372,1.243-1.985a4.352,4.352,0,0,1,3.917-2.146,4.414,4.414,0,0,1,4.154,2.141c.317.634.2,1.934,1.245,1.985,2.981.144,5.97.081,9.013.044a6.864,6.864,0,0,0,5.958-3.851,5.623,5.623,0,0,1,10.1,0,6.83,6.83,0,0,0,5.96,3.855l11.444.024c2.073,0,.811-2.647,2.725-2.789,2.211-.164.823,2.794,2.976,2.79l15.718-.029c.537,0,.769-.666,1.062-.871m-47.764,3.7a1.386,1.386,0,1,0-1.386,1.385,1.386,1.386,0,0,0,1.386-1.385m-19.675,2.106a2.094,2.094,0,1,0-2.094,2.093,2.094,2.094,0,0,0,2.094-2.093m32.336,0a2.1,2.1,0,1,0-2.1,2.094,2.095,2.095,0,0,0,2.1-2.094m18.263,0a2.094,2.094,0,1,0-2.094,2.093,2.093,2.093,0,0,0,2.094-2.093" transform="translate(-0.119 -129.915)" fill="#9a7767"/>
        <path id="Trazado_1259948" data-name="Trazado 1259948" d="M57.881,228.192a2.094,2.094,0,1,1-2.094-2.093,2.093,2.093,0,0,1,2.094,2.093" transform="translate(-35.357 -148.887)" fill="#282727"/>
        <path id="Trazado_1259949" data-name="Trazado 1259949" d="M152.566,228.182a2.1,2.1,0,1,1-2.1-2.094,2.095,2.095,0,0,1,2.1,2.094" transform="translate(-97.705 -148.879)" fill="#282727"/>
        <path id="Trazado_1259950" data-name="Trazado 1259950" d="M206.049,228.192a2.094,2.094,0,1,1-2.094-2.093,2.093,2.093,0,0,1,2.094,2.093" transform="translate(-132.926 -148.887)" fill="#282727"/>
        <path id="Trazado_1259951" data-name="Trazado 1259951" d="M118.226,223.389A1.386,1.386,0,1,1,116.84,222a1.386,1.386,0,0,1,1.386,1.385" transform="translate(-76.027 -146.19)" fill="#282928"/>
        <path id="Trazado_1259952" data-name="Trazado 1259952" d="M89.964,73.5c-.293.205-.525.87-1.062.871L73.184,74.4c-2.154,0-.765-2.954-2.976-2.79-1.915.142-.652,2.793-2.726,2.789l-11.444-.024a6.83,6.83,0,0,1-5.96-3.855,5.623,5.623,0,0,0-10.1,0,6.865,6.865,0,0,1-5.958,3.851c-3.043.037-6.032.1-9.013-.044-1.041-.051-.928-1.351-1.245-1.985A4.414,4.414,0,0,0,19.611,70.2a4.351,4.351,0,0,0-3.917,2.146c-.3.613-.214,1.979-1.243,1.985l-13.295.08C.625,74.416.4,73.681.1,73.5c-.113-.945.332-1.892,1.261-1.9l11.314-.056,0-9.773-3.449-.029C4.012,61.7.063,57.027.058,51.806l0-2.581A1.42,1.42,0,0,1,1.58,47.719l6.909.006a10.568,10.568,0,0,1,6.94,2.742l.045-6.915A60.8,60.8,0,0,1,8.5,43.384,10.039,10.039,0,0,1,.073,32.106c.086-.841-.265-2.354.918-2.539,2.164-.338,4.482,0,6.726-.133a13.357,13.357,0,0,1,5.419,1.027,29.113,29.113,0,0,1-.462-6.575c-1.268-.021-2.36.016-3.539-.084A9.865,9.865,0,0,1,.071,14.266c-.066-2.1-.437-4.528,1.515-4.505l8.648.1a16,16,0,0,1,5.3-9.247A1.829,1.829,0,0,1,18.161.5,15.98,15.98,0,0,1,23.6,9.836L32.476,9.8c1.172-.005,1.321,1.2,1.327,2.124.016,2.276.035,4.333-1.208,6.574a17.03,17.03,0,0,1,12.409,9.634A23.2,23.2,0,0,0,46.4,25.718a70.562,70.562,0,0,0-5.191-10.691,1.5,1.5,0,0,1-.021-1.948,1.436,1.436,0,0,1,1.912-.2,49.384,49.384,0,0,1,9.252,7.356,22,22,0,0,0,2.443-1.1C54.332,13.754,53.4,8.616,51.05,3.86c-.357-.722-.542-1.48.037-2.074a1.632,1.632,0,0,1,1.974-.14A22.112,22.112,0,0,1,65.881,18.131a27.681,27.681,0,0,0,4.445.007A37.075,37.075,0,0,1,87.6,5.782c.941-.307,1.824-.211,2.2.545.408.812-.072,1.382-.6,2.041-4.48,5.55-6.42,18.4-6.991,25.605,2-.794,6.2-4.146,7.433-2.64a1.4,1.4,0,0,1,.222,1.48c-6.361,11.239-9.491,25.712-9.7,38.725l8.3.044a1.51,1.51,0,0,1,1.256.582,2.086,2.086,0,0,1,.239,1.334M16.95,14.4a11.011,11.011,0,0,1,3.918-3.551,12.663,12.663,0,0,0-3.948-7.7,12.666,12.666,0,0,0-3.95,7.7A11.949,11.949,0,0,1,16.95,14.4m46.085,3.616a18.443,18.443,0,0,0-7.84-11.789,55.334,55.334,0,0,1,2.33,12.152ZM61.81,71.495A45.409,45.409,0,0,1,66.357,51.31c-.1-2.255-2.532-5.576-.373-6.314a1.431,1.431,0,0,1,1.873,1.088,2.455,2.455,0,0,0,.652,1.4A42.032,42.032,0,0,1,79.14,36.1C80,26.8,81.062,18.88,84.719,10.038A33.484,33.484,0,0,0,74.148,17.96c.32.514,3.17-.326,3.179,1.472l.037,7.072a16.894,16.894,0,0,1-17,16.991c-1.938,0-3.69-.059-5.7.068A145.959,145.959,0,0,1,57.692,71.52a30.335,30.335,0,0,0,4.118-.025M15.258,17.921a7.06,7.06,0,0,0-7.012-5.336l-5.281.008a7.283,7.283,0,0,0,1.974,6.364A7.7,7.7,0,0,0,11.312,21c.512-.046,1.412.228,1.381-.589a2.475,2.475,0,0,1,.495-1.881c.417-.464,1.363-.1,2.071-.605m13.98.224a6.121,6.121,0,0,0,1.628-5.578l-6.038.054a6.666,6.666,0,0,0-6.3,5.535Zm20.7,3.656a29.859,29.859,0,0,0-3.429-2.98l1.9,4.337A6.011,6.011,0,0,0,49.938,21.8M31.2,26.552c.593-.348,1.316-.716,1.992-.19a60.612,60.612,0,0,1,10.286,10.8,14.025,14.025,0,0,0-13.012-16.1c-3.109-.183-6.031.017-8.981.032a51.694,51.694,0,0,0-5.917.007l-.051,6.178A13.992,13.992,0,0,0,29.446,40.663l12.9-.052A54.084,54.084,0,0,0,31.366,28.449c-.588-.486-.32-1.371-.167-1.9m37.357-5.47c-3.024-.02-6.042-.232-9.205.008A14.059,14.059,0,0,0,46.574,37.313,54.379,54.379,0,0,1,59.62,24.3a1.844,1.844,0,0,1,2.5.156c-.041.432.244,1.372-.311,1.748A51.5,51.5,0,0,0,47.7,40.633l13.43-.008c7.408,0,13.114-6.308,13.423-13.59l-.062-5.991Zm-53.1,19.488a7.16,7.16,0,0,0-6.441-8.325l-6.045.018A7.027,7.027,0,0,0,9.24,40.594a47.866,47.866,0,0,0,6.215-.025M74.372,71.621l2.97-.1c.34-12.489,2.525-24.244,7.842-35.927C71.765,42.944,64.639,56.454,64.637,71.413c2.53,1.295,1.818-2.782,5.8-2.639a4.448,4.448,0,0,1,3.939,2.846m-53.18-4.06a7.046,7.046,0,0,1,5.431,4.088l6.651,0c4.667,0,3.537-3.684,7.544-5.948l-.011-22.177-12.132-.064a16.468,16.468,0,0,1-10.326-4.193l.017,11.324a10.407,10.407,0,0,1,6.728-2.856l7.155-.015a1.446,1.446,0,0,1,1.54,1.52L33.781,51.8A9.941,9.941,0,0,1,23.31,61.768a9.208,9.208,0,0,0-2.176.1ZM46.441,43.479H43.62V64.623h2.821Zm8.417,27.68a140.152,140.152,0,0,0-3.065-27.59,6.179,6.179,0,0,0-2.546.052L49.24,65.729c3.338,1.713,3.184,5.054,5.618,5.43M15.417,58.939A7.134,7.134,0,0,0,8.248,50.51l-5.317,0a7.092,7.092,0,0,0,6.816,8.409Zm8.564-.015c4.576,0,7.572-4.035,6.928-8.419l-5.819.023a7.013,7.013,0,0,0-6.666,8.4Zm-5.637,8.515-.061-5.646a10.626,10.626,0,0,0-2.769.048l.033,6.615c1.037-.4,1.8-.72,2.8-1.017" transform="translate(0 0)" fill="#282928"/>
        <path id="Trazado_1259953" data-name="Trazado 1259953" d="M167.219,90.849a30.336,30.336,0,0,1-4.118.025,145.986,145.986,0,0,0-3.027-27.957c2.012-.127,3.764-.07,5.7-.068a16.9,16.9,0,0,0,17-16.991l-.037-7.073c-.01-1.8-2.859-.958-3.179-1.472a33.48,33.48,0,0,1,10.571-7.923c-3.657,8.842-4.724,16.758-5.579,26.063a42.029,42.029,0,0,0-10.63,11.385,2.453,2.453,0,0,1-.652-1.4,1.431,1.431,0,0,0-1.873-1.088c-2.159.738.275,4.059.373,6.314a45.4,45.4,0,0,0-4.547,20.185" transform="translate(-105.409 -19.355)" fill="#5dae32"/>
        <path id="Trazado_1259954" data-name="Trazado 1259954" d="M199.011,140.258a4.448,4.448,0,0,0-3.939-2.846c-3.977-.143-3.265,3.933-5.8,2.639,0-14.959,7.128-28.47,20.547-35.818-5.318,11.682-7.5,23.438-7.842,35.927Z" transform="translate(-124.639 -68.637)" fill="#7dc64e"/>
        <path id="Trazado_1259955" data-name="Trazado 1259955" d="M51.4,61.574a1.329,1.329,0,0,0,.834.551c1.842.6,3.354,1.651,5.023,2.354a1.774,1.774,0,0,0-.513,1.608,1.365,1.365,0,0,0,1.464,1,1.5,1.5,0,0,0,1.227-.944c.672,0,1.018.724,1.681.888-.153.526-.421,1.411.167,1.9A54.078,54.078,0,0,1,72.262,81.094l-12.9.052A13.992,13.992,0,0,1,45.433,67.759l.05-6.178a51.7,51.7,0,0,1,5.918-.008" transform="translate(-29.918 -40.483)" fill="#7ec64e"/>
        <path id="Trazado_1259956" data-name="Trazado 1259956" d="M154.1,65.032a36.382,36.382,0,0,1,5.879-2.885c.308-.109.555-.212.556-.484l5.934-.037.062,5.991c-.31,7.282-6.015,13.586-13.423,13.59l-13.43.008A51.494,51.494,0,0,1,153.789,66.78c.555-.376.27-1.316.311-1.748" transform="translate(-91.978 -40.581)" fill="#7ec74f"/>
        <path id="Trazado_1259957" data-name="Trazado 1259957" d="M72.625,67.013c-.663-.164-1.009-.883-1.681-.888a1.548,1.548,0,0,0-.435-1.5c-.507-.6-1.265-.091-1.742-.166-1.67-.7-3.182-1.758-5.024-2.355a1.329,1.329,0,0,1-.834-.55c2.95-.015,5.872-.214,8.981-.032A14.025,14.025,0,0,1,84.9,77.623a60.622,60.622,0,0,0-10.286-10.8c-.677-.526-1.4-.159-1.992.189" transform="translate(-41.426 -40.461)" fill="#a5e17e"/>
        <path id="Trazado_1259958" data-name="Trazado 1259958" d="M158.071,61.53c0,.271-.248.375-.555.484a36.4,36.4,0,0,0-5.879,2.885,1.843,1.843,0,0,0-2.5-.156A54.377,54.377,0,0,0,136.089,77.76a14.059,14.059,0,0,1,12.776-16.223c3.163-.24,6.182-.028,9.205-.008" transform="translate(-89.515 -40.448)" fill="#a5e17e"/>
        <path id="Trazado_1259959" data-name="Trazado 1259959" d="M59.292,156.312l-5.557.005a7.013,7.013,0,0,1,6.666-8.4l5.819-.023c.645,4.383-2.352,8.415-6.928,8.419" transform="translate(-35.311 -97.388)" fill="#5daf32"/>
        <path id="Trazado_1259960" data-name="Trazado 1259960" d="M20.9,156.336l-5.67-.015a7.092,7.092,0,0,1-6.816-8.409l5.316,0a7.134,7.134,0,0,1,7.169,8.429" transform="translate(-5.482 -97.397)" fill="#7ec64e"/>
        <path id="Trazado_1259961" data-name="Trazado 1259961" d="M20.965,102.744a47.859,47.859,0,0,1-6.215.025,7.028,7.028,0,0,1-6.271-8.332l6.045-.018a7.16,7.16,0,0,1,6.441,8.325" transform="translate(-5.51 -62.175)" fill="#5daf32"/>
        <path id="Trazado_1259962" data-name="Trazado 1259962" d="M20.764,42.189c-.707.505-1.654.141-2.07.605a2.475,2.475,0,0,0-.495,1.881c.032.817-.869.543-1.381.589a7.7,7.7,0,0,1-6.372-2.039A7.283,7.283,0,0,1,8.471,36.86l5.281-.008a7.06,7.06,0,0,1,7.012,5.336" transform="translate(-5.506 -24.268)" fill="#7cc44e"/>
        <rect id="Rectángulo_411684" data-name="Rectángulo 411684" width="2.821" height="21.144" transform="translate(43.62 43.479)" fill="#9cd377"/>
        <path id="Trazado_1259963" data-name="Trazado 1259963" d="M64.961,42.379l-10.712.011a6.666,6.666,0,0,1,6.3-5.535l6.038-.054a6.121,6.121,0,0,1-1.628,5.578" transform="translate(-35.723 -24.234)" fill="#5daf32"/>
        <path id="Trazado_1259964" data-name="Trazado 1259964" d="M41.959,20.493a11.958,11.958,0,0,0-3.98-3.543,12.669,12.669,0,0,1,3.95-7.7,12.663,12.663,0,0,1,3.948,7.7,11.009,11.009,0,0,0-3.918,3.551" transform="translate(-25.009 -6.088)" fill="#7cc44e"/>
        <path id="Trazado_1259965" data-name="Trazado 1259965" d="M169.466,30.039l-5.511.362a55.307,55.307,0,0,0-2.329-12.151,18.444,18.444,0,0,1,7.84,11.789" transform="translate(-106.431 -12.018)" fill="#7cc34d"/>
        <path id="Trazado_1259966" data-name="Trazado 1259966" d="M48.259,186.467c-1,.3-1.76.617-2.8,1.017l-.033-6.615a10.627,10.627,0,0,1,2.769-.048Z" transform="translate(-29.915 -119.028)" fill="#59a431"/>
        <path id="Trazado_1259967" data-name="Trazado 1259967" d="M139.621,58.095a6.01,6.01,0,0,1-1.527,1.356l-1.9-4.337a29.9,29.9,0,0,1,3.429,2.981" transform="translate(-89.683 -36.293)" fill="#59a431"/>
        <path id="Trazado_1259968" data-name="Trazado 1259968" d="M81.158,71.685a1.5,1.5,0,0,1-1.227.944,1.365,1.365,0,0,1-1.464-1,1.773,1.773,0,0,1,.514-1.608c.476.075,1.234-.433,1.742.166a1.548,1.548,0,0,1,.435,1.5" transform="translate(-51.64 -46.021)" fill="#282727"/>
      </g>
    </g>
  </g>
</svg>
