<svg xmlns="http://www.w3.org/2000/svg" xmlns:xlink="http://www.w3.org/1999/xlink" width="129.063" height="74.831" viewBox="0 0 129.063 74.831">
  <defs>
    <clipPath id="clip-path">
      <rect id="Rect치ngulo_411688" data-name="Rect치ngulo 411688" width="97.915" height="74.831" fill="none"/>
    </clipPath>
  </defs>
  <g id="Grupo_1213340" data-name="Grupo 1213340" transform="translate(0 -16.009)">
    <g id="Rect치ngulo_410589" data-name="Rect치ngulo 410589" transform="translate(0 35.344)" fill="#5a8441" stroke="#3e5b2c" stroke-width="1">
      <rect width="129.063" height="43.021" rx="8" stroke="none"/>
      <rect x="0.5" y="0.5" width="128.063" height="42.021" rx="7.5" fill="none"/>
    </g>
    <g id="Grupo_1213309" data-name="Grupo 1213309" transform="translate(15.573 16.008)">
      <g id="Grupo_1213308" data-name="Grupo 1213308" clip-path="url(#clip-path)">
        <path id="Trazado_1260005" data-name="Trazado 1260005" d="M97.8,31.936,97.915,80H0L.119,31.935c.294.1.508.431.922.676,4.791.141,9.706-2.22,11.682-6.812,1.17-2.718,3.233-5.291,6.47-5.3a10.943,10.943,0,0,0,10.6-7.188,8.1,8.1,0,0,1,7.193-5.091H60.914c3.532,0,6.306,2.6,7.523,5.684a10.465,10.465,0,0,0,10.268,6.52c3.157.274,5.266,2.408,6.39,5.193,1.58,3.913,5.357,6.18,9.4,6.9a3.561,3.561,0,0,0,3.3-.583M62.1,75.163c3.676-1.457,1.4-5.567,2.305-8.356l2.884,1.806a1.5,1.5,0,0,0,1.971-.41,1.54,1.54,0,0,0-.3-2.082l-3.733-2.572a26.94,26.94,0,0,1,4.528-6.711l3.943,3.428a1.525,1.525,0,0,0,2.2-.392,1.571,1.571,0,0,0-.369-2.009l-3.764-3.436a24.144,24.144,0,0,0,3.081-5.682l4.512,1.888c.758.317,1.436-.336,1.641-1a1.476,1.476,0,0,0-.734-1.752l-4.458-2.305a27.193,27.193,0,0,0-.588-12.665c-1.987-7.167-8.241-10.484-15.322-10.15-8.282-7.5-18.583-4.945-27.358.014A34.121,34.121,0,0,0,17.442,39.85c-3.623,9.063.423,18.732,9.75,21.593,8.626,2.645,15.856-1.749,19.036-9.68a3.155,3.155,0,0,1,3-2.076c5.863-.133,10.924-2.461,14.2-7.724,1.024,3.046-.178,6.09-2.163,8.389l-3.2,3.71c-1.616.7-6.631-.986-6.339,1.9.208,2.055,2.979,1.016,4.717,1.4a23.411,23.411,0,0,0-1.446,5.531l-4,1.377a1.433,1.433,0,0,0-.846,1.9,1.472,1.472,0,0,0,1.824.94l3.023-.919c.417,3.276,2.621,10.758,7.113,8.978m28.137-34.15a2.28,2.28,0,1,0-2.28,2.279,2.28,2.28,0,0,0,2.28-2.279M10.713,42.547a2.282,2.282,0,1,0-2.282,2.28,2.281,2.281,0,0,0,2.282-2.28M86.45,67.216A2.547,2.547,0,0,0,88.168,65.5c.841-.065,2.034-.236,2.071-1.441a5.344,5.344,0,1,0-6.313,5.178,2.133,2.133,0,0,0,1.764-.175,2,2,0,0,0,.76-1.843M9.7,66.93a2.559,2.559,0,0,0,1.77,1.754c-.071.864.259,2.036,1.377,2.092A5.279,5.279,0,0,0,18.354,65.7,5.354,5.354,0,0,0,7.664,65.1a1.827,1.827,0,0,0,.421,1.414A1.946,1.946,0,0,0,9.7,66.93m28.542,3.13a2.282,2.282,0,1,0-2.282,2.28,2.281,2.281,0,0,0,2.282-2.28" transform="translate(0 -5.166)" fill="#9a7767"/>
        <path id="Trazado_1260006" data-name="Trazado 1260006" d="M97.913,26.772a3.56,3.56,0,0,1-3.3.583c-4.047-.72-7.824-2.987-9.4-6.9-1.124-2.785-3.234-4.919-6.39-5.193a10.465,10.465,0,0,1-10.268-6.52c-1.217-3.086-3.99-5.684-7.523-5.684H37.1a8.1,8.1,0,0,0-7.193,5.091,10.943,10.943,0,0,1-10.6,7.188c-3.237.009-5.3,2.581-6.47,5.3-1.975,4.592-6.89,6.953-11.682,6.812C.744,27.2.53,26.874.236,26.77a2.3,2.3,0,0,1,.331-1.913c.371-.409.8-.428,1.563-.468,3.177-.168,6.671-1.855,7.888-4.975A10.9,10.9,0,0,1,20.472,12.1a7.062,7.062,0,0,0,6.335-4.629C28.485,3.27,32.4,0,37.123,0L61.28.023c4.516,0,8.333,3.249,9.96,7.266A7.182,7.182,0,0,0,77.684,12.1a10.913,10.913,0,0,1,10.448,7.31c1.311,3.324,5.056,4.949,8.413,5.006a1.385,1.385,0,0,1,1.259.761,3.336,3.336,0,0,1,.109,1.593" transform="translate(-0.117 -0.001)" fill="#2b2a2a"/>
        <path id="Trazado_1260007" data-name="Trazado 1260007" d="M222.667,150.668c-1.512-.818-.514-4.01-3.44-3.812a2.251,2.251,0,0,0-2.1,2.326c.055,2.714,2.965,1.686,3.822,3.2a2,2,0,0,1-.76,1.843,2.134,2.134,0,0,1-1.764.175,5.362,5.362,0,1,1,6.313-5.178c-.036,1.2-1.229,1.377-2.07,1.441" transform="translate(-134.498 -90.337)" fill="#282726"/>
        <path id="Trazado_1260008" data-name="Trazado 1260008" d="M227.861,155.872a2.548,2.548,0,0,1-1.719,1.719c-.857-1.518-3.767-.49-3.822-3.2a2.251,2.251,0,0,1,2.1-2.326c2.926-.2,1.928,2.994,3.44,3.812" transform="translate(-139.693 -95.54)" fill="#855f47"/>
        <path id="Trazado_1260009" data-name="Trazado 1260009" d="M24.413,156.427c.754-1.294,4.227-.623,3.792-3.539a2.256,2.256,0,0,0-2.324-1.946c-2.832.095-1.628,3.248-3.237,3.731a1.946,1.946,0,0,1-1.616-.417,1.823,1.823,0,0,1-.421-1.413,5.354,5.354,0,0,1,10.69.605,5.278,5.278,0,0,1-5.506,5.071c-1.118-.056-1.449-1.229-1.377-2.092" transform="translate(-12.942 -92.909)" fill="#282726"/>
        <path id="Trazado_1260010" data-name="Trazado 1260010" d="M27.872,161.629a2.559,2.559,0,0,1-1.77-1.753c1.609-.483.405-3.636,3.237-3.731a2.256,2.256,0,0,1,2.324,1.946c.435,2.916-3.038,2.244-3.792,3.539" transform="translate(-16.401 -98.111)" fill="#865f47"/>
        <path id="Trazado_1260011" data-name="Trazado 1260011" d="M21.111,96.725a2.282,2.282,0,1,1-2.282-2.28,2.281,2.281,0,0,1,2.282,2.28" transform="translate(-10.398 -59.344)" fill="#282727"/>
        <path id="Trazado_1260012" data-name="Trazado 1260012" d="M95.182,170.753a2.282,2.282,0,1,1-2.282-2.28,2.281,2.281,0,0,1,2.282,2.28" transform="translate(-56.94 -105.859)" fill="#282727"/>
        <path id="Trazado_1260013" data-name="Trazado 1260013" d="M235.1,92.6a2.28,2.28,0,1,1-2.28-2.279A2.279,2.279,0,0,1,235.1,92.6" transform="translate(-144.855 -56.753)" fill="#282727"/>
        <path id="Trazado_1260014" data-name="Trazado 1260014" d="M89.363,91.786c-4.492,1.781-6.7-5.7-7.112-8.978l-3.023.919a1.473,1.473,0,0,1-1.825-.94,1.433,1.433,0,0,1,.846-1.9l4-1.377A23.439,23.439,0,0,1,83.7,73.985c-1.739-.389-4.509.65-4.717-1.4-.292-2.882,4.723-1.2,6.339-1.9l3.2-3.71c1.986-2.3,3.187-5.343,2.163-8.389-3.272,5.263-8.333,7.592-14.2,7.724a3.155,3.155,0,0,0-3,2.076c-3.179,7.932-10.41,12.325-19.036,9.68C45.124,75.2,41.078,65.536,44.7,56.473A34.121,34.121,0,0,1,59.81,39.4c8.774-4.958,19.075-7.515,27.357-.014,7.081-.334,13.335,2.983,15.322,10.15a27.19,27.19,0,0,1,.588,12.665l4.458,2.305a1.475,1.475,0,0,1,.734,1.752,1.3,1.3,0,0,1-1.641,1l-4.512-1.888a24.142,24.142,0,0,1-3.081,5.682l3.764,3.436a1.571,1.571,0,0,1,.369,2.009,1.525,1.525,0,0,1-2.2.392l-3.943-3.428a26.932,26.932,0,0,0-4.528,6.711l3.733,2.572a1.54,1.54,0,0,1,.3,2.082,1.5,1.5,0,0,1-1.971.41L91.669,83.43c-.909,2.789,1.371,6.9-2.305,8.356M70.432,67.68a6.539,6.539,0,0,1,6.358-4.442,13.084,13.084,0,0,0,9.593-4.049,12.016,12.016,0,0,0,2.344-12.058,15.454,15.454,0,0,0-5.683-7.072c-6.712-4.548-15.6-1.533-22.034,2.192A30.654,30.654,0,0,0,47.292,58.286,12.782,12.782,0,0,0,50.3,72.242,12.984,12.984,0,0,0,62.44,75.356a12.561,12.561,0,0,0,7.992-7.675M88.538,87.844c-1-6.815,2.249-12.107,6.55-16.847a19.853,19.853,0,0,0,5.332-11.882c.577-7.519-1.7-16.055-10.6-16.525a14.265,14.265,0,0,1,2.246,11.833c3.6,5.25,2.252,11.071-2.011,15.465C79.889,80.806,89.235,92.6,88.538,87.844" transform="translate(-27.26 -21.788)" fill="#282726"/>
        <path id="Trazado_1260015" data-name="Trazado 1260015" d="M159.374,101.223c.7,4.756-8.648-7.038,1.516-17.955,4.263-4.394,5.614-10.216,2.011-15.465a14.265,14.265,0,0,0-2.246-11.833c8.9.47,11.178,9.006,10.6,16.525a19.853,19.853,0,0,1-5.332,11.882c-4.3,4.74-7.549,10.032-6.55,16.847" transform="translate(-98.096 -35.168)" fill="#7dc54e"/>
        <path id="Trazado_1260016" data-name="Trazado 1260016" d="M75.557,72.91a12.561,12.561,0,0,1-7.992,7.675,12.984,12.984,0,0,1-12.139-3.114,12.783,12.783,0,0,1-3.009-13.956A30.654,30.654,0,0,1,66.135,47.483c6.438-3.726,15.322-6.741,22.034-2.192a15.454,15.454,0,0,1,5.683,7.072,12.016,12.016,0,0,1-2.344,12.058,13.084,13.084,0,0,1-9.593,4.049,6.539,6.539,0,0,0-6.358,4.442m8.257-20.815a1.506,1.506,0,0,0,2.092-.809c1.087-3.6-11.4-5.665-19.453,3.1-.614.668-.014,1.824.494,2.165a1.455,1.455,0,0,0,1.9-.312c3.81-3.647,10.042-6.563,14.967-4.147M64.487,59.056a1.5,1.5,0,1,0-1.5,1.5,1.5,1.5,0,0,0,1.5-1.5" transform="translate(-32.385 -27.018)" fill="#d4956a"/>
        <path id="Trazado_1260017" data-name="Trazado 1260017" d="M108.586,60.871c-4.925-2.415-11.157.5-14.967,4.147a1.455,1.455,0,0,1-1.9.311c-.508-.34-1.108-1.5-.494-2.164,8.058-8.77,20.54-6.706,19.453-3.1a1.506,1.506,0,0,1-2.092.809" transform="translate(-57.157 -35.794)" fill="#2a2827"/>
        <path id="Trazado_1260018" data-name="Trazado 1260018" d="M81.308,83.671a1.5,1.5,0,1,1-1.5-1.5,1.5,1.5,0,0,1,1.5,1.5" transform="translate(-49.207 -51.633)" fill="#282727"/>
      </g>
    </g>
  </g>
</svg>
