<svg xmlns="http://www.w3.org/2000/svg" width="76.345" height="76.344" viewBox="0 0 76.345 76.344">
  <g id="_10" data-name="10" transform="translate(-1021.967 -3092.655)">
    <g id="Grupo_1200255" data-name="Grupo 1200255">
      <g id="Grupo_1187152" data-name="Grupo 1187152">
        <g id="Grupo_1185946" data-name="Grupo 1185946" transform="translate(-3.07)">
          <g id="Grupo_1184280" data-name="Grupo 1184280">
            <g id="Grupo_1182168" data-name="Grupo 1182168">
              <g id="Grupo_1178877" data-name="Grupo 1178877">
                <g id="Grupo_1111311" data-name="Grupo 1111311">
                  <g id="Grupo_1098742" data-name="Grupo 1098742" transform="translate(1025.482 3093.101)">
                    <g id="Rect치ngulo_400898" data-name="Rect치ngulo 400898" transform="translate(-0.445 -0.445)" fill="#d9e8f9" stroke="#6f89a8" stroke-width="1" opacity="0.859">
                      <rect width="76.345" height="76.345" rx="38.172" stroke="none"/>
                      <rect x="0.5" y="0.5" width="75.345" height="75.345" rx="37.672" fill="none"/>
                    </g>
                    <g id="Rect치ngulo_400907" data-name="Rect치ngulo 400907" transform="translate(-0.446 -0.445)" fill="none" stroke="#6f89a8" stroke-width="1">
                      <rect width="76.345" height="76.345" rx="38.172" stroke="none"/>
                      <rect x="0.5" y="0.5" width="75.345" height="75.345" rx="37.672" fill="none"/>
                    </g>
                  </g>
                </g>
              </g>
            </g>
          </g>
        </g>
      </g>
    </g>
    <g id="save-plant_17935632" transform="translate(1029.996 3098.451)">
      <path id="Trazado_1246500" data-name="Trazado 1246500" d="M34.856,33.4c1.158-2.275.03-6.19-3.5-7.988-5.538-2.819-14.375,1.383-14.375,1.383,5.583,2.223,5.855,5.672,9.386,7.469S33.7,35.671,34.856,33.4Z" transform="translate(-5.603 -6.59)" fill="#a2d84c"/>
      <path id="Trazado_1246501" data-name="Trazado 1246501" d="M56.22,22.658c-1.879-1.729-2.185-5.792.5-8.707,4.208-4.573,13.956-3.713,13.956-3.713-4.459,4.029-3.512,7.357-6.194,10.272S58.1,24.387,56.22,22.658Z" transform="translate(-21.908 -0.435)" fill="#a2d84c"/>
      <path id="Trazado_1246502" data-name="Trazado 1246502" d="M30.561,26.23a40.628,40.628,0,0,1,11.157,4.729c1.925,1.268,1.691,3.83,1.691,6.135l3-.25c0-2.275-.552-7.719,1.468-11.62a21.354,21.354,0,0,1,5.67-7.3c-8.732,2.281-9.55,11.2-9.55,11.2s-1.909-3.25-13.436-2.9Z" transform="translate(-11.464 -3.781)" fill="#39b54a"/>
      <path id="Trazado_1246503" data-name="Trazado 1246503" d="M29.992,53.34a5.567,5.567,0,0,1,4.553-3.422s1.262-3.172,6.133-1.648c0,0,3.66-2.393,7.094-.136,0,0,4.8-1.472,5.911,1.825,0,0,3.888-1.734,5.337,1a5.17,5.17,0,0,1,3.473,1.256l.858,1.706L43.02,66.085S28.665,55.29,29.825,53.3l.167.038Z" transform="translate(-11.118 -16.4)" fill="#a67c52"/>
      <path id="Trazado_1246504" data-name="Trazado 1246504" d="M55.86,60.273S38.2,72.328,35.275,74.083a8.81,8.81,0,0,1-6.5.625s-8.678-4.95-11.077-4.6c-2.557.369-6.354,3.705-6.354,3.705L5,66.1s9.355-8.69,12.958-9.264c1.25-.2,4.831,1.478,4.831,1.478l3.984,1.216,9.554-.921a5.6,5.6,0,0,1,2.3,2.745.793.793,0,0,1,.051.165,2.887,2.887,0,0,1,.017,1.307l.784-.415.085-.045L46.09,58.9l6.4-3.393c5.126-.574,3.37,4.768,3.37,4.768Z" transform="translate(-0.432 -19.982)" fill="#dbb595"/>
      <path id="Trazado_1246505" data-name="Trazado 1246505" d="M55.569,35.956A3.772,3.772,0,0,0,52,34.886a.589.589,0,0,0-.2.063l-.382.2a6.1,6.1,0,0,0-3.194-1.168c-1.273-1.931-3.788-1.686-5.35-1.155-1.2-2.324-4.345-2.187-6.13-1.711a6.424,6.424,0,0,0-1.283-.593,23.434,23.434,0,0,1,.714-6.9,5.032,5.032,0,0,0,.574.033,9,9,0,0,0,6.242-3.191,11.383,11.383,0,0,0,2.256-4.135,13.381,13.381,0,0,1,3.9-6.1.569.569,0,0,0-.331-.988c-.41-.038-10.077-.835-14.423,3.893a7.426,7.426,0,0,0-1.366,8.342,16.267,16.267,0,0,0-.869,2.715A8.606,8.606,0,0,0,30,23.091a7.7,7.7,0,0,0-3.988-4.777C20.29,15.4,11.5,19.511,11.132,19.688a.569.569,0,0,0,.034,1.042,13.38,13.38,0,0,1,5.779,4.357A11.391,11.391,0,0,0,20.5,28.177a10.394,10.394,0,0,0,4.648,1.181,5.079,5.079,0,0,0,4.4-1.954c.132.083.263.167.393.252a3.465,3.465,0,0,1,1.389,2.833,8.621,8.621,0,0,0-1.846.764c-4.15-1.2-5.893.879-6.409,1.723a6.033,6.033,0,0,0-4.507,3.315,3.38,3.38,0,0,0-1.128-.074c-3.732.593-12.872,9.051-13.26,9.411a.568.568,0,0,0-.052.778l6.348,7.713a.568.568,0,0,0,.393.205.575.575,0,0,0,.421-.14c.036-.032,3.7-3.227,6.063-3.568,1.612-.23,7.424,2.658,10.715,4.534a.629.629,0,0,0,.11.048,10.108,10.108,0,0,0,2.81.388,8.017,8.017,0,0,0,4.146-1.068c2.9-1.744,19.895-13.338,20.616-13.83a.569.569,0,0,0,.219-.292c.038-.114.909-2.823-.4-4.439ZM35.231,13.9c3.083-3.354,9.463-3.635,12.2-3.585a14.813,14.813,0,0,0-3.251,5.614,10.353,10.353,0,0,1-2.026,3.761,7.8,7.8,0,0,1-5.589,2.818c.111-.272.223-.544.356-.8a21.142,21.142,0,0,1,5.49-7.1s.005-.007.009-.009a.558.558,0,0,0-.269-1.008c-.01,0-.019-.005-.03-.006s-.024-.007-.037-.007a.554.554,0,0,0-.094.019c-.02,0-.04,0-.061.005a12.789,12.789,0,0,0-8.251,6.509A6.459,6.459,0,0,1,35.231,13.9ZM21.019,27.163a10.339,10.339,0,0,1-3.211-2.819,14.829,14.829,0,0,0-5-4.129c2.545-1,8.623-2.959,12.688-.888a6.658,6.658,0,0,1,3.16,3.35,34.178,34.178,0,0,0-9.576-.793A.568.568,0,0,0,18.964,23a41.972,41.972,0,0,1,9.615,3.816c-1.186,1.736-4.47,1.915-7.559.343Zm9.547-.457a36.211,36.211,0,0,0-7.6-3.664c7.528.361,9.071,2.574,9.081,2.59A.569.569,0,0,0,33.1,25.4a13.316,13.316,0,0,1,1-3.64.556.556,0,0,0,.1-.241,11.858,11.858,0,0,1,5.463-5.856,26.562,26.562,0,0,0-3.755,5.523c-1.426,2.746-1.631,6.2-1.594,9.069a6.845,6.845,0,0,0-1.865,0,4.557,4.557,0,0,0-1.884-3.551Zm-7.111,7.38a.577.577,0,0,0,.5-.354c.045-.109,1.164-2.656,5.437-1.32a.57.57,0,0,0,.48-.067,7.158,7.158,0,0,1,2.088-.847h.008a.521.521,0,0,0,.09-.023,5.474,5.474,0,0,1,4.286.731.571.571,0,0,0,.479.069c.043-.013,4.285-1.278,5.206,1.462a.569.569,0,0,0,.769.339c.139-.061,3.423-1.483,4.6.747a.576.576,0,0,0,.569.3,4.173,4.173,0,0,1,2.295.64L38.884,41.8c-.227-2.24-2.583-3.666-2.7-3.734a.583.583,0,0,0-.344-.077L26.4,38.9l-3.841-1.171A26.2,26.2,0,0,0,19.7,36.592a4.742,4.742,0,0,1,3.751-2.506Zm31.49,5.776C53.136,41.1,37.275,51.906,34.551,53.542a8.231,8.231,0,0,1-5.977.587c-1.145-.651-8.915-5.009-11.382-4.638-2.188.315-5.1,2.552-6.2,3.461L5.349,46.1c2.851-2.6,9.587-8.332,12.271-8.758.743-.121,3.077.768,4.5,1.434a.506.506,0,0,0,.076.029l3.987,1.216a.575.575,0,0,0,.221.022l9.354-.9c.534.364,2.315,1.722,1.962,3.48A4.541,4.541,0,0,1,36.4,44.429l-8.83.851a.568.568,0,0,0,.055,1.134l.055,0,9.014-.869a.569.569,0,0,0,.319-.137A5.991,5.991,0,0,0,38.71,43.18l13.526-7.175a2.673,2.673,0,0,1,2.451.666c.7.861.461,2.454.261,3.19Z" transform="translate(0 0)"/>
      <path id="Trazado_1246506" data-name="Trazado 1246506" d="M55.8,55.445a2.687,2.687,0,0,1,1.778-.591,1.826,1.826,0,0,1,1.243.847.571.571,0,0,0,.65.206A2.1,2.1,0,0,1,61.067,56a1.785,1.785,0,0,1,.64,1.44.569.569,0,0,0,.566.526.367.367,0,0,0,.043,0,.568.568,0,0,0,.524-.609,2.831,2.831,0,0,0-1.157-2.31,2.973,2.973,0,0,0-2.179-.315,2.8,2.8,0,0,0-1.783-1,3.821,3.821,0,0,0-2.644.845.568.568,0,0,0,.727.874Z" transform="translate(-21.958 -19.222)"/>
    </g>
  </g>
</svg>
