<svg xmlns="http://www.w3.org/2000/svg" xmlns:xlink="http://www.w3.org/1999/xlink" width="129.063" height="79.783" viewBox="0 0 129.063 79.783">
  <defs>
    <clipPath id="clip-path">
      <rect id="Rect치ngulo_411633" data-name="Rect치ngulo 411633" width="85" height="79.784" fill="none"/>
    </clipPath>
  </defs>
  <g id="_15" data-name="15" transform="translate(-787.781 -2552.242)">
    <g id="Rect치ngulo_410589" data-name="Rect치ngulo 410589" transform="translate(787.781 2575.623)" fill="#ffc94a" stroke="#dfab32" stroke-width="1">
      <rect width="129.063" height="43.021" rx="8" stroke="none"/>
      <rect x="0.5" y="0.5" width="128.063" height="42.021" rx="7.5" fill="none"/>
    </g>
    <g id="Grupo_1213239" data-name="Grupo 1213239" transform="translate(809.813 2552.242)">
      <g id="Grupo_1213238" data-name="Grupo 1213238" clip-path="url(#clip-path)">
        <path id="Trazado_1259171" data-name="Trazado 1259171" d="M107.319,46A6.187,6.187,0,0,1,107.546,55a14.333,14.333,0,0,1-1.562,1.486,15.039,15.039,0,0,1-2.122-2.167,6.146,6.146,0,0,1,.823-8.338c.475,1.854-.762,5.665,1.161,5.816,2.309.182,1-3.644,1.474-5.8" transform="translate(-69.511 -31.154)" fill="#b4e368"/>
        <path id="Trazado_1259172" data-name="Trazado 1259172" d="M12.561,61.64a6.208,6.208,0,0,1-.58,9.51c-.307.246-.454.675-.82.7-.426.026-.565-.435-.864-.672a6.274,6.274,0,0,1-.527-9.7c.454,1.983-.733,5.478,1.16,5.819a1.224,1.224,0,0,0,1.412-1.114Z" transform="translate(-5.231 -41.648)" fill="#b4e368"/>
        <path id="Trazado_1259173" data-name="Trazado 1259173" d="M158.9,38.414a1.567,1.567,0,0,1,.344,2.019c-1.368,2.55-3.034,4.852-4.206,7.579-.438-.076-.884,1.395-.428,1.395l22.469-.015L166.107,30.216a.721.721,0,0,0-.587-.321c-.453-.112-.182.458-.453.759-2.035,2.264-2.478,5.836-4.641,5.055-.189-.4-.71-.991-.4-1.53l3.066-5.378a2.905,2.905,0,0,1,5.01-.07l10.922,18.906a2.906,2.906,0,0,1-2.77,4.261l-21.2,0a2.961,2.961,0,0,1-2.527-1.053,2.837,2.837,0,0,1-.422-2.925l5.264-9.153c.295-.513,1.157-.253,1.54-.351" transform="translate(-102.87 -18.517)" fill="#050504"/>
        <path id="Trazado_1259174" data-name="Trazado 1259174" d="M161.746,54.989c1.172-2.727,2.838-5.029,4.206-7.579a1.567,1.567,0,0,0-.344-2.019,12.516,12.516,0,0,0,1.524-2.7c2.163.781,2.607-2.791,4.642-5.055l8.535,14.923a1.622,1.622,0,0,1-.1,1.707,1.756,1.756,0,0,1-1.576.726Zm11.829-7.833,0-2.306a1.269,1.269,0,0,0-1.3-1.322c-1.5.089-1.26,2.118-1.185,3.762a1.225,1.225,0,0,0,1.392,1.26,1.255,1.255,0,0,0,1.1-1.394m-.018,5.333a1.23,1.23,0,1,0-1.23,1.23,1.23,1.23,0,0,0,1.23-1.23" transform="translate(-109.576 -25.494)" fill="#fbde75"/>
        <path id="Trazado_1259175" data-name="Trazado 1259175" d="M160.445,53.364h16.889a1.756,1.756,0,0,0,1.576-.726,1.623,1.623,0,0,0,.1-1.707l-8.536-14.924c.271-.3,0-.871.453-.759a.72.72,0,0,1,.587.321l10.974,19.175-22.469.015c-.456,0-.01-1.47.428-1.395" transform="translate(-108.276 -23.869)" fill="#f9cc59"/>
        <path id="Trazado_1259176" data-name="Trazado 1259176" d="M193.058,59.537a1.254,1.254,0,0,1-1.1,1.394,1.224,1.224,0,0,1-1.392-1.259c-.075-1.645-.32-3.674,1.184-3.762a1.269,1.269,0,0,1,1.3,1.321Z" transform="translate(-129.06 -37.875)" fill="#050504"/>
        <path id="Trazado_1259177" data-name="Trazado 1259177" d="M193.194,81.11a1.23,1.23,0,1,1-1.23-1.23,1.23,1.23,0,0,1,1.23,1.23" transform="translate(-129.214 -54.115)" fill="#0b0806"/>
        <path id="Trazado_1259178" data-name="Trazado 1259178" d="M61.559,39.879c.041,2.145-3.994.9-5.578,1.351l-4.349,6.587,2.187,6.615,9.226,4.638c2.11-1.675,4.714-2.747,6.6-4.636,1.279-1.856,1.4-4.482,2.446-6.594l-4.4-6.577a2.875,2.875,0,0,0-1.272-.106,1.326,1.326,0,0,1-1.483-1.277,1.248,1.248,0,0,1,1.24-1.254H82.816A2.126,2.126,0,0,1,85,40.874l-.019,36.863a2.057,2.057,0,0,1-2.206,2.045H15.981A1.288,1.288,0,0,1,14.632,78.5a1.27,1.27,0,0,1,1.293-1.213l3.43-.027c-.207-.93-.91-1.452-1.317-2.139-.593-1-1.228-1.977-1.976-3.045l-6.574-.022a34.553,34.553,0,0,0-2.93,3.087,10.174,10.174,0,0,0-2.139,2.083c1.709.43,6.922-.76,6.915,1.3A1.367,1.367,0,0,1,9.91,79.784l-7.744-.009a2.057,2.057,0,0,1-2.15-2.038L0,40.874a2.123,2.123,0,0,1,2.186-2.248L19.939,38.6l-.057-22.36a6.244,6.244,0,0,0-6.221-6.018,6.359,6.359,0,0,0-6.5,5.949l1.989,2.019a8.767,8.767,0,0,1-.02,12.467l-1.817,1.8c-1.742,1.73-3.754-.741-5.105-2.271a8.792,8.792,0,0,1,.928-12.532c.442-.393,1.377-1.077,1.453-1.666A9.227,9.227,0,0,1,10.07,8.427c3.471-1.439,6.948-.6,9.859,1.834C19.444,4.489,23.446.134,28.65,0a8.879,8.879,0,0,1,9.038,9.707,2.726,2.726,0,0,0,1.186,2.655,8.845,8.845,0,0,1,1.6,12.472,23.4,23.4,0,0,1-2.765,2.8,2.009,2.009,0,0,1-2.464-.012,29.227,29.227,0,0,1-2.434-2.42,8.7,8.7,0,0,1,.393-12c1.8-1.83,2.514-1.571,1.935-5.325a6.348,6.348,0,0,0-6.533-5.4c-2.958.108-6.062,2.476-6.069,5.794l-.064,30.343,37.855,0a1.247,1.247,0,0,1,1.234,1.257M37.808,14.846c-.476,2.159.835,5.985-1.474,5.8-1.923-.151-.685-3.962-1.161-5.816a6.146,6.146,0,0,0-.823,8.338,15.039,15.039,0,0,0,2.122,2.167,14.333,14.333,0,0,0,1.562-1.486,6.187,6.187,0,0,0-.227-9.005M7.331,19.992l-.218,4.542A1.224,1.224,0,0,1,5.7,25.649c-1.893-.341-.707-3.836-1.161-5.819a6.274,6.274,0,0,0,.527,9.7c.3.237.438.7.864.673.366-.023.513-.453.82-.7a6.208,6.208,0,0,0,.58-9.511m6.212,34.026,4.37-6.63-2.094-6.222H2.505l-.017,5.912,6.972,6.97Zm18.05-7.667L34.9,41.191,18.5,41.183l1.75,5.237Zm19.738,8.43L49.1,48.241,42,41.161,37.96,41.2l-4.382,6.6,2.259,6.671,9.145,4.56ZM52.9,41.19l-7.227.027A57.421,57.421,0,0,0,50.1,45.566a50.086,50.086,0,0,0,2.8-4.376m27.038-.015-9.212.036,3.015,4.571Zm.24,3.06c-7.382,5.344-4.858,2.433-7.913,10.747l4.06,4.047a16.36,16.36,0,0,0,4.095-1.5,4.359,4.359,0,0,0,2.1-.6V42.511a9.663,9.663,0,0,0-2.339,1.725M28.981,61.8l4.388-6.682-2.077-6.27-11.33.009-4.317,6.48,4.383,6.508Zm-21.8-6.525L2.5,50.712l.031,9.245Zm8.691,14.2,2.042-6.211-4.421-6.642-4.021,0L3.033,63.066l6.431,6.458ZM46.12,75.107a20.339,20.339,0,0,0,2.033,2.156l6.549,0c.771-.532.994-1.407,1.509-2.074l5.655-7.33.014-6.569L52.9,56.8l-6.829,4.54-4.6,9.2Zm-6.88-5.67,4.137-8.369-8.164-4.1L31,63.259l2.088,6.257a58.14,58.14,0,0,0,6.152-.079m31.517,2.312,3.975-4L74.754,61l-4.04-4.03-6.288,4.159V67.6ZM80.413,60.4a29.207,29.207,0,0,0-3.11,1.008L77.3,67.3A22.7,22.7,0,0,0,80.44,68.32a6.925,6.925,0,0,0,2.068.635l-.033-9.222a7.682,7.682,0,0,0-2.063.669M21.294,75.194c.288.568.63,1.6,1.3,1.943a10.571,10.571,0,0,0,3.653.076,7.267,7.267,0,0,0,1.5-2.043c1.014-1.482,2.053-2.962,3.033-4.6l-2.072-6.234-8.475-.028-2.129,6.272ZM7.172,70.742,2.524,66.171,2.555,75.4Zm64.99,4.4a4.638,4.638,0,0,0,.086,2.144l10.259-.018-.029-5.578c-.767-.318-1.423-.452-2.05-.656-1.318-.43-2.586-.982-4.1-1.336l-4.057,4.057c-.311.311-.114.9-.105,1.387m-12.505-.019a6.648,6.648,0,0,0-1.63,2.138l11.459.006a5.146,5.146,0,0,0,.083-2.125c-.038-.263.219-.893-.1-1.144l-6.02-4.071Zm-28.729.009a7.049,7.049,0,0,0-1.453,2.138l14.968,0a7.348,7.348,0,0,0-2.169-2.187,30.253,30.253,0,0,0-2.82-3.021l-6.571-.017a24.432,24.432,0,0,0-1.955,3.084" transform="translate(0 -0.001)" fill="#040302"/>
        <path id="Trazado_1259179" data-name="Trazado 1259179" d="M173.377,123.64a1.326,1.326,0,0,0,1.483,1.277,2.877,2.877,0,0,1,1.272.106l4.4,6.577c-1.041,2.112-1.167,4.738-2.445,6.594-1.884,1.889-4.488,2.96-6.6,4.636l-9.226-4.638-2.187-6.615,4.349-6.587c1.585-.448,5.62.794,5.578-1.351Zm-5.736,10.314a1.228,1.228,0,1,0-1.228,1.227,1.228,1.228,0,0,0,1.228-1.227m7.732,2.572a1.228,1.228,0,1,0-1.228,1.227,1.228,1.228,0,0,0,1.228-1.227" transform="translate(-108.446 -83.76)" fill="#de9772"/>
        <path id="Trazado_1259180" data-name="Trazado 1259180" d="M27.321,232.894c.407.687,1.11,1.209,1.317,2.139l-3.43.027a1.27,1.27,0,0,0-1.293,1.213l-3.3.023c.007-2.058-5.205-.868-6.915-1.3a10.174,10.174,0,0,1,2.139-2.083Z" transform="translate(-9.283 -157.776)" fill="#d78557"/>
        <path id="Trazado_1259181" data-name="Trazado 1259181" d="M143.3,194.489l-10.092-.08-4.655-4.563,4.6-9.2,6.829-4.54,8.983,4.486-.013,6.569Z" transform="translate(-87.093 -119.303)" fill="#df9773"/>
        <path id="Trazado_1259182" data-name="Trazado 1259182" d="M121.856,141.233l-6.349,4.255-9.145-4.56-2.259-6.672,4.382-6.6,4.039-.043,7.1,7.08Z" transform="translate(-70.526 -86.451)" fill="#de9773"/>
        <path id="Trazado_1259183" data-name="Trazado 1259183" d="M61.842,164.4l-8.953.046-4.383-6.508,4.317-6.48,11.33-.008,2.078,6.269Z" transform="translate(-32.861 -102.603)" fill="#de9773"/>
        <path id="Trazado_1259184" data-name="Trazado 1259184" d="M18.769,140.479l-4.082.028-6.972-6.97.017-5.911H21.045l2.094,6.221Zm-5.906-8.99a1.232,1.232,0,1,0-1.232,1.232,1.232,1.232,0,0,0,1.232-1.232m5.153,0a1.228,1.228,0,1,0-1.228,1.227,1.227,1.227,0,0,0,1.228-1.227" transform="translate(-5.227 -86.461)" fill="#dc9672"/>
        <path id="Trazado_1259185" data-name="Trazado 1259185" d="M22.239,188.4l-6.4.048L9.4,181.988l6.435-6.446,4.021,0,4.421,6.642Zm-3.076-8.988a1.23,1.23,0,1,0-1.23,1.23,1.23,1.23,0,0,0,1.23-1.23" transform="translate(-6.372 -118.923)" fill="#dd9772"/>
        <path id="Trazado_1259186" data-name="Trazado 1259186" d="M65.789,210.236l-6.458.025-3.185-4.615,2.129-6.272,8.475.028,2.072,6.234c-.979,1.638-2.018,3.118-3.033,4.6" transform="translate(-38.037 -135.068)" fill="#dd9772"/>
        <path id="Trazado_1259187" data-name="Trazado 1259187" d="M206.075,191.4l-6.331-4.144v-6.478l6.288-4.159,4.04,4.03-.022,6.753Zm1.454-5.984a1.228,1.228,0,1,0-1.228,1.227,1.228,1.228,0,0,0,1.228-1.227" transform="translate(-135.318 -119.655)" fill="#dc9671"/>
        <path id="Trazado_1259188" data-name="Trazado 1259188" d="M104.352,189.091a58.061,58.061,0,0,1-6.152.08l-2.088-6.257,4.212-6.29,8.164,4.1Zm-.665-6.37a1.227,1.227,0,1,0-1.227,1.226,1.227,1.227,0,0,0,1.227-1.226" transform="translate(-65.112 -119.655)" fill="#dd9772"/>
        <path id="Trazado_1259189" data-name="Trazado 1259189" d="M232.2,150.4a16.376,16.376,0,0,1-4.1,1.5l-4.059-4.047c3.054-8.314.531-5.4,7.913-10.746.121-.065.251.053.251.243Z" transform="translate(-151.782 -92.872)" fill="#de9772"/>
        <path id="Trazado_1259190" data-name="Trazado 1259190" d="M70.457,132.849l-11.339.067-1.75-5.237,16.395.008Z" transform="translate(-38.864 -86.498)" fill="#dc9671"/>
        <path id="Trazado_1259191" data-name="Trazado 1259191" d="M231.848,217.434l-.016,3.361a.845.845,0,0,1-.96.815l-7.29-.068c-.009-.489-.206-1.076.105-1.387l4.057-4.057c1.518.354,2.785.907,4.1,1.337" transform="translate(-151.421 -146.397)" fill="#de9772"/>
        <path id="Trazado_1259192" data-name="Trazado 1259192" d="M248.82,146.814l.008-13.049c0-.19-.13-.308-.251-.243a9.655,9.655,0,0,1,2.339-1.725v14.414a4.359,4.359,0,0,1-2.1.6" transform="translate(-168.402 -89.287)" fill="#d48355"/>
        <path id="Trazado_1259193" data-name="Trazado 1259193" d="M223.549,224.349l7.29.068a.845.845,0,0,0,.96-.815l.016-3.361c.627.2,1.283.338,2.05.656l.029,5.578-10.259.018a4.642,4.642,0,0,1-.086-2.144" transform="translate(-151.387 -149.204)" fill="#d78557"/>
        <path id="Trazado_1259194" data-name="Trazado 1259194" d="M194.868,222.024l-9.911-.02,3.8-5.2,6.019,4.071c.315.251.058.882.1,1.144" transform="translate(-125.301 -146.879)" fill="#dc9672"/>
        <path id="Trazado_1259195" data-name="Trazado 1259195" d="M104.18,232.8a7.353,7.353,0,0,1,2.169,2.187l-14.969,0a7.048,7.048,0,0,1,1.454-2.138Z" transform="translate(-61.906 -157.713)" fill="#d78557"/>
        <path id="Trazado_1259196" data-name="Trazado 1259196" d="M31.815,226.452l-11.48.02a34.646,34.646,0,0,1,2.93-3.087l6.574.022c.748,1.068,1.382,2.044,1.976,3.045" transform="translate(-13.776 -151.334)" fill="#dc9671"/>
        <path id="Trazado_1259197" data-name="Trazado 1259197" d="M107.233,226.42l-11.346.046a24.4,24.4,0,0,1,1.955-3.084l6.571.017a30.291,30.291,0,0,1,2.82,3.021" transform="translate(-64.96 -151.332)" fill="#dc9671"/>
        <path id="Trazado_1259198" data-name="Trazado 1259198" d="M191.444,232.937a5.14,5.14,0,0,1-.082,2.125l-11.459-.006a6.644,6.644,0,0,1,1.63-2.138Z" transform="translate(-121.877 -157.792)" fill="#d78557"/>
        <path id="Trazado_1259199" data-name="Trazado 1259199" d="M12.473,209.724l-4.617,4.658-.032-9.23Z" transform="translate(-5.301 -138.983)" fill="#d6926e"/>
        <path id="Trazado_1259200" data-name="Trazado 1259200" d="M228.487,127.658l-6.2,4.607-3.015-4.571Z" transform="translate(-148.549 -86.483)" fill="#d6926e"/>
        <path id="Trazado_1259201" data-name="Trazado 1259201" d="M12.433,161.787l-4.644,4.681-.031-9.245Z" transform="translate(-5.256 -106.512)" fill="#dc9671"/>
        <path id="Trazado_1259202" data-name="Trazado 1259202" d="M242.763,187.27l.028,7.917a22.786,22.786,0,0,1-3.145-1.021l.007-5.889a29.239,29.239,0,0,1,3.11-1.008" transform="translate(-162.351 -126.868)" fill="#dc9672"/>
        <path id="Trazado_1259203" data-name="Trazado 1259203" d="M249.338,193.782l-.028-7.917a7.686,7.686,0,0,1,2.063-.669l.033,9.222a6.924,6.924,0,0,1-2.068-.635" transform="translate(-168.897 -125.462)" fill="#d48355"/>
        <path id="Trazado_1259204" data-name="Trazado 1259204" d="M153.081,232.937c-.515.668-.739,1.542-1.51,2.074l-6.549,0a20.343,20.343,0,0,1-2.033-2.156Z" transform="translate(-96.869 -157.751)" fill="#d78557"/>
        <path id="Trazado_1259205" data-name="Trazado 1259205" d="M148.829,127.7a50.038,50.038,0,0,1-2.8,4.376,57.428,57.428,0,0,1-4.425-4.349Z" transform="translate(-95.93 -86.514)" fill="#d6926e"/>
        <path id="Trazado_1259206" data-name="Trazado 1259206" d="M72.479,233.051a7.267,7.267,0,0,1-1.5,2.043,10.571,10.571,0,0,1-3.653-.076c-.674-.346-1.016-1.374-1.3-1.943Z" transform="translate(-44.727 -157.883)" fill="#d78557"/>
        <path id="Trazado_1259207" data-name="Trazado 1259207" d="M178.366,153.04a1.228,1.228,0,1,1-1.228-1.228,1.228,1.228,0,0,1,1.228,1.228" transform="translate(-119.172 -102.847)" fill="#0b0806"/>
        <path id="Trazado_1259208" data-name="Trazado 1259208" d="M202.34,161.014a1.228,1.228,0,1,1-1.228-1.227,1.228,1.228,0,0,1,1.228,1.227" transform="translate(-135.413 -108.249)" fill="#0b0806"/>
        <path id="Trazado_1259209" data-name="Trazado 1259209" d="M18.5,137.016a1.232,1.232,0,1,1-1.232-1.232,1.232,1.232,0,0,1,1.232,1.232" transform="translate(-10.863 -91.988)" fill="#0b0806"/>
        <path id="Trazado_1259210" data-name="Trazado 1259210" d="M34.5,137.03A1.228,1.228,0,1,1,33.27,135.8,1.227,1.227,0,0,1,34.5,137.03" transform="translate(-21.707 -92.001)" fill="#0b0806"/>
        <path id="Trazado_1259211" data-name="Trazado 1259211" d="M34.49,184.952a1.23,1.23,0,1,1-1.23-1.23,1.23,1.23,0,0,1,1.23,1.23" transform="translate(-21.698 -124.464)" fill="#0b0806"/>
        <path id="Trazado_1259212" data-name="Trazado 1259212" d="M218.724,201.317a1.228,1.228,0,1,1-1.228-1.227,1.228,1.228,0,0,1,1.228,1.227" transform="translate(-146.513 -135.553)" fill="#0b0806"/>
        <path id="Trazado_1259213" data-name="Trazado 1259213" d="M114.442,192.954a1.227,1.227,0,1,1-1.227-1.226,1.227,1.227,0,0,1,1.227,1.226" transform="translate(-75.867 -129.888)" fill="#0b0806"/>
      </g>
    </g>
  </g>
</svg>
