<svg xmlns="http://www.w3.org/2000/svg" xmlns:xlink="http://www.w3.org/1999/xlink" width="86.109" height="86.109" viewBox="0 0 86.109 86.109">
  <defs>
    <filter id="Trazado_896985" x="0" y="0" width="86.109" height="86.109" filterUnits="userSpaceOnUse">
      <feOffset dy="3" input="SourceAlpha"/>
      <feGaussianBlur stdDeviation="3" result="blur"/>
      <feFlood flood-opacity="0.161"/>
      <feComposite operator="in" in2="blur"/>
      <feComposite in="SourceGraphic"/>
    </filter>
    <clipPath id="clip-path">
      <rect id="Rectángulo_411658" data-name="Rectángulo 411658" width="46.181" height="46.086" fill="none"/>
    </clipPath>
  </defs>
  <g id="_26" data-name="26" transform="translate(-599.051 -6060)">
    <g id="Grupo_1212622" data-name="Grupo 1212622" transform="translate(50.631 4094.164)">
      <g id="Grupo_1212276" data-name="Grupo 1212276" transform="translate(211.895 -14867.25)">
        <g id="Grupo_1198723" data-name="Grupo 1198723" transform="translate(139.635 12371.764)">
          <g id="Grupo_1198139" data-name="Grupo 1198139" transform="translate(205.891 4467.322)">
            <g id="Grupo_1111318" data-name="Grupo 1111318" transform="translate(0)">
              <g id="Grupo_1109826" data-name="Grupo 1109826" transform="translate(0 0)">
                <g id="Grupo_1098742" data-name="Grupo 1098742" transform="translate(0)">
                  <g transform="matrix(1, 0, 0, 1, -9, -6)" filter="url(#Trazado_896985)">
                    <g id="Trazado_896985-2" data-name="Trazado 896985" transform="translate(9 6)" fill="#bccdb2" opacity="0.859">
                      <path d="M 34.05470275878906 67.6094970703125 C 29.52462196350098 67.6094970703125 25.13032341003418 66.72238159179688 20.99385261535645 64.97280120849609 C 16.99824333190918 63.28280639648438 13.40971279144287 60.86331558227539 10.32794284820557 57.78155517578125 C 7.246182918548584 54.69978332519531 4.826692581176758 51.11125564575195 3.136692762374878 47.11564636230469 C 1.387112736701965 42.97917556762695 0.5000027418136597 38.58487319946289 0.5000027418136597 34.05479431152344 C 0.5000027418136597 29.52469444274902 1.387112736701965 25.13037490844727 3.136692762374878 20.9938850402832 C 4.826692581176758 16.99826431274414 7.246182918548584 13.40972518920898 10.32794284820557 10.32795429229736 C 13.40971279144287 7.246184825897217 16.99824333190918 4.826694488525391 20.99385261535645 3.136694669723511 C 25.13032341003418 1.387114763259888 29.52462196350098 0.5000047087669373 34.05470275878906 0.5000047087669373 C 38.58478164672852 0.5000047087669373 42.97908401489258 1.387114763259888 47.11555099487305 3.136694669723511 C 51.11116409301758 4.826694488525391 54.69969177246094 7.246174812316895 57.78146362304688 10.3279447555542 C 60.86322402954102 13.4097146987915 63.28271102905273 16.99823379516602 64.97270965576172 20.99384498596191 C 66.7222900390625 25.13031387329102 67.60940551757812 29.52461433410645 67.60940551757812 34.05469512939453 C 67.60940551757812 38.58479309082031 66.7222900390625 42.9791145324707 64.97270965576172 47.11560440063477 C 63.28271102905273 51.11122512817383 60.86322402954102 54.69976425170898 57.78146362304688 57.78153610229492 C 54.69969177246094 60.86330413818359 51.11116409301758 63.28280639648438 47.11555099487305 64.97280120849609 C 42.97908401489258 66.72238159179688 38.58478164672852 67.6094970703125 34.05470275878906 67.6094970703125 Z" stroke="none"/>
                      <path d="M 34.05470275878906 0.9999923706054688 C 29.59190368652344 0.9999923706054688 25.26313400268555 1.873817443847656 21.18863296508789 3.597183227539062 C 17.25262451171875 5.261985778808594 13.71751403808594 7.645496368408203 10.68150329589844 10.68150329589844 C 7.645492553710938 13.71752548217773 5.261981964111328 17.25263595581055 3.597190856933594 21.18866348266602 C 1.873825073242188 25.26318359375 1 29.59197616577148 1 34.05479431152344 C 1 38.51759338378906 1.873825073242188 42.84636688232422 3.597190856933594 46.92086410522461 C 5.261981964111328 50.85687255859375 7.645492553710938 54.39198303222656 10.68150329589844 57.42799377441406 C 13.71751403808594 60.46399307250977 17.25262451171875 62.84750366210938 21.18863296508789 64.51229858398438 C 25.26313400268555 66.23566436767578 29.59190368652344 67.10948181152344 34.05470275878906 67.10948181152344 C 38.51750183105469 67.10948181152344 42.84627532958984 66.23566436767578 46.92077255249023 64.51229858398438 C 50.85679244995117 62.84749603271484 54.39189147949219 60.46399307250977 57.42790222167969 57.42798614501953 C 60.46391296386719 54.39196395874023 62.8474235534668 50.85684204101562 64.51221466064453 46.92082214355469 C 66.23558044433594 42.84630584716797 67.10940551757812 38.51751708984375 67.10940551757812 34.05469512939453 C 67.10940551757812 29.59189605712891 66.23558044433594 25.26312637329102 64.51221466064453 21.18862533569336 C 62.8474235534668 17.25261306762695 60.46391296386719 13.71750640869141 57.42790222167969 10.68149566650391 C 54.39189147949219 7.645484924316406 50.85678100585938 5.261974334716797 46.92077255249023 3.597183227539062 C 42.84627532958984 1.873817443847656 38.51750183105469 0.9999923706054688 34.05470275878906 0.9999923706054688 M 34.05470275878906 -7.62939453125e-06 C 52.86259460449219 -7.62939453125e-06 68.10940551757812 15.24680328369141 68.10940551757812 34.05469512939453 L 68.10940551757812 34.05479431152344 C 68.10940551757812 52.86268615722656 52.86259460449219 68.10948181152344 34.05470275878906 68.10948181152344 C 15.24681091308594 68.10948181152344 0 52.86268615722656 0 34.05479431152344 L 0 34.05469512939453 C 0 15.24680328369141 15.24681091308594 -7.62939453125e-06 34.05470275878906 -7.62939453125e-06 Z" stroke="none" fill="#fff"/>
                    </g>
                  </g>
                  <g id="Rectángulo_400907" data-name="Rectángulo 400907" transform="translate(0)" fill="none" stroke="#fff" stroke-width="1">
                    <rect width="68.109" height="68.109" rx="34.055" stroke="none"/>
                    <rect x="0.5" y="0.5" width="67.109" height="67.109" rx="33.555" fill="none"/>
                  </g>
                </g>
              </g>
            </g>
          </g>
        </g>
      </g>
      <g id="Grupo_1213253" data-name="Grupo 1213253" transform="translate(568.384 1982.847)">
        <rect id="Rectángulo_411647" data-name="Rectángulo 411647" width="1.373" height="5.95" transform="translate(3.419 14.291) rotate(-68.114)" fill="#0b0b0b"/>
        <rect id="Rectángulo_411648" data-name="Rectángulo 411648" width="5.197" height="1.366" transform="translate(0 18.328)" fill="#0b0b0b"/>
        <rect id="Rectángulo_411649" data-name="Rectángulo 411649" width="5.16" height="1.372" transform="translate(0.052 25.148) rotate(-21.958)" fill="#050605"/>
        <rect id="Rectángulo_411650" data-name="Rectángulo 411650" width="3.293" height="1.376" transform="matrix(0.928, -0.372, 0.372, 0.928, 5.892, 22.796)" fill="#0b0b0b"/>
        <rect id="Rectángulo_411651" data-name="Rectángulo 411651" width="2.656" height="1.366" transform="translate(6.306 18.328)" fill="#0b0b0b"/>
        <rect id="Rectángulo_411652" data-name="Rectángulo 411652" width="1.374" height="2.504" transform="matrix(0.379, -0.925, 0.925, 0.379, 0.041, 12.924)" fill="#0b0b0b"/>
        <g id="Grupo_1213252" data-name="Grupo 1213252">
          <g id="Grupo_1213251" data-name="Grupo 1213251" clip-path="url(#clip-path)">
            <path id="Trazado_1259336" data-name="Trazado 1259336" d="M89.023,211.522a3.891,3.891,0,0,1-1.357-.014l-.057-3.164c-2.219-2.466-1.825-5.437.541-7.695a5.176,5.176,0,0,1,.895,7.688ZM88.317,207a3.381,3.381,0,0,0-.1-4.3,3.376,3.376,0,0,0,.1,4.3" transform="translate(-71.052 -165.499)" fill="#050605"/>
            <path id="Trazado_1259337" data-name="Trazado 1259337" d="M94.677,216.681a3.376,3.376,0,0,1-.1-4.3,3.381,3.381,0,0,1,.1,4.3" transform="translate(-77.412 -175.178)" fill="#85e092"/>
            <path id="Trazado_1259338" data-name="Trazado 1259338" d="M7.929,184.723a2.7,2.7,0,0,1-1.335.059l-.048-4.219c-3.223.346-5.266-1.693-5.847-4.593,2.094-.606,4.246-.46,5.815,1.144.014-.335.206-.864-.031-1.178a5.636,5.636,0,0,1-1.429-3.679,5.86,5.86,0,0,1,2.05-4.032c2.574,2.381,2.913,4.91.911,7.679-.227.313-.061.812-.038,1.19a5.486,5.486,0,0,1,5.77-1.119c-.576,2.867-2.547,4.9-5.789,4.6Zm-.7-10.122a3.448,3.448,0,0,0-.1-4.326,3.438,3.438,0,0,0,.1,4.326M6.2,179.148A3.469,3.469,0,0,0,2.49,177,3.259,3.259,0,0,0,6.2,179.148M11.971,177a3.476,3.476,0,0,0-3.718,2.158A3.3,3.3,0,0,0,11.971,177" transform="translate(-0.577 -138.753)" fill="#050605"/>
            <path id="Trazado_1259339" data-name="Trazado 1259339" d="M14.626,220.349a3.259,3.259,0,0,1-3.7-2.151,3.469,3.469,0,0,1,3.7,2.151" transform="translate(-9.008 -179.954)" fill="#85e092"/>
            <path id="Trazado_1259340" data-name="Trazado 1259340" d="M47.528,218.2a3.3,3.3,0,0,1-3.718,2.158,3.476,3.476,0,0,1,3.718-2.158" transform="translate(-36.135 -179.949)" fill="#85e092"/>
            <path id="Trazado_1259341" data-name="Trazado 1259341" d="M34.154,184.255a3.438,3.438,0,0,1-.1-4.326,3.448,3.448,0,0,1,.1,4.326" transform="translate(-27.499 -148.408)" fill="#85e092"/>
            <path id="Trazado_1259342" data-name="Trazado 1259342" d="M100.7,21.564a2.263,2.263,0,0,1-.657-.082l-.014-2.494a.715.715,0,0,0-.749-.731l-3.913.032a5.355,5.355,0,0,0-1.568.031V32.192a7.225,7.225,0,0,0,1.571.028,2.465,2.465,0,0,0,.886-.024l0-5.087a3.246,3.246,0,0,1,1.31.014l.017,5.083c.833-.017,2.44.377,2.442-.686l.014-8.574a2.033,2.033,0,0,1,.661-.072,2.561,2.561,0,0,1,.656.06l.022,8.478a2.083,2.083,0,0,1-2.238,2.193,8.923,8.923,0,0,0-1.559.032l-.01,3.544a3.544,3.544,0,0,1-2.65,3.52,7.76,7.76,0,0,1-2.091.134l-.026,5.193a6.712,6.712,0,0,1-1.377.017l.015-5.576a16.164,16.164,0,0,1-4.356-2.443l-.014,8.018-1.289.026-.026-9.133a.319.319,0,0,0-.257-.287,4.305,4.305,0,0,1-1.579.013l-.039,3.611a2.906,2.906,0,0,1-.722.085,2,2,0,0,1-.629-.076l-.015-4.92-3.128-3.472-2.727,1.277a4.267,4.267,0,0,1-.183-4.544l-6.746-7.541-2.776-.045-.021-4.026L71.511,17l8.218,9.161,2.782-1.335.037-7.425a5.583,5.583,0,0,1,2.213-4.318A5.17,5.17,0,0,1,81.131,8.27l-.039-3.322-4.551-.025a5.6,5.6,0,0,1,.019-1.335L81.2,3.543a4.275,4.275,0,0,1,8.485.619l.025,7.973a5.768,5.768,0,0,1,4.068,4.7,4.1,4.1,0,0,0,1.347.018l.041-2.955,1.478-.084a4.688,4.688,0,0,0,0-1.3l-1.935-.045a3.223,3.223,0,0,1,.006-1.365l5.312,0a5.355,5.355,0,0,1,.019,1.336l-1.87.088c-.263.22-.118.924-.081,1.285l1.448.057.037,3.015c2.412.6,1.695,2.646,1.772,4.623-.277.02-.465.061-.651.054M84.182,3.557h4.055a2.916,2.916,0,0,0-5.659-.02,11.685,11.685,0,0,0,1.6.019m4.156,1.384H82.484v2.45h5.854Zm-3.515,3.8a17.32,17.32,0,0,0-2.277.063A3.731,3.731,0,0,0,85.388,11.8a10.081,10.081,0,0,1-.566-3.054m3.51,3.127,0-3.106a19.2,19.2,0,0,0-2.1.011,4.306,4.306,0,0,0,.822,3.012c.281.311.94.143,1.282.083m-2.839,7.753c.112.009.351.061.483-.036.066-.853.008-1.711.016-2.589a2.484,2.484,0,1,1,4.967-.1l.046,6.917a4.052,4.052,0,0,1-1.042,2.767,3.272,3.272,0,0,0,2.509,1.995L92.433,17.4a4.267,4.267,0,0,0-8.489-.4,22.275,22.275,0,0,0-.037,2.609,8.418,8.418,0,0,0,1.586.014m12.737-4.461H96.519v1.723h1.712ZM83.01,28.7l5.116-2.419a2.664,2.664,0,0,0,1.531-2.462L89.617,17a1.133,1.133,0,1,0-2.264,0l.023,6.906-5.582,2.789a11.383,11.383,0,0,0,1.216,2m-8.391-4.2a3.667,3.667,0,0,0,.976-.919l-4.677-5.223H68.339a6.073,6.073,0,0,0,.014,1.363l1.953-.008ZM85.6,23.2c.638.309.424-1.68.379-2.128-.013-.133-.306-.062-.487-.068-.49-.016-.974-.035-1.568-.006v3.089A8.056,8.056,0,0,0,85.6,23.2m-7.13,3.6-1.887-2.115a2.372,2.372,0,0,0-.988.933l1.757,1.909Zm.746,1.228A2.864,2.864,0,0,0,77.331,31.3c.608-.084.977-.5,1.5-.7.933-.355,1.828-.8,2.832-1.282l-1.074-1.971a5.3,5.3,0,0,0-1.379.678m6.256,1.062a14.408,14.408,0,0,0-2.213,1.01l2.262,2.5.527.633a2.209,2.209,0,0,1,.436,2.424,15.368,15.368,0,0,0,5.077,3.426,12.614,12.614,0,0,0,.867-3.732l.038-5.365a4.932,4.932,0,0,1-3.627-2.543Zm-.407,5.055-3.081-3.425a4.051,4.051,0,0,0-1.262.6L84.2,35.2a.7.7,0,0,0,.993-.055.752.752,0,0,0-.131-1m11.158,3.222.04-3.744a21.578,21.578,0,0,0-2.487.011,14.05,14.05,0,0,1-.868,5.712,2.321,2.321,0,0,0,1.735.019,2.073,2.073,0,0,0,1.581-2" transform="translate(-55.212 0)" fill="#050504"/>
            <path id="Trazado_1259343" data-name="Trazado 1259343" d="M234.537,107.516a10.086,10.086,0,0,0,0,1.312,2.027,2.027,0,0,0-.661.071l-.014,8.574c0,1.063-1.609.669-2.442.686l-.017-5.083a3.249,3.249,0,0,0-1.311-.014l0,5.087a2.465,2.465,0,0,1-.886.024l0-13.932,3.913-.032a.715.715,0,0,1,.749.731l.014,2.494a2.263,2.263,0,0,0,.657.082" transform="translate(-189.05 -85.953)" fill="#88e595"/>
            <path id="Trazado_1259344" data-name="Trazado 1259344" d="M186.236,225.084h-4.355l.014-8.018a16.16,16.16,0,0,0,4.356,2.443Z" transform="translate(-150.018 -179.038)" fill="#fae11e"/>
            <path id="Trazado_1259345" data-name="Trazado 1259345" d="M161.893,209.212l-.019,9.424c-.526.02-1.051.011-1.576-.016l-.029-4.34a3.6,3.6,0,0,0-.708-.061,6.463,6.463,0,0,0-.008-1.3,2.9,2.9,0,0,0,.722-.085l.039-3.611a4.306,4.306,0,0,0,1.579-.013" transform="translate(-131.601 -172.561)" fill="#e8c91d"/>
            <path id="Trazado_1259346" data-name="Trazado 1259346" d="M156.617,237.788a3.6,3.6,0,0,1,.708.061l.029,4.34a7.726,7.726,0,0,1-1.371-.033v-4.3a3.31,3.31,0,0,1,.632-.067" transform="translate(-128.657 -196.131)" fill="#0b0b0b"/>
            <path id="Trazado_1259347" data-name="Trazado 1259347" d="M173.1,218.631c-.1,0-.2,0-.3,0l.019-9.424a.319.319,0,0,1,.258.287Z" transform="translate(-142.53 -172.56)" fill="#ceb419"/>
            <path id="Trazado_1259348" data-name="Trazado 1259348" d="M172.775,161.784l-.049-3.511,3.366-1.646a4.933,4.933,0,0,0,3.627,2.543l-.038,5.365a12.615,12.615,0,0,1-.867,3.732,15.372,15.372,0,0,1-5.077-3.426,2.209,2.209,0,0,0-.436-2.424Zm4.63-1.521h-1.36v1.352h1.36Zm0,2.724h-1.36v1.332h1.36Z" transform="translate(-142.467 -129.188)" fill="#fae11e"/>
            <path id="Trazado_1259349" data-name="Trazado 1259349" d="M152.955,103.106a11.368,11.368,0,0,1-1.216-2l5.582-2.79-.023-6.906a1.133,1.133,0,1,1,2.264,0l.04,6.822a2.663,2.663,0,0,1-1.531,2.461Z" transform="translate(-125.156 -74.409)" fill="#f8f8f8"/>
            <path id="Trazado_1259350" data-name="Trazado 1259350" d="M172.662,82.344c-.1-2.3-.16-4.365,1.905-5.96a.537.537,0,0,0,.2-.3,4.191,4.191,0,0,1,4.831,4.038l.04,11.176a3.272,3.272,0,0,1-2.509-1.995,4.052,4.052,0,0,0,1.041-2.767l-.046-6.917a2.484,2.484,0,1,0-4.967.1c-.008.878.051,1.736-.016,2.589-.132.1-.371.045-.483.036" transform="translate(-142.381 -62.718)" fill="#fafafa"/>
            <path id="Trazado_1259351" data-name="Trazado 1259351" d="M221.821,104.164l0,13.932a7.215,7.215,0,0,1-1.571-.028V104.195a5.354,5.354,0,0,1,1.568-.031" transform="translate(-181.668 -85.877)" fill="#52db6f"/>
            <path id="Trazado_1259352" data-name="Trazado 1259352" d="M81.063,110.893l-4.313-4.785-1.953.008a6.073,6.073,0,0,1-.014-1.363h2.579l4.677,5.223a3.664,3.664,0,0,1-.976.919" transform="translate(-61.656 -86.4)" fill="#c7d3d7"/>
            <rect id="Rectángulo_411653" data-name="Rectángulo 411653" width="4.277" height="2.45" transform="translate(28.849 4.941)" fill="#f9c9b2"/>
            <path id="Trazado_1259353" data-name="Trazado 1259353" d="M167.392,76.275a.537.537,0,0,1-.2.3c-2.065,1.595-2.01,3.661-1.905,5.96a8.433,8.433,0,0,1-1.586-.014,22.28,22.28,0,0,1,.037-2.609,4.208,4.208,0,0,1,3.658-3.64" transform="translate(-135.002 -62.913)" fill="#dfe5ea"/>
            <path id="Trazado_1259354" data-name="Trazado 1259354" d="M149.957,178.758a.753.753,0,0,1,.131,1,.7.7,0,0,1-.993.055l-3.48-3.884a4.054,4.054,0,0,1,1.262-.6Z" transform="translate(-120.104 -144.617)" fill="#c7d3d7"/>
            <path id="Trazado_1259355" data-name="Trazado 1259355" d="M165.367,9.86c.03-1.033.751-1.532,1.2-2.218a2.837,2.837,0,0,1,2.859,2.219Z" transform="translate(-136.397 -6.303)" fill="#fae11e"/>
            <path id="Trazado_1259356" data-name="Trazado 1259356" d="M179.15,53.035c-.342.06-1,.228-1.282-.083a4.3,4.3,0,0,1-.822-3.012,19.2,19.2,0,0,1,2.1-.011Z" transform="translate(-146.029 -41.163)" fill="#f9c9b2"/>
            <path id="Trazado_1259357" data-name="Trazado 1259357" d="M134.846,159.346a14.078,14.078,0,0,1,.38-2.575,5.3,5.3,0,0,1,1.379-.678l1.073,1.971c-1,.483-1.9.927-2.832,1.282" transform="translate(-111.223 -128.748)" fill="#f9c9b2"/>
            <path id="Trazado_1259358" data-name="Trazado 1259358" d="M158.3,49.89a10.081,10.081,0,0,0,.566,3.054,3.731,3.731,0,0,1-2.843-2.991,17.35,17.35,0,0,1,2.277-.063" transform="translate(-128.691 -41.145)" fill="#f8f8f8"/>
            <path id="Trazado_1259359" data-name="Trazado 1259359" d="M165.457,119.791c0,.2-.121,2.273.108,2.2a8.053,8.053,0,0,1-1.676.887v-3.089c.593-.028,1.078-.009,1.567.006" transform="translate(-135.178 -98.788)" fill="#e8c91d"/>
            <path id="Trazado_1259360" data-name="Trazado 1259360" d="M162.3,166.025l.049,3.511-2.262-2.5a14.411,14.411,0,0,1,2.213-1.01" transform="translate(-132.045 -136.94)" fill="#e8c91d"/>
            <rect id="Rectángulo_411654" data-name="Rectángulo 411654" width="1.578" height="2.45" transform="translate(27.272 4.941)" fill="#eea27d"/>
            <path id="Trazado_1259361" data-name="Trazado 1259361" d="M119.218,143l-1.118.728-1.757-1.909a2.37,2.37,0,0,1,.988-.933Z" transform="translate(-95.961 -116.204)" fill="#c7d3d7"/>
            <path id="Trazado_1259362" data-name="Trazado 1259362" d="M127.885,159.963a14.078,14.078,0,0,0-.38,2.575c-.528.2-.9.615-1.5.7a2.864,2.864,0,0,1,1.885-3.274" transform="translate(-103.882 -131.94)" fill="#eea27d"/>
            <path id="Trazado_1259363" data-name="Trazado 1259363" d="M159.014,7.643c-.445.686-1.166,1.184-1.2,2.218a11.713,11.713,0,0,1-1.6-.019,2.865,2.865,0,0,1,2.8-2.2" transform="translate(-128.847 -6.304)" fill="#ceb419"/>
            <rect id="Rectángulo_411655" data-name="Rectángulo 411655" width="1.712" height="1.723" transform="translate(41.307 15.164)" fill="#c7d3d7"/>
            <path id="Trazado_1259364" data-name="Trazado 1259364" d="M172.792,122.021c-.228.077-.11-2-.108-2.2.181.006.474-.065.487.068.045.448.259,2.436-.379,2.128" transform="translate(-142.405 -98.822)" fill="#fae11e"/>
            <rect id="Rectángulo_411656" data-name="Rectángulo 411656" width="1.36" height="1.352" transform="translate(33.578 31.075)" fill="#f8f8f8"/>
            <rect id="Rectángulo_411657" data-name="Rectángulo 411657" width="1.36" height="1.332" transform="translate(33.578 33.8)" fill="#fafafa"/>
          </g>
        </g>
      </g>
    </g>
  </g>
</svg>
