<svg xmlns="http://www.w3.org/2000/svg" xmlns:xlink="http://www.w3.org/1999/xlink" width="70" height="70" viewBox="0 0 70 70">
  <defs>
    <clipPath id="clip-path">
      <rect id="Rectángulo_411624" data-name="Rectángulo 411624" width="43.548" height="43.544" fill="none"/>
    </clipPath>
  </defs>
  <g id="_3" data-name="3" transform="translate(-621.835 -3716)">
    <path id="Trazado_1259061" data-name="Trazado 1259061" d="M35,0A35,35,0,1,1,0,35,35,35,0,0,1,35,0Z" transform="translate(621.835 3716)" fill="#ffc94a"/>
    <g id="Grupo_1213225" data-name="Grupo 1213225" transform="translate(635.061 3729.228)">
      <g id="Grupo_1213224" data-name="Grupo 1213224" clip-path="url(#clip-path)">
        <path id="Trazado_1259062" data-name="Trazado 1259062" d="M141.74,175.87a.627.627,0,1,1-.627-.627.627.627,0,0,1,.627.627" transform="translate(-117.257 -146.268)"/>
        <path id="Trazado_1259063" data-name="Trazado 1259063" d="M151.136,151.711a.628.628,0,1,1-.628-.628.628.628,0,0,1,.628.628" transform="translate(-125.098 -126.103)"/>
        <path id="Trazado_1259064" data-name="Trazado 1259064" d="M129.159,142.368a.627.627,0,1,1-.627-.627.627.627,0,0,1,.627.627" transform="translate(-106.756 -118.305)"/>
        <path id="Trazado_1259065" data-name="Trazado 1259065" d="M130.348,160.476a.625.625,0,1,1-.625-.625.625.625,0,0,1,.625.625" transform="translate(-107.753 -133.421)"/>
        <path id="Trazado_1259066" data-name="Trazado 1259066" d="M23.979,2.422A131.471,131.471,0,0,1,37.9,8.585a.706.706,0,0,1,.357.707A63.916,63.916,0,0,1,33.624,21.85a.676.676,0,0,1-.844.317,3.771,3.771,0,0,0-5.389,2.122.671.671,0,0,1-.845.371A131.159,131.159,0,0,1,9.882,17.5a.693.693,0,0,1-.364-.7A64,64,0,0,1,16.233.376a.759.759,0,0,1,.806-.352l4.643,1.555c.227.076.36.566.29.777a.767.767,0,0,1-.714.422L19.395,2.17a100.7,100.7,0,0,0-6.351,15.477A130.993,130.993,0,0,0,26.418,23.27,5.16,5.16,0,0,1,30.055,20.5,100.451,100.451,0,0,0,34.745,8.43c-3.724-1.8-7.4-3.378-11.225-4.825a.671.671,0,0,1-.355-.8.655.655,0,0,1,.814-.387m-12.1,14.631A104.01,104.01,0,0,1,18.158,1.787a2.556,2.556,0,0,0-1.081-.316A62.688,62.688,0,0,0,10.9,16.542a6.622,6.622,0,0,0,.979.511m20.858,3.679A61.931,61.931,0,0,0,36.883,9.538a5.122,5.122,0,0,0-.99-.486,109.692,109.692,0,0,1-4.384,11.383Z" transform="translate(-7.934 0)"/>
        <path id="Trazado_1259067" data-name="Trazado 1259067" d="M76.466,58.767a6.081,6.081,0,0,1-3.494,5.009,5.827,5.827,0,0,1-6.5-.936A5.773,5.773,0,0,1,69.7,57.866a6.147,6.147,0,0,1,6.226.346,3.065,3.065,0,0,1,.543.555m-2.116.089a4.735,4.735,0,0,0-6.306,2.639Zm.446,1.222-6.269,2.612A4.7,4.7,0,0,0,74.8,60.078" transform="translate(-55.479 -47.725)"/>
        <path id="Trazado_1259072" data-name="Trazado 1259072" d="M36.98,191.348a27.265,27.265,0,0,0-3.338-4.276.829.829,0,0,1,.011-.805c.121-.168.658-.29.824-.122a28.67,28.67,0,0,1,4.04,5.181l2.518.036a2.565,2.565,0,0,1-.1,5.129l-38.449,0a2.562,2.562,0,0,1,.024-5.123l2.524-.043a28.479,28.479,0,0,1,6.068-7.072,4.99,4.99,0,0,1,5.162-.539,15.562,15.562,0,0,0,11.012,0,4.983,4.983,0,0,1,5.5.822.774.774,0,0,1-.023.842c-.826.962-1.532-1.825-4.914-.5A17.19,17.19,0,0,1,15.7,184.9a3.607,3.607,0,0,0-4.1.579,27.97,27.97,0,0,0-5.053,5.873Zm4.1,3.879a1.328,1.328,0,0,0,1.193-1.4,1.3,1.3,0,0,0-1.215-1.207H2.492a1.3,1.3,0,0,0,.023,2.6Z" transform="translate(0 -152.946)"/>
      </g>
    </g>
  </g>
</svg>
