<svg xmlns="http://www.w3.org/2000/svg" xmlns:xlink="http://www.w3.org/1999/xlink" width="115.234" height="117.092" viewBox="0 0 115.234 117.092">
  <defs>
    <filter id="Rectángulo_410591" x="0" y="0" width="73" height="117.092" filterUnits="userSpaceOnUse">
      <feOffset dy="3" input="SourceAlpha"/>
      <feGaussianBlur stdDeviation="3" result="blur"/>
      <feFlood flood-opacity="0.161"/>
      <feComposite operator="in" in2="blur"/>
      <feComposite in="SourceGraphic"/>
    </filter>
    <clipPath id="clip-path">
      <rect id="Rectángulo_411660" data-name="Rectángulo 411660" width="94.124" height="98.043" fill="none"/>
    </clipPath>
  </defs>
  <g id="_31" data-name="31" transform="translate(9 6)">
    <g transform="matrix(1, 0, 0, 1, -9, -6)" filter="url(#Rectángulo_410591)">
      <path id="Rectángulo_410591-2" data-name="Rectángulo 410591" d="M10,0H45A10,10,0,0,1,55,10V99.092a0,0,0,0,1,0,0H0a0,0,0,0,1,0,0V10A10,10,0,0,1,10,0Z" transform="translate(9 6)" fill="#ffc94a"/>
    </g>
    <g id="Grupo_1213258" data-name="Grupo 1213258" transform="translate(12.11 5.656)">
      <g id="Grupo_1213257" data-name="Grupo 1213257" clip-path="url(#clip-path)">
        <path id="Trazado_1259396" data-name="Trazado 1259396" d="M47.366,124.752a1.4,1.4,0,0,0-1.465-.663c-.879.094-2.305,2.243-1.63,3.409a1.436,1.436,0,0,0,1.712.525c.563-.182,2.037-2.1,1.383-3.27m9.694.007a1.393,1.393,0,0,0-1.42-.667c-.937.05-2.513,2.426-1.561,3.582a1.5,1.5,0,0,0,1.627.332c.483-.171,2.022-2.026,1.354-3.247m9.724.03a1.468,1.468,0,0,0-1.647-.661c-.649.114-2.092,2.129-1.6,3.17a1.462,1.462,0,0,0,1.712.764c.681-.168,2.176-2.181,1.531-3.273m-14.54,7.682a1.427,1.427,0,0,0-1.5-.715,3.082,3.082,0,0,0-1.755,3.142,1.414,1.414,0,0,0,1.6.861c.779-.075,2.2-2.083,1.654-3.288m9.607-.161a1.463,1.463,0,0,0-1.546-.516c-.735.2-2.2,2.177-1.533,3.328a1.388,1.388,0,0,0,1.547.619c.792-.117,2.311-2.239,1.532-3.431" transform="translate(-31.812 -89.512)" fill="#fdfdfd"/>
        <path id="Trazado_1259397" data-name="Trazado 1259397" d="M116.882,124.832c.646,1.092-.85,3.105-1.531,3.273a1.462,1.462,0,0,1-1.712-.764c-.5-1.042.947-3.057,1.6-3.17a1.468,1.468,0,0,1,1.647.661" transform="translate(-81.909 -89.554)" fill="#0c0c0c"/>
        <path id="Trazado_1259398" data-name="Trazado 1259398" d="M47.366,124.752c.654,1.166-.82,3.089-1.383,3.27a1.436,1.436,0,0,1-1.712-.525c-.676-1.166.75-3.314,1.63-3.409a1.4,1.4,0,0,1,1.465.663" transform="translate(-31.812 -89.512)" fill="#0c0c0c"/>
        <path id="Trazado_1259399" data-name="Trazado 1259399" d="M47.6,144.731a1.479,1.479,0,0,1,1.416,1.437l.012,34.773a1.3,1.3,0,0,0,1.341,1.367L89,182.254c.833,0,3.341.528,3.341-1.337l0-55.884c0-1.906-2.358-1.4-3.322-1.4L50.374,123.6a1.3,1.3,0,0,0-1.343,1.385l-.018,14.494a1.42,1.42,0,0,1-1.407,1.416,1.486,1.486,0,0,1-1.472-1.443l.034-14.742a4.052,4.052,0,0,1,4.19-3.962l40.9.034A4,4,0,0,1,95.165,125l0,55.941a3.982,3.982,0,0,1-3.912,4.171l-40.895.034c-2.663,0-4.294-2.089-4.269-4.644l-41.407-.026a3.268,3.268,0,0,1-3.2-3.219c-.057-1.358-.049-2.6,0-3.927.165-4.08,4.813-3.038,7.418-3.261a10.221,10.221,0,0,1,7.833-6.795,1.912,1.912,0,0,0,.016-1.557,8.545,8.545,0,0,1-8.942-7.776,28.322,28.322,0,0,1-.016-3.612,2.423,2.423,0,0,1,2.974-2.244,10.836,10.836,0,0,1,7.535,5.028c1.752-3.119,7.516-6.62,9.947-4.259.735.714.473,1.608.6,2.56.72,5.586-3.235,10.418-8.869,10.33-.365.01-.39,1.268-.073,1.537a10.216,10.216,0,0,1,7.8,6.8l9.353.024a10.1,10.1,0,0,1,9.06-6.928l0-16.746a1.591,1.591,0,0,1,1.483-1.7M16.862,158.819a7.645,7.645,0,0,0-6.133-7.8,8.151,8.151,0,0,0-.018,3.06,5.666,5.666,0,0,0,6.151,4.74m9.1-6.648c-.042-.376.113-1.032-.182-1.107a7.6,7.6,0,0,0-6.022,7.77,5.783,5.783,0,0,0,6.2-6.663m-.764,19.4a7.2,7.2,0,0,0-6.048-5.386,6.674,6.674,0,0,0-7.226,4.228c-1.407,3.55-4.879,2.336-7.528,2.769l-.006,4.366,41.714.029-.038-11.5a6.823,6.823,0,0,0-5.922,4.228,4.029,4.029,0,0,1-3.8,2.734l-7.463.028a5.207,5.207,0,0,1-3.684-1.5" transform="translate(-1.041 -87.107)" fill="#030303"/>
        <path id="Trazado_1259400" data-name="Trazado 1259400" d="M71.058,289.254c-4.052.387-2.863-2.021-6.048-5.386a7.2,7.2,0,0,1,6.048,5.386" transform="translate(-46.9 -204.79)" fill="#db9571"/>
        <path id="Trazado_1259401" data-name="Trazado 1259401" d="M26.784,283.588c3.185,3.364,2,5.773,6.048,5.386a5.206,5.206,0,0,0,3.685,1.5l7.463-.028a4.03,4.03,0,0,0,3.8-2.734A6.822,6.822,0,0,1,53.7,283.48l.038,11.5-41.714-.03.006-4.366c2.649-.433,6.121.781,7.528-2.769a6.674,6.674,0,0,1,7.226-4.228" transform="translate(-8.674 -204.51)" fill="#e4aa89"/>
        <path id="Trazado_1259402" data-name="Trazado 1259402" d="M73.378,230.7a5.783,5.783,0,0,1-6.2,6.663,7.6,7.6,0,0,1,6.022-7.77c.294.075.14.731.182,1.107" transform="translate(-48.456 -165.631)" fill="#4cb922"/>
        <path id="Trazado_1259403" data-name="Trazado 1259403" d="M40.511,237.227a5.665,5.665,0,0,1-6.151-4.74,8.152,8.152,0,0,1,.018-3.06,7.645,7.645,0,0,1,6.133,7.8" transform="translate(-24.69 -165.515)" fill="#65c442"/>
        <path id="Trazado_1259404" data-name="Trazado 1259404" d="M99.422,152.169c.779,1.192-.74,3.314-1.532,3.431a1.388,1.388,0,0,1-1.547-.619c-.666-1.151.8-3.131,1.533-3.328a1.463,1.463,0,0,1,1.546.516" transform="translate(-69.382 -109.37)" fill="#0c0c0c"/>
        <path id="Trazado_1259405" data-name="Trazado 1259405" d="M64.732,152.321c.542,1.205-.874,3.213-1.654,3.288a1.413,1.413,0,0,1-1.6-.861,3.082,3.082,0,0,1,1.755-3.142,1.427,1.427,0,0,1,1.5.715" transform="translate(-44.299 -109.362)" fill="#09090a"/>
        <path id="Trazado_1259406" data-name="Trazado 1259406" d="M34.677,10.348c8,6.882,2.789,13.224,3.292,14.276.311.651,3.027.457,3.67.3a2.671,2.671,0,0,0,2.519,1.6l5.066.052a6.107,6.107,0,0,1,.007,8.1L14.1,34.7a4.016,4.016,0,0,1-3.814-4.28,4.181,4.181,0,0,1,4.337-3.9l3.65,0A2.036,2.036,0,0,0,20,25.672c1.2-1.823-1.109-2.75.618-5.215,1.691-2.412,4.324-.41,4.911-3.01.62-2.745,1.6-2.716.708-4.516.213-1.29,1.777-1.7,2.477-2.713a1.791,1.791,0,0,0,2.26.623,7.6,7.6,0,0,1,3.7-.492" transform="translate(-7.418 -7.371)" fill="#f0f9fd"/>
        <path id="Trazado_1259407" data-name="Trazado 1259407" d="M18.824,5.559c.893,1.8-.088,1.771-.708,4.516-.588,2.6-3.22.6-4.911,3.01-1.727,2.465.579,3.392-.618,5.215a2.035,2.035,0,0,1-1.729.841l-3.65,0a4.181,4.181,0,0,0-4.337,3.9,4.016,4.016,0,0,0,3.814,4.279l35.127-.014c1.729,0,3.345.046,4.476-1.556a4.261,4.261,0,0,0,.1-4.845c-1.073-1.614-2.769-1.683-4.58-1.7l-5.067-.052a2.672,2.672,0,0,1-2.518-1.6c-.591-1.542,3.252-5.344-.143-10.663a8.354,8.354,0,0,0-6.819-3.912,7.6,7.6,0,0,0-3.7.492,1.791,1.791,0,0,1-2.26-.623c-.008-.9.1-1.676,1.162-2.072A11.686,11.686,0,0,1,37.467,16.166c1.95.169,3.612.063,5.436.072A7.031,7.031,0,1,1,42.864,30.3L6.975,30.282A6.979,6.979,0,0,1,.021,22.7a7.074,7.074,0,0,1,7.77-6.455A4.905,4.905,0,0,0,9.778,16.1a6.328,6.328,0,0,1,5.633-7.32c.5-1.162.894-3.2,2.049-3.425a2.663,2.663,0,0,1,1.363.209" transform="translate(0 0)" fill="#09090a"/>
        <path id="Trazado_1259408" data-name="Trazado 1259408" d="M104.815,25.263c-.643.157-3.36.351-3.67-.3-.5-1.052,4.706-7.394-3.292-14.276a8.355,8.355,0,0,1,6.819,3.912c3.395,5.319-.449,9.121.143,10.663" transform="translate(-70.594 -7.71)" fill="#dbf1f8"/>
        <path id="Trazado_1259409" data-name="Trazado 1259409" d="M150.08,77.057a6.107,6.107,0,0,0-.007-8.1c1.811.019,3.508.088,4.58,1.7a4.26,4.26,0,0,1-.1,4.844c-1.13,1.6-2.746,1.556-4.476,1.556" transform="translate(-108.267 -49.745)" fill="#dbf1f8"/>
        <path id="Trazado_1259410" data-name="Trazado 1259410" d="M227.917,34.269A9.865,9.865,0,0,0,209.2,34.1a1.442,1.442,0,1,1-2.724-.916,12.718,12.718,0,0,1,24.144.226,1.421,1.421,0,0,1-2.708.855" transform="translate(-148.893 -17.735)" fill="#080808"/>
        <path id="Trazado_1259411" data-name="Trazado 1259411" d="M236.238,51.219c-2.624,1.14-1.8-4.7-7.423-4.583a5.815,5.815,0,0,0-5.256,3.827,1.422,1.422,0,0,1-2.647-1.039,8.5,8.5,0,0,1,7.892-5.646c6.081-.106,9.848,6.392,7.434,7.44" transform="translate(-159.308 -31.582)" fill="#060606"/>
        <path id="Trazado_1259412" data-name="Trazado 1259412" d="M243.26,71.782a4.21,4.21,0,1,1-4.21-4.21,4.21,4.21,0,0,1,4.21,4.21m-2.9-.009a1.32,1.32,0,1,0-1.32,1.32,1.321,1.321,0,0,0,1.32-1.32" transform="translate(-169.42 -48.748)" fill="#060606"/>
        <path id="Trazado_1259413" data-name="Trazado 1259413" d="M247.832,79.232a1.32,1.32,0,1,1-1.32-1.32,1.32,1.32,0,0,1,1.32,1.32" transform="translate(-176.888 -56.208)" fill="#65c442"/>
        <path id="Trazado_1259414" data-name="Trazado 1259414" d="M82.154,124.79c.668,1.221-.871,3.076-1.354,3.247a1.5,1.5,0,0,1-1.627-.332c-.951-1.156.625-3.532,1.561-3.582a1.393,1.393,0,0,1,1.42.667" transform="translate(-56.905 -89.543)" fill="#09090a"/>
        <path id="Trazado_1259415" data-name="Trazado 1259415" d="M208.568,131.021c.5,1.858-.19,3.855-.19,5.583a2.827,2.827,0,0,0-2.836-2.134l-10.043-.008c-4.488,0-1.686,5.178-5.379,5.012-3.455-.155-.784-5.033-5.184-5.014l-10.329.046a2.561,2.561,0,0,0-2.55,2.633l-.013,46.169a2.708,2.708,0,0,0,2.859,2.9l31.189-.04c.924,0,2.287-1.154,2.287-2.014.6-.118.217,5.024.167,5.49l-38.627.055a1.305,1.305,0,0,1-1.341-1.367l-.012-34.773a1.479,1.479,0,0,0-1.416-1.437l0-3.84a1.42,1.42,0,0,0,1.407-1.416l.018-14.494a1.3,1.3,0,0,1,1.343-1.385Z" transform="translate(-120.587 -94.495)" fill="#65c442"/>
        <path id="Trazado_1259416" data-name="Trazado 1259416" d="M221.048,145.609v47.548c0,.859-1.363,2.012-2.287,2.014l-31.19.04a2.708,2.708,0,0,1-2.859-2.9l.013-46.169a2.56,2.56,0,0,1,2.55-2.633l10.329-.046c4.4-.02,1.729,4.859,5.184,5.014,3.694.166.891-5.015,5.38-5.012l10.043.008a2.827,2.827,0,0,1,2.836,2.134m-2.875.738-10.131.027a5.146,5.146,0,0,1-5.272,4.973,5.243,5.243,0,0,1-5.072-5.014l-10.16.032-.005,45.989,30.653-.009Z" transform="translate(-133.258 -103.5)" fill="#020202"/>
        <path id="Trazado_1259417" data-name="Trazado 1259417" d="M315.313,189.58c.05-.467.428-5.608-.167-5.49V136.543c0-1.728.686-3.726.19-5.583.964,0,3.322-.507,3.322,1.4l0,55.884c0,1.865-2.508,1.336-3.341,1.337" transform="translate(-227.354 -94.434)" fill="#4eb725"/>
        <path id="Trazado_1259418" data-name="Trazado 1259418" d="M225.474,153.772l.012,46-30.652.009,0-45.989,10.16-.032a5.244,5.244,0,0,0,5.072,5.015,5.146,5.146,0,0,0,5.272-4.973Zm-6.522,29.07a1.38,1.38,0,0,0,1.258-1.564,1.483,1.483,0,0,0-1.412-1.286l-15.754-.052L203,166.64a1.415,1.415,0,0,0-2.829-.024l-.013,14.77a1.415,1.415,0,0,0,1.409,1.476Zm-11.407-5.661,3.2-3.4,2.594,1.647a1.5,1.5,0,0,0,1.789-.262l5.344-6.56A1.43,1.43,0,1,0,218.1,167l-4.252,5.144c-1.539-.345-2.994-2.939-4.588-1.145l-3.641,4.1a1.481,1.481,0,0,0-.091,1.919,1.415,1.415,0,0,0,2.012.16" transform="translate(-140.559 -110.925)" fill="#eff8fc"/>
        <path id="Trazado_1259419" data-name="Trazado 1259419" d="M232.729,212.566l-17.389.02a1.415,1.415,0,0,1-1.409-1.476l.013-14.77a1.415,1.415,0,0,1,2.829.025l.048,13.3,15.754.052A1.483,1.483,0,0,1,233.987,211a1.38,1.38,0,0,1-1.258,1.564" transform="translate(-154.336 -140.65)" fill="#030303"/>
        <path id="Trazado_1259420" data-name="Trazado 1259420" d="M234.451,209.858a1.414,1.414,0,0,1-2.012-.16,1.481,1.481,0,0,1,.091-1.919l3.641-4.1c1.594-1.795,3.049.8,4.588,1.145l4.252-5.144a1.43,1.43,0,1,1,2.368,1.6l-5.344,6.56a1.5,1.5,0,0,1-1.789.262l-2.594-1.647Z" transform="translate(-167.465 -143.603)" fill="#070707"/>
      </g>
    </g>
  </g>
</svg>
