<svg xmlns="http://www.w3.org/2000/svg" xmlns:xlink="http://www.w3.org/1999/xlink" width="129.063" height="85.692" viewBox="0 0 129.063 85.692">
  <defs>
    <clipPath id="clip-path">
      <rect id="Rect치ngulo_411663" data-name="Rect치ngulo 411663" width="75.237" height="85.692" fill="none"/>
    </clipPath>
  </defs>
  <g id="_35" data-name="35" transform="translate(0 -9.803)">
    <g id="Rect치ngulo_410589" data-name="Rect치ngulo 410589" transform="translate(0 35.344)" fill="#5a8441" stroke="#3e5b2c" stroke-width="1">
      <rect width="129.063" height="43.021" rx="8" stroke="none"/>
      <rect x="0.5" y="0.5" width="128.063" height="42.021" rx="7.5" fill="none"/>
    </g>
    <g id="Grupo_1213264" data-name="Grupo 1213264" transform="translate(26.912 9.803)">
      <g id="Grupo_1213263" data-name="Grupo 1213263" clip-path="url(#clip-path)">
        <path id="Trazado_1259468" data-name="Trazado 1259468" d="M102.554,167.358l-3.324.006c-.205-2.315-5.87-.649-7.1-.283a2.332,2.332,0,0,0-.145-.812l-4.6-12.208a1.905,1.905,0,0,1-.234-1.082,35.27,35.27,0,0,1,4.979-2.153,12.259,12.259,0,0,1,4.337-.559l8.993.025a2.371,2.371,0,0,1,2.339,2.259,2.473,2.473,0,0,1-2.248,2.48l-8.636,1.3a1.262,1.262,0,0,0-1.087,1.57,1.333,1.333,0,0,0,1.626.877l8.865-1.346a4.89,4.89,0,0,0,3.978-4.239l12.784-10.574a2.693,2.693,0,0,1,3.737.152,2.88,2.88,0,0,1,.074,3.693l-16.118,17.37c-1.73,1.864-4.34,2.385-6.741,2.339a1.313,1.313,0,0,0-1.479,1.185" transform="translate(-58.79 -95.758)" fill="#eda278"/>
        <path id="Trazado_1259469" data-name="Trazado 1259469" d="M124.054,150.486c.519-1.621,2.439-2.757,2.954-3.792a9.735,9.735,0,0,1,11.433,3.247l-3.775,3.083a4.9,4.9,0,0,0-4.284-2.478Z" transform="translate(-83.691 -98.49)" fill="#b75818"/>
        <path id="Trazado_1259470" data-name="Trazado 1259470" d="M82.787,175.865a1.907,1.907,0,0,0,.234,1.082l4.6,12.208a2.333,2.333,0,0,1,.145.812c-.527.157-.935.865-1.808.739l-5.287-14c.663-.644,1.54-.525,2.113-.843" transform="translate(-54.425 -118.644)" fill="#e39269"/>
        <path id="Trazado_1259471" data-name="Trazado 1259471" d="M27.667,198.435l-13.79,4.986L7.462,186.41l13.72-5.17Z" transform="translate(-5.034 -122.271)" fill="#71bbf3"/>
        <path id="Trazado_1259472" data-name="Trazado 1259472" d="M67.755,190.613A28.164,28.164,0,0,0,63.2,192.17L56.719,175l4.5-1.7Z" transform="translate(-38.264 -116.915)" fill="#e0dfdd"/>
        <path id="Trazado_1259473" data-name="Trazado 1259473" d="M40.966,234.086l.732,1.942-13.72,5.17-.8-2.127Z" transform="translate(-18.334 -157.922)" fill="#4a95cf"/>
        <path id="Trazado_1259474" data-name="Trazado 1259474" d="M81.189,226.507l.693,1.837-4.5,1.7-.747-1.978a28.165,28.165,0,0,1,4.557-1.557" transform="translate(-51.698 -152.809)" fill="#cac9c8"/>
        <path id="Trazado_1259475" data-name="Trazado 1259475" d="M122.933,148.15c-.515,1.034-2.435,2.17-2.954,3.792-.773-.007-1.342.212-1.965-.12a8.637,8.637,0,0,1,4.919-3.672" transform="translate(-79.616 -99.947)" fill="#9a460c"/>
        <path id="Trazado_1259476" data-name="Trazado 1259476" d="M57.162,10.178a1.653,1.653,0,0,1-1.536-1.136,9.269,9.269,0,1,0,.021,5.488,1.331,1.331,0,0,1,1.509-1.006,1.244,1.244,0,0,1,.954,1.551A11.87,11.87,0,0,1,48.043,23.56l.182,10.245a15.985,15.985,0,0,1,12.918-8.623A30.558,30.558,0,0,1,73.7,26.8a1.851,1.851,0,0,1,1.536,1.8c-.018,2.5-2.935.885-5.961,5.431C64.651,40.978,57.43,44.961,49.64,40.1a4.825,4.825,0,0,0-1.469,4.95A12.487,12.487,0,0,1,56.707,49.8l6.218-5.033a5.055,5.055,0,0,1,5.92-.325,5.138,5.138,0,0,1,2.317,5.192,6.418,6.418,0,0,1-1.671,3.377L53.641,69.962c-2.4,2.567-9.76,4.458-9.878,1.638a1.313,1.313,0,0,1,1.479-1.185c2.4.045,5.011-.475,6.741-2.339L68.1,50.706a2.88,2.88,0,0,0-.074-3.693,2.693,2.693,0,0,0-3.737-.152L51.508,57.435a4.89,4.89,0,0,1-3.978,4.238L38.664,63.02a1.334,1.334,0,0,1-1.626-.877,1.263,1.263,0,0,1,1.088-1.57l8.636-1.3a2.472,2.472,0,0,0,2.248-2.48,2.372,2.372,0,0,0-2.338-2.259l-8.993-.025a12.266,12.266,0,0,0-4.337.559,35.274,35.274,0,0,0-4.979,2.153c-.572.318-1.449.2-2.113.843l5.287,14c.873.126,1.282-.581,1.808-.739,1.226-.366,6.891-2.032,7.1.283a1.532,1.532,0,0,1-1.783,1.343,11.36,11.36,0,0,0-6.16,1.7,2.643,2.643,0,0,1-1.8,3.368L10.765,85.506a2.737,2.737,0,0,1-3.578-1.673l-7-18.561A2.7,2.7,0,0,1,1.743,61.73L21.888,54.12a2.673,2.673,0,0,1,3.468,1.456l6.668-2.724a12.121,12.121,0,0,1,3.376-.781,12.552,12.552,0,0,1,10.062-7.052c-.009-2.262.1-4.344-.035-6.556a4.153,4.153,0,0,0-1.388-2.357c-7.274,4.5-14.056.523-18.216-5.737-2.7-4.059-5.411-2.713-5.541-4.969a1.715,1.715,0,0,1,1.12-1.69c9-3.086,18.568-2.9,23.971,6.105l.088-6.245A11.82,11.82,0,1,1,58.149,8.76c.19.719-.589,1.157-.987,1.417M25.72,26.27c3.185,3.509,4.134,6.616,8.812,8.549a8.33,8.33,0,0,0,7.893-.72,26.072,26.072,0,0,0-11.04-5.683,1.264,1.264,0,0,1-1.122-1.283,1.151,1.151,0,0,1,1.3-1.212,30.762,30.762,0,0,1,11.4,5.171c-3.43-7.084-12.084-7.681-18.48-5.649a2.091,2.091,0,0,0,1.232.827m31.708,2.457a11.681,11.681,0,0,0-6.852,6.365,19.955,19.955,0,0,0,3.43-2.244,38.054,38.054,0,0,1,8.9-3.477,1.271,1.271,0,0,1,1.5.754,1.242,1.242,0,0,1-.96,1.682c-3.935,1.126-7.92,2.59-10.969,5.441-.312.292-.968.35-1.112.915a6.058,6.058,0,0,0,2.154,1c5.374,2.081,10.478-1.787,13.439-6.237a13.99,13.99,0,0,1,4.21-4.191c-4.132-1.347-9.948-1.741-13.748-.008M43.317,48.2A8.639,8.639,0,0,0,38.4,51.876c.622.332,1.192.112,1.965.119l6.329.06a4.9,4.9,0,0,1,4.284,2.478l3.775-3.083A9.735,9.735,0,0,0,43.317,48.2M25.68,77.233l4.5-1.7L22.958,56.387l-4.5,1.7ZM9.644,83.276l13.72-5.17L16.148,58.97,2.428,64.14Z" transform="translate(0 0)" fill="#050504"/>
        <path id="Trazado_1259477" data-name="Trazado 1259477" d="M162.352,96.332c-.255-.7-.912-1.162-1.042-1.917,3.049-2.851,7.033-4.315,10.969-5.44a1.242,1.242,0,0,0,.96-1.682,1.271,1.271,0,0,0-1.5-.754,38.044,38.044,0,0,0-8.9,3.477c-1.222-.1,3.649-3.97,3.422-4.12,3.8-1.733,9.616-1.339,13.747.008a13.985,13.985,0,0,0-4.21,4.191c-2.961,4.451-8.065,8.318-13.439,6.237" transform="translate(-108.825 -57.168)" fill="#73a728"/>
        <path id="Trazado_1259478" data-name="Trazado 1259478" d="M162.3,88.292c.227.15-4.645,4.02-3.423,4.12a19.934,19.934,0,0,1-3.43,2.244,11.68,11.68,0,0,1,6.853-6.365" transform="translate(-104.867 -59.565)" fill="#68961a"/>
        <path id="Trazado_1259479" data-name="Trazado 1259479" d="M159,114.476c.13.754.787,1.22,1.042,1.917a6.059,6.059,0,0,1-2.154-1c.143-.565.8-.623,1.112-.915" transform="translate(-106.52 -77.229)" fill="#68961a"/>
        <path id="Trazado_1259480" data-name="Trazado 1259480" d="M139.024,15.415a14.548,14.548,0,0,1-.007,3.346,1.331,1.331,0,0,0-1.51,1.006,9.266,9.266,0,0,1-11.582,6.15,11.31,11.31,0,0,1-4.582-9.02,11.124,11.124,0,0,1,4.782-8.779,9.247,9.247,0,0,1,11.361,6.161,1.653,1.653,0,0,0,1.536,1.136m-10.938,8.061c.347.217.54.936,1.013.692.215-.112.282-.706.459-.887,1.851-.529,3.265-1.811,3.259-3.809-.006-1.89-1.22-3.239-3.278-3.8a11.518,11.518,0,0,1-.041-3.147,2.189,2.189,0,0,1,1.32.347c.708.311,1.339.179,1.566-.506a1.189,1.189,0,0,0-.708-1.492c-.637-.334-1.5-.156-2.052-.614-.346-.287-.43-.787-.948-.677-.312.066-.419.591-.587.844-1.377.366-2.743,1-3.16,2.3-.437,1.368-.334,3.005.951,3.7l2.188,1.176c.415,1,.049,2.275.134,3.408-1.276.278-2.472-1.924-3.416-.893a1.423,1.423,0,0,0-.158,1.529c.665,1.375,2.352,1.142,3.457,1.831" transform="translate(-81.861 -5.237)" fill="#f9dc80"/>
        <path id="Trazado_1259481" data-name="Trazado 1259481" d="M121.886,8.855a11.121,11.121,0,0,0-4.782,8.779,11.31,11.31,0,0,0,4.582,9.02,9.251,9.251,0,0,1,.2-17.8" transform="translate(-77.622 -5.974)" fill="#f7c362"/>
        <path id="Trazado_1259482" data-name="Trazado 1259482" d="M134.588,27.216c-1.1-.689-2.792-.456-3.457-1.831a1.423,1.423,0,0,1,.158-1.529c.945-1.031,2.141,1.17,3.416.893-.085-1.132.281-2.4-.134-3.408l-2.188-1.176c-1.285-.691-1.388-2.328-.951-3.7.417-1.308,1.784-1.938,3.161-2.3.167-.253.274-.777.586-.844.517-.11.6.39.948.677.553.459,1.414.28,2.052.614a1.19,1.19,0,0,1,.708,1.492c-.228.685-.858.817-1.567.506a2.186,2.186,0,0,0-1.32-.347,11.52,11.52,0,0,0,.041,3.147c2.058.561,3.272,1.91,3.278,3.8.007,2-1.408,3.28-3.259,3.809-.178.181-.244.775-.459.887-.472.245-.665-.475-1.013-.691m.161-10.932c-.961.117-1.387.729-1.312,1.314a1.306,1.306,0,0,0,1.356,1.119,9.407,9.407,0,0,0-.044-2.433m1.143,8.493a1.359,1.359,0,0,0,1.193-1.559,1.419,1.419,0,0,0-1.217-1.318,11.159,11.159,0,0,0,.024,2.876" transform="translate(-88.364 -8.978)" fill="#090805"/>
        <path id="Trazado_1259483" data-name="Trazado 1259483" d="M145.857,42.594a11.16,11.16,0,0,1-.024-2.876,1.419,1.419,0,0,1,1.217,1.318,1.359,1.359,0,0,1-1.193,1.559" transform="translate(-98.329 -26.795)" fill="#f9dc80"/>
        <path id="Trazado_1259484" data-name="Trazado 1259484" d="M139.824,22.456a9.409,9.409,0,0,1,.044,2.433,1.306,1.306,0,0,1-1.356-1.119c-.075-.585.351-1.2,1.312-1.314" transform="translate(-93.439 -15.15)" fill="#f9dc80"/>
        <path id="Trazado_1259485" data-name="Trazado 1259485" d="M85.307,85.464c0-.374-.293-.643-.626-.9-3.4-2.642-4.992-7.54-8.186-7.647a2.092,2.092,0,0,1-1.232-.827c6.4-2.033,15.051-1.435,18.48,5.649a30.76,30.76,0,0,0-11.4-5.171,1.151,1.151,0,0,0-1.3,1.212,1.264,1.264,0,0,0,1.122,1.283A26.074,26.074,0,0,1,93.2,84.744a8.329,8.329,0,0,1-7.893.721" transform="translate(-50.775 -50.646)" fill="#73a728"/>
        <path id="Trazado_1259486" data-name="Trazado 1259486" d="M87.862,89.288c-4.678-1.933-5.626-5.04-8.812-8.549,3.193.107,4.786,5.006,8.186,7.647.333.258.624.528.626.9" transform="translate(-53.33 -54.469)" fill="#68961a"/>
      </g>
    </g>
  </g>
</svg>
