<svg xmlns="http://www.w3.org/2000/svg" xmlns:xlink="http://www.w3.org/1999/xlink" width="70" height="70" viewBox="0 0 70 70">
  <defs>
    <clipPath id="clip-path">
      <rect id="Rectángulo_411630" data-name="Rectángulo 411630" width="39.087" height="38.692" fill="none"/>
    </clipPath>
  </defs>
  <g id="_4" data-name="4" transform="translate(-1041.835 -3716)">
    <circle id="Elipse_12373" data-name="Elipse 12373" cx="35" cy="35" r="35" transform="translate(1041.835 3716)" fill="#ffc94a"/>
    <g id="Grupo_1213233" data-name="Grupo 1213233" transform="translate(1057.291 3731.654)">
      <g id="Grupo_1213232" data-name="Grupo 1213232" clip-path="url(#clip-path)">
        <path id="Trazado_1259134" data-name="Trazado 1259134" d="M67.857,75.493a2.938,2.938,0,1,1-2.938-2.945,2.942,2.942,0,0,1,2.938,2.945m-.977,0a1.962,1.962,0,1,0-1.962,1.967,1.965,1.965,0,0,0,1.962-1.967" transform="translate(-51.949 -60.807)"/>
        <path id="Trazado_1259135" data-name="Trazado 1259135" d="M180.966,66.374l-1.3,0c-.143,0-.355-.274-.377-.4-.13-.75,1.39-.549,1.7-.448s.224.628-.017.851" transform="translate(-150.264 -54.832)"/>
        <path id="Trazado_1259136" data-name="Trazado 1259136" d="M165.359,65.622c.173.058.249.523.135.637a1.377,1.377,0,0,1-1.394.1c-.161-.08-.13-.65.032-.724a1.968,1.968,0,0,1,1.227-.01" transform="translate(-137.453 -54.924)"/>
        <path id="Trazado_1259137" data-name="Trazado 1259137" d="M163.339,91.127a2.157,2.157,0,1,1-2.157-2.162,2.159,2.159,0,0,1,2.157,2.162m-.981,0a1.179,1.179,0,1,0-1.179,1.182,1.18,1.18,0,0,0,1.179-1.182" transform="translate(-133.288 -74.567)"/>
        <path id="Trazado_1259140" data-name="Trazado 1259140" d="M30.718,20.067l7.834.006a.583.583,0,0,1,.535.5V38.15a.536.536,0,0,1-.549.541H.55A.541.541,0,0,1,0,38.152V20.691a.561.561,0,0,1,.536-.614l9-.017a6.626,6.626,0,0,1-2.878-4.777,6.368,6.368,0,0,1,2.11-5.349l-.7-.951a.6.6,0,0,1,.12-.773,7.987,7.987,0,0,1,4.544-1.593l.328-3.667a1.527,1.527,0,0,1-1.807-1.309A1.465,1.465,0,0,1,12.64.007L23.049,0A1.462,1.462,0,0,1,24.53,1.2a1.505,1.505,0,0,1-1.095,1.735l2.847,5.437L28.12,8.4l0-2.541a1.513,1.513,0,0,1,1.5-1.583.642.642,0,0,1,.49.446c.1.8-1.049.2-1.041,1.259L29.089,8.4h1.858a2.673,2.673,0,0,1,2.74,2.582l.037,5.57A2.264,2.264,0,0,1,31.7,18.9ZM12.215,1.974H23.594V.994H12.215ZM16.181,7.2,16.074,2.95l-2.046.019-.295,3.617Zm5.632,1.88,1.17-1.623a.548.548,0,0,1,.7-.09c.532.5-.324.937-.069,1.125l.961.707a4.7,4.7,0,0,0,.539-.987L22.333,2.95l-5.289.006.1,4.824a8.243,8.243,0,0,1,2.9,3.056l3.5.008a1.578,1.578,0,0,0,.491-.8L23.01,9.263c-.291-.023-.439.791-1.022.535a.591.591,0,0,1-.175-.717m3.262,10.99-.992-1.183-4.639-.041c-.355,0-.385-.6-.265-.8a6.344,6.344,0,0,0,.854-3.44A7.1,7.1,0,0,0,16.5,8.524a6.942,6.942,0,0,0-7.315.185.909.909,0,0,0,.437.59,6.3,6.3,0,0,1,8.683,2,6.383,6.383,0,0,1-1.942,8.763Zm7.17-2.465a1,1,0,0,0,.494-.927l-.01-5.595a1.729,1.729,0,0,0-1.676-1.711l-5.4-.019-1.472,2.438-3.7.013a8.4,8.4,0,0,1-.073,6.075l3.219,0a4.478,4.478,0,0,1,1.621-4.9,4.421,4.421,0,0,1,5.14-.1,4.554,4.554,0,0,1,1.852,4.73M14.391,18.868c.128-.1.532-.108.59.012l.3.615a4.774,4.774,0,0,0,2.509-2.6c-.335-.152-.581-.282-.627-.437s.06-.542.215-.586a1.852,1.852,0,0,1,.762.074,4.843,4.843,0,0,0-.313-3.486,4.465,4.465,0,0,1-.817.091c-.168-.008-.334-.5-.219-.611l.464-.432a5.157,5.157,0,0,0-3.716-2.149,1.886,1.886,0,0,1-.294.705c-.105.1-.522.09-.587-.039a4.87,4.87,0,0,1-.224-.659A5.011,5.011,0,0,0,9.287,10.8a4.036,4.036,0,0,1,.373.6c.063.146-.207.507-.365.52a1.4,1.4,0,0,1-.678-.3,4.756,4.756,0,0,0-.979,3.359,2.049,2.049,0,0,1,.793.133.6.6,0,0,1,0,.7,2.957,2.957,0,0,1-.632.228,4.857,4.857,0,0,0,2.061,2.972,2.934,2.934,0,0,1,.457-.58c.105-.083.5.042.565.159a1.188,1.188,0,0,1-.157.96,5.045,5.045,0,0,0,3.616.315c-.12-.358-.236-.766.047-.992m16.976-2.309a3.473,3.473,0,1,0-3.473,3.482,3.477,3.477,0,0,0,3.473-3.482m6.73,4.495H.989V23.1H38.1ZM6.78,24.1l-5.8-.044.025,6.23ZM3.3,37.649,11.42,24.1l-3.25-.03L1,31.759.986,37.691Zm12,.026,1.937-13.6-1.863.006L12.618,31.7a.635.635,0,0,1-.616.285.6.6,0,0,1-.306-.6l2.639-7.3a12.531,12.531,0,0,0-1.784.018L4.418,37.677l4.843.022,1.625-4.211a.616.616,0,0,1,.58-.385c.172.026.363.323.4.536L10.324,37.67Zm6.765.009L20.456,24.056l-2.235.019L16.275,37.7Zm13.129-.04L26.714,24.068h-1.85l1.548,4.381c.058.164-.344.533-.5.488a.854.854,0,0,1-.461-.343L23.808,24.05l-2.364.025L23.04,37.7l6.029-.033-2.583-6.472a.575.575,0,0,1,.276-.661.56.56,0,0,1,.646.352L30.142,37.7Zm2.889-6.79-6.659-6.8-3.55.027,8.491,13.6,1.74.011Zm.008-6.808-5.272.026,5.241,5.37Z" transform="translate(0 0)"/>
      </g>
    </g>
  </g>
</svg>
