<svg xmlns="http://www.w3.org/2000/svg" xmlns:xlink="http://www.w3.org/1999/xlink" width="127.051" height="208.471" viewBox="0 0 127.051 208.471">
  <defs>
    <clipPath id="clip-path">
      <rect id="Rectángulo_411668" data-name="Rectángulo 411668" width="93.6" height="109.489" fill="none"/>
    </clipPath>
  </defs>
  <g id="_43" data-name="43" transform="translate(-180 -9695.041)">
    <g id="Grupo_1212784" data-name="Grupo 1212784" transform="translate(-420 7713.041)">
      <rect id="Rectángulo_410781" data-name="Rectángulo 410781" width="127" height="166.066" rx="8" transform="translate(600.051 1982)" fill="#bccdb2"/>
    </g>
    <g id="Grupo_1212785" data-name="Grupo 1212785" transform="translate(180 9830.054)">
      <rect id="Rectángulo_410781-2" data-name="Rectángulo 410781" width="127" height="86.458" rx="8" transform="translate(0 -13)" fill="#5a8441"/>
    </g>
    <g id="Grupo_1213270" data-name="Grupo 1213270" transform="translate(196.75 9744.281)">
      <g id="Grupo_1213269" data-name="Grupo 1213269" clip-path="url(#clip-path)">
        <path id="Trazado_1259538" data-name="Trazado 1259538" d="M103.074,13.034a23.246,23.246,0,0,0,2.816,2.149,2.046,2.046,0,0,0,.486,2.676,32.586,32.586,0,0,1,8.16,10.8c-2.541.249-4.684-1.163-6.755-1.706-2.1-3.736-5.359-6.72-8.784-9.523-4.364-3.571-9.28-5.826-14.225-8.164,1.071-.426,2.7-1.546,3.993-1.263,4.3.943,8.036,3.182,11.727,5.358a1.96,1.96,0,0,0,2.583-.33" transform="translate(-49.531 -4.651)" fill="#f8be6b"/>
        <path id="Trazado_1259539" data-name="Trazado 1259539" d="M53.779,11.107C58.725,13.445,63.64,15.7,68,19.271c3.425,2.8,6.684,5.787,8.784,9.523l-1.373-.36a1.883,1.883,0,0,0-1.752.244c-1.518,1.28,1.681,5.233.434,8.683a10.718,10.718,0,0,1-8.823-4.514,1.907,1.907,0,0,0-1.727-.932c-.615.059-1.416.291-1.408,1.371.017,2.428-1.421,5.886-4.4,6.1-2.613.184-4.574-3.2-4.514-5.457.031-1.188-.393-1.765-1.171-1.971A1.879,1.879,0,0,0,50,32.841a10.464,10.464,0,0,1-8.906,4.467c-.941-4.285,1.979-7.158.515-8.607-1.5-1.487-6.428,2.556-9.879,1.814,4.047-9.143,13.529-16.023,22.049-19.408M48.189,23.8a1.721,1.721,0,0,0-1.824-.382c-.561.2-1.982,2.148-1.3,3.425a1.627,1.627,0,0,0,1.908.653c.673-.159,2.261-2.28,1.213-3.7m4.61,3.331c.185-1.315-.227-2.231-1.362-2.353-.993-.107-1.612.634-1.811,1.755-.145.814-.3,1.667.33,2.244a1.623,1.623,0,0,0,1.924.212,2.38,2.38,0,0,0,.92-1.858" transform="translate(-18.54 -6.49)" fill="#fcd194"/>
        <path id="Trazado_1259540" data-name="Trazado 1259540" d="M27.574,72.122a4.538,4.538,0,0,0,1.772,3.54,8.511,8.511,0,0,0,.152,2.969,2.436,2.436,0,0,0,2.644,1.256c3.814-.279,6.8-2.413,9.3-5.262.185,3.46,2.387,7.215,6.007,7.319s6.113-3.868,6.175-7.329c1.3,1.378,2.744,2.576,4.07,3.778a3.008,3.008,0,0,0-.526,2.789c.24.907.731,1.538,1.609,1.516a1.43,1.43,0,0,0,1.528-1.223,9.571,9.571,0,0,0,.064-1.848,4.3,4.3,0,0,1,1.261-.01,3.37,3.37,0,0,0,1.1,1.536,1.583,1.583,0,0,0,1.946-.256c.557-.5.369-1.3.466-1.853,1-.711.654-2.227.641-3.386a4.309,4.309,0,0,0,1.676-3.544c1.739-1.255,7.661,7.863,7.981,9.157-4.218-.917-6.445-2.855-7.514-1.492a1.819,1.819,0,0,0-.227,1.7,17.333,17.333,0,0,1,1.09,9.227c-4.932.275-9.2-2.222-12.095-6.02a1.8,1.8,0,0,0-1.914-.871,1.641,1.641,0,0,0-1.23,1.916c.135,3.111-2.438,7.665-6.044,7.582-3.695-.085-6.039-4.51-5.97-7.583.027-1.216-.463-1.694-1.184-1.914a1.775,1.775,0,0,0-1.933.845c-2.892,3.8-7.144,6.306-12.094,6.058a16.541,16.541,0,0,1,1.017-9.007,1.636,1.636,0,0,0-2.226-2.266,34.183,34.183,0,0,1-10.049,2.911c-2.723.264,4.8-9.8,5.582-10.14a1.865,1.865,0,0,0,2.21.917Z" transform="translate(-8.461 -42.067)" fill="#f8be6b"/>
        <path id="Trazado_1259541" data-name="Trazado 1259541" d="M25.692,114.7l.1,1.914a2.181,2.181,0,0,0,2.3,2.135,15.268,15.268,0,0,0,11.448-5.084c.435-.46.762-.964,1.275-1.162a4.639,4.639,0,0,0,.326.612,10.1,10.1,0,0,0,5.353,7.8l-7.514-.016a1.845,1.845,0,0,0-1.921,1.583l-3.666.009a1.8,1.8,0,0,0-1.854-1.585l-14.969,0c.565-3.961,1.129-7.913,3.121-11.185a16.08,16.08,0,0,0,4.357-1.2c-.191,2.164.026,4.609,1.645,6.189" transform="translate(-9.682 -63.403)" fill="#faa42f"/>
        <path id="Trazado_1259542" data-name="Trazado 1259542" d="M120.432,120.3l1.335-1.872c1.033,1.089,1.618,6.393,1.871,8.038l-24.009.065c2.643-1.565,4.932-4.044,5.01-7.166a4.029,4.029,0,0,1,.647-1.241c3.512,3.512,6.877,6.21,12.428,6.261a2.365,2.365,0,0,0,2.623-2.218c.066-.607-.211-1.44.094-1.867" transform="translate(-58.213 -69.022)" fill="#faa42f"/>
        <path id="Trazado_1259543" data-name="Trazado 1259543" d="M154.482,116.023c-.254-1.645-.838-6.95-1.872-8.038a27.828,27.828,0,0,0-.193-7.735l3,.944a32.117,32.117,0,0,1,4.855,14.849,44.4,44.4,0,0,1-5.794-.019" transform="translate(-89.057 -58.575)" fill="#f48623"/>
        <path id="Trazado_1259544" data-name="Trazado 1259544" d="M149.7,76.123c-.32-1.294-6.242-10.413-7.981-9.157l-.153-3.781,4.857,1.192a42.642,42.642,0,0,1,8.816,12.647c-2.219.6-3.9-.544-5.539-.9" transform="translate(-82.718 -36.919)" fill="#faa42f"/>
        <path id="Trazado_1259545" data-name="Trazado 1259545" d="M128.384,117.534c-.3.427-.028,1.26-.094,1.867a2.365,2.365,0,0,1-2.623,2.218c-5.551-.051-8.916-2.749-12.428-6.261.36-.548.272-1.357.9-1.97,3.536,3.279,8.294,6.12,12.629,4.682Z" transform="translate(-66.165 -66.252)" fill="#f48623"/>
        <path id="Trazado_1259546" data-name="Trazado 1259546" d="M53.637,115.349c-.513.2-.84.7-1.275,1.162A15.267,15.267,0,0,1,40.915,121.6a2.181,2.181,0,0,1-2.3-2.135l-.1-1.914c4.321,1.818,10.829-.825,14.213-4.165a9.71,9.71,0,0,1,.911,1.968" transform="translate(-22.503 -66.248)" fill="#f48623"/>
        <path id="Trazado_1259547" data-name="Trazado 1259547" d="M90.645,120.223c-.078,3.122-2.367,5.6-5.01,7.166l-4.6,0a10.1,10.1,0,0,1-5.353-7.8c1.884,2.357,4.461,5.025,7.777,4.971,3.067-.049,5.2-2.521,7.19-4.337" transform="translate(-44.218 -69.875)" fill="#f48623"/>
        <path id="Trazado_1259548" data-name="Trazado 1259548" d="M86.6,76.648c.013,1.159.362,2.674-.641,3.386a2.149,2.149,0,0,1-.632-.941,1.628,1.628,0,0,0-2.453-.746,1.9,1.9,0,0,0-.426,2.259,4.316,4.316,0,0,0-1.261.01,2.136,2.136,0,0,0-2.676-1.233c-1.326-1.2-2.775-2.4-4.07-3.778-.062,3.461-2.547,7.433-6.176,7.328s-5.821-3.858-6.007-7.318c-2.5,2.848-5.491,4.983-9.3,5.262a2.437,2.437,0,0,1-2.644-1.256,8.511,8.511,0,0,1-.152-2.969,3.819,3.819,0,0,0,1.95.436,13.821,13.821,0,0,0,9.086-3.4c1.433,2.67,3.745,5.538,7.066,5.624,3.233.083,5.834-2.738,7.2-5.607,2.2,1.5,4.34,2.93,7.115,3.239,1.228.137,3,.438,4.028-.3" transform="translate(-29.274 -43.057)" fill="#faa42f"/>
        <path id="Trazado_1259549" data-name="Trazado 1259549" d="M36.252,66.905,31.541,67.92A1.865,1.865,0,0,1,29.331,67c3.119-3.938,2.365-2.48,7.136-3.935Z" transform="translate(-17.138 -36.85)" fill="#faa42f"/>
        <path id="Trazado_1259550" data-name="Trazado 1259550" d="M28.434,103.659a16.076,16.076,0,0,1-4.357,1.2c1.268-3.563,1.455-3.834,4.814-4.656a26.221,26.221,0,0,1-.458,3.453" transform="translate(-14.068 -58.55)" fill="#f48623"/>
        <path id="Trazado_1259551" data-name="Trazado 1259551" d="M66.678,40.956c1.049,1.415-.54,3.536-1.213,3.7A1.627,1.627,0,0,1,63.557,44c-.685-1.276.736-3.222,1.3-3.425a1.722,1.722,0,0,1,1.824.382" transform="translate(-37.03 -23.646)" fill="#050403"/>
        <path id="Trazado_1259552" data-name="Trazado 1259552" d="M77.771,46.333a2.38,2.38,0,0,1-.92,1.858,1.623,1.623,0,0,1-1.924-.212c-.626-.577-.475-1.43-.33-2.244.2-1.12.819-1.862,1.811-1.755,1.135.123,1.548,1.038,1.362,2.353" transform="translate(-43.512 -25.691)" fill="#050403"/>
        <path id="Trazado_1259553" data-name="Trazado 1259553" d="M120.2,88.48a9.6,9.6,0,0,1-.064,1.848,1.431,1.431,0,0,1-1.529,1.224c-.878.022-1.368-.609-1.609-1.516a3.008,3.008,0,0,1,.526-2.789A2.136,2.136,0,0,1,120.2,88.48" transform="translate(-68.287 -50.921)" fill="#050403"/>
        <path id="Trazado_1259554" data-name="Trazado 1259554" d="M131.174,86.189c-.1.553.091,1.356-.466,1.853a1.584,1.584,0,0,1-1.946.256,3.369,3.369,0,0,1-1.1-1.536,1.9,1.9,0,0,1,.426-2.259,1.628,1.628,0,0,1,2.453.746,2.149,2.149,0,0,0,.632.941" transform="translate(-74.487 -49.212)" fill="#050403"/>
        <path id="Trazado_1259555" data-name="Trazado 1259555" d="M53.542,8.383a1.96,1.96,0,0,1-2.583.33C47.268,6.537,43.532,4.3,39.232,3.355c-1.3-.284-2.922.837-3.993,1.262C26.719,8,17.237,14.882,13.19,24.025c3.451.742,8.377-3.3,9.879-1.814,1.464,1.45-1.456,4.322-.515,8.607a10.463,10.463,0,0,0,8.906-4.467,1.879,1.879,0,0,1,2.052-.888c.777.205,1.2.782,1.171,1.97-.059,2.257,1.9,5.642,4.514,5.458,2.981-.21,4.42-3.668,4.4-6.1-.007-1.08.793-1.312,1.408-1.371a1.906,1.906,0,0,1,1.726.932,10.72,10.72,0,0,0,8.823,4.514c1.247-3.45-1.952-7.4-.434-8.683a1.884,1.884,0,0,1,1.751-.244l1.373.36c2.071.542,4.214,1.955,6.755,1.706a32.6,32.6,0,0,0-8.16-10.8,2.046,2.046,0,0,1-.486-2.675c.517-.185,1.467-.693,2.086-.168A38.431,38.431,0,0,1,67.54,21.7a3.957,3.957,0,0,1-.512,4.541A50.177,50.177,0,0,1,75.165,38a3.8,3.8,0,0,1-.417,4.106c-.935,1.208-2.315,1.552-4.125,1.392A38.737,38.737,0,0,1,74.5,57.5a4.023,4.023,0,0,1,3.744,4.385l12.213.2c2.429.039,3.151,2.662,3.145,4.734-.006,2.14-.912,4.571-3.35,4.6l-12.023.121.007,19.553c0,6.391-7.866,3.622-12.185,4.342a15.751,15.751,0,0,1-31.314-.051l-19.869,0-.076,9.712a4.1,4.1,0,0,1-1.27,3.337c-.935.912-2.123.974-3.5,1.059-2.313.141-4.747-1.007-4.782-3.52L5.081,95.337C2.743,95.682,0,94.382,0,91.812V60.895c0-1.963,1.98-3.18,3.695-3.41A38.714,38.714,0,0,1,7.549,43.507c-1.8.162-3.194-.22-4.1-1.386a3.686,3.686,0,0,1-.514-3.932,46.967,46.967,0,0,1,8.2-11.852,4.328,4.328,0,0,1-.3-5.035C16.58,11.025,26.368,4.1,37.37.321A4.792,4.792,0,0,1,40.586.241,50.573,50.573,0,0,1,53.267,6.455c.569.4.22,1.493.275,1.927M12.193,30.152c-.781.338-8.305,10.4-5.582,10.14a34.183,34.183,0,0,0,10.049-2.911,1.859,1.859,0,0,1,1.921.186,1.843,1.843,0,0,1,.3,2.08,16.543,16.543,0,0,0-1.017,9.007c4.951.249,9.2-2.252,12.094-6.057a1.775,1.775,0,0,1,1.933-.845c.721.221,1.212.7,1.184,1.915-.069,3.072,2.275,7.5,5.97,7.583,3.606.083,6.179-4.47,6.044-7.582a1.641,1.641,0,0,1,1.23-1.915,1.8,1.8,0,0,1,1.914.871c2.9,3.8,7.163,6.3,12.095,6.02a17.332,17.332,0,0,0-1.09-9.227,1.819,1.819,0,0,1,.227-1.7c1.069-1.364,3.3.575,7.514,1.492,1.644.358,3.32,1.5,5.539.9a42.64,42.64,0,0,0-8.816-12.647L58.85,26.266,59,30.047a4.31,4.31,0,0,1-1.676,3.544c-1.027.735-2.8.434-4.028.3-2.775-.309-4.911-1.737-7.115-3.239-1.364,2.87-3.965,5.691-7.2,5.607-3.321-.085-5.634-2.953-7.066-5.624a13.826,13.826,0,0,1-9.086,3.4,3.824,3.824,0,0,1-1.95-.437,4.539,4.539,0,0,1-1.772-3.541l.215-3.837c-4.771,1.454-4.017,0-7.136,3.935m-2.184,16.16C8.017,49.584,7.453,53.537,6.888,57.5l14.969,0a1.8,1.8,0,0,1,1.854,1.585c-.1,1.129-.967,1.613-2.183,1.614l-18.076.017a6.84,6.84,0,0,0-.09,3.8L70.3,64.456c1.5,0,2.973.136,4.623.006a7.92,7.92,0,0,0-.094-3.614,19.258,19.258,0,0,0-4.52-.088l-40.962-.084a1.745,1.745,0,0,1-1.965-1.6A1.844,1.844,0,0,1,29.3,57.5l7.514.015,4.6,0,24.009-.066a44.4,44.4,0,0,0,5.794.019,32.12,32.12,0,0,0-4.855-14.848l-3-.944a27.8,27.8,0,0,1,.193,7.735l-1.335,1.872-1.617.537c-4.334,1.438-9.093-1.4-12.629-4.683-.627.614-.54,1.423-.9,1.971a4.061,4.061,0,0,0-.647,1.241c-1.993,1.815-4.123,4.287-7.19,4.337-3.316.054-5.893-2.614-7.777-4.971a4.589,4.589,0,0,1-.326-.612,9.7,9.7,0,0,0-.911-1.968c-3.384,3.34-9.892,5.982-14.213,4.165-1.618-1.58-1.836-4.025-1.645-6.189a26.217,26.217,0,0,0,.458-3.453c-3.359.822-3.547,1.093-4.814,4.656M90.284,65.195H78.217v3.083H90.284ZM3.189,85.17h7.146V67.7H3.189Zm10.372,0H21.5V67.742h-7.94Zm11.068,0H31.89V67.7H24.629ZM35.181,70.851l-.068,14a1.883,1.883,0,0,0,2.459-.133A16.224,16.224,0,0,1,43,79.855l-.032-9.009a16.067,16.067,0,0,0-.028-3.09l-7.726-.03a9,9,0,0,0-.035,3.125m11.23-.017a63.562,63.562,0,0,0-.085,7.629,19.867,19.867,0,0,1,7.055-.146c.1-2.554.056-5,.016-7.474-.016-.948.1-1.9.01-3.077l-7.058-.056a9.51,9.51,0,0,0,.062,3.124m10.292.023-.021,8.449a15.973,15.973,0,0,1,6.6,5.491c.2.3,1.285.584,1.285.235l.026-14.2c0-.947.1-1.887.008-3.054l-7.854-.024a18.373,18.373,0,0,0-.047,3.1m11.1,14.323h7.237V67.7H67.808ZM50.747,106.205a12.48,12.48,0,1,0-11.086-6.13,12.482,12.482,0,0,0,11.086,6.13M34.713,92.08l.786-3.688-32.212,0a7.775,7.775,0,0,0,.162,3.7Zm35.381-.04a32.916,32.916,0,0,0,4.68,0,8.022,8.022,0,0,0,.2-3.606c-1.673-.123-3.108-.011-4.849.017a24.837,24.837,0,0,0-4.768.088L66.114,92a19.366,19.366,0,0,0,3.98.039M8.445,98.831a44.977,44.977,0,0,0,.089,7.084,2.744,2.744,0,0,0,2.9,0,54.83,54.83,0,0,0,.087-7.085,22.777,22.777,0,0,0-.01-3.383,18.7,18.7,0,0,0-3.043-.015,15.4,15.4,0,0,0-.02,3.394" transform="translate(0 0)" fill="#050403"/>
        <path id="Trazado_1259556" data-name="Trazado 1259556" d="M31.789,142.117a1.744,1.744,0,0,0,1.965,1.6l40.962.084a12.3,12.3,0,0,0-.009,3.7l-66.933.06a6.843,6.843,0,0,1,.09-3.8l18.076-.017c1.216,0,2.085-.486,2.183-1.614Z" transform="translate(-4.411 -83.038)" fill="#eabfb9"/>
        <path id="Trazado_1259557" data-name="Trazado 1259557" d="M39.133,216.319l-31.264.012a7.769,7.769,0,0,1-.161-3.7l32.211,0Z" transform="translate(-4.42 -124.238)" fill="#e5bab5"/>
        <path id="Trazado_1259558" data-name="Trazado 1259558" d="M40.562,170.25V184.59h-7.94V170.233c2.657-.1,5.268-.12,7.94.018" transform="translate(-19.061 -99.42)" fill="#7f625d"/>
        <path id="Trazado_1259559" data-name="Trazado 1259559" d="M14.817,170.267V184.6H7.671V170.276a65.966,65.966,0,0,1,7.146-.009" transform="translate(-4.482 -99.433)" fill="#d5a49c"/>
        <path id="Trazado_1259560" data-name="Trazado 1259560" d="M66.507,170.278V184.6H59.246V170.278a61.681,61.681,0,0,1,7.261,0" transform="translate(-34.617 -99.43)" fill="#d5a49c"/>
        <path id="Trazado_1259561" data-name="Trazado 1259561" d="M165.41,180.333l.076-14.271a5.427,5.427,0,0,0-2.37-.062v-3.149h7.237v17.482Z" transform="translate(-95.308 -95.153)" fill="#ab827f"/>
        <path id="Trazado_1259562" data-name="Trazado 1259562" d="M92.325,170.258l.032,9.01a16.218,16.218,0,0,0-5.43,4.865,1.882,1.882,0,0,1-2.459.133l.068-14a63.407,63.407,0,0,1,7.789-.006" transform="translate(-49.354 -99.413)" fill="#7f625d"/>
        <path id="Trazado_1259563" data-name="Trazado 1259563" d="M144.267,170.247l-.026,14.2c0,.348-1.084.065-1.285-.235a15.975,15.975,0,0,0-6.6-5.491l.021-8.449a65.259,65.259,0,0,1,7.892-.021" transform="translate(-79.671 -99.411)" fill="#7f625d"/>
        <path id="Trazado_1259564" data-name="Trazado 1259564" d="M118.41,170.274c.04,2.473.085,4.92-.016,7.474a19.877,19.877,0,0,0-7.055.146,63.657,63.657,0,0,1,.085-7.629,63.472,63.472,0,0,1,6.986.009" transform="translate(-65.013 -99.431)" fill="#d5a49c"/>
        <rect id="Rectángulo_411667" data-name="Rectángulo 411667" width="12.067" height="3.083" transform="translate(78.217 65.195)" fill="#683126"/>
        <path id="Trazado_1259565" data-name="Trazado 1259565" d="M165.41,184.613h-2.294V170.28a5.427,5.427,0,0,1,2.37.062Z" transform="translate(-95.308 -99.433)" fill="#d5a49c"/>
        <path id="Trazado_1259566" data-name="Trazado 1259566" d="M144.232,166.073a65.265,65.265,0,0,0-7.892.021,18.287,18.287,0,0,1,.047-3.1l7.854.024c.09,1.167-.007,2.107-.008,3.054" transform="translate(-79.636 -95.237)" fill="#674f4b"/>
        <path id="Trazado_1259567" data-name="Trazado 1259567" d="M40.562,166.046c-2.672-.138-5.282-.115-7.94-.018v-3.071h7.94Z" transform="translate(-19.061 -95.215)" fill="#674f4b"/>
        <path id="Trazado_1259568" data-name="Trazado 1259568" d="M92.248,166.037a63.41,63.41,0,0,0-7.789.006,9,9,0,0,1,.035-3.125l7.726.03a16.03,16.03,0,0,1,.028,3.089" transform="translate(-49.277 -95.192)" fill="#674f4b"/>
        <path id="Trazado_1259569" data-name="Trazado 1259569" d="M118.4,166.013a63.472,63.472,0,0,0-6.986-.009,9.507,9.507,0,0,1-.062-3.123l7.059.056c.091,1.177-.026,2.128-.011,3.077" transform="translate(-65.004 -95.171)" fill="#a57e7b"/>
        <path id="Trazado_1259570" data-name="Trazado 1259570" d="M23.251,237.655a54.754,54.754,0,0,1-.087,7.085,2.744,2.744,0,0,1-2.9,0,45.027,45.027,0,0,1-.089-7.084,17.32,17.32,0,0,1,3.073,0" transform="translate(-11.733 -138.82)" fill="#a57e7b"/>
        <path id="Trazado_1259571" data-name="Trazado 1259571" d="M14.817,165.988A65.966,65.966,0,0,0,7.671,166v-3.146h7.146Z" transform="translate(-4.482 -95.153)" fill="#ab827f"/>
        <path id="Trazado_1259572" data-name="Trazado 1259572" d="M66.507,166a61.681,61.681,0,0,0-7.261,0v-3.15h7.261Z" transform="translate(-34.617 -95.153)" fill="#ab827f"/>
        <path id="Trazado_1259573" data-name="Trazado 1259573" d="M168.912,149.721a12.277,12.277,0,0,1,.009-3.7,19.169,19.169,0,0,1,4.52.088,7.92,7.92,0,0,1,.094,3.614c-1.65.129-3.127-.008-4.622-.007" transform="translate(-98.616 -85.265)" fill="#a57e7b"/>
        <path id="Trazado_1259574" data-name="Trazado 1259574" d="M168.615,216.255a18.9,18.9,0,0,0,.032-3.592c1.741-.028,3.176-.141,4.849-.017a8.016,8.016,0,0,1-.2,3.606,32.913,32.913,0,0,1-4.68,0" transform="translate(-98.521 -124.215)" fill="#d5a49c"/>
        <path id="Trazado_1259575" data-name="Trazado 1259575" d="M161.991,212.654a18.825,18.825,0,0,1-.033,3.592,19.363,19.363,0,0,1-3.98-.039l-.756-3.465a24.8,24.8,0,0,1,4.768-.088" transform="translate(-91.865 -124.206)" fill="#eabfb9"/>
        <path id="Trazado_1259576" data-name="Trazado 1259576" d="M23.265,232.9a17.32,17.32,0,0,0-3.073,0,15.4,15.4,0,0,1,.02-3.393,18.608,18.608,0,0,1,3.043.015,22.771,22.771,0,0,1,.01,3.382" transform="translate(-11.747 -134.066)" fill="#674f4b"/>
        <path id="Trazado_1259577" data-name="Trazado 1259577" d="M104.025,195.459c1.241,1.129,2.941,1.633,3.819,3.053a10.51,10.51,0,0,0-12.063,3,10.165,10.165,0,0,0-.258,12.5,10.388,10.388,0,0,0,12.324,3.322c-.856,1.494-2.952,2.113-3.793,3.068a12.479,12.479,0,1,1-.029-24.95" transform="translate(-53.308 -114.204)" fill="#683126"/>
        <path id="Trazado_1259578" data-name="Trazado 1259578" d="M122.034,220.415c.84-.954,2.937-1.574,3.792-3.068,1.762-.7,7.514-5.4,4.276-7.447a11.334,11.334,0,0,0-.008-3.848c3.376-1.487-2.155-6.8-4.271-7.535-.878-1.42-2.578-1.923-3.819-3.053a12.479,12.479,0,0,1,.029,24.95" transform="translate(-71.287 -114.209)" fill="#51221c"/>
        <path id="Trazado_1259579" data-name="Trazado 1259579" d="M111.028,201.752c2.116.733,7.647,6.048,4.271,7.535a1.716,1.716,0,0,1-2-.973,7.029,7.029,0,1,0-.1,5.92,2,2,0,0,1,2.108-1.1c3.237,2.044-2.515,6.742-4.276,7.447a10.389,10.389,0,0,1-12.324-3.322,10.165,10.165,0,0,1,.258-12.5,10.511,10.511,0,0,1,12.063-3" transform="translate(-56.491 -117.444)" fill="#030202"/>
        <path id="Trazado_1259580" data-name="Trazado 1259580" d="M119.823,213.736a11.334,11.334,0,0,1,.008,3.848,2,2,0,0,0-2.108,1.1,7,7,0,1,1,.1-5.92,1.715,1.715,0,0,0,2,.973m-3.717,1.889a4.681,4.681,0,1,0-4.681,4.679,4.68,4.68,0,0,0,4.681-4.679" transform="translate(-61.015 -121.894)" fill="#a57e7b"/>
        <path id="Trazado_1259581" data-name="Trazado 1259581" d="M119.365,218.9a4.681,4.681,0,1,1-4.681-4.679,4.68,4.68,0,0,1,4.681,4.679m-3.209,0a1.462,1.462,0,1,0-1.462,1.461,1.461,1.461,0,0,0,1.462-1.461" transform="translate(-64.274 -125.169)" fill="#050403"/>
        <path id="Trazado_1259582" data-name="Trazado 1259582" d="M120.694,223.428a1.462,1.462,0,1,1-1.462-1.461,1.461,1.461,0,0,1,1.462,1.461" transform="translate(-68.813 -129.695)" fill="#fefefe"/>
      </g>
    </g>
  </g>
</svg>
