<svg xmlns="http://www.w3.org/2000/svg" xmlns:xlink="http://www.w3.org/1999/xlink" width="70" height="70" viewBox="0 0 70 70">
  <defs>
    <clipPath id="clip-path">
      <rect id="Rectángulo_411625" data-name="Rectángulo 411625" width="44.327" height="44.467" fill="none"/>
    </clipPath>
  </defs>
  <g id="_5" data-name="5" transform="translate(-620.835 -3827)">
    <circle id="Elipse_12372" data-name="Elipse 12372" cx="35" cy="35" r="35" transform="translate(620.835 3827)" fill="#ffc94a"/>
    <g id="Grupo_1213227" data-name="Grupo 1213227" transform="translate(633.671 3839.767)">
      <g id="Grupo_1213226" data-name="Grupo 1213226" clip-path="url(#clip-path)">
        <path id="Trazado_1259073" data-name="Trazado 1259073" d="M37.157,70.211a6.627,6.627,0,0,0,5.453,6.164c4.256.8,8.262-1.195,8.915-5.645.067-.459.329-.791.715-.789.559,0,.77.4.7.921a8.006,8.006,0,0,1-6.769,6.943c-4.713.736-9.105-1.347-10.233-6.317a8.027,8.027,0,0,1-6.775.026,6.426,6.426,0,0,1-3.538-5.144c-.589-5.786,4.22-8.578,6.239-13.911a.84.84,0,0,1,.574-.428,1.162,1.162,0,0,1,.669.35c1.175,3.415,3.9,5.963,5.446,9.154l3.083-4.508a18.981,18.981,0,0,0,2.052-3.967.8.8,0,0,1,.634-.571.762.762,0,0,1,.757.579,19.645,19.645,0,0,0,2.09,4.05A.767.767,0,0,1,47,58.1a.748.748,0,0,1-1.01-.2c-.57-.918-1.078-1.8-1.618-2.781-1.737,3.415-3.953,5.8-5.794,9.065a10.281,10.281,0,0,0-1.423,6.027m-6.09.477a6.353,6.353,0,0,0,4.637-.709,12.471,12.471,0,0,1,1.928-6.968c-1.279-3.178-3.506-5.353-5.145-8.393-1.434,2.621-3.081,4.456-4.52,7a7.906,7.906,0,0,0-.929,4.731,5,5,0,0,0,4.028,4.341" transform="translate(-21.206 -43.144)"/>
        <path id="Trazado_1259074" data-name="Trazado 1259074" d="M43.669,213.891a5.147,5.147,0,0,0-6.711-.048,6.147,6.147,0,0,1-7.786.024,5.064,5.064,0,0,0-6.511-.123,6.671,6.671,0,0,1-3.959,1.508.758.758,0,0,1-.782-.563c-.24-1.433,1.614-.211,3.809-2a6.458,6.458,0,0,1,8.315.083,4.727,4.727,0,0,0,5.995,0,6.526,6.526,0,0,1,8.463,0,4.766,4.766,0,0,0,6.069-.045.786.786,0,0,1,1.107-.043.772.772,0,0,1-.225,1.163,6.2,6.2,0,0,1-7.783.045" transform="translate(-14.841 -175.131)"/>
        <path id="Trazado_1259075" data-name="Trazado 1259075" d="M67.74,239.181a5,5,0,0,0-6.438.089,6.229,6.229,0,0,1-7.906-.012,4.957,4.957,0,0,0-5.217-.8.762.762,0,0,1-.878-.316.72.72,0,0,1,.351-.989,6.418,6.418,0,0,1,6.693,1.049,4.763,4.763,0,0,0,6.026,0,6.385,6.385,0,0,1,8.274-.079.845.845,0,0,1,.083.863.741.741,0,0,1-.988.192" transform="translate(-39.157 -196.213)"/>
        <path id="Trazado_1259076" data-name="Trazado 1259076" d="M14.235,188.258a5.044,5.044,0,0,0-6.563.028,6.152,6.152,0,0,1-7.475.261.748.748,0,0,1-.009-1,.783.783,0,0,1,.908-.07,4.791,4.791,0,0,0,5.721-.3,6.4,6.4,0,0,1,8.233-.052,5.022,5.022,0,0,0,3.915,1.108.735.735,0,0,1,.749.677c0,1.325-3.521.943-5.481-.648" transform="translate(0 -153.936)"/>
        <path id="Trazado_1259077" data-name="Trazado 1259077" d="M175.379,188.264a6.274,6.274,0,0,1-7.622.116.738.738,0,0,1-.231-.949.747.747,0,0,1,1.011-.214,4.865,4.865,0,0,0,5.947-.044,6.746,6.746,0,0,1,4.421-1.593.756.756,0,0,1,.742.7c.006,1.344-1.532-.129-4.269,1.985" transform="translate(-138.837 -153.878)"/>
        <path id="Trazado_1259078" data-name="Trazado 1259078" d="M145.457,153.437c-.477,3.332-3.655,5.21-4.238,3.971a.746.746,0,0,1,.369-.9c3.04-1.221,1.914-4,3.189-3.965a.728.728,0,0,1,.68.89" transform="translate(-117.062 -126.488)"/>
        <path id="Trazado_1259079" data-name="Trazado 1259079" d="M132.981,119.632a.705.705,0,1,1-1.4-.131l0-4.115a.758.758,0,0,1,.634-.721.767.767,0,0,1,.765.641Z" transform="translate(-109.101 -95.076)"/>
        <path id="Trazado_1259080" data-name="Trazado 1259080" d="M132.408,153.484a.839.839,0,1,1-.839-.839.839.839,0,0,1,.839.839" transform="translate(-108.399 -126.57)"/>
        <path id="Trazado_1259081" data-name="Trazado 1259081" d="M170.916,20.009c-1.145,5.44-6.462,7.693-11.557,6.431a8.244,8.244,0,0,1-6.14-6.409c-.948-4.456.9-7.831,3.306-11.338L159.331,4.6A19.586,19.586,0,0,0,161.447.415a.894.894,0,0,1,.54-.412.84.84,0,0,1,.686.38,19.26,19.26,0,0,0,2.049,4.091l2.9,4.241c2.388,3.49,4.226,6.861,3.292,11.294m-1.379-.262a10.531,10.531,0,0,0-1.167-7.191c-1.974-3.554-4.439-6.2-6.3-9.893-1.85,3.644-4.2,6.189-6.166,9.642a10.618,10.618,0,0,0-1.318,7.4,6.862,6.862,0,0,0,5.038,5.35c4.274,1.115,8.9-.63,9.916-5.3" transform="translate(-126.836 -0.001)"/>
        <path id="Trazado_1259082" data-name="Trazado 1259082" d="M176.756,78.8c-.025.507-.276.844-.684.852a.722.722,0,0,1-.724-.778l-.013-1.017-1.9-.8-.784.759a.741.741,0,0,1-.975.057.755.755,0,0,1-.078-.963l.825-.87a12.288,12.288,0,0,1-.757-1.871l-1.037-.03a.761.761,0,0,1-.794-.582.7.7,0,0,1,.543-.8l1.3-.073a8.181,8.181,0,0,1,.757-1.824l-.829-.908a.769.769,0,0,1,.036-.925.762.762,0,0,1,1.006.008l.8.768a16.457,16.457,0,0,1,1.883-.774l.027-1.066a.774.774,0,0,1,.6-.76.728.728,0,0,1,.784.658l.029,1.156,1.876.784.844-.8a.815.815,0,0,1,.942-.011.867.867,0,0,1,.094.928l-.844.894.768,1.894,1.079.019a.7.7,0,1,1,0,1.4l-1.1.014a7.351,7.351,0,0,1-.772,1.851l.85.923a.776.776,0,0,1-.123.978.766.766,0,0,1-.982-.121l-.766-.732a11,11,0,0,1-1.829.768Zm2.29-5.362a3,3,0,1,0-3,3,3,3,0,0,0,3-3" transform="translate(-140.818 -55.727)"/>
        <path id="Trazado_1259083" data-name="Trazado 1259083" d="M195.579,93.453a1.059,1.059,0,1,1-1.059-1.059,1.059,1.059,0,0,1,1.059,1.059" transform="translate(-160.413 -76.611)"/>
        <path id="Trazado_1259084" data-name="Trazado 1259084" d="M207.421,107.956a.695.695,0,1,1-.695-.694.694.694,0,0,1,.695.694" transform="translate(-170.838 -88.94)"/>
      </g>
    </g>
  </g>
</svg>
