<svg xmlns="http://www.w3.org/2000/svg" xmlns:xlink="http://www.w3.org/1999/xlink" width="70" height="70" viewBox="0 0 70 70">
  <defs>
    <clipPath id="clip-path">
      <rect id="Rectángulo_411627" data-name="Rectángulo 411627" width="41.665" height="45.744" fill="none"/>
    </clipPath>
  </defs>
  <g id="_6" data-name="6" transform="translate(-1040.835 -3827)">
    <circle id="Elipse_12375" data-name="Elipse 12375" cx="35" cy="35" r="35" transform="translate(1040.835 3827)" fill="#ffc94a"/>
    <g id="Grupo_1213231" data-name="Grupo 1213231" transform="translate(1055.002 3839.128)">
      <g id="Grupo_1213230" data-name="Grupo 1213230" clip-path="url(#clip-path)">
        <path id="Trazado_1259124" data-name="Trazado 1259124" d="M38.284,44.893a.67.67,0,0,1-.7.849H4.086a.675.675,0,0,1-.718-.781l.869-3.333c.77-2.955,3.555-3.072,3.868-3.349.189-.168-.172-1.518.479-1.672l3.96-.937c.486-.115.771.482.726,1.1l2.825-.824-.009-2.2c-.688-.479-2.5-1.184-2.187-2.039.1-.27.635-.592.936-.354a9.4,9.4,0,0,0,10.015,1.229,9.183,9.183,0,0,0,5.329-8.044l.024-9.611c-1.053.394-4.413.332-4.642-.654-.144-.621.717-.913.778-1.337a26.7,26.7,0,0,0-14.871,1.11l-.012,9.971c-.006,4.632,2.645,5.637,1.664,6.519-1.188,1.068-2.822-3.724-2.875-4.672a3.241,3.241,0,0,1-3.521-3.634c-2.19-.96-4.361-1.955-5.849-4a4.5,4.5,0,0,1,.23-5.618C3.5,9.7,8.073,8.307,11.665,7.51a11.969,11.969,0,0,1,2.3-5.807A14.631,14.631,0,0,1,27.7,1.72C29.035,3.151,29.658,5.553,30,7.5l1.519.374,2.258-2.241a1.008,1.008,0,0,1,.611-.172c.868.151.935,2.8.878,3.583.735.485,3.736,1.32,3.049,2.378-.576.886-2.191-.731-3.364-1.029a7.013,7.013,0,0,1-3.388,4l0,5.11a3.247,3.247,0,0,1,2.875,1.405c2.121-.687,5.706-2.579,5.891-5.194a3.621,3.621,0,0,0-1.013-2.5.717.717,0,0,1,.138-1.013.782.782,0,0,1,.985.27,4.549,4.549,0,0,1,.235,5.921c-1.526,1.962-3.511,2.848-5.708,3.843a3.29,3.29,0,0,1-3.56,3.644,10.738,10.738,0,0,1-5.825,7.847l-.014,2.219,2.817.841c-.038-.44.167-1.213.663-1.114,1.354.271,2.652.592,4.028.94.663.168.286,1.5.481,1.67.309.275,3.092.388,3.867,3.349ZM28.564,7.252a11.08,11.08,0,0,0-1.634-4.438C22.373.836,19.3.835,14.737,2.814a11.045,11.045,0,0,0-1.631,4.439,49.317,49.317,0,0,1,15.459,0m-.993,6.5a5.362,5.362,0,0,0,4.753-1.574,5.323,5.323,0,0,0,1.519-4.709ZM10.1,19.474l0-5.807a.826.826,0,0,1,.47-.7,27.991,27.991,0,0,1,17-1.125l2.811-2.867A46.97,46.97,0,0,0,11.9,8.829c-3.164.707-7.254,1.933-9.481,4.322a3.553,3.553,0,0,0-1.085,2.554c.147,2.623,3.772,4.472,5.892,5.239a3.276,3.276,0,0,1,2.876-1.47M10.1,20.827a1.853,1.853,0,0,0-2.031,1.964,1.792,1.792,0,0,0,2.037,1.7Zm21.469,3.665a1.8,1.8,0,0,0,2.04-1.822,1.825,1.825,0,0,0-2.037-1.824ZM24.2,36.73c.043-.879.026-1.624.014-2.415a11.34,11.34,0,0,1-6.759,0V36.53a3.377,3.377,0,0,0,6.744.2M9.525,44.415l2.359-.012-.006-7.2-2.361.564ZM32.148,44.4l0-6.664L29.789,37.2l0,7.2Zm-3.722,0L28.42,38.2l-2.9-.871a4.769,4.769,0,0,1-9.362.009l-2.914.862,0,6.214Zm-20.254,0-.008-4.641A2.888,2.888,0,0,0,5.6,41.8l-.689,2.611Zm28.6,0-.606-2.316A2.937,2.937,0,0,0,33.5,39.769v4.638Z" transform="translate(0 0.001)"/>
        <path id="Trazado_1259125" data-name="Trazado 1259125" d="M89.28,135.95a4.175,4.175,0,0,1-3.562-1.761,4.039,4.039,0,0,1-3.247,1.742l-3.275.013a.72.72,0,0,1-.667-.709,3.949,3.949,0,0,1,3.89-3.945h6.6a3.949,3.949,0,0,1,3.889,3.946.7.7,0,0,1-.666.7Zm-7.115-1.337a2.675,2.675,0,0,0,2.775-1.982l-2.615.017a2.5,2.5,0,0,0-2.338,1.928Zm9.289-.038a2.6,2.6,0,0,0-2.342-1.955l-2.615.026c.81,2.43,2.838,1.925,4.957,1.929" transform="translate(-64.884 -108.476)"/>
        <path id="Trazado_1259126" data-name="Trazado 1259126" d="M89.351,102.939a.782.782,0,0,1-.575.806.7.7,0,0,1-.79-.647l0-2.342a.749.749,0,0,1,.669-.651.735.735,0,0,1,.685.633Z" transform="translate(-72.695 -82.71)"/>
        <path id="Trazado_1259127" data-name="Trazado 1259127" d="M145.353,103.047a.75.75,0,0,1-.673.7.736.736,0,0,1-.684-.638l0-2.387a.741.741,0,0,1,.687-.634.752.752,0,0,1,.669.652Z" transform="translate(-118.973 -82.701)"/>
      </g>
    </g>
  </g>
</svg>
