<svg xmlns="http://www.w3.org/2000/svg" xmlns:xlink="http://www.w3.org/1999/xlink" width="70" height="70" viewBox="0 0 70 70">
  <defs>
    <clipPath id="clip-path">
      <rect id="Rectángulo_411626" data-name="Rectángulo 411626" width="43.422" height="40.862" fill="none"/>
    </clipPath>
  </defs>
  <g id="_7" data-name="7" transform="translate(-621.835 -3938)">
    <path id="Trazado_1256080" data-name="Trazado 1256080" d="M35,0A35,35,0,1,1,0,35,35,35,0,0,1,35,0Z" transform="translate(621.835 3938)" fill="#ffc94a"/>
    <g id="Grupo_1213229" data-name="Grupo 1213229" transform="translate(635.124 3952.569)">
      <g id="Grupo_1213228" data-name="Grupo 1213228" clip-path="url(#clip-path)">
        <path id="Trazado_1259085" data-name="Trazado 1259085" d="M155.685,34.006a.689.689,0,0,0-.243-.887.72.72,0,0,0-.865.245l-2.611,4.565a1.588,1.588,0,0,0,.176,1.424,1.491,1.491,0,0,0,1.219.608l10.965,0a1.509,1.509,0,0,0,1.362-.694,1.526,1.526,0,0,0,.021-1.545l-5.55-9.629a1.481,1.481,0,0,0-2.556.032l-1.51,2.609a.735.735,0,0,0,.144.857.681.681,0,0,0,.934-.169c.564-.975,1.027-1.86,1.755-2.889l5.833,10.117-11.71.037Zm3.847,0,0-1.242a.686.686,0,0,0-.672-.664.732.732,0,0,0-.612.658l.008,1.292a.659.659,0,0,0,.719.64.712.712,0,0,0,.559-.684m-.012,2.69a.628.628,0,1,0-.628.629.629.629,0,0,0,.628-.629m-2.443,11.88a.627.627,0,1,0-.627.628.627.627,0,0,0,.627-.628m3.947,1.318a.627.627,0,1,0-.627.628.627.627,0,0,0,.627-.628" transform="translate(-126.835 -22.868)" fill="#fff"/>
        <path id="Trazado_1259088" data-name="Trazado 1259088" d="M43.42,39.745a1.065,1.065,0,0,1-1.133,1.117H8.162a.676.676,0,0,1-.686-.6c-.025-.242.234-.651.509-.658l1.964-.05L8.209,36.9H4.847L2.219,39.555,5.21,39.6a.722.722,0,0,1,.571.552.692.692,0,0,1-.591.709l-4.087,0A1.071,1.071,0,0,1,0,39.807L0,20.931A1.094,1.094,0,0,1,1.115,19.78l9.07,0,.005-11.2a3.272,3.272,0,0,0-6.536-.287L4.675,9.315a4.482,4.482,0,0,1-.01,6.389l-.931.924a1.04,1.04,0,0,1-1.438.015L1.3,15.652A4.455,4.455,0,0,1,1.3,9.365L2.364,8.288a4.618,4.618,0,0,1,2.78-3.971A4.682,4.682,0,0,1,10.2,5.3,4.619,4.619,0,0,1,14.62,0a4.544,4.544,0,0,1,4.631,4.979,1.42,1.42,0,0,0,.606,1.353,4.524,4.524,0,0,1,.767,6.442,14.922,14.922,0,0,1-1.365,1.392,1.1,1.1,0,0,1-1.253-.005c-.457-.437-.847-.811-1.245-1.256a4.486,4.486,0,0,1,.654-6.556,1.626,1.626,0,0,0,.623-1.5,3.386,3.386,0,0,0-2.959-3.566c-1.576-.181-3.544,1-3.55,2.845l-.049,15.648h19.34a.656.656,0,0,1,.628.7.7.7,0,0,1-.72.589L28.6,21.1l-2.24,3.394L27.516,27.9,32.2,30.243l3.45-2.3,1.162-3.454-2.228-3.366-.677-.044c-.4-.026-.7-.235-.728-.585-.03-.441.263-.716.742-.716l8.386,0a1.094,1.094,0,0,1,1.112,1.151ZM19.3,7.606l-.04,2.327a.621.621,0,1,1-1.242,0L17.986,7.6a3.113,3.113,0,0,0-.433,4.268A9.91,9.91,0,0,0,18.648,13l.837-.847A3.123,3.123,0,0,0,19.3,7.606M3.687,10.187l-.049,2.329a.691.691,0,0,1-.62.633.706.706,0,0,1-.645-.616l-.039-2.378a3.174,3.174,0,0,0-.015,4.729l.694.668c.34-.332.668-.64.975-1a3.086,3.086,0,0,0-.3-4.36M6.908,27.68l2.251-3.41-1.089-3.2-6.8.008,0,3.029,3.573,3.581Zm9.219-3.928,1.715-2.669-8.4-.009.887,2.7Zm10.1,4.319-1.142-3.363-3.634-3.634L19.4,21.09l-2.253,3.4L18.294,27.9l4.691,2.344Zm.832-6.98-3.746.007,2.27,2.269Zm13.682.02-4.637-.025,1.562,2.379Zm-1.725,9.145,3.147-1.062-.024-7.472L38.046,24.78l-1.112,3.405ZM14.8,31.663l2.261-3.43L15.97,25.006H10.213L7.987,28.34l2.227,3.341ZM3.688,28.328,1.277,25.954l.008,4.772ZM8.094,35.6,9.153,32.4,6.892,28.992H4.839L1.543,32.3l3.3,3.314Zm19.9,3.964,3.615-4.829,0-3.372-4.582-2.285L23.5,31.443l-2.328,4.692L24.628,39.6Zm-7.984-3.957,2.161-4.344-4.191-2.1L15.828,32.4,16.9,35.612Zm16.12,1.146L38.186,34.7l.008-3.455-2.069-2.073L32.9,31.311l0,3.3ZM39.48,34.5l2.669.865.009-4.8-2.683.876ZM13.509,39.546l2.229-3.395-1.072-3.212-4.357,0L9.247,36.187,11.538,39.6Zm-9.822-3.3-2.4-2.37.01,4.759ZM42.16,39.581l0-2.857L39,35.673l-2.171,2.178.031,1.734Zm-6.606.007-.016-1.7-3.158-2.08L29.6,39.575Zm-12.824-.037-2.615-2.666-3.353.027-1.744,2.668Z" transform="translate(0 0)"/>
        <path id="Trazado_1259089" data-name="Trazado 1259089" d="M177.158,152.809a.627.627,0,1,1-.627-.628.627.627,0,0,1,.627.628" transform="translate(-146.916 -127.103)"/>
        <path id="Trazado_1259090" data-name="Trazado 1259090" d="M201.113,160.8a.627.627,0,1,1-.627-.628.627.627,0,0,1,.627.628" transform="translate(-166.924 -133.78)"/>
        <path id="Trazado_1259109" data-name="Trazado 1259109" d="M17.293,136.76a.628.628,0,1,1-.628-.63.629.629,0,0,1,.628.63" transform="translate(-13.393 -113.697)"/>
        <path id="Trazado_1259110" data-name="Trazado 1259110" d="M33.289,136.76a.627.627,0,1,1-.627-.628.628.628,0,0,1,.627.628" transform="translate(-26.756 -113.698)"/>
        <path id="Trazado_1259111" data-name="Trazado 1259111" d="M33.283,184.807a.628.628,0,1,1-.628-.629.629.629,0,0,1,.628.629" transform="translate(-26.749 -153.827)"/>
        <path id="Trazado_1259112" data-name="Trazado 1259112" d="M217.5,201.213a.627.627,0,1,1-.627-.628.627.627,0,0,1,.627.628" transform="translate(-180.611 -167.53)"/>
        <path id="Trazado_1259113" data-name="Trazado 1259113" d="M113.228,192.822a.626.626,0,1,1-.626-.627.627.627,0,0,1,.626.627" transform="translate(-93.523 -160.523)"/>
        <path id="Trazado_1259114" data-name="Trazado 1259114" d="M155.684,34.006l-2.636,4.683,11.709-.037-5.833-10.117c-.728,1.029-1.191,1.914-1.755,2.889a.681.681,0,0,1-.934.169.735.735,0,0,1-.144-.857l1.51-2.609a1.481,1.481,0,0,1,2.556-.032l5.55,9.629a1.526,1.526,0,0,1-.021,1.545,1.51,1.51,0,0,1-1.362.694l-10.965,0a1.491,1.491,0,0,1-1.219-.608,1.589,1.589,0,0,1-.176-1.424l2.611-4.565a.72.72,0,0,1,.865-.245.688.688,0,0,1,.243.887" transform="translate(-126.835 -22.868)"/>
        <path id="Trazado_1259115" data-name="Trazado 1259115" d="M191.892,57.909a.712.712,0,0,1-.559.684.659.659,0,0,1-.719-.64l-.008-1.292a.732.732,0,0,1,.611-.658.686.686,0,0,1,.672.664Z" transform="translate(-159.196 -46.773)"/>
        <path id="Trazado_1259116" data-name="Trazado 1259116" d="M191.968,80.71a.628.628,0,1,1-.628-.629.629.629,0,0,1,.628.629" transform="translate(-159.284 -66.884)"/>
      </g>
    </g>
  </g>
</svg>
