<svg xmlns="http://www.w3.org/2000/svg" xmlns:xlink="http://www.w3.org/1999/xlink" width="85" height="115" viewBox="0 0 85 115">
  <defs>
    <clipPath id="clip-path">
      <rect id="Rectángulo_411706" data-name="Rectángulo 411706" width="74.192" height="73.641" fill="none"/>
    </clipPath>
  </defs>
  <g id="Grupo_1213538" data-name="Grupo 1213538" transform="translate(-600 -754.413)">
    <g id="Grupo_1212413" data-name="Grupo 1212413" transform="translate(600.051 754.413)">
      <rect id="Rectángulo_410781" data-name="Rectángulo 410781" width="84.949" height="112.926" rx="8" transform="translate(0)" fill="#bccdb2"/>
    </g>
    <g id="Grupo_1212414" data-name="Grupo 1212414" transform="translate(600 839.062)">
      <rect id="Rectángulo_410781-2" data-name="Rectángulo 410781" width="84.949" height="30.352" rx="8" transform="translate(0)" fill="#5a8441"/>
    </g>
    <g id="Grupo_1213337" data-name="Grupo 1213337" transform="translate(605.43 775.093)">
      <g id="Grupo_1213336" data-name="Grupo 1213336" clip-path="url(#clip-path)">
        <path id="Trazado_1260323" data-name="Trazado 1260323" d="M286.03,90.3l-14.94-.015a1.067,1.067,0,0,1-1.056-1.051,1.131,1.131,0,0,1,1.246-1.111l14.755,0a1.1,1.1,0,0,1,1.232,1.11A1.089,1.089,0,0,1,286.03,90.3" transform="translate(-213.076 -69.534)" fill="#101010"/>
        <path id="Trazado_1260324" data-name="Trazado 1260324" d="M286.026,46.183l-14.764,0a1.083,1.083,0,1,1-.193-2.153l14.95-.02a1.142,1.142,0,0,1,1.225.95c.08.749-.416,1.224-1.219,1.224" transform="translate(-213.062 -34.726)" fill="#040404"/>
        <path id="Trazado_1260325" data-name="Trazado 1260325" d="M278,24.18l-6.76.009A1.115,1.115,0,0,1,270,23.135a1.1,1.1,0,0,1,1.046-1.094l6.944-.013a1.1,1.1,0,0,1,1.117.932A1.053,1.053,0,0,1,278,24.18" transform="translate(-213.049 -17.382)" fill="#040404"/>
        <path id="Trazado_1260326" data-name="Trazado 1260326" d="M321.069,68.241l-5.858.01a1.062,1.062,0,0,1-1.081-1.035,1.126,1.126,0,0,1,1.215-1.12h5.5a1.11,1.11,0,0,1,1.209.932,1.009,1.009,0,0,1-.981,1.215" transform="translate(-247.87 -52.153)" fill="#060606"/>
        <path id="Trazado_1260327" data-name="Trazado 1260327" d="M275.75,68.192l-4.628,0a1.071,1.071,0,0,1-1.1-1.053,1.085,1.085,0,0,1,1.039-1.08c1.559-.062,3.068-.038,4.627-.013a1.1,1.1,0,0,1,1.112.906,1.049,1.049,0,0,1-1.049,1.236" transform="translate(-213.065 -52.097)" fill="#060606"/>
        <path id="Trazado_1260328" data-name="Trazado 1260328" d="M329.676,24.167c-1.973.046-4.482.416-4.519-1.035a1.122,1.122,0,0,1,1.207-1.124h3.177a1.1,1.1,0,0,1,1.214.945,1.046,1.046,0,0,1-1.079,1.215" transform="translate(-256.572 -17.365)" fill="#060505"/>
        <path id="Trazado_1260329" data-name="Trazado 1260329" d="M67.8,269.9a1.122,1.122,0,0,1,1.534-.156,1.07,1.07,0,0,1,.183,1.51,17.292,17.292,0,0,1-24.756-.066,1.094,1.094,0,0,1,.278-1.48,1.143,1.143,0,0,1,1.453.153A15.167,15.167,0,0,0,67.8,269.9" transform="translate(-35.167 -212.659)" fill="#060606"/>
        <path id="Trazado_1260330" data-name="Trazado 1260330" d="M81.387,246.531a1.087,1.087,0,0,1,1.684,1.374,10.321,10.321,0,0,1-14.777.029,1.071,1.071,0,0,1,.111-1.519,1.1,1.1,0,0,1,1.527.091,8.208,8.208,0,0,0,11.454.026" transform="translate(-53.677 -194.227)" fill="#070707"/>
        <path id="Trazado_1260331" data-name="Trazado 1260331" d="M89.326,227.012c2.441,2.13,3.569-1.148,4.931,0a1.117,1.117,0,0,1,.168,1.378,4.531,4.531,0,0,1-6.513.244,1.083,1.083,0,0,1-.174-1.451,1.1,1.1,0,0,1,1.588-.175" transform="translate(-69.071 -178.924)" fill="#070707"/>
        <path id="Trazado_1260332" data-name="Trazado 1260332" d="M246.828,236.669a17.226,17.226,0,0,1,1.814,1.8,1.541,1.541,0,0,0,.354,1.866l3.771,3.781a2.9,2.9,0,0,1,.22,3.818,4.247,4.247,0,0,1-2.979-1.293l-17.691-17.672A4.793,4.793,0,0,1,230.845,226a2.6,2.6,0,0,1,3.791.008L245.4,236.692c.4.4,1.039-.014,1.428-.022" transform="translate(-182.153 -177.684)" fill="#8b7c84"/>
        <path id="Trazado_1260333" data-name="Trazado 1260333" d="M248.511,250.988a2.947,2.947,0,0,1-4.52.272l-18-18.032c-1.228-1.23-1.04-3.481.382-4.182a4.794,4.794,0,0,0,1.471,2.977L245.532,249.7a4.249,4.249,0,0,0,2.979,1.293" transform="translate(-177.678 -180.733)" fill="#796a6f"/>
        <path id="Trazado_1260334" data-name="Trazado 1260334" d="M64.675,58.985c-.389.008-1.025.422-1.428.022L52.483,48.321a2.6,2.6,0,0,0-3.791-.009c-1.422.7-1.61,2.952-.382,4.182l18,18.032a2.948,2.948,0,0,0,4.52-.272,2.9,2.9,0,0,0-.22-3.818l-3.771-3.781a1.541,1.541,0,0,1-.354-1.866c.381-.09,1.066-.451,1.451-.072l4.131,4.076a5.154,5.154,0,1,1-7.3,7.27l-18-18a5.124,5.124,0,0,1-.639-6.341l-9.377-9.393A21.99,21.99,0,1,1,42.11,13.059l3.9-3.729L53.34,9.3a1.109,1.109,0,0,1,1.1.926,1.038,1.038,0,0,1-.974,1.2c-2.159.239-4.46-.247-6.592.183-1.464,1-2.553,2.566-3.9,3.746a22.069,22.069,0,0,1-4.668,21.422l9.355,9.347a5.264,5.264,0,0,1,6.489.741l10.6,10.646c.395.4,0,1.119-.073,1.479M41.81,22A19.814,19.814,0,1,0,22,41.816,19.814,19.814,0,0,0,41.81,22" transform="translate(0 0)" fill="#060505"/>
        <path id="Trazado_1260335" data-name="Trazado 1260335" d="M49.974,30.189A19.814,19.814,0,1,1,30.16,10.375,19.814,19.814,0,0,1,49.974,30.189m-2.468,0A17.346,17.346,0,1,0,30.159,47.536,17.346,17.346,0,0,0,47.506,30.19" transform="translate(-8.164 -8.187)" fill="#f38683"/>
        <path id="Trazado_1260336" data-name="Trazado 1260336" d="M56.734,39.423A17.346,17.346,0,1,1,39.387,22.077,17.346,17.346,0,0,1,56.734,39.423M28.15,29.24a15.166,15.166,0,1,0,16.7-3.966,15.166,15.166,0,0,0-16.7,3.966" transform="translate(-17.392 -17.42)" fill="#070505"/>
        <path id="Trazado_1260337" data-name="Trazado 1260337" d="M61.961,61.73c-.016-.234-.288-.3-.471-.281a16.675,16.675,0,0,1-6.676-.765c-.358-.11-.6-.283-.671-.588a10.83,10.83,0,0,0,9.32-2.487,9.958,9.958,0,0,0,3.283-8.866c-.739-4.429-6.348-10.491-9.519-13.6a1.136,1.136,0,0,0-1.479.048,52.487,52.487,0,0,0-7.067,8.287c-2.442,3.647-3.434,6.66-1.57,10.833a1.711,1.711,0,0,1,.225.756,1.187,1.187,0,0,1-.7-.518,16.339,16.339,0,0,1-1.461-15.975,1.23,1.23,0,0,0,.1-1.18A15.166,15.166,0,1,1,61.961,61.73" transform="translate(-34.515 -25.574)" fill="#eceaec"/>
        <path id="Trazado_1260338" data-name="Trazado 1260338" d="M36.313,56.037a1.229,1.229,0,0,1-.1,1.18,16.338,16.338,0,0,0,1.461,15.975,1.185,1.185,0,0,0,.7.518,12.453,12.453,0,0,0,6.808,5.03c.068.3.314.478.671.588a16.675,16.675,0,0,0,6.676.765c.183-.019.456.047.471.281A15.166,15.166,0,0,1,36.313,56.037" transform="translate(-25.555 -44.217)" fill="#e4e2e2"/>
        <path id="Trazado_1260339" data-name="Trazado 1260339" d="M63.123,69.377a12.454,12.454,0,0,1-6.808-5.03,1.716,1.716,0,0,0-.225-.756c-1.864-4.173-.872-7.186,1.57-10.833a52.486,52.486,0,0,1,7.067-8.287,1.135,1.135,0,0,1,1.479-.048c3.171,3.109,8.78,9.171,9.519,13.6a9.958,9.958,0,0,1-3.283,8.866,10.83,10.83,0,0,1-9.32,2.487m1.249-3.347c-.07-.824.26-2.012-.081-2.821L59.974,59.94a2.217,2.217,0,0,1-.047-1.324c1.114-1.591,3.014,1.19,4.425,1.73-.081-.885.37-2.114-.12-2.839-.666-.985-3.188-1.824-3.282-2.818-.045-.421.281-.746.428-1.1,1.3-.453,1.753.649,2.972,1.1.252-1.258-.46-3.383,1.012-3.529a.988.988,0,0,1,1.172.944l.088,2.595c1.03-.4,2.327-2,3.223-.792,1.147,1.547-2.448,2.523-3.178,3.613a9.99,9.99,0,0,0-.06,2.865l2.876-2.061a1.14,1.14,0,0,1,1.4.081,1.111,1.111,0,0,1,.023,1.511l-4.316,3.3a37.106,37.106,0,0,0,.03,4.036,8.032,8.032,0,0,0,6.975-8.78c-.36-3.178-5.39-9.058-7.755-11.182-.09-.081-.093-.289-.184-.357-.448-.334-7.985,7.96-8.306,11.691A8.1,8.1,0,0,0,64.3,67.26a2.52,2.52,0,0,0,.075-1.23" transform="translate(-43.495 -34.854)" fill="#050604"/>
        <path id="Trazado_1260340" data-name="Trazado 1260340" d="M84.785,65.278c1.088-2.581,2.8-4.113,4.465-6.3,2.364,2.123,7.395,8,7.754,11.182a8.032,8.032,0,0,1-6.975,8.78A37.1,37.1,0,0,1,90,74.9l4.316-3.3a1.111,1.111,0,0,0-.023-1.511,1.14,1.14,0,0,0-1.4-.081l-2.876,2.061a9.99,9.99,0,0,1,.06-2.865c.73-1.091,4.325-2.066,3.178-3.613-.9-1.209-2.194.393-3.223.792l-.088-2.6a.988.988,0,0,0-1.172-.944c-1.473.146-.76,2.271-1.012,3.529-1.219-.454-1.675-1.557-2.972-1.1" transform="translate(-66.901 -46.539)" fill="#a1d754"/>
        <path id="Trazado_1260341" data-name="Trazado 1260341" d="M74.082,57.607c-1.664,2.186-3.377,3.718-4.465,6.3-.147.349-.474.675-.429,1.1-.682-.236-1.726,3.759-1.023,3.927a2.217,2.217,0,0,0,.046,1.324,8.438,8.438,0,0,0,4.4,6.09,2.524,2.524,0,0,1-.075,1.23,8.1,8.1,0,0,1-6.944-8.632C65.913,65.21,73.45,56.917,73.9,57.25c.091.067.094.275.184.357" transform="translate(-51.733 -45.167)" fill="#8ed42e"/>
        <path id="Trazado_1260342" data-name="Trazado 1260342" d="M78.053,94c.095.995,2.617,1.834,3.282,2.818.49.725.039,1.954.12,2.839-1.412-.54-3.312-3.322-4.426-1.73-.7-.169.341-4.163,1.023-3.927" transform="translate(-60.598 -74.163)" fill="#a2d955"/>
        <path id="Trazado_1260343" data-name="Trazado 1260343" d="M82.524,125.022a8.438,8.438,0,0,1-4.4-6.09l4.316,3.269c.341.809.011,2,.081,2.821" transform="translate(-61.647 -93.846)" fill="#a2d955"/>
      </g>
    </g>
  </g>
</svg>
