<svg xmlns="http://www.w3.org/2000/svg" xmlns:xlink="http://www.w3.org/1999/xlink" width="103.154" height="103.154" viewBox="0 0 103.154 103.154">
  <defs>
    <filter id="Trazado_896985" x="0" y="0" width="103.154" height="103.154" filterUnits="userSpaceOnUse">
      <feOffset dy="3" input="SourceAlpha"/>
      <feGaussianBlur stdDeviation="3" result="blur"/>
      <feFlood flood-opacity="0.161"/>
      <feComposite operator="in" in2="blur"/>
      <feComposite in="SourceGraphic"/>
    </filter>
    <clipPath id="clip-path">
      <path id="path9951" d="M0-682.665H68.567V-614.1H0Z" transform="translate(0 682.665)"/>
    </clipPath>
  </defs>
  <g id="Grupo_1213212" data-name="Grupo 1213212" transform="translate(-1036.942 -2678.152)">
    <g id="Grupo_1212283" data-name="Grupo 1212283" transform="translate(1045.942 2684.152)">
      <g id="Grupo_1200070" data-name="Grupo 1200070" transform="translate(0 0)">
        <g id="Grupo_1198726" data-name="Grupo 1198726">
          <g id="Grupo_1198141" data-name="Grupo 1198141">
            <g id="Grupo_1111318" data-name="Grupo 1111318" transform="translate(0 0)">
              <g id="Grupo_1109826" data-name="Grupo 1109826" transform="translate(0)">
                <g id="Grupo_1098742" data-name="Grupo 1098742" transform="translate(0)">
                  <g transform="matrix(1, 0, 0, 1, -9, -6)" filter="url(#Trazado_896985)">
                    <g id="Trazado_896985-2" data-name="Trazado 896985" transform="translate(9 6)" fill="#fff4da" opacity="0.859">
                      <path d="M 42.57690811157227 84.65391540527344 C 36.89634323120117 84.65391540527344 31.38596343994141 83.54148101806641 26.19882965087891 81.34751129150391 C 21.18839645385742 79.22827911376953 16.68847465515137 76.19430541992188 12.82404136657715 72.32987976074219 C 8.95960807800293 68.46544647216797 5.925641536712646 63.96551513671875 3.806408166885376 58.9550895690918 C 1.612430334091187 53.76795959472656 0.4999969899654388 48.2575798034668 0.4999969899654388 42.5770149230957 C 0.4999969899654388 36.89633560180664 1.612430334091187 31.38595771789551 3.806408166885376 26.19882392883301 C 5.925641536712646 21.18840217590332 8.95960807800293 16.68846893310547 12.82404136657715 12.82403564453125 C 16.68847465515137 8.959612846374512 21.18839645385742 5.92563533782959 26.19882965087891 3.806402206420898 C 31.38596343994141 1.612435460090637 36.89634323120117 0.5000021457672119 42.57690811157227 0.5000021457672119 C 48.25747299194336 0.5000021457672119 53.76785278320312 1.612435460090637 58.95498657226562 3.806402206420898 C 63.96541976928711 5.92563533782959 68.46533966064453 8.959612846374512 72.32977294921875 12.82403564453125 C 76.19420623779297 16.68846893310547 79.22817230224609 21.18840217590332 81.34740447998047 26.19882392883301 C 83.54138946533203 31.38595771789551 84.65381622314453 36.89633560180664 84.65381622314453 42.57690048217773 C 84.65381622314453 48.2575798034668 83.54138946533203 53.76795959472656 81.34740447998047 58.9550895690918 C 79.22817230224609 63.96551513671875 76.19420623779297 68.46544647216797 72.32977294921875 72.32987976074219 C 68.46533966064453 76.19430541992188 63.96541976928711 79.22827911376953 58.95498657226562 81.34751129150391 C 53.76785278320312 83.54148101806641 48.25747299194336 84.65391540527344 42.57690811157227 84.65391540527344 Z" stroke="none"/>
                      <path d="M 42.57690811157227 0.9999923706054688 C 36.96361541748047 0.9999923706054688 31.51876831054688 2.099143981933594 26.39360046386719 4.266899108886719 C 21.44276809692383 6.360923767089844 16.99626159667969 9.358909606933594 13.17758941650391 13.17758941650391 C 9.358917236328125 16.99626159667969 6.360931396484375 21.44276809692383 4.26690673828125 26.39360427856445 C 2.099143981933594 31.51876831054688 1 36.96361541748047 1 42.5770149230957 C 1 48.19029998779297 2.099143981933594 53.63515853881836 4.26690673828125 58.76031112670898 C 6.360931396484375 63.71114349365234 9.358917236328125 68.15765380859375 13.17758941650391 71.976318359375 C 16.99626159667969 75.79499053955078 21.44276809692383 78.79298400878906 26.39360046386719 80.88700866699219 C 31.51876831054688 83.05477142333984 36.96361541748047 84.15390777587891 42.57690811157227 84.15390777587891 C 48.19018936157227 84.15390777587891 53.63504791259766 83.05477142333984 58.76021575927734 80.88700866699219 C 63.71103668212891 78.79298400878906 68.15754699707031 75.79499053955078 71.97622680664062 71.976318359375 C 75.79489898681641 68.15765380859375 78.79288482666016 63.71114349365234 80.88690948486328 58.76031112670898 C 83.05467224121094 53.63515853881836 84.15381622314453 48.19029998779297 84.15381622314453 42.57690048217773 C 84.15381622314453 36.96361541748047 83.05467224121094 31.51876831054688 80.88690948486328 26.39360427856445 C 78.79288482666016 21.44276809692383 75.79489898681641 16.99626159667969 71.97622680664062 13.17758941650391 C 68.15754699707031 9.358924865722656 63.71103668212891 6.360923767089844 58.76021575927734 4.266899108886719 C 53.63504791259766 2.099143981933594 48.19018936157227 0.9999923706054688 42.57690811157227 0.9999923706054688 M 42.57690811157227 -7.62939453125e-06 C 66.09148406982422 -7.62939453125e-06 85.15381622314453 19.06233215332031 85.15381622314453 42.57690048217773 L 85.15381622314453 42.5770149230957 C 85.15381622314453 66.09159088134766 66.09148406982422 85.15390777587891 42.57690811157227 85.15390777587891 C 19.06231689453125 85.15390777587891 0 66.09159088134766 0 42.5770149230957 L 0 42.57690048217773 C 0 19.06233215332031 19.06231689453125 -7.62939453125e-06 42.57690811157227 -7.62939453125e-06 Z" stroke="none" fill="#fff"/>
                    </g>
                  </g>
                  <g id="Rectángulo_400907" data-name="Rectángulo 400907" transform="translate(0)" fill="none" stroke="#fff" stroke-width="1">
                    <rect width="85.154" height="85.154" rx="42.577" stroke="none"/>
                    <rect x="0.5" y="0.5" width="84.154" height="84.154" rx="42.077" fill="none"/>
                  </g>
                </g>
              </g>
            </g>
          </g>
        </g>
      </g>
    </g>
    <g id="g9945" transform="translate(1054.235 2692.446)">
      <g id="g9947" transform="translate(0 0)">
        <g id="g9949" clip-path="url(#clip-path)">
          <g id="g9955" transform="translate(27.672 15.719)">
            <path id="path9957" d="M-115.1-56.029a10.335,10.335,0,0,0-2.077-.755.9.9,0,0,1-.652-1.084,3.616,3.616,0,0,0,.074-1.184,3.618,3.618,0,0,0-3.191-3.212,3.605,3.605,0,0,0-4,3.583,3.583,3.583,0,0,0,.1.823.9.9,0,0,1-.655,1.073,10.341,10.341,0,0,0-2.077.755.691.691,0,0,0,.032,1.24,8.941,8.941,0,0,1,4.733,6.995h2.952a8.941,8.941,0,0,1,4.733-6.995.691.691,0,0,0,.032-1.24" transform="translate(127.956 62.285)" fill="#68ca44"/>
          </g>
          <g id="g9959" transform="translate(26.938 28.391)">
            <path id="path9961" d="M-122.73-12.663c-1.912-1.885-10.805-1.885-12.717,0-3.29,3.244,2.372,20.326,6.358,20.326s9.648-17.082,6.358-20.326" transform="translate(136.433 14.076)" fill="#fe9738"/>
          </g>
          <g id="g9963" transform="translate(32.337 28.399)">
            <path id="path9965" d="M-74.374-12.589c-.884-.872-3.261-1.34-5.75-1.406a4.933,4.933,0,0,1,2.268,1c2.883,2.843-1.108,16.311-4.822,19.6a2.9,2.9,0,0,0,1.946,1.128c3.986,0,9.648-17.082,6.358-20.326" transform="translate(82.678 13.995)" fill="#fe7701"/>
          </g>
          <g id="g9967" transform="translate(12.084 32.221)">
            <path id="path9969" d="M-37.213,0a7.277,7.277,0,0,1,4.2,1.357,1.943,1.943,0,0,0,2.209,0A7.278,7.278,0,0,1-26.6,0c2.531,0,4.155,2.052,4.155,4.583,0,4.531-3.67,11.123-8.215,11.123h-2.49c-4.545,0-8.215-6.592-8.215-11.123C-41.368,2.052-39.744,0-37.213,0" transform="translate(41.368)" fill="#fd8087"/>
          </g>
          <g id="g9971" transform="translate(19.736 32.221)">
            <path id="path9973" d="M-63.708,0a7.023,7.023,0,0,0-2.04.3,4.446,4.446,0,0,1,2.58,4.283c0,4.343-3.371,10.576-7.652,11.088a4.739,4.739,0,0,0,.563.035h2.49c4.545,0,8.215-6.592,8.215-11.123C-59.553,2.052-61.177,0-63.708,0" transform="translate(70.821)" fill="#fe646f"/>
          </g>
          <g id="g9975" transform="translate(37.562 32.221)">
            <path id="path9977" d="M-37.213,0a7.277,7.277,0,0,1,4.2,1.357,1.943,1.943,0,0,0,2.209,0A7.278,7.278,0,0,1-26.6,0c2.531,0,4.155,2.052,4.155,4.583,0,4.531-3.67,11.123-8.215,11.123h-2.49c-4.545,0-8.215-6.592-8.215-11.123C-41.368,2.052-39.744,0-37.213,0" transform="translate(41.368)" fill="#fd8087"/>
          </g>
          <g id="g9979" transform="translate(45.215 32.221)">
            <path id="path9981" d="M-63.708,0a7.023,7.023,0,0,0-2.04.3,4.446,4.446,0,0,1,2.58,4.283c0,4.343-3.371,10.576-7.652,11.088a4.739,4.739,0,0,0,.563.035h2.49c4.545,0,8.215-6.592,8.215-11.123C-59.553,2.052-61.177,0-63.708,0" transform="translate(70.821)" fill="#fe646f"/>
          </g>
          <g id="g9983" transform="translate(10.194 39.932)">
            <path id="path9985" d="M0-8.9v8H48.178v-8a.994.994,0,0,0-.994-.994H.994A.994.994,0,0,0,0-8.9" transform="translate(0 9.899)" fill="#e8ad8c"/>
          </g>
          <g id="g9987" transform="translate(10.194 48.929)">
            <path id="path9989" d="M0,0V8A.994.994,0,0,0,.994,9H47.183A.994.994,0,0,0,48.178,8V0Z" transform="translate(0 0)" fill="#e8ad8c"/>
          </g>
          <g id="g9991" transform="translate(53.628 39.932)">
            <path id="path9993" d="M-33.583,0h-3.75a.994.994,0,0,1,.994.994V9h3.75v-8A.994.994,0,0,0-33.583,0" transform="translate(37.333)" fill="#e19a74"/>
          </g>
          <g id="g9995" transform="translate(53.628 48.929)">
            <path id="path9997" d="M-8.9,0V8A.994.994,0,0,1-9.9,9h3.75A.994.994,0,0,0-5.155,8V0Z" transform="translate(9.899)" fill="#e19a74"/>
          </g>
          <g id="g9999" transform="translate(29.316 55.429)">
            <path id="path10001" d="M0,0V11.651a.481.481,0,0,0,.729.413L4.546,9.772a.818.818,0,0,1,.842,0L9.2,12.064a.481.481,0,0,0,.729-.413V0Z" fill="#fd8087"/>
          </g>
          <g id="g10003" transform="translate(26.177 43.532)">
            <path id="path10005" d="M-142.4-95.134c-.775-1.521-.775-1.893,0-3.413h0a2.879,2.879,0,0,0-.07-2.751,2.879,2.879,0,0,0-2.348-1.436v0c-1.7-.089-2.026-.276-2.957-1.707a2.879,2.879,0,0,0-2.418-1.313,2.878,2.878,0,0,0-2.417,1.315c-.93,1.431-1.253,1.616-2.957,1.7v0a2.879,2.879,0,0,0-2.347,1.436,2.879,2.879,0,0,0-.07,2.751h0c.775,1.521.775,1.893,0,3.413h0a2.879,2.879,0,0,0,.07,2.751,2.879,2.879,0,0,0,2.347,1.436v0c1.7.089,2.026.275,2.957,1.707a2.878,2.878,0,0,0,2.418,1.313,2.879,2.879,0,0,0,2.417-1.314c.93-1.431,1.253-1.616,2.957-1.7v0a2.879,2.879,0,0,0,2.348-1.436,2.879,2.879,0,0,0,.07-2.751Z" transform="translate(158.305 105.756)" fill="#ffe177"/>
          </g>
          <g id="g10007" transform="translate(31.301 49.465)">
            <path id="path10009" d="M-26.707,0a2.982,2.982,0,0,0-2.982,2.982,2.982,2.982,0,0,0,2.982,2.982,2.982,2.982,0,0,0,2.982-2.982A2.982,2.982,0,0,0-26.707,0" transform="translate(29.689)" fill="#2ed1e1"/>
          </g>
          <g id="g10011" transform="translate(29.316 1.004)">
            <path id="path10013" d="M-93.16-32.043l-2.82-.634a.479.479,0,0,1-.307-.223l-1.474-2.486a.479.479,0,0,0-.824,0L-100.06-32.9a.479.479,0,0,1-.307.223l-2.82.634a.479.479,0,0,0-.255.784l1.909,2.17a.48.48,0,0,1,.117.361l-.268,2.878a.479.479,0,0,0,.667.485l2.654-1.144a.479.479,0,0,1,.38,0l2.654,1.144a.479.479,0,0,0,.667-.485l-.268-2.878a.48.48,0,0,1,.117-.361l1.909-2.17a.479.479,0,0,0-.255-.784" transform="translate(103.561 35.621)" fill="#ffe177"/>
          </g>
          <g id="g10015" transform="translate(45.586 8.068)">
            <path id="path10017" d="M-93.16-32.043l-2.82-.634a.479.479,0,0,1-.307-.223l-1.474-2.486a.479.479,0,0,0-.824,0L-100.06-32.9a.479.479,0,0,1-.307.223l-2.82.634a.479.479,0,0,0-.255.784l1.909,2.17a.48.48,0,0,1,.117.361l-.268,2.878a.479.479,0,0,0,.667.485l2.654-1.144a.479.479,0,0,1,.38,0l2.654,1.144a.479.479,0,0,0,.667-.485l-.268-2.878a.48.48,0,0,1,.117-.361l1.909-2.17a.479.479,0,0,0-.255-.784" transform="translate(103.561 35.621)" fill="#ffe177"/>
          </g>
          <g id="g10019" transform="translate(12.204 8.068)">
            <path id="path10021" d="M-93.16-32.043l-2.82-.634a.479.479,0,0,1-.307-.223l-1.474-2.486a.479.479,0,0,0-.824,0L-100.06-32.9a.479.479,0,0,1-.307.223l-2.82.634a.479.479,0,0,0-.255.784l1.909,2.17a.48.48,0,0,1,.117.361l-.268,2.878a.479.479,0,0,0,.667.485l2.654-1.144a.479.479,0,0,1,.38,0l2.654,1.144a.479.479,0,0,0,.667-.485l-.268-2.878a.48.48,0,0,1,.117-.361l1.909-2.17a.479.479,0,0,0-.255-.784" transform="translate(103.561 35.621)" fill="#ffe177"/>
          </g>
          <g id="g10023" transform="translate(27.673 15.719)">
            <path id="path10025" d="M-75.434-114.156a9.018,9.018,0,0,1,4.4-5.251.691.691,0,0,0,.032-1.239,10.348,10.348,0,0,0-2.077-.755.9.9,0,0,1-.652-1.083,3.626,3.626,0,0,0,.074-1.185,3.618,3.618,0,0,0-3.191-3.211,3.6,3.6,0,0,0-4,3.584,3.543,3.543,0,0,0,.1.822.9.9,0,0,1-.655,1.074,10.348,10.348,0,0,0-2.077.755.691.691,0,0,0,.032,1.239,9.018,9.018,0,0,1,4.4,5.251" transform="translate(83.856 126.902)" fill="none" stroke="#000" stroke-linecap="round" stroke-linejoin="round" stroke-miterlimit="10" stroke-width="1.3"/>
          </g>
          <g id="g10027" transform="translate(26.999 28.391)">
            <path id="path10029" d="M0-34.327a3.977,3.977,0,0,1,.925-2.419c1.912-1.886,10.8-1.886,12.717,0a3.977,3.977,0,0,1,.925,2.419" transform="translate(0 38.16)" fill="none" stroke="#000" stroke-linecap="round" stroke-linejoin="round" stroke-miterlimit="10" stroke-width="1.3"/>
          </g>
          <g id="g10031" transform="translate(21.479 27.988)">
            <path id="path10033" d="M-29.086,0c-2.318,1.006-3.187,3.606-3.248,5.933" transform="translate(32.333)" fill="none" stroke="#000" stroke-linecap="round" stroke-linejoin="round" stroke-miterlimit="10" stroke-width="1.3"/>
          </g>
          <g id="g10035" transform="translate(12.083 33.966)">
            <path id="path10037" d="M-4.33-53.434a11.411,11.411,0,0,1-.483-3.128,5.054,5.054,0,0,1,.82-2.838" transform="translate(4.813 59.4)" fill="none" stroke="#000" stroke-linecap="round" stroke-linejoin="round" stroke-miterlimit="10" stroke-width="1.3"/>
          </g>
          <g id="g10039" transform="translate(17.06 32.221)">
            <path id="path10041" d="M0-.42A7.4,7.4,0,0,1,3.38.89a1.942,1.942,0,0,0,2.208,0,7.276,7.276,0,0,1,4.2-1.357c2.531,0,4.156,2.052,4.156,4.583a11.412,11.412,0,0,1-.483,3.128" transform="translate(0 0.467)" fill="none" stroke="#000" stroke-linecap="round" stroke-linejoin="round" stroke-miterlimit="10" stroke-width="1.3"/>
          </g>
          <g id="g10043" transform="translate(46.959 27.988)">
            <path id="path10045" d="M-29.074,0c-2.318,1.007-3.187,3.606-3.246,5.933" transform="translate(32.32)" fill="none" stroke="#000" stroke-linecap="round" stroke-linejoin="round" stroke-miterlimit="10" stroke-width="1.3"/>
          </g>
          <g id="g10047" transform="translate(37.562 32.221)">
            <path id="path10049" d="M-165.135-69.062a11.411,11.411,0,0,0,.483-3.128c0-2.531-1.624-4.583-4.156-4.583a7.276,7.276,0,0,0-4.2,1.357,1.931,1.931,0,0,1-1.168.343,1.953,1.953,0,0,1-1.041-.343,7.276,7.276,0,0,0-4.2-1.357c-2.531,0-4.156,2.052-4.156,4.583a11.412,11.412,0,0,0,.483,3.128" transform="translate(183.573 76.773)" fill="none" stroke="#000" stroke-linecap="round" stroke-linejoin="round" stroke-miterlimit="10" stroke-width="1.3"/>
          </g>
          <g id="g10051" transform="translate(52.607 44.431)">
            <path id="path10053" d="M0,0H.566" fill="none" stroke="#000" stroke-linecap="round" stroke-linejoin="round" stroke-miterlimit="10" stroke-width="1.3"/>
          </g>
          <g id="g10055" transform="translate(15.394 44.431)">
            <path id="path10057" d="M0,0H.566" fill="none" stroke="#000" stroke-linecap="round" stroke-linejoin="round" stroke-miterlimit="10" stroke-width="1.3"/>
          </g>
          <g id="g10059" transform="translate(51.487 48.929)">
            <path id="path10061" d="M0-80.588H5.891a.994.994,0,0,0,.994-.994v-8" transform="translate(0 89.586)" fill="none" stroke="#000" stroke-linecap="round" stroke-linejoin="round" stroke-miterlimit="10" stroke-width="1.3"/>
          </g>
          <g id="g10063" transform="translate(41.005 57.927)">
            <path id="path10065" d="M-51.9,0h-5.795" transform="translate(57.693)" fill="none" stroke="#000" stroke-linecap="round" stroke-linejoin="round" stroke-miterlimit="10" stroke-width="1.3"/>
          </g>
          <g id="g10067" transform="translate(10.194 48.929)">
            <path id="path10069" d="M0,0V8A.994.994,0,0,0,1,9H17.368" fill="none" stroke="#000" stroke-linecap="round" stroke-linejoin="round" stroke-miterlimit="10" stroke-width="1.3"/>
          </g>
          <g id="g10071" transform="translate(52.607 53.428)">
            <path id="path10073" d="M0,0H.566" fill="none" stroke="#000" stroke-linecap="round" stroke-linejoin="round" stroke-miterlimit="10" stroke-width="1.3"/>
          </g>
          <g id="g10075" transform="translate(15.394 53.428)">
            <path id="path10077" d="M0,0H.566" fill="none" stroke="#000" stroke-linecap="round" stroke-linejoin="round" stroke-miterlimit="10" stroke-width="1.3"/>
          </g>
          <g id="g10079" transform="translate(10.194 39.932)">
            <path id="path10081" d="M-287.968-80.58h16.026v-8a.994.994,0,0,0-.995-.994h-46.189a.994.994,0,0,0-1,.994v8h16.026" transform="translate(320.121 89.577)" fill="none" stroke="#000" stroke-linecap="round" stroke-linejoin="round" stroke-miterlimit="10" stroke-width="1.3"/>
          </g>
          <g id="g10083" transform="translate(29.316 58.369)">
            <path id="path10085" d="M-88.972,0V8.711a.482.482,0,0,1-.73.412l-3.817-2.291a.817.817,0,0,0-.841,0l-3.817,2.291a.482.482,0,0,1-.73-.412V0" transform="translate(98.906)" fill="none" stroke="#000" stroke-linecap="round" stroke-linejoin="round" stroke-miterlimit="10" stroke-width="1.3"/>
          </g>
          <g id="g10087" transform="translate(31.301 49.465)">
            <path id="path10089" d="M-26.707,0a2.982,2.982,0,0,0-2.982,2.982,2.982,2.982,0,0,0,2.982,2.982,2.982,2.982,0,0,0,2.982-2.982A2.982,2.982,0,0,0-26.707,0Z" transform="translate(29.689)" fill="none" stroke="#000" stroke-linecap="round" stroke-linejoin="round" stroke-miterlimit="10" stroke-width="1.3"/>
          </g>
          <g id="g10091" transform="translate(26.176 43.532)">
            <path id="path10093" d="M-142.406-95.134c-.775-1.521-.775-1.893,0-3.413h0a2.879,2.879,0,0,0-.07-2.751,2.879,2.879,0,0,0-2.348-1.436v0c-1.7-.089-2.026-.276-2.957-1.707a2.879,2.879,0,0,0-2.418-1.313,2.878,2.878,0,0,0-2.417,1.314c-.93,1.431-1.253,1.616-2.957,1.705v0a2.879,2.879,0,0,0-2.348,1.436,2.879,2.879,0,0,0-.07,2.751h0c.775,1.521.775,1.893,0,3.413h0a2.879,2.879,0,0,0,.07,2.751,2.879,2.879,0,0,0,2.348,1.436v0c1.7.089,2.026.275,2.957,1.707a2.878,2.878,0,0,0,2.418,1.313,2.878,2.878,0,0,0,2.417-1.315c.93-1.431,1.253-1.616,2.957-1.7v0a2.879,2.879,0,0,0,2.348-1.436,2.879,2.879,0,0,0,.07-2.751Z" transform="translate(158.306 105.756)" fill="none" stroke="#000" stroke-linecap="round" stroke-linejoin="round" stroke-miterlimit="10" stroke-width="1.3"/>
          </g>
          <g id="g10095" transform="translate(29.316 1.004)">
            <path id="path10097" d="M-93.16-32.044l-2.82-.634a.479.479,0,0,1-.307-.223l-1.474-2.486a.479.479,0,0,0-.825,0L-100.06-32.9a.479.479,0,0,1-.307.223l-2.82.634a.479.479,0,0,0-.255.784l1.909,2.17a.479.479,0,0,1,.117.361l-.268,2.878a.479.479,0,0,0,.667.485l2.654-1.144a.479.479,0,0,1,.38,0l2.654,1.144a.479.479,0,0,0,.667-.485l-.268-2.878a.48.48,0,0,1,.117-.361l1.909-2.17A.479.479,0,0,0-93.16-32.044Z" transform="translate(103.561 35.622)" fill="none" stroke="#000" stroke-linecap="round" stroke-linejoin="round" stroke-miterlimit="10" stroke-width="1.3"/>
          </g>
          <g id="g10099" transform="translate(45.586 8.068)">
            <path id="path10101" d="M-93.16-32.044l-2.82-.634a.479.479,0,0,1-.307-.223l-1.474-2.486a.479.479,0,0,0-.825,0L-100.06-32.9a.479.479,0,0,1-.307.223l-2.82.634a.479.479,0,0,0-.255.784l1.908,2.17a.479.479,0,0,1,.117.361l-.268,2.878a.479.479,0,0,0,.667.485l2.654-1.144a.479.479,0,0,1,.38,0l2.654,1.144a.479.479,0,0,0,.667-.485l-.268-2.878a.48.48,0,0,1,.117-.361l1.909-2.17A.479.479,0,0,0-93.16-32.044Z" transform="translate(103.561 35.621)" fill="none" stroke="#000" stroke-linecap="round" stroke-linejoin="round" stroke-miterlimit="10" stroke-width="1.3"/>
          </g>
          <g id="g10103" transform="translate(12.204 8.068)">
            <path id="path10105" d="M-93.16-32.044l-2.82-.634a.479.479,0,0,1-.307-.223l-1.474-2.486a.479.479,0,0,0-.825,0L-100.06-32.9a.479.479,0,0,1-.307.223l-2.82.634a.479.479,0,0,0-.255.784l1.908,2.17a.479.479,0,0,1,.117.361l-.268,2.878a.479.479,0,0,0,.667.485l2.654-1.144a.479.479,0,0,1,.38,0l2.654,1.144a.479.479,0,0,0,.667-.485l-.268-2.878a.48.48,0,0,1,.117-.361l1.909-2.17A.479.479,0,0,0-93.16-32.044Z" transform="translate(103.561 35.621)" fill="none" stroke="#000" stroke-linecap="round" stroke-linejoin="round" stroke-miterlimit="10" stroke-width="1.3"/>
          </g>
        </g>
      </g>
    </g>
  </g>
</svg>
