<svg xmlns="http://www.w3.org/2000/svg" xmlns:xlink="http://www.w3.org/1999/xlink" width="70" height="70" viewBox="0 0 70 70">
  <defs>
    <clipPath id="clip-path">
      <rect id="Rectángulo_411690" data-name="Rectángulo 411690" width="47.983" height="47.955" fill="none"/>
    </clipPath>
  </defs>
  <g id="Grupo_1202272" data-name="Grupo 1202272" transform="translate(-620.835 -3827)">
    <circle id="Elipse_12372" data-name="Elipse 12372" cx="35" cy="35" r="35" transform="translate(620.835 3827)" fill="#ffc94a"/>
    <g id="Grupo_1213313" data-name="Grupo 1213313" transform="translate(631.844 3839.803)">
      <g id="Grupo_1213312" data-name="Grupo 1213312" clip-path="url(#clip-path)">
        <path id="Trazado_1260032" data-name="Trazado 1260032" d="M25.021,53.944a.923.923,0,0,1-.529.7.977.977,0,0,1-.773-.283l-1.64-2.026L21.991,54a.791.791,0,0,1-.731.661.783.783,0,0,1-.672-.8v-3.59a.892.892,0,0,1,.447-.726.972.972,0,0,1,.795.211l1.715,2.093.059-1.575a.747.747,0,0,1,.659-.758.78.78,0,0,1,.763.758Z" transform="translate(-16.837 -40.495)"/>
        <path id="Trazado_1260033" data-name="Trazado 1260033" d="M219.9,20.158l-.015,1.478a.742.742,0,0,1-.666.7.755.755,0,0,1-.755-.719l-.007-4.38a.818.818,0,0,1,.808-.8l1.8.013a1.825,1.825,0,0,1,1.818,1.693,1.787,1.787,0,0,1-1.578,1.923Zm1.285-1.488c.13,0,.328-.391.276-.506-.042-.092-.216-.309-.319-.309l-1.229-.011.01.832Z" transform="translate(-178.666 -13.44)"/>
        <path id="Trazado_1260035" data-name="Trazado 1260035" d="M27.37,18.563l-4.163,2.088.021,5.165L29.7,22.591a.827.827,0,0,1,.867.227.787.787,0,0,1-.189,1.007l-7.173,3.586.005,5.963,8.733-4.018a.767.767,0,0,1,.905.27.756.756,0,0,1-.23.956l-9.41,4.354.031,4.829A12.029,12.029,0,0,0,34.509,27.112a15.348,15.348,0,0,0-1.337-4.39c-2.79-5.685-6.636-10.713-10.684-15.682-4.038,4.958-7.9,10-10.678,15.678a15.221,15.221,0,0,0-1.337,4.4,11.864,11.864,0,0,0,3.5,9.164.714.714,0,0,1-.044,1.037.77.77,0,0,1-1.006-.1A13.035,13.035,0,0,1,9.148,26.442a19.622,19.622,0,0,1,2.088-5.7,75.79,75.79,0,0,1,5.6-8.819l-4.947-.02a5.969,5.969,0,1,1,0-1.4l6.034,0L21.9,5.537a.793.793,0,0,1,1.182,0L26.848,10.2l3.184-4.454a1.219,1.219,0,0,1,.753-.5l5.306,0A5.987,5.987,0,1,1,36.1,6.69L31.1,6.68,27.735,11.4c2.758,3.715,7.577,10.773,8.106,15.177a13.239,13.239,0,0,1-6.163,12.557l2.06,2.122,2.86.011a5.92,5.92,0,1,1-.012,1.446l-3.377-.031-2.868-2.83a13.456,13.456,0,0,1-12.491-.4.822.822,0,0,1-.3-.921.775.775,0,0,1,.9-.33,11.92,11.92,0,0,0,5.326,1.516l-.01-4.785-9.321-4.3a.769.769,0,0,1-.364-.9.721.721,0,0,1,.956-.366l8.723,4.012.012-5.96-7.087-3.542a.757.757,0,0,1-.325-.975.793.793,0,0,1,.923-.3l6.477,3.222.024-5.152-4.117-2.073a.773.773,0,0,1-.326-.924.8.8,0,0,1,.886-.356l3.527,1.74.03-4.088a.788.788,0,0,1,.633-.7.75.75,0,0,1,.779.7l.026,4.084,3.532-1.745a.876.876,0,0,1,.833.269.762.762,0,0,1-.218.985m19.2-12.61a4.542,4.542,0,1,0-4.542,4.539,4.541,4.541,0,0,0,4.542-4.539M10.5,11.211A4.541,4.541,0,1,0,5.958,15.75,4.54,4.54,0,0,0,10.5,11.211M45.064,42a4.542,4.542,0,1,0-4.542,4.539A4.541,4.541,0,0,0,45.064,42" transform="translate(0 0)"/>
        <path id="Trazado_1260037" data-name="Trazado 1260037" d="M214.354,219.062a.817.817,0,0,1,.174.986.786.786,0,0,1-.879.209l-1.947-1.385-.1.985c-.023.238-.487.5-.741.475-.227-.023-.634-.367-.634-.644l-.008-4.525a.809.809,0,0,1,.628-.708.712.712,0,0,1,.793.7l.066.76,1.873-1.37a.9.9,0,0,1,.9.129.773.773,0,0,1-.082.99l-2.256,1.735Z" transform="translate(-171.928 -175.388)"/>
      </g>
    </g>
  </g>
</svg>
