<svg xmlns="http://www.w3.org/2000/svg" xmlns:xlink="http://www.w3.org/1999/xlink" width="129.063" height="80.903" viewBox="0 0 129.063 80.903">
  <defs>
    <clipPath id="clip-path">
      <rect id="Rect치ngulo_411673" data-name="Rect치ngulo 411673" width="81.278" height="80.903" fill="none"/>
    </clipPath>
  </defs>
  <g id="_10" data-name="10" transform="translate(-787.781 -2553.271)">
    <g id="Rect치ngulo_410589" data-name="Rect치ngulo 410589" transform="translate(787.781 2575.623)" fill="#ffc94a" stroke="#dfab32" stroke-width="1">
      <rect width="129.063" height="43.021" rx="8" stroke="none"/>
      <rect x="0.5" y="0.5" width="128.063" height="42.021" rx="7.5" fill="none"/>
    </g>
    <g id="Grupo_1213283" data-name="Grupo 1213283" transform="translate(805.673 2552.271)">
      <g id="Grupo_1213282" data-name="Grupo 1213282" transform="translate(6 1)" clip-path="url(#clip-path)">
        <path id="Trazado_1259673" data-name="Trazado 1259673" d="M18.893,63.129l.026,10.356a6.378,6.378,0,0,1-1.876,4.149,4.332,4.332,0,0,1-3.673-4.147c-.167-2.061.5-3.387-1.166-3.677l-.017-3.779c.48-.168,1.081-.354,1.106-.886l.094-2.027Z" transform="translate(-8.428 -43.65)" fill="#47defd"/>
        <path id="Trazado_1259674" data-name="Trazado 1259674" d="M27.93,77.561a6.378,6.378,0,0,0,1.876-4.149l-.026-10.356c1.829,0,3.478-.1,5.172.005l.031,9.876a4.7,4.7,0,0,1-5.232,4.83c-.656-.058-1.326.138-1.822-.207" transform="translate(-19.315 -43.577)" fill="#2dccec"/>
        <path id="Trazado_1259675" data-name="Trazado 1259675" d="M18.4,47.48l-.008,2.46L7.819,49.929l0-2.46Z" transform="translate(-5.407 -32.827)" fill="#327fa4"/>
        <path id="Trazado_1259676" data-name="Trazado 1259676" d="M42.082,49.966l.008-2.46,5.163.006,0,2.46Z" transform="translate(-29.102 -32.853)" fill="#286988"/>
        <path id="Trazado_1259677" data-name="Trazado 1259677" d="M73.946,18.287c-1.8-1.028.33-3.419-.047-6.209-1.921-.344-3.535.35-5.119.884-4.413,1.49-6.479,5.771-6.377,10.354.3.419,1.027.046,1.345.067,4.867.325,6.5-3.915,8.114-1.855,0,.377.164,1.045-.242,1.385a13.818,13.818,0,0,1-9,3.014l.047,20.821,6.642-6.574A9.267,9.267,0,0,1,79.25,30.009c.541.029,1.688-.057,1.841.69A9.75,9.75,0,0,1,79.2,38.593a9.251,9.251,0,0,1-7.164,3.336,2.058,2.058,0,0,0-2.173,1.253,9.929,9.929,0,0,1,8.063,4.041c1.152,1.591-3.321,4.419-5.372,4.99-5.6,1.562-8.766-2.776-9.328-2.525a.883.883,0,0,0-.569.717l-.138,19.53a10.768,10.768,0,0,1-6.458,9.614,14.1,14.1,0,0,1-12.088-.016,10.773,10.773,0,0,1-6.438-9.593L37.41,46.222a5.337,5.337,0,0,0-3.746-5.032,6.622,6.622,0,0,0-5.55.5A5.384,5.384,0,0,0,25.4,46.438l-.056,15.423a7.27,7.27,0,0,1-5.4,6.98,9.336,9.336,0,0,1-5.374,0,7.324,7.324,0,0,1-5.442-6.986L9.035,36.587A7,7,0,0,1,2.673,30.71c-.174-1.158-.58-4.725,1.1-4.549,1.668.29,1,1.616,1.166,3.677a4.332,4.332,0,0,0,3.673,4.147c.5.345,1.166.148,1.822.206a4.7,4.7,0,0,0,5.232-4.83l-.031-9.877c-1.695-.109-3.343,0-5.172,0l-5.507-.012L4.865,21.5c-.025.533-.626.718-1.106.886-1.668-.491-1.021-1.344-1.249-2.926C.544,19.125-.014,17.532,0,15.748c.014-1.7.679-3.429,2.607-3.463l2.8-.049.031-7.8a1.217,1.217,0,1,1,2.423,0l.023,7.811,4.864.011.02-7.817a1.173,1.173,0,0,1,1.045-1.326c.833-.062,1.315.425,1.318,1.323l.023,7.754,3.1.126c1.8.073,2.329,1.847,2.363,3.423.038,1.791-.582,3.359-2.563,3.741L18.045,29.6a7,7,0,0,1-6.542,6.99L11.5,61.644a5.2,5.2,0,0,0,4.061,5.078,5.629,5.629,0,0,0,3.4,0,5.227,5.227,0,0,0,4.021-5.067l.048-15.422a7.58,7.58,0,0,1,5.75-7.333,9.782,9.782,0,0,1,5.352.024,7.577,7.577,0,0,1,5.685,7.212l.06,23.124a9.014,9.014,0,0,0,5.791,8.46,11.6,11.6,0,0,0,8.548.066A9.02,9.02,0,0,0,60.2,69.32l.016-5.545-4.484-4.44a10.711,10.711,0,0,1-7.109-2.186c-3.51-2.89-3.787-8.525-2.867-9.441.375-.374.843-.316,1.354-.355A9.264,9.264,0,0,1,57.3,57.472a34.8,34.8,0,0,0,2.887,2.792l.031-21.094-3.839-3.8c-4.546,4.4-10.2,3.958-14.308-.479a1.38,1.38,0,0,1-.347-1.726,10.266,10.266,0,0,1,8.2-4.119c-.248-.435-.763-1.279-1.373-1.256a9.342,9.342,0,0,1-9.987-9.529c0-.625-.124-1.826.54-2.257A9.566,9.566,0,0,1,48.2,18.8a10.386,10.386,0,0,1,2.389,7.35l9.585,9.52.017-9.607a19.787,19.787,0,0,1-7-5.516C48.337,14.444,49.289,6.41,53.664.367A1.329,1.329,0,0,1,55,.068,17.354,17.354,0,0,1,65.426,11.861,15.046,15.046,0,0,1,75.3,9.731c.5.063.732.531.882.966.206,1.422.142,8.177-2.237,7.589M53.985,4.9c-3,4.913-1.891,12.457,3.112,16.152a8.429,8.429,0,0,0,2.865,2.115c.118-3.446.926-6.717,3.326-9.374-.475-4.878-3.921-8.884-8.266-11.067A4.346,4.346,0,0,0,53.985,4.9M18.149,17.118l0-2.46L2.415,14.641l0,2.46Zm22.769,1.407a6.955,6.955,0,0,0,3.628,5.982,7.366,7.366,0,0,0,3.547.906,6.629,6.629,0,0,0-6.785-7.21c-.214-.245-.462-.132-.39.322m6.674,13.346a6.4,6.4,0,0,0-3.186,1.853,6.25,6.25,0,0,0,3.43,2.05c2.345.818,4.87-.178,6.753-2.021a6.724,6.724,0,0,0-7-1.882m27.7,1.416a5.81,5.81,0,0,0-3.417,6.206,6.673,6.673,0,0,0,7-7.069,6.059,6.059,0,0,0-3.579.863M68.6,45.932A5.561,5.561,0,0,0,65.135,47.8a6.857,6.857,0,0,0,10.153.037,6.58,6.58,0,0,0-6.684-1.91M47.845,49.937a6.078,6.078,0,0,0,3.439,6c1.1.477,2.249,1.239,3.716.9a6.6,6.6,0,0,0-7.156-6.9" transform="translate(0 0)" fill="#050505"/>
        <path id="Trazado_1259678" data-name="Trazado 1259678" d="M216.876,45.159a6.188,6.188,0,0,1-2.084,3.241c-1.617-2.06-3.248,2.18-8.114,1.855.151-.41.569-.639.961-.97,2.825-2.386,3.966-5.885,4.071-9.451,1.584-.535,3.2-1.228,5.119-.884.376,2.79-1.758,5.182.047,6.209" transform="translate(-142.93 -26.872)" fill="#a1f380"/>
        <path id="Trazado_1259679" data-name="Trazado 1259679" d="M178.136,27.167c2.586-5.444,1.08-11.855-3.112-16.152a4.346,4.346,0,0,1,1.038-2.174c4.344,2.183,7.791,6.189,8.266,11.067-2.4,2.657-3.209,5.929-3.326,9.374a8.426,8.426,0,0,1-2.865-2.115" transform="translate(-121.04 -6.113)" fill="#6bcc3b"/>
        <path id="Trazado_1259680" data-name="Trazado 1259680" d="M174.431,32.041c-5-3.7-6.111-11.239-3.112-16.152,4.193,4.3,5.7,10.708,3.112,16.152" transform="translate(-117.334 -10.988)" fill="#86d85f"/>
        <path id="Trazado_1259681" data-name="Trazado 1259681" d="M208.687,42.022c-.106,3.565-1.247,7.065-4.071,9.451-.392.331-.81.56-.961.97-.318-.021-1.042.352-1.345-.067-.1-4.583,1.964-8.864,6.378-10.354" transform="translate(-139.907 -29.061)" fill="#bffaa7"/>
        <path id="Trazado_1259682" data-name="Trazado 1259682" d="M136.259,65.04c.081-1.8-1.757-5.838-3.628-5.982-.072-.454.176-.567.39-.322a6.629,6.629,0,0,1,6.785,7.21,7.366,7.366,0,0,1-3.547-.907" transform="translate(-91.714 -40.532)" fill="#9ff07e"/>
        <path id="Trazado_1259683" data-name="Trazado 1259683" d="M158.557,167.839a7.316,7.316,0,0,0-3.439-6,6.6,6.6,0,0,1,7.156,6.9c-1.468.338-2.614-.423-3.716-.9" transform="translate(-107.274 -111.898)" fill="#69c93b"/>
        <path id="Trazado_1259684" data-name="Trazado 1259684" d="M233.042,112.171a8.84,8.84,0,0,0,3.417-6.206,6.061,6.061,0,0,1,3.579-.863,6.673,6.673,0,0,1-7,7.069" transform="translate(-161.163 -72.678)" fill="#69c93b"/>
        <path id="Trazado_1259685" data-name="Trazado 1259685" d="M154.543,106.506l1.9-1.87A3.64,3.64,0,0,0,154.3,102.6a6.723,6.723,0,0,1,7,1.882c-1.884,1.843-4.408,2.839-6.753,2.021" transform="translate(-106.707 -70.731)" fill="#68c83a"/>
        <path id="Trazado_1259686" data-name="Trazado 1259686" d="M222.446,152.235c.491-.747,1.427-1.089,1.893-2.018a9.4,9.4,0,0,0-1.917-1.931,6.58,6.58,0,0,1,6.684,1.909,6.5,6.5,0,0,1-6.66,2.04" transform="translate(-153.818 -102.354)" fill="#9eef7d"/>
        <path id="Trazado_1259687" data-name="Trazado 1259687" d="M214.644,148.918a9.425,9.425,0,0,1,1.917,1.931c-.466.929-1.4,1.271-1.893,2.018a6.488,6.488,0,0,1-3.494-2.077,5.563,5.563,0,0,1,3.469-1.873" transform="translate(-146.04 -102.986)" fill="#bef9a6"/>
        <path id="Trazado_1259688" data-name="Trazado 1259688" d="M147.156,103.333a3.642,3.642,0,0,1,2.146,2.033l-1.9,1.87a6.252,6.252,0,0,1-3.43-2.05,6.4,6.4,0,0,1,3.186-1.853" transform="translate(-99.564 -71.461)" fill="#84d65d"/>
        <path id="Trazado_1259689" data-name="Trazado 1259689" d="M236.22,107.923a8.84,8.84,0,0,1-3.417,6.206,5.81,5.81,0,0,1,3.417-6.206" transform="translate(-160.924 -74.635)" fill="#84d65d"/>
        <path id="Trazado_1259690" data-name="Trazado 1259690" d="M158.534,167.907a6.078,6.078,0,0,1-3.439-6,7.316,7.316,0,0,1,3.439,6" transform="translate(-107.25 -111.966)" fill="#84d65d"/>
        <path id="Trazado_1259691" data-name="Trazado 1259691" d="M136.288,66.045a6.954,6.954,0,0,1-3.628-5.982c1.87.144,3.709,4.186,3.628,5.982" transform="translate(-91.742 -41.537)" fill="#bef9a6"/>
      </g>
    </g>
  </g>
</svg>
