<svg xmlns="http://www.w3.org/2000/svg" xmlns:xlink="http://www.w3.org/1999/xlink" width="129.063" height="90.904" viewBox="0 0 129.063 90.904">
  <defs>
    <clipPath id="clip-path">
      <rect id="Rect치ngulo_411674" data-name="Rect치ngulo 411674" width="75.564" height="90.904" fill="none"/>
    </clipPath>
  </defs>
  <g id="_11" data-name="11" transform="translate(-787.781 -2537.284)">
    <g id="Rect치ngulo_410589" data-name="Rect치ngulo 410589" transform="translate(787.781 2575.623)" fill="#ffc94a" stroke="#dfab32" stroke-width="1">
      <rect width="129.063" height="43.021" rx="8" stroke="none"/>
      <rect x="0.5" y="0.5" width="128.063" height="42.021" rx="7.5" fill="none"/>
    </g>
    <g id="Grupo_1213285" data-name="Grupo 1213285" transform="translate(814.53 2537.284)">
      <g id="Grupo_1213284" data-name="Grupo 1213284" clip-path="url(#clip-path)">
        <path id="Trazado_1259692" data-name="Trazado 1259692" d="M76.285,187.082c.046,2.122.61,4.217.35,6.337l-41.052.06a9.6,9.6,0,0,0-8.43-6.026,5.8,5.8,0,0,1-4.311-2.532c-1.634-2.9-4.5-4.375-8.152-4.346A35.618,35.618,0,0,1,42.61,158.7c-1.2,2.382-2.425,4.284-2.929,6.617-.686,3.172.506,6.1,3.457,7.41l4.588,2.041a3.49,3.49,0,0,1,1.729,4.78c-1.26,3.1-2.459,7.613.655,9.849,3.443,2.473,6.721-.325,9.458-2.068,4.942-3.148,5.625,3.35,11.677,1.1a27,27,0,0,1,5.041-1.347" transform="translate(-9.615 -103.873)" fill="#47defd"/>
        <path id="Trazado_1259693" data-name="Trazado 1259693" d="M27.995,240.109l-20.111.029A31.783,31.783,0,0,1,9.34,230.029c8.045-.881,5.645,6.213,13.205,6.711a6.431,6.431,0,0,1,5.45,3.369" transform="translate(-5.157 -150.511)" fill="#c0fba8"/>
        <path id="Trazado_1259694" data-name="Trazado 1259694" d="M199.153,246.34l-5.82-.08c.26-2.119-.3-4.214-.35-6.337a19.615,19.615,0,0,1,5.48-.428,25.98,25.98,0,0,1,.689,6.844" transform="translate(-126.313 -156.714)" fill="#25cef0"/>
        <path id="Trazado_1259695" data-name="Trazado 1259695" d="M142.758,167.569a11.976,11.976,0,0,0,2.852,2.827c-.439.44-1.087,1.173-.568,1.877a35.816,35.816,0,0,1,5.871,11.693c-2.1.321-4.118.253-6.046.658a38.2,38.2,0,0,0-22.5-25.08c-.515-.208-.939-.151-1.069-.6,8.566-.562,18.06,8.9,21.463,8.622" transform="translate(-79.391 -104.019)" fill="#a1f380"/>
        <path id="Trazado_1259696" data-name="Trazado 1259696" d="M102.834,158.1c-.025.261.361.208.525.2l.258-.017c.13.446.554.389,1.069.6a38.2,38.2,0,0,1,22.5,25.081c-3.813.8-6.246,2.82-8.937.661a6.514,6.514,0,0,0-7.773-.2c-1.929,1.2-4.729,3.631-6.654,2.38-2.026-1.317-.219-5.576.38-7.32a5.918,5.918,0,0,0-2.72-7.34,44.385,44.385,0,0,0-4.722-2.156c-5.376-2.375-.654-8.956,1.556-12.027a28.323,28.323,0,0,1,4.514.144" transform="translate(-61.713 -103.355)" fill="#c1fda9"/>
        <path id="Trazado_1259697" data-name="Trazado 1259697" d="M119.549,158.652c-.164.011-.55.064-.525-.2.179.011.562-.088.525.2" transform="translate(-77.904 -103.708)" fill="#a1f380"/>
        <path id="Trazado_1259698" data-name="Trazado 1259698" d="M63.367,63.55c-3.4.282-12.9-9.185-21.463-8.622l-.258.017c.036-.286-.347-.186-.525-.2a28.364,28.364,0,0,0-4.514-.144c-2.21,3.071-6.931,9.651-1.555,12.027a44.488,44.488,0,0,1,4.722,2.156,5.918,5.918,0,0,1,2.72,7.34c-.6,1.744-2.406,6-.38,7.32,1.925,1.251,4.725-1.182,6.654-2.38a6.514,6.514,0,0,1,7.773.2c2.691,2.159,5.123.142,8.936-.661,1.928-.406,3.945-.338,6.046-.658a35.821,35.821,0,0,0-5.871-11.693c-.519-.7.129-1.436.568-1.876.4.06,1.122-.258,1.537.283a37.691,37.691,0,0,1,7.808,22.7c.008.926-.426,1.463-1.241,1.526a1.358,1.358,0,0,1-1.483-1.262,25.965,25.965,0,0,0-.69-6.844,19.628,19.628,0,0,0-5.48.428,27.032,27.032,0,0,0-5.041,1.347c-6.052,2.249-6.735-4.249-11.677-1.1C47.216,85.2,43.937,88,40.495,85.523c-3.113-2.237-1.915-6.752-.655-9.849a3.49,3.49,0,0,0-1.729-4.78l-4.588-2.041c-2.951-1.313-4.144-4.237-3.457-7.41.5-2.334,1.732-4.236,2.93-6.618A35.618,35.618,0,0,0,5.075,76.7c3.657-.029,6.519,1.444,8.152,4.346a5.8,5.8,0,0,0,4.311,2.532,9.605,9.605,0,0,1,8.43,6.026,1.368,1.368,0,0,1-.825,1.189c-1.629.461-1.534-.654-2.306-1.2a6.433,6.433,0,0,0-5.45-3.369c-7.56-.5-5.16-7.592-13.205-6.711A31.783,31.783,0,0,0,2.727,89.627a1.352,1.352,0,0,1-1.483,1.245C.253,90.788-.018,90.1,0,89.092c.381-19.935,16.46-36.557,36.412-37.249l0-11.5L31.1,35.018a9.761,9.761,0,0,1-10.63-10.8c.053-.589.044-1.1.476-1.433,1.331-1.03,6.627-.263,9.348,2.511a10.332,10.332,0,0,1,2.739,7.757,34.085,34.085,0,0,0,3.35,3.344l0-9.425a18.564,18.564,0,0,1-9.8-11.1A1.581,1.581,0,0,1,27.45,13.7c.5.032,1.3.073,1.494.741a13.815,13.815,0,0,0,3.928,6.67,12.5,12.5,0,0,0,3.474,2.707c.266-3.582,1.158-6.9,3.536-9.632C39.195,9.173,35.957,5.3,31.528,2.974a4.4,4.4,0,0,0-1.336,2.68c-1.085.882-.26,2.771-2.448,2.63-2.592-.359,1.081-6.364,1.833-7.49A1.909,1.909,0,0,1,32.254.338,18.176,18.176,0,0,1,42.237,12.17a15.827,15.827,0,0,1,9.49-2.284,1.83,1.83,0,0,1,1.343.5,2.04,2.04,0,0,1,.391,1.451c.543,8.713-5.234,15.123-14.292,15.15l.032,16.01,6.885-6.78A9.757,9.757,0,0,1,56.678,25.528a2.55,2.55,0,0,1,1.533.378c.463.375.408,1.015.448,1.661a9.594,9.594,0,0,1-9.546,10.524c-.858.018-1.762.208-2.038,1.126a10.136,10.136,0,0,1,8.153,4.25c.634.909-.258,1.722-.779,2.282a9.709,9.709,0,0,1-14.191.465c-.476-.448-1.179.813-1.17,1.268l.086,4.384a36.938,36.938,0,0,1,23.571,9.426,2,2,0,0,1,.623,2.259M44.95,13.9c-3.909,1.358-5.828,5.889-5.8,10.039,0,.234.188.276.43.287A10.648,10.648,0,0,0,50.742,12.582,10.656,10.656,0,0,0,44.95,13.9M30.3,32.361a6.766,6.766,0,0,0-7.14-7.212,6.894,6.894,0,0,0,7.14,7.212m25.681-4.143a6.945,6.945,0,0,0-7.239,7.169,6.812,6.812,0,0,0,7.239-7.169M52.253,44.14a6.981,6.981,0,0,0-10.236-.028,6.9,6.9,0,0,0,10.236.028" transform="translate(0 0)" fill="#050605"/>
        <path id="Trazado_1259699" data-name="Trazado 1259699" d="M84.714,31.826a13.817,13.817,0,0,1-3.928-6.671c-.193-.668-1-.709-1.493-.741a17.676,17.676,0,0,1,.293-5.42c2.189.141,1.363-1.748,2.449-2.63a15.2,15.2,0,0,1,3.3,14.817c-.123.392-.213.755-.625.645" transform="translate(-51.842 -10.711)" fill="#86d85f"/>
        <path id="Trazado_1259700" data-name="Trazado 1259700" d="M90.072,26.749c.412.111.5-.253.625-.645a15.2,15.2,0,0,0-3.3-14.817,4.4,4.4,0,0,1,1.336-2.679c4.429,2.325,7.667,6.2,8.354,11.215-2.379,2.732-3.27,6.051-3.536,9.632a12.508,12.508,0,0,1-3.474-2.707" transform="translate(-57.201 -5.634)" fill="#6acb3b"/>
        <path id="Trazado_1259701" data-name="Trazado 1259701" d="M114.567,48.067a12.81,12.81,0,0,0,5.37-10.327,10.653,10.653,0,0,1,5.792-1.321,10.648,10.648,0,0,1-11.162,11.648" transform="translate(-74.987 -23.837)" fill="#a0f27f"/>
        <path id="Trazado_1259702" data-name="Trazado 1259702" d="M131.855,123.508a6.9,6.9,0,0,1-10.236-.028,6.981,6.981,0,0,1,10.236.028" transform="translate(-79.603 -79.368)" fill="#bdf7a4"/>
        <path id="Trazado_1259703" data-name="Trazado 1259703" d="M148.33,81.673a6.813,6.813,0,0,1-7.239,7.169,6.945,6.945,0,0,1,7.239-7.169" transform="translate(-92.347 -53.455)" fill="#84d45d"/>
        <path id="Trazado_1259704" data-name="Trazado 1259704" d="M74.174,80a6.894,6.894,0,0,1-7.14-7.212A6.766,6.766,0,0,1,74.174,80" transform="translate(-43.872 -47.638)" fill="#bdf7a5"/>
        <path id="Trazado_1259705" data-name="Trazado 1259705" d="M119.121,40.244a12.809,12.809,0,0,1-5.37,10.327c-.243-.011-.429-.053-.43-.287-.028-4.151,1.891-8.682,5.8-10.039" transform="translate(-74.171 -26.341)" fill="#bef9a6"/>
      </g>
    </g>
  </g>
</svg>
