<svg xmlns="http://www.w3.org/2000/svg" xmlns:xlink="http://www.w3.org/1999/xlink" width="102.55" height="117.092" viewBox="0 0 102.55 117.092">
  <defs>
    <filter id="Rectángulo_410591" x="0" y="0" width="73" height="117.092" filterUnits="userSpaceOnUse">
      <feOffset dy="3" input="SourceAlpha"/>
      <feGaussianBlur stdDeviation="3" result="blur"/>
      <feFlood flood-opacity="0.161"/>
      <feComposite operator="in" in2="blur"/>
      <feComposite in="SourceGraphic"/>
    </filter>
    <clipPath id="clip-path">
      <rect id="Rectángulo_411631" data-name="Rectángulo 411631" width="86.119" height="86.065" fill="none"/>
    </clipPath>
  </defs>
  <g id="_12" data-name="12" transform="translate(-242.85 -5760.451)">
    <g transform="matrix(1, 0, 0, 1, 242.85, 5760.45)" filter="url(#Rectángulo_410591)">
      <path id="Rectángulo_410591-2" data-name="Rectángulo 410591" d="M10,0H45A10,10,0,0,1,55,10V99.092a0,0,0,0,1,0,0H0a0,0,0,0,1,0,0V10A10,10,0,0,1,10,0Z" transform="translate(9 6)" fill="#3e5b2c"/>
    </g>
    <g id="Grupo_1213235" data-name="Grupo 1213235" transform="translate(259.281 5779.479)">
      <g id="Grupo_1213234" data-name="Grupo 1213234" clip-path="url(#clip-path)">
        <path id="Trazado_1259141" data-name="Trazado 1259141" d="M92.756,46.757h-59.8a1.216,1.216,0,0,1-1.2-.92A33,33,0,0,1,60.46,1.917,14.743,14.743,0,0,1,61.754.446a1.313,1.313,0,0,1,2.022.06,10.785,10.785,0,0,1,1.2,1.4,32.984,32.984,0,0,1,28.983,44.06,1.1,1.1,0,0,1-1.2.794M64.037,19.335c3.789-5.253,3.1-10.907-1.276-16.328-4.4,5.143-5.12,10.624-1.336,16.457l.075-6.859a1.191,1.191,0,0,1,1.2-1.266c2.3-.083.764,5.5,1.337,8M84.817,21.9a1.291,1.291,0,0,1,1.113,1.632c-3.16,10-11.321,15.984-21.951,14.72l.05,6.1H91.92A30.526,30.526,0,0,0,66.812,4.527c2.17,3.971,3.05,9.586.839,13.469l-3.466,6.088c-.757,1.33-.127,3.283-.052,4.909,4.639-7.04,12.858-8.471,20.683-7.093M61.4,28.862c-.076-1.588.639-3.44-.089-4.714L58.134,18.6c-2.574-4.5-1.812-9.463.378-14.016A30.559,30.559,0,0,0,33.843,44.367l27.6-.025.007-6.1C50.921,39.469,43,33.507,39.763,23.764a1.49,1.49,0,0,1,.178-1.39,1.8,1.8,0,0,1,.972-.5c7.758-1.3,15.854.056,20.484,6.984M50.811,30.852c-.642-.382-.391-1.281-.138-1.6a1.335,1.335,0,0,1,1.455-.365l8.629,4.877c-2.082-8.213-10.435-10.8-18.239-9.635,2.668,7.085,8.672,12.205,16.832,11.8Zm23.535.257-8.1,4.8c8.127.507,14.23-4.717,16.871-11.776-7.752-1.12-15.937,1.271-18.284,9.587l8.455-4.779a1.16,1.16,0,0,1,1.637.567,1.277,1.277,0,0,1-.575,1.6" transform="translate(-19.751 0)" fill="#070705"/>
        <path id="Trazado_1259142" data-name="Trazado 1259142" d="M151.1,30.74c-7.825-1.378-16.045.054-20.683,7.094-.075-1.627-.706-3.579.052-4.909l3.466-6.088c2.211-3.883,1.331-9.5-.839-13.47A30.526,30.526,0,0,1,158.2,53.194H130.307l-.05-6.1c10.631,1.264,18.791-4.717,21.951-14.72A1.291,1.291,0,0,0,151.1,30.74" transform="translate(-86.03 -8.839)" fill="#faca55"/>
        <path id="Trazado_1259143" data-name="Trazado 1259143" d="M66.159,37.807c-4.631-6.928-12.726-8.289-20.485-6.984a1.8,1.8,0,0,0-.972.5,1.492,1.492,0,0,0-.178,1.39c3.236,9.742,11.158,15.7,21.687,14.482l-.006,6.1-27.6.025A30.559,30.559,0,0,1,63.274,13.528c-2.19,4.553-2.951,9.517-.378,14.016l3.174,5.549c.728,1.274.013,3.126.089,4.714" transform="translate(-24.513 -8.946)" fill="#facb55"/>
        <path id="Trazado_1259144" data-name="Trazado 1259144" d="M142.6,77.716a1.277,1.277,0,0,0,.575-1.6,1.16,1.16,0,0,0-1.637-.567l-8.455,4.779c2.347-8.316,10.532-10.707,18.284-9.587C148.731,77.8,142.628,83.02,134.5,82.513Z" transform="translate(-88.009 -46.606)" fill="#c1e490"/>
        <path id="Trazado_1259145" data-name="Trazado 1259145" d="M75.507,77.448l8.539,5.075c-8.16.409-14.164-4.711-16.832-11.8,7.8-1.163,16.157,1.423,18.239,9.636l-8.629-4.877a1.336,1.336,0,0,0-1.455.365c-.253.317-.5,1.217.138,1.6" transform="translate(-44.448 -46.596)" fill="#c1e490"/>
        <path id="Trazado_1259146" data-name="Trazado 1259146" d="M120.865,25.207c-.573-2.5.958-8.079-1.338-8a1.191,1.191,0,0,0-1.2,1.266l-.075,6.858c-3.785-5.833-3.063-11.313,1.336-16.457,4.375,5.42,5.065,11.075,1.276,16.328" transform="translate(-76.58 -5.872)" fill="#bee08e"/>
        <path id="Trazado_1259147" data-name="Trazado 1259147" d="M73.527,141.652c11.211,4.781,14.829,17.828,11.28,28.6-1.852,5.624-6.4,10.5-12.868,9.216a7.838,7.838,0,0,1-5.312-3.515,9.8,9.8,0,0,1-9.219,3.6,7.975,7.975,0,0,1-6.609-5.4c-2.966.845-5.811.435-7.732-1.939-2.627,2.955-4.62,2.241-7.843,2.19a7.9,7.9,0,0,1-6.5,5.146,9.8,9.8,0,0,1-9.216-3.6,7.837,7.837,0,0,1-5.309,3.512c-6.492,1.281-11.012-3.583-12.872-9.214-3.552-10.75.037-23.559,11.027-28.515a1.292,1.292,0,0,1,1.478.2c1.624,1.618-4.138,5.576,3.1,10.442a20.22,20.22,0,0,1,10.4-10.628,1.317,1.317,0,0,1,1.5.163c1.457,1.563-3.335,5.187,1.8,9.461,5.079,4.119,8.909,4.81,12.441,11.365,3.532-6.553,7.349-7.23,12.444-11.363,5.128-4.28.356-7.9,1.8-9.456a1.43,1.43,0,0,1,1.68-.1A20.229,20.229,0,0,1,69.2,152.392c7.059-4.7,1.741-8.866,2.958-10.279a1.157,1.157,0,0,1,1.367-.461M9.087,160.584a1.164,1.164,0,0,1,.922-1.546,1.214,1.214,0,0,1,1.383.832,19.527,19.527,0,0,0,4,7.3,28.4,28.4,0,0,1,.658-12.286l-2.687-2.227c-2.116-1.753-2.873-4.234-2.517-7.288-7.245,4.506-9.418,13.689-7.934,21.467.932,4.888,4.107,10.823,9.989,10.329a5.444,5.444,0,0,0,4.7-2.893,1.458,1.458,0,0,0-.4-1.7,24.46,24.46,0,0,1-8.115-11.989m25.688,10.784a6.222,6.222,0,0,0,3.465.727,3.328,3.328,0,0,0,3.411-2.709c1.006-4.946-3.157-9.884-7.168-12.316a46.418,46.418,0,0,1-5.873-4.2,8.142,8.142,0,0,1-2.8-7.485c-7.85,4.915-9.811,15.509-7.367,23.637,1.547,4.344,4.247,8.521,9.416,8.158,2.418-.17,4.6-1.532,5.107-4.019a24.087,24.087,0,0,1-8.953-12.916c-.2-.733.733-1.219,1.155-1.223a1.218,1.218,0,0,1,1.221.866,21.947,21.947,0,0,0,8.383,11.482m25-11.56a1.191,1.191,0,0,1,1.566-.709,1.155,1.155,0,0,1,.747,1.368,24.492,24.492,0,0,1-8.929,12.693,5.2,5.2,0,0,0,4.875,3.994c5.28.521,8.066-3.678,9.646-8.118,2.452-8.141.492-18.735-7.365-23.658a8.183,8.183,0,0,1-2.923,7.611,51.112,51.112,0,0,1-5.9,4.181c-3.97,2.422-8.159,7.538-6.961,12.407.866,3.519,5.623,2.63,6.891,1.755a22.2,22.2,0,0,0,8.351-11.525m9.1,12.811c-1.424,1.163.562,4.239,4.352,4.552,5.9.486,9.062-5.457,9.989-10.343,1.476-7.785-.691-16.943-7.935-21.454a7.993,7.993,0,0,1-2.658,7.4l-2.53,2.128a27.707,27.707,0,0,1,.6,12.3c2.122-2.157,3.133-4.816,4.122-7.489a1.206,1.206,0,0,1,2.207.972,24.659,24.659,0,0,1-8.148,11.942" transform="translate(0 -93.614)" fill="#060605"/>
        <path id="Trazado_1259148" data-name="Trazado 1259148" d="M146.307,167.257a22.2,22.2,0,0,1-8.35,11.525c-1.269.875-6.025,1.764-6.891-1.755-1.2-4.869,2.991-9.985,6.961-12.407a51.118,51.118,0,0,0,5.9-4.181,8.184,8.184,0,0,0,2.923-7.611c7.857,4.924,9.816,15.517,7.364,23.659-1.58,4.44-4.367,8.638-9.646,8.118a5.2,5.2,0,0,1-4.875-3.995,24.492,24.492,0,0,0,8.929-12.693,1.156,1.156,0,0,0-.748-1.368,1.191,1.191,0,0,0-1.566.709" transform="translate(-86.534 -101.063)" fill="#addf68"/>
        <path id="Trazado_1259149" data-name="Trazado 1259149" d="M68.857,178.827a21.947,21.947,0,0,1-8.383-11.482,1.218,1.218,0,0,0-1.221-.866c-.422,0-1.354.491-1.156,1.223a24.089,24.089,0,0,0,8.953,12.916c-.507,2.486-2.689,3.848-5.107,4.018-5.168.364-7.869-3.814-9.416-8.158-2.443-8.127-.482-18.722,7.367-23.637a8.141,8.141,0,0,0,2.8,7.485,46.385,46.385,0,0,0,5.873,4.2c4.01,2.432,8.173,7.37,7.167,12.316a3.327,3.327,0,0,1-3.411,2.709,6.221,6.221,0,0,1-3.465-.727" transform="translate(-34.083 -101.073)" fill="#98ca67"/>
        <path id="Trazado_1259150" data-name="Trazado 1259150" d="M13.915,168.022a24.458,24.458,0,0,0,8.115,11.989,1.457,1.457,0,0,1,.4,1.7,5.443,5.443,0,0,1-4.7,2.893c-5.882.494-9.057-5.441-9.989-10.329-1.484-7.778.689-16.961,7.934-21.467-.356,3.054.4,5.535,2.517,7.288l2.687,2.227a28.4,28.4,0,0,0-.659,12.285,19.529,19.529,0,0,1-4-7.3,1.213,1.213,0,0,0-1.383-.832,1.164,1.164,0,0,0-.922,1.546" transform="translate(-4.828 -101.052)" fill="#acdf67"/>
        <path id="Trazado_1259151" data-name="Trazado 1259151" d="M202.439,180.059a24.659,24.659,0,0,0,8.148-11.942,1.206,1.206,0,0,0-2.207-.972c-.989,2.673-2,5.331-4.122,7.489a27.707,27.707,0,0,0-.6-12.3l2.53-2.128a7.993,7.993,0,0,0,2.658-7.4c7.244,4.511,9.411,13.668,7.935,21.454-.927,4.886-4.089,10.828-9.989,10.343-3.791-.312-5.776-3.389-4.352-4.552" transform="translate(-133.565 -101.054)" fill="#98ca66"/>
      </g>
    </g>
  </g>
</svg>
