<svg xmlns="http://www.w3.org/2000/svg" xmlns:xlink="http://www.w3.org/1999/xlink" width="129.063" height="83.263" viewBox="0 0 129.063 83.263">
  <defs>
    <clipPath id="clip-path">
      <rect id="Rect치ngulo_411686" data-name="Rect치ngulo 411686" width="73.91" height="83.262" fill="none"/>
    </clipPath>
  </defs>
  <g id="Grupo_1213338" data-name="Grupo 1213338" transform="translate(0 -7.244)">
    <g id="Rect치ngulo_410589" data-name="Rect치ngulo 410589" transform="translate(0 35.344)" fill="#5a8441" stroke="#3e5b2c" stroke-width="1">
      <rect width="129.063" height="43.021" rx="8" stroke="none"/>
      <rect x="0.5" y="0.5" width="128.063" height="42.021" rx="7.5" fill="none"/>
    </g>
    <g id="Grupo_1213305" data-name="Grupo 1213305" transform="translate(27.576 7.244)">
      <g id="Grupo_1213304" data-name="Grupo 1213304" clip-path="url(#clip-path)">
        <path id="Trazado_1259969" data-name="Trazado 1259969" d="M198.468,136.216a4.55,4.55,0,1,1-4.55-4.55,4.55,4.55,0,0,1,4.55,4.55m-2.613-.009a1.938,1.938,0,1,0-1.938,1.938,1.938,1.938,0,0,0,1.938-1.938" transform="translate(-129.477 -90.025)" fill="#2a2a28"/>
        <path id="Trazado_1259970" data-name="Trazado 1259970" d="M201.5,141.833a1.938,1.938,0,1,1-1.938-1.938,1.938,1.938,0,0,1,1.938,1.938" transform="translate(-135.122 -95.651)" fill="#f8c73d"/>
        <path id="Trazado_1259971" data-name="Trazado 1259971" d="M13.306,45.688a4.551,4.551,0,1,1-4.551-4.55,4.551,4.551,0,0,1,4.551,4.55m-2.615,0a1.937,1.937,0,1,0-1.937,1.937,1.937,1.937,0,0,0,1.937-1.937" transform="translate(-2.875 -28.127)" fill="#292a29"/>
        <path id="Trazado_1259972" data-name="Trazado 1259972" d="M20.837,82.843c.245-1.374.6-2,1.839-2.283a13.746,13.746,0,0,1,13.332,3.973,13.492,13.492,0,0,1,2.713,13.733,13.48,13.48,0,0,1-13.5-2.456,13.665,13.665,0,0,1-4.388-12.966M36.865,94.471A10.76,10.76,0,0,0,25.107,82.843Zm-1.953,1.856L23.267,84.747a10.609,10.609,0,0,0,11.646,11.58" transform="translate(-14.082 -54.827)" fill="#292828"/>
        <path id="Trazado_1259973" data-name="Trazado 1259973" d="M40.588,106.186a10.609,10.609,0,0,1-11.646-11.58Z" transform="translate(-19.757 -64.685)" fill="#d09269"/>
        <path id="Trazado_1259974" data-name="Trazado 1259974" d="M46.619,100.116,34.861,88.487a10.76,10.76,0,0,1,11.758,11.628" transform="translate(-23.836 -60.471)" fill="#d19369"/>
        <path id="Trazado_1259975" data-name="Trazado 1259975" d="M16.341,51.332A1.937,1.937,0,1,1,14.4,49.4a1.937,1.937,0,0,1,1.937,1.937" transform="translate(-8.524 -33.773)" fill="#7dc64e"/>
        <path id="Trazado_1259976" data-name="Trazado 1259976" d="M116.738,80.556a10.15,10.15,0,0,1-10.553-6.917,9.376,9.376,0,0,1,4.355-11.16,11.1,11.1,0,0,0,5.025-6.374,9.308,9.308,0,0,1,7.994-6.636,10.2,10.2,0,0,1,11.211,10.8,18.774,18.774,0,0,1-2.442,8.607c-3.272,5.67-8.558,10.952-15.59,11.684m-.454-2.6a14.991,14.991,0,0,0,8.765-4.071c4.146-3.778,7.655-9.422,7.024-15.292a7.522,7.522,0,0,0-7.794-6.58,6.835,6.835,0,0,0-6.316,5.08,13.465,13.465,0,0,1-6.061,7.6,6.782,6.782,0,0,0-3.122,8.457,7.485,7.485,0,0,0,7.5,4.806" transform="translate(-72.268 -33.781)" fill="#2a2928"/>
        <path id="Trazado_1259977" data-name="Trazado 1259977" d="M121.9,83.571a7.485,7.485,0,0,1-7.5-4.806,6.782,6.782,0,0,1,3.123-8.457,13.467,13.467,0,0,0,6.061-7.6,6.834,6.834,0,0,1,6.316-5.08,7.521,7.521,0,0,1,7.794,6.58c.631,5.871-2.877,11.515-7.024,15.292a14.993,14.993,0,0,1-8.765,4.071m6.11-18.392c.061-.868-.281-1.517-1.127-1.612a1.315,1.315,0,0,0-1.424,1.174,7.3,7.3,0,0,1-5.484,6.706,1.334,1.334,0,0,0-.955,1.651c.623,2.474,8.494-.9,8.991-7.919" transform="translate(-77.887 -39.396)" fill="#f4a339"/>
        <path id="Trazado_1259978" data-name="Trazado 1259978" d="M138.961,78.025c-.5,7.016-8.368,10.393-8.991,7.919a1.334,1.334,0,0,1,.955-1.651,7.3,7.3,0,0,0,5.484-6.706,1.315,1.315,0,0,1,1.424-1.174c.847.095,1.189.744,1.127,1.612" transform="translate(-88.835 -52.242)" fill="#2b2925"/>
        <path id="Trazado_1259979" data-name="Trazado 1259979" d="M140.655,6.5a6.5,6.5,0,1,1-6.5-6.5,6.5,6.5,0,0,1,6.5,6.5m-2.606-.01a3.894,3.894,0,1,0-3.894,3.894,3.894,3.894,0,0,0,3.894-3.894" transform="translate(-87.281)" fill="#292a29"/>
        <path id="Trazado_1259980" data-name="Trazado 1259980" d="M143.687,12.106a3.894,3.894,0,1,1-3.894-3.894,3.894,3.894,0,0,1,3.894,3.894" transform="translate(-92.919 -5.615)" fill="#7dc64e"/>
        <path id="Trazado_1259981" data-name="Trazado 1259981" d="M70.137,19.234A9.075,9.075,0,0,1,61.1,25.5c-4.219-.282-7.634-2.67-10.208-5.78a16.25,16.25,0,0,1-3.953-9.277A9.084,9.084,0,0,1,56.232.42a7.181,7.181,0,0,1,6.8,5.424,7.63,7.63,0,0,0,3.722,4.645,7.22,7.22,0,0,1,3.379,8.744m-2.23-2.244c.269-4.971-5.455-3.574-7.4-10.487A4.631,4.631,0,0,0,55.861,3a6.516,6.516,0,0,0-6.325,7.186,13.532,13.532,0,0,0,3.312,7.8c2.116,2.577,4.833,4.581,8.31,4.879a6.334,6.334,0,0,0,6.749-5.874" transform="translate(-32.073 -0.284)" fill="#2a2a28"/>
        <path id="Trazado_1259982" data-name="Trazado 1259982" d="M73.546,22.569A6.334,6.334,0,0,1,66.8,28.443c-3.477-.3-6.195-2.3-8.31-4.879a13.528,13.528,0,0,1-3.312-7.8A6.515,6.515,0,0,1,61.5,8.574a4.631,4.631,0,0,1,4.649,3.507c1.943,6.913,7.666,5.516,7.4,10.487m-8.388-7.327a1.332,1.332,0,0,0-1.541-1c-2.313.516-.189,5.224,3.123,6.723a1.293,1.293,0,0,0,1.7-.654c.738-2.033-2.348-1.374-3.282-5.071" transform="translate(-37.712 -5.862)" fill="#fbc93d"/>
        <path id="Trazado_1259983" data-name="Trazado 1259983" d="M81.348,27.446c.934,3.7,4.02,3.038,3.282,5.071a1.293,1.293,0,0,1-1.7.654c-3.312-1.5-5.436-6.206-3.123-6.723a1.332,1.332,0,0,1,1.541,1" transform="translate(-53.902 -18.066)" fill="#2c2a26"/>
        <path id="Trazado_1259984" data-name="Trazado 1259984" d="M77.718,187.343l-24.846-.011a1.655,1.655,0,0,0,.468-2.119l-3.213-7.428a1.291,1.291,0,0,0-1.273-.812l-13.728-.062A20.377,20.377,0,0,1,21.238,171.2L9.661,160.3a4.649,4.649,0,0,1-.18-6.479,4.732,4.732,0,0,1,6.591-.449L26.3,162.6l7.692.061a11.478,11.478,0,0,0,9.429,5.173l7.29.009a1.329,1.329,0,0,0,1.223-1.409,1.313,1.313,0,0,0-1.432-1.21l-6.63.016a9.11,9.11,0,0,1-9.151-7.792l19.553.009a14.84,14.84,0,0,1,13.551,8.857l9.227,20.244c.17.374.519.523.666.782" transform="translate(-5.644 -104.091)" fill="#f2b8a4"/>
        <path id="Trazado_1259985" data-name="Trazado 1259985" d="M72.074,181.529c-.147-.259-.5-.408-.666-.782L62.181,160.5a14.84,14.84,0,0,0-13.551-8.857l-19.553-.009a9.11,9.11,0,0,0,9.151,7.792l6.63-.016a1.313,1.313,0,0,1,1.432,1.21,1.329,1.329,0,0,1-1.223,1.409l-7.29-.009a11.478,11.478,0,0,1-9.429-5.173l-7.692-.061-10.228-9.232A4.732,4.732,0,0,0,3.837,148a4.649,4.649,0,0,0,.18,6.479l11.578,10.9A20.377,20.377,0,0,0,29.482,171.1l13.728.062a1.291,1.291,0,0,1,1.273.812L47.7,179.4a1.655,1.655,0,0,1-.468,2.119c-.71.061-1.451.016-1.718-.6l-3.087-7.134-13.2-.084a22.1,22.1,0,0,1-14.979-6.036L2.186,156.327A7.217,7.217,0,0,1,1.9,146.268c2.475-2.766,6.963-3.541,9.87-.941l9.892,8.849,5.295-.02c-.338-1.163-1.308-5.169.5-5.16l22.1.109c6.649.033,12.31,4.428,15.012,10.356l9.236,20.269a1.361,1.361,0,0,1-.308,1.46c-.4.439-.923.339-1.424.338" transform="translate(0 -98.276)" fill="#2b2a2a"/>
      </g>
    </g>
  </g>
</svg>
