<svg xmlns="http://www.w3.org/2000/svg" xmlns:xlink="http://www.w3.org/1999/xlink" width="114.862" height="117.092" viewBox="0 0 114.862 117.092">
  <defs>
    <filter id="Rectángulo_410591" x="0" y="0" width="73" height="117.092" filterUnits="userSpaceOnUse">
      <feOffset dy="3" input="SourceAlpha"/>
      <feGaussianBlur stdDeviation="3" result="blur"/>
      <feFlood flood-opacity="0.161"/>
      <feComposite operator="in" in2="blur"/>
      <feComposite in="SourceGraphic"/>
    </filter>
    <clipPath id="clip-path">
      <rect id="Rectángulo_411697" data-name="Rectángulo 411697" width="90.157" height="90.133" fill="none"/>
    </clipPath>
  </defs>
  <g id="Grupo_1201022" data-name="Grupo 1201022" transform="translate(-242.85 -5760.451)">
    <g transform="matrix(1, 0, 0, 1, 242.85, 5760.45)" filter="url(#Rectángulo_410591)">
      <path id="Rectángulo_410591-2" data-name="Rectángulo 410591" d="M10,0H45A10,10,0,0,1,55,10V99.092a0,0,0,0,1,0,0H0a0,0,0,0,1,0,0V10A10,10,0,0,1,10,0Z" transform="translate(9 6)" fill="#fff4da"/>
    </g>
    <g id="Grupo_1213323" data-name="Grupo 1213323" transform="translate(267.555 5775.41)">
      <g id="Grupo_1213322" data-name="Grupo 1213322" clip-path="url(#clip-path)">
        <path id="Trazado_1260142" data-name="Trazado 1260142" d="M56.61,9.4c-.215.465-.812,1.144-1.489.954a35.184,35.184,0,0,0-6.947-.923,39.566,39.566,0,0,0-11.053.521A10.075,10.075,0,0,0,41.467,18.2c1.34.864,2.449,2.034,4.456,2.295L55.1,21.69c7.08.92,12.459,6.461,12.522,13.634.044,4.908,2.685,7.492,6.214,10.623,2.7-9.493,2.9-19.962-4.1-27.6a24.457,24.457,0,0,0-8.627-6,1.749,1.749,0,0,1-1.192-2.077,1.778,1.778,0,0,1,2.021-.48,31.707,31.707,0,0,1,7.943,4.924,16.849,16.849,0,0,0,5.85-10.732C76.013,2.17,76.752.634,78.484.16a3.678,3.678,0,0,1,4.3,1.534c3.529,6.778,4.564,15.41,1.444,22.695A16.492,16.492,0,0,1,89.8,32.271a8.362,8.362,0,0,1-5.98,10.476,21.309,21.309,0,0,1-6.622.72A60.194,60.194,0,0,1,65.644,67.831C68.405,77.1,62.694,84.989,54.326,88.4c-9.248,3.67-21.043,1.546-27.28-6.55A15.29,15.29,0,0,1,24.51,67.839a51.3,51.3,0,0,1-3.833-5.49c-.343-.611.069-1.284.373-1.716,2.142-.907,2.795,2.573,4.691,4.377a20.413,20.413,0,0,1,5.612-6.062l-4.019-3.6a9.89,9.89,0,0,1-3.418-7.22C23.842,42,19.643,40.663,14.788,38a54.777,54.777,0,0,0,5.381,18.092L19.7,57.887c-.464-.219-1.313-.083-1.8-.552A56.628,56.628,0,0,1,12.969,43.46a20.6,20.6,0,0,1-6.808-.771,8.385,8.385,0,0,1-5.5-11.33,16.587,16.587,0,0,1,5.267-6.928C2.864,17.2,3.762,8.611,7.37,1.691A3.7,3.7,0,0,1,11.677.158c1.731.47,2.468,2.022,2.746,3.831a16.854,16.854,0,0,0,5.853,10.735C29.691,6.6,43.866,5.214,55.532,7.717A1.426,1.426,0,0,1,56.61,9.4m-46.381,16.7c-.25.878,1.265,2.891,2.084,3.406a24.7,24.7,0,0,1,6.023-12.81c-.53-.929-1.464-1.241-1.937-1.865A23.127,23.127,0,0,1,11.678,3.753a1.315,1.315,0,0,0-.9-1.107,1.133,1.133,0,0,0-1.311.686c-3.393,7.216-3.952,15.115-.045,22.249.208.38.452.578.81.512m63.53-11.271c-.471.624-1.407.937-1.936,1.867a24.7,24.7,0,0,1,6.021,12.818c.831-.538,2.336-2.545,2.088-3.413.354.06.6-.135.809-.514,3.908-7.152,3.335-15.007-.048-22.247a1.162,1.162,0,0,0-1.127-.722,1.278,1.278,0,0,0-1.086,1.142,23.2,23.2,0,0,1-4.722,11.069m-7.5,47.484a51.983,51.983,0,0,0,6.67-13.37l-4.187-4.225a13.94,13.94,0,0,1-3.81-9.785c-.151-5.813-4.763-9.93-10.39-10.643l-7.266-.92a18.551,18.551,0,0,1-7.057-2.415c-3.188-2.626-5.5-6.1-5.713-10.452C23.878,13.144,15.868,20.039,14.75,31.41a10.739,10.739,0,0,0-.089,3.31L21.607,38.8a10.26,10.26,0,0,1,4.911,8.805,7.684,7.684,0,0,0,2.568,5.75l4.688,4.128c10.287-5.242,24.676-2.662,30.636,7.5a11.576,11.576,0,0,0,1.849-2.68M5.123,29.149A8.47,8.47,0,0,0,2.7,33.93c-.6,4.063,3.225,6.746,6.992,6.782a7.672,7.672,0,0,0,2.7-.031,52.186,52.186,0,0,1-.444-7.339,32.4,32.4,0,0,1-4.787-6.359,5.007,5.007,0,0,0-2.042,2.168M80.462,40.71c3.728-.1,7.631-2.652,6.993-6.774a8.449,8.449,0,0,0-2.422-4.785A4.715,4.715,0,0,0,83,26.977,32.3,32.3,0,0,1,78.2,33.343a52.809,52.809,0,0,1-.44,7.353,7.726,7.726,0,0,0,2.7.014M46.6,87.328a19.139,19.139,0,0,0,13.476-5.943,12.74,12.74,0,0,0,.276-17.528c-3.6-4.087-8.7-6.044-14.2-6.275A20.641,20.641,0,0,0,31.63,62.1a13.5,13.5,0,0,0-5.184,10.626C26.684,82.6,37.757,88.2,46.6,87.328" transform="translate(0 0)" fill="#060505"/>
        <path id="Trazado_1260143" data-name="Trazado 1260143" d="M177.008,36.677l3.311.878a1.749,1.749,0,0,0,1.192,2.076,24.458,24.458,0,0,1,8.627,6c7,7.639,6.8,18.107,4.1,27.6-3.529-3.131-6.17-5.715-6.214-10.623-.064-7.173-5.442-12.714-12.522-13.634l-9.18-1.193c-2.007-.261-3.116-1.431-4.456-2.295a73.1,73.1,0,0,1,6.707-8.774,35.2,35.2,0,0,1,6.947.923c.677.19,1.274-.489,1.489-.954" transform="translate(-120.398 -27.281)" fill="#e2996f"/>
        <path id="Trazado_1260144" data-name="Trazado 1260144" d="M63.987,170.965l-1.345-2.746.464-1.794a54.773,54.773,0,0,1-5.381-18.092c4.855,2.662,9.054,4,9.129,10.133a9.89,9.89,0,0,0,3.418,7.22l4.018,3.6a20.419,20.419,0,0,0-5.612,6.062c-1.9-1.8-2.549-5.285-4.691-4.377" transform="translate(-42.937 -110.332)" fill="#d87d56"/>
        <path id="Trazado_1260145" data-name="Trazado 1260145" d="M171.439,123.128c-.1.121-.255.079-.373-.088-4.8-6.819-12.825-10.2-21.051-10.14a7.789,7.789,0,0,1-7.895-6.286A38.937,38.937,0,0,1,145.4,81.771a18.557,18.557,0,0,0,7.057,2.415l7.266.919c5.628.712,10.24,4.83,10.391,10.643a13.937,13.937,0,0,0,3.81,9.785l4.187,4.226a51.988,51.988,0,0,1-6.67,13.37m-6.658-25.314,0-1.939a1.3,1.3,0,0,0-1.32-1.38c-1.605,0-1.337,2.108-1.284,3.433a1.306,1.306,0,1,0,2.607-.114" transform="translate(-105.18 -60.823)" fill="#f7eac9"/>
        <path id="Trazado_1260146" data-name="Trazado 1260146" d="M82.493,51.426a38.935,38.935,0,0,0-3.276,24.843,7.788,7.788,0,0,0,7.895,6.286c8.226-.058,16.248,3.321,21.051,10.14.118.168.27.21.372.089a11.575,11.575,0,0,1-1.849,2.68c-5.961-10.16-20.349-12.74-30.636-7.5L71.36,83.837a7.685,7.685,0,0,1-2.568-5.751,10.261,10.261,0,0,0-4.911-8.805L56.936,65.2a10.747,10.747,0,0,1,.089-3.31c1.119-11.371,9.128-18.266,19.755-20.913.213,4.348,2.525,7.826,5.713,10.452M75.417,65.318a1.267,1.267,0,0,0-1.256-1.165c-1.726.017-1.471,2.674-1.233,3.856a1.2,1.2,0,0,0,1.467.86c1.325-.258,1.154-2.184,1.022-3.551" transform="translate(-42.275 -30.477)" fill="#f3dab6"/>
        <path id="Trazado_1260147" data-name="Trazado 1260147" d="M294.087,33.66a26.894,26.894,0,0,0-6.174-11.271,23.193,23.193,0,0,0,4.722-11.069,1.279,1.279,0,0,1,1.086-1.142,1.162,1.162,0,0,1,1.127.722c3.383,7.24,3.956,15.094.048,22.247-.207.38-.455.574-.809.514" transform="translate(-214.154 -7.566)" fill="#5a576b"/>
        <path id="Trazado_1260148" data-name="Trazado 1260148" d="M35.851,22.4a26.8,26.8,0,0,0-6.171,11.269c-.358.066-.6-.132-.81-.512-3.907-7.134-3.348-15.033.045-22.249a1.133,1.133,0,0,1,1.311-.686,1.315,1.315,0,0,1,.9,1.107A23.13,23.13,0,0,0,35.851,22.4" transform="translate(-19.451 -7.572)" fill="#5a576b"/>
        <path id="Trazado_1260149" data-name="Trazado 1260149" d="M155.953,36.331a73.093,73.093,0,0,0-6.706,8.774,10.073,10.073,0,0,1-4.346-8.253,39.564,39.564,0,0,1,11.053-.521" transform="translate(-107.779 -26.904)" fill="#d77d55"/>
        <path id="Trazado_1260150" data-name="Trazado 1260150" d="M17.363,125.344c-3.767-.036-7.594-2.719-6.992-6.782a8.47,8.47,0,0,1,2.42-4.78c.844.856,1.342,2,2.186,3,2.676,3.177,1.585,4.923,2.387,8.56" transform="translate(-7.667 -84.633)" fill="#f1d8b5"/>
        <path id="Trazado_1260151" data-name="Trazado 1260151" d="M314.078,125.346c.763-3.311-.228-5.525,2.28-8.42.887-1.024,1.415-2.236,2.291-3.139a8.453,8.453,0,0,1,2.422,4.785c.638,4.122-3.265,6.673-6.993,6.774" transform="translate(-233.616 -84.636)" fill="#f1d8b5"/>
        <path id="Trazado_1260152" data-name="Trazado 1260152" d="M24.572,119.05c-.8-3.637.29-5.383-2.387-8.56-.843-1-1.342-2.146-2.186-3a5,5,0,0,1,2.042-2.168,32.4,32.4,0,0,0,4.787,6.359,52.23,52.23,0,0,0,.445,7.34,7.666,7.666,0,0,1-2.7.031" transform="translate(-14.876 -78.339)" fill="#ecca9e"/>
        <path id="Trazado_1260153" data-name="Trazado 1260153" d="M310.811,107.476c-.876.9-1.4,2.115-2.291,3.139-2.508,2.9-1.517,5.109-2.28,8.42a7.726,7.726,0,0,1-2.7-.014,52.761,52.761,0,0,0,.44-7.353,32.332,32.332,0,0,0,4.793-6.366,4.713,4.713,0,0,1,2.037,2.174" transform="translate(-225.778 -78.325)" fill="#ecca9e"/>
        <path id="Trazado_1260154" data-name="Trazado 1260154" d="M39.849,69.132A26.791,26.791,0,0,1,46.02,57.863c.472.624,1.407.936,1.937,1.865a24.7,24.7,0,0,0-6.023,12.81c-.82-.514-2.334-2.528-2.084-3.405" transform="translate(-29.62 -43.039)" fill="#4d4b5c"/>
        <path id="Trazado_1260155" data-name="Trazado 1260155" d="M288.468,69.129c.247.869-1.257,2.875-2.088,3.413a24.7,24.7,0,0,0-6.021-12.818c.528-.929,1.464-1.243,1.935-1.867a26.894,26.894,0,0,1,6.174,11.271" transform="translate(-208.535 -43.036)" fill="#4d4b5c"/>
        <path id="Trazado_1260156" data-name="Trazado 1260156" d="M224.939,134.756a1.306,1.306,0,1,1-2.607.114c-.053-1.325-.321-3.435,1.284-3.433a1.3,1.3,0,0,1,1.32,1.38Z" transform="translate(-165.338 -97.765)" fill="#0e0c0a"/>
        <path id="Trazado_1260157" data-name="Trazado 1260157" d="M121.648,132.616c.132,1.367.3,3.293-1.022,3.551a1.2,1.2,0,0,1-1.467-.86c-.237-1.183-.493-3.839,1.233-3.856a1.267,1.267,0,0,1,1.256,1.165" transform="translate(-88.505 -97.775)" fill="#0e0c0a"/>
        <path id="Trazado_1260158" data-name="Trazado 1260158" d="M150.56,254.509c-3.066-1.574-6.055-3.253-8.194-6.159-.239-.325-.411-.616-.3-.943,1.856-.23,3.206-2.349,3.1-4.151-.193-3.16-2.472-5.444-5.376-6.45a5.2,5.2,0,0,1,.625-2.529,17.72,17.72,0,0,1,9.052-8.837c.38-.176.663-.322.653-.679,5.5.231,10.6,2.188,14.2,6.275a12.74,12.74,0,0,1-.275,17.528,19.14,19.14,0,0,1-13.476,5.944m7.115-7.134a7.211,7.211,0,0,0,5.888-5.911,4.047,4.047,0,0,0-1.186-3.7,4.125,4.125,0,0,0-3.425-1.008,7.153,7.153,0,0,0-6.021,6.45,3.948,3.948,0,0,0,4.744,4.17" transform="translate(-103.963 -167.182)" fill="#f2d9cb"/>
        <path id="Trazado_1260159" data-name="Trazado 1260159" d="M122.923,224.692c.009.357-.274.5-.653.678a17.721,17.721,0,0,0-9.052,8.837,5.2,5.2,0,0,0-.624,2.529,4.769,4.769,0,0,0-3.907.8,4.081,4.081,0,0,0-1.359,3.87,7.092,7.092,0,0,0,7.547,5.928c-.108.327.063.617.3.942,2.139,2.905,5.127,4.584,8.194,6.159-8.84.877-19.913-4.728-20.151-14.6A13.494,13.494,0,0,1,108.4,229.21a20.641,20.641,0,0,1,14.519-4.518" transform="translate(-76.774 -167.111)" fill="#ecc5b9"/>
        <path id="Trazado_1260160" data-name="Trazado 1260160" d="M195.861,282.044a3.949,3.949,0,0,1-4.744-4.17,7.153,7.153,0,0,1,6.021-6.45,4.125,4.125,0,0,1,3.425,1.007,4.047,4.047,0,0,1,1.187,3.7,7.212,7.212,0,0,1-5.888,5.911m3.3-6.468a1.462,1.462,0,0,0-.386-1.159c-1.045-1.054-4.593.339-5.038,3.5a1.468,1.468,0,0,0,.39,1.158c1.087,1.15,4.6-.409,5.034-3.5" transform="translate(-142.149 -201.851)" fill="#060505"/>
        <path id="Trazado_1260161" data-name="Trazado 1260161" d="M124.342,271.512c2.9,1.006,5.183,3.29,5.376,6.45.11,1.8-1.239,3.921-3.1,4.151a7.091,7.091,0,0,1-7.547-5.928,4.081,4.081,0,0,1,1.359-3.87,4.771,4.771,0,0,1,3.907-.8m.282,7.694a2.362,2.362,0,0,0,1.638.156,1.551,1.551,0,0,0,.746-1.706,4.019,4.019,0,0,0-3.149-3.308c-.478-.076-.946-.437-1.54-.1a1.453,1.453,0,0,0-.632,1.548,4.586,4.586,0,0,0,2.937,3.409" transform="translate(-88.522 -201.887)" fill="#060505"/>
        <path id="Trazado_1260162" data-name="Trazado 1260162" d="M206.763,283.407c-.437,3.091-3.948,4.649-5.034,3.5a1.468,1.468,0,0,1-.39-1.158c.445-3.161,3.994-4.554,5.038-3.5a1.462,1.462,0,0,1,.386,1.159" transform="translate(-149.75 -209.682)" fill="#e5b4aa"/>
        <path id="Trazado_1260163" data-name="Trazado 1260163" d="M138.66,287.71a20.018,20.018,0,0,1-.765-4.858,4.019,4.019,0,0,1,3.149,3.308,1.551,1.551,0,0,1-.745,1.706,2.362,2.362,0,0,1-1.638-.156" transform="translate(-102.558 -210.39)" fill="#ecc5b9"/>
        <path id="Trazado_1260164" data-name="Trazado 1260164" d="M131.54,282.151a20.02,20.02,0,0,0,.765,4.858,4.586,4.586,0,0,1-2.937-3.409,1.453,1.453,0,0,1,.632-1.548c.594-.338,1.062.024,1.54.1" transform="translate(-96.204 -209.688)" fill="#e5b4aa"/>
      </g>
    </g>
  </g>
</svg>
