<svg xmlns="http://www.w3.org/2000/svg" xmlns:xlink="http://www.w3.org/1999/xlink" width="129.063" height="84.952" viewBox="0 0 129.063 84.952">
  <defs>
    <clipPath id="clip-path">
      <rect id="Rect치ngulo_411632" data-name="Rect치ngulo 411632" width="85" height="84.952" fill="none"/>
    </clipPath>
  </defs>
  <g id="_14" data-name="14" transform="translate(-787.781 -2549.312)">
    <g id="Rect치ngulo_410589" data-name="Rect치ngulo 410589" transform="translate(787.781 2575.623)" fill="#ffc94a" stroke="#dfab32" stroke-width="1">
      <rect width="129.063" height="43.021" rx="8" stroke="none"/>
      <rect x="0.5" y="0.5" width="128.063" height="42.021" rx="7.5" fill="none"/>
    </g>
    <g id="Grupo_1213237" data-name="Grupo 1213237" transform="translate(809.858 2549.312)">
      <g id="Grupo_1213236" data-name="Grupo 1213236" clip-path="url(#clip-path)">
        <path id="Trazado_1259152" data-name="Trazado 1259152" d="M28.991,115.745a1.412,1.412,0,0,0,1.495,1.208l6.833.047c-3.171,2.986-1.958,2.652-6.812,2.571a6.545,6.545,0,0,0-6.863,6.654,6.438,6.438,0,0,0,7.218,6.139c-.135,3.521,1.8,6.468,5.245,7.212a6.528,6.528,0,0,0,4.465,5.406c2.716.958,5.166-.551,7.055-1.953,2.071,1.658,4.433,2.777,7.254,1.978,2.418-.685,3.423-3.191,4.558-5.156,2.69-1.6,5.478-3.567,4.938-7.556a6.315,6.315,0,0,0,7.268-6.057,6.51,6.51,0,0,0-6.6-6.663c-3.98-.051-4.239.809-6.861-2.617l27.4.01v40.767c0,.706-.3,1.009-1.032,1.009l-76.881.024L7.6,116.96l16.62-.011a1.36,1.36,0,0,0,1.466-1.206,27.021,27.021,0,0,1,3.309,0m-13.635,7.667a1.236,1.236,0,1,0-1.236,1.236,1.236,1.236,0,0,0,1.236-1.236m2.572,7.741a1.228,1.228,0,1,0-1.228,1.228,1.228,1.228,0,0,0,1.228-1.228m14.727,16.056a13.53,13.53,0,0,1-1.424-2.46c-.067-.486.5-1.047.345-1.624l-4.546-7.988a2.939,2.939,0,0,0-2.444-1.537,2.855,2.855,0,0,0-2.718,1.515L11,153.948a2.788,2.788,0,0,0,.18,2.933,3.194,3.194,0,0,0,2.669,1.351l21.216,0a3.125,3.125,0,0,0,2.638-1.371,2.91,2.91,0,0,0,.01-3.212L34.163,147.6c-.3-.509-1.092-.3-1.508-.386M77.243,136.3a1.23,1.23,0,1,0-1.23,1.229,1.23,1.23,0,0,0,1.23-1.229m7.738,7.734a1.235,1.235,0,1,0-1.236,1.235,1.235,1.235,0,0,0,1.236-1.235M69.5,146.614a1.228,1.228,0,1,0-1.228,1.227,1.228,1.228,0,0,0,1.228-1.227m-20.616,7.735a1.24,1.24,0,1,0-1.24,1.24,1.24,1.24,0,0,0,1.24-1.24" transform="translate(-5.145 -78.37)" fill="#df9873"/>
        <path id="Trazado_1259153" data-name="Trazado 1259153" d="M20.537,113.117a1.359,1.359,0,0,1-1.466,1.206l-16.621.011.07,41.81a6.512,6.512,0,0,0,.039,2.084l79.963.007.023-23.354a1.245,1.245,0,0,1,1.226-1.292,1.316,1.316,0,0,1,1.229,1.3v23.62a2.074,2.074,0,0,1-2.216,2.187H2.219A2.087,2.087,0,0,1,0,158.493L0,113.9a2.018,2.018,0,0,1,1.97-2.064l17.3-.019a1.273,1.273,0,0,1,1.262,1.3" transform="translate(0 -75.744)" fill="#020202"/>
        <path id="Trazado_1259154" data-name="Trazado 1259154" d="M88.919,135.441l-.008,3.305a1.244,1.244,0,0,0-1.226,1.292l-.023,23.354L7.7,163.386A6.512,6.512,0,0,1,7.66,161.3l76.881-.024c.729,0,1.032-.3,1.032-1.009V119.5a6.262,6.262,0,0,1,2.092.046l.023,14.682a1.223,1.223,0,0,0,1.233,1.212" transform="translate(-5.139 -80.901)" fill="#d48356"/>
        <path id="Trazado_1259155" data-name="Trazado 1259155" d="M130.377,232.91a1.24,1.24,0,1,1-1.24-1.24,1.24,1.24,0,0,1,1.24,1.24" transform="translate(-86.635 -156.931)" fill="#0a0705"/>
        <path id="Trazado_1259156" data-name="Trazado 1259156" d="M194.333,208.961a1.228,1.228,0,1,1-1.228-1.227,1.228,1.228,0,0,1,1.228,1.227" transform="translate(-129.976 -140.717)" fill="#0c0806"/>
        <path id="Trazado_1259157" data-name="Trazado 1259157" d="M242.282,200.961a1.235,1.235,0,1,1-1.235-1.235,1.235,1.235,0,0,1,1.235,1.235" transform="translate(-162.446 -135.292)" fill="#0c0806"/>
        <path id="Trazado_1259158" data-name="Trazado 1259158" d="M26.458,137.026a1.236,1.236,0,1,1-1.236-1.236,1.236,1.236,0,0,1,1.236,1.236" transform="translate(-16.248 -91.983)" fill="#0a0705"/>
        <path id="Trazado_1259159" data-name="Trazado 1259159" d="M34.466,161.039a1.228,1.228,0,1,1-1.228-1.227,1.228,1.228,0,0,1,1.228,1.227" transform="translate(-21.683 -108.255)" fill="#0a0705"/>
        <path id="Trazado_1259160" data-name="Trazado 1259160" d="M218.319,177a1.23,1.23,0,1,1-1.23-1.229,1.23,1.23,0,0,1,1.23,1.229" transform="translate(-146.221 -119.066)" fill="#0a0705"/>
        <path id="Trazado_1259161" data-name="Trazado 1259161" d="M122.611,54.54a1.222,1.222,0,0,1-1.232-1.212l-.023-14.682a6.272,6.272,0,0,0-2.092-.046l-27.4-.01c2.622,3.426,2.881,2.566,6.861,2.617a6.51,6.51,0,0,1,6.6,6.663,6.315,6.315,0,0,1-7.268,6.057c.54,3.988-2.248,5.959-4.938,7.556-1.135,1.965-2.139,4.472-4.557,5.156-2.822.8-5.183-.32-7.255-1.978-1.89,1.4-4.339,2.912-7.055,1.953a6.529,6.529,0,0,1-4.465-5.406c-3.442-.744-5.38-3.691-5.245-7.212a6.439,6.439,0,0,1-7.218-6.139A6.545,6.545,0,0,1,64.192,41.2c4.855.081,3.641.416,6.812-2.571l-6.833-.047a1.412,1.412,0,0,1-1.495-1.208A1.367,1.367,0,0,1,64.2,36.062l15.883-.022-.073-19.929c-.013-3.408-3.108-5.848-6.251-5.885a6.4,6.4,0,0,0-6.464,5.917l2.168,2.221a8.65,8.65,0,0,1,.053,12.061c-1.355,1.438-3.176,3.808-4.959,2.02l-1.8-1.807a8.815,8.815,0,0,1,.542-12.978c.472-.414,1.317-1.083,1.474-1.678a8.991,8.991,0,0,1,15.287-5.669C79.57,4.769,83.361.193,88.7.005a8.912,8.912,0,0,1,9.165,9.643A2.771,2.771,0,0,0,98.945,12.3a9.235,9.235,0,0,1,3.566,7.1c.031,2.935-1.419,5.3-3.632,7.331-.9.829-2.023,1.955-3.354.959a17.261,17.261,0,0,1-2.84-2.816,8.77,8.77,0,0,1,1.545-12.487A3.026,3.026,0,0,0,95.447,9.63c.114-3.645-2.223-6.81-5.962-7.132-3.241-.28-6.819,2.234-6.828,5.9l-.069,27.661,39.251.025a2.027,2.027,0,0,1,1.982,2.041l0,15.194a1.248,1.248,0,0,1-1.214,1.222m-24.574-39.6-.166,4.506a1.276,1.276,0,0,1-1.2,1.247c-2.187.013-.851-3.874-1.372-5.814a6.162,6.162,0,0,0,.025,9.213,9.757,9.757,0,0,0,1.327,1.241,17,17,0,0,0,2.107-2.152,6.118,6.118,0,0,0-.719-8.241m-30.6,5c-.4,1.785-.024,3-.194,4.426A1.193,1.193,0,0,1,66,25.659c-2.1-.01-.816-3.971-1.347-5.779a6.273,6.273,0,0,0,.478,9.592c.314.255.478.694.87.721.43.029.578-.44.9-.7a6.224,6.224,0,0,0,.535-9.553m17,43.787a3.426,3.426,0,0,0,3.949.2c3.2-1.722.928-5.025,3.305-5.09a4,4,0,0,0,3.875-4.283c-.066-2.017,1.565-3.056,3.345-3.024a3.907,3.907,0,0,0,2.227-7.133,4.106,4.106,0,0,0-2.4-.674l-3.4.006c-3.425.006-4.716-3.3-7.291-5.08a11.283,11.283,0,0,0-3.563-.014l7.692,7.74,6.552,0a1.3,1.3,0,0,1,1.424,1.065,1.227,1.227,0,0,1-1.285,1.412l-5.971.068-.018,5.852a1.254,1.254,0,0,1-1.086,1.347,1.228,1.228,0,0,1-1.367-1.335l-.043-6.674-7.754-7.672-.037,14.367,4.854,4.956A1.238,1.238,0,0,1,87.23,61.5,1.255,1.255,0,0,1,85.6,61.37l-4.265-4.239L77.066,61.37a1.255,1.255,0,0,1-1.626.131,1.27,1.27,0,0,1-.121-1.874l4.76-4.82-.087-14.335L72.28,48.116l-.042,6.671a1.229,1.229,0,0,1-1.2,1.343,1.247,1.247,0,0,1-1.258-1.353l-.017-5.852-5.972-.069a1.224,1.224,0,0,1-1.3-1.2A1.2,1.2,0,0,1,63.7,46.4l6.869-.075,7.592-7.685c-1.108.055-2.571-.463-3.528.072-1.488.884-2.528,2.45-3.829,3.6-2.351,2.085-3.986,1.224-7.338,1.443a3.9,3.9,0,1,0,.51,7.777,2.927,2.927,0,0,1,3.12,3.008,3.962,3.962,0,0,0,3.889,4.274c2.362.068.029,3.7,3.6,5.247a3.962,3.962,0,0,0,4.472-.931,2.977,2.977,0,0,1,4.418-.1,2.6,2.6,0,0,0,.96.7" transform="translate(-38.831 0)" fill="#060606"/>
        <path id="Trazado_1259162" data-name="Trazado 1259162" d="M106.371,125.178a5.435,5.435,0,0,1-1.04,4.663c-2.646,3.19-6.267.593-6.14,3.8A5.089,5.089,0,0,1,95,138.91a1.051,1.051,0,0,0-.969,1,5.05,5.05,0,0,1-4.364,4.6,2.6,2.6,0,0,1-.96-.7,2.978,2.978,0,0,0-4.418.1,3.963,3.963,0,0,1-4.472.931c-3.569-1.547-1.237-5.179-3.6-5.247a3.962,3.962,0,0,1-3.889-4.274,2.927,2.927,0,0,0-3.119-3.008,3.9,3.9,0,1,1-.51-7.777c3.353-.219,4.988.643,7.338-1.443,1.3-1.154,2.342-2.719,3.829-3.6.958-.534,2.421-.017,3.528-.072L75.806,127.1l-6.869.075a1.2,1.2,0,0,0-1.207,1.258,1.224,1.224,0,0,0,1.3,1.2L75,129.7l.017,5.852a1.247,1.247,0,0,0,1.259,1.353,1.229,1.229,0,0,0,1.2-1.343l.042-6.671,7.713-7.644.087,14.335-4.76,4.819a1.27,1.27,0,0,0,.121,1.875,1.255,1.255,0,0,0,1.626-.131l4.268-4.239,4.265,4.238a1.256,1.256,0,0,0,1.631.129,1.238,1.238,0,0,0,.218-1.733l-4.854-4.956.036-14.367,7.754,7.672.042,6.674a1.228,1.228,0,0,0,1.367,1.335,1.254,1.254,0,0,0,1.086-1.347l.018-5.852,5.971-.068a1.226,1.226,0,0,0,1.285-1.412,1.3,1.3,0,0,0-1.424-1.065l-6.552,0-7.692-7.74a11.283,11.283,0,0,1,3.563.014c2.575,1.781,3.866,5.086,7.291,5.08l3.4-.006a4.106,4.106,0,0,1,2.4.674" transform="translate(-44.064 -80.773)" fill="#5fd5f4"/>
        <path id="Trazado_1259163" data-name="Trazado 1259163" d="M141.367,156.97a5.051,5.051,0,0,0,4.364-4.6,1.05,1.05,0,0,1,.969-1,5.089,5.089,0,0,0,4.188-5.268c-.127-3.209,3.494-.612,6.14-3.8a5.434,5.434,0,0,0,1.04-4.663,3.907,3.907,0,0,1-2.227,7.133c-1.78-.033-3.411,1.007-3.345,3.023a4,4,0,0,1-3.875,4.283c-2.378.065-.1,3.368-3.305,5.09a3.426,3.426,0,0,1-3.949-.2" transform="translate(-95.761 -93.238)" fill="#03caf4"/>
        <path id="Trazado_1259164" data-name="Trazado 1259164" d="M78.6,61.688a6.224,6.224,0,0,1-.535,9.554c-.321.256-.469.725-.9.7-.392-.027-.556-.466-.87-.721a6.273,6.273,0,0,1-.478-9.592c.531,1.808-.753,5.769,1.347,5.779a1.193,1.193,0,0,0,1.241-1.289c.17-1.422-.208-2.641.194-4.426" transform="translate(-50 -41.743)" fill="#b5e569"/>
        <path id="Trazado_1259165" data-name="Trazado 1259165" d="M173.448,46.195a6.118,6.118,0,0,1,.719,8.241,16.958,16.958,0,0,1-2.107,2.152,9.717,9.717,0,0,1-1.327-1.241,6.161,6.161,0,0,1-.025-9.212c.521,1.94-.815,5.826,1.372,5.813a1.276,1.276,0,0,0,1.2-1.247Z" transform="translate(-114.242 -31.251)" fill="#b6e569"/>
        <path id="Trazado_1259166" data-name="Trazado 1259166" d="M37.681,182.34c-.484-.213-1.375.117-1.729-.47l-4.894-8.108c-.379-.438-.659.574-.833.852-2.621,4.2-7.586,12.767-9.9,17.144-.2.369-1.144,1.448-.344,1.448l22.289,0-3.766-6.844c-.162-.663.286-1.115.6-1.558.416.089,1.209-.123,1.508.386l3.555,6.052a2.91,2.91,0,0,1-.01,3.212,3.126,3.126,0,0,1-2.638,1.371l-21.216,0a3.193,3.193,0,0,1-2.669-1.35,2.788,2.788,0,0,1-.18-2.933l10.863-18.833a2.856,2.856,0,0,1,2.718-1.515,2.939,2.939,0,0,1,2.444,1.537l4.546,7.988c.152.578-.412,1.138-.345,1.624" transform="translate(-11.595 -115.96)" fill="#080604"/>
        <path id="Trazado_1259167" data-name="Trazado 1259167" d="M43.039,187.52a13.526,13.526,0,0,0,1.424,2.46c-.31.442-.758.894-.6,1.558l3.766,6.844-22.289,0c-.8,0,.149-1.078.344-1.448l17,.116a1.706,1.706,0,0,0,1.588-2.431l-8.689-14.828c.174-.278.454-1.29.833-.852l4.894,8.108c.354.587,1.245.256,1.729.47" transform="translate(-16.954 -121.14)" fill="#fbce5a"/>
        <path id="Trazado_1259168" data-name="Trazado 1259168" d="M27.073,198.954c2.309-4.377,7.275-12.946,9.9-17.144l8.689,14.828a1.706,1.706,0,0,1-1.588,2.431Zm11.8-7.854-.021-2.3a1.173,1.173,0,0,0-1.317-1.194c-1.466.067-1.145,1.98-1.137,3.611a1.228,1.228,0,0,0,1.362,1.384c.663-.05,1.121-.552,1.113-1.5m-.006,5.456a1.23,1.23,0,1,0-1.23,1.229,1.23,1.23,0,0,0,1.23-1.229" transform="translate(-18.339 -123.156)" fill="#fcde75"/>
        <path id="Trazado_1259169" data-name="Trazado 1259169" d="M58.374,203.27c.008.95-.45,1.452-1.113,1.5a1.228,1.228,0,0,1-1.362-1.384c-.007-1.63-.329-3.543,1.137-3.61a1.173,1.173,0,0,1,1.317,1.193Z" transform="translate(-37.842 -135.327)" fill="#080704"/>
        <path id="Trazado_1259170" data-name="Trazado 1259170" d="M58.461,224.935a1.23,1.23,0,1,1-1.23-1.229,1.23,1.23,0,0,1,1.23,1.229" transform="translate(-37.935 -151.536)" fill="#0d0b06"/>
      </g>
    </g>
  </g>
</svg>
