<svg xmlns="http://www.w3.org/2000/svg" xmlns:xlink="http://www.w3.org/1999/xlink" width="129.063" height="77.759" viewBox="0 0 129.063 77.759">
  <defs>
    <clipPath id="clip-path">
      <rect id="Rect치ngulo_411634" data-name="Rect치ngulo 411634" width="77.791" height="77.759" fill="none"/>
    </clipPath>
  </defs>
  <g id="_16" data-name="16" transform="translate(-787.781 -2558.254)">
    <g id="Rect치ngulo_410589" data-name="Rect치ngulo 410589" transform="translate(787.781 2575.623)" fill="#ffc94a" stroke="#dfab32" stroke-width="1">
      <rect width="129.063" height="43.021" rx="8" stroke="none"/>
      <rect x="0.5" y="0.5" width="128.063" height="42.021" rx="7.5" fill="none"/>
    </g>
    <g id="Grupo_1213241" data-name="Grupo 1213241" transform="translate(813.417 2558.254)">
      <g id="Grupo_1213240" data-name="Grupo 1213240" clip-path="url(#clip-path)">
        <path id="Trazado_1259214" data-name="Trazado 1259214" d="M77.784,61.19c-.24.131-.363.665-.776.758-3.8.13-7.727-1.77-9.275-5.391-.987-2.308-2.682-4.251-5.4-4.268a8.362,8.362,0,0,1-8.007-5.4,6.61,6.61,0,0,0-5.894-4.319L36.5,42.538l.025,8.295a9.543,9.543,0,0,1,11.961-2.27A10.375,10.375,0,0,1,53.1,55a1.473,1.473,0,0,0,1.315,1.118c5.806.73,9.73,5.165,8.615,11.325a9.643,9.643,0,0,1-9.313,7.831A19.9,19.9,0,0,1,40.932,70.5L36.5,70.465c-5-.041-8.47-4.127-8.322-9.073l.559-18.606c-2.048.461-4.174,1.685-4.96,3.693A8.682,8.682,0,0,1,15.5,52.291c-2.666-.008-4.4,1.977-5.377,4.261-1.545,3.63-5.477,5.541-9.275,5.393-.416-.084-.534-.63-.776-.756a1.59,1.59,0,0,1,.31-1.272,1.426,1.426,0,0,1,1.06-.369c2.572-.1,5.449-1.417,6.447-3.966a8.674,8.674,0,0,1,8.309-5.81,5.771,5.771,0,0,0,5.223-4.121A9.974,9.974,0,0,1,28.8,40.229l.367-12.2-12.33-.046A16.851,16.851,0,0,1,.047,11.279l0-6.414A1.273,1.273,0,0,1,1.224,3.639l16.429.06c6.64.025,12.237,4.146,15.07,10.206C35.731,5.789,42.957.111,51.53.076L70.516,0a1.254,1.254,0,0,1,1.222,1.191l0,6.511c0,11.336-9.528,20.333-20.889,20.278l-14.36.037,0,12.061,11.882.029a9.23,9.23,0,0,1,8.192,5.863,5.949,5.949,0,0,0,5.716,3.891,8.3,8.3,0,0,1,7.6,5.568c1.046,2.639,3.839,4.019,6.553,4.117a1.378,1.378,0,0,1,1.144.489,1.815,1.815,0,0,1,.208,1.155M53.959,7.961a1.522,1.522,0,0,1-.842,1.8c-6.6,3.744-13.435,9.119-17.887,15.725l16.5-.025A17.849,17.849,0,0,0,69.307,7.529l-.037-5.1c-1.047.174-2.114-.241-2.941.065L52.663,2.434A18.359,18.359,0,0,0,34.149,22.765a57.838,57.838,0,0,1,17.886-15.2,1.4,1.4,0,0,1,1.924.393m-39.3,1.764c.4-.377.985-.949,1.67-.562a49.007,49.007,0,0,1,15.22,13.531A14.592,14.592,0,0,0,17.256,6.1L6.937,6.042c-1.379.07-2.743.043-4.411.038l-.052,5.448C2.8,19.02,8.789,25.443,16.393,25.454l14.109.019A46.463,46.463,0,0,0,15.109,11.232c-.563-.329-.429-1.053-.452-1.506m19.436,49.36-.034-31.019a4.887,4.887,0,0,0-2.472.033l-.951,33.233a6.281,6.281,0,0,0,1.869,5.139,6.426,6.426,0,0,0,5.578,1.464,11.588,11.588,0,0,1-3.991-8.85m25.7,10.186a7.251,7.251,0,0,0-.187-7.743,7.632,7.632,0,0,0-5.42-2.969,4.008,4.008,0,0,1-3.507-3.138A7.445,7.445,0,0,0,46.8,50.443a7.094,7.094,0,0,0-7,.59c-2.418,1.739-3.333,4.6-3.3,7.5.055,4.967,1.977,6.53,5.334,9.523,4.953,4.416,14.281,7.608,17.958,1.214" transform="translate(-0.032)"/>
        <path id="Trazado_1259215" data-name="Trazado 1259215" d="M137.959,13.634c.75-.263,1.414-.938,2.238-.94.557,0,1.117.531,1.665.046a1.432,1.432,0,0,0,.489-1.334l7.978-3.241c.827-.306,1.894.109,2.941-.065l.037,5.1A17.849,17.849,0,0,1,135.728,31.13l-16.5.025c4.452-6.607,11.286-11.982,17.887-15.725a1.523,1.523,0,0,0,.842-1.8" transform="translate(-84.031 -5.673)" fill="#5db032"/>
        <path id="Trazado_1259216" data-name="Trazado 1259216" d="M12.735,20.468a.414.414,0,0,0,.3.415,46.8,46.8,0,0,1,7.422,3.268c.023.453-.111,1.178.452,1.506A46.475,46.475,0,0,1,36.3,39.9l-14.109-.019c-7.6-.011-13.589-6.434-13.919-13.926l.052-5.448c1.668.005,3.032.032,4.411-.038" transform="translate(-5.83 -14.426)" fill="#5daf32"/>
        <path id="Trazado_1259217" data-name="Trazado 1259217" d="M147.5,8.3l-7.978,3.241a1.3,1.3,0,0,0-1.017-.822,1.224,1.224,0,0,0-1.257.628,2.3,2.3,0,0,0,.12,1.481c-.824,0-1.488.677-2.238.941a1.4,1.4,0,0,0-1.924-.393,57.843,57.843,0,0,0-17.886,15.2A18.359,18.359,0,0,1,133.838,8.246Z" transform="translate(-81.207 -5.811)" fill="#7ec74e"/>
        <path id="Trazado_1259218" data-name="Trazado 1259218" d="M107.115,125.748a11.588,11.588,0,0,0,3.991,8.851,6.427,6.427,0,0,1-5.578-1.464A6.28,6.28,0,0,1,103.659,128l.951-33.233a4.88,4.88,0,0,1,2.472-.033Z" transform="translate(-73.054 -66.663)" fill="#7dc64e"/>
        <path id="Trazado_1259219" data-name="Trazado 1259219" d="M31.109,24.151a46.744,46.744,0,0,0-7.422-3.268.414.414,0,0,1-.3-.415l10.319.058A14.592,14.592,0,0,1,48,37.119a49.014,49.014,0,0,0-15.22-13.531c-.685-.387-1.274.186-1.67.562" transform="translate(-16.484 -14.426)" fill="#7ec64e"/>
        <path id="Trazado_1259220" data-name="Trazado 1259220" d="M191.9,17.438a1.432,1.432,0,0,1-.489,1.334c-.548.485-1.108-.048-1.665-.046a2.3,2.3,0,0,1-.12-1.481,1.224,1.224,0,0,1,1.257-.628,1.3,1.3,0,0,1,1.017.822" transform="translate(-133.578 -11.704)" fill="#292e27"/>
        <path id="Trazado_1259221" data-name="Trazado 1259221" d="M77.753,162.743l.038,16.569H0l.038-16.569c.243.126.36.671.776.756,3.8.148,7.73-1.763,9.275-5.393.972-2.284,2.712-4.269,5.377-4.261a8.683,8.683,0,0,0,8.281-5.813c.786-2.008,2.912-3.231,4.96-3.693l-.559,18.606c-.149,4.945,3.319,9.032,8.321,9.073l4.431.036a19.891,19.891,0,0,0,12.788,4.773A9.643,9.643,0,0,0,63,169c1.115-6.16-2.809-10.6-8.616-11.325a1.472,1.472,0,0,1-1.315-1.118,10.375,10.375,0,0,0-4.623-6.437,9.542,9.542,0,0,0-11.96,2.271l-.025-8.295,11.936.033a6.609,6.609,0,0,1,5.894,4.319,8.362,8.362,0,0,0,8.007,5.4c2.718.018,4.413,1.961,5.4,4.268,1.548,3.621,5.475,5.521,9.275,5.391.413-.092.536-.626.776-.758M16.291,165.35a2.052,2.052,0,0,0,1.392,1.409,1.466,1.466,0,0,0,.335,1.282,1.529,1.529,0,0,0,1.48.305,4.335,4.335,0,0,0,3.586-4.561,4.266,4.266,0,0,0-4.426-3.907,4.207,4.207,0,0,0-4.037,4.374c.043.83.9,1.155,1.671,1.1m55.97,8.7a2.088,2.088,0,0,0,1.39-1.41c.647-.033,1.637-.126,1.678-1.1a4.219,4.219,0,0,0-4.251-4.37,4.238,4.238,0,1,0,.162,8.473c.787-.048,1.126-.837,1.02-1.588M9.713,171.412A1.814,1.814,0,1,0,7.9,173.225a1.813,1.813,0,0,0,1.814-1.813m17.016,2.43a1.813,1.813,0,1,0-1.814,1.813,1.813,1.813,0,0,0,1.814-1.813" transform="translate(0 -101.554)" fill="#9a7767"/>
        <path id="Trazado_1259222" data-name="Trazado 1259222" d="M52.573,204.436c.368-1.3,2.883-.313,2.968-2.574a1.79,1.79,0,0,0-1.547-1.847c-2.317-.348-1.788,2.4-2.812,3.011-.772.057-1.628-.267-1.671-1.1a4.207,4.207,0,0,1,4.037-4.374,4.266,4.266,0,0,1,4.426,3.908,4.334,4.334,0,0,1-3.586,4.561,1.529,1.529,0,0,1-1.48-.305,1.466,1.466,0,0,1-.335-1.282" transform="translate(-34.89 -139.23)"/>
        <path id="Trazado_1259223" data-name="Trazado 1259223" d="M233.237,227.716c-1.02-.611-.5-3.359-2.81-3.01a1.788,1.788,0,0,0-1.547,1.847c.091,2.271,2.6,1.276,2.967,2.572.106.751-.234,1.541-1.021,1.589a4.238,4.238,0,1,1,4.089-4.1c-.041.979-1.032,1.072-1.678,1.1" transform="translate(-159.585 -156.632)"/>
        <path id="Trazado_1259224" data-name="Trazado 1259224" d="M56.575,210.249a2.051,2.051,0,0,1-1.391-1.409c1.025-.608.5-3.359,2.812-3.011a1.79,1.79,0,0,1,1.547,1.847c-.084,2.26-2.6,1.278-2.968,2.574" transform="translate(-38.893 -145.043)" fill="#865f47"/>
        <path id="Trazado_1259225" data-name="Trazado 1259225" d="M239.078,233.528a2.088,2.088,0,0,1-1.39,1.41c-.368-1.3-2.876-.3-2.967-2.573a1.788,1.788,0,0,1,1.547-1.847c2.313-.349,1.79,2.4,2.81,3.01" transform="translate(-165.426 -162.444)" fill="#865f47"/>
        <path id="Trazado_1259226" data-name="Trazado 1259226" d="M24.243,232.307a1.813,1.813,0,1,1-1.814-1.813,1.813,1.813,0,0,1,1.814,1.813" transform="translate(-14.53 -162.448)"/>
        <path id="Trazado_1259227" data-name="Trazado 1259227" d="M81.882,240.537a1.813,1.813,0,1,1-1.814-1.813,1.813,1.813,0,0,1,1.814,1.813" transform="translate(-55.153 -168.249)"/>
        <path id="Trazado_1259228" data-name="Trazado 1259228" d="M146.823,188.133c-3.677,6.394-13.005,3.2-17.958-1.214-3.357-2.993-5.279-4.555-5.334-9.523-.032-2.9.882-5.763,3.3-7.5a7.1,7.1,0,0,1,7-.59,7.444,7.444,0,0,1,3.881,4.978,4.008,4.008,0,0,0,3.507,3.138,7.632,7.632,0,0,1,5.42,2.969,7.252,7.252,0,0,1,.187,7.743m-6.24-7.315a6.882,6.882,0,0,1-5.906-5.25,1.209,1.209,0,0,0-1.522-.828c-2.252.609.7,7.74,7.153,8.492a1.218,1.218,0,1,0,.275-2.414" transform="translate(-87.062 -118.862)" fill="#f4a339"/>
        <path id="Trazado_1259229" data-name="Trazado 1259229" d="M161.773,195.246a1.218,1.218,0,1,1-.275,2.414c-6.455-.752-9.406-7.883-7.153-8.492a1.209,1.209,0,0,1,1.522.828,6.882,6.882,0,0,0,5.906,5.25" transform="translate(-108.251 -133.291)" fill="#2a2825"/>
      </g>
    </g>
  </g>
</svg>
