<svg xmlns="http://www.w3.org/2000/svg" xmlns:xlink="http://www.w3.org/1999/xlink" width="129.063" height="78.262" viewBox="0 0 129.063 78.262">
  <defs>
    <clipPath id="clip-path">
      <rect id="Rect치ngulo_411676" data-name="Rect치ngulo 411676" width="78.288" height="78.262" fill="none"/>
    </clipPath>
  </defs>
  <g id="_16" data-name="16" transform="translate(0 -17.724)">
    <g id="Rect치ngulo_410589" data-name="Rect치ngulo 410589" transform="translate(0 35.344)" fill="#5a8441" stroke="#3e5b2c" stroke-width="1">
      <rect width="129.063" height="43.021" rx="8" stroke="none"/>
      <rect x="0.5" y="0.5" width="128.063" height="42.021" rx="7.5" fill="none"/>
    </g>
    <g id="Grupo_1213289" data-name="Grupo 1213289" transform="translate(25.387 17.724)">
      <g id="Grupo_1213288" data-name="Grupo 1213288" clip-path="url(#clip-path)">
        <path id="Trazado_1259745" data-name="Trazado 1259745" d="M1.132,63.039c.612-.162,1.141.705,1.144,1.289l.039,9.527c0,.592-.2,2.078.869,2.08L33.346,76a15.565,15.565,0,0,0,2.24-2.213l5.451-5.407c4.391-4.356-.274-9.589,4.92-15.1a24,24,0,0,0,2.191-2.325L29.576,32.388,26.935,34.93a10.325,10.325,0,0,1-7.375,2.978l-17.277,0-.017,21.67a1.213,1.213,0,0,1-1.122,1.2A1.233,1.233,0,0,1,0,59.541V3.592A3.447,3.447,0,0,1,3.6,0H74.69a3.447,3.447,0,0,1,3.6,3.6V74.663a3.448,3.448,0,0,1-3.6,3.6l-71.092,0A3.456,3.456,0,0,1,0,74.7V64.248a1.181,1.181,0,0,1,1.13-1.209m62.1-49.93a1.251,1.251,0,0,1-1.184,1.172l-11.122.008A7.734,7.734,0,0,0,45.513,16.4L31.147,30.73,50.516,50.024a1.289,1.289,0,0,1,.158,1.75L47.5,55.01c-4.052,4.126.2,9.819-4.717,14.875L39.164,73.6a13.427,13.427,0,0,0-2.3,2.365l37.825.018a1.239,1.239,0,0,0,1.318-1.314V43.339a5.887,5.887,0,0,0-1.937-.089l-11.3-.028a8.018,8.018,0,0,0-5.757,2.247l-3.562,3.489c-.419.41-1.048-.085-1.417-.084-.2-.422-.5-1.127-.061-1.575L55.3,43.935a9.839,9.839,0,0,1,6.966-3l11.8-.066a6.179,6.179,0,0,0,1.944-.062l0-26.454a7.148,7.148,0,0,0-1.931-.032l-7.362-.04a1.187,1.187,0,0,1-1.2-1.17A1.152,1.152,0,0,1,66.72,11.99l7.352-.03a8.137,8.137,0,0,0,1.938-.022l-.033-8.581c0-1.117-1.153-1.043-1.9-1.044L3.61,2.257A1.262,1.262,0,0,0,2.274,3.59l0,31.972,17.288.017A7.9,7.9,0,0,0,25.215,33.4L43.774,14.882a9.3,9.3,0,0,1,6.474-2.847l11.8-.05a1.228,1.228,0,0,1,1.179,1.125" fill="#020201"/>
        <path id="Trazado_1259746" data-name="Trazado 1259746" d="M79.445,7.651,79.439,17.3l-7.352.03a1.152,1.152,0,0,0-1.206,1.121l-2.286,0a1.228,1.228,0,0,0-1.179-1.125l-11.8.051a9.3,9.3,0,0,0-6.474,2.847L30.583,38.733a7.9,7.9,0,0,1-5.657,2.183L7.638,40.9l0-31.972A1.262,1.262,0,0,1,8.979,7.594ZM36.092,14.606a11.639,11.639,0,0,1,1.663-.061,1.124,1.124,0,0,0,1.158-1.095,1.11,1.11,0,0,0-1.078-1.16,10.825,10.825,0,0,1-1.749-.086,9.984,9.984,0,0,1-.077-1.754,1.074,1.074,0,0,0-1.162-1.036c-1.637.055-.786,2.18-1.275,2.732-.325.368-2.215-.24-2.543.708a1.245,1.245,0,0,0,.224,1.409c.679.618,2.051-.038,2.405.518.281.441-.289,2.211.79,2.553.563.179,1.464.02,1.509-.675ZM26.255,28.133a4.353,4.353,0,0,0,2.429-4.556l-.3-2.2c-.212-1.534.641-3.158-.179-4.666.527-1.012.78-3.864-.185-4.591a1.772,1.772,0,0,0-1.713-.248c-1.591.709-3.145,1.342-4.648,2.2-.314.179-.489.586-.833.588s-.517-.4-.831-.581c-1.5-.856-3.059-1.492-4.642-2.2a1.811,1.811,0,0,0-1.84.328,1.715,1.715,0,0,0-.539,1.566l.283,2.9c.157,1.612-.3,3.055.014,4.764.005.031-1.533,4.977,2.447,6.894,1.3.628,2.669,1.156,3.947,1.864l.017,3.6a1.143,1.143,0,1,0,2.28-.007l.039-3.6Z" transform="translate(-5.368 -5.337)" fill="#caf29e"/>
        <path id="Trazado_1259747" data-name="Trazado 1259747" d="M249.25,17.432l.005-9.647c.747,0,1.9-.073,1.9,1.044l.032,8.58a8.122,8.122,0,0,1-1.938.022" transform="translate(-175.179 -5.471)" fill="#a6ce8b"/>
        <path id="Trazado_1259748" data-name="Trazado 1259748" d="M38.263,150.384l-33.27.07-.039-9.527c0-.584-.531-1.451-1.144-1.289a18.038,18.038,0,0,0,.011-2.266,1.213,1.213,0,0,0,1.122-1.2L4.96,114.5l17.277,0a10.326,10.326,0,0,0,7.375-2.978l2.641-2.541,18.571,18.566a23.976,23.976,0,0,1-2.191,2.325c-5.194,5.511-.529,10.744-4.92,15.1Zm-7.007-10.86a4.488,4.488,0,0,0,2.858-4.443l-.289-2.659c-.169-1.554.618-3.123-.2-4.595.562-1.26.878-3.962-.412-4.734a1.78,1.78,0,0,0-1.782.024c-1.45.75-2.965,1.249-4.349,2.1-.332.205-.531.623-.921.547-.282-.056-.454-.374-.739-.546-1.443-.871-3-1.41-4.5-2.172a1.7,1.7,0,0,0-1.765.131c-1.055.729-.769,3.523-.308,4.643-.669,1.478-.286,3.018-.174,4.607.039.558-1.224,5.272,2.211,6.9l4.18,1.978.052,3.765a1.154,1.154,0,0,0,1.221,1.123c1.825-.163.687-3.374,1.12-4.932Z" transform="translate(-2.678 -76.598)" fill="#b1e39d"/>
        <path id="Trazado_1259749" data-name="Trazado 1259749" d="M41.028,248.289a15.566,15.566,0,0,1-2.24,2.213l-30.162-.064c-1.068,0-.866-1.488-.869-2.08Z" transform="translate(-5.443 -174.503)" fill="#92cf9e"/>
        <path id="Trazado_1259750" data-name="Trazado 1259750" d="M65.84,172.338l-3.8,1.738c-.432,1.558.7,4.769-1.119,4.932a1.154,1.154,0,0,1-1.221-1.124l-.052-3.765-4.18-1.978c-3.435-1.626-2.172-6.34-2.211-6.9-.111-1.589-.495-3.128.174-4.607-.46-1.12-.747-3.914.308-4.643a1.7,1.7,0,0,1,1.765-.13c1.506.762,3.061,1.3,4.5,2.171.285.172.456.491.738.546.389.076.589-.341.921-.546,1.384-.854,2.9-1.352,4.349-2.1a1.782,1.782,0,0,1,1.782-.024c1.291.772.974,3.474.412,4.734.816,1.471.029,3.04.2,4.594l.289,2.659a4.487,4.487,0,0,1-2.858,4.443m-7.271-10.529a2.757,2.757,0,0,0,1.033.51,2.025,2.025,0,0,0-1.041-2.354,14.927,14.927,0,0,0-3.15-1.578c-.405,2.1,1.51,2.805,3.158,3.421m6.514-2.791c-1.551.346-3.494,1.377-3.022,3.334a16.387,16.387,0,0,0,3.19-1.631,2.007,2.007,0,0,0,1.008-2.287,2.266,2.266,0,0,0-1.176.584m-6.527,7.335a2.309,2.309,0,0,0,1,.581,1.931,1.931,0,0,0-.96-2.354,16.086,16.086,0,0,0-3.19-1.62c-.389,2.084,1.462,2.851,3.154,3.393m6.689-2.844c-1.549.454-3.737,1.412-3.157,3.449a24.516,24.516,0,0,0,3.182-1.6,2.162,2.162,0,0,0,1.013-2.312,1.78,1.78,0,0,0-1.038.464m-9.706,5.247c.106,1.422,2.536,1.952,4.018,2.759.363-1.073-.159-1.716-.955-2.308a13.357,13.357,0,0,0-3.156-1.607c-.243.353-.1.741.092,1.155m9.307-.446c-1.263.431-2.336.686-2.644,2.034-.071.313-.409.621-.157,1.12,1.712-.74,4.7-1.418,4.242-3.793a2.6,2.6,0,0,0-1.441.639" transform="translate(-37.262 -109.412)" fill="#040403"/>
        <path id="Trazado_1259751" data-name="Trazado 1259751" d="M86.474,182.036a6.358,6.358,0,0,0,.025,1.848,24.516,24.516,0,0,1-3.182,1.6c-.579-2.037,1.608-2.995,3.157-3.449" transform="translate(-58.49 -127.939)" fill="#f4d87c"/>
        <path id="Trazado_1259752" data-name="Trazado 1259752" d="M64.09,166.379a12.154,12.154,0,0,0,.008,1.843c-1.649-.616-3.564-1.318-3.158-3.421a14.912,14.912,0,0,1,3.15,1.577" transform="translate(-42.791 -115.827)" fill="#f3e5a6"/>
        <path id="Trazado_1259753" data-name="Trazado 1259753" d="M86.3,166.921c.261.525.075,1.138.168,1.7a16.4,16.4,0,0,1-3.19,1.631c-.472-1.957,1.472-2.988,3.022-3.334" transform="translate(-58.48 -117.316)" fill="#f3e5a6"/>
        <path id="Trazado_1259754" data-name="Trazado 1259754" d="M64.109,181.807a9.552,9.552,0,0,0-.036,1.773c-1.693-.542-3.544-1.308-3.154-3.393a16.1,16.1,0,0,1,3.19,1.62" transform="translate(-42.778 -126.64)" fill="#f4d87c"/>
        <path id="Trazado_1259755" data-name="Trazado 1259755" d="M83.337,198.715a3.783,3.783,0,0,0,2.644-2.034,2.6,2.6,0,0,1,1.441-.639c.458,2.375-2.53,3.053-4.241,3.793-.253-.5.085-.807.157-1.12" transform="translate(-58.396 -137.783)" fill="#f4d87c"/>
        <path id="Trazado_1259756" data-name="Trazado 1259756" d="M64.569,200.145c.795.591,1.317,1.234.955,2.308-1.482-.807-3.912-1.337-4.018-2.759.979.007,2.6,1.7,3.064.452" transform="translate(-43.227 -140.349)" fill="#f4d87c"/>
        <path id="Trazado_1259757" data-name="Trazado 1259757" d="M64.047,197.413c-.465,1.248-2.085-.445-3.064-.452-.192-.414-.335-.8-.093-1.155a13.366,13.366,0,0,1,3.156,1.607" transform="translate(-42.706 -137.617)" fill="#f3e5a6"/>
        <path id="Trazado_1259758" data-name="Trazado 1259758" d="M83.926,200.225c.308-1.349,1.381-1.6,2.644-2.034a3.783,3.783,0,0,1-2.644,2.034" transform="translate(-58.985 -139.293)" fill="#f3e5a6"/>
        <path id="Trazado_1259759" data-name="Trazado 1259759" d="M93.786,167.244c-.092-.565.093-1.179-.168-1.7a2.271,2.271,0,0,1,1.176-.584,2.006,2.006,0,0,1-1.008,2.287" transform="translate(-65.797 -115.936)" fill="#f4d87c"/>
        <path id="Trazado_1259760" data-name="Trazado 1259760" d="M71.589,171.954a12.075,12.075,0,0,1-.008-1.843,2.025,2.025,0,0,1,1.041,2.354,2.755,2.755,0,0,1-1.033-.51" transform="translate(-50.282 -119.558)" fill="#f4d87c"/>
        <path id="Trazado_1259761" data-name="Trazado 1259761" d="M94.054,182.787a6.347,6.347,0,0,1-.025-1.848,1.78,1.78,0,0,1,1.038-.464,2.162,2.162,0,0,1-1.013,2.312" transform="translate(-66.045 -126.842)" fill="#cf955a"/>
        <path id="Trazado_1259762" data-name="Trazado 1259762" d="M71.593,187.412a9.553,9.553,0,0,1,.036-1.773,1.93,1.93,0,0,1,.96,2.354,2.31,2.31,0,0,1-1-.581" transform="translate(-50.298 -130.471)" fill="#cf955a"/>
        <path id="Trazado_1259763" data-name="Trazado 1259763" d="M91.143,18.911l-.134,2.052c-.045.7-.946.854-1.509.676-1.078-.342-.508-2.112-.79-2.553-.354-.556-1.726.1-2.4-.518a1.246,1.246,0,0,1-.225-1.409c.327-.948,2.218-.34,2.543-.708.489-.552-.363-2.677,1.275-2.732a1.074,1.074,0,0,1,1.162,1.036,9.981,9.981,0,0,0,.077,1.754,10.854,10.854,0,0,0,1.749.086,1.11,1.11,0,0,1,1.078,1.159,1.123,1.123,0,0,1-1.158,1.095,11.646,11.646,0,0,0-1.663.062" transform="translate(-60.419 -9.642)" fill="#060604"/>
        <path id="Trazado_1259764" data-name="Trazado 1259764" d="M38.835,37.947,34.577,40l-.039,3.6a1.143,1.143,0,1,1-2.28.007l-.017-3.6c-1.278-.708-2.644-1.236-3.947-1.864-3.981-1.917-2.442-6.863-2.447-6.894-.311-1.709.143-3.152-.014-4.764l-.283-2.9a1.715,1.715,0,0,1,.539-1.566,1.81,1.81,0,0,1,1.84-.328c1.583.707,3.142,1.343,4.642,2.2.314.179.49.583.831.581s.519-.409.833-.588c1.5-.856,3.057-1.489,4.648-2.2a1.774,1.774,0,0,1,1.713.248c.964.727.711,3.579.185,4.591.821,1.508-.032,3.132.179,4.665l.3,2.2a4.353,4.353,0,0,1-2.429,4.556M31.041,27.6c.254.224.736.585,1.119.453a1.941,1.941,0,0,0-1.068-2.236,14.738,14.738,0,0,0-3.04-1.544c-.625,1.921,1.435,2.805,2.99,3.327m6.708-2.859c-1.383.548-3.729,1.325-3.025,3.438a24.908,24.908,0,0,0,3.068-1.541,2.119,2.119,0,0,0,1.02-2.342,2.738,2.738,0,0,0-1.063.446M32.2,32.728a2.418,2.418,0,0,0-1.275-2.571l-2.938-1.286a2.31,2.31,0,0,0,1.211,2.568,21.225,21.225,0,0,0,3,1.288m6.617-3.84c-1.847.821-4.705,1.412-4.179,3.907,1.858-.969,4.625-1.39,4.179-3.907M28.025,34.515a2.162,2.162,0,0,0,1.268,1.554L32.148,37.4a2,2,0,0,0-1.081-2.4c-.311-.193-3.894-2.544-3.042-.48m9.27-.385c-.956.462-2.3.746-2.6,2.141-.071.323-.25.66-.015,1.064,1.7-.835,4.73-1.434,4.086-3.838a9.04,9.04,0,0,0-1.466.633" transform="translate(-17.948 -15.151)" fill="#060604"/>
        <path id="Trazado_1259765" data-name="Trazado 1259765" d="M37.83,50.027a21.226,21.226,0,0,1-3-1.288,2.31,2.31,0,0,1-1.211-2.568l2.938,1.286a2.418,2.418,0,0,1,1.275,2.571" transform="translate(-23.582 -32.45)" fill="#f4d87c"/>
        <path id="Trazado_1259766" data-name="Trazado 1259766" d="M60.175,46.226c.446,2.517-2.321,2.938-4.179,3.907-.526-2.5,2.332-3.086,4.179-3.907" transform="translate(-39.31 -32.489)" fill="#f4d87c"/>
        <path id="Trazado_1259767" data-name="Trazado 1259767" d="M59.217,34.176a24.925,24.925,0,0,1-3.068,1.541c-.7-2.113,1.642-2.89,3.025-3.438Z" transform="translate(-39.372 -22.686)" fill="#f3e5a6"/>
        <path id="Trazado_1259768" data-name="Trazado 1259768" d="M36.766,32.249l-.05,1.783c-1.555-.522-3.615-1.405-2.99-3.327a14.752,14.752,0,0,1,3.04,1.544" transform="translate(-23.622 -21.58)" fill="#f3e5a6"/>
        <path id="Trazado_1259769" data-name="Trazado 1259769" d="M56.024,64.508c1.114-.366,2.341-.952,2.6-2.141a9.093,9.093,0,0,1,1.466-.633c.644,2.4-2.383,3-4.086,3.838-.235-.4-.056-.74.015-1.064" transform="translate(-39.282 -43.388)" fill="#f4d87c"/>
        <path id="Trazado_1259770" data-name="Trazado 1259770" d="M36.95,65.639a2,2,0,0,1,1.081,2.4l-2.854-1.327a2.161,2.161,0,0,1-1.268-1.554c.747.087,3,1.85,3.042.48" transform="translate(-23.831 -45.795)" fill="#f4d87c"/>
        <path id="Trazado_1259771" data-name="Trazado 1259771" d="M36.641,63.644c-.04,1.37-2.295-.392-3.042-.48-.852-2.065,2.731.287,3.042.48" transform="translate(-23.522 -43.8)" fill="#f3e5a6"/>
        <path id="Trazado_1259772" data-name="Trazado 1259772" d="M56.337,66.006c.306-1.4,1.649-1.68,2.6-2.141-.264,1.19-1.491,1.776-2.6,2.141" transform="translate(-39.595 -44.886)" fill="#f3e5a6"/>
        <path id="Trazado_1259773" data-name="Trazado 1259773" d="M66.676,33.121l-.043-1.9a2.741,2.741,0,0,1,1.063-.446,2.12,2.12,0,0,1-1.02,2.342" transform="translate(-46.831 -21.632)" fill="#f4d87c"/>
        <path id="Trazado_1259774" data-name="Trazado 1259774" d="M44.058,37.683l.05-1.783a1.941,1.941,0,0,1,1.068,2.236c-.383.132-.864-.229-1.119-.453" transform="translate(-30.965 -25.231)" fill="#f4d87c"/>
        <path id="Trazado_1259775" data-name="Trazado 1259775" d="M139.175,44.113a1.187,1.187,0,0,0,1.2,1.17l7.362.04-.009,26.548-11.8.066a9.84,9.84,0,0,0-6.966,3L125.638,78.3c-.443.448-.143,1.154.061,1.575-.6.281-.827,1.144-1.521,1.151l-19.37-19.294,14.366-14.326a7.734,7.734,0,0,1,5.408-2.115l11.122-.008a1.251,1.251,0,0,0,1.184-1.172Zm4.484,11.239c-.008-2.888-3.735-2.063-5.169-2.237-.3-1.18.518-3.586-1.137-3.747-1.852-.18-1.065,2.684-1.318,3.723a6.448,6.448,0,0,1-2.19-.025l-.062-2.6a1.12,1.12,0,0,0-1.259-1.1c-1.8.223-.563,3.609-1.116,5.062a2.849,2.849,0,0,0-2.461-1.186,2.914,2.914,0,0,0-1.974,1.422c-.8-.995-1.6-1.6-2.71-1.4a2.2,2.2,0,0,0-1.876,1.98l-.038,10.447a1.176,1.176,0,0,0,1.175,1.231l18.849.009a1.243,1.243,0,0,0,1.313-1.253Z" transform="translate(-73.662 -31.002)" fill="#fcedad"/>
        <path id="Trazado_1259776" data-name="Trazado 1259776" d="M249.244,74.607l.009-26.548a7.15,7.15,0,0,1,1.932.032l0,26.454a6.179,6.179,0,0,1-1.944.062" transform="translate(-175.175 -33.737)" fill="#f4d87c"/>
        <path id="Trazado_1259777" data-name="Trazado 1259777" d="M185.145,67.761l.027,10.323a1.243,1.243,0,0,1-1.313,1.253l-18.848-.009a1.176,1.176,0,0,1-1.175-1.231l.038-10.446a2.2,2.2,0,0,1,1.876-1.98c1.107-.192,1.914.408,2.71,1.4a2.913,2.913,0,0,1,1.975-1.422,2.85,2.85,0,0,1,2.461,1.186c.553-1.452-.684-4.839,1.116-5.062a1.12,1.12,0,0,1,1.259,1.1l.062,2.6a6.447,6.447,0,0,0,2.19.025c.253-1.039-.533-3.9,1.318-3.724,1.654.161.833,2.567,1.136,3.747,1.434.174,5.161-.651,5.169,2.237m-18.8.552c.031-.282-.338-.282-.216.012l.045,6.835a6.032,6.032,0,0,0,.039,1.846l9.78,0a6.556,6.556,0,0,0,.053-1.826,1.2,1.2,0,0,1,1.078-1.2,1.234,1.234,0,0,1,1.275,1.184,7.235,7.235,0,0,0,.046,1.828l4.41.012.025-9.075a5.645,5.645,0,0,0-1.914-.055l-5.565-.018c-.343.845.276,2.427-.734,2.9a1.067,1.067,0,0,1-1.18-.1l-2.674-2.547c-.263.925.206,2.114-.641,2.591-1.511.851-2.413-1.707-3.827-2.388" transform="translate(-115.147 -43.412)" fill="#060604"/>
        <path id="Trazado_1259778" data-name="Trazado 1259778" d="M186.4,82.264l-.007,6.009c0,1.619-1.788,1.108-2.56,1.282a1.234,1.234,0,0,0-1.276-1.184,1.2,1.2,0,0,0-1.078,1.2l-9.872-.018-.045-6.834.216-.012c1.414.682,2.315,3.24,3.827,2.389.847-.478.378-1.666.641-2.591l2.674,2.547a1.069,1.069,0,0,0,1.18.1c1.01-.478.392-2.059.734-2.9Z" transform="translate(-120.576 -57.804)" fill="#bbd6fa"/>
        <path id="Trazado_1259779" data-name="Trazado 1259779" d="M212.736,89.462c.772-.174,2.558.337,2.56-1.282l.007-6.009a5.652,5.652,0,0,1,1.914.055l-.025,9.075-4.41-.012a7.234,7.234,0,0,1-.046-1.828" transform="translate(-149.482 -57.712)" fill="#98bfef"/>
        <path id="Trazado_1259780" data-name="Trazado 1259780" d="M181.443,106.85a6.566,6.566,0,0,1-.052,1.826l-9.78,0a6.025,6.025,0,0,1-.039-1.846Z" transform="translate(-120.544 -75.084)" fill="#98bfef"/>
        <path id="Trazado_1259781" data-name="Trazado 1259781" d="M171.717,83.3l-.216.012c-.122-.294.247-.293.216-.012" transform="translate(-120.518 -58.396)" fill="#98bfef"/>
        <path id="Trazado_1259782" data-name="Trazado 1259782" d="M166.671,145.469l0,29.427a1.133,1.133,0,0,1-1.156,1.214l-33.3.012c-.284,0-.518-.147-.455-.3l3.617-3.72c4.915-5.056.666-10.749,4.717-14.875l3.177-3.235a1.289,1.289,0,0,0-.158-1.75c.694-.006.923-.87,1.521-1.151.369,0,1,.494,1.417.084l3.562-3.489a8.019,8.019,0,0,1,5.757-2.247Zm-1.852,15.323c-.011-2.527-4.028-1.793-5.152-1.987-.257-1.234.514-3.623-1.118-3.654-.487-.01-1.141.195-1.16.892l-.078,2.754a7.611,7.611,0,0,1-2.219.012c-.33-1.3.6-3.648-1.221-3.662-2.011-.015-.671,3.744-1.293,4.945A2.857,2.857,0,0,0,150.152,159a2.78,2.78,0,0,0-1.924,1.409c-.793-.913-1.525-1.527-2.576-1.414-.784.084-1.988.71-1.995,1.785l-.072,10.773a1.2,1.2,0,0,0,1.294,1.112l19.064-.019a1.1,1.1,0,0,0,.923-1.056Z" transform="translate(-92.598 -102.219)" fill="#f0b987"/>
        <path id="Trazado_1259783" data-name="Trazado 1259783" d="M126.358,175.8c-.063.151.171.3.455.3l33.3-.012a1.133,1.133,0,0,0,1.156-1.214l0-29.427a5.886,5.886,0,0,1,1.937.089v31.335a1.239,1.239,0,0,1-1.318,1.314l-37.825-.018a13.417,13.417,0,0,1,2.3-2.365" transform="translate(-87.194 -102.198)" fill="#cf955a"/>
        <path id="Trazado_1259784" data-name="Trazado 1259784" d="M192.81,183.746l.048,10.8a1.1,1.1,0,0,1-.923,1.056l-19.064.019a1.2,1.2,0,0,1-1.294-1.111l.072-10.774c.007-1.075,1.21-1.7,1.994-1.785,1.052-.113,1.783.5,2.576,1.414a2.781,2.781,0,0,1,1.924-1.409,2.857,2.857,0,0,1,2.426,1.091c.622-1.2-.718-4.96,1.293-4.945,1.824.013.892,2.36,1.221,3.662a7.614,7.614,0,0,0,2.219-.013L185.38,179c.02-.7.673-.9,1.16-.892,1.631.032.86,2.421,1.117,3.654,1.124.193,5.141-.54,5.152,1.987m-18.946,7.675a9.611,9.611,0,0,0,.043,1.886l9.8.026a5.513,5.513,0,0,0,.054-1.909,1.2,1.2,0,0,1,1.024-1.113,1.112,1.112,0,0,1,1.3,1.116,10.709,10.709,0,0,0,.062,1.866l4.445.02.017-9.152a9.181,9.181,0,0,0-1.938-.021l-5.571-.021c-.284,1,.357,2.686-.858,2.982-1.337.326-2.269-1.683-3.665-2.695-.287.7.2,2.134-.682,2.6-1.458.766-2.435-1.682-3.979-2.579Z" transform="translate(-120.588 -125.173)" fill="#050504"/>
        <path id="Trazado_1259785" data-name="Trazado 1259785" d="M194.08,198.369l.031,5.959a1.215,1.215,0,0,1-1.167,1.311l-1.449.018a1.111,1.111,0,0,0-1.3-1.115,1.2,1.2,0,0,0-1.024,1.112l-9.893,0,.051-7c1.544.9,2.521,3.344,3.978,2.579.884-.464.4-1.9.682-2.6,1.4,1.012,2.328,3.021,3.665,2.7,1.214-.3.574-1.983.858-2.982Z" transform="translate(-125.998 -139.404)" fill="#bbd6fa"/>
        <path id="Trazado_1259786" data-name="Trazado 1259786" d="M220.361,205.6l1.449-.018a1.215,1.215,0,0,0,1.167-1.311l-.031-5.959a9.165,9.165,0,0,1,1.939.021l-.017,9.152-4.445-.02a10.713,10.713,0,0,1-.062-1.866" transform="translate(-154.864 -139.345)" fill="#98bfef"/>
        <path id="Trazado_1259787" data-name="Trazado 1259787" d="M189.106,222.924a5.512,5.512,0,0,1-.054,1.909l-9.8-.026a9.609,9.609,0,0,1-.043-1.886Z" transform="translate(-125.937 -156.674)" fill="#98bfef"/>
      </g>
    </g>
  </g>
</svg>
