<svg xmlns="http://www.w3.org/2000/svg" xmlns:xlink="http://www.w3.org/1999/xlink" width="129.063" height="84.957" viewBox="0 0 129.063 84.957">
  <defs>
    <clipPath id="clip-path">
      <rect id="Rectángulo_411636" data-name="Rectángulo 411636" width="85" height="84.957" fill="none"/>
    </clipPath>
  </defs>
  <g id="_17" data-name="17" transform="translate(-787.781 -2549.609)">
    <g id="Rectángulo_410589" data-name="Rectángulo 410589" transform="translate(787.781 2575.623)" fill="#ffc94a" stroke="#dfab32" stroke-width="1">
      <rect width="129.063" height="43.021" rx="8" stroke="none"/>
      <rect x="0.5" y="0.5" width="128.063" height="42.021" rx="7.5" fill="none"/>
    </g>
    <g id="Grupo_1213244" data-name="Grupo 1213244" transform="translate(809.812 2549.609)">
      <rect id="Rectángulo_411635" data-name="Rectángulo 411635" width="7.961" height="2.695" transform="translate(2.493 74.505)" fill="#e4e2e4"/>
      <g id="Grupo_1213243" data-name="Grupo 1213243">
        <g id="Grupo_1213242" data-name="Grupo 1213242" clip-path="url(#clip-path)">
          <path id="Trazado_1259230" data-name="Trazado 1259230" d="M83.776,42.581a1.251,1.251,0,0,1-1.243-1.29L82.52,30.957a7.908,7.908,0,0,0-2.095-.05l-10-.022a12.2,12.2,0,0,0,1.213,2.558c1.54.418,3.281-.3,4.825.278,1.208.452,1.965,1.915,2.975,2.7a1.216,1.216,0,0,1,.1,1.7c-1.384,1.619-2.921-1.5-4.075-1.992-1.124-.476-2.495.029-3.746-.191A26.784,26.784,0,0,0,70.394,38.5c1.133.49,3.465-.519,4.186.921l2.554,5.1a1.226,1.226,0,0,1-.449,1.572c-2.015,1.328-2.834-3.625-4.06-4.771-.805-.406-2.165-.1-3.066-.085-.336,1.7.679,4.865-1.139,5.05A1.232,1.232,0,0,1,67.058,44.9c.132-1.751-.249-3.565.133-5.291.385-1.742,1.665-3.13,2.2-4.852l-1.845-3.819a17.417,17.417,0,0,0-3.1-.025c-.4,2.173.723,4.23-1.092,5.131l-2.54,1.26c1.469,1.051,3.568,1.221,3.569,2.77l0,4.823a1.327,1.327,0,0,1-1.246,1.4,1.3,1.3,0,0,1-1.268-1.4l-.009-4.132a11.052,11.052,0,0,0-2.573-1.308l-.1,5.667A1.2,1.2,0,0,1,58.056,46.3a1.225,1.225,0,0,1-1.32-1.16l-.074-6.3c0-.338-.605-.351-.813-.15l-2.206,2.132a1.236,1.236,0,0,1-1.65.022,1.276,1.276,0,0,1-.174-1.627,19.615,19.615,0,0,1,3.045-2.939c.793-.54,1.969.115,2.847-.273a22.331,22.331,0,0,0,4.024-2.051c.4-.775.088-2.113.074-3.038l-8.687-.051a1.315,1.315,0,0,1-1.334-1.215c-.259-2.2,5.139-.86,6.989-1.336L55.332,17.851a2.043,2.043,0,0,1,.844-2.375,2.016,2.016,0,0,1,2.49.2l3.6,3.5,1.419-8.172a2.044,2.044,0,0,1,2.095-1.625A2.1,2.1,0,0,1,67.759,11.2l1.34,7.987c2.17-1.476,3.766-5.107,6.093-3.735a2.024,2.024,0,0,1,.939,2.214L72.614,28.324l7.807.033a13.494,13.494,0,0,0,2.094-.033l.01-25.686a4.763,4.763,0,0,0-2.1.338,7.47,7.47,0,0,0-1.718.653,14.5,14.5,0,0,1-13.682.146,11.629,11.629,0,0,0-10.789.045,14.27,14.27,0,0,1-13.147,0,11.858,11.858,0,0,0-11.14.087,14.319,14.319,0,0,1-13.262-.233,9.3,9.3,0,0,0-3.855-1.092l-.012,25.765,5.132,0c.134-.534.069-1.014.154-1.552a1.145,1.145,0,0,1,1.32-.986c1.559.142.831,1.9,1.256,2.545l26.391.016a1.35,1.35,0,0,1,1.452,1.262,1.478,1.478,0,0,1-1.468,1.234l-26.47.014A14.081,14.081,0,0,0,20.6,34.2a1.583,1.583,0,0,1,1.882-.5,1.2,1.2,0,0,1,.386,1.756c-.858,1-1.8,1.841-2.747,2.791a1.273,1.273,0,0,1-1.66.025l-2.526-2.512a1.3,1.3,0,0,1,.05-1.99,1.557,1.557,0,0,1,1.949.383,14.425,14.425,0,0,0,.079-3.239l-5.191,0-.009,20.582a43.172,43.172,0,0,0,5.025.025c.531-.022-.363-2.438,1.35-2.492a1.233,1.233,0,0,1,1.334,1.435,2.048,2.048,0,0,0,.122,1.106l59.775-.029a13.128,13.128,0,0,0,2.056-.026c.392-1.719-.753-5.486,1.3-5.634A1.364,1.364,0,0,1,85,47.335l-.015,34.707a2.857,2.857,0,0,1-2.926,2.91l-68.743.005a2.922,2.922,0,0,1-3.01-3.127,10.758,10.758,0,0,0-.059-1.969l-8.083-.043A2.086,2.086,0,0,1,0,77.732l0-3.4a2.109,2.109,0,0,1,2.169-2.174l8.141-.048L10.317,1.98c0-3.41,5.835-1.409,7.541-.5a11.85,11.85,0,0,0,11.19.119,14.321,14.321,0,0,1,13.137-.009,11.462,11.462,0,0,0,10.525.171A14.554,14.554,0,0,1,66.253,1.6a11.811,11.811,0,0,0,11.1-.071c1.8-.947,7.631-2.972,7.632.452L85,41.244a1.3,1.3,0,0,1-1.221,1.338m-13.793-14.2,2.827-8.937c-1.728.654-2.985,3.751-4.712,3.17A1.729,1.729,0,0,1,66.961,21.4c-.513-2.257-.6-4.463-1.261-6.76-.622,2.253-.762,4.385-1.227,6.609a1.618,1.618,0,0,1-1.038,1.3c-1.889.634-3.122-2.291-5.031-3.472l3.1,9.369Zm-33.524,39.9a1.24,1.24,0,0,1-1.212,1.19l-9.482.028-.1,6.627c-.029,1.949-4.368.713-5.727,1.214.6.739.793,1.485.237,2.077a1.311,1.311,0,0,1-1.941-.135l-2.289-2.3a1.389,1.389,0,0,1,.062-2.081l2.182-2.175A1.365,1.365,0,0,1,20.1,72.48c.6.528.5,1.425-.17,2.159a15.6,15.6,0,0,0,3.194.047l.028-5.184-10.331-.009L12.869,80.4a4.445,4.445,0,0,0,.117,2.083l69.457.008.087-12.934a8.551,8.551,0,0,0-2.1-.045l-39.348-.041c-.771,0-1.154-.46-1.328-1.2a1.222,1.222,0,0,1,1.321-1.191l39.358-.066a7.387,7.387,0,0,0,2.1-.1l-.009-12.809a6.916,6.916,0,0,0-2.094-.043l-59.844-.015a17.155,17.155,0,0,0,0,3.34c.678-.65,1.412-.871,2.024-.427a1.268,1.268,0,0,1,.08,1.936l-2.422,2.434a1.3,1.3,0,0,1-1.953-.016l-2.388-2.386a1.3,1.3,0,0,1,.065-1.978,1.5,1.5,0,0,1,1.962.429,14.759,14.759,0,0,0,.037-3.314l-5.167.005.008,12.995,10.274,0a9.3,9.3,0,0,0,.092-1.416,1.23,1.23,0,0,1,1.309-1.187c1.6.034.973,1.931,1.388,2.592l9.11,0c.884,0,1.449.429,1.455,1.217M10.313,74.646H2.459V77.3h7.853Z" transform="translate(0 0)" fill="#030303"/>
          <path id="Trazado_1259231" data-name="Trazado 1259231" d="M192.657,59.123l-8.479.065-3.1-9.369c1.909,1.181,3.142,4.107,5.031,3.472a1.619,1.619,0,0,0,1.038-1.3c.464-2.224.6-4.356,1.227-6.609.664,2.3.747,4.5,1.261,6.76a1.728,1.728,0,0,0,1.136,1.213c1.728.582,2.984-2.515,4.712-3.169Z" transform="translate(-122.674 -30.745)" fill="#b5e468"/>
          <path id="Trazado_1259232" data-name="Trazado 1259232" d="M63.015,26.637a14.587,14.587,0,0,1-14-.093c-.78-.423-1.245-.973-.871-1.829a1.368,1.368,0,0,1,1.994-.428,11.885,11.885,0,0,0,11.6.2c1.862-.984,7.911-2.8,7.633-.138-.2,1.951-2.629.3-6.36,2.287" transform="translate(-32.527 -15.556)" fill="#040607"/>
          <path id="Trazado_1259233" data-name="Trazado 1259233" d="M107.357,8.167l0,25.38-7.807-.033,3.516-10.653a2.023,2.023,0,0,0-.939-2.213C99.8,19.276,98.2,22.906,96.03,24.383L94.69,16.4a2.1,2.1,0,0,0-1.974-1.822A2.045,2.045,0,0,0,90.621,16.2L89.2,24.371l-3.6-3.5a2.017,2.017,0,0,0-2.49-.2,2.043,2.043,0,0,0-.844,2.376L85.711,33.5c-1.851.476-7.248-.86-6.989,1.336a20.321,20.321,0,0,0-3.263,0,1.351,1.351,0,0,0-1.452-1.262l-26.391-.017c-.425-.64.3-2.4-1.256-2.545a1.144,1.144,0,0,0-1.32.986c-.085.539-.02,1.018-.154,1.553l-5.132,0,.012-25.765a9.3,9.3,0,0,1,3.854,1.092A14.319,14.319,0,0,0,56.881,9.1a11.859,11.859,0,0,1,11.14-.088,14.269,14.269,0,0,0,13.147,0,11.628,11.628,0,0,1,10.789-.045,14.5,14.5,0,0,0,13.683-.146,7.424,7.424,0,0,1,1.718-.653m-49.937,8.1c3.73-1.992,6.156-.336,6.36-2.287.278-2.664-5.771-.846-7.633.138a11.885,11.885,0,0,1-11.6-.2,1.368,1.368,0,0,0-1.994.428c-.374.856.092,1.406.871,1.829a14.587,14.587,0,0,0,14,.093" transform="translate(-26.931 -5.191)" fill="#88c6fb"/>
          <path id="Trazado_1259234" data-name="Trazado 1259234" d="M249.339,33.827l0-25.38a4.759,4.759,0,0,1,2.1-.339l-.01,25.686a13.5,13.5,0,0,1-2.094.033" transform="translate(-168.917 -5.471)" fill="#5daff3"/>
          <path id="Trazado_1259235" data-name="Trazado 1259235" d="M252.689,107.4l0,3.29c-2.052.148-.907,3.915-1.3,5.634a13.125,13.125,0,0,1-2.056.026l.005-20.624a7.908,7.908,0,0,1,2.095.05l.014,10.335a1.25,1.25,0,0,0,1.242,1.289" transform="translate(-168.913 -64.818)" fill="#c4735e"/>
          <path id="Trazado_1259236" data-name="Trazado 1259236" d="M78.7,91.758a1.315,1.315,0,0,0,1.334,1.215l8.686.051c.014.925.324,2.263-.074,3.038a22.306,22.306,0,0,1-4.024,2.051c-.878.388-2.054-.267-2.847.273a19.588,19.588,0,0,0-3.045,2.939,1.276,1.276,0,0,0,.174,1.627,1.236,1.236,0,0,0,1.649-.022l2.206-2.132c.208-.2.809-.187.813.15l.074,6.3a1.225,1.225,0,0,0,1.32,1.161,1.205,1.205,0,0,0,1.136-1.167l.1-5.667a11.037,11.037,0,0,1,2.573,1.308l.009,4.132a1.3,1.3,0,0,0,1.268,1.4,1.328,1.328,0,0,0,1.246-1.4l0-4.823c0-1.549-2.1-1.718-3.569-2.77l2.539-1.26c1.816-.9.69-2.958,1.093-5.131a17.412,17.412,0,0,1,3.1.025L96.3,96.876c-.535,1.722-1.815,3.11-2.2,4.852-.382,1.725,0,3.54-.133,5.291a1.232,1.232,0,0,0,1.363,1.388c1.817-.185.8-3.354,1.139-5.05.9-.017,2.26-.321,3.065.085,1.226,1.146,2.045,6.1,4.06,4.771a1.225,1.225,0,0,0,.448-1.572l-2.554-5.1c-.721-1.44-3.053-.431-4.186-.921a26.933,26.933,0,0,1,1.321-2.558c1.252.22,2.622-.285,3.746.191,1.154.489,2.692,3.611,4.075,1.992a1.216,1.216,0,0,0-.1-1.7c-1.01-.784-1.767-2.247-2.974-2.7-1.544-.577-3.285.139-4.825-.278A12.167,12.167,0,0,1,97.336,93l10,.022-.006,20.624-59.775.029a2.048,2.048,0,0,1-.122-1.106,1.232,1.232,0,0,0-1.334-1.435c-1.713.054-.819,2.471-1.35,2.492a43.176,43.176,0,0,1-5.025-.025l.009-20.582,5.192,0a14.406,14.406,0,0,1-.079,3.239,1.557,1.557,0,0,0-1.949-.383,1.3,1.3,0,0,0-.05,1.99l2.526,2.512a1.272,1.272,0,0,0,1.66-.025c.943-.949,1.889-1.787,2.747-2.791a1.2,1.2,0,0,0-.386-1.756,1.584,1.584,0,0,0-1.882.5A14.078,14.078,0,0,1,47.5,93l26.469-.014a1.478,1.478,0,0,0,1.469-1.234,20.321,20.321,0,0,1,3.264,0m-22.87,12.5a1.209,1.209,0,0,0,1.394.105c1.224-.672-.111-4.018,3.665-5.775,4.352-2.026,5.994,2.619,7.491.782,1.384-1.7-3.03-4.562-7.436-3.443a7.909,7.909,0,0,0-5.094,4.585c-.328.1-.641-.36-.844-.562a1.257,1.257,0,1,0-1.778,1.761Zm14.46,1.717c.729.455.8.873,1.306,1.035a1.233,1.233,0,0,0,1.3-2.056l-2.662-2.621a1.35,1.35,0,0,0-1.493,0c-1.026.658.176,3.858-3.427,5.648-3.785,1.882-5.777-1.545-7.127-.654a1.268,1.268,0,0,0-.6,1.24c.147,1.289,4.4,3.287,8.119,1.962a7.908,7.908,0,0,0,4.584-4.551" transform="translate(-26.913 -62.117)" fill="#e1907e"/>
          <path id="Trazado_1259237" data-name="Trazado 1259237" d="M83.284,112.635l-2.6-2.546a1.257,1.257,0,1,1,1.778-1.761c.2.2.515.658.844.562A7.91,7.91,0,0,1,88.4,104.3c4.407-1.12,8.82,1.744,7.436,3.443-1.5,1.837-3.139-2.807-7.491-.782-3.776,1.758-2.441,5.1-3.665,5.775a1.208,1.208,0,0,1-1.394-.1" transform="translate(-54.364 -70.491)" fill="#050303"/>
          <path id="Trazado_1259238" data-name="Trazado 1259238" d="M107.8,127.856a7.908,7.908,0,0,1-4.584,4.551c-3.723,1.325-7.972-.673-8.119-1.962a1.268,1.268,0,0,1,.6-1.24c1.35-.89,3.342,2.536,7.127.654,3.6-1.791,2.4-4.991,3.427-5.648a1.35,1.35,0,0,1,1.493,0l2.662,2.621a1.233,1.233,0,0,1-1.3,2.056c-.508-.162-.577-.579-1.306-1.035" transform="translate(-64.417 -83.995)" fill="#050303"/>
          <path id="Trazado_1259239" data-name="Trazado 1259239" d="M107.356,167.586l.007,12.953-39.358.066a1.221,1.221,0,0,0-1.321,1.191l-3.293,0c-.006-.789-.571-1.217-1.455-1.217l-9.11,0c-.415-.661.212-2.558-1.388-2.592a1.23,1.23,0,0,0-1.309,1.187,9.332,9.332,0,0,1-.092,1.416l-10.274,0-.008-12.995,5.167-.006a14.759,14.759,0,0,1-.037,3.314,1.5,1.5,0,0,0-1.962-.429,1.3,1.3,0,0,0-.065,1.978l2.387,2.386a1.3,1.3,0,0,0,1.953.016l2.422-2.434a1.268,1.268,0,0,0-.08-1.936c-.612-.444-1.346-.223-2.024.427a17.18,17.18,0,0,1,0-3.34Z" transform="translate(-26.932 -113.523)" fill="#fceead"/>
          <path id="Trazado_1259240" data-name="Trazado 1259240" d="M66.689,211.676c.173.74.557,1.2,1.328,1.2l39.347.041-.009,9.169a1.647,1.647,0,0,1-1.737,1.713l-65.811.005-.045-10.91,10.331.009-.028,5.184a15.6,15.6,0,0,1-3.194-.047c.666-.734.773-1.631.17-2.16a1.366,1.366,0,0,0-1.914.247L42.945,218.3a1.389,1.389,0,0,0-.062,2.08l2.289,2.3a1.311,1.311,0,0,0,1.941.135c.557-.593.364-1.338-.237-2.077,1.36-.5,5.7.735,5.727-1.214l.1-6.627,9.482-.028a1.24,1.24,0,0,0,1.211-1.19Zm3.978,5.134a1.235,1.235,0,1,0-1.235,1.234,1.234,1.234,0,0,0,1.235-1.234m23.2,0a1.23,1.23,0,1,0-1.23,1.229,1.229,1.229,0,0,0,1.23-1.229m-28.352,2.576a1.232,1.232,0,1,0-1.232,1.232,1.232,1.232,0,0,0,1.232-1.232m20.627,0A1.236,1.236,0,1,0,84.9,220.62a1.235,1.235,0,0,0,1.236-1.235m-25.8,2.575a1.23,1.23,0,1,0-1.23,1.229,1.229,1.229,0,0,0,1.23-1.229m15.475,0a1.233,1.233,0,1,0-1.233,1.232,1.232,1.232,0,0,0,1.233-1.232m23.209,0a1.231,1.231,0,1,0-1.231,1.23,1.231,1.231,0,0,0,1.231-1.23" transform="translate(-26.937 -143.402)" fill="#89c7fb"/>
          <path id="Trazado_1259241" data-name="Trazado 1259241" d="M39.75,226.317l65.811-.005A1.647,1.647,0,0,0,107.3,224.6l.009-9.169a8.536,8.536,0,0,1,2.1.045l-.087,12.934L39.867,228.4a4.437,4.437,0,0,1-.117-2.083" transform="translate(-26.88 -145.914)" fill="#5eb2f7"/>
          <path id="Trazado_1259242" data-name="Trazado 1259242" d="M249.352,180.435l-.007-12.953a6.929,6.929,0,0,1,2.095.043l.009,12.809a7.4,7.4,0,0,1-2.1.1" transform="translate(-168.921 -113.418)" fill="#e3d279"/>
          <path id="Trazado_1259243" data-name="Trazado 1259243" d="M146.37,240.979a1.233,1.233,0,1,1-1.233-1.232,1.232,1.232,0,0,1,1.233,1.232" transform="translate(-97.49 -162.419)" fill="#0b1014"/>
          <path id="Trazado_1259244" data-name="Trazado 1259244" d="M218.336,240.979a1.231,1.231,0,1,1-1.231-1.23,1.231,1.231,0,0,1,1.231,1.23" transform="translate(-146.246 -162.421)" fill="#0b1014"/>
          <path id="Trazado_1259245" data-name="Trazado 1259245" d="M114.419,232.989a1.232,1.232,0,1,1-1.232-1.231,1.232,1.232,0,0,1,1.232,1.231" transform="translate(-75.844 -157.007)" fill="#070a0d"/>
          <path id="Trazado_1259246" data-name="Trazado 1259246" d="M98.406,240.982a1.23,1.23,0,1,1-1.23-1.229,1.229,1.229,0,0,1,1.23,1.229" transform="translate(-65 -162.423)" fill="#070a0d"/>
          <path id="Trazado_1259247" data-name="Trazado 1259247" d="M178.356,232.983a1.236,1.236,0,1,1-1.236-1.235,1.235,1.235,0,0,1,1.236,1.235" transform="translate(-119.155 -157)" fill="#070a0d"/>
          <path id="Trazado_1259248" data-name="Trazado 1259248" d="M202.334,225.009a1.23,1.23,0,1,1-1.23-1.229,1.229,1.229,0,0,1,1.23,1.229" transform="translate(-135.407 -151.602)" fill="#070a0d"/>
          <path id="Trazado_1259249" data-name="Trazado 1259249" d="M130.39,225a1.235,1.235,0,1,1-1.235-1.234A1.234,1.234,0,0,1,130.39,225" transform="translate(-86.661 -151.594)" fill="#070a0d"/>
        </g>
      </g>
    </g>
  </g>
</svg>
