<svg xmlns="http://www.w3.org/2000/svg" xmlns:xlink="http://www.w3.org/1999/xlink" width="129.063" height="85.646" viewBox="0 0 129.063 85.646">
  <defs>
    <clipPath id="clip-path">
      <rect id="Rect치ngulo_411678" data-name="Rect치ngulo 411678" width="90.217" height="85.646" fill="none"/>
    </clipPath>
  </defs>
  <g id="_18" data-name="18" transform="translate(0 -14.031)">
    <g id="Rect치ngulo_410589" data-name="Rect치ngulo 410589" transform="translate(0 35.344)" fill="#5a8441" stroke="#3e5b2c" stroke-width="1">
      <rect width="129.063" height="43.021" rx="8" stroke="none"/>
      <rect x="0.5" y="0.5" width="128.063" height="42.021" rx="7.5" fill="none"/>
    </g>
    <g id="Grupo_1213293" data-name="Grupo 1213293" transform="translate(19.422 14.031)">
      <g id="Grupo_1213292" data-name="Grupo 1213292" clip-path="url(#clip-path)">
        <path id="Trazado_1259834" data-name="Trazado 1259834" d="M24.139,6.613C21.756,7.047,22,4.887,19.975,3.265a10.279,10.279,0,0,0-2.482,3.654,4.616,4.616,0,0,0-.882,3.615,3.306,3.306,0,0,0,2.748,3.238c1.556.2,3.169-.353,3.634-1.91.322-1.078.712-1.93,1.857-1.888a1.472,1.472,0,0,1,1,1.793,5.638,5.638,0,0,1-4.522,4.556v6.714c.8-.448,1.814-.676,2.362-1.384.447-.6-.049-1.637.215-2.4,1.618-4.7,6.992-4.574,11.039-3.444,2.235.624-.418,5.337-1.133,6.449-1.807,2.811-5.779,4.365-8.5,1.766L21.4,26.063a8.889,8.889,0,0,0-.029,3.169c1.178-.67,7.028-2.919,7.322-.509a13.279,13.279,0,0,1-.435,5.7c-.832,2.6-3.747,5-6.889,3.6a10.161,10.161,0,0,0-.01,3.051l22.331,0A11.485,11.485,0,0,0,43.677,38a4.192,4.192,0,0,1-3.62.039c-3.627-1.661-4-5.745-3.65-9.315.234-2.376,5.963-.243,7.262.448a11.066,11.066,0,0,0,.015-3.164,5.223,5.223,0,0,1-3.581-3c-1.922-4.414.912-8.436,3.922-11.517a1.469,1.469,0,0,1,2.168,0c3.012,3.084,5.841,7.1,3.921,11.518a5.239,5.239,0,0,1-3.577,3,11.551,11.551,0,0,0,0,3.163c1.138-.6,7.024-2.875,7.272-.447.359,3.508-.012,7.493-3.477,9.23A4.126,4.126,0,0,1,46.549,38a11.71,11.71,0,0,0-.037,3.027c1.948.406,6.01-.877,6.087,1.467a1.494,1.494,0,0,1-1.64,1.218L5.112,43.8a6.53,6.53,0,0,0-2.486.053l.011,10.413a12.91,12.91,0,0,0,2.465.017,3.193,3.193,0,0,0,1.227-.032,17.215,17.215,0,0,1,2.113-7.4,1.329,1.329,0,0,1,1.517-.378c3.206,1.4,7.216,4.02,7.79,7.836l8.866.006a17.672,17.672,0,0,1,1.8-6.995,1.441,1.441,0,0,1,1.816-.87c3.319,1.61,7.029,3.8,7.8,7.863H52.257c.779-4.06,4.443-6.225,7.808-7.86,2.253-1.229,3.667,6.413,3.627,7.821l8.774.037a8.024,8.024,0,0,1,2.773-4.7c.907-.788,5.628-4.433,6.538-2.759a17.223,17.223,0,0,1,2.112,7.436,34.759,34.759,0,0,0,3.692-.005l0-10.55-30.114-.016a1.415,1.415,0,0,1-1.408-1.2A1.347,1.347,0,0,1,57.419,41.1l11.444-.045a10.138,10.138,0,0,0-.026-3.073c-3.382,1.586-6.49-1.353-7.1-4.313a13.945,13.945,0,0,1-.214-4.945c.363-2.421,6.082-.15,7.334.5a8.255,8.255,0,0,0-.034-3.03,14.752,14.752,0,0,0-3.8-2.042C61.879,26.42,58.172,25.174,56.3,22.1c-.7-1.151-3.23-5.685-1.016-6.3,4.043-1.122,9.409-1.25,11.026,3.447.266.772-.228,1.8.217,2.406.505.693,1.513.88,2.32,1.391a61.328,61.328,0,0,0,.045-6.719,5.375,5.375,0,0,1-3.81-2.737C62.447,8.729,65.646,4.066,69.009.6A1.511,1.511,0,0,1,71.434.61c3.3,3.376,6.372,7.863,4.094,12.657a5.636,5.636,0,0,1-4.021,3.095l.07,6.676c.772-.5,2.026-.713,2.392-1.515.283-.831-.1-1.822.277-2.658,1.993-4.359,6.96-4.181,10.933-3.051,2.205.628-.45,5.345-1.159,6.455-1.85,2.895-5.849,4.3-8.583,1.713l-3.9,2.175a25.918,25.918,0,0,0,.011,3.119c1.258-.762,7.048-2.937,7.37-.562a13.729,13.729,0,0,1-.322,5.335c-.763,2.965-3.973,5.43-7,3.933a13.413,13.413,0,0,0-.046,3.083l17.336.032a1.361,1.361,0,0,1,1.329,1.479L90.209,84.27a1.307,1.307,0,0,1-1.335,1.376H1.33A1.3,1.3,0,0,1,.014,84.3L0,69.444a1.484,1.484,0,0,1,1.32-1.492A1.364,1.364,0,0,1,2.6,69.207l.049,6.614c.721.316,1.4.023,2.259.063,2.755.128,5.5.073,8.41.036a9.537,9.537,0,0,0,0-2.98c-3.395,1.378-6.422-1.334-7.09-4.567C6,67.3,5.342,62.661,6.948,62.562A13.433,13.433,0,0,1,13.3,64.02,6.547,6.547,0,0,0,13,61.055c-2.85.4-5.007-1.38-6.1-3.895-.334-.436-1.324-.117-1.977-.156a9.255,9.255,0,0,0-2.269.022L2.623,63.07A1.34,1.34,0,0,1,1.31,64.465,1.359,1.359,0,0,1,0,63.04L.019,42.309a1.324,1.324,0,0,1,1.307-1.214l17.342-.027a13.3,13.3,0,0,0-.045-3.049c-2.96,1.348-6-.834-6.879-3.588a13.239,13.239,0,0,1-.444-5.712c.293-2.38,6.135-.2,7.372.558a27.455,27.455,0,0,0,.014-3.156c-1.283-.527-2.489-1.657-3.881-1.961-.955.308-2.009,1.3-3.273,1.222A6.687,6.687,0,0,1,6.086,22.1c-.693-1.144-3.21-5.672-1.047-6.288,4-1.137,8.9-1.309,10.94,3.053.408.873-.1,2.005.334,2.752s1.611.947,2.329,1.421l.068-6.677a5.624,5.624,0,0,1-3.933-2.923C12.309,8.58,15.457,4.062,18.786.6c1.863-1.936,3.763,1.6,5.414,3.6.761.922.138,1.623-.061,2.411m43.573.307a4.95,4.95,0,0,0-.23,5.536A3.112,3.112,0,0,0,70.534,13.8a2.892,2.892,0,0,0,2.682-1.928c1.319-3.325-.687-6.028-2.989-8.621a10.759,10.759,0,0,0-2.515,3.67M42.829,17.681a4.1,4.1,0,0,0,.163,4.928,2.766,2.766,0,0,0,4.372-.314c1.826-2.913-.073-5.541-2.253-8a9.671,9.671,0,0,0-2.282,3.389M9.847,22.22c1.419.856,2.748.533,3.41-.623a2.294,2.294,0,0,0-1.144-3.243,6.565,6.565,0,0,0-4.962-.265,7.086,7.086,0,0,0,2.7,4.131m20.462-.1a7.234,7.234,0,0,0,2.539-4.039,6.657,6.657,0,0,0-4.959.271c-1.412.8-1.87,2.15-1.06,3.382.741,1.126,2.105,1.3,3.479.387m29.754.1c1.446.861,2.753.522,3.426-.661s.163-2.459-1.16-3.21a6.623,6.623,0,0,0-4.96-.275c.5,1.555,1.207,3.261,2.693,4.146m20.466-.106a7.277,7.277,0,0,0,2.54-4.027,6.583,6.583,0,0,0-4.962.26c-1.4.787-1.876,2.164-1.042,3.412.73,1.094,2.107,1.257,3.464.354M17.9,32.16a5.707,5.707,0,0,0-4.015-1.649A5.859,5.859,0,0,0,15.03,34.9a1.993,1.993,0,0,0,2.95.357c.913-.805.886-2.028-.079-3.1M25.138,34.7a6.1,6.1,0,0,0,.976-4.191,5.755,5.755,0,0,0-4.076,1.722,2.026,2.026,0,0,0,.117,3.142,2.068,2.068,0,0,0,2.984-.673m17.877-2.538a6.084,6.084,0,0,0-4.028-1.682,6.391,6.391,0,0,0,1.026,4.284,2.044,2.044,0,0,0,3.084.489,2.068,2.068,0,0,0-.083-3.09m7.128,2.67c1.024-1.19,1.1-2.777,1.088-4.352a6.033,6.033,0,0,0-4.092,1.746,2.055,2.055,0,0,0-.017,3.027,2.011,2.011,0,0,0,3.021-.422m17.974-2.667a5.771,5.771,0,0,0-4.012-1.656,6.019,6.019,0,0,0,1.03,4.271,2.041,2.041,0,0,0,3.073.473c.909-.817.873-2.023-.091-3.088m7.132,2.666a5.967,5.967,0,0,0,1.087-4.315,5.687,5.687,0,0,0-4.083,1.72,2,2,0,1,0,3,2.595M9.071,54.038a4.19,4.19,0,0,0,1.808,4,2.917,2.917,0,0,0,3.953-1.107c1.6-3.022-1.94-6.139-4.7-7.407a11.338,11.338,0,0,0-1.062,4.512m20.247,0a4.244,4.244,0,0,0,1.809,4,2.907,2.907,0,0,0,3.961-1.1c1.611-3.052-1.951-6.109-4.67-7.4a11.322,11.322,0,0,0-1.1,4.507M56.487,52.1c-1.382.852-1.769,2.565-1.57,4.308a2.742,2.742,0,0,0,3.536,1.783,1.433,1.433,0,0,0,1.111-.415c2.323-2.321,1.487-5.408.336-8.221A9.284,9.284,0,0,0,56.487,52.1m20.141-.01A4.144,4.144,0,0,0,75.265,56.7c.568,1.523,2.091,1.79,3.42,1.491,3.447-.777,2.706-6.026,1.422-8.655a10.424,10.424,0,0,0-3.478,2.554M33.593,75.939a9.881,9.881,0,0,0-.023-3.01,4.382,4.382,0,0,1-3.849-.119c-3.4-1.787-3.755-5.719-3.429-9.17.229-2.423,5.978-.276,7.254.419a5.963,5.963,0,0,0-.3-3c-2.868.39-5.122-1.428-6.11-4.074l-9.448-.016c-1.993,5.306-2.491-.218-1.566,7.111,1.408-.7,7.123-2.879,7.34-.437.3,3.386.061,6.885-2.955,8.911a4.434,4.434,0,0,1-4.342.372,9.48,9.48,0,0,0,.008,3.016Zm20.254-.007a8.868,8.868,0,0,0-.022-3,4.393,4.393,0,0,1-3.683-.043c-3.532-1.719-3.994-5.888-3.556-9.372.282-2.244,5.871-.127,7.278.492l.56-4.017a5.819,5.819,0,0,1-2.14-3.032l-14.3-.005c-2.1,5.315-2.5-.139-1.6,7.11,1.445-.642,7.277-3.006,7.374-.257.12,3.4.12,6.845-3.152,8.85a4.6,4.6,0,0,1-4.185.291,9.289,9.289,0,0,0,.1,3.007Zm10.1,1.409a1.459,1.459,0,0,1-1.463,1.295l-57.369.023a8.53,8.53,0,0,0-2.461.039,41.39,41.39,0,0,0,.024,4.33H87.51a8.2,8.2,0,0,0,.022-2.344,6.986,6.986,0,0,0-.022-2.031l-18.562-.015a1.49,1.49,0,0,1-1.537-1.273c-.023-2.387,4.55-1.011,6.649-1.472a9.608,9.608,0,0,0-.006-2.978c-3.271,1.462-6.406-1.261-7.072-4.36a14.946,14.946,0,0,1-.183-5.1c.278-2.126,6.024-.043,7.262.6l.6-4.026a5.659,5.659,0,0,1-2.174-3.04l-9.33-.007c-1.014,2.684-3.269,4.473-6.113,4.087a6.546,6.546,0,0,0-.347,2.982c1.214-.595,7.058-2.834,7.29-.468.333,3.382.049,6.99-2.973,8.987a4.6,4.6,0,0,1-4.331.388,16.021,16.021,0,0,0-.008,2.93l5.82.082a1.418,1.418,0,0,1,1.45,1.376m12.956-4.4a9.764,9.764,0,0,0,0,2.991L87.6,75.92,87.585,57a35.827,35.827,0,0,0-4.249,0c-.984,2.621-3.247,4.441-6.113,4.048a6.363,6.363,0,0,0-.3,3c1.323-.692,6.937-2.85,7.262-.421a13.858,13.858,0,0,1-.2,4.734c-.68,3.259-3.685,5.933-7.088,4.57M12.707,67.085A6.174,6.174,0,0,0,8.7,65.321,5.719,5.719,0,0,0,9.712,69.7a2.032,2.032,0,0,0,2.967.48,2.094,2.094,0,0,0,.027-3.1m7.266,2.385a6.75,6.75,0,0,0,.911-4.126A6.2,6.2,0,0,0,16.85,67.02a2.066,2.066,0,0,0,.127,3.278c.879.641,2.135.365,2.995-.828m12.986-2.4a6.234,6.234,0,0,0-4.007-1.743,5.854,5.854,0,0,0,.995,4.346,2.046,2.046,0,0,0,3.007.508,2.1,2.1,0,0,0,.005-3.111m7.275,2.405a6.646,6.646,0,0,0,.906-4.128A6.223,6.223,0,0,0,37.1,67.024a2.088,2.088,0,0,0,.1,3.25c.926.688,2.162.38,3.028-.8m12.98-2.412a6.2,6.2,0,0,0-4.005-1.728,5.93,5.93,0,0,0,1,4.338,2.044,2.044,0,0,0,3,.509,2.1,2.1,0,0,0,0-3.119m7.254,2.452a6.362,6.362,0,0,0,.919-4.167,6.217,6.217,0,0,0-4.026,1.688,2.077,2.077,0,0,0,.1,3.232c.918.685,2.124.412,3.006-.752M73.3,66.953a6.18,6.18,0,0,0-3.966-1.608,6.619,6.619,0,0,0,.953,4.192c.884,1.171,2.192,1.427,3.1.649,1.026-.881.931-2.17-.085-3.233m7.144,2.809a5.638,5.638,0,0,0,1.073-4.426c-1.731.24-3.258.7-4.181,1.969a1.986,1.986,0,1,0,3.107,2.457" transform="translate(0 0)" fill="#050403"/>
        <path id="Trazado_1259835" data-name="Trazado 1259835" d="M65.858,123.944a1.415,1.415,0,0,0,1.409,1.2l30.114.016-.005,10.55a34.765,34.765,0,0,1-3.692,0,17.211,17.211,0,0,0-2.112-7.435c-.91-1.674-5.63,1.97-6.538,2.759a8.028,8.028,0,0,0-2.773,4.7l-8.774-.038c.04-1.408-1.374-9.05-3.627-7.821-3.365,1.635-7.028,3.8-7.807,7.86H47.829c-.771-4.063-4.481-6.253-7.8-7.863a1.441,1.441,0,0,0-1.816.869,17.674,17.674,0,0,0-1.8,6.995l-8.866-.006c-.574-3.816-4.584-6.434-7.79-7.836a1.33,1.33,0,0,0-1.518.379,17.209,17.209,0,0,0-2.113,7.4,3.2,3.2,0,0,1-1.227.031l.01-10.482,45.847-.087a1.493,1.493,0,0,0,1.639-1.217,14.556,14.556,0,0,1,3.464.027" transform="translate(-9.795 -81.42)" fill="#a86950"/>
        <path id="Trazado_1259836" data-name="Trazado 1259836" d="M7.441,166.334l-.02,18.881c-.86-.04-1.538.253-2.259-.063l-.049-6.615a1.364,1.364,0,0,0-1.278-1.255l-.01-3.488A1.339,1.339,0,0,0,5.138,172.4l.033-6.045a9.272,9.272,0,0,1,2.269-.022" transform="translate(-2.515 -109.33)" fill="#a76951"/>
        <path id="Trazado_1259837" data-name="Trazado 1259837" d="M10.12,229.531a1.743,1.743,0,0,0,.25,1.437,1.625,1.625,0,0,0,1.368.539l80.8.047a8.188,8.188,0,0,1-.021,2.344H7.683a41.385,41.385,0,0,1-.024-4.329,8.521,8.521,0,0,1,2.461-.039" transform="translate(-5.006 -150.872)" fill="#915943"/>
        <path id="Trazado_1259838" data-name="Trazado 1259838" d="M122.837,185.286l-17.332.026a9.287,9.287,0,0,1-.1-3.006,4.6,4.6,0,0,0,4.185-.291c3.272-2.005,3.272-5.452,3.152-8.85-.1-2.75-5.93-.386-7.374.257-.892-7.25-.494-1.8,1.6-7.11l14.3.006a5.822,5.822,0,0,0,2.14,3.032l-.561,4.018c-1.407-.619-7-2.736-7.278-.493-.438,3.485.024,7.653,3.556,9.373a4.394,4.394,0,0,0,3.683.042,8.876,8.876,0,0,1,.022,3" transform="translate(-68.99 -109.355)" fill="#b87a61"/>
        <path id="Trazado_1259839" data-name="Trazado 1259839" d="M176.105,186.758l-3.465-.022a1.419,1.419,0,0,0-1.45-1.376l-5.82-.082a16.083,16.083,0,0,1,.008-2.93,4.6,4.6,0,0,0,4.331-.388c3.023-2,3.306-5.605,2.973-8.987-.233-2.365-6.077-.127-7.29.468a6.551,6.551,0,0,1,.346-2.982c2.844.386,5.1-1.4,6.113-4.087l9.33.007a5.66,5.66,0,0,0,2.174,3.04l-.6,4.026c-1.237-.641-6.983-2.725-7.262-.6a14.956,14.956,0,0,0,.183,5.1c.666,3.1,3.8,5.822,7.072,4.36a9.608,9.608,0,0,1,.006,2.978c-2.1.461-6.673-.915-6.65,1.472" transform="translate(-108.695 -109.395)" fill="#b87961"/>
        <path id="Trazado_1259840" data-name="Trazado 1259840" d="M77.139,225.855a1.489,1.489,0,0,0,1.538,1.273l18.562.015a6.962,6.962,0,0,1,.022,2.031l-80.8-.048a1.623,1.623,0,0,1-1.368-.539,1.742,1.742,0,0,1-.25-1.437l57.369-.023a1.46,1.46,0,0,0,1.463-1.3Z" transform="translate(-9.729 -148.492)" fill="#a86950"/>
        <path id="Trazado_1259841" data-name="Trazado 1259841" d="M63.681,185.314l-17.423,0a9.47,9.47,0,0,1-.008-3.016,4.433,4.433,0,0,0,4.341-.373c3.016-2.026,3.257-5.525,2.956-8.911-.216-2.442-5.931-.264-7.339.437-.925-7.329-.427-1.805,1.566-7.111l9.448.016c.988,2.646,3.242,4.464,6.11,4.074a5.963,5.963,0,0,1,.3,3c-1.276-.695-7.025-2.841-7.255-.419-.326,3.451.032,7.383,3.429,9.17a4.384,4.384,0,0,0,3.849.119,9.881,9.881,0,0,1,.023,3.01" transform="translate(-30.088 -109.375)" fill="#b87a61"/>
        <path id="Trazado_1259842" data-name="Trazado 1259842" d="M224.33,182.274c3.4,1.363,6.408-1.311,7.088-4.57a13.863,13.863,0,0,0,.2-4.733c-.325-2.429-5.939-.271-7.262.421a6.363,6.363,0,0,1,.3-3c2.867.393,5.129-1.426,6.113-4.048a35.684,35.684,0,0,1,4.249,0l.011,18.916-10.695.014a9.766,9.766,0,0,1,0-2.991" transform="translate(-147.428 -109.331)" fill="#b77960"/>
        <path id="Trazado_1259843" data-name="Trazado 1259843" d="M14.324,185.186l.02-18.881c.653.04,1.644-.28,1.977.156,1.091,2.514,3.247,4.3,6.1,3.895a6.547,6.547,0,0,1,.295,2.965,13.431,13.431,0,0,0-6.347-1.459c-1.605.1-.945,4.733-.722,5.812.668,3.233,3.7,5.946,7.09,4.567a9.529,9.529,0,0,1,0,2.98c-2.907.037-5.654.092-8.41-.036" transform="translate(-9.418 -109.301)" fill="#b87961"/>
        <path id="Trazado_1259844" data-name="Trazado 1259844" d="M10.153,127.7l-.01,10.482a12.909,12.909,0,0,1-2.465-.016l-.011-10.413a6.532,6.532,0,0,1,2.487-.052" transform="translate(-5.041 -83.895)" fill="#915943"/>
        <path id="Trazado_1259845" data-name="Trazado 1259845" d="M166.644,153.332a6.465,6.465,0,0,1-1.967-6.091,9.28,9.28,0,0,1,3.414-2.546c1.151,2.813,1.987,5.9-.336,8.221a1.433,1.433,0,0,1-1.111.415" transform="translate(-108.19 -95.142)" fill="#abc854"/>
        <path id="Trazado_1259846" data-name="Trazado 1259846" d="M169.215,194.968c-.882,1.165-2.088,1.438-3.006.752a2.077,2.077,0,0,1-.1-3.231,6.213,6.213,0,0,1,4.026-1.687,6.36,6.36,0,0,1-.919,4.166" transform="translate(-108.748 -125.458)" fill="#a8c453"/>
        <path id="Trazado_1259847" data-name="Trazado 1259847" d="M147.633,192.49a2.1,2.1,0,0,1,0,3.119,2.044,2.044,0,0,1-3-.509,5.929,5.929,0,0,1-1-4.338,6.2,6.2,0,0,1,4.005,1.728" transform="translate(-94.42 -125.432)" fill="#a9c553"/>
        <path id="Trazado_1259848" data-name="Trazado 1259848" d="M163.8,158.22a2.742,2.742,0,0,1-3.536-1.783c-.2-1.742.187-3.456,1.57-4.308a6.465,6.465,0,0,0,1.967,6.091" transform="translate(-105.348 -100.03)" fill="#a0bc4a"/>
        <path id="Trazado_1259849" data-name="Trazado 1259849" d="M206.418,192.415c1.016,1.063,1.111,2.351.085,3.233-.906.778-2.214.522-3.1-.649a6.616,6.616,0,0,1-.953-4.191,6.18,6.18,0,0,1,3.966,1.608" transform="translate(-133.115 -125.462)" fill="#a9c553"/>
        <path id="Trazado_1259850" data-name="Trazado 1259850" d="M227.982,195.2a1.986,1.986,0,1,1-3.107-2.457c.923-1.268,2.449-1.729,4.18-1.969a5.638,5.638,0,0,1-1.073,4.426" transform="translate(-147.535 -125.443)" fill="#a9c553"/>
        <path id="Trazado_1259851" data-name="Trazado 1259851" d="M225.593,153.295a6.51,6.51,0,0,1-2.057-6.1,10.431,10.431,0,0,1,3.478-2.554c1.284,2.629,2.025,7.878-1.422,8.655" transform="translate(-146.908 -95.105)" fill="#abc854"/>
        <path id="Trazado_1259852" data-name="Trazado 1259852" d="M222.755,158.2c-1.329.3-2.852.032-3.42-1.491A4.145,4.145,0,0,1,220.7,152.1a6.51,6.51,0,0,0,2.057,6.1" transform="translate(-144.07 -100.01)" fill="#a2be4b"/>
        <path id="Trazado_1259853" data-name="Trazado 1259853" d="M91.378,152.027a5.358,5.358,0,0,1-5.075-2.371,1.059,1.059,0,0,0-.695-.527,11.322,11.322,0,0,1,1.1-4.506c2.719,1.3,6.281,4.353,4.67,7.4" transform="translate(-56.29 -95.094)" fill="#abc854"/>
        <path id="Trazado_1259854" data-name="Trazado 1259854" d="M110.083,194.928c-.867,1.183-2.1,1.491-3.028.8a2.088,2.088,0,0,1-.1-3.249,6.223,6.223,0,0,1,4.035-1.682,6.65,6.65,0,0,1-.906,4.129" transform="translate(-69.85 -125.456)" fill="#a8c453"/>
        <path id="Trazado_1259855" data-name="Trazado 1259855" d="M88.463,192.484a2.1,2.1,0,0,1-.006,3.11,2.046,2.046,0,0,1-3.006-.508,5.855,5.855,0,0,1-1-4.346,6.237,6.237,0,0,1,4.007,1.743" transform="translate(-55.505 -125.418)" fill="#a8c453"/>
        <path id="Trazado_1259856" data-name="Trazado 1259856" d="M91.334,160.679a2.907,2.907,0,0,1-3.961,1.1,4.243,4.243,0,0,1-1.809-4,1.059,1.059,0,0,1,.695.527,5.358,5.358,0,0,0,5.075,2.371" transform="translate(-56.245 -103.746)" fill="#a0bc4a"/>
        <path id="Trazado_1259857" data-name="Trazado 1259857" d="M50.9,194.93c-.86,1.194-2.116,1.47-2.995.828a2.065,2.065,0,0,1-.127-3.278,6.2,6.2,0,0,1,4.034-1.676,6.751,6.751,0,0,1-.911,4.126" transform="translate(-30.925 -125.46)" fill="#a9c553"/>
        <path id="Trazado_1259858" data-name="Trazado 1259858" d="M29.3,192.5a2.094,2.094,0,0,1-.027,3.1,2.031,2.031,0,0,1-2.967-.48,5.717,5.717,0,0,1-1.015-4.379A6.172,6.172,0,0,1,29.3,192.5" transform="translate(-16.594 -125.416)" fill="#a9c553"/>
        <path id="Trazado_1259859" data-name="Trazado 1259859" d="M32.247,152.022c-3.484.152-3.735-1.206-5.761-2.9a11.339,11.339,0,0,1,1.062-4.512c2.759,1.269,6.295,4.385,4.7,7.408" transform="translate(-17.415 -95.088)" fill="#acc955"/>
        <path id="Trazado_1259860" data-name="Trazado 1259860" d="M32.192,160.685a2.917,2.917,0,0,1-3.953,1.107,4.19,4.19,0,0,1-1.808-4c2.025,1.689,2.277,3.048,5.761,2.9" transform="translate(-17.361 -103.751)" fill="#a0bc4a"/>
        <path id="Trazado_1259861" data-name="Trazado 1259861" d="M57.726,12.88c.284,1.076.954,2.186.711,3.361-1.146-.042-1.535.81-1.857,1.888a5.356,5.356,0,0,1-5.053-4.414c-.059-.286-.237-.534-.447-.529a10.28,10.28,0,0,1,2.482-3.654c2.027,1.623,1.781,3.783,4.164,3.348" transform="translate(-33.587 -6.268)" fill="#acc955"/>
        <path id="Trazado_1259862" data-name="Trazado 1259862" d="M23.576,56.275a7.086,7.086,0,0,1-2.7-4.131,6.569,6.569,0,0,1,4.962.265,2.294,2.294,0,0,1,1.143,3.243c-.661,1.155-1.991,1.479-3.41.623" transform="translate(-13.729 -34.055)" fill="#a8c453"/>
        <path id="Trazado_1259863" data-name="Trazado 1259863" d="M81.055,56.182c-1.374.909-2.738.74-3.48-.387-.811-1.232-.352-2.585,1.06-3.382a6.658,6.658,0,0,1,4.958-.271,7.231,7.231,0,0,1-2.538,4.039" transform="translate(-50.746 -34.061)" fill="#a9c553"/>
        <path id="Trazado_1259864" data-name="Trazado 1259864" d="M54.82,25.145c-.465,1.557-2.077,2.112-3.634,1.91a3.307,3.307,0,0,1-2.748-3.238A4.614,4.614,0,0,1,49.32,20.2c.209,0,.387.242.447.529a5.356,5.356,0,0,0,5.053,4.414" transform="translate(-31.827 -13.283)" fill="#a3bf4b"/>
        <path id="Trazado_1259865" data-name="Trazado 1259865" d="M66.135,93.266a2.068,2.068,0,0,1-2.983.673,2.026,2.026,0,0,1-.117-3.142,5.753,5.753,0,0,1,4.076-1.721,6.1,6.1,0,0,1-.976,4.19" transform="translate(-40.997 -58.57)" fill="#a9c553"/>
        <path id="Trazado_1259866" data-name="Trazado 1259866" d="M44.51,90.741c.965,1.071.992,2.294.079,3.1a1.993,1.993,0,0,1-2.95-.357,5.859,5.859,0,0,1-1.145-4.39,5.708,5.708,0,0,1,4.015,1.649" transform="translate(-26.609 -58.581)" fill="#a9c553"/>
        <path id="Trazado_1259867" data-name="Trazado 1259867" d="M170.215,56.282c-1.486-.885-2.191-2.591-2.693-4.146a6.623,6.623,0,0,1,4.96.275c1.323.752,1.84,2.014,1.16,3.21s-1.98,1.522-3.426.661" transform="translate(-110.151 -34.056)" fill="#a9c553"/>
        <path id="Trazado_1259868" data-name="Trazado 1259868" d="M227.7,56.178c-1.358.9-2.734.739-3.464-.355-.833-1.248-.361-2.625,1.042-3.412a6.585,6.585,0,0,1,4.962-.26,7.277,7.277,0,0,1-2.54,4.027" transform="translate(-147.171 -34.059)" fill="#a8c453"/>
        <path id="Trazado_1259869" data-name="Trazado 1259869" d="M203.223,18.109a5.39,5.39,0,0,1-5.065-4.422c-.059-.286-.23-.527-.439-.528a10.759,10.759,0,0,1,2.515-3.67c2.3,2.593,4.308,5.3,2.989,8.621" transform="translate(-130.007 -6.239)" fill="#abc854"/>
        <path id="Trazado_1259870" data-name="Trazado 1259870" d="M201.375,25.155a2.891,2.891,0,0,1-2.682,1.928,3.112,3.112,0,0,1-3.052-1.342,4.95,4.95,0,0,1,.23-5.536c.209,0,.38.242.439.528a5.39,5.39,0,0,0,5.065,4.422" transform="translate(-128.159 -13.285)" fill="#a3bf4b"/>
        <path id="Trazado_1259871" data-name="Trazado 1259871" d="M191.148,90.729c.964,1.064,1,2.271.091,3.088a2.041,2.041,0,0,1-3.073-.474,6.017,6.017,0,0,1-1.031-4.271,5.773,5.773,0,0,1,4.012,1.656" transform="translate(-123.03 -58.568)" fill="#a9c553"/>
        <path id="Trazado_1259872" data-name="Trazado 1259872" d="M212.657,93.41a2,2,0,1,1-3-2.595,5.685,5.685,0,0,1,4.083-1.721,5.969,5.969,0,0,1-1.086,4.315" transform="translate(-137.406 -58.583)" fill="#a9c553"/>
        <path id="Trazado_1259873" data-name="Trazado 1259873" d="M129.594,49.736c-2.966-.8-3.423-2.1-4.535-4.614a9.672,9.672,0,0,1,2.282-3.389c2.179,2.463,4.078,5.091,2.252,8" transform="translate(-82.23 -27.441)" fill="#abc854"/>
        <path id="Trazado_1259874" data-name="Trazado 1259874" d="M139.36,93.343a2.011,2.011,0,0,1-3.021.422,2.055,2.055,0,0,1,.017-3.027,6.032,6.032,0,0,1,4.092-1.746c.015,1.574-.064,3.162-1.088,4.352" transform="translate(-89.216 -58.514)" fill="#a9c553"/>
        <path id="Trazado_1259875" data-name="Trazado 1259875" d="M117.864,90.672a2.068,2.068,0,0,1,.083,3.09,2.043,2.043,0,0,1-3.084-.489,6.391,6.391,0,0,1-1.026-4.284,6.085,6.085,0,0,1,4.028,1.682" transform="translate(-74.849 -58.514)" fill="#a9c553"/>
        <path id="Trazado_1259876" data-name="Trazado 1259876" d="M128.164,56.243a2.766,2.766,0,0,1-4.372.314,4.1,4.1,0,0,1-.163-4.928c1.112,2.519,1.568,3.819,4.535,4.614" transform="translate(-80.801 -33.948)" fill="#a0bc4a"/>
      </g>
    </g>
  </g>
</svg>
