<svg xmlns="http://www.w3.org/2000/svg" xmlns:xlink="http://www.w3.org/1999/xlink" width="129.063" height="86.201" viewBox="0 0 129.063 86.201">
  <defs>
    <clipPath id="clip-path">
      <rect id="Rect치ngulo_411637" data-name="Rect치ngulo 411637" width="85" height="86.201" fill="none"/>
    </clipPath>
  </defs>
  <g id="_18" data-name="18" transform="translate(-787.781 -2547.069)">
    <g id="Rect치ngulo_410589" data-name="Rect치ngulo 410589" transform="translate(787.781 2575.623)" fill="#ffc94a" stroke="#dfab32" stroke-width="1">
      <rect width="129.063" height="43.021" rx="8" stroke="none"/>
      <rect x="0.5" y="0.5" width="128.063" height="42.021" rx="7.5" fill="none"/>
    </g>
    <g id="Grupo_1213246" data-name="Grupo 1213246" transform="translate(809.813 2547.069)">
      <g id="Grupo_1213245" data-name="Grupo 1213245" clip-path="url(#clip-path)">
        <path id="Trazado_1259250" data-name="Trazado 1259250" d="M203,45.134a24.235,24.235,0,0,0-.033-3.647l.1-23.692c.01-2.255,3.222-.969,4.434-1.56-2.757-3.911-4.408-8.419-7.3-11.66l-7.057,11.681a17.063,17.063,0,0,0,3.151.167,1.4,1.4,0,0,1,1.269,1.47l.05,27.24a10.26,10.26,0,0,1-2.794-.036l-.016-25.863-4.264-.105a1.375,1.375,0,0,1-1.012-2.037L199.061.763a1.408,1.408,0,0,1,2.5,0L211,16.922a1.436,1.436,0,0,1,.137,1.445c-.79,1.463-3.277.458-5.32.871L205.8,45.095a10.871,10.871,0,0,1-2.794.039" transform="translate(-126.278 0)" fill="#060303"/>
        <path id="Trazado_1259251" data-name="Trazado 1259251" d="M224.717,50.648a4.8,4.8,0,0,1-2.6-4.24l-.163-32.671c2.9,3.241,4.548,7.749,7.3,11.66-1.212.591-4.424-.7-4.434,1.56Z" transform="translate(-148.023 -9.161)" fill="#fb4b53"/>
        <path id="Trazado_1259252" data-name="Trazado 1259252" d="M210.587,50.648a24.24,24.24,0,0,1,.033,3.647,48.867,48.867,0,0,1-5.387,0l-.05-27.24a1.4,1.4,0,0,0-1.268-1.47,17.1,17.1,0,0,1-3.151-.167l7.057-11.681.163,32.671a4.8,4.8,0,0,0,2.6,4.24" transform="translate(-133.894 -9.161)" fill="#e03742"/>
        <path id="Trazado_1259253" data-name="Trazado 1259253" d="M145.489,64.364c-.06-1.148-.067-2.305-.065-3.456l.02-14.177c0-2.311,2.909-1.158,4.4-1.594L142.76,33.042c-.38.238-.3.522-.392.682L135.523,45.13c1.282.414,4.42-.617,4.424,1.443l.012,6.769a3.464,3.464,0,0,1-1.376.119,6.7,6.7,0,0,1-1.323-.052L137.15,48l-4.051-.04a1.3,1.3,0,0,1-1.091-.543A1.489,1.489,0,0,1,131.876,46l9.54-16.356a1.425,1.425,0,0,1,2.565,0l9.539,16.356a1.486,1.486,0,0,1-.134,1.422,1.311,1.311,0,0,1-1.088.539l-4.09.047-.026,16.323a9.888,9.888,0,0,1-2.694.039" transform="translate(-87.865 -19.231)" fill="#040303"/>
        <path id="Trazado_1259254" data-name="Trazado 1259254" d="M150.127,66.416c-1.813-1.2-2.339.221-3.985.767V63.168a3.464,3.464,0,0,0,1.376-.119l-.012-6.769c0-2.059-3.141-1.029-4.424-1.443l6.845-11.406c.171-.134.254.087.326.317Z" transform="translate(-95.425 -28.938)" fill="#e43743"/>
        <path id="Trazado_1259255" data-name="Trazado 1259255" d="M165.762,118.751c0,1.151.006,2.308.065,3.456a24.057,24.057,0,0,1-3.584,0,44.1,44.1,0,0,0,.9-6.644c.718,1.211,1.3,2.6,2.62,3.185" transform="translate(-108.204 -77.073)" fill="#c9323c"/>
        <path id="Trazado_1259256" data-name="Trazado 1259256" d="M166.689,69.332c-1.318-.586-1.9-1.973-2.62-3.185a2.577,2.577,0,0,1-.237-1.014l.128-22.668c-.072-.23-.156-.45-.327-.316.1-.16.012-.444.392-.682l7.088,12.095c-1.495.436-4.4-.716-4.4,1.594Z" transform="translate(-109.13 -27.655)" fill="#fb4b53"/>
        <path id="Trazado_1259257" data-name="Trazado 1259257" d="M50.717,68.457c1.646-.546,2.171-1.971,3.985-.767a2.573,2.573,0,0,0,.237,1.015,44.067,44.067,0,0,1-.9,6.644c-.016.419.651.543.714,1A14.422,14.422,0,0,1,54.2,81.89c-.148.582.484.946.557,1.381.378,2.269-.647,4.292-1.215,6.392C52.355,94.042,49,98.5,45.512,98.65l-1.638.071a38.106,38.106,0,0,1-4.906,6.081c2.3,2.806,4.5,5.919,7.749,7.266l4.379,1.819a7.717,7.717,0,0,1-.923,2.525A103.742,103.742,0,0,1,20.4,99.808c-3.389,2.768-5.341,1.627-8.324-.532A73.4,73.4,0,0,1,4.431,92.75,1.372,1.372,0,0,1,4.272,91.2c.226-.463.758-.641,1.4-.918A33.971,33.971,0,0,1,1.564,85.7,1.382,1.382,0,0,1,1.691,84.1c.3-.378.786-.372,1.55-.569A24.827,24.827,0,0,1,.182,76.363c-.2-.747-.37-1.383.265-1.973a2.5,2.5,0,0,1,1.594-.365c-.3-1.914-1.954-8.566.87-8.2a8.247,8.247,0,0,1,1.582.727,27.117,27.117,0,0,1,4.082-9.879,1.326,1.326,0,0,1,1.484-.351,1.417,1.417,0,0,1,.9,1.179A79.567,79.567,0,0,1,12.1,65.6c.406.34,1.021.314,1.286.756a28.422,28.422,0,0,1,2.389,6.294c.543.131,1.21.034,1.551.361.977.939.218,5.838.2,7.659.379.377.883.395,1.324.684a53.043,53.043,0,0,1,4.066,8.583c1.443,4.078-1.652,4.639-1.008,7.544,4.944,3.771,9.828,7.4,15.687,10.193a41.709,41.709,0,0,1-7.509-14.424,5.611,5.611,0,0,1-4.564-1.641,26.805,26.805,0,0,1-4.91-10.258l-1.363-5.4a1.491,1.491,0,0,1,.405-1.565,1.635,1.635,0,0,1,1.614-.224,35.491,35.491,0,0,1-.734-6.974c-.042-.953.9-1.163,1.525-1.538a65.328,65.328,0,0,1,1.317-7.077,1.356,1.356,0,0,1,1.143-.964c1.179-.2,1.533,1.319,2.143,1.577a20.861,20.861,0,0,1,3.99-8.088c.64-.745,1.764-.189,2.375.605A23.922,23.922,0,0,1,41.881,45.4a1.582,1.582,0,0,1,1.423.15,1.351,1.351,0,0,1,.553,1.2,48.946,48.946,0,0,1-2.9,9.6c.489,2.7-.313,5.425-1.04,8,3.061,1.2-.855,4.389-1.542,7.17-.254,1.028-.056,2.343-.228,3.5C37.526,79.2,36.509,83.1,33.939,86.57c1.207,2.056-.607,3.947-1.111,5.436.449,3.818,2.523,7.15,4.437,10.452a20.473,20.473,0,0,0,4.336-5.53c-.636-.93-.268-2.43-.425-3.278-1.68-4.337-1.688-5.326-1.138-9.825.3-2.486-1.478-6.891,1.136-7.086L41.1,72.918a1.523,1.523,0,0,1,.644-1.386,2.057,2.057,0,0,1,1.479-.165,28.043,28.043,0,0,1-.72-6.925,1.391,1.391,0,0,1,.846-1.259,1.48,1.48,0,0,1,1.312.123,11,11,0,0,1,5.4,5.59c.13.207.6-.341.659-.44m-12.834-11.7a39.856,39.856,0,0,0,2.494-7.542,19.322,19.322,0,0,0-6,5.238l1.04,3.552Zm-5.017,2.9A17.737,17.737,0,0,0,31.4,54.709a18.126,18.126,0,0,0-2.514,8.75,45.641,45.641,0,0,1,3.979-3.8m3.648,5.5A15.687,15.687,0,0,0,38.173,59.7,18.956,18.956,0,0,0,30.2,66.524c-.254.392.166,1.051.4,1.414a27.473,27.473,0,0,1,5.912-2.777M8.93,70.048c1.083-.224.2-7.219-.108-7.977a18.914,18.914,0,0,0-1.775,6.279Zm18.412.3c2.083.684-1.659-7.652-1.978-7.673a30.432,30.432,0,0,0-.646,5.009Zm20.29.471A5.95,5.95,0,0,0,45.417,67.1a15.419,15.419,0,0,0,.99,5.35c.369-.553,1.31-.931,1.226-1.636M31.055,75.5l2.733-2.294a48.747,48.747,0,0,0,3.247-5.3,20.021,20.021,0,0,0-7.855,4.708Zm-24.023.628L7.784,73.1A12.524,12.524,0,0,0,4.211,69.73a12.531,12.531,0,0,0,1.215,5.54c.265.508,1.2.594,1.606.857m3.569,2.25c1.072-1.144,1.687-2.428,2.753-3.424a16.485,16.485,0,0,0-1.309-4.739,17.919,17.919,0,0,0-2.342,7.2c-.05.366.493,1.392.9.961m17.388.566a3.879,3.879,0,0,0,1-1.318,25.6,25.6,0,0,0-5.428-7.2,21.71,21.71,0,0,0,1,5.931Zm23.956-7.815a14.1,14.1,0,0,0-3.774,3.543L49.745,77.4c1.614,0,1.994-4.836,2.2-6.268m-5.51,9.545c.33-.4.924-.8.962-1.259a6.686,6.686,0,0,0-3.388-4.63,9.606,9.606,0,0,0,.418,3.935,21.235,21.235,0,0,1,2.009,1.954M32.552,83.734a19,19,0,0,0,2.6-8.093,22.426,22.426,0,0,0-5.124,5.343ZM14.139,85.982a47.948,47.948,0,0,0,.767-8.59A14.313,14.313,0,0,0,11.264,84.8ZM8.592,83.856c.242-.923.6-1.8.717-2.625A16.8,16.8,0,0,0,3.5,77.64c.409,1.626,2.989,7.6,5.1,6.216M31.52,88.235c.557-2.291-6.528-8.486-8.623-9.608a23.86,23.86,0,0,0,4.35,10.736,2.3,2.3,0,0,0,4.273-1.128m19.455-5.253a12.068,12.068,0,0,0,.9-3.585,15.563,15.563,0,0,0-3.6,3.314c-.269.3-.2,1.328.2,1.31.9-.041,1.582-.774,2.5-1.039M45.4,86.3c.32.281.741-.521.563-.889-.818-1.69-1.567-3.31-3.213-4.393.094,4.161.32,3.238,2.651,5.282M20.478,92.182a19.512,19.512,0,0,0-2.644-6.961,25.185,25.185,0,0,0-2.359,5.266,6.313,6.313,0,0,1,5,1.7m30.078-3.349c.913-.648,1.03-2.036,1.19-3.1a9.191,9.191,0,0,0-4.809,3.485c1.2-.014,2.792.2,3.619-.387M12.441,90.348c.467-.384.465-1.119.639-1.7a15.858,15.858,0,0,0-7.109-2.06A18.787,18.787,0,0,0,10.2,90.276a2.815,2.815,0,0,0,2.245.072m31.98-.307a4.776,4.776,0,0,0-1.842-2.456,5.538,5.538,0,0,0,.618,3.43c.417-.174,1.379-.431,1.224-.974M49.813,91.9c-2.06-.056-6.167.985-5.895,3.279.275,2.32,5.32-1.254,5.895-3.279M16.572,93.259a66.2,66.2,0,0,0-7.381.109c2.3,1.887,4.3,3.962,6.935,5.164,1.482.676,2.945-1.053,3.045-2.293a2.7,2.7,0,0,0-2.6-2.98" transform="translate(0 -30.212)" fill="#050403"/>
        <path id="Trazado_1259258" data-name="Trazado 1259258" d="M34.976,189.185a2.7,2.7,0,0,1,2.6,2.98c-.1,1.24-1.562,2.969-3.045,2.293-2.632-1.2-4.637-3.277-6.935-5.164a66.192,66.192,0,0,1,7.381-.109" transform="translate(-18.404 -126.138)" fill="#e68028"/>
        <path id="Trazado_1259259" data-name="Trazado 1259259" d="M15.591,148.61c-2.107,1.387-4.686-4.59-5.1-6.216a16.8,16.8,0,0,1,5.813,3.591c-.122.823-.476,1.7-.717,2.625" transform="translate(-6.999 -94.966)" fill="#e68028"/>
        <path id="Trazado_1259260" data-name="Trazado 1259260" d="M36.693,150.238l-2.875-1.182a14.313,14.313,0,0,1,3.642-7.409,47.947,47.947,0,0,1-.767,8.59" transform="translate(-22.554 -94.468)" fill="#f6c06b"/>
        <path id="Trazado_1259261" data-name="Trazado 1259261" d="M30.025,128.262c-.4.431-.948-.6-.9-.961a17.919,17.919,0,0,1,2.342-7.2,16.491,16.491,0,0,1,1.309,4.739c-1.067,1-1.681,2.281-2.753,3.424" transform="translate(-19.424 -80.097)" fill="#ec942f"/>
        <path id="Trazado_1259262" data-name="Trazado 1259262" d="M51.462,172.115a6.315,6.315,0,0,0-5-1.7,25.209,25.209,0,0,1,2.358-5.266,19.515,19.515,0,0,1,2.645,6.961" transform="translate(-30.985 -110.145)" fill="#ec942f"/>
        <path id="Trazado_1259263" data-name="Trazado 1259263" d="M24.4,173.012a2.817,2.817,0,0,1-2.245-.072,18.785,18.785,0,0,1-4.225-3.692,15.856,15.856,0,0,1,7.109,2.06c-.175.586-.172,1.321-.639,1.7" transform="translate(-11.955 -112.875)" fill="#f0ae30"/>
        <path id="Trazado_1259264" data-name="Trazado 1259264" d="M15.464,125.043c-.409-.263-1.341-.349-1.606-.857a12.53,12.53,0,0,1-1.215-5.54,12.519,12.519,0,0,1,3.572,3.373Z" transform="translate(-8.432 -79.128)" fill="#f0ae30"/>
        <path id="Trazado_1259265" data-name="Trazado 1259265" d="M23.04,103.629l-1.884-1.7a18.916,18.916,0,0,1,1.775-6.28c.3.758,1.191,7.753.108,7.977" transform="translate(-14.109 -63.792)" fill="#f3bd66"/>
        <path id="Trazado_1259266" data-name="Trazado 1259266" d="M137.723,185.195c-.575,2.026-5.619,5.6-5.895,3.279-.272-2.295,3.835-3.335,5.895-3.279" transform="translate(-87.91 -123.509)" fill="#e68028"/>
        <path id="Trazado_1259267" data-name="Trazado 1259267" d="M148.4,122.844c-.207,1.432-.587,6.265-2.2,6.268l-1.573-2.725a14.1,14.1,0,0,1,3.774-3.543" transform="translate(-96.454 -81.927)" fill="#f0ae30"/>
        <path id="Trazado_1259268" data-name="Trazado 1259268" d="M134.392,139.708a21.2,21.2,0,0,0-2.009-1.954,9.6,9.6,0,0,1-.417-3.935,6.687,6.687,0,0,1,3.388,4.63c-.038.461-.632.859-.962,1.259" transform="translate(-87.957 -89.247)" fill="#ec942f"/>
        <path id="Trazado_1259269" data-name="Trazado 1259269" d="M144.536,169.8c-.827.587-2.417.373-3.619.387a9.188,9.188,0,0,1,4.809-3.485c-.161,1.062-.278,2.449-1.191,3.1" transform="translate(-93.981 -111.175)" fill="#f0ae30"/>
        <path id="Trazado_1259270" data-name="Trazado 1259270" d="M147.3,151.254c-.918.265-1.6,1-2.5,1.039-.407.019-.471-1.015-.2-1.31a15.564,15.564,0,0,1,3.6-3.314,12.079,12.079,0,0,1-.9,3.585" transform="translate(-96.33 -98.484)" fill="#e68028"/>
        <path id="Trazado_1259271" data-name="Trazado 1259271" d="M131,157.82c-2.331-2.044-2.557-1.121-2.651-5.282,1.646,1.083,2.395,2.7,3.213,4.393.179.369-.243,1.17-.563.889" transform="translate(-85.599 -101.731)" fill="#f3bd66"/>
        <path id="Trazado_1259272" data-name="Trazado 1259272" d="M138.566,114.471c.084.7-.857,1.084-1.226,1.636a15.42,15.42,0,0,1-.99-5.35,5.95,5.95,0,0,1,2.216,3.713" transform="translate(-90.934 -73.867)" fill="#f3bd66"/>
        <path id="Trazado_1259273" data-name="Trazado 1259273" d="M129.582,174.71c.155.543-.807.8-1.224.974a5.539,5.539,0,0,1-.618-3.43,4.776,4.776,0,0,1,1.842,2.455" transform="translate(-85.162 -114.881)" fill="#ec942f"/>
        <path id="Trazado_1259274" data-name="Trazado 1259274" d="M77.365,154.966a2.3,2.3,0,0,1-4.273,1.128,23.86,23.86,0,0,1-4.35-10.736c2.1,1.122,9.18,7.317,8.623,9.608" transform="translate(-45.846 -96.942)" fill="#e68028"/>
        <path id="Trazado_1259275" data-name="Trazado 1259275" d="M96.827,93.994a27.488,27.488,0,0,0-5.912,2.777c-.234-.363-.654-1.022-.4-1.414a18.955,18.955,0,0,1,7.972-6.824,15.686,15.686,0,0,1-1.659,5.461" transform="translate(-60.314 -59.045)" fill="#f0952f"/>
        <path id="Trazado_1259276" data-name="Trazado 1259276" d="M106.717,64.6l-2.465,1.247-1.04-3.552a19.326,19.326,0,0,1,6-5.238,39.855,39.855,0,0,1-2.494,7.542" transform="translate(-68.834 -38.055)" fill="#f6c06b"/>
        <path id="Trazado_1259277" data-name="Trazado 1259277" d="M89.479,120.763,87.6,117.878a20.019,20.019,0,0,1,7.855-4.708,48.747,48.747,0,0,1-3.247,5.3Z" transform="translate(-58.424 -75.475)" fill="#f6c06b"/>
        <path id="Trazado_1259278" data-name="Trazado 1259278" d="M75.163,129.253l-3.427-2.585a21.71,21.71,0,0,1-1-5.931,25.6,25.6,0,0,1,5.428,7.2,3.877,3.877,0,0,1-1,1.318" transform="translate(-47.174 -80.522)" fill="#f0ae30"/>
        <path id="Trazado_1259279" data-name="Trazado 1259279" d="M92.673,144.484l-2.525-2.75a22.42,22.42,0,0,1,5.124-5.343,18.994,18.994,0,0,1-2.6,8.093" transform="translate(-60.122 -90.962)" fill="#ec942f"/>
        <path id="Trazado_1259280" data-name="Trazado 1259280" d="M90.7,78.5a45.683,45.683,0,0,0-3.979,3.8,18.127,18.127,0,0,1,2.514-8.75A17.743,17.743,0,0,1,90.7,78.5" transform="translate(-57.839 -49.051)" fill="#f0ae30"/>
        <path id="Trazado_1259281" data-name="Trazado 1259281" d="M76.833,105.128l-2.624-2.664a30.44,30.44,0,0,1,.646-5.01c.32.021,4.061,8.357,1.978,7.673" transform="translate(-49.492 -64.995)" fill="#e68028"/>
        <path id="Trazado_1259282" data-name="Trazado 1259282" d="M194.8,179.58a15.082,15.082,0,1,1-15.082-15.073A15.077,15.077,0,0,1,194.8,179.58m-2.744,0a12.338,12.338,0,1,0-12.338,12.331,12.334,12.334,0,0,0,12.338-12.331" transform="translate(-109.797 -109.713)" fill="#070604"/>
        <path id="Trazado_1259283" data-name="Trazado 1259283" d="M197.549,185.074a12.338,12.338,0,1,1-12.338-12.331,12.334,12.334,0,0,1,12.338,12.331m-1.377,0a10.962,10.962,0,1,0-10.962,10.956,10.959,10.959,0,0,0,10.962-10.956" transform="translate(-115.293 -115.206)" fill="#f3bd66"/>
        <path id="Trazado_1259284" data-name="Trazado 1259284" d="M198.924,187.83a10.962,10.962,0,1,1-10.962-10.956,10.959,10.959,0,0,1,10.962,10.956m-12.44,2.925c.534.849.987,1.365,1.844,1.122a1.342,1.342,0,0,0,.985-1.43c-.138-2.211-4.174-.167-5.316-4.277-.966-3.48,2.479-4.743,2.574-5.227.057-.288.107-1.216-.35-1.119a8.172,8.172,0,0,0,.134,16.016c1.313-2.216-2.427-1.281-2.439-5.253.843.085,2.038-.294,2.569.168m5.5-1.035a4.214,4.214,0,0,1-2.441,4.675c-.353.183-.3,1.143.01,1.462a8.164,8.164,0,0,0,.035-16.031c-1.349,2.194,2.357,1.224,2.438,5.231a11.672,11.672,0,0,1-2.669-.055,1.434,1.434,0,0,0-1.526-1.267,1.33,1.33,0,0,0-1.217,1.472c.139,2.181,4.5.231,5.37,4.513" transform="translate(-118.044 -117.961)" fill="#060402"/>
        <path id="Trazado_1259285" data-name="Trazado 1259285" d="M211.23,195.632c-.874-4.281-5.231-2.332-5.37-4.513a1.33,1.33,0,0,1,1.217-1.472,1.434,1.434,0,0,1,1.526,1.267,11.671,11.671,0,0,0,2.669.055c-.082-4.008-3.788-3.037-2.438-5.231a8.164,8.164,0,0,1-.035,16.031c-.306-.319-.363-1.278-.01-1.462a4.214,4.214,0,0,0,2.441-4.675" transform="translate(-137.29 -123.873)" fill="#f0952f"/>
        <path id="Trazado_1259286" data-name="Trazado 1259286" d="M191.977,196.647c-.531-.463-1.726-.083-2.569-.168.012,3.973,3.752,3.037,2.439,5.253a8.172,8.172,0,0,1-.133-16.017c.457-.1.407.831.35,1.119-.095.484-3.54,1.747-2.573,5.227,1.141,4.11,5.178,2.066,5.316,4.277a1.341,1.341,0,0,1-.985,1.429c-.858.243-1.311-.272-1.845-1.121" transform="translate(-123.538 -123.853)" fill="#f0952f"/>
      </g>
    </g>
  </g>
</svg>
