<svg xmlns="http://www.w3.org/2000/svg" xmlns:xlink="http://www.w3.org/1999/xlink" width="129.063" height="84.638" viewBox="0 0 129.063 84.638">
  <defs>
    <clipPath id="clip-path">
      <rect id="Rect치ngulo_411679" data-name="Rect치ngulo 411679" width="74.68" height="84.638" fill="none"/>
    </clipPath>
  </defs>
  <g id="_19" data-name="19" transform="translate(0 -14.535)">
    <g id="Rect치ngulo_410589" data-name="Rect치ngulo 410589" transform="translate(0 35.344)" fill="#5a8441" stroke="#3e5b2c" stroke-width="1">
      <rect width="129.063" height="43.021" rx="8" stroke="none"/>
      <rect x="0.5" y="0.5" width="128.063" height="42.021" rx="7.5" fill="none"/>
    </g>
    <g id="Grupo_1213295" data-name="Grupo 1213295" transform="translate(27.191 14.535)">
      <g id="Grupo_1213294" data-name="Grupo 1213294" clip-path="url(#clip-path)">
        <path id="Trazado_1259877" data-name="Trazado 1259877" d="M43.119,82.954A1.716,1.716,0,0,1,44.8,81.32l16-.021.024-9.884H13.863l-.005,9.871,16.017.035a1.764,1.764,0,0,1,1.687,1.633,1.7,1.7,0,0,1-1.689,1.677l-28.1.007A1.654,1.654,0,0,1,0,82.957L.048,71.885c.03-6.81,3.692-12.862,9.144-17.048a9.585,9.585,0,0,1,3.422-11.257,6.356,6.356,0,0,0,1.953-8.812,9.7,9.7,0,0,1,.278-11.226,5.368,5.368,0,0,1-2.158-5.755,5.017,5.017,0,0,1,4.43-3.9l3.378-.123.048-7.307A6.667,6.667,0,0,1,27.24.026L47.193,0a6.9,6.9,0,0,1,6.982,6.951l0,6.809c1.108.178,2.1.023,3.189.1a5.225,5.225,0,0,1,4.582,3.744,5.352,5.352,0,0,1-2.1,5.928,9.807,9.807,0,0,1,.2,11.4,6.31,6.31,0,0,0,2.029,8.639,9.594,9.594,0,0,1,3.424,11.261c5.527,4.234,9.137,10.4,9.158,17.288l.033,10.833a1.652,1.652,0,0,1-1.773,1.681l-28.1-.008a1.672,1.672,0,0,1-1.688-1.676m7.728-69.11.028-6.915a3.486,3.486,0,0,0-3.19-3.557H26.995A3.487,3.487,0,0,0,23.8,6.929l.013,6.9Zm6.028,7.241a1.923,1.923,0,0,0,1.965-2.147,1.946,1.946,0,0,0-2.049-1.8h-38.9a1.981,1.981,0,1,0,.02,3.958ZM28.451,50.24l-.02-4.822a15.95,15.95,0,0,1-6.96-13.189l-.015-7.75c-.9.107-2.233-.436-2.994.142a6.109,6.109,0,0,0-1.209,8.156A9.619,9.619,0,0,1,14.7,46.109a6.239,6.239,0,0,0-2.58,6.857A24.366,24.366,0,0,1,23.391,50.25ZM49.834,33.081l.034-8.649H24.815l.02,8.511c.015,6.709,5.866,11.832,12.387,11.889,6.5.057,12.585-4.916,12.612-11.75M62.581,52.934a6.29,6.29,0,0,0-2.75-6.925A9.624,9.624,0,0,1,57.419,32.8,6.116,6.116,0,0,0,56.1,24.523c-.855-.343-2-.015-2.875-.038L53.2,32.47a15.779,15.779,0,0,1-6.949,12.949l-.013,4.834,5.774.013a24.247,24.247,0,0,1,10.567,2.669m-19.672.358a45.113,45.113,0,0,0-.086-6.1,16.763,16.763,0,0,1-11.048,0l-.025,5.955a5.584,5.584,0,0,0,11.16.139m9.93.309-6.6.02a8.926,8.926,0,0,1-17.807,0l-6.619-.008-.031,14.458H52.9ZM18.526,68l-.063-13.862a17.57,17.57,0,0,0-4.591,1.706l-.017,12.2A33.538,33.538,0,0,0,18.526,68m42.3.051L60.811,55.84a17.483,17.483,0,0,0-4.6-1.711l-.029,13.934ZM3.288,81.293l7.3-.027-.054-23.23a19.351,19.351,0,0,0-7.266,14.8Zm68.11,0,.005-8.217A19.151,19.151,0,0,0,64.15,58.034l-.056,23.232Z" transform="translate(0 0)" fill="#030302"/>
        <path id="Trazado_1259878" data-name="Trazado 1259878" d="M72.378,233.73h-4.14a1.64,1.64,0,0,0-3.28,0H60.821a1.765,1.765,0,0,0-1.688-1.633l-16.016-.035.005-9.871H90.081l-.024,9.885-16,.021a1.716,1.716,0,0,0-1.681,1.634" transform="translate(-29.259 -150.776)" fill="#90dcf3"/>
        <path id="Trazado_1259879" data-name="Trazado 1259879" d="M114.351,254.716a1.64,1.64,0,1,0-1.64,1.64,1.64,1.64,0,0,0,1.64-1.64" transform="translate(-75.372 -171.735)" fill="#070809"/>
        <path id="Trazado_1259880" data-name="Trazado 1259880" d="M98.833,166.771,98.9,181.24H67.78l.031-14.458,6.619.007a8.926,8.926,0,0,0,17.807,0Z" transform="translate(-45.995 -113.169)" fill="#d5e982"/>
        <path id="Trazado_1259881" data-name="Trazado 1259881" d="M10.188,203.824l-.021-8.46a19.352,19.352,0,0,1,7.266-14.8l.054,23.23Z" transform="translate(-6.899 -122.531)" fill="#d3e681"/>
        <path id="Trazado_1259882" data-name="Trazado 1259882" d="M206.719,203.82l-7.3-.028.056-23.232a19.151,19.151,0,0,1,7.254,15.043Z" transform="translate(-135.32 -122.527)" fill="#d3e681"/>
        <path id="Trazado_1259883" data-name="Trazado 1259883" d="M47.776,182.29a33.593,33.593,0,0,1-4.673.039l.018-12.2a17.564,17.564,0,0,1,4.592-1.706Z" transform="translate(-29.249 -114.294)" fill="#8cd6ec"/>
        <path id="Trazado_1259884" data-name="Trazado 1259884" d="M179.449,182.331l-4.643.016.029-13.934a17.476,17.476,0,0,1,4.6,1.711Z" transform="translate(-118.622 -114.283)" fill="#8cd6ec"/>
        <path id="Trazado_1259885" data-name="Trazado 1259885" d="M101.106,20.964l-27.029-.017-.013-6.9a3.488,3.488,0,0,1,3.19-3.557h20.69a3.486,3.486,0,0,1,3.19,3.557Z" transform="translate(-50.259 -7.12)" fill="#fbd59c"/>
        <path id="Trazado_1259886" data-name="Trazado 1259886" d="M160.206,104.377a24.249,24.249,0,0,0-10.567-2.669l-5.774-.013.013-4.834a15.779,15.779,0,0,0,6.949-12.949l.023-7.985c.876.023,2.02-.305,2.875.038a6.116,6.116,0,0,1,1.32,8.273,9.624,9.624,0,0,0,2.412,13.213,6.29,6.29,0,0,1,2.75,6.925" transform="translate(-97.625 -51.442)" fill="#969fb1"/>
        <path id="Trazado_1259887" data-name="Trazado 1259887" d="M53.576,101.649l-5.06.01a24.359,24.359,0,0,0-11.266,2.716,6.238,6.238,0,0,1,2.58-6.857,9.619,9.619,0,0,0,2.549-13.333,6.108,6.108,0,0,1,1.209-8.156c.76-.579,2.1-.035,2.993-.142l.016,7.75a15.948,15.948,0,0,0,6.96,13.189Z" transform="translate(-25.126 -51.409)" fill="#969fb1"/>
        <path id="Trazado_1259888" data-name="Trazado 1259888" d="M90.3,57.267l-38.964.011a1.981,1.981,0,1,1-.02-3.958h38.9a1.946,1.946,0,0,1,2.049,1.8A1.924,1.924,0,0,1,90.3,57.267" transform="translate(-33.421 -36.182)" fill="#f5d098"/>
        <path id="Trazado_1259889" data-name="Trazado 1259889" d="M109.941,152.936a5.584,5.584,0,0,1-11.16-.139l.026-5.955a16.76,16.76,0,0,0,11.048,0,45.067,45.067,0,0,1,.086,6.1" transform="translate(-67.032 -99.643)" fill="#fcdacc"/>
        <path id="Trazado_1259890" data-name="Trazado 1259890" d="M102.226,84.662c-.027,6.834-6.114,11.807-12.612,11.75-6.521-.057-12.372-5.179-12.388-11.888l-.02-8.511H102.26ZM88.571,87.888a1.621,1.621,0,0,0-2.406.125,1.645,1.645,0,0,0,.182,2.316,4.95,4.95,0,0,0,6.772,0,1.646,1.646,0,0,0,.182-2.315c-1.763-2.027-2.8,1.58-4.73-.126" transform="translate(-52.392 -51.582)" fill="#fddbcd"/>
        <path id="Trazado_1259891" data-name="Trazado 1259891" d="M106.653,111.881c1.929,1.706,2.967-1.9,4.73.126a1.646,1.646,0,0,1-.182,2.315,4.95,4.95,0,0,1-6.772,0,1.645,1.645,0,0,1-.182-2.316,1.621,1.621,0,0,1,2.406-.125" transform="translate(-70.474 -75.575)" fill="#060605"/>
      </g>
    </g>
  </g>
</svg>
