<svg xmlns="http://www.w3.org/2000/svg" xmlns:xlink="http://www.w3.org/1999/xlink" width="217.033" height="203" viewBox="0 0 217.033 203">
  <defs>
    <filter id="Rectángulo_411582" x="0" y="0" width="217.033" height="203" filterUnits="userSpaceOnUse">
      <feOffset dy="3" input="SourceAlpha"/>
      <feGaussianBlur stdDeviation="3" result="blur"/>
      <feFlood flood-opacity="0.161"/>
      <feComposite operator="in" in2="blur"/>
      <feComposite in="SourceGraphic"/>
    </filter>
    <clipPath id="clip-path">
      <rect id="Rectángulo_411699" data-name="Rectángulo 411699" width="132.646" height="132.524" fill="none"/>
    </clipPath>
  </defs>
  <g id="Grupo_1213536" data-name="Grupo 1213536" transform="translate(-195.711 -1159.2)">
    <g transform="matrix(1, 0, 0, 1, 195.71, 1159.2)" filter="url(#Rectángulo_411582)">
      <rect id="Rectángulo_411582-2" data-name="Rectángulo 411582" width="199.033" height="185" rx="11" transform="translate(9 6)" fill="#edf2ea"/>
    </g>
    <g id="Grupo_1213327" data-name="Grupo 1213327" transform="translate(237.904 1191.438)">
      <g id="Grupo_1213326" data-name="Grupo 1213326" clip-path="url(#clip-path)">
        <path id="Trazado_1260194" data-name="Trazado 1260194" d="M22.18,117.834c-.373-1.211.573-2.065,3.831-2.069,24.793-.029,73.5.092,98.341-.128,1.2-.011,4.23.652,4.249-1.41l.2-22.267a2.337,2.337,0,0,0-2.227-2.282c-.791-.066-1.365.1-2.278.1L6.526,89.639a2.339,2.339,0,0,0-2.608,2.314l.005,21.7a2.141,2.141,0,0,0,2.121,2.075l9.025.058a2.107,2.107,0,0,1,2.044,2.026,2.2,2.2,0,0,1-2.36,1.925L6.069,119.7a6.11,6.11,0,0,1-6.03-6.348L.063,91.867a5.979,5.979,0,0,1,5.612-6.038c3.022-.191,5.887.277,9.022-.249L2.93,73.623c-4.227-4.3-3.727-11.1.517-15.342L41.231,20.539c.861-.86,2.094-.248,2.854.1-.015.567.718,1.762.05,2.431L6.019,61.239a7.021,7.021,0,0,0,0,10.014L20.505,85.766l89.065-.09c.71,0,2.131.426,2.817-.145l14.3-14.285a7.012,7.012,0,0,0-.023-10.014L71.2,5.752a6,6,0,0,0-4.148-1.7,6.423,6.423,0,0,0-5.511,1.684L50.632,16.631a2.552,2.552,0,0,1-3.18.564c-.226-.635-.962-1.841-.251-2.558L58.378,3.365a11.178,11.178,0,0,1,16.148.171l54.71,54.741a11.082,11.082,0,0,1,.2,15.75L117.972,85.586c3.18.524,6,.049,9.048.243a5.986,5.986,0,0,1,5.606,6.034l.02,21.514c0,3.119-2.275,6.263-5.688,6.271l-43.188.1-9.469,9.44a11.146,11.146,0,0,1-15.912-.006l-9.455-9.447-24.4,0a2.245,2.245,0,0,1-2.353-1.9m33.251,2.679c1.675,2.1,3.78,3.867,5.726,5.915a6.97,6.97,0,0,0,5.2,2.181,6.652,6.652,0,0,0,4.783-1.818L78,119.886a10.46,10.46,0,0,0-3.676-.131l-18.858-.011-.588.007c-.188,0-.254.157-.05.389.128.145.461.2.6.374" transform="translate(0 0)" fill="#070806"/>
        <path id="Trazado_1260195" data-name="Trazado 1260195" d="M130.784,238.113a7.754,7.754,0,0,1,.446,2.854l-.011,19.953a8.682,8.682,0,0,1-.382,3.056c-24.837.221-73.548.1-98.341.128-3.257,0-4.2.858-3.83,2.069l-5.068-.022a2.108,2.108,0,0,0-2.044-2.026l-9.025-.058a2.141,2.141,0,0,1-2.121-2.075l-.005-21.7a2.339,2.339,0,0,1,2.608-2.314ZM34.5,251.061a8.366,8.366,0,1,0-8.366,8.366,8.366,8.366,0,0,0,8.366-8.366m14.193,7.773c1.932-2.06-1.857-4.143-2.724-6a5.221,5.221,0,0,0-.7-9.911c-1.38-.325-6.845-1.144-6.848,1.8L38.4,257.186a1.96,1.96,0,1,0,3.9.354c.1-.857-.193-1.644.266-2.459,1.521,1.27,3.961,6.053,6.119,3.752m15.4-5.772a2.709,2.709,0,0,1-2.063,2.326A4.384,4.384,0,0,1,57,253.116a4.494,4.494,0,0,1,1.174-5.545c3.777-3.055,6.654,2.138,8.113-.958a1.96,1.96,0,0,0-.713-2.546,8.37,8.37,0,0,0-11.5,11.726,8.178,8.178,0,0,0,9.959,2.986c3.281-1.431,5.381-5.723,3.869-9.114-1.608-.948-4.787-.8-6.349-.108-1.095.485-.852,2.013-.461,2.607.482.731,1.534.934,3,.9m16.332,3.463c.6.183.684,1.248.851,1.6a2,2,0,0,0,2.6,1.144,1.944,1.944,0,0,0,1.027-2.474L80.19,244.225a2.216,2.216,0,0,0-2.256-1.485,2.189,2.189,0,0,0-1.947,1.385L71.14,256.9a1.908,1.908,0,0,0,1.521,2.483c2.6.35,2.082-2.945,3.213-3a13.154,13.154,0,0,1,4.551.136m20.923.451-.145-12.386a1.911,1.911,0,0,0-2.173-1.836c-3.063.365-1.029,5.533-1.884,8.133l-5.131-7.259a1.975,1.975,0,0,0-3.611,1.116l.02,12.739a1.947,1.947,0,0,0,2.251,1.9c2.89-.432.977-5.238,1.826-8l5.054,7.032a2.024,2.024,0,0,0,2.3.734,2.191,2.191,0,0,0,1.49-2.174m8.033.377,0-12.609a1.917,1.917,0,0,0-2.088-1.994A1.855,1.855,0,0,0,105.5,244.7l.021,12.856a1.857,1.857,0,0,0,2.12,1.836,1.974,1.974,0,0,0,1.737-2.042m14.455-2.443c-1.941,1.441-4.448.3-5.526-1.18a4.417,4.417,0,0,1,.276-5.653c3.731-4.085,7.218,1.762,8.614-1.469a2.022,2.022,0,0,0-.885-2.666A8.369,8.369,0,0,0,114.6,255.133a8.3,8.3,0,0,0,8.954,4.108,6.166,6.166,0,0,0,4.04-2.612,1.872,1.872,0,0,0-.783-2.663c-1.152-.492-1.929.164-2.977.942" transform="translate(-6.485 -148.339)" fill="#95d77a"/>
        <path id="Trazado_1260196" data-name="Trazado 1260196" d="M330.051,264.014a8.685,8.685,0,0,0,.382-3.056L330.443,241a7.751,7.751,0,0,0-.446-2.854c.914,0,1.488-.163,2.279-.1a2.337,2.337,0,0,1,2.227,2.281l-.2,22.267c-.019,2.062-3.053,1.4-4.249,1.411" transform="translate(-205.698 -148.378)" fill="#76c073"/>
        <path id="Trazado_1260197" data-name="Trazado 1260197" d="M166.056,317.915c-.039,1.623-6.89,6.982-7.97,8.854a6.973,6.973,0,0,1-5.2-2.18c-1.947-2.048-4.051-3.813-5.726-5.916a2.689,2.689,0,0,0,.035-.769Z" transform="translate(-91.731 -198.16)" fill="#b6e97b"/>
        <path id="Trazado_1260198" data-name="Trazado 1260198" d="M176.162,326.61c1.081-1.872,7.931-7.23,7.97-8.854a10.468,10.468,0,0,1,3.676.131l-6.863,6.905a6.652,6.652,0,0,1-4.783,1.818" transform="translate(-109.808 -198.001)" fill="#95d77a"/>
        <path id="Trazado_1260199" data-name="Trazado 1260199" d="M145.994,317.9a2.689,2.689,0,0,1-.035.769c-.141-.177-.474-.229-.6-.374-.2-.232-.138-.386.049-.389Z" transform="translate(-90.527 -198.16)" fill="#95d77a"/>
        <path id="Trazado_1260200" data-name="Trazado 1260200" d="M230.428,264.855a2.191,2.191,0,0,1-1.49,2.174,2.024,2.024,0,0,1-2.3-.734l-5.055-7.032c-.848,2.765,1.064,7.571-1.825,8a1.947,1.947,0,0,1-2.251-1.9l-.02-12.739a1.975,1.975,0,0,1,3.611-1.116l5.13,7.259c.855-2.6-1.179-7.768,1.884-8.133a1.912,1.912,0,0,1,2.173,1.836Z" transform="translate(-135.566 -156.219)" fill="#060805"/>
        <path id="Trazado_1260201" data-name="Trazado 1260201" d="M46.678,258.866a8.366,8.366,0,1,1-8.366-8.366,8.366,8.366,0,0,1,8.366,8.366m-3.878,0a4.483,4.483,0,1,0-4.483,4.483,4.483,4.483,0,0,0,4.483-4.483" transform="translate(-18.666 -156.145)" fill="#040503"/>
        <path id="Trazado_1260202" data-name="Trazado 1260202" d="M133.909,260.871c-1.466.037-2.518-.166-3-.9-.391-.594-.634-2.122.461-2.607,1.562-.692,4.741-.84,6.349.108,1.511,3.391-.588,7.682-3.87,9.114a8.178,8.178,0,0,1-9.959-2.985,8.37,8.37,0,0,1,11.5-11.726,1.961,1.961,0,0,1,.713,2.546c-1.46,3.1-4.337-2.1-8.113.958a4.494,4.494,0,0,0-1.174,5.545,4.384,4.384,0,0,0,5.029,2.27,2.709,2.709,0,0,0,2.063-2.326" transform="translate(-76.3 -156.149)" fill="#040503"/>
        <path id="Trazado_1260203" data-name="Trazado 1260203" d="M95.029,266.424c-2.158,2.3-4.6-2.481-6.119-3.751-.459.814-.168,1.6-.266,2.458a1.96,1.96,0,1,1-3.9-.354l.012-12.462c0-2.949,5.468-2.129,6.848-1.8a5.221,5.221,0,0,1,.7,9.911c.867,1.859,4.656,3.942,2.724,6m-3.473-10.582c.326-1.4-1.436-2.115-2.552-1.553-.652.328-.291,1.727-.2,2.492.9.317,2.462.3,2.752-.939" transform="translate(-52.824 -155.93)" fill="#020302"/>
        <path id="Trazado_1260204" data-name="Trazado 1260204" d="M180.745,264.4a13.155,13.155,0,0,0-4.551-.136c-1.131.051-.615,3.345-3.213,3a1.908,1.908,0,0,1-1.521-2.483L176.306,252a2.19,2.19,0,0,1,1.947-1.385,2.215,2.215,0,0,1,2.256,1.485l4.716,12.566a1.943,1.943,0,0,1-1.027,2.474A2,2,0,0,1,181.6,266c-.167-.35-.249-1.415-.851-1.6m-1.409-4.65-.91-1.919a4.382,4.382,0,0,0-.913,2.043,1.108,1.108,0,0,0,1.823-.124" transform="translate(-106.805 -156.215)" fill="#040503"/>
        <path id="Trazado_1260205" data-name="Trazado 1260205" d="M294.533,262.722c1.048-.779,1.825-1.435,2.977-.942a1.872,1.872,0,0,1,.783,2.663,6.165,6.165,0,0,1-4.04,2.612,8.3,8.3,0,0,1-8.954-4.108,8.369,8.369,0,0,1,11.711-11.192,2.022,2.022,0,0,1,.885,2.666c-1.4,3.231-4.883-2.616-8.614,1.469a4.417,4.417,0,0,0-.276,5.653c1.078,1.482,3.586,2.621,5.526,1.18" transform="translate(-177.182 -156.152)" fill="#040503"/>
        <path id="Trazado_1260206" data-name="Trazado 1260206" d="M266.757,265.239a1.974,1.974,0,0,1-1.737,2.042,1.857,1.857,0,0,1-2.119-1.836l-.021-12.856a1.855,1.855,0,0,1,1.785-1.953,1.917,1.917,0,0,1,2.088,1.994Z" transform="translate(-163.862 -156.226)" fill="#020302"/>
        <path id="Trazado_1260207" data-name="Trazado 1260207" d="M49.237,265.289a4.483,4.483,0,1,1-4.483-4.483,4.483,4.483,0,0,1,4.483,4.483" transform="translate(-25.103 -162.569)" fill="#95d77a"/>
        <path id="Trazado_1260208" data-name="Trazado 1260208" d="M97.975,262.364c-.289,1.243-1.854,1.256-2.752.939-.091-.765-.452-2.164.2-2.492,1.116-.562,2.878.152,2.552,1.553" transform="translate(-59.243 -162.452)" fill="#93d176"/>
        <path id="Trazado_1260209" data-name="Trazado 1260209" d="M189.544,271.695a1.108,1.108,0,0,1-1.823.124,4.382,4.382,0,0,1,.913-2.043Z" transform="translate(-117.013 -168.16)" fill="#76c073"/>
        <path id="Trazado_1260210" data-name="Trazado 1260210" d="M73.532,10.672c-.127.684.267,1.011.861,1.6l54.133,54.148a8.914,8.914,0,0,1,.195,12.667l-12,12.068c-.379.381-.677.7-.669,1.134l-89.065.09L12.5,77.869a7.022,7.022,0,0,1,0-10.014L50.619,29.69c.667-.669-.066-1.865-.051-2.431a16.825,16.825,0,0,1,3.367-3.448,2.552,2.552,0,0,0,3.18-.564L68.021,12.355a6.421,6.421,0,0,1,5.511-1.684M100.5,60A27.676,27.676,0,1,0,72.828,87.678,27.676,27.676,0,0,0,100.5,60M36.148,72.876A6.227,6.227,0,1,0,29.921,79.1a6.227,6.227,0,0,0,6.227-6.227m90.1,0a6.227,6.227,0,1,0-6.227,6.227,6.227,6.227,0,0,0,6.227-6.227" transform="translate(-6.483 -6.617)" fill="#b6e97b"/>
        <path id="Trazado_1260211" data-name="Trazado 1260211" d="M220.488,92.386c-.008-.437.29-.753.669-1.134l12-12.068a8.914,8.914,0,0,0-.195-12.667L178.827,12.37c-.594-.594-.988-.921-.861-1.6a6,6,0,0,1,4.148,1.7l55.466,55.48a7.011,7.011,0,0,1,.023,10.014L223.3,92.241c-.686.571-2.107.145-2.817.145" transform="translate(-110.917 -6.71)" fill="#93d176"/>
        <path id="Trazado_1260212" data-name="Trazado 1260212" d="M58.145,165.6a6.227,6.227,0,1,1-6.227-6.227,6.227,6.227,0,0,1,6.227,6.227m-3.914,0a2.313,2.313,0,1,0-2.313,2.313,2.313,2.313,0,0,0,2.313-2.313" transform="translate(-28.48 -99.344)" fill="#050604"/>
        <path id="Trazado_1260213" data-name="Trazado 1260213" d="M297.35,165.6a6.227,6.227,0,1,1-6.227-6.227,6.227,6.227,0,0,1,6.227,6.227m-3.917,0a2.311,2.311,0,1,0-2.311,2.311,2.311,2.311,0,0,0,2.311-2.311" transform="translate(-177.585 -99.344)" fill="#040503"/>
        <path id="Trazado_1260214" data-name="Trazado 1260214" d="M60.711,172.08a2.313,2.313,0,1,1-2.313-2.313,2.313,2.313,0,0,1,2.313,2.313" transform="translate(-34.96 -105.821)" fill="#efe5d1"/>
        <path id="Trazado_1260215" data-name="Trazado 1260215" d="M299.912,172.085a2.311,2.311,0,1,1-2.311-2.311,2.311,2.311,0,0,1,2.311,2.311" transform="translate(-184.065 -105.826)" fill="#efe5d1"/>
        <path id="Trazado_1260216" data-name="Trazado 1260216" d="M158.012,95.931a27.676,27.676,0,1,1-27.676-27.676,27.676,27.676,0,0,1,27.676,27.676m-21.675,23.063a.816.816,0,0,0,.417-.341c.113-.04.253.023.369-.009,9.967-2.7,16.9-12.169,17.005-22.452s-6.651-20.03-16.6-22.772a1.3,1.3,0,0,0-.407-.062c-.119-.344-.478-.3-.755-.38a23.746,23.746,0,0,0-25.543,36.551,23.922,23.922,0,0,0,25.516,9.465" transform="translate(-63.992 -42.546)" fill="#050604"/>
        <path id="Trazado_1260217" data-name="Trazado 1260217" d="M142.8,79.384c.056.377.441.409.755.38a1.307,1.307,0,0,1,.408.062c.047.339.283.5.655.756,4.145,2.857,8.018,6.63,9.461,11.344-6.031-2.545-12.94-.638-17.3,4.772a15.061,15.061,0,0,0-15.28-5.5c-2.163.493-3.162,2-3.561,4.021a15.194,15.194,0,0,0,4.494,13.744c4.135,4.055,9.112,3.815,14.356,3.725,4.865-.084,9.5.568,13.7-3.164a15.788,15.788,0,0,0,5.475-11.644c2.291,10.085-2.649,20.762-11.6,26.352a1.772,1.772,0,0,0-.793.812c-.116.032-.256-.031-.369.009-.162.057-.547.089-.417.341A23.816,23.816,0,0,1,117.4,88.537,23.61,23.61,0,0,1,142.8,79.384" transform="translate(-70.425 -48.952)" fill="#f6ecd7"/>
        <path id="Trazado_1260218" data-name="Trazado 1260218" d="M194.154,127.191a1.773,1.773,0,0,1,.794-.813c8.953-5.59,13.893-16.266,11.6-26.352a9.874,9.874,0,0,0-1.876-5.958c-1.443-4.715-5.316-8.488-9.461-11.345-.371-.256-.607-.417-.655-.756,9.95,2.742,16.712,12.484,16.6,22.772s-7.038,19.751-17.005,22.452" transform="translate(-121.023 -51.093)" fill="#eed7ad"/>
        <path id="Trazado_1260219" data-name="Trazado 1260219" d="M192.894,81.173c-.315.029-.7,0-.755-.38.278.079.636.036.755.38" transform="translate(-119.767 -50.361)" fill="#eed7ad"/>
        <path id="Trazado_1260220" data-name="Trazado 1260220" d="M192.025,202.394c-.129-.252.256-.284.417-.341a.816.816,0,0,1-.417.341" transform="translate(-119.679 -125.946)" fill="#eed7ad"/>
        <path id="Trazado_1260221" data-name="Trazado 1260221" d="M161.817,112.249a9.871,9.871,0,0,1,1.877,5.958,15.788,15.788,0,0,1-5.475,11.644c-4.2,3.732-8.831,3.08-13.7,3.163-5.244.09-10.221.33-14.356-3.725a15.194,15.194,0,0,1-4.494-13.744c.4-2.023,1.4-3.528,3.561-4.021a15.062,15.062,0,0,1,15.28,5.5c4.364-5.41,11.273-7.318,17.3-4.772m-22.293,16.945c1,.073,2.607.261,3.565-.362a10.675,10.675,0,0,0-9.446-13.65c-1.06-.075-2.818-.322-3.907.374a10.792,10.792,0,0,0,9.788,13.638m11.031-.1a10.77,10.77,0,0,0,8.759-13.516c-.871-.748-2.594-.432-3.855-.4a10.354,10.354,0,0,0-8.811,5.926,23.854,23.854,0,0,0,.938,3.178l3.491-3.207a1.938,1.938,0,0,1,2.309.15,1.866,1.866,0,0,1,.315,2.469l-5.113,5.316c.664.461,1.2.191,1.966.081" transform="translate(-78.166 -69.274)" fill="#060705"/>
        <path id="Trazado_1260222" data-name="Trazado 1260222" d="M140.1,121.707a15.678,15.678,0,0,1,5.881,14.012,10.792,10.792,0,0,1-9.788-13.638c1.089-.7,2.846-.449,3.907-.374" transform="translate(-84.628 -75.799)" fill="#95d77a"/>
        <path id="Trazado_1260223" data-name="Trazado 1260223" d="M190.622,121.872c1.093,5.279-1.08,10.211-4.9,13.914-.767.11-1.3.38-1.966-.081l5.113-5.316a1.866,1.866,0,0,0-.315-2.47,1.938,1.938,0,0,0-2.309-.15l-3.491,3.207a23.874,23.874,0,0,1-.938-3.178,10.353,10.353,0,0,1,8.811-5.926" transform="translate(-113.329 -75.967)" fill="#b3e579"/>
        <path id="Trazado_1260224" data-name="Trazado 1260224" d="M153.162,135.893a15.676,15.676,0,0,0-5.881-14.012,10.675,10.675,0,0,1,9.446,13.65c-.958.623-2.568.435-3.565.362" transform="translate(-91.805 -75.972)" fill="#75c87a"/>
        <path id="Trazado_1260225" data-name="Trazado 1260225" d="M192.181,135.629c3.825-3.7,6-8.635,4.9-13.914,1.261-.034,2.984-.35,3.855.4a10.77,10.77,0,0,1-8.759,13.516" transform="translate(-119.793 -75.81)" fill="#95d77a"/>
      </g>
    </g>
  </g>
</svg>
