<svg xmlns="http://www.w3.org/2000/svg" xmlns:xlink="http://www.w3.org/1999/xlink" width="184.949" height="230.087" viewBox="0 0 184.949 230.087">
  <defs>
    <filter id="Trazado_1256082" x="0" y="0" width="184.949" height="230.087" filterUnits="userSpaceOnUse">
      <feOffset dy="3" input="SourceAlpha"/>
      <feGaussianBlur stdDeviation="3" result="blur"/>
      <feFlood flood-opacity="0.161"/>
      <feComposite operator="in" in2="blur"/>
      <feComposite in="SourceGraphic"/>
    </filter>
    <clipPath id="clip-path">
      <rect id="Rectángulo_411640" data-name="Rectángulo 411640" width="138.115" height="137.545" fill="none"/>
    </clipPath>
  </defs>
  <g id="_20" data-name="20" transform="translate(-194.051 -4887)">
    <g id="Grupo_1202346" data-name="Grupo 1202346" transform="translate(-0.784 -7113)">
      <g transform="matrix(1, 0, 0, 1, 194.83, 12000)" filter="url(#Trazado_1256082)">
        <path id="Trazado_1256082-2" data-name="Trazado 1256082" d="M9,0H157.949a9,9,0,0,1,9,9V203.087a9,9,0,0,1-9,9H9a9,9,0,0,1-9-9V9A9,9,0,0,1,9,0Z" transform="translate(9 6)" fill="#ffc94a"/>
      </g>
    </g>
    <g id="Grupo_1213248" data-name="Grupo 1213248" transform="translate(217.468 4930.728)">
      <g id="Grupo_1213247" data-name="Grupo 1213247" clip-path="url(#clip-path)">
        <path id="Trazado_1259287" data-name="Trazado 1259287" d="M17.06,67.192l.027-27.529,8.239-.088c.469-.4.388-1.53.38-2.029l3.934,0a9.444,9.444,0,0,0,.3,2.095l11.2-.118C45.5,36.137,48.1,30.58,52.945,27.91L77.567,14.333C78.992,18.867,77,22.9,73.728,25.6l-7.34,6.068A14.885,14.885,0,0,1,51.636,47.335c-.065,1.509-.344,2.761.222,4.082A19.059,19.059,0,0,0,70.338,35.071l32.6-.022a3.406,3.406,0,1,1,.011,6.792L74.51,41.826a15.842,15.842,0,0,0,.012,4.036l36.5.047a3.253,3.253,0,0,1,3.359,3.217,3.292,3.292,0,0,1-3.2,3.446L84.848,52.6a6.7,6.7,0,0,0-6.666-3.607A16.529,16.529,0,0,0,63.488,63.3c-.483,4.176,2.021,7.436,6.166,7.592a14.844,14.844,0,0,0,9.481-3.417l19.36,0a3.285,3.285,0,0,1,3.3,3.585c-.317,4.4-6.226,2.911-9.858,3.048-1.291-1.985-3.007-3.658-5.434-3.715-2.543-.059-3.992,2.036-5.479,3.693l-20.786.039c-7.153.014-13.548-2.651-19.352-6.794Z" transform="translate(-10.37 -8.712)" fill="#fccbb5"/>
        <path id="Trazado_1259288" data-name="Trazado 1259288" d="M.114,58.539l6.59-.06,23.827.136c5.8,4.142,12.2,6.807,19.352,6.794l20.786-.039c1.487-1.657,2.936-3.752,5.479-3.693,2.428.056,4.144,1.729,5.434,3.715,3.632-.138,9.541,1.347,9.858-3.048a3.285,3.285,0,0,0-3.3-3.585l-19.36,0A14.841,14.841,0,0,1,59.3,62.18c-4.145-.156-6.648-3.416-6.166-7.592A16.529,16.529,0,0,1,67.826,40.281a6.7,6.7,0,0,1,6.666,3.607l26.338-.028a3.292,3.292,0,0,0,3.2-3.446A3.253,3.253,0,0,0,100.67,37.2l-36.5-.047a15.859,15.859,0,0,1-.012-4.036l28.442.015a3.406,3.406,0,1,0-.011-6.792l-32.6.022A19.059,19.059,0,0,1,41.5,42.7c-.566-1.32-.287-2.573-.222-4.082A14.884,14.884,0,0,0,56.032,22.96l7.34-6.068c3.268-2.7,5.264-6.737,3.838-11.271L42.589,19.2c-4.842,2.67-7.446,8.228-11.807,11.609l-11.2.118a9.448,9.448,0,0,1-.3-2.095,10.31,10.31,0,0,1,.237-1.855l9.5-.247c4.168-2.98,6.5-8.315,10.986-10.772L69.106,0a14.641,14.641,0,0,1-1.985,19c-1.189,1.139-2.527,1.841-3.67,3.28l29.13.037a7.5,7.5,0,0,1,7.037,10.7c4.064-.159,7.6,2.132,8.351,6.051a7.624,7.624,0,0,1-5.792,8.805,7.4,7.4,0,0,1-.449,7.483,8.115,8.115,0,0,1-6.744,3.5c.771,2.585.771,5.013-.607,7.168-2.875,4.5-6.659,3.143-11.261,3.562a12.947,12.947,0,0,1-3.085,10.505,5.039,5.039,0,0,1-7.541.156c-2.767-2.8-3.654-6.692-3.223-10.734l-19.825-.083c-7.463-.031-14.273-2.722-20.358-6.884L.166,62.519a18.337,18.337,0,0,1-.052-3.98m62.242-1.073c4.653-1.046,8.245-5.682,8.594-10.523.122-1.692-1.037-2.58-2.648-2.544-7.817.175-12.933,9.7-10.535,12.963.964,1.311,3.327.673,4.588.1m33.531-2.851c2.068,0,3.146-2.15,3-3.631a3.444,3.444,0,0,0-3.538-3.068l-20.357.007a20.1,20.1,0,0,1-2.347,6.741ZM77.357,66.467A1.485,1.485,0,0,0,76,65.82a1.8,1.8,0,0,0-1.03.693c-3.847,5.039-.431,11.431,1.294,11.256,1.813-.184,4.833-6.491,1.1-11.3" transform="translate(-0.013)" fill="#080706"/>
        <path id="Trazado_1259289" data-name="Trazado 1259289" d="M6.874,78.8l-.027,27.529-6.59.06L.277,78.723Z" transform="translate(-0.156 -47.851)" fill="#f8a780"/>
        <path id="Trazado_1259290" data-name="Trazado 1259290" d="M15.337,70.483c.008.5.089,1.634-.38,2.03L6.717,72.6l-6.6-.078a14.562,14.562,0,0,1,.062-3.989l14.773-.011c.461.494.373,1.39.382,1.961" transform="translate(0 -41.65)" fill="#070706"/>
        <path id="Trazado_1259291" data-name="Trazado 1259291" d="M208.447,128.883l-23.241.05a20.1,20.1,0,0,0,2.347-6.741l20.357-.008a3.444,3.444,0,0,1,3.538,3.068c.145,1.481-.933,3.627-3,3.631" transform="translate(-112.574 -74.267)" fill="#facab3"/>
        <path id="Trazado_1259292" data-name="Trazado 1259292" d="M158.213,126.279c-1.956-4.493,2.376-10.343,5.946-13.067,1.61-.036,2.77.852,2.648,2.544-.349,4.841-3.941,9.477-8.594,10.523" transform="translate(-95.871 -68.813)" fill="#e1c89c"/>
        <path id="Trazado_1259293" data-name="Trazado 1259293" d="M156.88,113.214c-3.571,2.724-7.9,8.574-5.946,13.067-1.261.57-3.624,1.208-4.588-.1-2.4-3.264,2.718-12.789,10.535-12.963" transform="translate(-88.591 -68.815)" fill="#d9b67c"/>
        <path id="Trazado_1259294" data-name="Trazado 1259294" d="M190.793,168.458c3.737,4.812.717,11.119-1.1,11.3-1.725.175-5.141-6.217-1.294-11.256a1.8,1.8,0,0,1,1.03-.693,1.485,1.485,0,0,1,1.36.647" transform="translate(-113.449 -101.992)" fill="#dec59a"/>
        <path id="Trazado_1259295" data-name="Trazado 1259295" d="M289.081,188.413c-11.163.105-4.136-.813-12.125,3.943,2.016.63,3.561.033,5.485.328a9.582,9.582,0,0,1,.014,3.884l-13.859.077a20.783,20.783,0,0,1-3.733,8.487l19.116.054a19.706,19.706,0,0,1-.007,4.04l-28.434.089c-1.992.006-3.038,7.137-3.061,8.706a5.99,5.99,0,0,1-2.064.065c-.575-.037-1.1-.109-1.883-.227.265-4.592,1.272-12.738,7.666-12.683,5.787.049,8.488-6.794,8.663-11.74-13.743-7.96-17.546-22.02-11.953-36.8a31.764,31.764,0,0,1,17.617,15.6,25.873,25.873,0,0,1,12.614-5.087,23.8,23.8,0,0,1,1.392,17.016c1.66.4,2.981.08,4.558.233a25.382,25.382,0,0,1-.006,4.011m-24.368-3.646c.3-3.235.786-6.386,2.72-9.376a21.112,21.112,0,0,0-7.978-10.156,9.834,9.834,0,0,0-4.083-2.876c-2.47,11.506.252,19.713,9.656,26.325a25.184,25.184,0,0,0-.316-3.917m9.512,4.311a11.462,11.462,0,0,0,6.62-6.737,14.663,14.663,0,0,0-.3-9.7.95.95,0,0,0-.139-.746,18.218,18.218,0,0,0-6.466,2.85c-5.43,3.688-6.039,10.292-4.025,16.031a10.761,10.761,0,0,0,4.311-1.7" transform="translate(-151.065 -95.209)" fill="#040504"/>
        <path id="Trazado_1259296" data-name="Trazado 1259296" d="M143.978,228.063a6.354,6.354,0,0,1-10.214-.052,16.462,16.462,0,0,1,.054-20.734,6.754,6.754,0,0,1,5.113-2.489A6.682,6.682,0,0,1,144,207.336a16.367,16.367,0,0,1-.026,20.727m-2.992-3.082c3.461-3.657,3.671-10.591.049-14.5-.524-.566-.653-1.388-1.447-1.507a2.67,2.67,0,0,0-2.7.945c-5.741,6.905-1.153,17.075,2.34,16.551a2.481,2.481,0,0,0,1.757-1.492" transform="translate(-79.089 -124.477)" fill="#070706"/>
        <path id="Trazado_1259297" data-name="Trazado 1259297" d="M210.6,277.872a5.474,5.474,0,0,1-4.132,2.157,5.319,5.319,0,0,1-4.165-1.921,12.526,12.526,0,0,1,.064-16.341,5.186,5.186,0,0,1,8.1.144,12.658,12.658,0,0,1,.134,15.961m-3.021-13.154a1.5,1.5,0,0,0-1.455-.636,1.816,1.816,0,0,0-1.106.758c-3.508,4.884-.524,11.253,1.441,11.058,1.775-.176,4.8-6.246,1.12-11.18" transform="translate(-121.143 -157.969)" fill="#070706"/>
        <path id="Trazado_1259298" data-name="Trazado 1259298" d="M268.725,174.1c-.717,6.778.154,14.585,5.258,19.532a25.282,25.282,0,0,1,.316,3.917c-9.4-6.612-12.125-14.819-9.656-26.325a9.836,9.836,0,0,1,4.082,2.876" transform="translate(-160.334 -104.077)" fill="#53db70"/>
        <path id="Trazado_1259299" data-name="Trazado 1259299" d="M281.307,198.092c-5.1-4.947-5.974-12.754-5.258-19.532a21.115,21.115,0,0,1,7.978,10.156c-1.935,2.99-2.417,6.141-2.72,9.376" transform="translate(-167.659 -108.534)" fill="#87e494"/>
        <path id="Trazado_1259300" data-name="Trazado 1259300" d="M319.424,197.447a14.662,14.662,0,0,1,.3,9.7,11.463,11.463,0,0,1-6.62,6.737c-1.706-6.268.1-13.461,6.319-16.436" transform="translate(-189.944 -120.014)" fill="#87e494"/>
        <path id="Trazado_1259301" data-name="Trazado 1259301" d="M312.046,196.292c-6.222,2.975-8.025,10.168-6.319,16.436a10.767,10.767,0,0,1-4.311,1.7c-2.014-5.738-1.405-12.342,4.025-16.031a18.217,18.217,0,0,1,6.466-2.85.95.95,0,0,1,.139.746" transform="translate(-182.567 -118.859)" fill="#53db70"/>
        <path id="Trazado_1259302" data-name="Trazado 1259302" d="M147.312,216.9c-2.962,4.042-2.811,10.32-.049,14.5a2.481,2.481,0,0,1-1.757,1.492c-3.493.523-8.08-9.646-2.34-16.552a2.67,2.67,0,0,1,2.7-.944c.795.119.923.942,1.447,1.507" transform="translate(-85.366 -130.893)" fill="#d9b67c"/>
        <path id="Trazado_1259303" data-name="Trazado 1259303" d="M154.544,233.81c-2.762-4.177-2.912-10.454.049-14.5,3.622,3.906,3.412,10.84-.049,14.5" transform="translate(-92.647 -133.305)" fill="#e1c89c"/>
        <path id="Trazado_1259304" data-name="Trazado 1259304" d="M213.924,271.181c3.678,4.933.655,11-1.12,11.18-1.965.195-4.948-6.174-1.441-11.058a1.816,1.816,0,0,1,1.106-.758,1.5,1.5,0,0,1,1.455.636" transform="translate(-127.487 -164.433)" fill="#dec59a"/>
        <path id="Trazado_1259305" data-name="Trazado 1259305" d="M81.457,284.98l-64.316.049-.023-42.184,24.569-.027a34.647,34.647,0,0,0,6.377,11.726l-14.409.165a8.624,8.624,0,0,0-.011,3.924l24.222.358c5.372.08,7.709,6.375,7.67,11.019a13.4,13.4,0,0,0,7.995,12.629c2.664,1.255,5.346,1.56,7.926,2.342M44.444,269.138H40.338v4.024h4.107Zm8.013,0H48.483v4.024h3.974Z" transform="translate(-10.405 -147.592)" fill="#e4cb9e"/>
        <path id="Trazado_1259306" data-name="Trazado 1259306" d="M272.356,237.649l.086,44.323-51.427-.139c5.866-1.295,12.344-2.387,14.024-9.934a13.087,13.087,0,0,0-1.837-.62,23.021,23.021,0,0,0,.487-3.957,5.988,5.988,0,0,0,2.063-.065c.023-1.569,1.069-8.7,3.061-8.706l28.434-.089a19.729,19.729,0,0,0,.007-4.039l-19.117-.054a20.779,20.779,0,0,0,3.733-8.487l13.86-.077a9.588,9.588,0,0,0-.015-3.884c-1.924-.3-3.469.3-5.485-.328,7.988-4.757.962-3.839,12.125-3.943" transform="translate(-134.34 -144.445)" fill="#e3ca9d"/>
        <path id="Trazado_1259307" data-name="Trazado 1259307" d="M98.865,252.5a13.1,13.1,0,0,1,1.837.62c-1.68,7.547-8.157,8.64-14.024,9.934H71.054c-2.58-.782-5.262-1.087-7.926-2.342a13.4,13.4,0,0,1-7.995-12.629c.039-4.644-2.3-10.94-7.67-11.019L23.241,236.7a8.624,8.624,0,0,1,.011-3.924l14.409-.166a34.643,34.643,0,0,1-6.377-11.725l-24.569.027c-1.634.568-.887-3.9-.944-3.7.092-.312.566-.434.968-.491l16.945-.032c-4.081-2.119-7.648-4.035-11.585-5.719-1.725-.738-3.77.07-5.379-.062a40.563,40.563,0,0,0-6.581-.085,15.74,15.74,0,0,1,.03-4.068l12.8-.013L34.48,217.437A32.826,32.826,0,0,0,39.606,228.5c2.329,3.141,5.168,3.908,8.73,4.519,6.845,1.176,11.042,8.08,10.811,14.711-.217,6.27,4.49,9.744,10.044,10.682,6.061,1.023,26.447,2.635,27.673-6.222a11.74,11.74,0,0,1,2,.307" transform="translate(-0.002 -125.664)" fill="#050504"/>
        <path id="Trazado_1259308" data-name="Trazado 1259308" d="M6.738,217.082l.018,5.814c-.4.057-.876.18-.968.492.057-.194-.689,4.27.945,3.7l.023,42.184a58.19,58.19,0,0,1-6.723-.009L.157,217a40.655,40.655,0,0,1,6.581.085" transform="translate(-0.02 -131.838)" fill="#dab67d"/>
        <rect id="Rectángulo_411638" data-name="Rectángulo 411638" width="4.107" height="4.024" transform="translate(29.933 121.546)" fill="#fefefd"/>
        <rect id="Rectángulo_411639" data-name="Rectángulo 411639" width="3.974" height="4.024" transform="translate(38.078 121.546)" fill="#fefefd"/>
        <path id="Trazado_1259309" data-name="Trazado 1259309" d="M17.149,222.788l-.018-5.814c1.609.133,3.653-.675,5.379.062,3.936,1.684,7.5,3.6,11.585,5.719Z" transform="translate(-10.413 -131.73)" fill="#e3ca9d"/>
      </g>
    </g>
  </g>
</svg>
