<svg xmlns="http://www.w3.org/2000/svg" xmlns:xlink="http://www.w3.org/1999/xlink" width="86.109" height="86.109" viewBox="0 0 86.109 86.109">
  <defs>
    <filter id="Trazado_896985" x="0" y="0" width="86.109" height="86.109" filterUnits="userSpaceOnUse">
      <feOffset dy="3" input="SourceAlpha"/>
      <feGaussianBlur stdDeviation="3" result="blur"/>
      <feFlood flood-opacity="0.161"/>
      <feComposite operator="in" in2="blur"/>
      <feComposite in="SourceGraphic"/>
    </filter>
    <clipPath id="clip-path">
      <rect id="Rectángulo_411646" data-name="Rectángulo 411646" width="44.319" height="44.252" fill="none"/>
    </clipPath>
  </defs>
  <g id="_25" data-name="25" transform="translate(-288.949 -6060)">
    <g id="Grupo_1212620" data-name="Grupo 1212620" transform="translate(-48.576 4094.164)">
      <g id="Grupo_1212275" data-name="Grupo 1212275" transform="translate(1 -14867.25)">
        <g id="Grupo_1198723" data-name="Grupo 1198723" transform="translate(139.635 12371.764)">
          <g id="Grupo_1198139" data-name="Grupo 1198139" transform="translate(205.891 4467.322)">
            <g id="Grupo_1111318" data-name="Grupo 1111318" transform="translate(0)">
              <g id="Grupo_1109826" data-name="Grupo 1109826" transform="translate(0 0)">
                <g id="Grupo_1098742" data-name="Grupo 1098742" transform="translate(0)">
                  <g transform="matrix(1, 0, 0, 1, -9, -6)" filter="url(#Trazado_896985)">
                    <g id="Trazado_896985-2" data-name="Trazado 896985" transform="translate(9 6)" fill="#bccdb2" opacity="0.859">
                      <path d="M 34.05470275878906 67.6094970703125 C 29.52462196350098 67.6094970703125 25.13032341003418 66.72238159179688 20.99385261535645 64.97280120849609 C 16.99824333190918 63.28280639648438 13.40971279144287 60.86331558227539 10.32794284820557 57.78155517578125 C 7.246182918548584 54.69978332519531 4.826692581176758 51.11125564575195 3.136692762374878 47.11564636230469 C 1.387112736701965 42.97917556762695 0.5000027418136597 38.58487319946289 0.5000027418136597 34.05479431152344 C 0.5000027418136597 29.52469444274902 1.387112736701965 25.13037490844727 3.136692762374878 20.9938850402832 C 4.826692581176758 16.99826431274414 7.246182918548584 13.40972518920898 10.32794284820557 10.32795429229736 C 13.40971279144287 7.246184825897217 16.99824333190918 4.826694488525391 20.99385261535645 3.136694669723511 C 25.13032341003418 1.387114763259888 29.52462196350098 0.5000047087669373 34.05470275878906 0.5000047087669373 C 38.58478164672852 0.5000047087669373 42.97908401489258 1.387114763259888 47.11555099487305 3.136694669723511 C 51.11116409301758 4.826694488525391 54.69969177246094 7.246174812316895 57.78146362304688 10.3279447555542 C 60.86322402954102 13.4097146987915 63.28271102905273 16.99823379516602 64.97270965576172 20.99384498596191 C 66.7222900390625 25.13031387329102 67.60940551757812 29.52461433410645 67.60940551757812 34.05469512939453 C 67.60940551757812 38.58479309082031 66.7222900390625 42.9791145324707 64.97270965576172 47.11560440063477 C 63.28271102905273 51.11122512817383 60.86322402954102 54.69976425170898 57.78146362304688 57.78153610229492 C 54.69969177246094 60.86330413818359 51.11116409301758 63.28280639648438 47.11555099487305 64.97280120849609 C 42.97908401489258 66.72238159179688 38.58478164672852 67.6094970703125 34.05470275878906 67.6094970703125 Z" stroke="none"/>
                      <path d="M 34.05470275878906 0.9999923706054688 C 29.59190368652344 0.9999923706054688 25.26313400268555 1.873817443847656 21.18863296508789 3.597183227539062 C 17.25262451171875 5.261985778808594 13.71751403808594 7.645496368408203 10.68150329589844 10.68150329589844 C 7.645492553710938 13.71752548217773 5.261981964111328 17.25263595581055 3.597190856933594 21.18866348266602 C 1.873825073242188 25.26318359375 1 29.59197616577148 1 34.05479431152344 C 1 38.51759338378906 1.873825073242188 42.84636688232422 3.597190856933594 46.92086410522461 C 5.261981964111328 50.85687255859375 7.645492553710938 54.39198303222656 10.68150329589844 57.42799377441406 C 13.71751403808594 60.46399307250977 17.25262451171875 62.84750366210938 21.18863296508789 64.51229858398438 C 25.26313400268555 66.23566436767578 29.59190368652344 67.10948181152344 34.05470275878906 67.10948181152344 C 38.51750183105469 67.10948181152344 42.84627532958984 66.23566436767578 46.92077255249023 64.51229858398438 C 50.85679244995117 62.84749603271484 54.39189147949219 60.46399307250977 57.42790222167969 57.42798614501953 C 60.46391296386719 54.39196395874023 62.8474235534668 50.85684204101562 64.51221466064453 46.92082214355469 C 66.23558044433594 42.84630584716797 67.10940551757812 38.51751708984375 67.10940551757812 34.05469512939453 C 67.10940551757812 29.59189605712891 66.23558044433594 25.26312637329102 64.51221466064453 21.18862533569336 C 62.8474235534668 17.25261306762695 60.46391296386719 13.71750640869141 57.42790222167969 10.68149566650391 C 54.39189147949219 7.645484924316406 50.85678100585938 5.261974334716797 46.92077255249023 3.597183227539062 C 42.84627532958984 1.873817443847656 38.51750183105469 0.9999923706054688 34.05470275878906 0.9999923706054688 M 34.05470275878906 -7.62939453125e-06 C 52.86259460449219 -7.62939453125e-06 68.10940551757812 15.24680328369141 68.10940551757812 34.05469512939453 L 68.10940551757812 34.05479431152344 C 68.10940551757812 52.86268615722656 52.86259460449219 68.10948181152344 34.05470275878906 68.10948181152344 C 15.24681091308594 68.10948181152344 0 52.86268615722656 0 34.05479431152344 L 0 34.05469512939453 C 0 15.24680328369141 15.24681091308594 -7.62939453125e-06 34.05470275878906 -7.62939453125e-06 Z" stroke="none" fill="#fff"/>
                    </g>
                  </g>
                  <g id="Rectángulo_400907" data-name="Rectángulo 400907" transform="translate(0)" fill="none" stroke="#fff" stroke-width="1">
                    <rect width="68.109" height="68.109" rx="34.055" stroke="none"/>
                    <rect x="0.5" y="0.5" width="67.109" height="67.109" rx="33.555" fill="none"/>
                  </g>
                </g>
              </g>
            </g>
          </g>
        </g>
      </g>
      <g id="Grupo_1213250" data-name="Grupo 1213250" transform="translate(358.42 1983.764)">
        <g id="Grupo_1213249" data-name="Grupo 1213249" clip-path="url(#clip-path)">
          <path id="Trazado_1259310" data-name="Trazado 1259310" d="M.038,19.311l2.1-.026,10.336.022,2.683,1.5a5.486,5.486,0,0,0,3.262.353l.005-13.374c.706-1.281,1.55-2.362,2.322-3.575a2.2,2.2,0,0,0,.227-2.449L15.2,6.858c-1.054.93-1.418,2.4-2.344,3.452l-7.622.01a2.227,2.227,0,0,1-.057-.647c.012-.163-.048-.588.12-.646l6.879-.049c.812-.911,1.121-2.2,2.026-2.993L21.021,0a3.24,3.24,0,0,1,1.163,4.3,13.2,13.2,0,0,0,1.741.053,2.07,2.07,0,0,1,1.961,2.421c-.152,1.149,1.768-.364,2.976,1.537A2.441,2.441,0,0,1,28.82,11a2.381,2.381,0,0,1,1.113,1.992,2.461,2.461,0,0,1-1.093,2.058,2.466,2.466,0,0,1-.392,3.189,2.006,2.006,0,0,1,.211,2.262c-.632,1.177-1.609,1-2.75,1.127L25.884,25.9l-2.014.082-.038,3.15-3.343,0-.039-3.152-2-.059-.045-3.387a7.466,7.466,0,0,1-3.983-.641L12.166,20.6.057,20.6a4.916,4.916,0,0,1-.019-1.287M21.255,5.9a5.913,5.913,0,0,0-.92,1.269c.234.264.492.091.835.107,1.1.051,2.2.029,3.37.016a2.686,2.686,0,0,0,0-1.15.7.7,0,0,0-.734-.5h-2.27c-.135,0-.217.115-.28.256m4.95,4.742a2.93,2.93,0,0,0,1.063-.053,1.074,1.074,0,0,0,.594-1.411c-.249-.594-.884-.612-1.569-.626l-.861-.018a.98.98,0,0,0-.962.966,1.041,1.041,0,0,0,.749,1.108,3.5,3.5,0,0,0,.984.035m-4.94,11.072,3.182.008c.169,0,.188-.349.056-.431a2.069,2.069,0,0,1-.548-3.062,2.394,2.394,0,0,1-.36-3.17,2.4,2.4,0,0,1-1.107-1.943,2.34,2.34,0,0,1,1.1-2.108,2.585,2.585,0,0,1-.253-2.365,14.874,14.874,0,0,0-2.083-.013,6.447,6.447,0,0,0-1.518.03l0,13a5.875,5.875,0,0,0,1.532.054m4.3-7.649c1.012-.042,3.1.458,3.066-1.069a1.04,1.04,0,0,0-1.084-1.025l-1.979.012c-.448,0-1.654-.211-1.784.892a1.026,1.026,0,0,0,.679,1.134,2.958,2.958,0,0,0,1.1.056m.653,3.445.6.015a1.067,1.067,0,0,0,.536-2.014,1.694,1.694,0,0,0-1.154-.062,1.3,1.3,0,0,0-.637-.071,1.089,1.089,0,0,0-1.1,1.016,1.07,1.07,0,0,0,1.1,1.136c.208,0,.385,0,.658-.018m.217,2.72a1.084,1.084,0,0,0,.93-.149.766.766,0,0,0,.12-.937c-.2-.326-.6-.31-1.047-.29a3.841,3.841,0,0,0-1.217.049.668.668,0,0,0-.411.745c.094.74.991.651,1.626.582m-1.85,4.438V23.039l-4.856,0v1.629Zm-2.046,1.276h-.765v1.927h.765Z" transform="translate(-0.001)" fill="#060605"/>
          <path id="Trazado_1259311" data-name="Trazado 1259311" d="M12.739,28l.013-8.949,1.723-.024a2.35,2.35,0,0,0,.052-.639,12.292,12.292,0,0,1,1.25,0,2.227,2.227,0,0,0,.057.647l7.622-.01c.926-1.054,1.29-2.522,2.344-3.452l5.774-5.1a2.2,2.2,0,0,1-.227,2.449c-.772,1.213-1.616,2.294-2.322,3.575L29.02,29.877a5.486,5.486,0,0,1-3.262-.353l-2.683-1.5Zm6.306-5.116h-1.3v1.283h1.3Zm1.3,1.274H21.64V22.885H20.349Z" transform="translate(-10.597 -8.716)" fill="#fdccb6"/>
          <path id="Trazado_1259312" data-name="Trazado 1259312" d="M2.339,61.3l-.013,8.949-2.1.026,0-9.009Z" transform="translate(-0.184 -50.967)" fill="#f5a57f"/>
          <path id="Trazado_1259313" data-name="Trazado 1259313" d="M3.931,54.227a2.353,2.353,0,0,1-.052.639l-1.723.024L.043,54.856a4.862,4.862,0,0,1,.014-1.29L3.88,53.56a2.994,2.994,0,0,1,.051.667" transform="translate(-0.001 -44.555)" fill="#020202"/>
          <path id="Trazado_1259314" data-name="Trazado 1259314" d="M126.413,64.256,126.4,51.173a14.876,14.876,0,0,1,2.083.013,2.585,2.585,0,0,0,.253,2.365,2.34,2.34,0,0,0-1.1,2.108,2.4,2.4,0,0,0,1.107,1.943,2.394,2.394,0,0,0,.36,3.17,2.069,2.069,0,0,0,.548,3.061c.132.082.113.431-.056.431Z" transform="translate(-105.149 -42.543)" fill="#88e495"/>
          <path id="Trazado_1259315" data-name="Trazado 1259315" d="M118.877,51.15l.011,13.084a5.875,5.875,0,0,1-1.532-.054l0-13a6.447,6.447,0,0,1,1.518-.03" transform="translate(-97.624 -42.521)" fill="#55df73"/>
          <path id="Trazado_1259316" data-name="Trazado 1259316" d="M150.757,73.284a2.164,2.164,0,0,1,0-2.082l1.979-.012a1.04,1.04,0,0,1,1.084,1.025c.031,1.527-2.054,1.027-3.066,1.07" transform="translate(-125.188 -59.219)" fill="#fdccb6"/>
          <path id="Trazado_1259317" data-name="Trazado 1259317" d="M125.9,35.2l.085-1.376c.063-.141.145-.256.28-.256h2.27a.7.7,0,0,1,.734.5,2.687,2.687,0,0,1,0,1.15c-1.17.013-2.269.035-3.37-.016" transform="translate(-104.734 -27.921)" fill="#c8d4d8"/>
          <path id="Trazado_1259318" data-name="Trazado 1259318" d="M126.253,138.655a8.368,8.368,0,0,1-.014-1.629l3.334,0v1.629Z" transform="translate(-104.986 -113.985)" fill="#ccd8dc"/>
          <path id="Trazado_1259319" data-name="Trazado 1259319" d="M154.815,93.588a2.5,2.5,0,0,1-.015-2.062,1.693,1.693,0,0,1,1.154.062,1.067,1.067,0,0,1-.536,2.014Z" transform="translate(-128.593 -76.078)" fill="#facab3"/>
          <path id="Trazado_1259320" data-name="Trazado 1259320" d="M154.763,52.947a2.2,2.2,0,0,1,.089-2.09c.685.014,1.32.033,1.569.626a1.074,1.074,0,0,1-.594,1.411,2.937,2.937,0,0,1-1.063.053" transform="translate(-128.559 -42.306)" fill="#facab3"/>
          <path id="Trazado_1259321" data-name="Trazado 1259321" d="M147.241,91.494a2.5,2.5,0,0,0,.015,2.062c-.273.017-.45.021-.658.019a1.07,1.07,0,0,1-1.1-1.136,1.089,1.089,0,0,1,1.1-1.016,1.3,1.3,0,0,1,.637.072" transform="translate(-121.035 -76.046)" fill="#eb9e78"/>
          <path id="Trazado_1259322" data-name="Trazado 1259322" d="M143.216,71.189a2.164,2.164,0,0,0,0,2.082,2.953,2.953,0,0,1-1.1-.056,1.025,1.025,0,0,1-.679-1.133c.13-1.1,1.336-.89,1.784-.892" transform="translate(-117.645 -59.207)" fill="#f5a57f"/>
          <path id="Trazado_1259323" data-name="Trazado 1259323" d="M147.348,50.768a2.2,2.2,0,0,0-.089,2.09,3.5,3.5,0,0,1-.984-.035,1.041,1.041,0,0,1-.749-1.108.98.98,0,0,1,.962-.966Z" transform="translate(-121.056 -42.217)" fill="#f5a57f"/>
          <path id="Trazado_1259324" data-name="Trazado 1259324" d="M118.876,137.036a8.355,8.355,0,0,0,.014,1.629h-1.534v-1.63Z" transform="translate(-97.622 -113.995)" fill="#a1b2b8"/>
          <path id="Trazado_1259325" data-name="Trazado 1259325" d="M149.168,112a2.31,2.31,0,0,0,0,1.376c-.635.069-1.532.157-1.626-.582a.668.668,0,0,1,.411-.745,3.842,3.842,0,0,1,1.218-.049" transform="translate(-122.727 -93.143)" fill="#f5a57f"/>
          <path id="Trazado_1259326" data-name="Trazado 1259326" d="M156.73,113.461a2.309,2.309,0,0,1,0-1.376c.448-.021.85-.037,1.047.29a.766.766,0,0,1-.12.937,1.085,1.085,0,0,1-.93.149" transform="translate(-130.291 -93.232)" fill="#facab3"/>
          <rect id="Rectángulo_411641" data-name="Rectángulo 411641" width="0.765" height="1.927" transform="translate(21.777 25.944)" fill="#c8d4d8"/>
          <path id="Trazado_1259327" data-name="Trazado 1259327" d="M121.773,36.462c-.343-.016-.6.156-.835-.107a5.911,5.911,0,0,1,.92-1.268Z" transform="translate(-100.604 -29.187)" fill="#a1b2b8"/>
          <rect id="Rectángulo_411642" data-name="Rectángulo 411642" width="1.291" height="1.274" transform="translate(9.752 14.169)" fill="#fefefe"/>
          <rect id="Rectángulo_411643" data-name="Rectángulo 411643" width="1.3" height="1.283" transform="translate(7.148 14.169)" fill="#fefefe"/>
          <path id="Trazado_1259328" data-name="Trazado 1259328" d="M52.587,201.656a2.2,2.2,0,0,0,.047.617l2.333.037-.006,8.387h-15.8a1.122,1.122,0,0,0-.1.642,11.227,11.227,0,0,0-1.272-.006,1.323,1.323,0,0,0-.1-.63l-24.856-.028,0-8.348,14.829-.039c1.24,0,.341,1.745,2.428,3.625a4.046,4.046,0,0,0,5.343.117c2.243-1.87,1.291-3.734,2.564-3.735l13.258-.006a3.6,3.6,0,0,0,.066-.636,8.477,8.477,0,0,1,1.262,0m-27.627,3.861H13.707v1.312H24.961Zm27,0H40.71v1.312H51.963Z" transform="translate(-10.675 -167.729)" fill="#e3ca9d"/>
          <path id="Trazado_1259329" data-name="Trazado 1259329" d="M40.669,198.566a3.582,3.582,0,0,1-.066.636l-13.257.006c-1.273,0-.32,1.865-2.564,3.735a4.047,4.047,0,0,1-5.343-.117c-2.086-1.879-1.188-3.628-2.428-3.625l-14.829.039-2.15-.033a9.728,9.728,0,0,1,.028-1.287l17.2.015a1.964,1.964,0,0,1,1.817,1.743,3.8,3.8,0,0,0,1.883,2.615,2.487,2.487,0,0,0,2.436,0,3.8,3.8,0,0,0,1.882-2.614,1.968,1.968,0,0,1,1.814-1.742l13.5-.013a2.962,2.962,0,0,1,.079.643" transform="translate(-0.019 -164.642)" fill="#020202"/>
          <path id="Trazado_1259330" data-name="Trazado 1259330" d="M2.158,255.424l24.856.028a1.323,1.323,0,0,1,.1.63,1.694,1.694,0,0,1-.086.647H.036a6.963,6.963,0,0,1,0-1.284Z" transform="translate(0 -212.478)"/>
          <path id="Trazado_1259331" data-name="Trazado 1259331" d="M184.7,255.548a7.606,7.606,0,0,1,0,1.285h-15.81a1.24,1.24,0,0,1-.09-.642,1.123,1.123,0,0,1,.1-.642Z" transform="translate(-140.412 -212.581)"/>
          <path id="Trazado_1259332" data-name="Trazado 1259332" d="M2.221,205.609l0,8.348-2.125.021-.021-8.4Z" transform="translate(-0.059 -171.011)" fill="#d7b57e"/>
          <path id="Trazado_1259333" data-name="Trazado 1259333" d="M123.359,190.264a1.56,1.56,0,0,1-1.133.605,1.516,1.516,0,0,1-1.22-.571,3.4,3.4,0,0,1-.022-4.318,1.606,1.606,0,0,1,1.124-.6,1.556,1.556,0,0,1,1.24.6,3.4,3.4,0,0,1,.01,4.282m-.848-3.239c-.167-.242-.332-.412-.545-.181a1.879,1.879,0,0,0,.206,2.678,1.894,1.894,0,0,0,.339-2.5" transform="translate(-100.008 -154.213)" fill="#060605"/>
          <path id="Trazado_1259334" data-name="Trazado 1259334" d="M251.627,199.186l-2.333-.037a2.213,2.213,0,0,1-.047-.617c.008-.158-.056-.581.12-.6a19.786,19.786,0,0,1,2.254-.035,8.3,8.3,0,0,1,.006,1.294" transform="translate(-207.335 -164.606)" fill="#020202"/>
          <rect id="Rectángulo_411644" data-name="Rectángulo 411644" width="11.253" height="1.312" transform="translate(3.032 37.787)" fill="#020202"/>
          <rect id="Rectángulo_411645" data-name="Rectángulo 411645" width="11.253" height="1.312" transform="translate(30.034 37.787)" fill="#020202"/>
          <path id="Trazado_1259335" data-name="Trazado 1259335" d="M128.871,193.718a1.894,1.894,0,0,1-.339,2.5,1.879,1.879,0,0,1-.206-2.678c.214-.231.378-.061.545.181" transform="translate(-106.367 -160.905)" fill="#facab3"/>
        </g>
      </g>
    </g>
  </g>
</svg>
