<svg xmlns="http://www.w3.org/2000/svg" xmlns:xlink="http://www.w3.org/1999/xlink" width="86.109" height="86.109" viewBox="0 0 86.109 86.109">
  <defs>
    <filter id="Trazado_896985" x="0" y="0" width="86.109" height="86.109" filterUnits="userSpaceOnUse">
      <feOffset dy="3" input="SourceAlpha"/>
      <feGaussianBlur stdDeviation="3" result="blur"/>
      <feFlood flood-opacity="0.161"/>
      <feComposite operator="in" in2="blur"/>
      <feComposite in="SourceGraphic"/>
    </filter>
    <clipPath id="clip-path">
      <rect id="Rect치ngulo_411659" data-name="Rect치ngulo 411659" width="46.984" height="46.805" fill="none"/>
    </clipPath>
  </defs>
  <g id="_28" data-name="28" transform="translate(-1229.051 -6060)">
    <g id="Grupo_1213254" data-name="Grupo 1213254" transform="translate(261.131 4094.164)">
      <g id="Grupo_1212278" data-name="Grupo 1212278" transform="translate(631.395 -14867.25)">
        <g id="Grupo_1198723" data-name="Grupo 1198723" transform="translate(139.635 12371.764)">
          <g id="Grupo_1198139" data-name="Grupo 1198139" transform="translate(205.891 4467.322)">
            <g id="Grupo_1111318" data-name="Grupo 1111318" transform="translate(0)">
              <g id="Grupo_1109826" data-name="Grupo 1109826" transform="translate(0 0)">
                <g id="Grupo_1098742" data-name="Grupo 1098742" transform="translate(0)">
                  <g transform="matrix(1, 0, 0, 1, -9, -6)" filter="url(#Trazado_896985)">
                    <g id="Trazado_896985-2" data-name="Trazado 896985" transform="translate(9 6)" fill="#bccdb2" opacity="0.859">
                      <path d="M 34.05470275878906 67.6094970703125 C 29.52462196350098 67.6094970703125 25.13032341003418 66.72238159179688 20.99385261535645 64.97280120849609 C 16.99824333190918 63.28280639648438 13.40971279144287 60.86331558227539 10.32794284820557 57.78155517578125 C 7.246182918548584 54.69978332519531 4.826692581176758 51.11125564575195 3.136692762374878 47.11564636230469 C 1.387112736701965 42.97917556762695 0.5000027418136597 38.58487319946289 0.5000027418136597 34.05479431152344 C 0.5000027418136597 29.52469444274902 1.387112736701965 25.13037490844727 3.136692762374878 20.9938850402832 C 4.826692581176758 16.99826431274414 7.246182918548584 13.40972518920898 10.32794284820557 10.32795429229736 C 13.40971279144287 7.246184825897217 16.99824333190918 4.826694488525391 20.99385261535645 3.136694669723511 C 25.13032341003418 1.387114763259888 29.52462196350098 0.5000047087669373 34.05470275878906 0.5000047087669373 C 38.58478164672852 0.5000047087669373 42.97908401489258 1.387114763259888 47.11555099487305 3.136694669723511 C 51.11116409301758 4.826694488525391 54.69969177246094 7.246174812316895 57.78146362304688 10.3279447555542 C 60.86322402954102 13.4097146987915 63.28271102905273 16.99823379516602 64.97270965576172 20.99384498596191 C 66.7222900390625 25.13031387329102 67.60940551757812 29.52461433410645 67.60940551757812 34.05469512939453 C 67.60940551757812 38.58479309082031 66.7222900390625 42.9791145324707 64.97270965576172 47.11560440063477 C 63.28271102905273 51.11122512817383 60.86322402954102 54.69976425170898 57.78146362304688 57.78153610229492 C 54.69969177246094 60.86330413818359 51.11116409301758 63.28280639648438 47.11555099487305 64.97280120849609 C 42.97908401489258 66.72238159179688 38.58478164672852 67.6094970703125 34.05470275878906 67.6094970703125 Z" stroke="none"/>
                      <path d="M 34.05470275878906 0.9999923706054688 C 29.59190368652344 0.9999923706054688 25.26313400268555 1.873817443847656 21.18863296508789 3.597183227539062 C 17.25262451171875 5.261985778808594 13.71751403808594 7.645496368408203 10.68150329589844 10.68150329589844 C 7.645492553710938 13.71752548217773 5.261981964111328 17.25263595581055 3.597190856933594 21.18866348266602 C 1.873825073242188 25.26318359375 1 29.59197616577148 1 34.05479431152344 C 1 38.51759338378906 1.873825073242188 42.84636688232422 3.597190856933594 46.92086410522461 C 5.261981964111328 50.85687255859375 7.645492553710938 54.39198303222656 10.68150329589844 57.42799377441406 C 13.71751403808594 60.46399307250977 17.25262451171875 62.84750366210938 21.18863296508789 64.51229858398438 C 25.26313400268555 66.23566436767578 29.59190368652344 67.10948181152344 34.05470275878906 67.10948181152344 C 38.51750183105469 67.10948181152344 42.84627532958984 66.23566436767578 46.92077255249023 64.51229858398438 C 50.85679244995117 62.84749603271484 54.39189147949219 60.46399307250977 57.42790222167969 57.42798614501953 C 60.46391296386719 54.39196395874023 62.8474235534668 50.85684204101562 64.51221466064453 46.92082214355469 C 66.23558044433594 42.84630584716797 67.10940551757812 38.51751708984375 67.10940551757812 34.05469512939453 C 67.10940551757812 29.59189605712891 66.23558044433594 25.26312637329102 64.51221466064453 21.18862533569336 C 62.8474235534668 17.25261306762695 60.46391296386719 13.71750640869141 57.42790222167969 10.68149566650391 C 54.39189147949219 7.645484924316406 50.85678100585938 5.261974334716797 46.92077255249023 3.597183227539062 C 42.84627532958984 1.873817443847656 38.51750183105469 0.9999923706054688 34.05470275878906 0.9999923706054688 M 34.05470275878906 -7.62939453125e-06 C 52.86259460449219 -7.62939453125e-06 68.10940551757812 15.24680328369141 68.10940551757812 34.05469512939453 L 68.10940551757812 34.05479431152344 C 68.10940551757812 52.86268615722656 52.86259460449219 68.10948181152344 34.05470275878906 68.10948181152344 C 15.24681091308594 68.10948181152344 0 52.86268615722656 0 34.05479431152344 L 0 34.05469512939453 C 0 15.24680328369141 15.24681091308594 -7.62939453125e-06 34.05470275878906 -7.62939453125e-06 Z" stroke="none" fill="#fff"/>
                    </g>
                  </g>
                  <g id="Rect치ngulo_400907" data-name="Rect치ngulo 400907" transform="translate(0)" fill="none" stroke="#fff" stroke-width="1">
                    <rect width="68.109" height="68.109" rx="34.055" stroke="none"/>
                    <rect x="0.5" y="0.5" width="67.109" height="67.109" rx="33.555" fill="none"/>
                  </g>
                </g>
              </g>
            </g>
          </g>
        </g>
      </g>
      <g id="Grupo_1213256" data-name="Grupo 1213256" transform="translate(987.483 1982.488)">
        <g id="Grupo_1213255" data-name="Grupo 1213255" clip-path="url(#clip-path)">
          <path id="Trazado_1259365" data-name="Trazado 1259365" d="M158.359,131.047a.668.668,0,0,0-.893-.2c-.782.474,0,1.352.437,2.137a.706.706,0,0,0,1.03.242c.642-.435-.169-1.612-.574-2.178m8.138,3.792-2.119-3.676a.7.7,0,0,0-.924-.345.689.689,0,0,0-.314.94l2.192,3.808a.677.677,0,0,0,.973.209.694.694,0,0,0,.192-.936m-11.544.6-1.767-3.111a.724.724,0,0,0-.91-.281.659.659,0,0,0-.31.882l1.782,3.13a.715.715,0,0,0,.883.307.676.676,0,0,0,.323-.928m-1.053,6.494-3.765-6.526a.7.7,0,1,0-1.16.76l3.717,6.423a.694.694,0,0,0,.957.293.684.684,0,0,0,.251-.95m9.322-2.5L161,135.6a.7.7,0,0,0-.977-.205.706.706,0,0,0-.163.992l2.2,3.8a.684.684,0,0,0,1,.228.719.719,0,0,0,.161-.971m6.161.4-1.3-2.241a.685.685,0,0,0-.977-.2.671.671,0,0,0-.2.892l1.313,2.279a.688.688,0,0,0,.982.224.724.724,0,0,0,.181-.958m-10.124,3.02-2.7-4.672a.713.713,0,0,0-1.016-.2.685.685,0,0,0-.17.89l2.68,4.642a.7.7,0,0,0,.945.293.689.689,0,0,0,.261-.956m6.61,1.159-1.2-2.06a.684.684,0,0,0-.874-.27c-.981.407.379,2.136.964,3.151a.705.705,0,0,0,.994.154.732.732,0,0,0,.118-.975m5.964.055-.814-1.4a.708.708,0,0,0-.986-.218.69.69,0,0,0-.2.915l.829,1.432a.706.706,0,0,0,1.006.2.692.692,0,0,0,.164-.931m-15.62,1.867-.659-1.15a.731.731,0,0,0-.981-.3c-.8.352.131,1.608.475,2.172a.719.719,0,0,0,.987.2.7.7,0,0,0,.178-.929" transform="translate(-128.958 -113.284)" fill="#fdfdfd"/>
          <path id="Trazado_1259366" data-name="Trazado 1259366" d="M153.9,169.831a.684.684,0,0,1-.251.95.694.694,0,0,1-.957-.293l-3.717-6.424a.7.7,0,1,1,1.16-.76Z" transform="translate(-128.958 -141.181)" fill="#070706"/>
          <path id="Trazado_1259367" data-name="Trazado 1259367" d="M201.015,188.958a.689.689,0,0,1-.261.956.7.7,0,0,1-.945-.293l-2.68-4.642a.685.685,0,0,1,.17-.89.713.713,0,0,1,1.016.2Z" transform="translate(-170.715 -159.387)" fill="#080808"/>
          <path id="Trazado_1259368" data-name="Trazado 1259368" d="M233.85,168.789a.719.719,0,0,1-.161.971.684.684,0,0,1-1-.228l-2.2-3.8a.706.706,0,0,1,.163-.992.694.694,0,0,1,.977.206Z" transform="translate(-199.586 -142.638)" fill="#080808"/>
          <path id="Trazado_1259369" data-name="Trazado 1259369" d="M258.7,134.839a.694.694,0,0,1-.192.936.678.678,0,0,1-.973-.209l-2.192-3.808a.689.689,0,0,1,.314-.94.7.7,0,0,1,.924.345Z" transform="translate(-221.159 -113.284)" fill="#080808"/>
          <path id="Trazado_1259370" data-name="Trazado 1259370" d="M174.75,143.5a.676.676,0,0,1-.323.928.715.715,0,0,1-.883-.307l-1.782-3.13a.659.659,0,0,1,.31-.882.723.723,0,0,1,.91.281Z" transform="translate(-148.756 -121.343)" fill="#080808"/>
          <path id="Trazado_1259371" data-name="Trazado 1259371" d="M285.956,182.152a.723.723,0,0,1-.181.958.688.688,0,0,1-.982-.224l-1.313-2.279a.671.671,0,0,1,.2-.892.684.684,0,0,1,.977.2Z" transform="translate(-245.531 -155.601)" fill="#0b0b0b"/>
          <path id="Trazado_1259372" data-name="Trazado 1259372" d="M260.6,214.552a.732.732,0,0,1-.118.974.705.705,0,0,1-.994-.154c-.585-1.015-1.945-2.744-.964-3.151a.684.684,0,0,1,.874.27Z" transform="translate(-223.688 -183.82)" fill="#080808"/>
          <path id="Trazado_1259373" data-name="Trazado 1259373" d="M307.377,219.237a.692.692,0,0,1-.164.931.706.706,0,0,1-1.006-.2l-.829-1.432a.691.691,0,0,1,.2-.915.708.708,0,0,1,.986.218Z" transform="translate(-264.502 -188.45)" fill="#0b0b0b"/>
          <path id="Trazado_1259374" data-name="Trazado 1259374" d="M212.145,131.069c.4.566,1.216,1.743.574,2.178a.706.706,0,0,1-1.03-.242c-.433-.785-1.219-1.663-.437-2.137a.668.668,0,0,1,.893.2" transform="translate(-182.744 -113.306)" fill="#0b0b0b"/>
          <path id="Trazado_1259375" data-name="Trazado 1259375" d="M191.328,234.543a.7.7,0,0,1-.178.929.719.719,0,0,1-.987-.2c-.345-.564-1.277-1.82-.475-2.172a.731.731,0,0,1,.981.3Z" transform="translate(-164.073 -201.89)" fill="#080808"/>
          <path id="Trazado_1259376" data-name="Trazado 1259376" d="M3.984,182.913c.818.847-.34,1.855-.722,3.106L6.9,187.4a13.182,13.182,0,0,0,2.564-1.043c.3-.138.694-.087,1.019-.413l-3.6-7.462a14.885,14.885,0,0,0-.7,1.44l-.489.981a.753.753,0,0,1-1.012.4.726.726,0,0,1-.266-.916l1.6-3.325a.958.958,0,0,1,.846-.518.977.977,0,0,1,.89.573l4.192,8.734c.475.99-.818,1.334-1.2,1.62l1.523,2.769a1.008,1.008,0,0,1-.5,1.489l-4.182,1.7a6.751,6.751,0,0,0,.023,1.809c5.171-1.927,13.4-1.41,17.047,3.148l6.859,0a4.684,4.684,0,0,0,0-1.725L27.736,193.5c.125.1-1.983-2.5-.889-3.043a.679.679,0,0,1,.88.256l1.066,1.989a3.815,3.815,0,0,0,.221-1.226.7.7,0,0,1,.8-.609c1.144.162.2,2.066.384,2.845a3.649,3.649,0,0,0,1.4,1.028c-.174-1.5.229-2.963-.133-4.335-.383-1.453-2.642-3.427-1.661-4.07a.71.71,0,0,1,1.022.2l2.072,3.389.182,1.42a11.625,11.625,0,0,0,1.143-1.232l-1.11-1.84a.679.679,0,0,1,.162-.866.708.708,0,0,1,.962.105l1,1.562,1.522-1.572a.677.677,0,0,1,.887.017.7.7,0,0,1,.06.949L33,193.477l0,4.906,8.2,0a5.8,5.8,0,0,0-.009-1.554l-2.511-1.719a.7.7,0,0,1-.264-.849.649.649,0,0,1,.934-.333l1.826,1.19a15.39,15.39,0,0,0,.928-2.02c-.506-.684-1.424-1-1.806-1.735-.359-.69-.032-1.664-.136-2.434a.7.7,0,0,1,.624-.807c1.26-.091.5,1.767.836,2.6.175.442.773.646,1.113,1.049.552-.687.626-2.157,1.639-1.753.413.165.453.577.287.988-.6,1.493-1.494,2.839-1.973,4.37-.293.939.065,2.013-.085,2.986l3.608.024a.7.7,0,0,1,.772.623c.018.454-.241.754-.812.754H.816c-.519,0-.773-.235-.813-.634a.648.648,0,0,1,.647-.73l2.493-.042a8.849,8.849,0,0,1,2.992-2.43,15.329,15.329,0,0,0,.02-2.5L1.89,191.682c-1.646-.674.869-3.134,1.1-4.335C2.262,187.2,1.5,186.719,1.763,186a21.193,21.193,0,0,1,1.372-2.877c.153-.283.646-.145.85-.212m-.127,6a7.71,7.71,0,0,0-.97,1.673l4.022,1.625,3.111-1.3c.256-.107.6-.088.809-.4l-1.4-2.559-2.131.826a1.477,1.477,0,0,1-1.091-.081l-1.816-.739a1.838,1.838,0,0,0-.534.957m1.487,9.215c.064-.06-.309.15-.277.209.042.078.229.082.276.039l14.428-.029a19.974,19.974,0,0,0,2.939-.018,12.046,12.046,0,0,0-6.7-2.619,16.6,16.6,0,0,0-7.455.684,8.811,8.811,0,0,0-3.212,1.734" transform="translate(0 -152.96)" fill="#040404"/>
          <path id="Trazado_1259377" data-name="Trazado 1259377" d="M50.673,319.127c1.194.66,2.973,1.388,3.759,2.636L40,321.793a2.168,2.168,0,0,0,0-.248,8.813,8.813,0,0,1,3.212-1.734,16.6,16.6,0,0,1,7.455-.684" transform="translate(-34.66 -276.372)" fill="#ce8f7f"/>
          <path id="Trazado_1259378" data-name="Trazado 1259378" d="M123.627,322.693c-.786-1.248-2.566-1.977-3.759-2.636a12.047,12.047,0,0,1,6.7,2.619,19.964,19.964,0,0,1-2.939.018" transform="translate(-103.855 -277.302)" fill="#bf7c67"/>
          <path id="Trazado_1259379" data-name="Trazado 1259379" d="M38.2,338.334c-.047.042-.234.039-.276-.039-.032-.059.341-.269.277-.209a2.2,2.2,0,0,1,0,.248" transform="translate(-32.855 -292.913)" fill="#bf7c67"/>
          <path id="Trazado_1259380" data-name="Trazado 1259380" d="M30.621,208.308a13.182,13.182,0,0,1-2.564,1.043l-3.635-1.386c.383-1.252,1.541-2.26.722-3.106l.7-1.609a.753.753,0,0,0,1.012-.4l.489-.981a.442.442,0,0,1,.248.254Z" transform="translate(-21.16 -174.906)" fill="#76ceb1"/>
          <path id="Trazado_1259381" data-name="Trazado 1259381" d="M28.749,271.168l-3.111,1.3-4.022-1.625a7.715,7.715,0,0,1,.97-1.673,28.468,28.468,0,0,0,3.038,1.213l2.253-.865a5.293,5.293,0,0,1,.872,1.65" transform="translate(-18.728 -233.213)" fill="#65b29c"/>
          <path id="Trazado_1259382" data-name="Trazado 1259382" d="M49.58,198.968l-3.028-6.18a.442.442,0,0,0-.248-.254,14.914,14.914,0,0,1,.7-1.44l3.6,7.462c-.325.326-.722.274-1.019.413" transform="translate(-40.118 -165.567)" fill="#65b29c"/>
          <path id="Trazado_1259383" data-name="Trazado 1259383" d="M35.042,264.917a5.293,5.293,0,0,0-.872-1.65l-2.253.865a28.475,28.475,0,0,1-3.038-1.213,1.838,1.838,0,0,1,.534-.957l1.816.739a1.478,1.478,0,0,0,1.091.081l2.131-.826,1.4,2.559c-.214.315-.553.3-.809.4" transform="translate(-25.021 -226.963)" fill="#549488"/>
          <path id="Trazado_1259384" data-name="Trazado 1259384" d="M34.358,13.678a.766.766,0,0,1,.74-.666l7.457-.028c.6,0,1.147-.013,1.514-.6a1.5,1.5,0,0,0-.007-1.608,1.624,1.624,0,0,0-1.6-.621c-.47.044-1.09-.079-1.22-.667-.114-.517,1.248-1.978.015-4.127a3.6,3.6,0,0,0-2.7-1.756,3.659,3.659,0,0,0-4.1,3.28.661.661,0,0,1-.421.548A.78.78,0,0,1,33.29,7.3a2.016,2.016,0,0,0-2.513-.44,2.059,2.059,0,0,0-.94,2.4c.314,1.238-1.6.761-2.751.9a1.44,1.44,0,0,0,.251,2.869l4.419-.01a.78.78,0,0,1,.781.657.712.712,0,0,1-.665.725l-2.641.057a11.682,11.682,0,1,1-.586-7.328,3.511,3.511,0,0,1,4.669-1.547,5.062,5.062,0,0,1,9.616,3.158A2.906,2.906,0,0,1,45.7,11.586a2.8,2.8,0,0,1-2.725,2.8l-8,.014c-.405,0-.584-.438-.613-.727M19.421,7.945l2.151-3.682a.685.685,0,0,1,.911-.3,9.053,9.053,0,0,1,3.934,4.858,10.754,10.754,0,0,0,1.3-.116,10.314,10.314,0,1,0,.093,5.714,3.013,3.013,0,0,1-3.339-2.189l-2.609-.03c-1.239-.014-.092-1.892-2.216-3.293a.709.709,0,0,1-.226-.967m5.026,2.8c.261-.186.449-.827.728-1.136a6.962,6.962,0,0,0-2.763-3.982L20.92,8.108a5.518,5.518,0,0,1,1.585,2.747c.662-.085,1.322.178,1.942-.114" transform="translate(-5.32 0)" fill="#070706"/>
          <path id="Trazado_1259385" data-name="Trazado 1259385" d="M28.346,16.888a.709.709,0,0,0,.226.967c2.123,1.4.977,3.279,2.216,3.293l2.609.03a3.013,3.013,0,0,0,3.339,2.189,10.344,10.344,0,1,1-.093-5.714,10.7,10.7,0,0,1-1.3.116,9.054,9.054,0,0,0-3.934-4.858.685.685,0,0,0-.912.3ZM24.9,17.916a.749.749,0,0,0,.311-.987l-2.156-3.719a.7.7,0,0,0-.9-.312,8.9,8.9,0,0,0-4.4,7.635.688.688,0,0,0,.737.618l4.285-.009c1.2,0,.084-1.837,2.125-3.225M28.8,20.648a2.022,2.022,0,1,0-2.022,2.022A2.022,2.022,0,0,0,28.8,20.648m2.549,6.921-2.1-3.681a.718.718,0,0,0-.912-.294c-2.393,1.168-3.392-.815-4.018.283l-2.135,3.744a.708.708,0,0,0,.345,1,9.131,9.131,0,0,0,8.526-.008.725.725,0,0,0,.3-1.045" transform="translate(-14.244 -8.944)" fill="#edc985"/>
          <path id="Trazado_1259386" data-name="Trazado 1259386" d="M120.308,47.2c-.62.293-1.28.029-1.942.114a5.518,5.518,0,0,0-1.585-2.747l1.493-2.486a6.962,6.962,0,0,1,2.763,3.982c-.279.31-.467.95-.728,1.136" transform="translate(-101.181 -36.46)" fill="#897e8c"/>
          <path id="Trazado_1259387" data-name="Trazado 1259387" d="M165.942,26.8a4.456,4.456,0,0,1,1.279,5.75l1.4.132c.13.587.749.711,1.22.667a2.6,2.6,0,0,1,.1,2.828l-7.457.028a.766.766,0,0,0-.74.666,10.287,10.287,0,0,1-1.821-.009.78.78,0,0,0-.781-.657l-4.419.01a1.44,1.44,0,0,1-.251-2.869c1.152-.136,3.065.342,2.751-.9a2.059,2.059,0,0,1,.94-2.4,2.016,2.016,0,0,1,2.513.44.78.78,0,0,0,.749.139.661.661,0,0,0,.421-.548,3.659,3.659,0,0,1,4.1-3.28" transform="translate(-132.702 -23.195)" fill="#dbe9fb"/>
          <path id="Trazado_1259388" data-name="Trazado 1259388" d="M251.509,32.879l-1.4-.132A4.456,4.456,0,0,0,248.829,27a3.6,3.6,0,0,1,2.7,1.755c1.233,2.149-.13,3.609-.015,4.127" transform="translate(-215.589 -23.391)" fill="#bbd5f8"/>
          <path id="Trazado_1259389" data-name="Trazado 1259389" d="M278.119,78.764a2.6,2.6,0,0,0-.1-2.828,1.624,1.624,0,0,1,1.6.621,1.5,1.5,0,0,1,.007,1.608c-.367.586-.919.6-1.514.6" transform="translate(-240.883 -65.781)" fill="#bbd5f8"/>
          <path id="Trazado_1259390" data-name="Trazado 1259390" d="M67.921,113.229a.724.724,0,0,1-.3,1.045,9.131,9.131,0,0,1-8.526.008.708.708,0,0,1-.345-1l2.135-3.744c.627-1.1,1.626.884,4.018-.283a.718.718,0,0,1,.912.294Zm-1.552.086-1.492-2.574a4.751,4.751,0,0,1-3.082.014l-1.465,2.581a7.423,7.423,0,0,0,6.04-.021" transform="translate(-50.821 -94.603)" fill="#050403"/>
          <path id="Trazado_1259391" data-name="Trazado 1259391" d="M33.436,34.141c-2.041,1.387-.921,3.222-2.125,3.225l-4.285.009a.688.688,0,0,1-.737-.618,8.9,8.9,0,0,1,4.4-7.635.7.7,0,0,1,.9.312l2.156,3.719a.749.749,0,0,1-.311.987m-1.185-.846-1.511-2.55A7.549,7.549,0,0,0,27.7,36.01l2.972.006a4.972,4.972,0,0,1,1.58-2.721" transform="translate(-22.778 -25.168)" fill="#050403"/>
          <path id="Trazado_1259392" data-name="Trazado 1259392" d="M82.7,74.505a2.022,2.022,0,1,1-2.022-2.022A2.022,2.022,0,0,1,82.7,74.505m-1.388,0a.638.638,0,1,0-.638.638.638.638,0,0,0,.638-.638" transform="translate(-68.144 -62.8)" fill="#050403"/>
          <path id="Trazado_1259393" data-name="Trazado 1259393" d="M77.216,123.379a7.424,7.424,0,0,1-6.04.021l1.465-2.581a4.751,4.751,0,0,0,3.082-.014Z" transform="translate(-61.668 -104.667)" fill="#897e8c"/>
          <path id="Trazado_1259394" data-name="Trazado 1259394" d="M41.392,44.294a4.972,4.972,0,0,0-1.58,2.721l-2.972-.006a7.549,7.549,0,0,1,3.041-5.265Z" transform="translate(-31.919 -36.168)" fill="#897e8c"/>
          <path id="Trazado_1259395" data-name="Trazado 1259395" d="M90.264,83.5a.638.638,0,1,1-.638-.638.638.638,0,0,1,.638.638" transform="translate(-77.101 -71.796)" fill="#897e8c"/>
        </g>
      </g>
    </g>
  </g>
</svg>
