<svg xmlns="http://www.w3.org/2000/svg" xmlns:xlink="http://www.w3.org/1999/xlink" width="102.592" height="102.592" viewBox="0 0 102.592 102.592">
  <defs>
    <filter id="Trazado_896985" x="0" y="0" width="102.592" height="102.592" filterUnits="userSpaceOnUse">
      <feOffset dy="3" input="SourceAlpha"/>
      <feGaussianBlur stdDeviation="3" result="blur"/>
      <feFlood flood-opacity="0.161"/>
      <feComposite operator="in" in2="blur"/>
      <feComposite in="SourceGraphic"/>
    </filter>
  </defs>
  <g id="Grupo_1213201" data-name="Grupo 1213201" transform="translate(-1036.942 -11306.242)">
    <g id="Grupo_1212363" data-name="Grupo 1212363" transform="translate(1045.942 11312.242)">
      <g id="Grupo_1200070" data-name="Grupo 1200070" transform="translate(0 0)">
        <g id="Grupo_1198726" data-name="Grupo 1198726" transform="translate(0 0)">
          <g id="Grupo_1198141" data-name="Grupo 1198141" transform="translate(0 0)">
            <g id="Grupo_1111318" data-name="Grupo 1111318" transform="translate(0)">
              <g id="Grupo_1109826" data-name="Grupo 1109826">
                <g id="Grupo_1098742" data-name="Grupo 1098742">
                  <g transform="matrix(1, 0, 0, 1, -9, -6)" filter="url(#Trazado_896985)">
                    <g id="Trazado_896985-2" data-name="Trazado 896985" transform="translate(9 6)" fill="#fff4da" opacity="0.859">
                      <path d="M 42.29615020751953 84.09239959716797 C 36.65348434448242 84.09239959716797 31.17987251281738 82.98738861083984 26.0273494720459 80.80805206298828 C 21.05036163330078 78.70296478271484 16.5804615020752 75.68924713134766 12.74180603027344 71.85060119628906 C 8.90316104888916 68.01194763183594 5.889439105987549 63.54204559326172 3.784350156784058 58.56505584716797 C 1.605016827583313 53.41253280639648 0.5000057816505432 47.93892288208008 0.5000057816505432 42.29625701904297 C 0.5000057816505432 36.65347671508789 1.605016827583313 31.17986679077148 3.784350156784058 26.0273551940918 C 5.889439105987549 21.05035591125488 8.90316104888916 16.5804557800293 12.74180603027344 12.74181079864502 C 16.5804615020752 8.903166770935059 21.05036163330078 5.889432907104492 26.0273494720459 3.78434419631958 C 31.17987251281738 1.605010867118835 36.65348434448242 0.4999997913837433 42.29615020751953 0.4999997913837433 C 47.93881607055664 0.4999997913837433 53.41242980957031 1.605010867118835 58.56493759155273 3.78434419631958 C 63.54193878173828 5.889432907104492 68.0118408203125 8.903166770935059 71.85049438476562 12.74181079864502 C 75.68914031982422 16.5804557800293 78.70287322998047 21.05035591125488 80.80796051025391 26.0273551940918 C 82.98729705810547 31.17986679077148 84.09230804443359 36.65347671508789 84.09230804443359 42.296142578125 C 84.09230804443359 47.93892288208008 82.98729705810547 53.41253280639648 80.80796051025391 58.56505584716797 C 78.70287322998047 63.54204559326172 75.68914031982422 68.01194763183594 71.85049438476562 71.85060119628906 C 68.0118408203125 75.68924713134766 63.54193878173828 78.70296478271484 58.56493759155273 80.80805206298828 C 53.41242980957031 82.98738861083984 47.93881607055664 84.09239959716797 42.29615020751953 84.09239959716797 Z" stroke="none"/>
                      <path d="M 42.29615020751953 1 C 36.72076034545898 1 31.31267929077148 2.091728210449219 26.22212600708008 4.244850158691406 C 21.30473709106445 6.324729919433594 16.88825988769531 9.302467346191406 13.09535980224609 13.09536743164062 C 9.302467346191406 16.88824462890625 6.324729919433594 21.30472946166992 4.244842529296875 26.22212982177734 C 2.091728210449219 31.31268310546875 1 36.72075271606445 1 42.29625701904297 C 1 47.87164688110352 2.091728210449219 53.27973175048828 4.244842529296875 58.37026977539062 C 6.324729919433594 63.28767013549805 9.302467346191406 67.70415496826172 13.09535980224609 71.49704742431641 C 16.88825988769531 75.28993225097656 21.30473709106445 78.26766967773438 26.22212600708008 80.34754943847656 C 31.31267929077148 82.50067901611328 36.72076034545898 83.59239959716797 42.29615020751953 83.59239959716797 C 47.87154006958008 83.59239959716797 53.27960968017578 82.50067901611328 58.37016296386719 80.34754943847656 C 63.28755950927734 78.26766967773438 67.70404052734375 75.28993225097656 71.49694061279297 71.49704742431641 C 75.28981781005859 67.70415496826172 78.26757049560547 63.28767013549805 80.34745788574219 58.37026977539062 C 82.50057220458984 53.27973175048828 83.59230041503906 47.87164688110352 83.59230041503906 42.296142578125 C 83.59230041503906 36.72076416015625 82.50057220458984 31.31268310546875 80.34745788574219 26.22212982177734 C 78.26757049560547 21.30472946166992 75.28981781005859 16.88824462890625 71.49694061279297 13.09536743164062 C 67.70404052734375 9.302467346191406 63.28755950927734 6.324729919433594 58.37016296386719 4.244850158691406 C 53.27960968017578 2.091728210449219 47.87154006958008 1 42.29615020751953 1 M 42.29615020751953 0 C 65.65565490722656 0 84.59230041503906 18.93663787841797 84.59230041503906 42.296142578125 L 84.59230041503906 42.29625701904297 C 84.59230041503906 65.65577697753906 65.65565490722656 84.59239959716797 42.29615020751953 84.59239959716797 C 18.93663024902344 84.59239959716797 0 65.65577697753906 0 42.29625701904297 L 0 42.296142578125 C 0 18.93663787841797 18.93663024902344 0 42.29615020751953 0 Z" stroke="none" fill="#fff"/>
                    </g>
                  </g>
                  <g id="Rectángulo_400907" data-name="Rectángulo 400907" transform="translate(0)" fill="none" stroke="#fff" stroke-width="1">
                    <rect width="84.592" height="84.592" rx="42.296" stroke="none"/>
                    <rect x="0.5" y="0.5" width="83.592" height="83.592" rx="41.796" fill="none"/>
                  </g>
                </g>
              </g>
            </g>
          </g>
        </g>
      </g>
    </g>
    <g id="natural_5332623" transform="translate(1059.849 11329.583)">
      <g id="Grupo_1212712" data-name="Grupo 1212712" transform="translate(0.831 0.83)">
        <path id="Trazado_1246770" data-name="Trazado 1246770" d="M44.293,38.546l.011-.011-.436-.436L29.982,24.212a3.613,3.613,0,0,0-5.11,0L10.986,38.1l-.436.436.011.011A11.934,11.934,0,0,0,27.427,55.39,11.934,11.934,0,0,0,44.293,38.546Z" transform="translate(-7.491 -23.154)" fill="#bbf49b"/>
        <path id="Trazado_1246771" data-name="Trazado 1246771" d="M29.925,24.16a3.577,3.577,0,0,0-.783.594L15.256,38.64l-.436.437.01.01a11.938,11.938,0,0,0,5.243,19.365c-.217.013-.433.018-.65.018A11.933,11.933,0,0,1,10.56,38.546l-.011-.011.437-.437L24.872,24.213a3.609,3.609,0,0,1,5.053-.053Z" transform="translate(-7.49 -23.154)" fill="#9be69d"/>
        <path id="Trazado_1246772" data-name="Trazado 1246772" d="M112.125,95.322a1.72,1.72,0,0,0-2.432,0l-5.98,5.98V96.688l6.719-6.719A1.72,1.72,0,0,0,108,87.537l-4.287,4.287V83.987a1.72,1.72,0,1,0-3.44,0v7.837l-4.287-4.287a1.72,1.72,0,0,0-2.432,2.432l6.719,6.719V101.3l-5.98-5.98a1.72,1.72,0,0,0-2.432,2.432l8.412,8.412v11.92a1.72,1.72,0,1,0,3.44,0V106.167l8.412-8.412A1.72,1.72,0,0,0,112.125,95.322Z" transform="translate(-82.057 -75.712)" fill="#6fd7a3"/>
        <g id="Grupo_1212710" data-name="Grupo 1212710" transform="translate(25.528 2.253)">
          <path id="Trazado_1246773" data-name="Trazado 1246773" d="M336.044,313.741a4.371,4.371,0,0,1-4.351-4.785l1.62-17.053h5.462l1.62,17.053A4.371,4.371,0,0,1,336.044,313.741Z" transform="translate(-321.251 -264.353)" fill="#c59191"/>
          <path id="Trazado_1246774" data-name="Trazado 1246774" d="M336.043,313.739a4.369,4.369,0,0,1-4.351-4.784l1.62-17.053h1.937l-.47,17.053C334.708,311.521,335.294,313.739,336.043,313.739Z" transform="translate(-321.25 -264.352)" fill="#b98080"/>
          <circle id="Elipse_12397" data-name="Elipse 12397" cx="14.793" cy="14.793" r="14.793" transform="translate(0)" fill="#ffe177"/>
          <path id="Trazado_1246775" data-name="Trazado 1246775" d="M254.523,72.916a14.793,14.793,0,1,1,0-29.308,14.8,14.8,0,0,0,0,29.308Z" transform="translate(-237.694 -43.469)" fill="#ffd15b"/>
          <circle id="Elipse_12398" data-name="Elipse 12398" cx="11.003" cy="11.003" r="11.003" transform="translate(3.79 3.79)" fill="#dff6fd"/>
          <path id="Trazado_1246776" data-name="Trazado 1246776" d="M284.757,99.489a11,11,0,1,1,0-21.684,11,11,0,0,0,0,21.684Z" transform="translate(-268.084 -73.854)" fill="#c8effe"/>
        </g>
        <g id="Grupo_1212711" data-name="Grupo 1212711" transform="translate(35.981 13.836)">
          <path id="Trazado_1246777" data-name="Trazado 1246777" d="M338.462,147.919h-4.341l-2.17,3.759,2.17,3.759h4.341l2.17-3.759Z" transform="translate(-331.951 -147.919)" fill="#6fd7a3"/>
        </g>
      </g>
      <g id="Grupo_1212713" data-name="Grupo 1212713" transform="translate(0 0)">
        <path id="Trazado_1246778" data-name="Trazado 1246778" d="M56.776,33.545a15.657,15.657,0,0,0-5.138-11.583A.832.832,0,0,0,50.521,23.2a13.961,13.961,0,1,1-9.37-3.611,13.8,13.8,0,0,1,6.463,1.583.832.832,0,0,0,.771-1.474A15.617,15.617,0,0,0,29.78,22.842l-5.871-5.872a4.453,4.453,0,0,0-6.287,0L4.672,29.92A.832.832,0,1,0,5.848,31.1L18.8,18.146a2.787,2.787,0,0,1,3.935,0l5.969,5.97a15.639,15.639,0,0,0-1.853,3.143,2.526,2.526,0,0,0-.666.479L23.318,30.6V24.776a2.552,2.552,0,1,0-5.1,0V30.6l-2.866-2.867a2.552,2.552,0,0,0-3.609,3.608l6.475,6.476v2.261l-4.56-4.56a2.551,2.551,0,1,0-3.608,3.608L18.214,47.3v2.257A11.1,11.1,0,0,1,3.421,33.883a.832.832,0,0,0-1.4-.9A12.768,12.768,0,0,0,18.214,51.428v7.447a2.552,2.552,0,0,0,5.1,0V51.427a12.757,12.757,0,0,0,13.975-2.045L36.156,61.346a.832.832,0,0,0,.749.907q.04,0,.08,0a.832.832,0,0,0,.827-.753L39,49.022a15.626,15.626,0,0,0,4.307,0l1.37,14.415a3.538,3.538,0,0,1-3.523,3.872,3.554,3.554,0,0,1-3.323-2.316.832.832,0,0,0-1.561.575A5.2,5.2,0,0,0,46.33,63.279L44.946,48.7a15.653,15.653,0,0,0,11.83-15.158ZM25.648,35.491a15.516,15.516,0,0,0,.359,1.9l-2.689,2.689V37.822ZM21.654,46.955v11.92a.889.889,0,0,1-1.777,0V46.955a.832.832,0,0,0-.244-.588l-8.412-8.413A.888.888,0,0,1,12.478,36.7l5.979,5.979a.832.832,0,0,0,1.42-.588V37.477a.832.832,0,0,0-.244-.588l-6.719-6.72a.888.888,0,0,1,1.257-1.256L18.458,33.2a.832.832,0,0,0,1.42-.588V24.776a.889.889,0,1,1,1.777,0v7.837a.832.832,0,0,0,1.42.588l2.764-2.764a15.624,15.624,0,0,0-.308,2.82L21.9,36.889a.832.832,0,0,0-.244.588v4.613a.832.832,0,0,0,1.42.588l3.5-3.5a15.565,15.565,0,0,0,.791,1.721L21.9,46.367A.831.831,0,0,0,21.654,46.955Zm8.33,3.963a11.163,11.163,0,0,1-6.666-1.361V47.3l4.939-4.94a15.7,15.7,0,0,0,7.749,5.94A10.954,10.954,0,0,1,29.984,50.919Z" transform="translate(0.001 -15.67)"/>
        <path id="Trazado_1246779" data-name="Trazado 1246779" d="M264.374,81.979a11.835,11.835,0,1,0,11.835-11.834A11.848,11.848,0,0,0,264.374,81.979Zm22.006,0a10.171,10.171,0,1,1-10.171-10.171A10.183,10.183,0,0,1,286.38,81.979Z" transform="translate(-235.056 -64.104)"/>
        <path id="Trazado_1246780" data-name="Trazado 1246780" d="M292.651,110.279a.832.832,0,0,0-.72.416L290,114.038h-3.86a.832.832,0,1,0,0,1.663H290l1.93,3.343a.832.832,0,0,0,.72.416h4.341a.832.832,0,0,0,.72-.416l1.93-3.343H303.5a.832.832,0,0,0,0-1.663h-3.861l-1.69-2.927,1.93-3.343a.832.832,0,1,0-1.441-.832l-1.93,3.343Zm3.86,7.518h-3.38l-1.69-2.927,1.69-2.927h3.38l1.69,2.927Z" transform="translate(-253.669 -96.445)"/>
      </g>
    </g>
  </g>
</svg>
