<svg xmlns="http://www.w3.org/2000/svg" xmlns:xlink="http://www.w3.org/1999/xlink" width="129.063" height="88.103" viewBox="0 0 129.063 88.103">
  <defs>
    <clipPath id="clip-path">
      <rect id="Rect치ngulo_411700" data-name="Rect치ngulo 411700" width="88.148" height="88.103" fill="none"/>
    </clipPath>
  </defs>
  <g id="Grupo_1201007" data-name="Grupo 1201007" transform="translate(0 -12.802)">
    <g id="Rect치ngulo_410589" data-name="Rect치ngulo 410589" transform="translate(0 35.344)" fill="#5a8441" stroke="#3e5b2c" stroke-width="1">
      <rect width="129.063" height="43.021" rx="8" stroke="none"/>
      <rect x="0.5" y="0.5" width="128.063" height="42.021" rx="7.5" fill="none"/>
    </g>
    <g id="Grupo_1213329" data-name="Grupo 1213329" transform="translate(20.949 12.802)">
      <g id="Grupo_1213328" data-name="Grupo 1213328" clip-path="url(#clip-path)">
        <path id="Trazado_1260226" data-name="Trazado 1260226" d="M28.558,70.61a1.906,1.906,0,0,1,2.014-.3,21.806,21.806,0,0,0,9.238,2.714c.356-.509.128-1.1.147-1.635.081-2.313.055-4.591.012-7.2L26.532,58.041,22.865,56.26a1.326,1.326,0,0,1-.658-1.643,1.26,1.26,0,0,1,1.742-.682,4.026,4.026,0,0,0,1.112.378l14.876,7.01.043-10.961L27.138,43.942l-.894-.671c-.138-.623.35-1.217.557-1.758a2.182,2.182,0,0,1,1.465.1L39.977,47.4l0-9.444L32.42,34.148a1.355,1.355,0,0,1-.56-1.69,1.3,1.3,0,0,1,1.653-.612l6.42,3.112.089-7.43a1.293,1.293,0,1,1,2.587,0l.1,7.428,6.411-3.115a1.258,1.258,0,0,1,1.64.636,1.33,1.33,0,0,1-.572,1.685l-7.532,3.782.058,9.455,11.836-5.873a1.319,1.319,0,0,1,1.683.536,1.341,1.341,0,0,1-.735,1.873l-12.84,6.428.036,10.93,15.8-7.264a1.306,1.306,0,0,1,1.931.58,1.361,1.361,0,0,1-.825,1.753L42.656,64.186,42.7,73.04a22.068,22.068,0,0,0,20.69-23.246c-.168-2.773-1.361-5.16-2.312-7.684-4.128-8.82-11.4-18.963-17.528-26.343-.723-.871-1.316-1.85-2.259-2.8-6.644,7.976-21.285,26.93-22.044,36.865a21.67,21.67,0,0,0,6.3,16.686,1.594,1.594,0,0,1,.2,2.054c-.355.05-1.193.565-1.65.121a23.776,23.776,0,0,1-7.283-20.121c1.081-7.82,9.238-19.917,14.089-26.6l-9.05-.081a11.029,11.029,0,1,1-.024-2.613l11.048.044,7.255-8.984a1.623,1.623,0,0,1,1.1-.663,1.331,1.331,0,0,1,1.147.541l6.927,8.515,6.074-8.438a1.531,1.531,0,0,1,1.248-.65l9.658-.015a10.971,10.971,0,0,1,21.858,1.236A10.954,10.954,0,0,1,66.327,12.3l-9.2-.016-6.164,8.668c5.085,6.883,13.995,19.873,14.9,28.051,1.018,9.163-3.62,17.818-11.341,22.9,1.307,1.195,2.415,2.948,3.942,3.751,1.513.607,3.438-.053,5.089.177a10.823,10.823,0,1,1-.032,2.667c-2.1-.27-4.19.318-6.05-.179-2.049-1.283-3.416-3.481-5.428-5.075a24.63,24.63,0,0,1-23.062-.863c-.663-.387-.555-1.225-.427-1.77M72.335,4.169a8.343,8.343,0,1,0,8.349-.807,8.336,8.336,0,0,0-8.349.807M6.258,13.709a8.34,8.34,0,1,0,8.341-.6,8.333,8.333,0,0,0-8.341.6M69.8,70.233a8.342,8.342,0,1,0,8.364-.531,8.336,8.336,0,0,0-8.364.531" transform="translate(0 0)" fill="#050604"/>
        <path id="Trazado_1260227" data-name="Trazado 1260227" d="M81.708,41.543c-.389-.039-.606.237-.882.594-5.243,6.78-12.9,17.419-15.868,25.152-.207.541-.7,1.134-.557,1.758-1.936,3.587-1.429,7.253-1.183,11.043a4.026,4.026,0,0,1-1.112-.378,1.259,1.259,0,0,0-1.742.682,1.326,1.326,0,0,0,.658,1.643l3.666,1.781c1.367,5.429,8.016,11.895,13.425,13.345-.018.531.209,1.126-.147,1.635a21.8,21.8,0,0,1-9.238-2.714,1.906,1.906,0,0,0-2.014.3,25.841,25.841,0,0,1-2.81-2.043,1.594,1.594,0,0,0-.2-2.054A21.67,21.67,0,0,1,57.4,75.6c.759-9.934,15.4-28.889,22.044-36.865.944.953,1.536,1.933,2.259,2.8" transform="translate(-38.157 -25.776)" fill="#8fd52e"/>
        <path id="Trazado_1260228" data-name="Trazado 1260228" d="M96.843,47.111c6.131,7.379,13.4,17.523,17.528,26.343.951,2.524,2.144,4.911,2.312,7.684a22.068,22.068,0,0,1-20.69,23.246l-.045-8.853,16.936-7.824a1.362,1.362,0,0,0,.825-1.753,1.306,1.306,0,0,0-1.931-.58l-15.8,7.264-.036-10.93,12.84-6.428a1.341,1.341,0,0,0,.735-1.873,1.32,1.32,0,0,0-1.683-.536L96,78.744l-.058-9.456,7.533-3.781a1.331,1.331,0,0,0,.572-1.685,1.258,1.258,0,0,0-1.64-.636L96,66.3l-.1-7.428a1.293,1.293,0,1,0-2.587,0l-.089,7.43-6.42-3.112a1.3,1.3,0,0,0-1.653.612,1.354,1.354,0,0,0,.56,1.69L93.266,69.3l0,9.444-11.712-5.79a2.177,2.177,0,0,0-1.464-.1C83.057,65.124,90.718,54.485,95.961,47.7c.276-.357.493-.634.882-.594" transform="translate(-53.292 -31.344)" fill="#a3db56"/>
        <path id="Trazado_1260229" data-name="Trazado 1260229" d="M74.4,140.355c-.247-3.79-.753-7.456,1.183-11.043l.894.671L89.32,136.4l-.043,10.961Z" transform="translate(-49.339 -86.041)" fill="#a4db56"/>
        <path id="Trazado_1260230" data-name="Trazado 1260230" d="M216.038,221.021a10.185,10.185,0,0,1-6.127-2.065l.228-2.219,3.383,2.441a1.329,1.329,0,0,0,1.663-.146c1.676-1.791-2.933-3.482-4.187-5.039l4.082-3.136a1.261,1.261,0,0,0,.268-1.658,1.218,1.218,0,0,0-1.618-.441l-3.565,2.5a7.855,7.855,0,0,1-.161-1.559,1.229,1.229,0,0,0-1.433-1.059,1.292,1.292,0,0,0-1.133,1.319l-.036,6.24a9.792,9.792,0,0,1-.53-9.116,8.339,8.339,0,1,1,9.164,13.934" transform="translate(-137.07 -136.854)" fill="#f8e07b"/>
        <path id="Trazado_1260231" data-name="Trazado 1260231" d="M92.714,186.8c-5.409-1.45-12.059-7.915-13.425-13.344L92.726,179.6c.044,2.609.069,4.888-.012,7.2" transform="translate(-52.757 -115.412)" fill="#a4dc56"/>
        <path id="Trazado_1260232" data-name="Trazado 1260232" d="M201.771,219c-.007,1.134-.174,2.623.8,3.1a1.833,1.833,0,0,0,1.709-.348,10.184,10.184,0,0,0,6.127,2.065,8.339,8.339,0,0,1-9.164-13.934,9.792,9.792,0,0,0,.53,9.116" transform="translate(-131.437 -139.655)" fill="#f9d22e"/>
        <path id="Trazado_1260233" data-name="Trazado 1260233" d="M212.666,224.748a1.833,1.833,0,0,1-1.709.348c-.973-.478-.805-1.967-.8-3.1l.037-6.24a1.292,1.292,0,0,1,1.133-1.319,1.229,1.229,0,0,1,1.432,1.059,7.88,7.88,0,0,0,.161,1.559l3.565-2.5a1.219,1.219,0,0,1,1.618.441,1.262,1.262,0,0,1-.268,1.658l-4.082,3.136c1.254,1.557,5.863,3.248,4.187,5.039a1.329,1.329,0,0,1-1.663.146l-3.383-2.441Z" transform="translate(-139.825 -142.647)" fill="#050502"/>
        <path id="Trazado_1260234" data-name="Trazado 1260234" d="M224.534,22.975a8.17,8.17,0,0,1-6.3-2.021l.121-3.425,2.58-.152a3.26,3.26,0,0,0,2.9-3.578,3.344,3.344,0,0,0-3.342-3.107l-3.26-.011a1.434,1.434,0,0,0-1.516,1.473l-.041,6.022c-1.806-2.534-1.571-5.809-.743-8.836a8.34,8.34,0,1,1,9.608,13.633" transform="translate(-142.591 -5.173)" fill="#f8af6b"/>
        <path id="Trazado_1260235" data-name="Trazado 1260235" d="M210,21.294c-.007,1.059-.156,3.018.94,3.266a1.763,1.763,0,0,0,1.622-.489,8.17,8.17,0,0,0,6.3,2.02,8.34,8.34,0,0,1-9.608-13.633c-.828,3.027-1.063,6.3.743,8.835" transform="translate(-136.926 -8.29)" fill="#f49d49"/>
        <path id="Trazado_1260236" data-name="Trazado 1260236" d="M220.93,26.735a1.763,1.763,0,0,1-1.622.489c-1.1-.248-.947-2.207-.94-3.266l.041-6.022a1.434,1.434,0,0,1,1.516-1.473l3.26.011a3.344,3.344,0,0,1,3.342,3.107,3.259,3.259,0,0,1-2.9,3.577l-2.58.152Zm2.69-6.236c.358-.392.392-1.158-.1-1.334a6,6,0,0,0-2.428-.074,3.369,3.369,0,0,0,.011,1.441,8.392,8.392,0,0,0,2.515-.032" transform="translate(-145.291 -10.954)" fill="#040301"/>
        <path id="Trazado_1260237" data-name="Trazado 1260237" d="M228.916,25.545a8.392,8.392,0,0,1-2.515.032,3.37,3.37,0,0,1-.011-1.441,6,6,0,0,1,2.428.074c.49.176.456.943.1,1.334" transform="translate(-150.587 -16)" fill="#dc9b60"/>
        <path id="Trazado_1260238" data-name="Trazado 1260238" d="M26.421,51.936a10.345,10.345,0,0,1-6.294-1.995c.475-1.158.08-2.377.357-3.772l2.981,3.645a1.316,1.316,0,0,0,1.477.553,1.434,1.434,0,0,0,.923-1.217l.022-6.76a1.364,1.364,0,0,0-1.193-1.4c-2.188-.155-1.106,2.942-1.54,4.229l-3.1-3.766a1.337,1.337,0,0,0-1.473-.4,1.29,1.29,0,0,0-.83,1.341l-.04,4.545c-1.842-1.912-1.67-6.414-.6-8.838a8.337,8.337,0,1,1,9.306,13.835" transform="translate(-10.857 -24.393)" fill="#a7e6ed"/>
        <path id="Trazado_1260239" data-name="Trazado 1260239" d="M12.038,49.8c-.013,1.529-.171,2.953.9,3.4a1.625,1.625,0,0,0,1.516-.395A10.346,10.346,0,0,0,20.744,54.8a8.337,8.337,0,0,1-9.306-13.835c-1.071,2.424-1.242,6.926.6,8.838" transform="translate(-5.18 -27.259)" fill="#31c5d6"/>
        <path id="Trazado_1260240" data-name="Trazado 1260240" d="M22.875,58.531a1.625,1.625,0,0,1-1.517.395c-1.066-.444-.909-1.869-.9-3.4l.04-4.545a1.29,1.29,0,0,1,.831-1.341,1.336,1.336,0,0,1,1.473.4l3.1,3.766c.433-1.287-.648-4.384,1.54-4.229a1.364,1.364,0,0,1,1.193,1.4l-.023,6.76a1.433,1.433,0,0,1-.923,1.217,1.317,1.317,0,0,1-1.477-.553l-2.98-3.645c-.277,1.395.118,2.614-.357,3.772" transform="translate(-13.605 -32.982)" fill="#030404"/>
      </g>
    </g>
  </g>
</svg>
