<svg xmlns="http://www.w3.org/2000/svg" xmlns:xlink="http://www.w3.org/1999/xlink" width="129.063" height="89.949" viewBox="0 0 129.063 89.949">
  <defs>
    <clipPath id="clip-path">
      <rect id="Rect치ngulo_411683" data-name="Rect치ngulo 411683" width="90" height="89.949" fill="none"/>
    </clipPath>
  </defs>
  <g id="Grupo_1201007" data-name="Grupo 1201007" transform="translate(0 -2.656)">
    <g id="Rect치ngulo_410589" data-name="Rect치ngulo 410589" transform="translate(0 35.344)" fill="#5a8441" stroke="#3e5b2c" stroke-width="1">
      <rect width="129.063" height="43.021" rx="8" stroke="none"/>
      <rect x="0.5" y="0.5" width="128.063" height="42.021" rx="7.5" fill="none"/>
    </g>
    <g id="Grupo_1213301" data-name="Grupo 1213301" transform="translate(19.531 2.656)">
      <g id="Grupo_1213300" data-name="Grupo 1213300" clip-path="url(#clip-path)">
        <path id="Trazado_1259932" data-name="Trazado 1259932" d="M14.275,186.806l9.282,3.8c.061.65.074,1.353.646,1.753a1.725,1.725,0,0,0,2.093-.276,17.35,17.35,0,0,1,2.351,1.066c.057.527-.13,1.4.511,1.775,8.2,4.779,15.642,10.433,21.247,18.555l-18.985-.017c-11.023-.01-20.353-9.062-20.433-19.985l-.049-6.671Z" transform="translate(-8.14 -139.04)" fill="#5db032"/>
        <path id="Trazado_1259933" data-name="Trazado 1259933" d="M213.4,190.635l9.3-3.829,3.325,0,0,5.642c-.009,11.207-8.887,20.973-20.216,21l-19.275.04c6.307-9.139,16.076-16.126,25.687-20.824a1.9,1.9,0,0,0,1.181-2.027" transform="translate(-138.839 -139.04)" fill="#5db032"/>
        <path id="Trazado_1259934" data-name="Trazado 1259934" d="M38.363,193.152a17.346,17.346,0,0,0-2.351-1.066,1.659,1.659,0,0,0-.566-2.073,1.959,1.959,0,0,0-2.173.6l-9.282-3.8,16.336,0a21.066,21.066,0,0,1,20.991,23.412,68.534,68.534,0,0,0-20.368-17.33,1.911,1.911,0,0,0-2.587.258" transform="translate(-17.857 -139.041)" fill="#7ec74e"/>
        <path id="Trazado_1259935" data-name="Trazado 1259935" d="M218.953,186.789l-9.3,3.829a1.851,1.851,0,0,0-2.5-.469c-9.921,4.928-18.5,11.127-25.537,20.055a21.189,21.189,0,0,1,21.253-23.42Z" transform="translate(-135.087 -139.023)" fill="#7ec64e"/>
        <path id="Trazado_1259936" data-name="Trazado 1259936" d="M48.089,220.74c-.336-.364-.987-.633-.989-1.3l-.034-11.231a15.274,15.274,0,0,0-4.132,0L42.9,219.442c0,.664-.654.934-.988,1.3a2.047,2.047,0,0,1-1.339-.315,1.52,1.52,0,0,1-.462-1.205L40.1,208.176l-16.274-.042A23.836,23.836,0,0,1,0,184.422l0-7.156a1.443,1.443,0,0,1,1.533-1.511l21.2.026c9.991.012,18.506,6.115,22.266,15.577,3.646-9.037,11.624-15.45,21.229-15.505l22.232-.129A1.5,1.5,0,0,1,90,177.267v6.9a23.924,23.924,0,0,1-23.825,23.97l-16.275.041-.009,11.043a1.44,1.44,0,0,1-.614,1.311,2.334,2.334,0,0,1-1.187.21M20.506,184.9a1.911,1.911,0,0,1,2.587-.259,68.534,68.534,0,0,1,20.368,17.33A21.066,21.066,0,0,0,22.47,178.561l-16.336,0-3.337,0,.049,6.671c.08,10.922,9.41,19.975,20.433,19.985l18.986.017c-5.606-8.122-13.049-13.776-21.247-18.555-.641-.374-.454-1.248-.511-1.775m54.059-2.517a1.9,1.9,0,0,1-1.181,2.027C63.773,189.111,54,196.1,47.7,205.237l19.275-.04c11.328-.023,20.207-9.789,20.216-21l0-5.642-3.325,0-16.083-.006A21.189,21.189,0,0,0,46.53,201.971c7.041-8.928,15.616-15.127,25.537-20.055a1.851,1.851,0,0,1,2.5.469" transform="translate(0 -130.79)" fill="#272826"/>
        <path id="Trazado_1259937" data-name="Trazado 1259937" d="M63.031,201.017a1.725,1.725,0,0,1-2.093.276c-.572-.4-.586-1.1-.646-1.753a1.959,1.959,0,0,1,2.173-.6,1.66,1.66,0,0,1,.566,2.073" transform="translate(-44.876 -147.972)" fill="#282a26"/>
        <path id="Trazado_1259938" data-name="Trazado 1259938" d="M170.087,314.9h-6.178c.334-.363.986-.634.988-1.3l.036-11.231a15.275,15.275,0,0,1,4.132,0L169.1,313.6c0,.665.653.934.989,1.3" transform="translate(-121.998 -224.953)" fill="#7dc64e"/>
        <path id="Trazado_1259939" data-name="Trazado 1259939" d="M260.814,136.244a1.463,1.463,0,0,1,.385,2.084,1.4,1.4,0,0,1-1.888.294l-5.823-4.362a1.431,1.431,0,0,1-.167-1.793,1.4,1.4,0,0,1,1.882-.378Z" transform="translate(-188.373 -98.149)" fill="#2c2c2c"/>
        <path id="Trazado_1259940" data-name="Trazado 1259940" d="M131.712,48.071a8.486,8.486,0,0,0-8.981,0,8.569,8.569,0,0,0-7.75-4.493,8.613,8.613,0,0,0-4.523-7.774,8.6,8.6,0,0,0,.029-9,8.651,8.651,0,0,0,4.5-7.782,8.337,8.337,0,0,0,7.707-4.453,8.972,8.972,0,0,0,9.038,0,8.3,8.3,0,0,0,7.7,4.45,8.656,8.656,0,0,0,4.5,7.785,8.609,8.609,0,0,0,.038,9,8.6,8.6,0,0,0-4.526,7.767,8.538,8.538,0,0,0-7.735,4.495m-3.1-7.094a12.545,12.545,0,0,0,2.9-.8,1.808,1.808,0,0,0,2.5.126,11.3,11.3,0,1,0-6.8,2.244,1.4,1.4,0,0,0,1.4-1.566" transform="translate(-82.214 -10.847)" fill="#fbc93d"/>
        <path id="Trazado_1259941" data-name="Trazado 1259941" d="M122.942,39.651a1.641,1.641,0,0,1-.9,1.212,1.565,1.565,0,0,1-1.556-.289,5.623,5.623,0,0,0-8.233,0,1.407,1.407,0,0,1-1.243.4,1.557,1.557,0,0,1-1.112-1.04,5.555,5.555,0,0,0-6.847-4.142,2.327,2.327,0,0,1-1.471-.172,1.365,1.365,0,0,1-.569-1.413A5.574,5.574,0,0,0,96.985,27a1.541,1.541,0,0,1-1.033-.935,1.7,1.7,0,0,1,.438-1.614,5.539,5.539,0,0,0-.053-8.036,1.534,1.534,0,0,1-.4-1.462,1.45,1.45,0,0,1,1.169-1.019,5.588,5.588,0,0,0,3.924-7.08,1.384,1.384,0,0,1,.324-1.322,1.492,1.492,0,0,1,1.406-.382,5.61,5.61,0,0,0,7.063-3.905,1.545,1.545,0,0,1,.912-1.171,1.559,1.559,0,0,1,1.592.354,5.528,5.528,0,0,0,8.091,0,1.547,1.547,0,0,1,1.593-.357,1.529,1.529,0,0,1,.912,1.169,5.605,5.605,0,0,0,7.06,3.907,1.546,1.546,0,0,1,1.277.265,1.362,1.362,0,0,1,.455,1.442,5.6,5.6,0,0,0,3.921,7.082,1.572,1.572,0,0,1,1.107.809,1.505,1.505,0,0,1-.335,1.668,5.555,5.555,0,0,0-.06,8.04,1.641,1.641,0,0,1,.483,1.431A1.484,1.484,0,0,1,135.755,27a5.565,5.565,0,0,0-4.015,7.2,1.435,1.435,0,0,1-.426,1.307,1.984,1.984,0,0,1-1.621.278,5.53,5.53,0,0,0-6.75,3.863m-2.073-2.427a8.538,8.538,0,0,1,7.735-4.495,8.6,8.6,0,0,1,4.526-7.767,8.609,8.609,0,0,1-.038-9,8.656,8.656,0,0,1-4.5-7.785,8.3,8.3,0,0,1-7.7-4.45,8.972,8.972,0,0,1-9.038,0,8.338,8.338,0,0,1-7.707,4.453,8.651,8.651,0,0,1-4.5,7.782,8.6,8.6,0,0,1-.029,9,8.613,8.613,0,0,1,4.523,7.774,8.569,8.569,0,0,1,7.75,4.493,8.486,8.486,0,0,1,8.981,0" transform="translate(-71.372 0)" fill="#2a2928"/>
        <path id="Trazado_1259942" data-name="Trazado 1259942" d="M155.752,64.35a12.532,12.532,0,0,1-2.9.8,1.409,1.409,0,0,0-1.393-1.22,8.454,8.454,0,1,1,5.039-1.7,1.879,1.879,0,0,0-.747,2.113" transform="translate(-106.457 -35.024)" fill="#f4a339"/>
        <path id="Trazado_1259943" data-name="Trazado 1259943" d="M147.536,56.119a1.879,1.879,0,0,1,.747-2.113,8.4,8.4,0,1,0-5.039,1.7,1.393,1.393,0,1,1,0,2.786,11.192,11.192,0,1,1,6.8-2.244,1.808,1.808,0,0,1-2.5-.126" transform="translate(-98.242 -26.793)" fill="#2a2925"/>
        <path id="Trazado_1259944" data-name="Trazado 1259944" d="M278.143,107.047a1.544,1.544,0,0,1,1.162,1.574c-.029.533-.62,1.535-1.413,1.235l-7.371-2.8a1.46,1.46,0,0,1-.982-1.683,1.372,1.372,0,0,1,1.771-1.022Z" transform="translate(-200.593 -77.607)" fill="#2b2b2b"/>
        <path id="Trazado_1259945" data-name="Trazado 1259945" d="M45.641,109.878c-.766.292-1.383-.544-1.466-1.005a1.532,1.532,0,0,1,1.034-1.747l6.738-2.69a1.439,1.439,0,0,1,1.914.808,1.457,1.457,0,0,1-.929,1.852Z" transform="translate(-32.859 -77.647)" fill="#2b2b2b"/>
        <path id="Trazado_1259946" data-name="Trazado 1259946" d="M68.351,138.6a1.41,1.41,0,1,1-1.667-2.274l5.681-4.226a1.436,1.436,0,0,1,1.777.249,1.416,1.416,0,0,1-.064,1.926Z" transform="translate(-49.198 -98.164)" fill="#2c2c2c"/>
      </g>
    </g>
  </g>
</svg>
