<svg xmlns="http://www.w3.org/2000/svg" xmlns:xlink="http://www.w3.org/1999/xlink" width="118.532" height="117.092" viewBox="0 0 118.532 117.092">
  <defs>
    <filter id="Rectángulo_410591" x="0" y="0" width="73" height="117.092" filterUnits="userSpaceOnUse">
      <feOffset dy="3" input="SourceAlpha"/>
      <feGaussianBlur stdDeviation="3" result="blur"/>
      <feFlood flood-opacity="0.161"/>
      <feComposite operator="in" in2="blur"/>
      <feComposite in="SourceGraphic"/>
    </filter>
    <clipPath id="clip-path">
      <rect id="Rectángulo_411661" data-name="Rectángulo 411661" width="99.837" height="83.623" fill="none"/>
    </clipPath>
  </defs>
  <g id="_32" data-name="32" transform="translate(9 6)">
    <g transform="matrix(1, 0, 0, 1, -9, -6)" filter="url(#Rectángulo_410591)">
      <path id="Rectángulo_410591-2" data-name="Rectángulo 410591" d="M10,0H45A10,10,0,0,1,55,10V99.092a0,0,0,0,1,0,0H0a0,0,0,0,1,0,0V10A10,10,0,0,1,10,0Z" transform="translate(9 6)" fill="#3e5b2c"/>
    </g>
    <g id="Grupo_1213260" data-name="Grupo 1213260" transform="translate(9.695 15.469)">
      <g id="Grupo_1213259" data-name="Grupo 1213259" clip-path="url(#clip-path)">
        <path id="Trazado_1259421" data-name="Trazado 1259421" d="M48.482,29.578l-.229,1.089a3.908,3.908,0,0,1-1.725.695A20.073,20.073,0,0,0,30.049,49a91.215,91.215,0,0,1,19.862,9.743c2.734-1.7,5.247-3.258,8.048-4.646a2.05,2.05,0,0,1,1.848.579c.034.684.14,1.6-.623,2.024-2.221,1.24-4.348,2.336-6.578,3.851l5.339,4.083A76.083,76.083,0,0,1,98.392,52.547a1.483,1.483,0,0,1,.03,2.965A72.507,72.507,0,0,0,60.33,66.588l4.677,4.542a62.824,62.824,0,0,1,33.41-10.138,1.6,1.6,0,0,1,1.413,1.391,1.532,1.532,0,0,1-1.384,1.642,58.541,58.541,0,0,0-31.375,9.244l4.153,4.923a48.051,48.051,0,0,1,27.231-8.639A1.428,1.428,0,0,1,99.829,70.9,1.478,1.478,0,0,1,98.441,72.5a44.683,44.683,0,0,0-25.423,8.032l3.68,5.4a34.893,34.893,0,0,1,21.749-7.916,1.526,1.526,0,0,1,1.389,1.36,1.431,1.431,0,0,1-1.37,1.583,31.448,31.448,0,0,0-20.217,7.541L81.8,95.149a20.791,20.791,0,0,1,16.65-8.617,1.475,1.475,0,0,1,1.4,1.372,1.548,1.548,0,0,1-1.376,1.6,17.577,17.577,0,0,0-15.044,8.531c-.378.623.343,1.238.322,1.7a1.624,1.624,0,0,1-1.382,1.456,2.091,2.091,0,0,1-1.851-1.347C67.584,68.232,35.613,47.105,1.447,47.037A1.54,1.54,0,0,1,.011,45.631a1.423,1.423,0,0,1,1.414-1.549,89.609,89.609,0,0,1,25.714,3.94A23.287,23.287,0,0,1,46.4,28.371a1.739,1.739,0,0,1,2.085,1.207" transform="translate(-0.006 -17.592)" fill="#030503"/>
        <path id="Trazado_1259422" data-name="Trazado 1259422" d="M184.532,77.657l-.01,5.513a76.083,76.083,0,0,0-40.446,12.082l-5.34-4.083c2.23-1.515,4.357-2.611,6.578-3.851.763-.426.657-1.34.623-2.024l2.914-1.231a2.02,2.02,0,0,0,2.449.466,85.276,85.276,0,0,1,33.232-6.871" transform="translate(-86.136 -48.215)" fill="#1ca26d"/>
        <path id="Trazado_1259423" data-name="Trazado 1259423" d="M197.2,100.017l0,5.479a62.822,62.822,0,0,0-33.41,10.138l-4.677-4.541A72.5,72.5,0,0,1,197.2,100.017" transform="translate(-98.785 -62.097)" fill="#0f784e"/>
        <path id="Trazado_1259424" data-name="Trazado 1259424" d="M183.369,46.955a85.276,85.276,0,0,0-33.231,6.871,2.02,2.02,0,0,1-2.449-.466c-.372-1.567,1.1-2.324,2.517-2.826l5.139-1.825a20.178,20.178,0,0,0-17.214-17.6,1.49,1.49,0,0,1-1.267-1.611,1.4,1.4,0,0,1,1.444-1.279,23.233,23.233,0,0,1,19.918,19.56,90.785,90.785,0,0,1,24.892-3.786A1.492,1.492,0,0,1,184.8,45.31a1.53,1.53,0,0,1-1.433,1.645" transform="translate(-84.974 -17.513)" fill="#050504"/>
        <path id="Trazado_1259425" data-name="Trazado 1259425" d="M208.263,122.471l.008,5.528a48.051,48.051,0,0,0-27.231,8.639l-4.153-4.923a58.541,58.541,0,0,1,31.375-9.244" transform="translate(-109.824 -76.038)" fill="#1ca26d"/>
        <path id="Trazado_1259426" data-name="Trazado 1259426" d="M218,144.831l.006,5.522a34.894,34.894,0,0,0-21.749,7.916l-3.679-5.4A44.682,44.682,0,0,1,218,144.831" transform="translate(-119.564 -89.921)" fill="#0f784e"/>
        <path id="Trazado_1259427" data-name="Trazado 1259427" d="M226.59,167.156l-.021,5.565a20.792,20.792,0,0,0-16.65,8.617l-3.546-6.641a31.448,31.448,0,0,1,20.217-7.541" transform="translate(-128.13 -103.781)" fill="#1ca26d"/>
        <path id="Trazado_1259428" data-name="Trazado 1259428" d="M234.878,189.671l-.085,10.291-14.637-.057c.021-.466-.7-1.081-.322-1.7a17.578,17.578,0,0,1,15.045-8.531" transform="translate(-136.419 -117.76)" fill="#0f784e"/>
        <path id="Trazado_1259429" data-name="Trazado 1259429" d="M130.9,31.534a1.49,1.49,0,0,0,1.267,1.611,20.178,20.178,0,0,1,17.214,17.6l-5.14,1.825c-.6-9.737-7.345-18.114-16.985-19.947l.229-1.088a33.179,33.179,0,0,1,3.414,0" transform="translate(-79.008 -19.551)" fill="#f69727"/>
        <path id="Trazado_1259430" data-name="Trazado 1259430" d="M114.429,54.432c-1.414.5-2.889,1.259-2.517,2.826L109,58.49a2.05,2.05,0,0,0-1.848-.579c-2.8,1.388-5.314,2.946-8.048,4.647A91.2,91.2,0,0,0,79.24,52.814,20.072,20.072,0,0,1,95.719,35.181a3.908,3.908,0,0,0,1.725-.695c9.64,1.832,16.384,10.21,16.985,19.946" transform="translate(-49.197 -21.411)" fill="#fab34c"/>
        <path id="Trazado_1259431" data-name="Trazado 1259431" d="M82.864,130.471l-9.5.051c-10.831-28.107-39.2-47.207-69.555-47.35L3.8,77.662c34.166.069,66.137,21.195,79.064,52.809" transform="translate(-2.359 -48.218)" fill="#b9e672"/>
        <path id="Trazado_1259432" data-name="Trazado 1259432" d="M70.125,144.142l-9.438.185c-5.194-13.707-15.9-25.065-28.945-31.89a1.75,1.75,0,0,0-2.255.483c-1.055-.3-1.934-1.088-3.045-1.181-.02-.522.141-1.6-.591-1.9A61.984,61.984,0,0,0,3.72,105.494l-.012-5.522c28.632.185,55.232,17.454,66.417,44.17" transform="translate(-2.302 -62.069)" fill="#8bc336"/>
        <path id="Trazado_1259433" data-name="Trazado 1259433" d="M26.408,125.707c1.111.094,1.99.882,3.045,1.181-.468.766.227,1.788.987,2.183A59.014,59.014,0,0,1,57.554,158.3l-9.539.033c-6.794-18.051-24.843-30.19-44.364-30.316l.01-5.549a57.881,57.881,0,0,1,20.694,3.85,1.88,1.88,0,0,0,2.053-.615" transform="translate(-2.267 -76.038)" fill="#b9e672"/>
        <path id="Trazado_1259434" data-name="Trazado 1259434" d="M44.852,172.039l-9.441.008a34.451,34.451,0,0,0-31.717-21.69l.006-5.516a45.042,45.042,0,0,1,41.152,27.2" transform="translate(-2.293 -89.927)" fill="#8bc336"/>
        <path id="Trazado_1259435" data-name="Trazado 1259435" d="M1.452,92.2c30.357.143,58.724,19.243,69.555,47.35.25.875-1.272,1.467-1.783,1.279a2.785,2.785,0,0,1-1.4-1.512C56.639,112.6,30.04,95.329,1.407,95.145a1.452,1.452,0,0,1-1.4-1.6A1.525,1.525,0,0,1,1.452,92.2" transform="translate(-0.001 -57.242)" fill="#040602"/>
        <path id="Trazado_1259436" data-name="Trazado 1259436" d="M32.272,186.043l-9.6.01c-2.621-7.974-10.65-13.291-19.023-13.308l-.01-5.59a31.438,31.438,0,0,1,28.636,18.887" transform="translate(-2.257 -103.781)" fill="#b9e672"/>
        <path id="Trazado_1259437" data-name="Trazado 1259437" d="M1.4,137.109c19.521.126,37.57,12.265,44.364,30.316a1.552,1.552,0,0,1-1.8,1.273c-.616-.117-1.118-.807-1.394-1.46a45.042,45.042,0,0,0-41.152-27.2,1.49,1.49,0,0,1-1.394-1.6A1.392,1.392,0,0,1,1.4,137.109" transform="translate(-0.016 -85.126)" fill="#050603"/>
        <path id="Trazado_1259438" data-name="Trazado 1259438" d="M102.656,164.395c.155.693-.922,1.378-1.47,1.359a1.892,1.892,0,0,1-1.628-1.352A59.014,59.014,0,0,0,72.443,135.17c-.76-.4-1.455-1.417-.987-2.183a1.75,1.75,0,0,1,2.255-.483c13.049,6.826,23.751,18.183,28.945,31.891" transform="translate(-44.271 -82.137)" fill="#040602"/>
        <path id="Trazado_1259439" data-name="Trazado 1259439" d="M1.407,159.391a34.451,34.451,0,0,1,31.717,21.69c.2.831-.99,1.533-1.537,1.5a1.959,1.959,0,0,1-1.565-1.36A31.438,31.438,0,0,0,1.386,162.335a1.43,1.43,0,0,1-1.374-1.563,1.5,1.5,0,0,1,1.4-1.381" transform="translate(-0.007 -98.96)" fill="#050603"/>
        <path id="Trazado_1259440" data-name="Trazado 1259440" d="M19.344,199.877,3.7,199.93l-.041-10.24c6.518.018,13.28,3.792,15.686,10.187" transform="translate(-2.271 -117.772)" fill="#8cc437"/>
        <path id="Trazado_1259441" data-name="Trazado 1259441" d="M1.388,181.9c8.373.016,16.4,5.334,19.023,13.308.24.728-.91,1.344-1.358,1.336-1.358-.022-1.219-.989-1.981-1.5-2.406-6.395-9.167-10.169-15.686-10.187A1.542,1.542,0,0,1,0,183.264,1.431,1.431,0,0,1,1.388,181.9" transform="translate(0 -112.935)" fill="#050603"/>
        <path id="Trazado_1259442" data-name="Trazado 1259442" d="M1.43,114.536a61.992,61.992,0,0,1,22.132,4.346c.732.3.571,1.377.591,1.9a1.881,1.881,0,0,1-2.053.615,57.873,57.873,0,0,0-20.694-3.85,1.508,1.508,0,0,1,.023-3.009" transform="translate(-0.012 -71.111)" fill="#050603"/>
        <path id="Trazado_1259443" data-name="Trazado 1259443" d="M162.493,8.345c-.373,1.4-1.2,3.781-2.756,3.3a1.425,1.425,0,0,1-.965-1.8c.461-1.621,1.206-3.784,2.8-3.311a1.415,1.415,0,0,1,.919,1.805" transform="translate(-98.538 -4.019)" fill="#090909"/>
        <path id="Trazado_1259444" data-name="Trazado 1259444" d="M98.9,7.436c.6,1.415,1.842,3.415.18,4.149A1.426,1.426,0,0,1,97.2,10.9c-.673-1.413-1.87-3.571-.347-4.272a1.476,1.476,0,0,1,2.048.809" transform="translate(-59.672 -4.019)" fill="#090909"/>
        <path id="Trazado_1259445" data-name="Trazado 1259445" d="M186.736,29.171a1.5,1.5,0,0,1-2.169.046,1.477,1.477,0,0,1,.168-2.18,20.4,20.4,0,0,1,1.865-1.783,1.445,1.445,0,0,1,1.768,2.284Z" transform="translate(-114.34 -15.528)" fill="#090909"/>
        <path id="Trazado_1259446" data-name="Trazado 1259446" d="M205.561,55.412c-1.057.409-3.67,1.977-4.164.128-.434-1.622,1.009-2.158,3.073-2.821a1.448,1.448,0,0,1,1.958.833,1.47,1.47,0,0,1-.867,1.86" transform="translate(-124.993 -32.667)" fill="#090909"/>
        <path id="Trazado_1259447" data-name="Trazado 1259447" d="M53.623,56.445a12.344,12.344,0,0,1-2.929-1.119,1.464,1.464,0,0,1-.6-1.9c.6-1.62,2.95-.236,4.084.216a1.429,1.429,0,0,1,.939,1.686,1.327,1.327,0,0,1-1.5,1.119" transform="translate(-31.029 -32.694)" fill="#090909"/>
        <path id="Trazado_1259448" data-name="Trazado 1259448" d="M72.709,27.3a1.437,1.437,0,0,1-.2,2.035,1.481,1.481,0,0,1-1.959-.122l-1.72-1.708a1.512,1.512,0,0,1-.288-1.838,1.473,1.473,0,0,1,2.044-.432A13.817,13.817,0,0,1,72.709,27.3" transform="translate(-42.435 -15.518)" fill="#050504"/>
        <path id="Trazado_1259449" data-name="Trazado 1259449" d="M131.308,1c.246,1.476.512,4.3-1.225,4.4a1.283,1.283,0,0,1-1.456-1.05c-.226-1.717-.463-4.181,1.234-4.338A1.322,1.322,0,0,1,131.308,1" transform="translate(-79.762 0)" fill="#050504"/>
      </g>
    </g>
  </g>
</svg>
