<svg xmlns="http://www.w3.org/2000/svg" xmlns:xlink="http://www.w3.org/1999/xlink" width="129.063" height="80.07" viewBox="0 0 129.063 80.07">
  <defs>
    <clipPath id="clip-path">
      <rect id="Rect치ngulo_411662" data-name="Rect치ngulo 411662" width="60" height="80.07" transform="translate(0 0)" fill="none"/>
    </clipPath>
  </defs>
  <g id="_34" data-name="34" transform="translate(0 -13.287)">
    <g id="Rect치ngulo_410589" data-name="Rect치ngulo 410589" transform="translate(0 35.344)" fill="#5a8441" stroke="#3e5b2c" stroke-width="1">
      <rect width="129.063" height="43.021" rx="8" stroke="none"/>
      <rect x="0.5" y="0.5" width="128.063" height="42.021" rx="7.5" fill="none"/>
    </g>
    <g id="Grupo_1213262" data-name="Grupo 1213262" transform="translate(31.884 13.287)">
      <g id="Grupo_1213261" data-name="Grupo 1213261" transform="translate(0 -0.001)" clip-path="url(#clip-path)">
        <path id="Trazado_1259450" data-name="Trazado 1259450" d="M1.135,37.336a1.255,1.255,0,0,1,1.2,1.365l.006,25.148,8.749.011.005-35.5-8.74.013-.038,3.975a1.124,1.124,0,0,1-1.181,1.1A1.153,1.153,0,0,1,.02,32.313L0,19.577a6.141,6.141,0,0,1,4.425-6.049,9.462,9.462,0,0,1-.05-2.45A3.964,3.964,0,0,1,1.226,7.067l0-3.174A3.865,3.865,0,0,1,5.208,0L19.545.023a3.709,3.709,0,0,1,3.738,3.658L23.3,7.068a4.007,4.007,0,0,1-2.851,3.966,7.345,7.345,0,0,1,.17,2.2,3.8,3.8,0,0,0,4.132-2.146l2.016-4.12a5.969,5.969,0,0,1,5.319-3.433l19.463.006a5.852,5.852,0,0,1,5.311,3.537L58.8,11.491a13.032,13.032,0,0,1,1.193,5.391L60,73.933a5.992,5.992,0,0,1-5.908,6.136H5.919A5.992,5.992,0,0,1,.013,73.949L0,38.706a1.3,1.3,0,0,1,1.131-1.37M15.612,8.749c1.655-.2,5.3.878,5.3-1.442l0-3.446c0-2.3-3.36-1.343-5.3-1.482L5.208,2.336A1.49,1.49,0,0,0,3.62,3.862l0,3.448A1.389,1.389,0,0,0,4.975,8.759Zm36.94,17.143,5.117.016.005-8.389a12.515,12.515,0,0,0-1.014-5.068L54.8,8.183C53.52,5.255,50.671,5.908,48.463,5.9L32.284,5.854A3.767,3.767,0,0,0,28.9,7.961l-1.979,4.055a6.065,6.065,0,0,1-5.341,3.613l-15.924.09a3.5,3.5,0,0,0-3.282,3.434l-.023,6.793ZM17.048,13.3a1.06,1.06,0,0,0,1.18-.907c.056-.382-.1-1.192-.756-1.195l-9.76-.042A1.06,1.06,0,0,0,7.7,13.275ZM47.757,53.4a1.2,1.2,0,0,1,1.146,1.21l.041,9.226c1.289.126,2.45-.009,3.6,0,1.663.019,3.337.1,5.126-.01l0-35.464c-1.807-.1-3.472-.029-5.127-.016-1.153.009-2.3-.078-3.612.011l-.019,19.879a1.324,1.324,0,0,1-1.156,1.352,1.294,1.294,0,0,1-1.131-1.348l-.019-19.924-33.211,0,0,35.554h33.2l.047-9.457a1.259,1.259,0,0,1,1.121-1.02m3.358,24.332a20.607,20.607,0,0,0,3.191,0A3.745,3.745,0,0,0,57.67,73.96l-.006-7.652a50.277,50.277,0,0,0-5.1-.006L2.352,66.248l.011,7.883a3.723,3.723,0,0,0,3.61,3.644Z" transform="translate(0 0)" fill="#090908"/>
        <path id="Trazado_1259451" data-name="Trazado 1259451" d="M3.734,102.221V98.332a1.124,1.124,0,0,0,1.181-1.1l.038-3.975,8.74-.013-.005,35.5-8.749-.011-.006-25.148a1.255,1.255,0,0,0-1.2-1.365" transform="translate(-2.598 -64.885)" fill="#fadaad"/>
        <path id="Trazado_1259452" data-name="Trazado 1259452" d="M53.837,19.3A9.4,9.4,0,0,1,55.6,22.709a6.791,6.791,0,0,0-2.734-.553h-11.7a4.734,4.734,0,0,0-4.813,4.911,4.731,4.731,0,0,0,4.711,5.025l12.3-.014A4.614,4.614,0,0,0,57.659,29.1a1.271,1.271,0,0,1,.283.9l-.015,9.285-50.2.054.023-6.793a3.5,3.5,0,0,1,3.282-3.434l15.924-.089a6.065,6.065,0,0,0,5.341-3.613l1.979-4.054a3.766,3.766,0,0,1,3.385-2.107Z" transform="translate(-5.374 -13.395)" fill="#a8d466"/>
        <path id="Trazado_1259453" data-name="Trazado 1259453" d="M172.783,128.619l0-35.49c1.656-.013,3.321-.081,5.128.016l0,35.464c-1.789.111-3.463.029-5.126.01" transform="translate(-120.236 -64.783)" fill="#f5cf9b"/>
        <path id="Trazado_1259454" data-name="Trazado 1259454" d="M161.825,93.142l0,35.49c-1.154-.013-2.315.122-3.6,0l-.041-9.226a1.2,1.2,0,0,0-1.146-1.21v-3.807a1.324,1.324,0,0,0,1.156-1.352l.019-19.879c1.312-.09,2.46,0,3.612-.011" transform="translate(-109.28 -64.795)" fill="#feddaf"/>
        <path id="Trazado_1259455" data-name="Trazado 1259455" d="M163.45,39.263l.015-9.285a1.271,1.271,0,0,0-.283-.9,5.429,5.429,0,0,0-2.056-6.388,9.411,9.411,0,0,0-1.766-3.412c2.208.006,5.057-.646,6.335,2.281l1.863,4.269a12.515,12.515,0,0,1,1.014,5.068l-.005,8.389Z" transform="translate(-110.897 -13.371)" fill="#96c54e"/>
        <path id="Trazado_1259456" data-name="Trazado 1259456" d="M23.906,7.725a19.082,19.082,0,0,1-.011,6.37l-10.638.01a1.389,1.389,0,0,1-1.351-1.449l0-3.448a1.49,1.49,0,0,1,1.589-1.526Z" transform="translate(-8.282 -5.345)" fill="#fa435e"/>
        <path id="Trazado_1259457" data-name="Trazado 1259457" d="M51.338,14.006a19.082,19.082,0,0,0,.011-6.37c1.936.139,5.3-.815,5.3,1.482l0,3.445c0,2.32-3.647,1.244-5.3,1.442" transform="translate(-35.726 -5.257)" fill="#dd2e48"/>
        <path id="Trazado_1259458" data-name="Trazado 1259458" d="M32.286,38.828,22.937,38.8a1.06,1.06,0,0,1,.013-2.119l9.76.042c.653,0,.812.813.756,1.195a1.06,1.06,0,0,1-1.18.907" transform="translate(-15.238 -25.528)" fill="#80b038"/>
        <path id="Trazado_1259459" data-name="Trazado 1259459" d="M121.119,29.362a5.428,5.428,0,0,1,2.056,6.388,4.614,4.614,0,0,1-4.291,2.982l-12.3.014a4.731,4.731,0,0,1-4.71-5.025,4.734,4.734,0,0,1,4.813-4.911h11.7a6.786,6.786,0,0,1,2.734.552m-1.637,6.881c1.313-.083,1.75-1.758,1.687-2.637s-.673-2.305-1.884-2.332c-4.478-.1-8.875-.159-13.352.028-1.288.054-1.87,1.693-1.766,2.7.095.925.771,2.311,1.993,2.317,4.445.024,8.819.2,13.323-.081" transform="translate(-70.89 -20.048)" fill="#090908"/>
        <path id="Trazado_1259460" data-name="Trazado 1259460" d="M78.405,114.384v3.807a1.259,1.259,0,0,0-1.121,1.02l-.047,9.457h-33.2l0-35.554,33.211,0,.019,19.924a1.293,1.293,0,0,0,1.131,1.348m-7.876,3.984c.455-1.161,1.809-6.039-.1-6.232a10.743,10.743,0,0,0-8.473,2.7c-.066-.573-.37-1.521.082-2.038,4.221-4.827,4.423-9.214-.055-14.048a1.814,1.814,0,0,0-1.227-.743,1.7,1.7,0,0,0-1.277.689c-1.848,1.929-3.386,4.276-3.433,7.059s1.441,5.091,3.193,7.1c.46.527.209,1.392.11,1.987a10.794,10.794,0,0,0-8.257-2.742,1.175,1.175,0,0,0-1.166,1.165c-.172,3.955,1.4,8.125,5.358,9.688,5.067,2,12.909,1.373,15.246-4.585" transform="translate(-30.648 -64.795)" fill="#fbeee9"/>
        <path id="Trazado_1259461" data-name="Trazado 1259461" d="M83.963,129.573c-2.337,5.958-10.179,6.588-15.246,4.585-3.954-1.563-5.529-5.732-5.358-9.687a1.175,1.175,0,0,1,1.166-1.165,10.8,10.8,0,0,1,8.257,2.742c.1-.6.35-1.46-.11-1.987-1.753-2.007-3.24-4.32-3.193-7.1s1.585-5.129,3.433-7.059a1.7,1.7,0,0,1,1.278-.689,1.813,1.813,0,0,1,1.227.743c4.479,4.833,4.277,9.221.055,14.048-.452.516-.148,1.465-.082,2.038a10.743,10.743,0,0,1,8.473-2.7c1.909.193.555,5.071.1,6.232m-9.911-7.584a7.864,7.864,0,0,0,2.343-5.029,7.8,7.8,0,0,0-2.291-4.852c-3.035,3.368-3.026,6.528-.051,9.881m-1.184,10.622c-.345-4.576-2.755-6.771-7.082-6.887.189,4.561,2.845,6.8,7.082,6.887m9.519-6.894c-4.383.079-6.927,2.581-7.007,6.955,4.468-.331,6.773-2.467,7.007-6.955" transform="translate(-44.082 -76)" fill="#0b0b0a"/>
        <path id="Trazado_1259462" data-name="Trazado 1259462" d="M93.451,128.612c-2.975-3.353-2.984-6.514.051-9.881a7.8,7.8,0,0,1,2.291,4.852,7.865,7.865,0,0,1-2.343,5.029" transform="translate(-63.481 -82.623)" fill="#a8d466"/>
        <path id="Trazado_1259463" data-name="Trazado 1259463" d="M78.448,170.393c-4.238-.085-6.893-2.325-7.082-6.886,4.327.116,6.738,2.31,7.082,6.886" transform="translate(-49.663 -113.782)" fill="#a8d466"/>
        <path id="Trazado_1259464" data-name="Trazado 1259464" d="M109.921,163.482c-.234,4.488-2.539,6.624-7.007,6.955.08-4.373,2.625-6.876,7.007-6.955" transform="translate(-71.617 -113.765)" fill="#a8d466"/>
        <path id="Trazado_1259465" data-name="Trazado 1259465" d="M57.941,217.9l0,5.079L13.356,223c-.9,0-1.382.352-1.424,1.075-.05.862.429,1.3,1.424,1.3l44.584.022c.159,1.49-.661,2.7-1.442,3.922l-45.142.049a3.723,3.723,0,0,1-3.61-3.644l-.011-7.883Z" transform="translate(-5.381 -151.593)" fill="#a9d567"/>
        <path id="Trazado_1259466" data-name="Trazado 1259466" d="M168.08,229.278c.781-1.224,1.6-2.432,1.442-3.922.532,0,.869-.71.9-1.1a1.218,1.218,0,0,0-.9-1.327l0-5.079a50.268,50.268,0,0,1,5.1.006l.006,7.652a3.745,3.745,0,0,1-3.364,3.768,20.606,20.606,0,0,1-3.191,0" transform="translate(-116.965 -151.55)" fill="#8eb74f"/>
        <path id="Trazado_1259467" data-name="Trazado 1259467" d="M67.538,234.721a1.217,1.217,0,0,1,.9,1.327c-.028.387-.365,1.1-.9,1.1l-44.584-.022c-.995,0-1.474-.443-1.424-1.3.042-.723.521-1.075,1.424-1.076Z" transform="translate(-14.981 -163.339)" fill="#070706"/>
      </g>
    </g>
  </g>
</svg>
