<svg xmlns="http://www.w3.org/2000/svg" xmlns:xlink="http://www.w3.org/1999/xlink" width="129.063" height="81.49" viewBox="0 0 129.063 81.49">
  <defs>
    <clipPath id="clip-path">
      <rect id="Rectángulo_411665" data-name="Rectángulo 411665" width="90.881" height="81.49" fill="none"/>
    </clipPath>
  </defs>
  <g id="_36" data-name="36" transform="translate(0 -16.109)">
    <g id="Rectángulo_410589" data-name="Rectángulo 410589" transform="translate(0 35.344)" fill="#5a8441" stroke="#3e5b2c" stroke-width="1">
      <rect width="129.063" height="43.021" rx="8" stroke="none"/>
      <rect x="0.5" y="0.5" width="128.063" height="42.021" rx="7.5" fill="none"/>
    </g>
    <g id="Grupo_1213266" data-name="Grupo 1213266" transform="translate(19.09 16.109)">
      <g id="Grupo_1213265" data-name="Grupo 1213265" clip-path="url(#clip-path)">
        <path id="Trazado_1259487" data-name="Trazado 1259487" d="M162.076,43.318l-32.058.008A1.247,1.247,0,0,1,128.647,42a1.284,1.284,0,0,1,1.41-1.293l32.084,0c.78.173,1.281.619,1.267,1.3a1.282,1.282,0,0,1-1.332,1.315" transform="translate(-84.279 -26.664)" fill="#9dc55f"/>
        <path id="Trazado_1259488" data-name="Trazado 1259488" d="M113.339,82.813l-.079-16.3-5.087-5.151a4.743,4.743,0,0,1,1.521-1.6l6.279,6.255L115.954,82.8a10.02,10.02,0,0,1-2.614.01" transform="translate(-70.867 -39.155)" fill="#677182"/>
        <path id="Trazado_1259489" data-name="Trazado 1259489" d="M141.416,10.981a13.062,13.062,0,0,1-2.984.04c.284-1.128.135-2.267.625-3.339.217-.475,1.341-.188,1.794-.108Z" transform="translate(-90.69 -4.858)" fill="#f8cd39"/>
        <path id="Trazado_1259490" data-name="Trazado 1259490" d="M160.718,56.2l.013,23.148a22.541,22.541,0,0,0-12.359,7.134l-8.535-.02c-.416-1.769.844-5.708-1.3-5.993l-.015-24.089a1.679,1.679,0,0,0,.258-.223Zm-17.429,7.354,3.093-3.162a1.215,1.215,0,0,0-.391-1.819,1.3,1.3,0,0,0-1.709.219c-1.447,1.58-4.758,3.818-2.836,5.1a1.413,1.413,0,0,0,1.843-.338m-.084,6.623L152.8,60.6a1.333,1.333,0,0,0-.019-1.866,1.376,1.376,0,0,0-1.861-.018l-9.784,9.769a1.331,1.331,0,0,0,.2,1.92,1.364,1.364,0,0,0,1.876-.227" transform="translate(-90.751 -36.79)" fill="#72e1ee"/>
        <path id="Trazado_1259491" data-name="Trazado 1259491" d="M202.89,79.274l-.013-23.148a56.717,56.717,0,0,1,5.741,0l0,22.81a29.1,29.1,0,0,0-5.726.333" transform="translate(-132.91 -36.715)" fill="#57d5e3"/>
        <path id="Trazado_1259492" data-name="Trazado 1259492" d="M138.525,56.378c.068-.254.163-.223.258-.223a1.679,1.679,0,0,1-.258.223" transform="translate(-90.751 -36.788)" fill="#57d5e3"/>
        <path id="Trazado_1259493" data-name="Trazado 1259493" d="M147.542,74.367a1.364,1.364,0,0,1-1.876.227,1.331,1.331,0,0,1-.2-1.92l9.784-9.769a1.376,1.376,0,0,1,1.861.018,1.333,1.333,0,0,1,.019,1.866Z" transform="translate(-95.087 -40.979)" fill="#09090a"/>
        <path id="Trazado_1259494" data-name="Trazado 1259494" d="M147.73,67.72a1.414,1.414,0,0,1-1.843.338c-1.922-1.282,1.389-3.52,2.836-5.1a1.305,1.305,0,0,1,1.709-.219,1.215,1.215,0,0,1,.391,1.819Z" transform="translate(-95.191 -40.955)" fill="#0a0a0a"/>
        <path id="Trazado_1259495" data-name="Trazado 1259495" d="M19.113,42.024A1.717,1.717,0,0,1,17.68,43.68l-10.787,2.1a3.274,3.274,0,0,0-2.472,2.51c2.056.27,3.857-.313,5.418,1.894,1.977,2.794-.007,4.748-1.265,7.1l4.6.062a13.066,13.066,0,0,1,19.3,5.967l9.642.009a32.766,32.766,0,0,0,4.177-.049V58.994c-1.413.419-2.737.83-4.156.3a5.384,5.384,0,0,1-3.5-5.123l-.014-9.035c0-.785.657-1.053,1-1.474.453-1.276.1-2.719.143-4.279l-13.919,2.7a1.423,1.423,0,0,1-1.626-1.037c0-.414.057-1.324.715-1.454L39.778,36.66l-.008-8.19-5.338-5.336a1.334,1.334,0,0,1-.029-1.948l3.486-3.477a1.24,1.24,0,0,1,1.633-.123l5.452,5.3a13.441,13.441,0,0,0,.081-3.561,4.042,4.042,0,0,1-3.383-4.244A3.949,3.949,0,0,1,45.694,11.4a14.4,14.4,0,0,0,2.1-.055,4.925,4.925,0,0,0-.016-2.489c-.585-.033-1.028-.046-1.566-.043A1.286,1.286,0,0,1,44.882,7.2l.978-6.106A1.32,1.32,0,0,1,47.24,0l4.146.018a1.188,1.188,0,0,1,1.2,1.038l1.037,6.171a1.265,1.265,0,0,1-1.181,1.558l-1.787.073a7.108,7.108,0,0,0,.024,2.54l26.775-.022a4.006,4.006,0,0,1,.932,7.953l-.019,23.3A22.08,22.08,0,0,1,89.3,48.517a1.382,1.382,0,0,1,.147,1.932L86.9,53.1a16.953,16.953,0,0,1-4.6,25.66c2.383.272,4.665.044,7.047.129.9.032,1.447.394,1.464,1.206.019.885-.413,1.391-1.527,1.391H1.621c-1.024,0-1.458-.4-1.527-1.163-.083-.915.472-1.432,1.458-1.437l10.983-.061A13.394,13.394,0,0,1,7.469,66.044L3.1,66.031A2.916,2.916,0,0,1,.049,63.436c-.129-1.2.047-2.4-.021-3.586-.063-1.1,1.2-1.609,1.455-2.347.389-2.935-.01-5.824.177-8.73a6.106,6.106,0,0,1,5.065-5.7L17.07,41.04a1.784,1.784,0,0,1,2.043.984m31.613-35.9-.564-3.408c-.454-.079-1.577-.366-1.794.108-.49,1.073-.341,2.212-.625,3.339a13.042,13.042,0,0,0,2.984-.04M77.8,16.654a1.282,1.282,0,0,0,1.332-1.315c.014-.684-.486-1.13-1.267-1.3l-32.084,0a1.284,1.284,0,0,0-1.41,1.293,1.246,1.246,0,0,0,1.371,1.327ZM47.774,19.591l.015,24.089c2.142.285.882,4.224,1.3,5.993l8.535.02a22.539,22.539,0,0,1,12.359-7.134,29.1,29.1,0,0,1,5.725-.333l0-22.81a56.72,56.72,0,0,0-5.741,0l-21.935-.044c-.095,0-.191-.031-.258.223m-5.3,24.068a10,10,0,0,0,2.614-.01l.019-16.781-6.278-6.255a4.747,4.747,0,0,0-1.521,1.6l5.087,5.151Zm42.476,7.488,1.564-1.553a18.98,18.98,0,0,0-26.661,1.658,9.849,9.849,0,0,0,.046,3.529,16.884,16.884,0,0,1,25.051-3.634M46.285,54.588l.032-8.191-5.026.006-.03,7.771a2.631,2.631,0,0,0,2.274,2.639,2.371,2.371,0,0,0,2.749-2.225M74.317,78.228a14.2,14.2,0,1,0-12.5-6.938,14.207,14.207,0,0,0,12.5,6.938M7.743,53.478a1.5,1.5,0,0,0-.833-2.32,8.192,8.192,0,0,0-2.566-.032,55.692,55.692,0,0,0,.052,5.9c.038.392.994.187,1.182-.111Zm41.312-.865-.018,7.5a23.241,23.241,0,0,0,3.94.016c1.233,0,2.463.158,4.041.023l.059-7.746a40.249,40.249,0,0,0-4.108-.016l-3.624-.033c-.1,0-.192.033-.29.253m-29.7,5.3a10.413,10.413,0,1,0,9.825,4.808,10.415,10.415,0,0,0-9.825-4.808M8.284,63.308A19.591,19.591,0,0,1,10.1,60.077L2.722,60.05a13.129,13.129,0,0,0,.024,3.261Zm48.794-.465H49.024v7.825h8.054ZM58.22,73.335H47.769c-2.58,0-.944-4.978-1.52-7.329l-13.014.086a13.151,13.151,0,0,1-5.1,12.767l37.749.02a18.433,18.433,0,0,1-6.174-5.946c-.535.062-.892.4-1.49.4" transform="translate(0 0)" fill="#0a0a0a"/>
        <path id="Trazado_1259496" data-name="Trazado 1259496" d="M50.533,134.1l-.021,4.028-9.642-.009a13.065,13.065,0,0,0-19.3-5.967l-4.6-.063c1.258-2.353,3.242-4.307,1.265-7.1-1.562-2.207-3.362-1.623-5.418-1.894a3.274,3.274,0,0,1,2.472-2.51l10.787-2.1a1.717,1.717,0,0,0,1.433-1.656l5.1-.977a1.422,1.422,0,0,0,1.626,1.037l13.918-2.7c-.043,1.559.31,3-.143,4.279-.342.421-1,.689-1,1.474l.014,9.035a5.384,5.384,0,0,0,3.5,5.123" transform="translate(-8.397 -74.809)" fill="#a8d466"/>
        <path id="Trazado_1259497" data-name="Trazado 1259497" d="M198.368,136.44a16.884,16.884,0,0,0-25.051,3.634,9.85,9.85,0,0,1-.046-3.529,18.979,18.979,0,0,1,26.661-1.658Z" transform="translate(-113.42 -85.293)" fill="#7dac37"/>
        <rect id="Rectángulo_411664" data-name="Rectángulo 411664" width="8.054" height="7.825" transform="translate(49.024 62.843)" fill="#7dac37"/>
        <path id="Trazado_1259498" data-name="Trazado 1259498" d="M124.662,142.721a2.371,2.371,0,0,1-2.749,2.226,2.631,2.631,0,0,1-2.274-2.64l.03-7.771,5.026-.006Z" transform="translate(-78.378 -88.134)" fill="#96a4bd"/>
        <path id="Trazado_1259499" data-name="Trazado 1259499" d="M153.593,159.555a76.094,76.094,0,0,0-.008-7.738,40.259,40.259,0,0,1,4.108.016l-.059,7.746c-1.578.134-2.808-.026-4.041-.024" transform="translate(-100.617 -99.424)" fill="#97c64f"/>
        <path id="Trazado_1259500" data-name="Trazado 1259500" d="M146.116,151.856a76.2,76.2,0,0,1,.008,7.738,23.17,23.17,0,0,1-3.94-.016l.019-7.5a.457.457,0,0,0,.29-.253Z" transform="translate(-93.148 -99.463)" fill="#a8d466"/>
        <path id="Trazado_1259501" data-name="Trazado 1259501" d="M13.284,177.379l-5.537,0a13.129,13.129,0,0,1-.024-3.262l7.383.026a19.591,19.591,0,0,0-1.821,3.231" transform="translate(-5.001 -114.071)" fill="#7dac37"/>
        <path id="Trazado_1259502" data-name="Trazado 1259502" d="M122.114,175.383l.021-4.028c1.418.532,2.743.121,4.156-.3v4.278a32.767,32.767,0,0,1-4.177.049" transform="translate(-80 -112.064)" fill="#97c64f"/>
        <path id="Trazado_1259503" data-name="Trazado 1259503" d="M15.89,150.437l-2.165,3.437c-.188.3-1.144.5-1.182.112a55.693,55.693,0,0,1-.052-5.9,8.18,8.18,0,0,1,2.565.032,1.5,1.5,0,0,1,.834,2.319" transform="translate(-8.147 -96.959)" fill="#f8cd39"/>
        <path id="Trazado_1259504" data-name="Trazado 1259504" d="M142.238,152.076c.1-.22.19-.254.29-.253a.457.457,0,0,1-.29.253" transform="translate(-93.184 -99.463)" fill="#97c64f"/>
        <path id="Trazado_1259505" data-name="Trazado 1259505" d="M38.264,167.939c.775,1.062,2.541,1.849,3.067,3.332a7.327,7.327,0,1,0,.013,14.063c-.158,1.247-3.045,2.692-2.873,3.348a10.411,10.411,0,0,1-.207-20.743" transform="translate(-18.906 -110.021)" fill="#355d9b"/>
        <path id="Trazado_1259506" data-name="Trazado 1259506" d="M56.339,188.588c-.172-.656,2.715-2.1,2.872-3.348a7.325,7.325,0,0,0-.012-14.063c-.526-1.484-2.292-2.271-3.067-3.332a10.412,10.412,0,1,1,.207,20.743" transform="translate(-36.773 -109.927)" fill="#244d8c"/>
        <path id="Trazado_1259507" data-name="Trazado 1259507" d="M52.482,184.079a7.331,7.331,0,1,0-7.331,7.326,7.329,7.329,0,0,0,7.331-7.326m-2.669-.006a4.668,4.668,0,1,0-4.668,4.665,4.667,4.667,0,0,0,4.668-4.665" transform="translate(-24.777 -115.795)" fill="#09090a"/>
        <path id="Trazado_1259508" data-name="Trazado 1259508" d="M54.86,189.116a4.668,4.668,0,1,1-4.668-4.665,4.667,4.667,0,0,1,4.668,4.665" transform="translate(-29.824 -120.838)" fill="#c7d1e3"/>
        <path id="Trazado_1259509" data-name="Trazado 1259509" d="M187.672,144.475a.709.709,0,0,0,.412.588,14.408,14.408,0,0,1,6.566,7.381,9.484,9.484,0,0,0-12.167-1.449,9.262,9.262,0,0,0,8.485,16.33,2.025,2.025,0,0,0,1.075-.7,2.315,2.315,0,0,0,.078-1.527,5.327,5.327,0,0,0,2.664-3.3,1.251,1.251,0,0,0,.91.134,15.27,15.27,0,0,1-7.194,10.1c-.367.221-.641.375-.559.841a14.2,14.2,0,1,1-.268-28.4" transform="translate(-113.624 -94.649)" fill="#355d9b"/>
        <path id="Trazado_1259510" data-name="Trazado 1259510" d="M214.976,172.878c-.082-.467.192-.62.559-.841a15.271,15.271,0,0,0,7.194-10.1c2.326-1,1.025-7.3-1.044-9.493a14.408,14.408,0,0,0-6.566-7.381.71.71,0,0,1-.412-.588,14.2,14.2,0,0,1,.268,28.4" transform="translate(-140.66 -94.65)" fill="#244d8c"/>
        <path id="Trazado_1259511" data-name="Trazado 1259511" d="M209.24,176.222a5.327,5.327,0,0,1-2.664,3.3,2.138,2.138,0,0,0-2.088-.3,6.591,6.591,0,1,1,4.007-4.54,1.311,1.311,0,0,0,.745,1.54" transform="translate(-128.081 -109.069)" fill="#c7d1e3"/>
        <path id="Trazado_1259512" data-name="Trazado 1259512" d="M204.075,161.834c2.069,2.191,3.37,8.489,1.044,9.493a1.252,1.252,0,0,1-.91-.135,1.31,1.31,0,0,1-.745-1.54,6.595,6.595,0,1,0-4.007,4.54,2.138,2.138,0,0,1,2.088.3,2.313,2.313,0,0,1-.078,1.527,2.024,2.024,0,0,1-1.074.7,9.262,9.262,0,0,1-8.485-16.33,9.484,9.484,0,0,1,12.167,1.45" transform="translate(-123.05 -104.039)" fill="#09090a"/>
      </g>
    </g>
  </g>
</svg>
