<svg xmlns="http://www.w3.org/2000/svg" xmlns:xlink="http://www.w3.org/1999/xlink" width="129.063" height="79.756" viewBox="0 0 129.063 79.756">
  <defs>
    <clipPath id="clip-path">
      <rect id="Rect치ngulo_411666" data-name="Rect치ngulo 411666" width="69.334" height="79.756" fill="none"/>
    </clipPath>
  </defs>
  <g id="_37" data-name="37" transform="translate(0 -16.976)">
    <g id="Rect치ngulo_410589" data-name="Rect치ngulo 410589" transform="translate(0 35.344)" fill="#5a8441" stroke="#3e5b2c" stroke-width="1">
      <rect width="129.063" height="43.021" rx="8" stroke="none"/>
      <rect x="0.5" y="0.5" width="128.063" height="42.021" rx="7.5" fill="none"/>
    </g>
    <g id="Grupo_1213268" data-name="Grupo 1213268" transform="translate(29.864 16.976)">
      <g id="Grupo_1213267" data-name="Grupo 1213267" clip-path="url(#clip-path)">
        <path id="Trazado_1259513" data-name="Trazado 1259513" d="M182.711,129.157a5.966,5.966,0,0,0,4.264-6.3,3.838,3.838,0,0,0,5.012-.666c.866-1.073,1.23-5.08-.5-4.9a37.448,37.448,0,0,1,.014-3.954,1.236,1.236,0,0,0,1.142-1.2l.043-9.945c0-.386.509-1.1.823-1.115a1.541,1.541,0,0,1,.84,1.16l.011,21.446a4.447,4.447,0,0,1-4.431,4.486,3.913,3.913,0,0,0-4,3.753l-.063,5.335a5.419,5.419,0,0,1-1.984-.029l-.025-5.377a5.085,5.085,0,0,0-1.146-2.7" transform="translate(-127.373 -70.466)" fill="#b3bdd0"/>
        <path id="Trazado_1259514" data-name="Trazado 1259514" d="M188.529,237.7h-1.976l-.038-9.308a3.76,3.76,0,0,1,2.014-.061Z" transform="translate(-130.025 -159.105)" fill="#dfac63"/>
        <path id="Trazado_1259515" data-name="Trazado 1259515" d="M170.259,122.924a5.965,5.965,0,0,1-4.264,6.3,5.815,5.815,0,0,0-2.963-1.012,4.377,4.377,0,0,1-4.253-4.238l-.047-21.477c0-.49.474-1.265.894-1.311.325-.036.837.734.84,1.113L160.607,121c.013,1.7,2.03,2.583,3.409,2.539,1.462-.047,3.225-1.023,3.236-2.759l.119-18.494c0-.391.489-1.139.817-1.115.37.027.834.733.836,1.121l.056,18.322a3.3,3.3,0,0,0,1.18,2.307" transform="translate(-110.657 -70.531)" fill="#c3cdde"/>
        <path id="Trazado_1259516" data-name="Trazado 1259516" d="M64.111,46.828c1.734-.181,1.369,3.826.5,4.9a3.838,3.838,0,0,1-5.012.666,3.3,3.3,0,0,1-1.18-2.307l-.056-18.322c0-.388-.465-1.094-.836-1.121-.328-.024-.814.724-.817,1.115L56.6,50.252c-.011,1.736-1.774,2.711-3.236,2.758-1.379.044-3.4-.834-3.409-2.539l-.139-18.707c0-.379-.515-1.149-.84-1.113-.42.047-.9.822-.894,1.311l.047,21.477a4.377,4.377,0,0,0,4.253,4.238,5.815,5.815,0,0,1,2.963,1.012,5.083,5.083,0,0,1,1.146,2.7l.025,5.377a5.427,5.427,0,0,0,1.984.029l.063-5.335a3.914,3.914,0,0,1,4-3.753,4.446,4.446,0,0,0,4.431-4.486l-.011-21.446a1.542,1.542,0,0,0-.84-1.16c-.314.018-.822.728-.824,1.115l-.042,9.945a1.237,1.237,0,0,1-1.142,1.2,1.209,1.209,0,0,1-1.217-1.211l.01-10.716c.8-1.066,2.114-3.7,3.165-3.752a1.271,1.271,0,0,1,1.088.6l2.163,3.086,0,22.364a6.82,6.82,0,0,1-6.763,6.816,1.686,1.686,0,0,0-1.691,1.811l-.021,16.957c0,.713-.815.961-1.338.9A1.224,1.224,0,0,1,58.5,78.6V69.229a3.76,3.76,0,0,0-2.014.061l.038,9.308a1.16,1.16,0,0,1-1.315,1.141c-.678-.067-1.024-.543-1.024-1.34l-.011-16.743a1.622,1.622,0,0,0-1.592-1.595,8.655,8.655,0,0,1-3.939-1.144c-.517-.181-1.352.548-1.821.952L46.78,78.76a1.108,1.108,0,0,1-1.309.982,1.2,1.2,0,0,1-1.052-1.121l-.03-20.158A8.017,8.017,0,0,0,38.493,51a11.6,11.6,0,0,0-.817,2.716c-.392,1.628-1.356,3.417-1.41,5.242.534,2.245,2.049,4.247,2.969,6.3a8.975,8.975,0,0,1,.788,1.859L40.1,78.6a1.128,1.128,0,0,1-1.238,1.147,1.115,1.115,0,0,1-1.089-1.115L37.8,67.755l-4.28-8.608-13.05.015-4.23,8.556L16.3,78.623a1.307,1.307,0,0,1-1.231,1.132,1.2,1.2,0,0,1-1.205-1.144l.055-11.481,4-8.136-2.345-8.022a8.3,8.3,0,0,0-6.016,7.947l0,19.693a1.14,1.14,0,0,1-1.278,1.128C7.593,79.674,7.21,79.2,7.21,78.4L7.2,59.845A9.722,9.722,0,0,1,.327,52.428,12.482,12.482,0,0,1,1.733,43.2l1.924-3.3c2.031-3.489-1.228-5-2.607-9.376a8.056,8.056,0,0,1,1.891-8.091c2.209-2.4,7.185-4.206,7.541-7.811.267-2.7.314-5.292,1.653-7.709a1.41,1.41,0,0,1,1.912-.786c.274.394.644.933.352,1.5a10.681,10.681,0,0,0-1.414,5.616l22.828-.077a37.631,37.631,0,0,0,5.073.017C40.833,7.1,35.809,2.518,29.644,2.385L24.7,2.278c-5.744-.124-6.29,2.565-8.1,1.284C15.49,1.134,21.533.041,23.1.033L29.913,0A13.091,13.091,0,0,1,43.192,13.364c-.073,3.435,2.657,5.36,5.156,6.992,4.268,2.788,6.033,6.79,3.839,11.675l-.016,17.545a1.04,1.04,0,0,0,.985,1.143,1.051,1.051,0,0,0,1.177-1.144l.012-18.732,2.183-3.113a1.232,1.232,0,0,1,.913-.53,1.26,1.26,0,0,1,1.127.577l2.171,3.109L60.795,50c0,.523.666.72.969.727a.994.994,0,0,0,1.056-.653,6.159,6.159,0,0,0,.069-1.8,1.254,1.254,0,0,1,1.221-1.447M33,19.722a7.821,7.821,0,0,0,6.538-4.091l-25.394-.007a7.764,7.764,0,0,0,6.69,4.118ZM7.3,57.362a10.911,10.911,0,0,1,7.951-8.769c.522-1.517,1.866-1.857,3.322-1.831,1.306.024,2.461-.02,3.584.988a14.785,14.785,0,0,0,.164-4.224,14.915,14.915,0,0,1-9.878-11.719,4.227,4.227,0,0,1-3.664-1.062c-1.617-1.568-1.573-5.61-.041-7.127a4.294,4.294,0,0,1,3.582-1.13,36.788,36.788,0,0,0-.1-5.421C9.8,21.182,6.757,21.684,4.49,24.229c-2.882,3.236-1.045,6.723.944,9.714,2.533,3.81.555,6.767-1.431,9.964C1.192,48.429,1.83,55.444,7.3,57.362M44.643,31.281a7.537,7.537,0,0,1-3.158.644,14.744,14.744,0,0,1-9.746,11.585,11.058,11.058,0,0,0,.175,4.262c1.062-1.1,2.211-.953,3.441-1,1.508-.062,2.875.322,3.42,1.862a11.979,11.979,0,0,1,5.684,3.488c.5.553.658,1.5,1.33,2.06l.016-23.33c.8-1.058,2.083-3.574,3.059-3.654,1.151-.094,1.216,1.171,1.9,1.4.374-3.219-2.028-5.281-4.407-6.748A14.21,14.21,0,0,1,41.783,17.4a41.279,41.279,0,0,0-.114,5.07A4.444,4.444,0,0,1,45.2,23.561c1.731,1.681,1.689,6.359-.558,7.72m-10.41-9.259a22.11,22.11,0,0,1-2.516.131l-10.652-.015a11,11,0,0,1-6.357-2.228l-.018,9.778a12.312,12.312,0,0,0,24.622.164l-.007-10.236a12.834,12.834,0,0,1-5.072,2.406M12.225,29.353a24.135,24.135,0,0,0,.117-4.463,1.926,1.926,0,0,0-1.937.391c-.6.594-.671,3.108.045,3.828.338.34,1.59.7,1.775.243m31.624-.713a5.876,5.876,0,0,0-.016-2.948,1.682,1.682,0,0,0-2.167-.793c.113,1.507-.228,3.1.144,4.473.383.467,1.885.028,2.038-.732M30.591,51.31c.562-.124.632-1.245.314-1.482-2.216-1.649-1.357-3.322-1.65-5.694a22.528,22.528,0,0,1-4.536.008c-.152,2.727.509,3.981-1.718,5.843-.283.237-.013,1.272.4,1.344a18.3,18.3,0,0,0,7.2-.019m-8.344,5.338L20.1,49.209a5.409,5.409,0,0,0-2.557.077L19.7,56.763a5.25,5.25,0,0,0,2.543-.114m12.086.063,2.127-7.486a5.976,5.976,0,0,0-2.581.035L31.75,56.72a5.973,5.973,0,0,0,2.584-.008m-5.067.1.8-2.981a27.805,27.805,0,0,1-6.146-.023,25.45,25.45,0,0,0,.832,3Z" transform="translate(0 0)" fill="#0b0a0a"/>
        <path id="Trazado_1259517" data-name="Trazado 1259517" d="M59.5,7.621c.033.076.051.278.212.371a11.967,11.967,0,0,1,5.957,10.4l-22.827.077a10.679,10.679,0,0,1,1.414-5.616c.292-.565-.078-1.1-.352-1.5A8.565,8.565,0,0,1,46.454,8.8c1.812,1.282,2.359-1.407,8.1-1.283Z" transform="translate(-29.86 -5.236)" fill="#6c7789"/>
        <path id="Trazado_1259518" data-name="Trazado 1259518" d="M12.756,96.647c-5.475-1.917-6.112-8.933-3.3-13.455,1.987-3.2,3.964-6.153,1.431-9.963C8.9,70.237,7.06,66.75,9.942,63.514c2.266-2.545,5.308-3.048,7.734-7.162a36.788,36.788,0,0,1,.1,5.421,4.294,4.294,0,0,0-3.582,1.13c-1.532,1.517-1.576,5.558.041,7.127A4.227,4.227,0,0,0,17.9,71.092a14.915,14.915,0,0,0,9.878,11.719,14.786,14.786,0,0,1-.164,4.224c-1.124-1.008-2.278-.964-3.584-.988-1.456-.026-2.8.313-3.322,1.831a10.911,10.911,0,0,0-7.951,8.769" transform="translate(-5.452 -39.285)" fill="#8d5945"/>
        <path id="Trazado_1259519" data-name="Trazado 1259519" d="M117.233,124.084a11.983,11.983,0,0,0-5.684-3.488c-.545-1.54-1.912-1.924-3.42-1.862-1.23.051-2.379-.1-3.441,1a11.055,11.055,0,0,1-.175-4.262,14.744,14.744,0,0,0,9.746-11.585,7.532,7.532,0,0,0,3.158-.645c.171-.08.329.172.233.334a9.239,9.239,0,0,0-1.137,5.8l1.128,12.426a3.652,3.652,0,0,1-.409,2.28" transform="translate(-72.774 -71.965)" fill="#8d5945"/>
        <path id="Trazado_1259520" data-name="Trazado 1259520" d="M65.554,55.685l-12.166.02a7.764,7.764,0,0,1-6.69-4.118l25.393.007a7.82,7.82,0,0,1-6.538,4.091" transform="translate(-32.555 -35.963)" fill="#95a4bd"/>
        <path id="Trazado_1259521" data-name="Trazado 1259521" d="M140.318,92.166a3.652,3.652,0,0,0,.409-2.28L139.6,77.46a9.239,9.239,0,0,1,1.137-5.8c.1-.162-.062-.414-.233-.334,2.247-1.361,2.289-6.038.558-7.719a4.443,4.443,0,0,0-3.532-1.092,41.283,41.283,0,0,1,.114-5.07,14.206,14.206,0,0,0,4.574,4.443c2.379,1.467,4.781,3.528,4.407,6.748-.684-.225-.75-1.49-1.9-1.4-.977.08-2.257,2.6-3.059,3.654l-.016,23.329c-.672-.557-.826-1.506-1.33-2.06" transform="translate(-95.859 -40.048)" fill="#7b4e3c"/>
        <path id="Trazado_1259522" data-name="Trazado 1259522" d="M104.045,18.65a11.966,11.966,0,0,0-5.958-10.4c-.161-.093-.178-.295-.212-.371,6.165.133,11.189,4.715,11.242,10.791a37.631,37.631,0,0,1-5.073-.017" transform="translate(-68.232 -5.491)" fill="#616b7b"/>
        <path id="Trazado_1259523" data-name="Trazado 1259523" d="M83.261,152.9a18.286,18.286,0,0,1-7.2.019c-.408-.071-.679-1.107-.4-1.344,2.227-1.862,1.566-3.116,1.718-5.843a22.507,22.507,0,0,0,4.536-.008c.294,2.372-.566,4.045,1.65,5.694.318.236.248,1.358-.314,1.482" transform="translate(-52.671 -101.587)" fill="#f8d0b3"/>
        <path id="Trazado_1259524" data-name="Trazado 1259524" d="M35.091,86.411c-.185.458-1.437.1-1.775-.243-.717-.72-.643-3.234-.045-3.828a1.926,1.926,0,0,1,1.937-.391,24.135,24.135,0,0,1-.117,4.463" transform="translate(-22.866 -57.058)" fill="#dfac63"/>
        <path id="Trazado_1259525" data-name="Trazado 1259525" d="M139.672,85.7c-.153.76-1.655,1.2-2.038.732-.373-1.376-.031-2.966-.144-4.473a1.681,1.681,0,0,1,2.166.793,5.872,5.872,0,0,1,.016,2.948" transform="translate(-95.823 -57.059)" fill="#f7c49f"/>
        <path id="Trazado_1259526" data-name="Trazado 1259526" d="M68.046,67.853l.027,7.438a13.892,13.892,0,0,1-7.767,12.471A12.254,12.254,0,0,1,48.5,75.519l.018-9.777a11,11,0,0,0,6.357,2.227l10.652.015a22.034,22.034,0,0,0,2.516-.131M63.152,79.167a3.487,3.487,0,0,1-4.791-.088,1.161,1.161,0,0,0-1.489-.054,1.12,1.12,0,0,0-.263,1.557,5.71,5.71,0,0,0,8.35.079,1.1,1.1,0,0,0-.132-1.573,1.2,1.2,0,0,0-1.675.079" transform="translate(-33.813 -45.831)" fill="#fcd3b5"/>
        <path id="Trazado_1259527" data-name="Trazado 1259527" d="M87.472,87.082a13.892,13.892,0,0,0,7.766-12.471l-.026-7.437a12.836,12.836,0,0,0,5.072-2.407L100.292,75a12.222,12.222,0,0,1-12.82,12.079" transform="translate(-60.979 -45.151)" fill="#f7c49f"/>
        <path id="Trazado_1259528" data-name="Trazado 1259528" d="M81.3,109.176a1.2,1.2,0,0,1,1.675-.079,1.1,1.1,0,0,1,.132,1.573,5.71,5.71,0,0,1-8.35-.079,1.12,1.12,0,0,1,.263-1.557,1.161,1.161,0,0,1,1.489.054,3.487,3.487,0,0,0,4.791.088" transform="translate(-51.963 -75.841)" fill="#0b0a0a"/>
        <path id="Trazado_1259529" data-name="Trazado 1259529" d="M75.145,214.767l-21.474,0-.061-10.906,4.23-8.556,13.05-.015,4.28,8.608Zm-3.68-1.284a1.145,1.145,0,0,0,1.037-1.2l.006-7.72a1.3,1.3,0,0,0-.79-1.24l-7.358-3.169-7.338,3.184a1.261,1.261,0,0,0-.786,1.239l.006,7.7a1.212,1.212,0,0,0,1.3,1.232Z" transform="translate(-37.373 -136.139)" fill="#f6d09b"/>
        <path id="Trazado_1259530" data-name="Trazado 1259530" d="M35.846,195.935H31.538l0-19.693a8.3,8.3,0,0,1,6.016-7.947l2.345,8.022-4,8.136Z" transform="translate(-21.985 -117.323)" fill="#a7d366"/>
        <path id="Trazado_1259531" data-name="Trazado 1259531" d="M131.138,196l-4.321-.026-.075-11.487a8.959,8.959,0,0,0-.788-1.859.989.989,0,0,0,.184-.649l-.04-5.92a7.5,7.5,0,0,0-1.7-4.968,11.605,11.605,0,0,1,.817-2.716,8.017,8.017,0,0,1,5.9,7.467Z" transform="translate(-86.719 -117.381)" fill="#97c74e"/>
        <path id="Trazado_1259532" data-name="Trazado 1259532" d="M122.71,188.883c-.92-2.049-2.435-4.051-2.969-6.295.054-1.825,1.018-3.614,1.41-5.242a7.5,7.5,0,0,1,1.7,4.968l.04,5.92a.991.991,0,0,1-.184.649" transform="translate(-83.475 -123.633)" fill="#a7d366"/>
        <path id="Trazado_1259533" data-name="Trazado 1259533" d="M107.413,169.734a5.967,5.967,0,0,1-2.583.008l2.129-7.459a5.971,5.971,0,0,1,2.581-.035Z" transform="translate(-73.079 -113.022)" fill="#8d5945"/>
        <path id="Trazado_1259534" data-name="Trazado 1259534" d="M62.631,169.653a5.25,5.25,0,0,1-2.543.114L57.93,162.29a5.417,5.417,0,0,1,2.557-.077Z" transform="translate(-40.385 -113.004)" fill="#8d5945"/>
        <path id="Trazado_1259535" data-name="Trazado 1259535" d="M84.33,180.659l-4.511-.009a25.448,25.448,0,0,1-.832-3,27.8,27.8,0,0,0,6.146.023Z" transform="translate(-55.063 -123.848)" fill="#a7d366"/>
        <path id="Trazado_1259536" data-name="Trazado 1259536" d="M77.509,224.684l-13.922.027a1.212,1.212,0,0,1-1.3-1.232l-.006-7.7a1.262,1.262,0,0,1,.786-1.239l7.338-3.184,7.359,3.169a1.3,1.3,0,0,1,.791,1.24l-.006,7.72a1.145,1.145,0,0,1-1.038,1.2m-1.282-2.344.01-5.9L70.4,213.874l-5.749,2.559.024,5.924Z" transform="translate(-43.417 -147.341)" fill="#0b0a0a"/>
        <path id="Trazado_1259537" data-name="Trazado 1259537" d="M81.676,228.14l-11.556.017-.024-5.924,5.749-2.559,5.841,2.567Z" transform="translate(-48.865 -153.141)" fill="#8d5945"/>
      </g>
    </g>
  </g>
</svg>
