<svg xmlns="http://www.w3.org/2000/svg" xmlns:xlink="http://www.w3.org/1999/xlink" width="129.063" height="89.529" viewBox="0 0 129.063 89.529">
  <defs>
    <clipPath id="clip-path">
      <rect id="Rectángulo_411703" data-name="Rectángulo 411703" width="89.414" height="89.529" fill="none"/>
    </clipPath>
  </defs>
  <g id="Grupo_1212628" data-name="Grupo 1212628" transform="translate(0 -2.457)">
    <g id="Rectángulo_410589" data-name="Rectángulo 410589" transform="translate(0 35.344)" fill="#5a8441" stroke="#3e5b2c" stroke-width="1">
      <rect width="129.063" height="43.021" rx="8" stroke="none"/>
      <rect x="0.5" y="0.5" width="128.063" height="42.021" rx="7.5" fill="none"/>
    </g>
    <g id="Grupo_1213331" data-name="Grupo 1213331" transform="translate(19.824 2.457)">
      <g id="Grupo_1213330" data-name="Grupo 1213330" clip-path="url(#clip-path)">
        <path id="Trazado_1260241" data-name="Trazado 1260241" d="M59.781,247.051a1.335,1.335,0,0,0,1.328,1.359l19.631.041.041,12.51a1.285,1.285,0,0,0,1.312,1.433,1.22,1.22,0,0,0,1.266-1.166l.1-12.807c3.077.037,5.712-.1,8.365.126l.018,25.187H5.047l.029-25.183c2.744-.24,5.51-.122,8.435-.094L13.539,261a1.339,1.339,0,0,0,1.317,1.393A1.309,1.309,0,0,0,16.18,261l.03-12.56,38.821-.046c.737,0,1.031-.9,1.042-1.332a22.428,22.428,0,0,0,3.709-.011m-33.915,4.356a1.282,1.282,0,1,0-1.282,1.282,1.282,1.282,0,0,0,1.282-1.282m45,0a1.291,1.291,0,1,0-1.291,1.291,1.29,1.29,0,0,0,1.291-1.291m-19.786,2.622a1.284,1.284,0,1,0-1.284,1.284,1.284,1.284,0,0,0,1.284-1.284m-40.432,1.4a1.282,1.282,0,1,0-1.282,1.282,1.282,1.282,0,0,0,1.282-1.282m78.412.174a1.279,1.279,0,1,0-1.279,1.278,1.279,1.279,0,0,0,1.279-1.278m-50.408,2.627a1.28,1.28,0,1,0-1.28,1.28,1.28,1.28,0,0,0,1.28-1.28m27.836,2.8a1.286,1.286,0,1,0-1.286,1.286,1.287,1.287,0,0,0,1.286-1.286m-36.236.17a1.282,1.282,0,1,0-1.282,1.282,1.282,1.282,0,0,0,1.282-1.282m13.827,2.8a1.286,1.286,0,1,0-1.286,1.286,1.286,1.286,0,0,0,1.286-1.286m35.008,2.629a1.284,1.284,0,1,0-1.284,1.284,1.284,1.284,0,0,0,1.284-1.284m-22.228.171a1.287,1.287,0,1,0-1.287,1.287,1.287,1.287,0,0,0,1.287-1.287m-39.212,1.4a1.289,1.289,0,1,0-1.289,1.289,1.289,1.289,0,0,0,1.289-1.289" transform="translate(-3.763 -184.207)" fill="#8b7c84"/>
        <path id="Trazado_1260242" data-name="Trazado 1260242" d="M256.209,260.406a1.291,1.291,0,1,1-1.291-1.291,1.291,1.291,0,0,1,1.291,1.291" transform="translate(-189.111 -193.202)" fill="#060605"/>
        <path id="Trazado_1260243" data-name="Trazado 1260243" d="M178.467,270.733a1.284,1.284,0,1,1-1.284-1.284,1.284,1.284,0,0,1,1.284,1.284" transform="translate(-131.155 -200.907)" fill="#080708"/>
        <path id="Trazado_1260244" data-name="Trazado 1260244" d="M201.163,320.966a1.287,1.287,0,1,1-1.287-1.287,1.287,1.287,0,0,1,1.287,1.287" transform="translate(-148.073 -238.36)" fill="#080708"/>
        <path id="Trazado_1260245" data-name="Trazado 1260245" d="M47,326.48a1.289,1.289,0,1,1-1.289-1.289A1.289,1.289,0,0,1,47,326.48" transform="translate(-33.123 -242.47)" fill="#080708"/>
        <path id="Trazado_1260246" data-name="Trazado 1260246" d="M19.53,276.258a1.282,1.282,0,1,1-1.282-1.282,1.282,1.282,0,0,1,1.282,1.282" transform="translate(-12.65 -205.028)" fill="#080708"/>
        <path id="Trazado_1260247" data-name="Trazado 1260247" d="M129.63,287.276a1.28,1.28,0,1,1-1.28-1.28,1.28,1.28,0,0,1,1.28,1.28" transform="translate(-94.746 -213.245)" fill="#080708"/>
        <path id="Trazado_1260248" data-name="Trazado 1260248" d="M239.021,298.271a1.286,1.286,0,1,1-1.286-1.286,1.286,1.286,0,0,1,1.286,1.286" transform="translate(-176.301 -221.439)" fill="#080708"/>
        <path id="Trazado_1260249" data-name="Trazado 1260249" d="M96.6,298.955a1.282,1.282,0,1,1-1.282-1.282,1.282,1.282,0,0,1,1.282,1.282" transform="translate(-70.113 -221.952)" fill="#080708"/>
        <path id="Trazado_1260250" data-name="Trazado 1260250" d="M288.56,320.3a1.284,1.284,0,1,1-1.284-1.284,1.284,1.284,0,0,1,1.284,1.284" transform="translate(-213.242 -237.866)" fill="#080708"/>
        <path id="Trazado_1260251" data-name="Trazado 1260251" d="M327.8,276.953a1.279,1.279,0,1,1-1.279-1.279,1.278,1.278,0,0,1,1.279,1.279" transform="translate(-242.509 -205.549)" fill="#080708"/>
        <path id="Trazado_1260252" data-name="Trazado 1260252" d="M150.927,309.962a1.286,1.286,0,1,1-1.286-1.286,1.286,1.286,0,0,1,1.286,1.286" transform="translate(-110.617 -230.156)" fill="#060605"/>
        <path id="Trazado_1260253" data-name="Trazado 1260253" d="M79.372,260.417a1.282,1.282,0,1,1-1.282-1.282,1.282,1.282,0,0,1,1.282,1.282" transform="translate(-57.27 -193.217)" fill="#060605"/>
        <path id="Trazado_1260254" data-name="Trazado 1260254" d="M32.16,168.939c-2.767.326-5.31-.982-7.453-2.652.09-.365.135-1.4.649-1.518a24.93,24.93,0,0,1,4.093-.109c.814,1.28.725,3.093,2.525,2.694a1.245,1.245,0,0,0,.777-1.7l-4.162-9.757a1.331,1.331,0,0,0-1.191-.819,1.257,1.257,0,0,0-1.21.757l-3.438,7.7a11.813,11.813,0,0,1-.328-8.434,8.463,8.463,0,1,1,9.738,13.843" transform="translate(-16.26 -114.452)" fill="#f38683"/>
        <path id="Trazado_1260255" data-name="Trazado 1260255" d="M14.243,168.21l-.668,1.865c-.306.854-.126,1.782.73,1.989.746.18,1.4-.275,1.9-1.1,2.143,1.67,4.687,2.978,7.453,2.652a8.463,8.463,0,0,1-9.738-13.843,11.813,11.813,0,0,0,.327,8.434" transform="translate(-7.754 -119.133)" fill="#f16c66"/>
        <path id="Trazado_1260256" data-name="Trazado 1260256" d="M25.1,170.906c-.5.821-1.151,1.276-1.9,1.1-.856-.206-1.036-1.134-.73-1.989l.668-1.865,3.439-7.7a1.257,1.257,0,0,1,1.21-.757,1.331,1.331,0,0,1,1.191.819l4.162,9.757a1.245,1.245,0,0,1-.777,1.7c-1.8.4-1.711-1.415-2.525-2.694a24.931,24.931,0,0,0-4.093.109c-.513.118-.559,1.153-.648,1.518m3.576-4.474-.885-2.119a18.92,18.92,0,0,0-.957,2.249,2.167,2.167,0,0,0,1.842-.13" transform="translate(-16.654 -119.071)" fill="#050303"/>
        <path id="Trazado_1260257" data-name="Trazado 1260257" d="M41.864,179.971a2.167,2.167,0,0,1-1.842.13,18.92,18.92,0,0,1,.957-2.249Z" transform="translate(-29.841 -132.61)" fill="#dc7a77"/>
        <path id="Trazado_1260258" data-name="Trazado 1260258" d="M208.924,64.341c-2.653-.23-5.288-.089-8.365-.126l-.1,12.807a1.219,1.219,0,0,1-1.265,1.166,1.285,1.285,0,0,1-1.313-1.433l-.041-12.51L178.2,64.2a1.334,1.334,0,0,1-1.328-1.359c.136-2.062,3.745-.887,5.6-1.306l0-38.884a10.991,10.991,0,0,0-1.747-6.245,9.578,9.578,0,0,1-12.726.585c-3.048-2.522-5.164-10.268-5.893-14.2a1.251,1.251,0,0,1,.87-1.427C167,.389,175.361-1,178.909,1.081a9.793,9.793,0,0,1,3.573,13.1,14.842,14.842,0,0,1,2.635,8.073c.506-.294,1.419-.882,1.267-1.664a9.606,9.606,0,0,1,4.833-10.538c3.358-1.745,11.487-.811,15.325-.008a1.293,1.293,0,0,1,.925,1.391c-.607,3.955-2.4,11.894-5.4,14.474a9.668,9.668,0,0,1-14.457-2.218,7.828,7.828,0,0,0-2.488,5.416L185.1,61.588l12.64.007a6.824,6.824,0,0,0-.03-3.061,11.086,11.086,0,1,1,2.852.015,10.483,10.483,0,0,0,0,3.044l8.124.009a1.393,1.393,0,0,1,1.538,1.1c.1.534-.428,1.713-1.3,1.637m-42.9-60.813a2.061,2.061,0,0,0-1.036.122c.518,2.8,2.526,9.418,4.639,11.252a6.849,6.849,0,0,0,9.28-.453c.49-.5-.554-.766-.773-1.022-2.178-2.544-5.459-3.968-8.663-5.261a1.3,1.3,0,1,1,.733-2.488,26.965,26.965,0,0,1,10.361,6.175A6.864,6.864,0,0,0,177.414,3.3c-2.549-1.3-8.659-.457-11.393.225m24.87,17.566c-.358.133-1.008.34-1.195.829a6.981,6.981,0,0,0,10.629,2c2.193-1.9,3.748-8.514,4.293-11.468.031-.166-.349-.139-.544-.171-2.919-.48-8.205-1.068-11.133-.062a6.593,6.593,0,0,0-4.109,6.874,38.682,38.682,0,0,1,11.491-5.051,1.276,1.276,0,0,1,1.528,1.082,1.4,1.4,0,0,1-1.192,1.525,32.487,32.487,0,0,0-9.768,4.438m3.483,19.457a8.463,8.463,0,1,0,8.46-.679,8.463,8.463,0,0,0-8.46.679" transform="translate(-120.859 0)" fill="#060605"/>
        <path id="Trazado_1260259" data-name="Trazado 1260259" d="M189.649,21.108a8.186,8.186,0,0,1-7.92-1.414c-2.1-1.884-3.434-5.951-4.19-8.485,2.735-.682,8.843-1.529,11.393-.226a6.864,6.864,0,0,1,3.148,8.551,26.964,26.964,0,0,0-10.361-6.175,1.3,1.3,0,1,0-.733,2.488c3.2,1.293,6.484,2.717,8.663,5.261" transform="translate(-132.377 -7.681)" fill="#a2d955"/>
        <path id="Trazado_1260260" data-name="Trazado 1260260" d="M282.382,46.507c-.572,2.21-2,6.623-3.9,8.165a8.013,8.013,0,0,1-9.284.641,32.48,32.48,0,0,1,9.768-4.438,1.4,1.4,0,0,0,1.192-1.525,1.276,1.276,0,0,0-1.528-1.082,38.677,38.677,0,0,0-11.491,5.051,6.593,6.593,0,0,1,4.109-6.874c2.928-1.005,8.214-.418,11.133.062" transform="translate(-199.166 -34.22)" fill="#a2d955"/>
        <path id="Trazado_1260261" data-name="Trazado 1260261" d="M271.8,57.11a8.012,8.012,0,0,0,9.284-.641c1.9-1.542,3.328-5.955,3.9-8.165.2.032.575,0,.544.17-.545,2.954-2.1,9.565-4.293,11.468a6.981,6.981,0,0,1-10.629-2c.187-.489.837-.7,1.195-.829" transform="translate(-201.772 -36.017)" fill="#8dd32d"/>
        <path id="Trazado_1260262" data-name="Trazado 1260262" d="M174.5,13.832c.756,2.534,2.093,6.6,4.19,8.485a8.184,8.184,0,0,0,7.92,1.414c.219.256,1.262.524.773,1.023a6.849,6.849,0,0,1-9.28.453c-2.113-1.834-4.121-8.457-4.639-11.252a2.062,2.062,0,0,1,1.036-.122" transform="translate(-129.34 -10.304)" fill="#8dd32d"/>
        <path id="Trazado_1260263" data-name="Trazado 1260263" d="M296.278,168.967a8.032,8.032,0,0,1-5.42-1.472l4.836-.054c1.843-.021,1.417-3.062,1.33-5.444-.059-1.609-1.628-.824-1.418-2.278a2.735,2.735,0,0,0-2.706-3.26h-4.083a1.319,1.319,0,0,0-1.385,1.306l-.075,6.277c-1.843-2.543-1.708-6.031-.642-9.042a8.463,8.463,0,1,1,9.562,13.965" transform="translate(-213.202 -114.451)" fill="#f38683"/>
        <path id="Trazado_1260264" data-name="Trazado 1260264" d="M278.947,168.451c-.018,1.523-.185,3.362,1.451,3.4l2.049.052a8.033,8.033,0,0,0,5.42,1.471,8.463,8.463,0,0,1-9.562-13.965c-1.065,3.011-1.2,6.5.642,9.042" transform="translate(-204.79 -118.859)" fill="#ee6a65"/>
        <path id="Trazado_1260265" data-name="Trazado 1260265" d="M294.982,176.178l-2.049-.052c-1.637-.037-1.47-1.877-1.451-3.4l.075-6.277a1.32,1.32,0,0,1,1.385-1.306h4.083a2.735,2.735,0,0,1,2.706,3.26c-.21,1.455,1.359.669,1.418,2.278.087,2.381.513,5.423-1.33,5.444Zm2.155-8.445H294.15v1.588h2.986Zm-2.986,4.25v1.546l4.393,0v-1.546Z" transform="translate(-217.325 -123.134)" fill="#070404"/>
        <rect id="Rectángulo_411701" data-name="Rectángulo 411701" width="4.393" height="1.546" transform="translate(76.824 48.85)" fill="#f38683"/>
        <rect id="Rectángulo_411702" data-name="Rectángulo 411702" width="2.986" height="1.588" transform="translate(76.824 44.599)" fill="#dc7a77"/>
        <path id="Trazado_1260266" data-name="Trazado 1260266" d="M52.308,120.328c-.011.429-.3,1.331-1.041,1.332l-38.821.046-.03,12.56a1.309,1.309,0,0,1-1.324,1.395,1.339,1.339,0,0,1-1.317-1.393l-.028-12.542c-2.925-.029-5.691-.147-8.435.094-.564.05-1.233-.756-1.273-1.223a1.307,1.307,0,0,1,1.31-1.508l8.356-.03a17.173,17.173,0,0,0,0-3.034,11.132,11.132,0,1,1,2.86-.016,6.707,6.707,0,0,0-.022,3.068l21.081-.005-.014-19.382a11.183,11.183,0,0,0-1.738-6.212,9.589,9.589,0,0,1-12.738.6c-3.048-2.516-5.165-10.292-5.894-14.224a1.25,1.25,0,0,1,.892-1.411c3.886-.939,12.119-2.284,15.579-.454A9.717,9.717,0,0,1,33.6,91.246a14.785,14.785,0,0,1,2.659,8.142c.368-.317,1.37-.869,1.261-1.5a9.77,9.77,0,0,1,4.543-10.6c3.434-1.945,11.694-.992,15.626-.161A1.3,1.3,0,0,1,58.6,88.5c-.6,3.909-2.364,11.728-5.257,14.355a9.638,9.638,0,0,1-14.584-2.072,7.553,7.553,0,0,0-2.492,5.287l-.036,12.993,14.7.034a1.324,1.324,0,0,1,1.379,1.235m-35-39.712a2.258,2.258,0,0,0-1.188.091c.533,2.847,2.55,9.591,4.765,11.389a6.87,6.87,0,0,0,9.17-.592c.464-.48-.544-.749-.765-1-2.158-2.5-5.359-3.938-8.526-5.187-.771-.3-1.2-.719-1.11-1.544a1.288,1.288,0,0,1,1.7-1,27.145,27.145,0,0,1,10.36,6.172,6.925,6.925,0,0,0-3.14-8.55c-2.5-1.3-8.54-.467-11.269.228m23.66,18.576a6.938,6.938,0,0,0,10.524,1.782c2.146-1.881,3.743-8.541,4.232-11.4.035-.206-.529-.207-.74-.236-3.433-.476-6.974-1.007-10.506-.148-3.005.731-4.768,3.9-4.5,6.976a39.916,39.916,0,0,1,11.3-5.017,1.326,1.326,0,0,1,1.653.824,1.352,1.352,0,0,1-1.053,1.731,36.814,36.814,0,0,0-10.243,4.562c-.33.22-.632.391-.667.923m-34.8-1.076a8.463,8.463,0,1,0,8.479-.825,8.463,8.463,0,0,0-8.479.825" transform="translate(0 -57.472)" fill="#060605"/>
        <path id="Trazado_1260267" data-name="Trazado 1260267" d="M172.08,123.508c-.546,2.6-2.12,7.745-4.369,9.484a8.56,8.56,0,0,1-9.646.368c.035-.532.338-.7.667-.923a36.813,36.813,0,0,1,10.243-4.562,1.352,1.352,0,0,0,1.053-1.731,1.326,1.326,0,0,0-1.653-.824,39.919,39.919,0,0,0-11.3,5.017c-.27-3.073,1.493-6.246,4.5-6.976,3.532-.859,7.073-.327,10.506.148" transform="translate(-117.099 -91.64)" fill="#a3da55"/>
        <path id="Trazado_1260268" data-name="Trazado 1260268" d="M80.012,98.2a8.129,8.129,0,0,1-8.2-1.652c-1.668-1.669-3.556-6.116-3.785-8.232,2.729-.695,8.773-1.528,11.269-.228a6.925,6.925,0,0,1,3.14,8.55,27.145,27.145,0,0,0-10.36-6.172,1.288,1.288,0,0,0-1.7,1c-.088.825.339,1.239,1.11,1.544,3.167,1.249,6.368,2.691,8.526,5.187" transform="translate(-50.725 -65.168)" fill="#a2d955"/>
        <path id="Trazado_1260269" data-name="Trazado 1260269" d="M64.546,90.87c.229,2.117,2.117,6.563,3.785,8.233a8.13,8.13,0,0,0,8.2,1.652c.221.255,1.229.524.765,1a6.87,6.87,0,0,1-9.17.592c-2.215-1.8-4.233-8.542-4.765-11.389a2.261,2.261,0,0,1,1.188-.091" transform="translate(-47.241 -67.726)" fill="#8dd32d"/>
        <path id="Trazado_1260270" data-name="Trazado 1260270" d="M161.043,135.131a8.56,8.56,0,0,0,9.646-.368c2.249-1.739,3.823-6.888,4.369-9.484.212.029.776.031.74.236-.489,2.856-2.086,9.517-4.232,11.4a6.938,6.938,0,0,1-10.524-1.782" transform="translate(-120.077 -93.412)" fill="#8dd32d"/>
      </g>
    </g>
  </g>
</svg>
