<svg xmlns="http://www.w3.org/2000/svg" xmlns:xlink="http://www.w3.org/1999/xlink" width="86.109" height="86.109" viewBox="0 0 86.109 86.109">
  <defs>
    <filter id="Trazado_896985" x="0" y="0" width="86.109" height="86.109" filterUnits="userSpaceOnUse">
      <feOffset dy="3" input="SourceAlpha"/>
      <feGaussianBlur stdDeviation="3" result="blur"/>
      <feFlood flood-opacity="0.161"/>
      <feComposite operator="in" in2="blur"/>
      <feComposite in="SourceGraphic"/>
    </filter>
    <clipPath id="clip-path">
      <rect id="Rect치ngulo_411669" data-name="Rect치ngulo 411669" width="39.562" height="45.033" fill="none"/>
    </clipPath>
  </defs>
  <g id="Grupo_1213273" data-name="Grupo 1213273" transform="translate(9 6)">
    <g id="Grupo_1212275" data-name="Grupo 1212275" transform="translate(0)">
      <g id="Grupo_1198723" data-name="Grupo 1198723" transform="translate(0 0)">
        <g id="Grupo_1198139" data-name="Grupo 1198139" transform="translate(0)">
          <g id="Grupo_1111318" data-name="Grupo 1111318" transform="translate(0 0)">
            <g id="Grupo_1109826" data-name="Grupo 1109826" transform="translate(0 0)">
              <g id="Grupo_1098742" data-name="Grupo 1098742" transform="translate(0)">
                <g transform="matrix(1, 0, 0, 1, -9, -6)" filter="url(#Trazado_896985)">
                  <g id="Trazado_896985-2" data-name="Trazado 896985" transform="translate(9 6)" fill="#bccdb2" opacity="0.859">
                    <path d="M 34.05470275878906 67.6094970703125 C 29.52462196350098 67.6094970703125 25.13032341003418 66.72238159179688 20.99385261535645 64.97280120849609 C 16.99824333190918 63.28280639648438 13.40971279144287 60.86331558227539 10.32794284820557 57.78155517578125 C 7.246182918548584 54.69978332519531 4.826692581176758 51.11125564575195 3.136692762374878 47.11564636230469 C 1.387112736701965 42.97917556762695 0.5000027418136597 38.58487319946289 0.5000027418136597 34.05479431152344 C 0.5000027418136597 29.52469444274902 1.387112736701965 25.13037490844727 3.136692762374878 20.9938850402832 C 4.826692581176758 16.99826431274414 7.246182918548584 13.40972518920898 10.32794284820557 10.32795429229736 C 13.40971279144287 7.246184825897217 16.99824333190918 4.826694488525391 20.99385261535645 3.136694669723511 C 25.13032341003418 1.387114763259888 29.52462196350098 0.5000047087669373 34.05470275878906 0.5000047087669373 C 38.58478164672852 0.5000047087669373 42.97908401489258 1.387114763259888 47.11555099487305 3.136694669723511 C 51.11116409301758 4.826694488525391 54.69969177246094 7.246174812316895 57.78146362304688 10.3279447555542 C 60.86322402954102 13.4097146987915 63.28271102905273 16.99823379516602 64.97270965576172 20.99384498596191 C 66.7222900390625 25.13031387329102 67.60940551757812 29.52461433410645 67.60940551757812 34.05469512939453 C 67.60940551757812 38.58479309082031 66.7222900390625 42.9791145324707 64.97270965576172 47.11560440063477 C 63.28271102905273 51.11122512817383 60.86322402954102 54.69976425170898 57.78146362304688 57.78153610229492 C 54.69969177246094 60.86330413818359 51.11116409301758 63.28280639648438 47.11555099487305 64.97280120849609 C 42.97908401489258 66.72238159179688 38.58478164672852 67.6094970703125 34.05470275878906 67.6094970703125 Z" stroke="none"/>
                    <path d="M 34.05470275878906 0.9999923706054688 C 29.59190368652344 0.9999923706054688 25.26313400268555 1.873817443847656 21.18863296508789 3.597183227539062 C 17.25262451171875 5.261985778808594 13.71751403808594 7.645496368408203 10.68150329589844 10.68150329589844 C 7.645492553710938 13.71752548217773 5.261981964111328 17.25263595581055 3.597190856933594 21.18866348266602 C 1.873825073242188 25.26318359375 1 29.59197616577148 1 34.05479431152344 C 1 38.51759338378906 1.873825073242188 42.84636688232422 3.597190856933594 46.92086410522461 C 5.261981964111328 50.85687255859375 7.645492553710938 54.39198303222656 10.68150329589844 57.42799377441406 C 13.71751403808594 60.46399307250977 17.25262451171875 62.84750366210938 21.18863296508789 64.51229858398438 C 25.26313400268555 66.23566436767578 29.59190368652344 67.10948181152344 34.05470275878906 67.10948181152344 C 38.51750183105469 67.10948181152344 42.84627532958984 66.23566436767578 46.92077255249023 64.51229858398438 C 50.85679244995117 62.84749603271484 54.39189147949219 60.46399307250977 57.42790222167969 57.42798614501953 C 60.46391296386719 54.39196395874023 62.8474235534668 50.85684204101562 64.51221466064453 46.92082214355469 C 66.23558044433594 42.84630584716797 67.10940551757812 38.51751708984375 67.10940551757812 34.05469512939453 C 67.10940551757812 29.59189605712891 66.23558044433594 25.26312637329102 64.51221466064453 21.18862533569336 C 62.8474235534668 17.25261306762695 60.46391296386719 13.71750640869141 57.42790222167969 10.68149566650391 C 54.39189147949219 7.645484924316406 50.85678100585938 5.261974334716797 46.92077255249023 3.597183227539062 C 42.84627532958984 1.873817443847656 38.51750183105469 0.9999923706054688 34.05470275878906 0.9999923706054688 M 34.05470275878906 -7.62939453125e-06 C 52.86259460449219 -7.62939453125e-06 68.10940551757812 15.24680328369141 68.10940551757812 34.05469512939453 L 68.10940551757812 34.05479431152344 C 68.10940551757812 52.86268615722656 52.86259460449219 68.10948181152344 34.05470275878906 68.10948181152344 C 15.24681091308594 68.10948181152344 0 52.86268615722656 0 34.05479431152344 L 0 34.05469512939453 C 0 15.24680328369141 15.24681091308594 -7.62939453125e-06 34.05470275878906 -7.62939453125e-06 Z" stroke="none" fill="#fff"/>
                  </g>
                </g>
                <g id="Rect치ngulo_400907" data-name="Rect치ngulo 400907" transform="translate(0 0)" fill="none" stroke="#fff" stroke-width="1">
                  <rect width="68.109" height="68.109" rx="34.055" stroke="none"/>
                  <rect x="0.5" y="0.5" width="67.109" height="67.109" rx="33.555" fill="none"/>
                </g>
              </g>
            </g>
          </g>
        </g>
      </g>
    </g>
    <g id="Grupo_1213272" data-name="Grupo 1213272" transform="translate(14.274 7.461)">
      <g id="Grupo_1213271" data-name="Grupo 1213271" transform="translate(0 4.077)" clip-path="url(#clip-path)">
        <path id="Trazado_1259583" data-name="Trazado 1259583" d="M90.954,274.211a7.485,7.485,0,0,0-1.542,0,.732.732,0,0,0-.749-.7l-14.212-.03c.346-1.217,2.676-2.516,3.873-3.068.169-.078.326-.117.374-.263a7.613,7.613,0,0,1,2.684.213c1.166.229,2.1,1.579,2.562.529.475-1.08-2.274-1.85-2.932-2.015a4.643,4.643,0,0,1,1.834-1.754.361.361,0,0,0,.22-.316c2.844-.524,6.6.212,7.9,3.235,2.031.86,4.416,1.452,5.92,3.448l-5.273.023a.675.675,0,0,0-.664.7" transform="translate(-64.926 -232.53)" fill="#d78e60"/>
        <path id="Trazado_1259584" data-name="Trazado 1259584" d="M49.226,325.477a.691.691,0,0,0,.67.627l9.455,0a1.875,1.875,0,0,1,1.913,1.418L26.6,327.5c.085-.662.506-.865.631-1.357l19.695-.036a.741.741,0,0,0,.757-.629,7.487,7.487,0,0,1,1.542,0" transform="translate(-23.197 -283.797)" fill="#bc6629"/>
        <path id="Trazado_1259585" data-name="Trazado 1259585" d="M65.695,293.989c-.047.146-.2.185-.374.263-1.2.551-3.527,1.85-3.873,3.068a9.527,9.527,0,0,1-1.908-.027c1.221-1.681,4.255-2.974,6.155-3.3" transform="translate(-51.922 -256.373)" fill="#cc7c4e"/>
        <path id="Trazado_1259586" data-name="Trazado 1259586" d="M115.931,267.861a.361.361,0,0,1-.22.316,4.643,4.643,0,0,0-1.834,1.754c-.5-.126-1.113.084-1.738-.12a5.989,5.989,0,0,1,3.793-1.95" transform="translate(-97.79 -233.588)" fill="#c9794d"/>
        <path id="Trazado_1259587" data-name="Trazado 1259587" d="M13.952,330.937c-.126.493-.547.7-.631,1.357-.632,0-1.278.06-1.949.016.414-1.363,1.535-1.371,2.58-1.373" transform="translate(-9.917 -288.594)" fill="#965121"/>
        <path id="Trazado_1259588" data-name="Trazado 1259588" d="M29.674,22.527a.968.968,0,0,1,.127-1.121c1.18-1.5,1.8-3.343,3.354-4.82a11.538,11.538,0,0,0-6.207.05,7.317,7.317,0,0,0-2.692,1,3.61,3.61,0,0,0-1.588,3.545,20.957,20.957,0,0,1,2.106-1.484,12.379,12.379,0,0,1,2.547-.9.634.634,0,0,1,.757.46c.26,1.193-1.388.577-3.438,2.15a5.3,5.3,0,0,0-1.416,1.172,2.765,2.765,0,0,0,2.574,1.1c2.254-.183,1.961-.845,2.8-.133.025.42-.016.811-.5,1a5.218,5.218,0,0,1-5.779-.9c-1.962,2.842-1.994,5.9-1.842,9.171,5.009.42,5.732,2.887,6.639,3.563,1.048.781,4.819,1.523,6.461,4.6L36.41,41a3.31,3.31,0,0,1,3.152,3.373.673.673,0,0,1-.74.665H.741A.674.674,0,0,1,0,44.369a3.348,3.348,0,0,1,3.269-3.384l2.717-.013c1.63-3.074,5.4-3.812,6.456-4.6.99-.743,1.553-3.077,6.683-3.583a10.918,10.918,0,0,0-1.859-5.776c-2.335,2.352-6.156,1.477-8.124-.9-1.366-1.646-1.918-3.192-3.064-4.605-1.119-1.381-2.007-.841-1.969-1.746a.676.676,0,0,1,.445-.6,13.981,13.981,0,0,1,10.889.382,5.01,5.01,0,0,1,2.563,6.22l1.069,1.549.03-5.958A15.155,15.155,0,0,0,17.588,14.4c-2.246,1.951-5.793,1.61-8-.1-.267-.207-.086-.663-.049-.882,1.218-.65.771.609,3.845.942a3.94,3.94,0,0,0,3.467-1.132,8.473,8.473,0,0,0-5.118-3.395.706.706,0,0,1-.625-.686.619.619,0,0,1,.695-.632,10,10,0,0,1,5.74,3.381A4.561,4.561,0,0,0,15.006,6.5,15.476,15.476,0,0,0,5.692,5.411a3.659,3.659,0,0,0-1.144.26c1.705,1.254,2.715,3.757,4.037,5.622a.754.754,0,0,1-.2,1.116A.883.883,0,0,1,7.377,11.9L5.033,8.11C3.677,5.918,2.244,6.471,2.222,5.56A.687.687,0,0,1,2.674,4.9a16.861,16.861,0,0,1,12.7.289,5.9,5.9,0,0,1,3.076,7.974,9.674,9.674,0,0,0,.864,1.643,16.2,16.2,0,0,1,1.8-5.415,5.89,5.89,0,0,1,3.1-8.015,16.833,16.833,0,0,1,12.719-.243.676.676,0,0,1,.4.588c.019.954-1.055.3-2.468,2.129-1.392,1.8-2,3.547-3.67,5.516-2.3,2.705-6.462,3.58-9.216,1.22a14.693,14.693,0,0,0-1.519,6.838l.023,6.581,1.092-1.631a5,5,0,0,1,2.424-6.134,12.972,12.972,0,0,1,4.831-1.3,12.9,12.9,0,0,1,6.117.812.732.732,0,0,1,.517.779c-.1.859-1.09.062-2.587,2.471L30.93,22.151a.872.872,0,0,1-1.256.376M27.331,1.778a.223.223,0,0,0-.13.109.817.817,0,0,0-.119-.015c-3.143.516-5.889,2.566-5.085,6.18.706-.5,1.181-1.343,1.888-1.77.632-.382,4.251-2.4,4.545-1.087.289,1.3-2.3.571-4.453,2.88-.378.4-1.032.711-1.208,1.377a3.5,3.5,0,0,0,2.666,1.127,5.761,5.761,0,0,0,4.9-2.231c1.81-2.164,2.46-4.516,4.616-6.515a15.047,15.047,0,0,0-7.615-.056M7.632,19.73a2.591,2.591,0,0,0-1.18.253C9.022,22.378,9.426,26.7,13.514,27a2.905,2.905,0,0,0,2.874-1.064,8.724,8.724,0,0,0-4.361-2.479.67.67,0,0,1-.54-.747.657.657,0,0,1,.848-.538,10.57,10.57,0,0,1,4.6,2.418,3.73,3.73,0,0,0-2.225-3.935,12.942,12.942,0,0,0-7.081-.926M18.141,34.273a5.989,5.989,0,0,0-3.793,1.95c.625.2,1.237-.006,1.738.12.658.165,3.407.935,2.932,2.015-.462,1.05-1.4-.3-2.562-.529a7.614,7.614,0,0,0-2.684-.213c-1.9.329-4.933,1.622-6.155,3.3a9.539,9.539,0,0,0,1.908.028l14.212.03a.732.732,0,0,1,.749.7.741.741,0,0,1-.757.629l-19.695.036c-1.045,0-2.166.01-2.58,1.373.67.044,1.317-.016,1.949-.016l34.663.028a1.876,1.876,0,0,0-1.913-1.418l-9.455,0a.691.691,0,0,1-.67-.627.675.675,0,0,1,.664-.7l5.273-.023c-1.5-2-3.89-2.588-5.92-3.448-1.308-3.024-5.061-3.759-7.9-3.235" transform="translate(0 0)" fill="#050504"/>
        <path id="Trazado_1259589" data-name="Trazado 1259589" d="M197.611,132.836c-.2.463-.736.664-1.074,1.01-.842-.713-.548-.051-2.8.133-.542-.9-.907-.98-1.158-2.268,2.05-1.573,3.7-.957,3.438-2.15a.634.634,0,0,0-.757-.46,12.379,12.379,0,0,0-2.547.9,4.047,4.047,0,0,1,1.891-2.7c.159-.111.281-.2.283-.361a11.54,11.54,0,0,1,6.207-.05c-1.557,1.478-2.174,3.32-3.354,4.82a.968.968,0,0,0-.127,1.121" transform="translate(-167.937 -110.308)" fill="#83c38f"/>
        <path id="Trazado_1259590" data-name="Trazado 1259590" d="M36.693,42.291c.006.207.219.257.416.353a5.416,5.416,0,0,1,2.2,2.112l2.148,3.487a9.832,9.832,0,0,0,2.928,2.994c-3.074-.333-2.627-1.592-3.845-.942-.368-.176-.864-1.08-1.159-1a.754.754,0,0,0,.2-1.116c-1.321-1.865-2.331-4.369-4.037-5.622a3.66,3.66,0,0,1,1.144-.26" transform="translate(-31.001 -36.88)" fill="#93d3a2"/>
        <path id="Trazado_1259591" data-name="Trazado 1259591" d="M188.229,19.553c.017-.157-.092-.27-.233-.395a3.867,3.867,0,0,1-1.224-2.11c2.156-2.309,4.743-1.585,4.453-2.88-.294-1.315-3.913.705-4.545,1.087a5.282,5.282,0,0,1,2.746-4.053c.194-.117.382-.173.45-.357a.8.8,0,0,1,.119.015c.069,0,.145-.027.13-.109a15.043,15.043,0,0,1,7.615.056c-2.156,2-2.806,4.352-4.616,6.515a5.76,5.76,0,0,1-4.9,2.231" transform="translate(-162.794 -8.972)" fill="#afe29d"/>
        <path id="Trazado_1259592" data-name="Trazado 1259592" d="M52.185,49.341a9.831,9.831,0,0,1-2.928-2.994l-2.148-3.487a5.415,5.415,0,0,0-2.2-2.111c-.2-.1-.41-.146-.416-.353A15.475,15.475,0,0,1,53.8,41.485a4.561,4.561,0,0,1,2.54,5.392A10,10,0,0,0,50.6,43.5a.619.619,0,0,0-.695.632.706.706,0,0,0,.625.687,8.472,8.472,0,0,1,5.118,3.395,3.941,3.941,0,0,1-3.467,1.132" transform="translate(-38.798 -34.985)" fill="#afe19c"/>
        <path id="Trazado_1259593" data-name="Trazado 1259593" d="M65.527,160.574c-.011-.192-.155-.314-.329-.448a7,7,0,0,1-1.68-1.92l-1.8-2.9a4.6,4.6,0,0,0-1.7-1.677c-.174-.094-.367-.141-.377-.321a12.941,12.941,0,0,1,7.081.926,3.73,3.73,0,0,1,2.225,3.935,10.571,10.571,0,0,0-4.6-2.418.657.657,0,0,0-.848.538.67.67,0,0,0,.539.747A8.723,8.723,0,0,1,68.4,159.51a2.905,2.905,0,0,1-2.874,1.064" transform="translate(-52.013 -133.572)" fill="#83c28e"/>
        <path id="Trazado_1259594" data-name="Trazado 1259594" d="M51.6,154.205c.01.181.2.227.377.321a4.6,4.6,0,0,1,1.7,1.677l1.8,2.9a7,7,0,0,0,1.68,1.92c.175.134.318.256.329.448-4.088-.3-4.492-4.624-7.063-7.018a2.592,2.592,0,0,1,1.18-.253" transform="translate(-43.969 -134.475)" fill="#75b37e"/>
        <path id="Trazado_1259595" data-name="Trazado 1259595" d="M176.043,14.638c-.068.185-.256.24-.45.357a5.282,5.282,0,0,0-2.746,4.053c-.707.427-1.182,1.27-1.888,1.77-.8-3.614,1.942-5.663,5.085-6.18" transform="translate(-148.96 -12.765)" fill="#92d1a0"/>
        <path id="Trazado_1259596" data-name="Trazado 1259596" d="M181.031,130.021c0,.159-.124.249-.283.361a4.047,4.047,0,0,0-1.891,2.7,20.935,20.935,0,0,0-2.106,1.484,3.611,3.611,0,0,1,1.588-3.545,7.319,7.319,0,0,1,2.692-.995" transform="translate(-154.083 -113.385)" fill="#74b27c"/>
        <path id="Trazado_1259597" data-name="Trazado 1259597" d="M180.618,65.625a3.5,3.5,0,0,1-2.666-1.127c.176-.666.83-.972,1.208-1.377a3.867,3.867,0,0,0,1.224,2.11c.141.124.25.237.233.395" transform="translate(-155.183 -55.045)" fill="#90ce9d"/>
        <path id="Trazado_1259598" data-name="Trazado 1259598" d="M184.087,169.533a2.765,2.765,0,0,1-2.574-1.1,5.293,5.293,0,0,1,1.416-1.172c.251,1.288.616,1.364,1.158,2.268" transform="translate(-158.288 -145.863)" fill="#74b27c"/>
        <path id="Trazado_1259599" data-name="Trazado 1259599" d="M212.593,14.009a.223.223,0,0,1,.13-.109c.015.082-.061.109-.13.109" transform="translate(-185.392 -12.121)" fill="#92d1a0"/>
      </g>
    </g>
  </g>
</svg>
