<svg xmlns="http://www.w3.org/2000/svg" xmlns:xlink="http://www.w3.org/1999/xlink" width="129.063" height="83.451" viewBox="0 0 129.063 83.451">
  <defs>
    <clipPath id="clip-path">
      <rect id="Rect치ngulo_411705" data-name="Rect치ngulo 411705" width="86.564" height="83.451" fill="none"/>
    </clipPath>
  </defs>
  <g id="Grupo_1213521" data-name="Grupo 1213521" transform="translate(0 -15.129)">
    <g id="Rect치ngulo_410589" data-name="Rect치ngulo 410589" transform="translate(0 35.344)" fill="#5a8441" stroke="#3e5b2c" stroke-width="1">
      <rect width="129.063" height="43.021" rx="8" stroke="none"/>
      <rect x="0.5" y="0.5" width="128.063" height="42.021" rx="7.5" fill="none"/>
    </g>
    <g id="Grupo_1213335" data-name="Grupo 1213335" transform="translate(21.249 15.128)">
      <g id="Grupo_1213334" data-name="Grupo 1213334" clip-path="url(#clip-path)">
        <path id="Trazado_1260294" data-name="Trazado 1260294" d="M23.148,60.788H8.718a1.259,1.259,0,0,1-1.28-1.238c-.008-.855.576-1.291,1.481-1.291l14.021,0c.823,0,1.385.347,1.465,1.057a1.251,1.251,0,0,1-1.257,1.468" transform="translate(-4.993 -39.106)" fill="#101010"/>
        <path id="Trazado_1260295" data-name="Trazado 1260295" d="M23.277,76.845l-14.6.02a1.247,1.247,0,1,1-.011-2.494l14.263-.018c.769,0,1.323.314,1.442.946a1.21,1.21,0,0,1-1.1,1.546" transform="translate(-4.987 -49.909)" fill="#040403"/>
        <path id="Trazado_1260296" data-name="Trazado 1260296" d="M38.589,44.685l-6.863.012a1.27,1.27,0,0,1-1.307-1.123A1.227,1.227,0,0,1,31.7,42.151l6.667-.025a1.291,1.291,0,0,1,1.462,1.2,1.248,1.248,0,0,1-1.242,1.359" transform="translate(-20.413 -28.277)" fill="#040403"/>
        <path id="Trazado_1260297" data-name="Trazado 1260297" d="M11.629,44.569c-1.636.075-4.074.375-4.187-1.1a1.223,1.223,0,0,1,1.219-1.418c1.864-.113,4.122-.372,4.212,1.153a1.234,1.234,0,0,1-1.245,1.368" transform="translate(-4.992 -28.164)" fill="#070606"/>
        <path id="Trazado_1260298" data-name="Trazado 1260298" d="M32.65,18.216a1.348,1.348,0,0,1,.06,1.762,1.28,1.28,0,0,1-1.785.1L17.66,6.84l-6.639-.021a5.692,5.692,0,0,1-5.964,4.286,5.565,5.565,0,1,1,5.917-6.878l7.751.1ZM8.562,5.551A3.01,3.01,0,1,0,5.552,8.56a3.01,3.01,0,0,0,3.01-3.009" transform="translate(0 0)" fill="#070606"/>
        <path id="Trazado_1260299" data-name="Trazado 1260299" d="M13.754,10.74a3.01,3.01,0,1,1-3.01-3.009,3.01,3.01,0,0,1,3.01,3.009" transform="translate(-5.191 -5.189)" fill="#ed7979"/>
        <path id="Trazado_1260300" data-name="Trazado 1260300" d="M216.761,33.828a6.388,6.388,0,0,1-2.254,1.977c-1.395-2.051-2.263.22-6.144.219h-4.838a10.726,10.726,0,0,1,9.253-12.475c2.091-.228,4.019,0,6.076-.06a11.512,11.512,0,0,1-2,8.02,1.809,1.809,0,0,0-.094,2.32" transform="translate(-136.53 -15.737)" fill="#b8e96b"/>
        <path id="Trazado_1260301" data-name="Trazado 1260301" d="M177.5,60.765c-3.52-2.883-3.9-5.119-3.848-9.515a7.1,7.1,0,0,1,7.226,6.564,21.2,21.2,0,0,1,.007,3,18.249,18.249,0,0,1-3.386-.05" transform="translate(-116.56 -34.4)" fill="#b8e96b"/>
        <path id="Trazado_1260302" data-name="Trazado 1260302" d="M207.483,105.575a21.51,21.51,0,0,1-3.9.115,4.154,4.154,0,0,1,3.695-5.32,28.218,28.218,0,0,1,3.177-.016,4.151,4.151,0,0,1-2.974,5.222" transform="translate(-136.554 -67.337)" fill="#b5e468"/>
        <path id="Trazado_1260303" data-name="Trazado 1260303" d="M166.462,51.044c-.055,4.4.327,6.632,3.848,9.515a7.165,7.165,0,0,1-7.347-7,17.614,17.614,0,0,1,.032-2.47,13.745,13.745,0,0,1,3.467-.045" transform="translate(-109.369 -34.194)" fill="#9edf2f"/>
        <path id="Trazado_1260304" data-name="Trazado 1260304" d="M120.4,70.27a5.792,5.792,0,0,1-2.375-.152,2.06,2.06,0,0,1-.9-2.642,4.194,4.194,0,0,1,2.705.358,2.258,2.258,0,0,1,.565,2.435" transform="translate(-78.52 -45.262)" fill="#b5e468"/>
        <path id="Trazado_1260305" data-name="Trazado 1260305" d="M138.573,76.8c-.791,1.049-2.921.643-2.924.641-.179-.111-.587-2.482,1.142-2.731.612-.088,1.66-.257,2.053.1a2.165,2.165,0,0,1-.271,1.994" transform="translate(-90.937 -50.066)" fill="#aedc65"/>
        <path id="Trazado_1260306" data-name="Trazado 1260306" d="M38.665,107.737a6.1,6.1,0,0,1-1.845-3.572l-.1-2.569a4.66,4.66,0,0,1,3.924,1.856,5.814,5.814,0,0,1,.851,4.473,6.9,6.9,0,0,1-2.833-.188" transform="translate(-24.649 -68.193)" fill="#b8e96b"/>
        <path id="Trazado_1260307" data-name="Trazado 1260307" d="M62.244,103.274a5.907,5.907,0,0,1-2.989.321,3.2,3.2,0,0,1,1.677-3.924,6.1,6.1,0,0,1,2.81-.192,3.2,3.2,0,0,1-1.5,3.795" transform="translate(-39.683 -66.728)" fill="#b5e468"/>
        <path id="Trazado_1260308" data-name="Trazado 1260308" d="M33.559,101.513l.1,2.569a6.1,6.1,0,0,0,1.845,3.572c-2.744-.788-3.92-3.444-3.353-6.14a7.109,7.109,0,0,1,1.41,0" transform="translate(-21.486 -68.109)" fill="#9edf2f"/>
        <path id="Trazado_1260309" data-name="Trazado 1260309" d="M80.716,28.507a1.808,1.808,0,0,1,.094-2.32,11.513,11.513,0,0,0,2-8.02c-2.057.063-3.985-.169-6.076.06A10.726,10.726,0,0,0,67.479,30.7l4.838,0c3.882,0,4.75-2.27,6.144-.219.448,2.118-4.69,2.72-6.149,2.729l-4.982.034.129,8.908a7.019,7.019,0,0,1,3.862-1.271l3.169-.008c1.868,0,2.533,1.3,2.632,2.893a6.851,6.851,0,0,1-6.788,7.6c-.964.01-1.921-.049-2.924.046l-.028,4.254L86,66.238A1.9,1.9,0,0,1,87.048,68a1.879,1.879,0,0,1-.98,1.612l-5.54,3.239a1.73,1.73,0,0,1-2.029-.262c.053-.394-.248-1.248.226-1.543l5.045-3.135L67.427,58.669,67.363,66.9a1.24,1.24,0,0,1-2.478-.014l-.045-9.548a3.662,3.662,0,0,0-1.926-1.1L46.451,65.546,67.412,77.459l6.7-3.8c.547-.311,1.131.1,1.649.383a1.655,1.655,0,0,1-.865,2.091L44.939,93.553a1.9,1.9,0,0,1-2.1,0L1.706,69.611a1.863,1.863,0,0,1-.981-1.836,1.883,1.883,0,0,1,1.047-1.533l5.486-3.1a1.674,1.674,0,0,1,1.819.335c.054.568.2,1.394-.423,1.76L4,67.968,20.174,77.39c2.1-.752,3.71-2.171,5.478-3.154l15.557-8.658c-3.834-2.233-7.491-4.359-11.241-6.274-1.713-.875-3.241-2.243-5.236-3.053l-4.748,2.585c-.089,2.271-.084,4.389.03,6.523-.007-.134-.068,4.2-.361,4.208a2.705,2.705,0,0,1-1.289.2,1.027,1.027,0,0,1-.9-.9l-.09-8.451-4.022,2.112c-.58.3-1.04-.326-1.509-.514.008-.462-.2-1.292.348-1.614l5.157-3a41.889,41.889,0,0,0,.027-4.726,8.167,8.167,0,0,1-6.688-1.978c-2.64-2.522-2.734-7.481-1.536-8.723,1.35-1.4,6.886-.914,8.829,1.517a6,6,0,0,1,6.107-2.946c.938.074,1.758-.007,2.418.663a3.3,3.3,0,0,1,.734,2.322A5.67,5.67,0,0,1,22.331,49.8a18.834,18.834,0,0,0-2.389.124l.081,5.956,22.4-12.691c.042-1.753.092-3.314-.019-5.049-.04-.622-2.738.592-4.746-1.411-1.581-1.576-1.718-4.866-.452-6.061,1.055-1,6.383-1.339,7.544,2.12,1.635-.47,4.517-.737,5.611.31a3.189,3.189,0,0,1,.741,2.31,4.421,4.421,0,0,1-4.38,4.929,8.114,8.114,0,0,0-1.63.076,13.586,13.586,0,0,0,0,2.627L64.83,54.21l.01-14.735L61.482,39.4a9.806,9.806,0,0,1-9.951-9.447c-.087-2.35-.5-5.308,2.073-5.286l3.962-.009a10.138,10.138,0,0,1,7.295,3.148,13.156,13.156,0,0,1,11.9-12.179,53.8,53.8,0,0,1,6.819,0c1.517.056,1.753,1.626,1.792,2.792.122,3.646-.555,7.087-2.964,9.87-.4.467-1.206.274-1.693.212M61.426,36.78a18.248,18.248,0,0,0,3.386.051,21.259,21.259,0,0,0-.007-3,7.1,7.1,0,0,0-7.226-6.564,13.745,13.745,0,0,0-3.467.045,17.559,17.559,0,0,0-.032,2.469,7.165,7.165,0,0,0,7.347,7M42.362,35.424a2.258,2.258,0,0,0-.565-2.436,4.194,4.194,0,0,0-2.705-.358,2.06,2.06,0,0,0,.9,2.642,5.79,5.79,0,0,0,2.375.152m5.759,1.722a2.164,2.164,0,0,0,.271-1.994c-.393-.353-1.441-.185-2.053-.1-1.729.249-1.321,2.62-1.142,2.731,0,0,2.132.408,2.924-.641M23.046,46.961a3.2,3.2,0,0,0,1.5-3.795,6.107,6.107,0,0,0-2.81.191,3.2,3.2,0,0,0-1.677,3.924,5.907,5.907,0,0,0,2.989-.321m48.367,1.692a4.151,4.151,0,0,0,2.974-5.222,28.376,28.376,0,0,0-3.177.016,4.154,4.154,0,0,0-3.695,5.32,21.481,21.481,0,0,0,3.9-.115M14.5,49.96a6.894,6.894,0,0,0,2.833.188,5.815,5.815,0,0,0-.851-4.473,4.661,4.661,0,0,0-3.924-1.856,7.112,7.112,0,0,0-1.41,0c-.567,2.7.609,5.352,3.353,6.14m30.593.512-.06,4.13a1.331,1.331,0,0,1-1.192,1.355,1.3,1.3,0,0,1-1.378-1.35l-.048-2.251c-.043-2.012.135-4.058-.04-6.174L27.279,54.7c1.838,1.288,3.776,1.995,5.642,3.073l10.9,6.3L60.361,54.7c-3.684-2.2-7.277-4.275-11.134-6.26-1.375-.707-2.584-1.829-4.134-2.383a38.99,38.99,0,0,0,0,4.41M28.926,75.582a58.016,58.016,0,0,0-6.048,3.391L43.925,91.218l5.5-3.376,15.465-8.855L43.821,67.017Z" transform="translate(-0.485 -10.416)" fill="#050504"/>
        <path id="Trazado_1260310" data-name="Trazado 1260310" d="M171.867,155.715a30.988,30.988,0,0,1-2.738,1.451c-.519-.278-1.1-.694-1.649-.383l-6.7,3.8-20.961-11.912,16.462-9.315a3.659,3.659,0,0,1,1.926,1.1l.045,9.548a1.241,1.241,0,0,0,2.478.014l.063-8.229,16.343,9.241-5.045,3.135c-.473.294-.173,1.149-.225,1.543" transform="translate(-93.852 -93.543)" fill="#de9772"/>
        <path id="Trazado_1260311" data-name="Trazado 1260311" d="M26.343,161.241a6.086,6.086,0,0,0,2.029,1.99l3.729,2.184c.228.133.32.324.242.494-1.767.984-3.374,2.4-5.478,3.155l-16.176-9.423,4.655-2.735c.623-.366.476-1.191.422-1.76l2.772-1.458c.469.187.929.818,1.508.514l4.022-2.112.09,8.451a1.028,1.028,0,0,0,.9.9,2.7,2.7,0,0,0,1.289-.2" transform="translate(-7.175 -102.09)" fill="#d98557"/>
        <path id="Trazado_1260312" data-name="Trazado 1260312" d="M106.835,192.992a43.628,43.628,0,0,0-4.408-2.506l.058-3.367a17.53,17.53,0,0,1,1.873-.1,4.094,4.094,0,0,0,3.676-4.642,2.747,2.747,0,0,0-.6-1.93c-1.07-1.011-4.571-.874-6.029.14-1.4-1.9-5.693-1.782-6.714-.9-1.484,1.277-.971,4.428.071,5.949-2.9-1.047-5.423-3.064-8.333-4.516-.174-.087-.248-.318-.09-.38l14.895-8.564L122.3,184.137Z" transform="translate(-57.893 -115.566)" fill="#e4aa8a"/>
        <path id="Trazado_1260313" data-name="Trazado 1260313" d="M114.969,115.676c3.857,1.985,7.449,4.057,11.134,6.26L109.566,131.3l-10.9-6.3a98.764,98.764,0,0,1,9.493-5.413l.048,2.251a1.305,1.305,0,0,0,1.378,1.35,1.332,1.332,0,0,0,1.192-1.355l.06-4.13c.907.016,3.132-1.8,4.134-2.027" transform="translate(-66.227 -77.646)" fill="#e5ab8a"/>
        <path id="Trazado_1260314" data-name="Trazado 1260314" d="M64.3,163.637c.078-.171-.013-.361-.241-.495l-3.729-2.183a6.093,6.093,0,0,1-2.029-1.99c.293-.012.354-4.343.362-4.208a7.581,7.581,0,0,1,2.112-1.648l7.842-4.407c3.75,1.916,7.406,4.041,11.24,6.274Z" transform="translate(-39.137 -99.817)" fill="#df9873"/>
        <path id="Trazado_1260315" data-name="Trazado 1260315" d="M82.586,203.114A15.934,15.934,0,0,1,84.8,204.47c.925.548,1.723,1.526,2.858,1.793a3.932,3.932,0,0,0,.264,1.847,1.2,1.2,0,0,0,1.389.527c.32-.064.6-.424.945-.666a43.625,43.625,0,0,1,4.408,2.506l-5.5,3.376L68.114,201.609a58.023,58.023,0,0,1,6.048-3.391c-.157.063-.084.293.09.38,2.91,1.452,5.429,3.469,8.333,4.516" transform="translate(-45.721 -133.052)" fill="#de9772"/>
        <path id="Trazado_1260316" data-name="Trazado 1260316" d="M96.636,114.966a98.828,98.828,0,0,0-9.493,5.413c-1.866-1.078-3.8-1.784-5.643-3.073l15.1-8.515c.176,2.117,0,4.163.04,6.174" transform="translate(-54.707 -73.026)" fill="#dc9571"/>
        <path id="Trazado_1260317" data-name="Trazado 1260317" d="M69.17,142.472l-7.841,4.407a7.587,7.587,0,0,0-2.112,1.648c-.114-2.134-.119-4.251-.03-6.522l4.748-2.586c1.995.809,3.523,2.178,5.235,3.053" transform="translate(-39.687 -93.584)" fill="#d98557"/>
        <path id="Trazado_1260318" data-name="Trazado 1260318" d="M139.694,110.811c-1,.225-3.227,2.044-4.134,2.027a38.993,38.993,0,0,1,0-4.41c1.55.554,2.76,1.675,4.134,2.383" transform="translate(-90.951 -72.781)" fill="#dc9571"/>
        <path id="Trazado_1260319" data-name="Trazado 1260319" d="M117.771,204.575c-.346.241-.625.6-.945.666a1.2,1.2,0,0,1-1.389-.527,3.932,3.932,0,0,1-.264-1.847,9.252,9.252,0,0,0-.011-1.665l-2.847-.128a15.868,15.868,0,0,0-2.214-1.356c-1.042-1.521-1.555-4.672-.071-5.949,1.021-.879,5.31-.993,6.714.9,1.457-1.015,4.959-1.151,6.028-.14a2.746,2.746,0,0,1,.6,1.93A4.094,4.094,0,0,1,119.7,201.1a17.541,17.541,0,0,0-1.874.1Zm-2.632-5.987c.18-1.163.1-2.143-.806-2.589a5.324,5.324,0,0,0-2.523-.182,2.152,2.152,0,0,0,.928,2.642,4.921,4.921,0,0,0,2.4.129m5.536-1.941c-.181-.209-2.3-.516-2.728.589-.168.435-.355,1.315.182,1.4a2.888,2.888,0,0,0,2.161-.4c.331-.293.789-1.119.385-1.588" transform="translate(-73.237 -129.655)" fill="#040403"/>
        <path id="Trazado_1260320" data-name="Trazado 1260320" d="M121.724,219.028c-1.135-.268-1.933-1.245-2.858-1.793l2.847.128a9.254,9.254,0,0,1,.011,1.665" transform="translate(-79.788 -145.817)" fill="#e5ab8a"/>
        <path id="Trazado_1260321" data-name="Trazado 1260321" d="M120.425,203.9a4.92,4.92,0,0,1-2.4-.129,2.152,2.152,0,0,1-.928-2.642,5.324,5.324,0,0,1,2.523.182c.9.446.986,1.426.806,2.589" transform="translate(-78.522 -134.969)" fill="#aedc65"/>
        <path id="Trazado_1260322" data-name="Trazado 1260322" d="M138.372,203.354c.4.468-.054,1.295-.385,1.588a2.888,2.888,0,0,1-2.161.4c-.537-.081-.349-.961-.182-1.4.427-1.1,2.547-.8,2.728-.589" transform="translate(-90.934 -136.362)" fill="#aedc65"/>
      </g>
    </g>
  </g>
</svg>
