<svg xmlns="http://www.w3.org/2000/svg" xmlns:xlink="http://www.w3.org/1999/xlink" width="129.063" height="88.684" viewBox="0 0 129.063 88.684">
  <defs>
    <clipPath id="clip-path">
      <rect id="Rect치ngulo_411670" data-name="Rect치ngulo 411670" width="62.247" height="88.684" fill="none"/>
    </clipPath>
  </defs>
  <g id="_6" data-name="6" transform="translate(-787.781 -2552.792)">
    <g id="Rect치ngulo_410589" data-name="Rect치ngulo 410589" transform="translate(787.781 2575.623)" fill="#ffc94a" stroke="#dfab32" stroke-width="1">
      <rect width="129.063" height="43.021" rx="8" stroke="none"/>
      <rect x="0.5" y="0.5" width="128.063" height="42.021" rx="7.5" fill="none"/>
    </g>
    <g id="Grupo_1213277" data-name="Grupo 1213277" transform="translate(821.189 2552.792)">
      <g id="Grupo_1213276" data-name="Grupo 1213276" clip-path="url(#clip-path)">
        <path id="Trazado_1259600" data-name="Trazado 1259600" d="M19.4,16.563l.029,4.425a1.427,1.427,0,0,0-1.381,1.379L18.023,60.52a14.411,14.411,0,0,0-10.176,5.6L7.819,19.241A11.655,11.655,0,0,1,17.986,8.089l.08,7.206A1.305,1.305,0,0,0,19.4,16.563" transform="translate(-5.185 -5.364)" fill="#86d75e"/>
        <path id="Trazado_1259601" data-name="Trazado 1259601" d="M80.794,7.865a5.824,5.824,0,0,1,1.03,3.423l-.03,49-38.324.046-.027-38.452c0-.727-.838-.858-1.219-1.059L42.195,16.4a1.294,1.294,0,0,0,1.269-1.356l.019-7.2ZM65.764,53.323A22.539,22.539,0,0,0,75.778,41.834c3.742-9.65-1.62-18.22-9.316-23.8a1.954,1.954,0,0,0-2.489-.1,27.083,27.083,0,0,0-8.632,9.414C50,37.346,55.567,47.105,63.93,53.029a1.7,1.7,0,0,0,1.835.294" transform="translate(-27.981 -5.198)" fill="#fde0ac"/>
        <path id="Trazado_1259602" data-name="Trazado 1259602" d="M157.777,60.253l.03-49a5.824,5.824,0,0,0-1.03-3.423c1.271,0,2.532-.093,3.929-.01a2.947,2.947,0,0,1,2.851,2.929l0,50.2a11.323,11.323,0,0,0-3.018-.665Z" transform="translate(-103.963 -5.163)" fill="#efcd90"/>
        <path id="Trazado_1259603" data-name="Trazado 1259603" d="M87.5,72.412a1.7,1.7,0,0,1-1.835-.294c-8.362-5.924-13.933-15.683-8.589-25.677a27.08,27.08,0,0,1,8.632-9.415,1.954,1.954,0,0,1,2.489.1c7.7,5.576,13.058,14.147,9.316,23.8A22.539,22.539,0,0,1,87.5,72.412M85.5,49.243l-.024-8.628a21.683,21.683,0,0,0-4.665,4.866A52.862,52.862,0,0,0,85.5,49.243m7.443-3.762a22.814,22.814,0,0,0-4.658-4.847l-.006,8.68a54.783,54.783,0,0,0,4.664-3.833m-7.494,14.1.066-6.725L79.38,47.8a12.677,12.677,0,0,0-1.643,5.469Zm4.21-7.814a5.183,5.183,0,0,0-1.43,1.1l-.02,6.657c.886-.119,1.179-1.046,1.888-1.5,2.042-1.318,3.8-3.007,5.89-4.593a13.959,13.959,0,0,0-1.626-5.519Zm-4.171,11.32-7.568-6.055c.872,4.747,3.854,8.465,7.488,11.514a43.368,43.368,0,0,0,.08-5.459M88.3,68.608a21.972,21.972,0,0,0,5.088-5.337c1.075-1.87,2.187-3.691,2.318-6.114L88.2,63.128a40.843,40.843,0,0,0,.1,5.48" transform="translate(-49.721 -24.287)" fill="#040503"/>
        <path id="Trazado_1259604" data-name="Trazado 1259604" d="M90.876,81.59l-7.711-6.312a12.676,12.676,0,0,1,1.643-5.469l6.135,5.056Z" transform="translate(-55.149 -46.292)" fill="#bdf7a4"/>
        <path id="Trazado_1259605" data-name="Trazado 1259605" d="M118.991,80.25c.054-.663.589-6.291-.438-6.255l4.7-3.857a13.964,13.964,0,0,1,1.626,5.519c-2.091,1.586-3.847,3.275-5.89,4.593" transform="translate(-78.616 -46.511)" fill="#6aca3b"/>
        <path id="Trazado_1259606" data-name="Trazado 1259606" d="M114.228,109.023a40.844,40.844,0,0,1-.1-5.48l7.506-5.971c-.131,2.423-1.243,4.244-2.318,6.114a21.972,21.972,0,0,1-5.088,5.337" transform="translate(-75.652 -64.703)" fill="#9eee7d"/>
        <path id="Trazado_1259607" data-name="Trazado 1259607" d="M91.274,103.272a43.372,43.372,0,0,1-.079,5.459c-3.634-3.048-6.616-6.766-7.489-11.514Z" transform="translate(-55.508 -64.467)" fill="#82d25b"/>
        <path id="Trazado_1259608" data-name="Trazado 1259608" d="M96.976,57.1a52.855,52.855,0,0,1-4.689-3.762,21.7,21.7,0,0,1,4.665-4.866Z" transform="translate(-61.198 -32.14)" fill="#82d25b"/>
        <path id="Trazado_1259609" data-name="Trazado 1259609" d="M119.122,53.374a54.891,54.891,0,0,1-4.664,3.833l.006-8.68a22.814,22.814,0,0,1,4.658,4.847" transform="translate(-75.9 -32.18)" fill="#9eee7d"/>
        <path id="Trazado_1259610" data-name="Trazado 1259610" d="M116.136,87.842c-.709.458-1,1.385-1.888,1.5l.02-6.657a5.181,5.181,0,0,1,1.43-1.1c1.027-.036.491,5.592.438,6.255" transform="translate(-75.761 -54.102)" fill="#82d25b"/>
        <path id="Trazado_1259611" data-name="Trazado 1259611" d="M50.926,81.649a1.4,1.4,0,0,1,.554-1.17,2.955,2.955,0,0,1,1.559-.322,38.1,38.1,0,0,0,3.81.044,2.887,2.887,0,0,0,2.634-3.623,54.7,54.7,0,0,0-5.672.031l-27.571-.094a15.481,15.481,0,0,0-.059,3.677l18.281.025a1.358,1.358,0,0,1,1.394,1.4c-.036.868-.7,1.308-1.633,1.308l-19.021,0-7.642,5.549a1.554,1.554,0,0,1-1.485.036c-1.228-.559-.283-4.07-.771-5.6C7.815,83.361.115,77.682.1,69.738L0,14.128A14.118,14.118,0,0,1,13.989.03L56.556,0a5.573,5.573,0,0,1,5.687,5.59l0,71.747A5.6,5.6,0,0,1,56.6,82.912l-4.33-.007a1.331,1.331,0,0,1-1.345-1.257M14.214,11.2a1.305,1.305,0,0,1-1.333-1.268L12.8,2.725A11.655,11.655,0,0,0,2.634,13.876l.028,46.879a14.412,14.412,0,0,1,10.176-5.6L12.862,17a1.428,1.428,0,0,1,1.382-1.379c.381.2,1.219.332,1.219,1.06l.027,38.452,38.324-.046,2.757.031a11.323,11.323,0,0,1,3.018.665l0-50.2a2.947,2.947,0,0,0-2.851-2.929c-1.4-.083-2.658.011-3.929.01L15.5,2.64l-.019,7.2A1.294,1.294,0,0,1,14.214,11.2M53.826,61.4l5.719.042a2.971,2.971,0,0,0-2.5-3.611A34.246,34.246,0,0,0,53,57.848l-39.71-.031a9.961,9.961,0,0,0-9.218,6.129,12.2,12.2,0,0,0,1.8,12.7,10.734,10.734,0,0,0,9.52,3.5,17.541,17.541,0,0,0-.056-3.621c-2.071.049-3.985-.081-5.6-1.235A7.8,7.8,0,0,1,6.867,67.23a6.832,6.832,0,0,1,6.64-5.714Zm-9.017,6.413c.988,0,1.064,1.129.983,1.588a1.226,1.226,0,0,1-1.319.988l-18.267.022a15.061,15.061,0,0,0,0,3.482l33.388-.006-.014-9.764-45.97.011a4.611,4.611,0,0,0-4.338,4.486,5.045,5.045,0,0,0,1.652,4.2,5.282,5.282,0,0,0,4.514.95,31.553,31.553,0,0,0-.059-3.295,11.7,11.7,0,0,1-1.821-.235c-.526-.207-.616-.869-.592-1.278.02-.344.172-1.133.817-1.133Zm-24,14.845A11.475,11.475,0,0,0,23.5,80.836V70.517a10.021,10.021,0,0,0-2.707-.082,14.134,14.134,0,0,0-2.677.042l.008,14.183a10.445,10.445,0,0,0,2.686-2" transform="translate(0 0)" fill="#060605"/>
        <path id="Trazado_1259612" data-name="Trazado 1259612" d="M105.195,227.225c.212,1.262-.381,2.369-.772,3.549a2.948,2.948,0,0,0-1.559.322,1.4,1.4,0,0,0-.554,1.17l-5.069-.034a1.358,1.358,0,0,0-1.394-1.4l-18.281-.025a15.483,15.483,0,0,1,.059-3.677Z" transform="translate(-51.382 -150.617)" fill="#e4b769"/>
        <path id="Trazado_1259613" data-name="Trazado 1259613" d="M63.026,194.045,32,194.058c-.645,0-.8.789-.817,1.133-.024.409.066,1.071.592,1.278a11.708,11.708,0,0,0,1.821.235,31.655,31.655,0,0,1,.059,3.3,5.283,5.283,0,0,1-4.514-.95,5.045,5.045,0,0,1-1.652-4.2,4.611,4.611,0,0,1,4.338-4.486l45.97-.011.014,9.764-33.388.006a15.06,15.06,0,0,1,0-3.482l18.267-.022a1.226,1.226,0,0,0,1.319-.988c.081-.459.005-1.588-.983-1.588" transform="translate(-18.217 -126.23)" fill="#fbf1f1"/>
        <path id="Trazado_1259614" data-name="Trazado 1259614" d="M59.008,171.659a7.2,7.2,0,0,1,.827,3.554l-40.319.115a6.833,6.833,0,0,0-6.64,5.714,7.8,7.8,0,0,0,2.868,8.059c1.615,1.154,3.528,1.283,5.6,1.235a17.521,17.521,0,0,1,.056,3.622,10.737,10.737,0,0,1-9.521-3.5,12.2,12.2,0,0,1-1.8-12.7,9.961,9.961,0,0,1,9.218-6.129Z" transform="translate(-6.008 -113.812)" fill="#e3b668"/>
        <path id="Trazado_1259615" data-name="Trazado 1259615" d="M56.454,209l.017,12.224a10.445,10.445,0,0,1-2.686,2l-.008-14.182A14.109,14.109,0,0,1,56.454,209" transform="translate(-35.661 -138.561)" fill="#bdf7a4"/>
        <path id="Trazado_1259616" data-name="Trazado 1259616" d="M61.742,221.21l-.017-12.224a10.02,10.02,0,0,1,2.707.082v10.319a11.475,11.475,0,0,1-2.688,1.823" transform="translate(-40.932 -138.551)" fill="#9eee7d"/>
        <path id="Trazado_1259617" data-name="Trazado 1259617" d="M158.156,175.112a7.2,7.2,0,0,0-.827-3.554,34.234,34.234,0,0,1,4.048-.015,2.971,2.971,0,0,1,2.5,3.611Z" transform="translate(-104.329 -113.71)" fill="#c49c59"/>
        <path id="Trazado_1259618" data-name="Trazado 1259618" d="M157.451,230.74c.391-1.179.983-2.286.771-3.549a54.805,54.805,0,0,1,5.672-.031,2.887,2.887,0,0,1-2.634,3.623,37.995,37.995,0,0,1-3.81-.043" transform="translate(-104.41 -150.583)" fill="#d1a760"/>
      </g>
    </g>
  </g>
</svg>
