<svg xmlns="http://www.w3.org/2000/svg" xmlns:xlink="http://www.w3.org/1999/xlink" width="129.063" height="90.76" viewBox="0 0 129.063 90.76">
  <defs>
    <clipPath id="clip-path">
      <rect id="Rect치ngulo_411704" data-name="Rect치ngulo 411704" width="80.909" height="90.759" fill="none"/>
    </clipPath>
  </defs>
  <g id="Grupo_1213522" data-name="Grupo 1213522" transform="translate(0 5.842)">
    <g id="Rect치ngulo_410589" data-name="Rect치ngulo 410589" transform="translate(0 35.344)" fill="#5a8441" stroke="#3e5b2c" stroke-width="1">
      <rect width="129.063" height="43.021" rx="8" stroke="none"/>
      <rect x="0.5" y="0.5" width="128.063" height="42.021" rx="7.5" fill="none"/>
    </g>
    <g id="Grupo_1213333" data-name="Grupo 1213333" transform="translate(28.153 -5.842)">
      <g id="Grupo_1213332" data-name="Grupo 1213332" clip-path="url(#clip-path)">
        <path id="Trazado_1260271" data-name="Trazado 1260271" d="M89.768,145.826l-.007,4.45a1.307,1.307,0,0,0-1.32,1.348l-.07,2.826-32.823.013-.028-4.1a7.946,7.946,0,0,1,2.571-5.892,9.812,9.812,0,0,0,14.663,2.257c3.054-2.624,4.873-10.669,5.486-14.7a1.3,1.3,0,0,0-.956-1.43c-4.008-.773-11.924-1.792-15.528.03a9.75,9.75,0,0,0-4.928,10.7c.151.792-.791,1.4-1.305,1.684a14.7,14.7,0,0,0-2.656-8.207,9.881,9.881,0,0,0-3.8-13.376c-3.764-2.046-11.668-.6-15.813.312a1.351,1.351,0,0,0-1.077,1.518c.774,4.08,2.951,12.143,6.285,14.653a9.854,9.854,0,0,0,12.633-.819,11.044,11.044,0,0,1,1.772,6.3l-.03,11.077-25.753-.053.109-34.4A34,34,0,0,1,47.6,89.063c.371-.164.612-.271.63-.62a32.706,32.706,0,0,1,40.161,31.6L88.43,144.4a1.4,1.4,0,0,0,1.338,1.424M50.135,106.013h5.318a1.365,1.365,0,0,0,1.461-1.455c-.123-1.841-2.591-.971-3.555-1.38l8.986-9.091a1.317,1.317,0,0,0-1.969-1.74l-8.987,8.94a8.241,8.241,0,0,1-.141-2.3,1.324,1.324,0,0,0-1.369-1.329A1.36,1.36,0,0,0,48.6,99.032l-.02,5.379a1.5,1.5,0,0,0,1.559,1.6m9.818,8.519h5.557a1.313,1.313,0,0,0,1.336-1.462c-.143-1.865-2.63-.91-3.529-1.4l8.93-9a1.311,1.311,0,0,0-.066-1.777,1.345,1.345,0,0,0-1.934.05l-8.794,8.743c-.431-.816-.135-1.53-.263-2.278a1.336,1.336,0,0,0-1.472-1.211,1.308,1.308,0,0,0-1.152,1.312v5.678a1.355,1.355,0,0,0,1.386,1.341m10.059,9.943,5.519-.023a1.262,1.262,0,0,0,1.3-1.323c-.053-1.989-2.614-.942-3.562-1.485l8.945-9.01a1.3,1.3,0,0,0-.187-1.886,1.356,1.356,0,0,0-1.666.03l-9.027,8.944c-.5-.827.531-3.62-1.53-3.551a1.307,1.307,0,0,0-1.277,1.3c-.06,1.89-.051,3.736,0,5.627a1.4,1.4,0,0,0,1.493,1.381" transform="translate(-20.096 -64.986)" fill="#eeecee"/>
        <path id="Trazado_1260272" data-name="Trazado 1260272" d="M69.673,137.96a1.4,1.4,0,0,1-1.338-1.424L68.3,112.175a32.775,32.775,0,0,0-65.548.155L2.8,146.595a1.5,1.5,0,0,1-1.4,1.267A1.436,1.436,0,0,1,0,146.331l.078-34.44C.127,90.05,20.2,73.779,41.63,77.529c16.273,2.847,29.2,16.764,29.266,33.5l.1,25.518a1.424,1.424,0,0,1-1.326,1.412" transform="translate(0 -57.12)" fill="#070707"/>
        <path id="Trazado_1260273" data-name="Trazado 1260273" d="M36.041,90.889c-.018.348-.259.456-.63.62A34,34,0,0,0,15,122.463l-.109,34.4-4.188.047-.053-34.265A32.643,32.643,0,0,1,36.041,90.889" transform="translate(-7.904 -67.432)" fill="#e6e4e4"/>
        <path id="Trazado_1260274" data-name="Trazado 1260274" d="M265.94,330.469a1.281,1.281,0,0,1,1.291,1.336l.01,2.607a1.354,1.354,0,0,1-1.423,1.526c-.689,0-1.1-.616-1.269-1.3l.07-2.826a1.307,1.307,0,0,1,1.32-1.348" transform="translate(-196.275 -245.179)" fill="#070707"/>
        <path id="Trazado_1260275" data-name="Trazado 1260275" d="M189.012,190.249a1.4,1.4,0,0,1-1.493-1.381c-.046-1.891-.055-3.736,0-5.627a1.307,1.307,0,0,1,1.277-1.3c2.061-.069,1.034,2.724,1.53,3.551l9.027-8.944a1.356,1.356,0,0,1,1.666-.03,1.3,1.3,0,0,1,.187,1.886l-8.945,9.01c.949.543,3.509-.5,3.562,1.485a1.262,1.262,0,0,1-1.3,1.323Z" transform="translate(-139.096 -130.761)" fill="#050505"/>
        <path id="Trazado_1260276" data-name="Trazado 1260276" d="M150.451,151.665a1.355,1.355,0,0,1-1.386-1.341v-5.678a1.308,1.308,0,0,1,1.152-1.312,1.336,1.336,0,0,1,1.472,1.211c.128.748-.168,1.462.263,2.278l8.794-8.743a1.345,1.345,0,0,1,1.934-.05,1.311,1.311,0,0,1,.066,1.777l-8.93,9c.9.49,3.386-.465,3.529,1.4a1.313,1.313,0,0,1-1.336,1.462Z" transform="translate(-110.594 -102.12)" fill="#070707"/>
        <path id="Trazado_1260277" data-name="Trazado 1260277" d="M111.914,118.592a1.5,1.5,0,0,1-1.558-1.6l.02-5.379a1.36,1.36,0,0,1,1.282-1.373,1.324,1.324,0,0,1,1.369,1.329,8.232,8.232,0,0,0,.141,2.3l8.987-8.94a1.317,1.317,0,0,1,1.969,1.74l-8.986,9.091c.964.408,3.432-.461,3.555,1.38a1.364,1.364,0,0,1-1.461,1.455Z" transform="translate(-81.875 -77.565)" fill="#050505"/>
        <path id="Trazado_1260278" data-name="Trazado 1260278" d="M70.126,248.749A1.333,1.333,0,0,1,68.64,250a1.379,1.379,0,0,1-1.224-1.252l.03-11.077a11.044,11.044,0,0,0-1.772-6.3,9.854,9.854,0,0,1-12.633.819c-3.334-2.509-5.511-10.573-6.285-14.653a1.351,1.351,0,0,1,1.077-1.518c4.146-.913,12.049-2.357,15.813-.312a9.881,9.881,0,0,1,3.8,13.376A14.7,14.7,0,0,1,70.1,237.3c.514-.285,1.456-.892,1.305-1.684a9.749,9.749,0,0,1,4.928-10.7c3.6-1.822,11.52-.8,15.528-.03a1.3,1.3,0,0,1,.956,1.43c-.613,4.035-2.432,12.08-5.486,14.7A9.812,9.812,0,0,1,72.67,238.76a7.946,7.946,0,0,0-2.571,5.892Zm-18.49-30.708a5.591,5.591,0,0,0-1.954.394c.529,2.812,2.583,9.562,4.708,11.4a7,7,0,0,0,9.428-.432c.451-.441-.343-.614-.53-.837-2.216-2.645-5.553-4.162-8.848-5.487-.8-.321-1.313-.714-1.183-1.532a1.315,1.315,0,0,1,1.747-1.077,29.129,29.129,0,0,1,10.555,6.242c1.227-3.624-.413-7.85-4.012-8.906-3.223-.946-6.606-.2-9.913.24M75.98,236.119c-.253.056-1.378.487-1.1.989a7.039,7.039,0,0,0,10.658,1.913c2.258-1.951,3.853-8.674,4.374-11.68.024-.139-.339-.142-.566-.176-2.908-.433-9.1-1.23-11.848.165a6.881,6.881,0,0,0-3.614,6.762,41.613,41.613,0,0,1,11.23-5.045c.8-.232,1.549-.105,1.855.568a1.356,1.356,0,0,1-.877,1.931,33.873,33.873,0,0,0-10.116,4.572" transform="translate(-34.674 -159.272)" fill="#050604"/>
        <path id="Trazado_1260279" data-name="Trazado 1260279" d="M167.341,261.288c-.744,2.572-1.419,5.353-3.252,7.548a7.917,7.917,0,0,1-10.118,1.4,33.882,33.882,0,0,1,10.116-4.572,1.356,1.356,0,0,0,.877-1.931c-.306-.673-1.059-.8-1.855-.568a41.6,41.6,0,0,0-11.23,5.046,6.88,6.88,0,0,1,3.614-6.763c2.747-1.394,8.941-.6,11.848-.165" transform="translate(-112.664 -193.393)" fill="#a2d955"/>
        <path id="Trazado_1260280" data-name="Trazado 1260280" d="M77.38,236.231c-2.876.549-6.194.133-8.135-2.364a19.385,19.385,0,0,1-3.518-8.157c3.307-.441,6.69-1.186,9.913-.24,3.6,1.056,5.238,5.282,4.012,8.906A29.128,29.128,0,0,0,69.1,228.135a1.315,1.315,0,0,0-1.747,1.077c-.13.818.385,1.211,1.183,1.532,3.294,1.325,6.631,2.842,8.848,5.487" transform="translate(-48.764 -166.941)" fill="#a2d955"/>
        <path id="Trazado_1260281" data-name="Trazado 1260281" d="M60.11,227.715a19.379,19.379,0,0,0,3.518,8.156c1.941,2.5,5.259,2.913,8.135,2.364.187.223.981.4.53.837a7,7,0,0,1-9.428.432c-2.126-1.834-4.18-8.584-4.708-11.4a5.593,5.593,0,0,1,1.954-.394" transform="translate(-43.147 -168.946)" fill="#8ed42d"/>
        <path id="Trazado_1260282" data-name="Trazado 1260282" d="M156.772,272.028a7.917,7.917,0,0,0,10.118-1.4c1.832-2.2,2.509-4.976,3.252-7.548.227.034.59.037.566.176-.521,3.005-2.116,9.729-4.374,11.68a7.039,7.039,0,0,1-10.658-1.913c-.283-.5.843-.933,1.1-.989" transform="translate(-115.466 -195.18)" fill="#8dd32d"/>
        <path id="Trazado_1260283" data-name="Trazado 1260283" d="M243.075,30.339a8.418,8.418,0,1,1-8.418-8.418,8.418,8.418,0,0,1,8.418,8.418M234.7,36.085a5.752,5.752,0,1,0-5.013-2.859,5.752,5.752,0,0,0,5.013,2.859" transform="translate(-167.851 -16.264)" fill="#070605"/>
        <path id="Trazado_1260284" data-name="Trazado 1260284" d="M207.339,51.749a3.438,3.438,0,0,1-2.46-.123,1.314,1.314,0,0,1-.466-1.78c.508-1.007,3.183-.962,3.683-.015a1.3,1.3,0,0,1-.757,1.917" transform="translate(-151.538 -36.432)" fill="#0a0a0a"/>
        <path id="Trazado_1260285" data-name="Trazado 1260285" d="M301.125,51.711a3.227,3.227,0,0,1-2.6-.154,1.334,1.334,0,0,1-.358-1.74c.432-.887,3.113-1.063,3.689.062a1.287,1.287,0,0,1-.727,1.832" transform="translate(-221.088 -36.422)" fill="#070707"/>
        <path id="Trazado_1260286" data-name="Trazado 1260286" d="M288.462,16.341c-.526.843-1.854,2.173-2.932,1.32a1.326,1.326,0,0,1-.313-1.588,4.5,4.5,0,0,1,1.6-1.608,1.236,1.236,0,0,1,1.464.247,1.328,1.328,0,0,1,.178,1.629" transform="translate(-211.505 -10.619)" fill="#0a0a0a"/>
        <path id="Trazado_1260287" data-name="Trazado 1260287" d="M219.648,14.474c1.048-.479,3.308,1.576,2.643,2.844a1.31,1.31,0,0,1-1.87.468,4.621,4.621,0,0,1-1.352-1.339,1.341,1.341,0,0,1,.579-1.973" transform="translate(-162.367 -10.686)" fill="#0d0d0d"/>
        <path id="Trazado_1260288" data-name="Trazado 1260288" d="M286.678,80.713c.337.061,2.088,1.3,1.978,2.431a1.275,1.275,0,0,1-.938,1.112c-.67.195-1.162-.225-1.676-.683-.71-.631-1.316-1.456-.719-2.386a1.331,1.331,0,0,1,1.355-.474" transform="translate(-211.506 -59.863)" fill="#0d0d0d"/>
        <path id="Trazado_1260289" data-name="Trazado 1260289" d="M222.224,82.719c-.711.953-1.718,1.94-2.766,1.343a1.342,1.342,0,0,1-.407-1.749c.362-.7,1.887-2.4,3.015-1.324a1.322,1.322,0,0,1,.159,1.73" transform="translate(-162.399 -59.83)" fill="#070707"/>
        <path id="Trazado_1260290" data-name="Trazado 1260290" d="M255.493.1c1.095.388,1.026,3.17.156,3.711a1.278,1.278,0,0,1-1.784-.42,3.6,3.6,0,0,1-.009-2.8c.279-.666,1.161-.656,1.637-.487" transform="translate(-188.133 0)" fill="#0a0a0a"/>
        <path id="Trazado_1260291" data-name="Trazado 1260291" d="M255.426,93.588c1.245.532,1.167,3.466.035,3.862a1.282,1.282,0,0,1-1.647-.616,3.838,3.838,0,0,1,.019-2.622,1.245,1.245,0,0,1,1.593-.624" transform="translate(-188.145 -69.372)" fill="#0a0a0a"/>
        <path id="Trazado_1260292" data-name="Trazado 1260292" d="M250.771,43.733a7.2,7.2,0,0,1-.017-11.5,5.752,5.752,0,0,1,.017,11.5" transform="translate(-183.92 -23.911)" fill="#fce37d"/>
        <path id="Trazado_1260293" data-name="Trazado 1260293" d="M242.361,32.229a7.2,7.2,0,0,0,.017,11.5,5.752,5.752,0,1,1-.017-11.5" transform="translate(-175.527 -23.911)" fill="#f8d22e"/>
      </g>
    </g>
  </g>
</svg>
