<svg xmlns="http://www.w3.org/2000/svg" xmlns:xlink="http://www.w3.org/1999/xlink" width="129.063" height="84.286" viewBox="0 0 129.063 84.286">
  <defs>
    <clipPath id="clip-path">
      <rect id="Rect치ngulo_411687" data-name="Rect치ngulo 411687" width="84.305" height="84.287" fill="none"/>
    </clipPath>
  </defs>
  <g id="Grupo_1213339" data-name="Grupo 1213339" transform="translate(0 -8.58)">
    <g id="Rect치ngulo_410589" data-name="Rect치ngulo 410589" transform="translate(0 35.344)" fill="#5a8441" stroke="#3e5b2c" stroke-width="1">
      <rect width="129.063" height="43.021" rx="8" stroke="none"/>
      <rect x="0.5" y="0.5" width="128.063" height="42.021" rx="7.5" fill="none"/>
    </g>
    <g id="Grupo_1213307" data-name="Grupo 1213307" transform="translate(22.378 8.58)">
      <g id="Grupo_1213306" data-name="Grupo 1213306" clip-path="url(#clip-path)">
        <path id="Trazado_1259986" data-name="Trazado 1259986" d="M83.543,217.805a2.682,2.682,0,0,1,.75,1.981l-.034,4.557H.042L0,220.029a2.936,2.936,0,0,1,.749-2.212c2.514.592,2.256-5.084,5.949-5.2a7.557,7.557,0,0,0,6.6-3.454,6.679,6.679,0,0,1,5.829-3.237,4.363,4.363,0,0,1,3.766,2.3l1.714,3.071a12.691,12.691,0,0,0,11.309,6.484l13.179-.036A12.239,12.239,0,0,0,59.69,211.3l1.714-3.078a4.356,4.356,0,0,1,3.771-2.3A6.68,6.68,0,0,1,71,209.163a7.538,7.538,0,0,0,6.6,3.455c1.9.06,3.06,1.881,3.7,3.476.456,1.134,1.08,1.837,2.237,1.711m-63.787-3.341a1.963,1.963,0,1,0-1.963,1.962,1.963,1.963,0,0,0,1.963-1.962m48.713,0a1.962,1.962,0,1,0-1.962,1.961,1.961,1.961,0,0,0,1.962-1.961M11.855,219.73a1.963,1.963,0,1,0-1.963,1.962,1.963,1.963,0,0,0,1.963-1.962m64.514,0a1.962,1.962,0,1,0-1.962,1.961,1.961,1.961,0,0,0,1.962-1.961" transform="translate(0.001 -140.057)" fill="#9a7767"/>
        <path id="Trazado_1259987" data-name="Trazado 1259987" d="M83.748,212.252c-1.156.126-1.781-.577-2.237-1.71-.641-1.595-1.8-3.416-3.7-3.476A7.54,7.54,0,0,1,71.2,203.61a6.681,6.681,0,0,0-5.825-3.238,4.357,4.357,0,0,0-3.771,2.3L59.9,205.751A12.238,12.238,0,0,1,49.3,212.188l-13.179.036a12.691,12.691,0,0,1-11.309-6.484L23.1,202.67a4.362,4.362,0,0,0-3.766-2.3,6.679,6.679,0,0,0-5.83,3.237,7.557,7.557,0,0,1-6.6,3.455c-3.693.114-3.434,5.79-5.949,5.2C-.078,211.4.3,210.426.818,209.283c1.156-2.544,3.156-4.8,6.164-4.9a4.911,4.911,0,0,0,4.38-2.285,9.139,9.139,0,0,1,8.483-4.314,6.786,6.786,0,0,1,5.511,3.515l1.712,3.078a9.53,9.53,0,0,0,8.1,5.151H49.542a9.533,9.533,0,0,0,8.1-5.15l1.71-3.075a6.83,6.83,0,0,1,5.743-3.529,9.19,9.19,0,0,1,8.284,4.339,4.17,4.17,0,0,0,3.185,2.134,7.577,7.577,0,0,1,7.339,5.07c.448,1.076.943,2.1-.155,2.936" transform="translate(-0.204 -134.504)" fill="#2a2a2a"/>
        <path id="Trazado_1259988" data-name="Trazado 1259988" d="M53.416,228.453a1.963,1.963,0,1,1-1.963-1.962,1.963,1.963,0,0,1,1.963,1.962" transform="translate(-33.66 -154.046)" fill="#282727"/>
        <path id="Trazado_1259989" data-name="Trazado 1259989" d="M28.715,244.914a1.963,1.963,0,1,1-1.963-1.962,1.963,1.963,0,0,1,1.963,1.962" transform="translate(-16.86 -165.242)" fill="#282727"/>
        <path id="Trazado_1259990" data-name="Trazado 1259990" d="M205.716,228.462a1.962,1.962,0,1,1-1.962-1.961,1.961,1.961,0,0,1,1.962,1.961" transform="translate(-137.247 -154.053)" fill="#282727"/>
        <path id="Trazado_1259991" data-name="Trazado 1259991" d="M230.417,244.923a1.962,1.962,0,1,1-1.962-1.961,1.961,1.961,0,0,1,1.962,1.961" transform="translate(-154.047 -165.248)" fill="#282727"/>
        <path id="Trazado_1259992" data-name="Trazado 1259992" d="M106.164,159.591a10,10,0,0,1-9.955-4.392,9.723,9.723,0,0,1,.142-10.784,10.135,10.135,0,0,1,7.023-3.913,1.462,1.462,0,0,0,1.293-1.24,10.016,10.016,0,0,1,4.792-6.342,9.333,9.333,0,0,1,11.294,2.158c5.237,5.774,2.271,13.426-2.512,18.3a20,20,0,0,1-12.077,6.214m-.455-2.626A17.383,17.383,0,0,0,116.5,151.38a13.959,13.959,0,0,0,4.376-9.493,7.588,7.588,0,0,0-5.257-7.08c-4.017-1.309-7.391,1.341-8.459,5.334a4.03,4.03,0,0,1-3.5,2.98,7.37,7.37,0,0,0-5.236,2.939,7.108,7.108,0,0,0,.126,7.9,7.388,7.388,0,0,0,7.165,3.009" transform="translate(-64.374 -89.691)" fill="#2a2928"/>
        <path id="Trazado_1259993" data-name="Trazado 1259993" d="M111.306,162.489a7.388,7.388,0,0,1-7.164-3.009,7.107,7.107,0,0,1-.127-7.9,7.371,7.371,0,0,1,5.236-2.939,4.03,4.03,0,0,0,3.5-2.98c1.068-3.993,4.442-6.643,8.459-5.334a7.588,7.588,0,0,1,5.257,7.081,13.959,13.959,0,0,1-4.376,9.493,17.383,17.383,0,0,1-10.787,5.584m6.583-15.762a1.286,1.286,0,0,0-1.124-1.54,1.344,1.344,0,0,0-1.4.976,6.653,6.653,0,0,1-5.661,5.076,1.33,1.33,0,0,0-1.267,1.532c.432,2.662,8.131.181,9.455-6.044" transform="translate(-69.971 -95.215)" fill="#f4a339"/>
        <path id="Trazado_1259994" data-name="Trazado 1259994" d="M129.665,157.754c-1.324,6.224-9.023,8.705-9.455,6.044a1.33,1.33,0,0,1,1.267-1.532,6.653,6.653,0,0,0,5.661-5.076,1.344,1.344,0,0,1,1.4-.976,1.286,1.286,0,0,1,1.124,1.54" transform="translate(-81.747 -106.242)" fill="#2b2825"/>
        <path id="Trazado_1259995" data-name="Trazado 1259995" d="M88.49,76.736a8.262,8.262,0,0,1-3.946,6.23,7.918,7.918,0,0,1-7.963-.06c-6.126-3.424-5.458-10.852-2.12-16.289a16.785,16.785,0,0,1,9-7.432,8.6,8.6,0,0,1,9.037,1.99,8.379,8.379,0,0,1,1.8,8.993,9.484,9.484,0,0,1-5.361,4.765c-.462.273-.369,1.206-.444,1.8m-2.62-.686a4.036,4.036,0,0,1,2.9-4.009,5.31,5.31,0,0,0,3.5-5.45,5.834,5.834,0,0,0-7.925-4.937c-5.495,1.832-10.021,8.007-9.728,13.739a6.107,6.107,0,0,0,7.584,5.717,5.293,5.293,0,0,0,3.676-5.06" transform="translate(-48.937 -39.912)" fill="#2a2a28"/>
        <path id="Trazado_1259996" data-name="Trazado 1259996" d="M91.5,81.578a5.294,5.294,0,0,1-3.676,5.06,6.108,6.108,0,0,1-7.584-5.717c-.293-5.732,4.234-11.906,9.728-13.739a5.834,5.834,0,0,1,7.925,4.937,5.31,5.31,0,0,1-3.5,5.45,4.036,4.036,0,0,0-2.9,4.009m.914-5.915a1.291,1.291,0,0,0,.773-1.687,1.323,1.323,0,0,0-1.6-.789c-5.392,1.84-6.722,8.845-4.095,8.849,2.466,0-.079-4.467,4.918-6.373" transform="translate(-54.563 -45.44)" fill="#fbc93d"/>
        <path id="Trazado_1259997" data-name="Trazado 1259997" d="M105.1,89.088c-5,1.906-2.452,6.376-4.918,6.373-2.627,0-1.3-7.009,4.095-8.849a1.323,1.323,0,0,1,1.6.789,1.291,1.291,0,0,1-.773,1.687" transform="translate(-67.248 -58.866)" fill="#2b2926"/>
        <path id="Trazado_1259998" data-name="Trazado 1259998" d="M212.672,33.31c-3.492-8.6-7.65-16.9-13.426-24.32a2.013,2.013,0,0,0-2.315-.968c-.692-.434-1.032-1.219-1.714-1.78a1.315,1.315,0,0,0-1.823-1.895A25.653,25.653,0,0,0,188.837.223L212.741,0Z" transform="translate(-128.436 -0.001)" fill="#fdcb3e"/>
        <path id="Trazado_1259999" data-name="Trazado 1259999" d="M167.089.7a25.642,25.642,0,0,1,4.557,4.125,1.315,1.315,0,1,0,1.823,1.895c.682.561,1.022,1.346,1.714,1.78-.682.985-.432,1.757.305,2.71a91.805,91.805,0,0,1,12.745,23.143,1.773,1.773,0,0,0,2,1.331,6.261,6.261,0,0,0,.694,1.933L190.9,50.345c-.5-.35-1.085-.836-1.778-.465L182,53.684c-.429-2.785-1.076-5.275-1.707-7.963l3.3-1.864a1.316,1.316,0,0,0,.388-1.805c-1.094-1.672-2.972.641-4.506.922-.874-3.042-1.934-5.78-3.051-8.655l2.632-1.479A1.305,1.305,0,0,0,179.465,31c-1.031-1.568-2.908.517-4.191.844a75.626,75.626,0,0,0-3.675-6.862l2.433-1.428a1.275,1.275,0,0,0,.363-1.828c-.972-1.51-2.954.564-4.341.961-1.77-2.551-3.575-4.881-5.606-7.3,1.459-1.153,3.874-1.379,3.248-3.192a1.328,1.328,0,0,0-1.494-.777L162.626,13.3c-1.881-1.982-3.724-3.859-5.765-5.788l8.42-4.656c.626-.346.327-1.167.487-1.624.174-.495.9-.529,1.32-.533" transform="translate(-106.688 -0.473)" fill="#4bb7e7"/>
        <path id="Trazado_1260000" data-name="Trazado 1260000" d="M157.994.845c-.161.457.139,1.278-.487,1.624l-8.42,4.656c2.041,1.929,3.884,3.806,5.765,5.788l3.576-1.874a1.327,1.327,0,0,1,1.494.777c.626,1.813-1.789,2.039-3.248,3.192,2.03,2.416,3.835,4.746,5.606,7.3,1.387-.4,3.37-2.471,4.341-.961a1.275,1.275,0,0,1-.363,1.828L163.825,24.6a75.794,75.794,0,0,1,3.675,6.862c1.283-.328,3.16-2.413,4.191-.844a1.305,1.305,0,0,1-.412,1.838l-2.631,1.479c1.118,2.875,2.177,5.613,3.051,8.655,1.534-.281,3.413-2.594,4.506-.922a1.316,1.316,0,0,1-.387,1.805l-3.3,1.864c.631,2.688,1.278,5.177,1.707,7.963l7.121-3.8c.694-.37,1.28.116,1.779.465,0,.567.205,1.4-.475,1.773l-8.8,4.842a1.234,1.234,0,0,1-1.483-.156c-8.942-7.816-16.711-17.6-21.276-28.7A86.5,86.5,0,0,1,145.448,7.08a1.379,1.379,0,0,1,.826-1.468L156.219.246c.694-.375,1.331.245,1.776.6m13.191,50.8a79.579,79.579,0,0,0-4.312-15.066,72.64,72.64,0,0,0-18.137-26.073A82.34,82.34,0,0,0,152.7,24.613a65.037,65.037,0,0,0,8.277,15.434,77.476,77.476,0,0,0,10.21,11.6" transform="translate(-98.914 -0.088)" fill="#282929"/>
        <path id="Trazado_1260001" data-name="Trazado 1260001" d="M229.034,50.205c0,.316-.011.642.018.957a6.155,6.155,0,0,0-.708.938,1.773,1.773,0,0,1-2-1.331A91.812,91.812,0,0,0,213.6,27.627c-.738-.952-.987-1.724-.305-2.71a2.013,2.013,0,0,1,2.315.968c5.776,7.417,9.934,15.718,13.426,24.32" transform="translate(-144.798 -16.895)" fill="#282928"/>
        <path id="Trazado_1260002" data-name="Trazado 1260002" d="M261.894,110a6.263,6.263,0,0,1-.694-1.934,6.189,6.189,0,0,1,.707-.938c.087.958-.011,1.915-.013,2.872" transform="translate(-177.653 -72.864)" fill="#edc447"/>
        <path id="Trazado_1260003" data-name="Trazado 1260003" d="M204.4,13.8a1.315,1.315,0,1,0-1.315,1.315A1.315,1.315,0,0,0,204.4,13.8" transform="translate(-137.235 -8.494)" fill="#282727"/>
        <path id="Trazado_1260004" data-name="Trazado 1260004" d="M178.216,73.713a77.477,77.477,0,0,1-10.21-11.6,65.035,65.035,0,0,1-8.277-15.434,82.341,82.341,0,0,1-3.962-14.106A72.64,72.64,0,0,1,173.9,58.647a79.58,79.58,0,0,1,4.312,15.066" transform="translate(-105.944 -22.155)" fill="#b0b0b0"/>
      </g>
    </g>
  </g>
</svg>
