<svg xmlns="http://www.w3.org/2000/svg" xmlns:xlink="http://www.w3.org/1999/xlink" width="129.063" height="90.241" viewBox="0 0 129.063 90.241">
  <defs>
    <clipPath id="clip-path">
      <rect id="Rect치ngulo_411671" data-name="Rect치ngulo 411671" width="90.313" height="90.241" fill="none"/>
    </clipPath>
  </defs>
  <g id="_8" data-name="8" transform="translate(-787.781 -2546.026)">
    <g id="Rect치ngulo_410589" data-name="Rect치ngulo 410589" transform="translate(787.781 2575.623)" fill="#ffc94a" stroke="#dfab32" stroke-width="1">
      <rect width="129.063" height="43.021" rx="8" stroke="none"/>
      <rect x="0.5" y="0.5" width="128.063" height="42.021" rx="7.5" fill="none"/>
    </g>
    <g id="Grupo_1213279" data-name="Grupo 1213279" transform="translate(807.156 2546.026)">
      <g id="Grupo_1213278" data-name="Grupo 1213278" clip-path="url(#clip-path)">
        <path id="Trazado_1259619" data-name="Trazado 1259619" d="M22.613,3.832a1.3,1.3,0,0,0,1.426,1.292l63.625.064.524,1.371a7.941,7.941,0,0,1-.035,4.1,2.229,2.229,0,0,0-1.543-.58l-4.131.011a1.318,1.318,0,1,0-.2,2.625c1.221.061,5.259.254,5.852-.462a8.952,8.952,0,0,1,.011,3.593,3.135,3.135,0,0,0-1.31-.515l-16.625.008a1.316,1.316,0,0,0-1.315,1.168A1.266,1.266,0,0,0,70.185,18l16.151.022a2.439,2.439,0,0,0,1.819-.592c.222,1.667.353,3.974-.517,5.466l-7.975.058c-1.493.011-1.646,2.682-2.54,3.969-.916-1.291-1.075-3.979-2.588-3.979H52.749c-1.5,0-1.694,2.71-2.575,4-.878-1.289-1.072-4-2.576-4H25.814c-1.51,0-1.675,2.686-2.586,3.981l-1.495-3.379a1.171,1.171,0,0,0-1.049-.592L9.951,22.916A2.234,2.234,0,0,1,7.668,20.7L7.638,7.634a2.4,2.4,0,0,1,2.516-2.51l7.447.019a1.47,1.47,0,0,0,1.513-1.331Zm7.535,8.9a1.324,1.324,0,0,0,1.32-1.389,1.235,1.235,0,0,0-1.31-1.246L13.5,10.091A1.3,1.3,0,0,0,12.11,11.6a1.367,1.367,0,0,0,1.4,1.147Zm29.237.011a1.328,1.328,0,0,0,1.4-1.39A1.258,1.258,0,0,0,59.4,10.091l-22.816,0c-.909,0-1.477.459-1.507,1.265a1.341,1.341,0,0,0,1.3,1.384Zm16.8-.027a1.321,1.321,0,0,0,1.274-1.363A1.294,1.294,0,0,0,76.084,10.1l-10.273-.01A1.306,1.306,0,0,0,64.377,11.4a1.335,1.335,0,0,0,1.232,1.325Zm-58.177,5.27a1.286,1.286,0,0,0,1.333-1.476c-.2-1.69-3.335-1.184-5.828-1.17a1.342,1.342,0,0,0-1.413,1.4A1.311,1.311,0,0,0,13.487,18Zm16.654.007a1.283,1.283,0,0,0,1.281-1.5,1.363,1.363,0,0,0-1.432-1.169l-10.223.013a1.355,1.355,0,0,0-1.39,1.4A1.319,1.319,0,0,0,24.264,18Zm29.48-.01c.935,0,1.168-.98,1.122-1.441a1.328,1.328,0,0,0-1.293-1.206l-22.993-.006a1.329,1.329,0,0,0-1.408,1.406,1.292,1.292,0,0,0,1.385,1.271Z" transform="translate(-5.02 -2.506)" fill="#d5e3f9"/>
        <path id="Trazado_1259620" data-name="Trazado 1259620" d="M14.122,1.307a1.47,1.47,0,0,1-1.514,1.331L5.161,2.618a2.4,2.4,0,0,0-2.515,2.51l.031,13.065A2.234,2.234,0,0,0,4.959,20.41l10.733.033a1.17,1.17,0,0,1,1.049.592l1.5,3.379c.911-1.3,1.076-3.981,2.586-3.981H42.607c1.5,0,1.7,2.709,2.576,4,.88-1.289,1.071-4,2.575-4H69.543c1.513,0,1.672,2.688,2.588,3.979.894-1.287,1.047-3.958,2.54-3.969l7.975-.058c1.268-.009,5.035.659,5.047-2.185l.013-3.09a1.309,1.309,0,1,1,2.614.008l0,3.093a4.883,4.883,0,0,1-5.112,4.843l-9.561-.02-2.362,5.6a1.316,1.316,0,0,1-1.081.721,1.277,1.277,0,0,1-1.251-.72l-2.4-5.591-19.818,0-2.39,5.592a1.309,1.309,0,0,1-1.25.718,1.4,1.4,0,0,1-1.167-.874l-2.3-5.437H21.809l-2.4,5.59a1.3,1.3,0,0,1-1.248.725,1.528,1.528,0,0,1-1.257-1.06l-2.187-5.265-9.568.021a4.891,4.891,0,0,1-5.1-4.848l0-13.339A4.809,4.809,0,0,1,4.9.008L12.617,0a1.47,1.47,0,0,1,1.506,1.307" transform="translate(-0.028 0)" fill="#060505"/>
        <path id="Trazado_1259621" data-name="Trazado 1259621" d="M122.73,10.252a1.394,1.394,0,0,1-1.3-1.28l-.028-4.1a2.251,2.251,0,0,0-2.223-2.247c-.946-.06-1.784.057-2.8.056L52.757,2.618a1.3,1.3,0,0,1-1.426-1.292A1.37,1.37,0,0,1,52.783,0l66.343.006a4.791,4.791,0,0,1,4.907,4.851l.006,3.876a1.482,1.482,0,0,1-1.309,1.519" transform="translate(-33.739 -0.001)" fill="#020202"/>
        <path id="Trazado_1259622" data-name="Trazado 1259622" d="M247.436,15.252l-.014,3.483a1.353,1.353,0,0,0-1.3,1.376l-.014,3.09c-.012,2.844-3.779,2.176-5.047,2.185.87-1.492.739-3.8.517-5.465a3.651,3.651,0,0,0-.013-1.579,8.954,8.954,0,0,0-.011-3.593,3.66,3.66,0,0,0,.022-1.594,7.936,7.936,0,0,0,.035-4.1l-.524-1.372c1.016,0,1.853-.116,2.8-.056a2.251,2.251,0,0,1,2.223,2.247l.028,4.1a1.394,1.394,0,0,0,1.3,1.28" transform="translate(-158.444 -5.002)" fill="#bad1ef"/>
        <path id="Trazado_1259623" data-name="Trazado 1259623" d="M112,24.781,89,24.774a1.341,1.341,0,0,1-1.3-1.384c.031-.806.6-1.265,1.507-1.265l22.816,0a1.258,1.258,0,0,1,1.382,1.264,1.328,1.328,0,0,1-1.4,1.39" transform="translate(-57.64 -14.542)" fill="#020202"/>
        <path id="Trazado_1259624" data-name="Trazado 1259624" d="M125.37,40.076l-23.187.024a1.292,1.292,0,0,1-1.385-1.271,1.329,1.329,0,0,1,1.408-1.406l22.993.006a1.328,1.328,0,0,1,1.293,1.206c.046.461-.187,1.44-1.122,1.441" transform="translate(-66.251 -24.597)" fill="#020202"/>
        <path id="Trazado_1259625" data-name="Trazado 1259625" d="M38.706,24.775l-16.637.01a1.367,1.367,0,0,1-1.4-1.147,1.3,1.3,0,0,1,1.385-1.507l16.664.009a1.235,1.235,0,0,1,1.31,1.246,1.324,1.324,0,0,1-1.32,1.389" transform="translate(-13.578 -14.546)" fill="#020202"/>
        <path id="Trazado_1259626" data-name="Trazado 1259626" d="M205.6,37.938a3.652,3.652,0,0,1,.013,1.579,2.441,2.441,0,0,1-1.819.592l-16.151-.022a1.265,1.265,0,0,1-1.293-1.489,1.316,1.316,0,0,1,1.315-1.167l16.625-.008a3.13,3.13,0,0,1,1.31.515" transform="translate(-122.476 -24.597)" fill="#020202"/>
        <path id="Trazado_1259627" data-name="Trazado 1259627" d="M184.994,24.759l-10.574.005a1.335,1.335,0,0,1-1.232-1.325,1.306,1.306,0,0,1,1.434-1.307l10.273.01a1.294,1.294,0,0,1,1.372,1.254,1.321,1.321,0,0,1-1.274,1.363" transform="translate(-113.831 -14.547)" fill="#020202"/>
        <path id="Trazado_1259628" data-name="Trazado 1259628" d="M63.915,40.08l-10.4.008a1.319,1.319,0,0,1-1.368-1.262,1.355,1.355,0,0,1,1.39-1.4l10.223-.013A1.363,1.363,0,0,1,65.2,38.583a1.283,1.283,0,0,1-1.281,1.5" transform="translate(-34.276 -24.592)" fill="#020202"/>
        <path id="Trazado_1259629" data-name="Trazado 1259629" d="M26.55,39.943l-4.518.013a1.311,1.311,0,0,1-1.39-1.255,1.343,1.343,0,0,1,1.413-1.4c2.493-.014,5.627-.519,5.828,1.171a1.286,1.286,0,0,1-1.333,1.475" transform="translate(-13.566 -24.461)" fill="#060505"/>
        <path id="Trazado_1259630" data-name="Trazado 1259630" d="M228.841,22.681a3.668,3.668,0,0,1-.022,1.594c-.593.717-4.631.524-5.852.462a1.318,1.318,0,1,1,.2-2.625L227.3,22.1a2.228,2.228,0,0,1,1.543.579" transform="translate(-145.708 -14.527)" fill="#060505"/>
        <path id="Trazado_1259631" data-name="Trazado 1259631" d="M85.913,112.394c-.878.041-1.5-.914-1.512-1.7a11.4,11.4,0,0,0-22.724-1.2,35.064,35.064,0,0,0-.315,3.92l.04,13.273c4.079-1.109,5.194.322,6.561-4.185a9.815,9.815,0,0,1-4.746-6.3c-.25-1.182.427-2.267.664-3.31.9-3.939,3.686-6.439,7.342-7.78a3.928,3.928,0,0,1,3.442-.117,13.107,13.107,0,0,1,6.555,4.8c1.266,3.519,2.693,6.222.27,9.791-.765,1.127-2.22,1.879-3.185,2.9-.329.348.777,4.018,3.258,3.508a22.487,22.487,0,0,0,2.979.626l.044-9.357a1.317,1.317,0,1,1,2.632,0l0,11a9.32,9.32,0,0,1,3.089,7.224l-.034,13.569a1.275,1.275,0,0,1-1.4,1.263,1.347,1.347,0,0,1-1.249-1.288l.048-11.246a18.56,18.56,0,0,0-.137-3.522l-2.725,4.285.059,10.494a1.522,1.522,0,0,1-1.372,1.281,1.385,1.385,0,0,1-1.4-1.286l.045-11.18,4.1-6.738c-1.172-1.66-3.063-2.063-4.9-2.4a3.142,3.142,0,0,0-3.069.646,8.158,8.158,0,0,1-10.571-.031,2.955,2.955,0,0,0-2.848-.637c-1.912.328-3.874.716-5.071,2.43l4.092,6.694.064,11.228a1.374,1.374,0,0,1-2.742-.02c-.024-3.426.2-6.887-.068-10.437-.466-1.491-1.8-2.8-2.5-4.214-.514,1.086-.141,2.007-.169,2.923-.12,3.91-.1,7.834,0,11.745a1.477,1.477,0,0,1-1.38,1.282,1.409,1.409,0,0,1-1.38-1.308l.017-14.051a9.816,9.816,0,0,1,2.855-6.57,2.563,2.563,0,0,0-.065-2.381c-1.185-1.891-3.371-2.322-5.382-2.609-1.125-.161-1.672-.261-2.563.525a8.145,8.145,0,0,1-10.81.03c-1-.871-1.586-.648-2.78-.532-2.736.265-5.363,1.474-6.129,4.368a8.95,8.95,0,0,1,3.743,7.424l.016,13.794a1.411,1.411,0,0,1-1.38,1.308,1.466,1.466,0,0,1-1.383-1.281c.1-3.912.118-7.836,0-11.747-.027-.912.348-1.813-.168-2.956-.681,1.445-2.035,2.743-2.5,4.25-.272,3.548-.041,7.011-.069,10.436a1.39,1.39,0,0,1-1.5,1.295,1.416,1.416,0,0,1-1.242-1.271l.066-11.221,4.094-6.7c-1.143-1.644-3.01-2.076-4.843-2.4a3.185,3.185,0,0,0-3.081.594,8.159,8.159,0,0,1-10.6.025,2.9,2.9,0,0,0-2.8-.663c-1.929.331-3.91.694-5.142,2.436l4.1,6.735L8.2,149.031a1.391,1.391,0,0,1-1.4,1.286,1.5,1.5,0,0,1-1.374-1.282c.013-3.432.254-6.923-.068-10.478-.443-1.541-1.833-2.847-2.535-4.3a6.941,6.941,0,0,0-.132,2.969l-.02,11.8a1.346,1.346,0,0,1-1.485,1.285A1.375,1.375,0,0,1,0,148.8L.042,134.7a8.709,8.709,0,0,1,8.585-8.534,3.134,3.134,0,0,0,3.211-3.185,10.84,10.84,0,0,1-5.081-6.555c-1.163-3.854-4.152-5.319-.711-13.342a1.651,1.651,0,0,1,2.208-.956,1.718,1.718,0,0,1,.247,2.065,13.191,13.191,0,0,0-1.061,3.1,5.9,5.9,0,0,0,.75,5.507l1.727-2.552a1.436,1.436,0,0,1,1.583-.364A9.417,9.417,0,0,0,21.883,106.3c.241-.339.569-.53.742-.812,2.874-.173,1.426,4.331,3.62,7.465,1.541-1.681,1.279-3.812.877-5.856a9.044,9.044,0,0,0-8.42-7.556c-6.644-.424-5.536,1.9-7.875.317-.037-.636-.138-1.538.638-1.89a14.607,14.607,0,0,1,9.982-.622,11.644,11.644,0,0,1,8.261,9.186c1.226,5.71-.615,5.91-1.8,9.692a11.417,11.417,0,0,1-5.268,6.849c.714,3.365,2.646,2.952,5.793,3.378,4.013-8.554,10.832-3.059,11.22-8.674a12.128,12.128,0,0,1-5.124-6.833c-.941-3.343-3.158-3.871-1.714-10.116A11.517,11.517,0,0,1,40.18,92.3c7.03-2.519,15.312.319,17.262,8.537,1.466,6.179-.745,6.738-1.688,10.059a12.2,12.2,0,0,1-5.1,6.865c.22,4.373,4.244,2.084,8.1,4.661l.117-11.727a14.1,14.1,0,0,1,28.178-.533c.026.485.224,1.126-.069,1.553a1.878,1.878,0,0,1-1.06.682M48.8,101.3a2,2,0,0,1,1.483-.579,1.5,1.5,0,0,1,1.069.843l2.974,5.669c1.388-1.749,1-3.578.636-5.4-1.258-6.283-6.925-8.685-12.6-7.436a9.159,9.159,0,0,0-7.119,7.647c-.339,1.771-.656,3.553.711,5.193l3.073-5.866a1.259,1.259,0,0,1,1.33-.633,2.581,2.581,0,0,1,1.172.619A4.93,4.93,0,0,0,48.8,101.3m4.231,9.22-3.41-6.455a7.468,7.468,0,0,1-9.017,0l-3.37,6.511a8.212,8.212,0,0,0,15.8-.061m27.114,5.106c.185-1.212-.626-2.609-.947-3.579-.76-2.292-2.768-3.43-4.8-4.26a2.628,2.628,0,0,0-2.576-.021c-4.045,1.812-4.933,3.267-5.9,7.969.629,3.366,4.035,5.562,7.306,5.461,3.053-.095,6.409-2.209,6.921-5.57M9.4,116.08a8.314,8.314,0,0,0,8.183,5.766c3.186-.105,6.828-2.382,7.419-5.87-.9-1.8-2.472-3.769-2.75-6.066a12.464,12.464,0,0,1-10.791,2.755ZM49.277,121.5a19.923,19.923,0,0,1-1.37-2.623,14.522,14.522,0,0,1-5.54-.018c-.472.944-.834,1.8-1.374,2.7a5.681,5.681,0,0,0,8.284-.055m27.861,5.3-1.679-3.268a10.53,10.53,0,0,1-4.92.005c-.567,1.155-.972,2.174-1.629,3.316a5.59,5.59,0,0,0,8.228-.054m-55.731.025-1.446-2.683a10.643,10.643,0,0,1-5.353-.02l-1.426,2.727a5.612,5.612,0,0,0,8.225-.024" transform="translate(0 -60.08)" fill="#060505"/>
        <path id="Trazado_1259632" data-name="Trazado 1259632" d="M196.772,220.33l-18.158.009-.065-11.227-4.092-6.694c1.2-1.715,3.159-2.1,5.071-2.43a2.955,2.955,0,0,1,2.848.637,8.157,8.157,0,0,0,10.571.031,3.142,3.142,0,0,1,3.07-.645c1.841.338,3.732.742,4.9,2.4l-4.1,6.737Z" transform="translate(-114.667 -131.38)" fill="#fc7e85"/>
        <path id="Trazado_1259633" data-name="Trazado 1259633" d="M231.528,128.555l.029,3.5a1.345,1.345,0,0,0-1.357,1.364l-.044,9.357a22.409,22.409,0,0,1-2.979-.626l-.073-6.406c2.423-3.569,1-6.273-.27-9.791a12.078,12.078,0,0,0-4.989-9.27.871.871,0,0,1-.3-.686,11.168,11.168,0,0,1,8.474,10.863c.015.782.634,1.737,1.512,1.7" transform="translate(-145.615 -76.241)" fill="#6c626e"/>
        <path id="Trazado_1259634" data-name="Trazado 1259634" d="M173.131,231.409l-1.457-.052-.026-9.4a2.907,2.907,0,0,0-1.256-2.272c.028-.916-.345-1.837.169-2.923.7,1.412,2.036,2.723,2.5,4.214.269,3.551.044,7.011.068,10.437" transform="translate(-111.926 -142.47)" fill="#f0c7b7"/>
        <path id="Trazado_1259635" data-name="Trazado 1259635" d="M250.349,219.952c-.122-.1-.155-.223-.277-.524-.331.579-1.07,1.25-1.079,2.094l-.1,9.63-1.347.058-.06-10.494,2.725-4.285a18.561,18.561,0,0,1,.137,3.522" transform="translate(-162.667 -142.254)" fill="#f0c7b7"/>
        <path id="Trazado_1259636" data-name="Trazado 1259636" d="M253.046,225.7,253,236.948a8.393,8.393,0,0,1-1.407-.047l.1-9.63c.009-.844.747-1.515,1.079-2.094.122.3.155.429.277.524" transform="translate(-165.364 -148.003)" fill="#fbdbcc"/>
        <path id="Trazado_1259637" data-name="Trazado 1259637" d="M171.714,236.963a8.465,8.465,0,0,1-1.284.069c-.1-3.911-.118-7.834,0-11.745a2.908,2.908,0,0,1,1.256,2.272Z" transform="translate(-111.966 -148.076)" fill="#fbdbcc"/>
        <path id="Trazado_1259638" data-name="Trazado 1259638" d="M193.611,115.167a.873.873,0,0,0,.3.687,12.077,12.077,0,0,1,4.989,9.27,13.111,13.111,0,0,0-6.556-4.8,3.93,3.93,0,0,0-3.442.117c-3.656,1.341-6.445,3.841-7.342,7.78-.237,1.043-.914,2.128-.664,3.31a9.815,9.815,0,0,0,4.746,6.3c-1.367,4.507-2.481,3.076-6.561,4.185l-.04-13.273a35.068,35.068,0,0,1,.315-3.92,11.207,11.207,0,0,1,14.25-9.663" transform="translate(-117.683 -75.413)" fill="#7d747f"/>
        <path id="Trazado_1259639" data-name="Trazado 1259639" d="M206.558,146.362c-.512,3.362-3.868,5.476-6.921,5.57-3.271.1-6.677-2.1-7.306-5.461.97-4.7,1.857-6.158,5.9-7.97a2.628,2.628,0,0,1,2.576.022c2.034.83,4.041,1.968,4.8,4.26.321.97,1.132,2.367.947,3.579" transform="translate(-126.415 -90.819)" fill="#fbdbcc"/>
        <path id="Trazado_1259640" data-name="Trazado 1259640" d="M209.292,188.39a5.59,5.59,0,0,1-8.228.054c.657-1.142,1.062-2.161,1.629-3.317a10.526,10.526,0,0,0,4.92-.005Z" transform="translate(-132.155 -121.676)" fill="#f0c7b7"/>
        <path id="Trazado_1259641" data-name="Trazado 1259641" d="M231.629,180.021c-2.481.509-3.587-3.16-3.258-3.508.965-1.019,2.42-1.771,3.185-2.9Z" transform="translate(-150.066 -114.113)" fill="#7d747f"/>
        <path id="Trazado_1259642" data-name="Trazado 1259642" d="M114.863,210.152h-21.1l-.015-13.794a8.95,8.95,0,0,0-3.743-7.424c.765-2.894,3.392-4.1,6.129-4.368,1.193-.116,1.782-.339,2.78.532a8.145,8.145,0,0,0,10.81-.03c.89-.787,1.438-.686,2.563-.525,2.012.287,4.2.718,5.382,2.609a2.563,2.563,0,0,1,.065,2.381,9.816,9.816,0,0,0-2.855,6.57ZM109.344,204a2.676,2.676,0,0,0,2.624-2.49l.036-6.46a2.783,2.783,0,0,0-2.81-2.812h-9.76a2.783,2.783,0,0,0-2.812,2.811l.037,6.455a2.736,2.736,0,0,0,2.761,2.514Z" transform="translate(-59.159 -121.221)" fill="#b9e96b"/>
        <path id="Trazado_1259643" data-name="Trazado 1259643" d="M87.532,219.612a2.929,2.929,0,0,0-1.256,2.274l-.023,9.411-1.46.045c.028-3.426-.2-6.888.069-10.437.467-1.507,1.822-2.8,2.5-4.25.515,1.143.14,2.044.168,2.956" transform="translate(-55.689 -142.403)" fill="#f0c7b7"/>
        <path id="Trazado_1259644" data-name="Trazado 1259644" d="M90.459,237.028a9.791,9.791,0,0,1-1.28-.062l.023-9.411a2.929,2.929,0,0,1,1.256-2.274c.119,3.912.1,7.836,0,11.747" transform="translate(-58.615 -148.072)" fill="#fbdbcc"/>
        <path id="Trazado_1259645" data-name="Trazado 1259645" d="M124.433,134.788a8.212,8.212,0,0,1-15.8.061l3.37-6.511a7.468,7.468,0,0,0,9.017,0Z" transform="translate(-71.403 -84.35)" fill="#c37e5c"/>
        <path id="Trazado_1259646" data-name="Trazado 1259646" d="M115.817,106.411a4.93,4.93,0,0,1-7.273.055,2.58,2.58,0,0,0-1.172-.619,1.261,1.261,0,0,0-1.33.633l-3.073,5.866c-1.367-1.64-1.05-3.422-.711-5.193a9.159,9.159,0,0,1,7.119-7.646c5.678-1.249,11.344,1.153,12.6,7.436.365,1.824.752,3.653-.636,5.4l-2.974-5.669a1.5,1.5,0,0,0-1.069-.843,2,2,0,0,0-1.483.579" transform="translate(-67.019 -65.193)" fill="#fadc7b"/>
        <path id="Trazado_1259647" data-name="Trazado 1259647" d="M127.892,174.134a5.682,5.682,0,0,1-8.284.055c.54-.893.9-1.752,1.374-2.7a14.536,14.536,0,0,0,5.54.018,19.944,19.944,0,0,0,1.37,2.623" transform="translate(-78.615 -112.718)" fill="#b36c4f"/>
        <path id="Trazado_1259648" data-name="Trazado 1259648" d="M122.03,218.986l-9.924.019a2.736,2.736,0,0,1-2.761-2.514l-.037-6.456a2.783,2.783,0,0,1,2.812-2.811h9.76a2.783,2.783,0,0,1,2.81,2.812l-.036,6.46a2.676,2.676,0,0,1-2.624,2.49m.028-2.714-.033-6.425-10.053,0,.022,6.5Z" transform="translate(-71.846 -136.203)" fill="#060505"/>
        <path id="Trazado_1259649" data-name="Trazado 1259649" d="M127.165,221.3l-10.065.073-.022-6.5,10.053,0Z" transform="translate(-76.953 -141.233)" fill="#e8e8e8"/>
        <path id="Trazado_1259650" data-name="Trazado 1259650" d="M34.135,220.339l-18.156-.013-.047-11.182-4.1-6.735c1.232-1.742,3.213-2.1,5.142-2.436a2.9,2.9,0,0,1,2.8.663,8.159,8.159,0,0,0,10.6-.025,3.185,3.185,0,0,1,3.081-.594c1.834.322,3.7.753,4.843,2.4l-4.094,6.7Z" transform="translate(-7.773 -131.376)" fill="#dabcf7"/>
        <path id="Trazado_1259651" data-name="Trazado 1259651" d="M32.291,115.046c-.024.352.188.6.52.852a9.157,9.157,0,0,1,3.4,5.095c-.173.281-.5.473-.742.812a9.416,9.416,0,0,1-10.382,3.576,1.437,1.437,0,0,0-1.583.364L21.78,128.3a5.9,5.9,0,0,1-.75-5.506,13.209,13.209,0,0,1,1.061-3.1,1.718,1.718,0,0,0-.247-2.065,7.465,7.465,0,0,1,2.572-2.265c2.339,1.585,1.231-.742,7.875-.318" transform="translate(-13.59 -75.582)" fill="#c37e5c"/>
        <path id="Trazado_1259652" data-name="Trazado 1259652" d="M10.406,231.2l-1.353-.061-.073-9.4a3.241,3.241,0,0,0-1.309-2.35A6.943,6.943,0,0,1,7.8,216.42c.7,1.457,2.092,2.763,2.535,4.3.321,3.555.081,7.046.068,10.479" transform="translate(-4.976 -142.248)" fill="#f0c7b7"/>
        <path id="Trazado_1259653" data-name="Trazado 1259653" d="M9.21,236.835a8.658,8.658,0,0,1-1.4.05l.02-11.8a3.241,3.241,0,0,1,1.308,2.35Z" transform="translate(-5.133 -147.942)" fill="#fbdbcc"/>
        <path id="Trazado_1259654" data-name="Trazado 1259654" d="M27.433,151.562l2.062-3.415a12.465,12.465,0,0,0,10.79-2.755c.279,2.3,1.854,4.264,2.75,6.066-.592,3.488-4.234,5.765-7.419,5.87a8.314,8.314,0,0,1-8.183-5.766" transform="translate(-18.031 -95.563)" fill="#fbdbcc"/>
        <path id="Trazado_1259655" data-name="Trazado 1259655" d="M58.486,121.094a9.157,9.157,0,0,0-3.4-5.094c-.332-.256-.545-.5-.521-.853a9.044,9.044,0,0,1,8.42,7.556c.4,2.044.664,4.175-.877,5.856-2.194-3.135-.745-7.638-3.62-7.465" transform="translate(-35.861 -75.683)" fill="#b36c4f"/>
        <path id="Trazado_1259656" data-name="Trazado 1259656" d="M46.684,189.546a5.612,5.612,0,0,1-8.225.024l1.426-2.727a10.643,10.643,0,0,0,5.353.02Z" transform="translate(-25.278 -122.807)" fill="#f0c7b7"/>
      </g>
    </g>
  </g>
</svg>
