<svg xmlns="http://www.w3.org/2000/svg" xmlns:xlink="http://www.w3.org/1999/xlink" width="70" height="70" viewBox="0 0 70 70">
  <defs>
    <clipPath id="clip-path">
      <rect id="Rectángulo_411689" data-name="Rectángulo 411689" width="52.746" height="52.713" fill="none"/>
    </clipPath>
  </defs>
  <g id="Grupo_1202266" data-name="Grupo 1202266" transform="translate(-621.835 -3716)">
    <circle id="Elipse_12371" data-name="Elipse 12371" cx="35" cy="35" r="35" transform="translate(621.835 3716)" fill="#ffc94a"/>
    <g id="Grupo_1213311" data-name="Grupo 1213311" transform="translate(627.462 3726.643)">
      <g id="Grupo_1213310" data-name="Grupo 1213310" clip-path="url(#clip-path)">
        <path id="Trazado_1260019" data-name="Trazado 1260019" d="M123.637,18.039c-1.733,6.883-8.405,10.355-14.98,9.855a2.56,2.56,0,0,1-2.28-2.658,2.652,2.652,0,0,1,2.559-2.492,14.908,14.908,0,0,0,4.737-.809,7.368,7.368,0,0,0,4.821-6.893,20.859,20.859,0,0,1,1.081-6.467A12.373,12.373,0,0,1,127.818.788a17.127,17.127,0,0,1,6.07-.75,2.618,2.618,0,0,1,2.387,2.63A2.638,2.638,0,0,1,133.8,5.233a16.527,16.527,0,0,0-4.589.679,6.73,6.73,0,0,0-3.813,3.18c-1.907,3.55-.838,5.273-1.764,8.948M133.771,3.726a1.108,1.108,0,0,0,1-1.2c-.029-.375-.458-1-.957-.99l-2.354.051a6.713,6.713,0,0,1,.457,2.267Zm-3.623.227c.644-.263.029-2.043-.66-1.982a9.167,9.167,0,0,0-3.6,1.277,6.241,6.241,0,0,1,1.31,1.911Zm-5.687,3.756,1.2-1.469c.268-.653-.446-2.112-1.259-1.836-1.022.346-1.705,1.652-2.294,2.413a8.36,8.36,0,0,1,2.355.892M122.7,12.35l.884-3.189c-.251-.651-1.842-1.131-2.31-.5a7.415,7.415,0,0,0-.979,3.412,10.032,10.032,0,0,1,2.406.273m-.927,6.676a12.735,12.735,0,0,0,.8-4.866,1.893,1.893,0,0,0-2.451-.265,25.483,25.483,0,0,1-.6,4.015,6.655,6.655,0,0,1,2.251,1.116m-4.242,5.205a9.322,9.322,0,0,0,3.338-3.506c.033-.762-1.344-1.555-1.991-1.207a22.769,22.769,0,0,1-2.333,2.6,5.8,5.8,0,0,1,.986,2.108m-5.569,2.062a15.86,15.86,0,0,0,3.765-1.1c.52-.583.123-2.165-.68-2.118l-3.23.955Zm-2.014.17a1.656,1.656,0,0,0,.151-2.238,3.376,3.376,0,0,0-1.579.135,1.278,1.278,0,0,0-.663.993c-.027.935,1.206,1.292,2.091,1.11" transform="translate(-84.286 0)"/>
        <path id="Trazado_1260028" data-name="Trazado 1260028" d="M27.729,98.6a15.725,15.725,0,0,1-8.686-1.729,12.307,12.307,0,0,1-6.319-7.788c-1.063-3.835.128-5.223-1.7-9A6.769,6.769,0,0,0,7,76.622a16.576,16.576,0,0,0-4.514-.65A2.652,2.652,0,0,1,0,73.453,2.619,2.619,0,0,1,2.313,70.79a16.564,16.564,0,0,1,6.207.753,12.386,12.386,0,0,1,8.273,8.02,22.708,22.708,0,0,1,1.028,6.41,7.28,7.28,0,0,0,4.939,6.758,17.688,17.688,0,0,0,4.826.79A2.593,2.593,0,0,1,29.9,95.888a2.523,2.523,0,0,1-2.17,2.716M4.338,74.567a7.4,7.4,0,0,1,.5-2.25l-2.183-.077a1.145,1.145,0,0,0-1.132,1.082A1.116,1.116,0,0,0,2.6,74.474ZM9.09,75.885a6,6,0,0,1,1.33-1.923A13.059,13.059,0,0,0,6.779,72.64c-.7.192-1.344,1.787-.58,2.092Zm2.743,2.574a7.147,7.147,0,0,1,2.349-.908A10.359,10.359,0,0,0,11.9,75c-.819.181-1.684,1.183-1.206,2.011a15.289,15.289,0,0,0,1.142,1.451M16.058,82.8a16.962,16.962,0,0,0-.976-3.5c-.83-.311-2.031-.176-2.386.63l.892,3.156a11.267,11.267,0,0,1,2.47-.284m.694,5.811a28.486,28.486,0,0,1-.6-3.971,1.717,1.717,0,0,0-2.4.316,11.184,11.184,0,0,0,.751,4.81,8.264,8.264,0,0,1,2.243-1.156m2.965,4.2a11.567,11.567,0,0,1-2.265-2.591c-.824-.2-2.038.432-2.047,1.281a9.534,9.534,0,0,0,3.353,3.47,7.694,7.694,0,0,1,.959-2.159m4.78,1.952-3.3-.913c-.718-.2-1.233,1.688-.6,2.049A10.435,10.435,0,0,0,24.411,97a8.167,8.167,0,0,1,.085-2.24m3.67,1.966a1.062,1.062,0,0,0-.477-1.657,2.845,2.845,0,0,0-1.432-.086,1.521,1.521,0,0,0,.021,2.158,1.8,1.8,0,0,0,1.888-.414" transform="translate(0 -56.05)"/>
        <path id="Trazado_1260029" data-name="Trazado 1260029" d="M126.64,139.173c-2.386,5.716-8.511,8.433-14.281,8.044a2.589,2.589,0,0,1-2.381-2.613,2.653,2.653,0,0,1,2.455-2.55,17.9,17.9,0,0,0,4.45-.667,7.388,7.388,0,0,0,5.211-6.992,21.259,21.259,0,0,1,1.034-6.368,12.342,12.342,0,0,1,7.782-7.769,16.483,16.483,0,0,1,6.693-.891,2.6,2.6,0,0,1,2.28,2.676,2.649,2.649,0,0,1-2.526,2.493c-3.306.131-6.669.634-8.384,3.922-2.2,4.225-.428,6.146-2.335,10.716m10.866-16.163c.549-.037.88-.723.87-1.1-.042-1.561-2.363-1.107-3.32-1a7.5,7.5,0,0,1,.5,2.227Zm-3.72.326c.449-.553.121-2.044-.711-2.041a9.037,9.037,0,0,0-3.6,1.236,5.921,5.921,0,0,1,1.314,1.913Zm-5.672,3.653,1.108-1.436c.452-.586-.465-2.108-1.2-1.888-1.017.4-1.7,1.631-2.292,2.418a14.839,14.839,0,0,1,2.379.907m-1.813,4.654.883-3.161c-.207-.685-1.882-1.149-2.323-.5a8.36,8.36,0,0,0-.987,3.4,7.716,7.716,0,0,1,2.428.264m-.909,6.7a12.211,12.211,0,0,0,.759-4.811,1.759,1.759,0,0,0-2.434-.312,34.725,34.725,0,0,1-.556,4.032,5.724,5.724,0,0,1,2.231,1.091m-4.215,5.173a10.008,10.008,0,0,0,3.354-3.507c-.14-.77-1.533-1.687-2.105-1.061a24.234,24.234,0,0,1-2.27,2.454,8.939,8.939,0,0,1,1.021,2.114m-1.839.864c.609-.467-.024-2.1-.644-2.008l-3.281.975a12.15,12.15,0,0,1,.08,2.261c1.295-.324,2.777-.409,3.846-1.228M113.7,145.56a1.51,1.51,0,0,0-.026-2.01,3.324,3.324,0,0,0-1.495.1,1.109,1.109,0,0,0-.665,1.243c.185,1,1.858,1.049,2.186.672" transform="translate(-87.142 -94.54)"/>
      </g>
    </g>
  </g>
</svg>
