<svg xmlns="http://www.w3.org/2000/svg" xmlns:xlink="http://www.w3.org/1999/xlink" width="345.053" height="187.4" viewBox="0 0 345.053 187.4">
  <defs>
    <filter id="Rectángulo_410074" x="0" y="0" width="345.053" height="187.4" filterUnits="userSpaceOnUse">
      <feOffset dy="3" input="SourceAlpha"/>
      <feGaussianBlur stdDeviation="3" result="blur"/>
      <feFlood flood-opacity="0.161"/>
      <feComposite operator="in" in2="blur"/>
      <feComposite in="SourceGraphic"/>
    </filter>
    <filter id="influencer-their-pet-creating-content-online-spaces-social-media" x="56.728" y="62.256" width="231.597" height="95.549" filterUnits="userSpaceOnUse">
      <feOffset dy="3" input="SourceAlpha"/>
      <feGaussianBlur stdDeviation="3" result="blur-2"/>
      <feFlood flood-opacity="0.161"/>
      <feComposite operator="in" in2="blur-2"/>
      <feComposite in="SourceGraphic"/>
    </filter>
    <filter id="Rectángulo_401593" x="99.445" y="25.996" width="78.575" height="131.808" filterUnits="userSpaceOnUse">
      <feOffset dy="3" input="SourceAlpha"/>
      <feGaussianBlur stdDeviation="3" result="blur-3"/>
      <feFlood flood-opacity="0.161"/>
      <feComposite operator="in" in2="blur-3"/>
      <feComposite in="SourceGraphic"/>
    </filter>
    <clipPath id="clip-path">
      <rect id="Rectángulo_411682" data-name="Rectángulo 411682" width="107.994" height="107.992" fill="none"/>
    </clipPath>
  </defs>
  <g id="Grupo_1213535" data-name="Grupo 1213535" transform="translate(-316.637 -3027.6)">
    <g id="Grupo_1202632" data-name="Grupo 1202632" transform="translate(125.637 -2448.767)">
      <g transform="matrix(1, 0, 0, 1, 191, 5476.37)" filter="url(#Rectángulo_410074)">
        <rect id="Rectángulo_410074-2" data-name="Rectángulo 410074" width="327.053" height="169.4" rx="10" transform="translate(9 6)" fill="#fff9eb"/>
      </g>
    </g>
    <g id="Grupo_1213205" data-name="Grupo 1213205" transform="translate(-847.584 936.891)">
      <g transform="matrix(1, 0, 0, 1, 1164.22, 2090.71)" filter="url(#influencer-their-pet-creating-content-online-spaces-social-media)">
        <path id="influencer-their-pet-creating-content-online-spaces-social-media-2" data-name="influencer-their-pet-creating-content-online-spaces-social-media" d="M0,0H213.6V77.549H0Z" transform="translate(65.73 68.26)" fill="#5a8441"/>
      </g>
      <g id="Grupo_1182090" data-name="Grupo 1182090" transform="translate(1272.666 2122.705)">
        <g transform="matrix(1, 0, 0, 1, -108.45, -32)" filter="url(#Rectángulo_401593)">
          <rect id="Rectángulo_401593-2" data-name="Rectángulo 401593" width="60.575" height="113.808" rx="8" transform="translate(108.45 32)" fill="#ffc94a"/>
        </g>
      </g>
      <g id="Grupo_1213299" data-name="Grupo 1213299" transform="translate(1272.666 2128.521)">
        <g id="Grupo_1213298" data-name="Grupo 1213298" clip-path="url(#clip-path)">
          <path id="Trazado_1259916" data-name="Trazado 1259916" d="M107.952,84.978c-.608,1.061-1.622,1.254-2.913,1.083-4.778-.63-9.284-3.134-11.16-7.734-1.271-3.117-3.754-5.683-7.371-5.713a11.6,11.6,0,0,1-11.023-7.252c-1.335-3.442-4.42-6.232-8.277-6.243l-16.576-.048.035,11.522A13.282,13.282,0,0,1,66.5,67.028a14.147,14.147,0,0,1,7.163,9.261,2.25,2.25,0,0,0,2.127,1.7c7.836.989,13.214,7.228,11.686,15.67a13.372,13.372,0,0,1-12.931,10.883c-6.629.155-12.709-2.606-17.788-6.657l-6.113-.025C43.7,97.83,38.881,92.13,39.088,85.25l.777-25.834c-2.843.639-5.79,2.339-6.883,5.125a12.058,12.058,0,0,1-11.5,8.078c-3.567-.007-6.064,2.617-7.35,5.718-2.132,5.139-7.6,7.91-13,7.691C.576,85.892.4,85.164.065,84.978c-.124-1.37.473-2.285,1.843-2.3,3.6-.053,7.616-1.953,9-5.475a12.03,12.03,0,0,1,11.538-8.083c3.4,0,6.206-2.594,7.249-5.724,1.938-4.132,5.714-6.614,10.253-7.519l.508-16.957-16.819-.046A23.7,23.7,0,0,1,.017,15.028l.02-8.282A1.684,1.684,0,0,1,1.864,5.059l22.65.014c9.081.408,16.771,5.553,20.868,14.166C49.662,7.969,59.72.1,71.817.069L97.86,0a1.768,1.768,0,0,1,1.721,1.84l-.017,8.891c-.03,15.736-13.26,28.2-29.011,28.128L50.628,38.9l0,16.756,16.538.025A12.835,12.835,0,0,1,78.49,63.828a7.9,7.9,0,0,0,7.079,5.29A12.021,12.021,0,0,1,97.1,77.2c1.393,3.54,5.4,5.387,8.992,5.49a1.765,1.765,0,0,1,1.567.691,2.5,2.5,0,0,1,.29,1.6M74.839,11.029a2.042,2.042,0,0,1-1.122,2.508C64.539,18.742,55.066,26.2,48.874,35.38l22.907-.033c13.537-.019,24.5-11.491,24.4-24.9l-.052-7.087c-1.453.242-2.934-.334-4.083.09l-18.972-.08a25.5,25.5,0,0,0-25.7,28.239C53.931,22.886,62.649,15.927,72.2,10.5a1.858,1.858,0,0,1,2.634.528M20.315,13.5a2,2,0,0,1,2.74-.572A69.034,69.034,0,0,1,43.722,31.43a20.323,20.323,0,0,0-20.4-22.982L9.525,8.542,3.469,8.435,3.4,16c.459,10.408,8.76,19.328,19.324,19.343l19.585.028a64.544,64.544,0,0,0-21.37-19.782c-.781-.457-.6-1.462-.628-2.092M47.3,82.055,47.25,38.971a6.777,6.777,0,0,0-3.43.046L42.5,85.177c-.083,2.908.628,5.357,2.594,7.138a8.92,8.92,0,0,0,7.744,2.034A16.1,16.1,0,0,1,47.3,82.055M82.975,96.2a10.069,10.069,0,0,0-.264-10.757,10.584,10.584,0,0,0-7.521-4.123,5.565,5.565,0,0,1-4.868-4.358,10.337,10.337,0,0,0-5.387-6.912,9.838,9.838,0,0,0-9.714.817c-3.357,2.415-4.627,6.387-4.582,10.419.076,6.894,2.745,9.073,7.406,13.227,6.875,6.129,19.824,10.569,24.93,1.686" transform="translate(-0.012)" fill="#292928"/>
          <path id="Trazado_1259917" data-name="Trazado 1259917" d="M185.237,18.46c1.07-.326,1.995-1.283,3.145-1.289.774,0,1.551.741,2.3.064a1.98,1.98,0,0,0,.69-1.852l11.075-4.5c1.148-.425,2.63.152,4.083-.09l.052,7.087c.1,13.411-10.866,24.882-24.4,24.9l-22.907.033c6.193-9.179,15.665-16.638,24.843-21.843a2.042,2.042,0,0,0,1.122-2.508" transform="translate(-110.41 -7.431)" fill="#5db032"/>
          <path id="Trazado_1259918" data-name="Trazado 1259918" d="M17.176,27.6c.072.312.362.385.727.512a62.306,62.306,0,0,1,10.063,4.441c.032.63-.154,1.635.628,2.091A64.547,64.547,0,0,1,49.963,54.43L30.378,54.4c-10.564-.015-18.865-8.935-19.324-19.343l.067-7.563Z" transform="translate(-7.663 -19.061)" fill="#5daf32"/>
          <path id="Trazado_1259919" data-name="Trazado 1259919" d="M198.743,11.063l-11.075,4.5a1.807,1.807,0,0,0-1.436-1.145,1.738,1.738,0,0,0-1.722.875,3.2,3.2,0,0,0,.166,2.058c-1.15.006-2.076.963-3.145,1.289a1.858,1.858,0,0,0-2.634-.528c-9.556,5.426-18.274,12.385-24.83,21.108a25.5,25.5,0,0,1,25.7-28.239Z" transform="translate(-106.705 -7.613)" fill="#7ec74e"/>
          <path id="Trazado_1259920" data-name="Trazado 1259920" d="M143.277,169.667a16.1,16.1,0,0,0,5.54,12.293,8.921,8.921,0,0,1-7.744-2.033c-1.966-1.781-2.677-4.23-2.594-7.138l1.321-46.16a6.773,6.773,0,0,1,3.43-.046Z" transform="translate(-95.992 -87.612)" fill="#7dc64e"/>
          <path id="Trazado_1259921" data-name="Trazado 1259921" d="M41.8,32.586a62.294,62.294,0,0,0-10.063-4.441c-.365-.127-.654-.2-.727-.512L44.8,27.538a20.323,20.323,0,0,1,20.4,22.981A69.034,69.034,0,0,0,44.54,32.014a2,2,0,0,0-2.74.572" transform="translate(-21.497 -19.089)" fill="#7ec64e"/>
          <path id="Trazado_1259922" data-name="Trazado 1259922" d="M256.487,23.31a1.979,1.979,0,0,1-.69,1.852c-.75.677-1.527-.067-2.3-.064a3.2,3.2,0,0,1-.166-2.058,1.738,1.738,0,0,1,1.721-.875,1.808,1.808,0,0,1,1.436,1.144" transform="translate(-175.523 -15.358)" fill="#292e27"/>
          <path id="Trazado_1259923" data-name="Trazado 1259923" d="M107.941,218.457l.053,23.014H0l.053-23.014c.331.186.511.914,1.065,1.05,5.4.219,10.866-2.552,13-7.691,1.287-3.1,3.784-5.725,7.35-5.718a12.058,12.058,0,0,0,11.5-8.078c1.093-2.786,4.04-4.486,6.883-5.125l-.777,25.833c-.207,6.881,4.609,12.581,11.554,12.61l6.113.026c5.079,4.051,11.159,6.812,17.788,6.657a13.372,13.372,0,0,0,12.931-10.883c1.528-8.442-3.85-14.681-11.686-15.67a2.25,2.25,0,0,1-2.127-1.7,14.146,14.146,0,0,0-7.163-9.261,13.282,13.282,0,0,0-15.832,3.566l-.035-11.522L67.2,192.6c3.857.011,6.942,2.8,8.277,6.243A11.6,11.6,0,0,0,86.5,206.094c3.617.031,6.1,2.6,7.371,5.713,1.877,4.6,6.382,7.1,11.16,7.734,1.291.17,2.3-.022,2.913-1.084m-85.324,3.62a2.85,2.85,0,0,0,1.932,1.958,2.036,2.036,0,0,0,.465,1.781,2.124,2.124,0,0,0,2.055.424,6.02,6.02,0,0,0,4.978-6.335,5.923,5.923,0,0,0-6.144-5.428,5.842,5.842,0,0,0-5.6,6.076c.06,1.154,1.248,1.6,2.32,1.525m77.7,12.08a2.819,2.819,0,0,0,1.93-1.957c.959.077,2.25-.274,2.319-1.519a5.84,5.84,0,0,0-5.615-6.081,5.9,5.9,0,1,0-.484,11.784,1.867,1.867,0,0,0,1.53-.6,2.3,2.3,0,0,0,.32-1.628M13.484,230.5a2.517,2.517,0,1,0-2.517,2.517,2.517,2.517,0,0,0,2.517-2.517m23.622,3.375a2.517,2.517,0,1,0-2.517,2.517,2.517,2.517,0,0,0,2.517-2.517" transform="translate(0 -133.479)" fill="#9a7767"/>
          <path id="Trazado_1259924" data-name="Trazado 1259924" d="M70.395,273.568c.512-1.8,4-.435,4.119-3.575a2.486,2.486,0,0,0-2.147-2.565c-3.217-.483-2.482,3.338-3.9,4.182-1.071.08-2.26-.371-2.319-1.525a5.842,5.842,0,0,1,5.6-6.076,5.923,5.923,0,0,1,6.144,5.428,6.02,6.02,0,0,1-4.978,6.336,2.125,2.125,0,0,1-2.055-.424,2.036,2.036,0,0,1-.465-1.781" transform="translate(-45.846 -183.012)" fill="#282726"/>
          <path id="Trazado_1259925" data-name="Trazado 1259925" d="M311.943,304.609c-1.416-.848-.691-4.665-3.9-4.181a2.482,2.482,0,0,0-2.147,2.566c.127,3.156,3.611,1.773,4.119,3.573a2.3,2.3,0,0,1-.32,1.628,1.868,1.868,0,0,1-1.53.6,5.9,5.9,0,1,1,.484-11.785,5.84,5.84,0,0,1,5.615,6.081c-.069,1.245-1.36,1.6-2.319,1.519" transform="translate(-209.696 -205.888)" fill="#282726"/>
          <path id="Trazado_1259926" data-name="Trazado 1259926" d="M75.653,281.211a2.849,2.849,0,0,1-1.932-1.958c1.423-.844.688-4.665,3.9-4.182a2.486,2.486,0,0,1,2.147,2.565c-.117,3.139-3.608,1.774-4.119,3.575" transform="translate(-51.105 -190.655)" fill="#865f47"/>
          <path id="Trazado_1259927" data-name="Trazado 1259927" d="M319.615,312.251a2.819,2.819,0,0,1-1.93,1.958c-.508-1.8-3.992-.417-4.119-3.572a2.482,2.482,0,0,1,2.147-2.566c3.211-.484,2.485,3.332,3.9,4.181" transform="translate(-217.368 -213.53)" fill="#865f47"/>
          <path id="Trazado_1259928" data-name="Trazado 1259928" d="M32.576,310.555a2.517,2.517,0,1,1-2.517-2.517,2.517,2.517,0,0,1,2.517,2.517" transform="translate(-19.092 -213.537)" fill="#282727"/>
          <path id="Trazado_1259929" data-name="Trazado 1259929" d="M109.576,321.555a2.517,2.517,0,1,1-2.517-2.517,2.517,2.517,0,0,1,2.517,2.517" transform="translate(-72.47 -221.162)" fill="#282727"/>
          <path id="Trazado_1259930" data-name="Trazado 1259930" d="M197.362,252.438c-5.106,8.883-18.055,4.443-24.93-1.686-4.66-4.155-7.33-6.333-7.406-13.228-.044-4.032,1.225-8,4.582-10.419a9.838,9.838,0,0,1,9.713-.817,10.336,10.336,0,0,1,5.387,6.913,5.565,5.565,0,0,0,4.868,4.358,10.583,10.583,0,0,1,7.521,4.123,10.07,10.07,0,0,1,.264,10.756M188.7,242.277a9.556,9.556,0,0,1-8.2-7.291,1.677,1.677,0,0,0-2.112-1.15c-3.127.848.97,10.75,9.93,11.795a1.692,1.692,0,1,0,.382-3.353" transform="translate(-114.398 -156.235)" fill="#f4a339"/>
          <path id="Trazado_1259931" data-name="Trazado 1259931" d="M216.544,261.246a1.692,1.692,0,1,1-.382,3.353c-8.96-1.045-13.057-10.947-9.93-11.795a1.677,1.677,0,0,1,2.112,1.15,9.556,9.556,0,0,0,8.2,7.291" transform="translate(-142.242 -175.204)" fill="#2a2825"/>
        </g>
      </g>
    </g>
  </g>
</svg>
