<svg xmlns="http://www.w3.org/2000/svg" xmlns:xlink="http://www.w3.org/1999/xlink" width="129.063" height="79.629" viewBox="0 0 129.063 79.629">
  <defs>
    <clipPath id="clip-path">
      <rect id="Rect치ngulo_411672" data-name="Rect치ngulo 411672" width="79.628" height="79.629" fill="none"/>
    </clipPath>
  </defs>
  <g id="_9" data-name="9" transform="translate(-787.781 -2552.268)">
    <g id="Rect치ngulo_410589" data-name="Rect치ngulo 410589" transform="translate(787.781 2575.623)" fill="#ffc94a" stroke="#dfab32" stroke-width="1">
      <rect width="129.063" height="43.021" rx="8" stroke="none"/>
      <rect x="0.5" y="0.5" width="128.063" height="42.021" rx="7.5" fill="none"/>
    </g>
    <g id="Grupo_1213281" data-name="Grupo 1213281" transform="translate(812.498 2552.268)">
      <g id="Grupo_1213280" data-name="Grupo 1213280" clip-path="url(#clip-path)">
        <path id="Trazado_1259657" data-name="Trazado 1259657" d="M13.148,72.2c.448-.2.974-.65,1.558-.3a38.024,38.024,0,0,0,9.051,4.079,8.359,8.359,0,0,0,2.515.707,14.84,14.84,0,0,0-1.182-2.893l-2.944-7.053-17.3-5.281a20.843,20.843,0,0,0,5,6.719,1.45,1.45,0,0,1,.3,1.931c-.285.048-.943.518-1.323.237C-3.872,59.293-1.379,42.43,6.942,29.575c.986-1.523,5.179.476,7.276.862l.033-29.272A1.165,1.165,0,0,1,15.419,0L66.007,0a1.122,1.122,0,0,1,1.151,1.12l.045,3.9,4.723.03c2.446.015,1.1,2.811,1.539,4.979l4.957.065a1.178,1.178,0,0,1,1.206,1.253V63.579L63.61,79.614l-35.561.014a46.575,46.575,0,0,1-14.729-5.86,1.909,1.909,0,0,1-.171-1.571M55.864,6.267c-.136.405-.376,1.079-1.046,1.08l-32.057.024.048,27.136,3.864,2.654.014-25.818A1.156,1.156,0,0,1,27.845,10.1l43.086-.008a7.294,7.294,0,0,0,.089-2.7l-9-.022a1.386,1.386,0,0,1-1.394-1.093c.147-.47.332-1.174.966-1.193l3.231-.1A11.888,11.888,0,0,0,64.8,2.3L16.6,2.3l.009,29.088,3.858,1.7-.02-26.9A1.151,1.151,0,0,1,21.588,5.05l33.1-.015c.777,0,1.084.682,1.174,1.232M72.191,61.908A49.251,49.251,0,0,0,77.3,61.9l0-49.448-5.128-.013-43.115-.053-.022,27.039a26.242,26.242,0,0,1,7.311,16.907,36.069,36.069,0,0,1-5.726,20.948l31.324.031L61.975,63.1a1.178,1.178,0,0,1,1.143-1.162ZM10.58,32.8,16.871,48.1c1.584-2.949,3.107-5.566,4.41-8.522.338-.766,1.178-1.423,1.3-2.437-3.236-2.38-8.231-4.13-12.226-5.318-.335.182-.088.869.229.983m4.054,16.106L7.841,32.652A40.247,40.247,0,0,0,2.861,45.364Zm8.452-7.265-5.031,9.265,5.1,12.066c1.93-3.417,3.63-6.74,5.377-10.254.937-1.884,2.186-3.628,3.068-5.7a24.842,24.842,0,0,0-6.988-8.4,17.575,17.575,0,0,0-1.528,3.027m-2.2,22.205-4.95-11.978L2.572,47.743A23.274,23.274,0,0,0,3.552,58.6Zm8.2-6.806-4.714,8.766a42.148,42.148,0,0,0,2.07,4.747,39.294,39.294,0,0,0,2.227,5.359c4.794-7.474,7.283-17.431,4.148-26.045ZM75.53,64.373l-11.225-.084.077,11.225Z" transform="translate(0 0.001)" fill="#050503"/>
        <path id="Trazado_1259658" data-name="Trazado 1259658" d="M139.182,41.025l.012,49.467-9.073.027a1.178,1.178,0,0,0-1.143,1.162l-.025,14.216-31.323-.031a36.068,36.068,0,0,0,5.725-20.948,26.24,26.24,0,0,0-7.311-16.907l.022-27.039Z" transform="translate(-67.002 -28.583)" fill="#fde0ac"/>
        <path id="Trazado_1259659" data-name="Trazado 1259659" d="M238.717,90.613l-.012-49.467,5.128.013,0,49.448a49.165,49.165,0,0,1-5.114.006" transform="translate(-166.526 -28.704)" fill="#f3cf92"/>
        <path id="Trazado_1259660" data-name="Trazado 1259660" d="M98.936,11.587l-4.764-.007c-.09-.551-.4-1.232-1.174-1.232l-33.1.015a1.151,1.151,0,0,0-1.137,1.144l.02,26.9L54.92,36.7,54.912,7.615l48.193,0a11.871,11.871,0,0,1,.029,2.675l-3.231.1c-.634.02-.819.723-.966,1.193" transform="translate(-38.308 -5.312)" fill="#f7daa8"/>
        <path id="Trazado_1259661" data-name="Trazado 1259661" d="M113.142,20.736a1.386,1.386,0,0,0,1.394,1.093l9,.022a7.294,7.294,0,0,1-.089,2.7l-43.086.008A1.156,1.156,0,0,0,79.2,25.8l-.014,25.818-3.864-2.654-.048-27.136,32.057-.024c.669,0,.909-.675,1.046-1.08Z" transform="translate(-52.514 -14.461)" fill="#e1b467"/>
        <path id="Trazado_1259662" data-name="Trazado 1259662" d="M223.892,212.7l-11.148,11.141-.077-11.225Z" transform="translate(-148.361 -148.322)" fill="#e0b366"/>
        <path id="Trazado_1259663" data-name="Trazado 1259663" d="M36.274,215.567a11.672,11.672,0,0,0-1.333,2.186,38.023,38.023,0,0,1-9.051-4.079c-.584-.346-1.109.1-1.558.3a27.016,27.016,0,0,1-3-2.1,1.451,1.451,0,0,0-.3-1.931,20.85,20.85,0,0,1-5-6.719l17.3,5.281Z" transform="translate(-11.184 -141.779)" fill="#86d85f"/>
        <path id="Trazado_1259664" data-name="Trazado 1259664" d="M26.231,174,8.894,168.752a23.275,23.275,0,0,1-.981-10.858l13.368,4.128Z" transform="translate(-5.342 -110.15)" fill="#c0fba8"/>
        <path id="Trazado_1259665" data-name="Trazado 1259665" d="M70.192,148.8c-1.748,3.514-3.447,6.837-5.377,10.254l-5.1-12.066,5.031-9.265A23.349,23.349,0,0,1,70.192,148.8" transform="translate(-41.657 -96.079)" fill="#86d85f"/>
        <path id="Trazado_1259666" data-name="Trazado 1259666" d="M87.45,185.617A28.256,28.256,0,0,0,90.094,172.1l3.731-7.172c3.134,8.614.646,18.571-4.148,26.045a39.293,39.293,0,0,1-2.227-5.359" transform="translate(-61.007 -115.059)" fill="#a0f37f"/>
        <path id="Trazado_1259667" data-name="Trazado 1259667" d="M21.237,124.244,9.464,120.7a40.241,40.241,0,0,1,4.98-12.712Z" transform="translate(-6.602 -75.335)" fill="#86d75e"/>
        <path id="Trazado_1259668" data-name="Trazado 1259668" d="M45.693,115.258c-1.3,2.955-2.826,5.573-4.41,8.522l-6.29-15.294a32.322,32.322,0,0,1,10.7,6.773" transform="translate(-24.412 -75.682)" fill="#c0fba7"/>
        <path id="Trazado_1259669" data-name="Trazado 1259669" d="M81.8,141.819a23.349,23.349,0,0,0-5.447-11.077,17.586,17.586,0,0,1,1.527-3.026,24.843,24.843,0,0,1,6.988,8.4c-.882,2.076-2.131,3.819-3.068,5.7" transform="translate(-53.265 -89.097)" fill="#6acb3b"/>
        <path id="Trazado_1259670" data-name="Trazado 1259670" d="M82.673,202.165a42.093,42.093,0,0,1-2.07-4.747l4.714-8.766a28.256,28.256,0,0,1-2.644,13.514" transform="translate(-56.23 -131.607)" fill="#bffaa6"/>
        <path id="Trazado_1259671" data-name="Trazado 1259671" d="M44.8,112.99a32.322,32.322,0,0,0-10.7-6.773c-.317-.114-.563-.8-.229-.983,3.994,1.188,8.99,2.938,12.226,5.318-.119,1.014-.959,1.671-1.3,2.437" transform="translate(-23.515 -73.414)" fill="#9ff07e"/>
        <path id="Trazado_1259672" data-name="Trazado 1259672" d="M78.569,246.209a11.683,11.683,0,0,1,1.333-2.186,14.832,14.832,0,0,1,1.183,2.893,8.361,8.361,0,0,1-2.516-.707" transform="translate(-54.811 -170.236)" fill="#6acb3b"/>
      </g>
    </g>
  </g>
</svg>
