<svg xmlns="http://www.w3.org/2000/svg" xmlns:xlink="http://www.w3.org/1999/xlink" width="100.909" height="100.909" viewBox="0 0 100.909 100.909">
  <defs>
    <filter id="Trazado_896985" x="0" y="0" width="100.909" height="100.909" filterUnits="userSpaceOnUse">
      <feOffset dy="3" input="SourceAlpha"/>
      <feGaussianBlur stdDeviation="3" result="blur"/>
      <feFlood flood-opacity="0.161"/>
      <feComposite operator="in" in2="blur"/>
      <feComposite in="SourceGraphic"/>
    </filter>
  </defs>
  <g id="Grupo_1213200" data-name="Grupo 1213200" transform="translate(-616.942 -11308.242)">
    <g id="Grupo_1212362" data-name="Grupo 1212362" transform="translate(625.942 11314.242)">
      <g id="Grupo_1200068" data-name="Grupo 1200068">
        <g id="Grupo_1198724" data-name="Grupo 1198724" transform="translate(0 0)">
          <g id="Grupo_1198140" data-name="Grupo 1198140" transform="translate(0 0)">
            <g id="Grupo_1111318" data-name="Grupo 1111318" transform="translate(0)">
              <g id="Grupo_1109826" data-name="Grupo 1109826" transform="translate(0 0)">
                <g id="Grupo_1098742" data-name="Grupo 1098742">
                  <g transform="matrix(1, 0, 0, 1, -9, -6)" filter="url(#Trazado_896985)">
                    <g id="Trazado_896985-2" data-name="Trazado 896985" transform="translate(9 6)" fill="#fff4da" opacity="0.859">
                      <path d="M 41.45453643798828 82.40917205810547 C 35.92549133300781 82.40917205810547 30.56209182739258 81.326416015625 25.51333618164062 79.19097137451172 C 20.63655853271484 77.12826538085938 16.25665855407715 74.17523193359375 12.4953031539917 70.41387176513672 C 8.73394775390625 66.65251922607422 5.780914306640625 62.27262115478516 3.718203067779541 57.39583969116211 C 1.582758665084839 52.34708786010742 0.5000030994415283 46.98368453979492 0.5000030994415283 41.45464324951172 C 0.5000030994415283 35.92548751831055 1.582758665084839 30.56208610534668 3.718203067779541 25.51333045959473 C 5.780914306640625 20.63655281066895 8.73394775390625 16.25666427612305 12.4953031539917 12.49530792236328 C 16.25665855407715 8.733952522277832 20.63655853271484 5.780908107757568 25.51333618164062 3.718208312988281 C 30.56209182739258 1.582752704620361 35.92549133300781 0.4999971389770508 41.45453643798828 0.4999971389770508 C 46.98358154296875 0.4999971389770508 52.34698104858398 1.582752704620361 57.39573669433594 3.718208312988281 C 62.27251434326172 5.780908107757568 66.65241241455078 8.733952522277832 70.41377258300781 12.49530792236328 C 74.17512512207031 16.25666427612305 77.12815856933594 20.63655281066895 79.19087219238281 25.51333045959473 C 81.32631683349609 30.56208610534668 82.40907287597656 35.92548751831055 82.40907287597656 41.45452880859375 C 82.40907287597656 46.98368453979492 81.32631683349609 52.34708786010742 79.19087219238281 57.39583969116211 C 77.12815856933594 62.27262115478516 74.17512512207031 66.65251922607422 70.41377258300781 70.41387176513672 C 66.65241241455078 74.17523193359375 62.27251434326172 77.12826538085938 57.39573669433594 79.19097137451172 C 52.34698104858398 81.326416015625 46.98358154296875 82.40917205810547 41.45453643798828 82.40917205810547 Z" stroke="none"/>
                      <path d="M 41.45453643798828 1 C 35.99277114868164 1 30.69490432739258 2.069465637207031 25.70811462402344 4.1787109375 C 20.89093780517578 6.216194152832031 16.56446075439453 9.133255004882812 12.84886169433594 12.84885406494141 C 9.133255004882812 16.564453125 6.216201782226562 20.89093017578125 4.1787109375 25.70810699462891 C 2.069473266601562 30.69489669799805 1 35.99276351928711 1 41.45464324951172 C 1 46.91640853881836 2.069473266601562 52.21427536010742 4.1787109375 57.20106506347656 C 6.216201782226562 62.01824188232422 9.133255004882812 66.34471893310547 12.84886169433594 70.06031799316406 C 16.56446075439453 73.77591705322266 20.89093780517578 76.69297790527344 25.70811462402344 78.73046112060547 C 30.69490432739258 80.83970642089844 35.99277114868164 81.90917205810547 41.45453643798828 81.90917205810547 C 46.91630172729492 81.90917205810547 52.21417236328125 80.83970642089844 57.20095825195312 78.73046112060547 C 62.01813507080078 76.69297790527344 66.34461212158203 73.77591705322266 70.06021118164062 70.06031799316406 C 73.77581787109375 66.34471893310547 76.69287109375 62.01824188232422 78.73036193847656 57.20106506347656 C 80.839599609375 52.21427536010742 81.90907287597656 46.91640853881836 81.90907287597656 41.45452880859375 C 81.90907287597656 35.99276351928711 80.839599609375 30.69489669799805 78.73036193847656 25.70810699462891 C 76.69287109375 20.89093017578125 73.77581787109375 16.564453125 70.06021118164062 12.84885406494141 C 66.34461212158203 9.133255004882812 62.01813507080078 6.216194152832031 57.20095825195312 4.1787109375 C 52.21417236328125 2.069465637207031 46.91630172729492 1 41.45453643798828 1 M 41.45453643798828 0 C 64.3492431640625 0 82.90907287597656 18.55982208251953 82.90907287597656 41.45452880859375 L 82.90907287597656 41.45464324951172 C 82.90907287597656 64.34934997558594 64.3492431640625 82.90917205810547 41.45453643798828 82.90917205810547 C 18.55982208251953 82.90917205810547 0 64.34934997558594 0 41.45464324951172 L 0 41.45452880859375 C 0 18.55982208251953 18.55982208251953 0 41.45453643798828 0 Z" stroke="none" fill="#fff"/>
                    </g>
                  </g>
                  <g id="Rectángulo_400907" data-name="Rectángulo 400907" transform="translate(0)" fill="none" stroke="#fff" stroke-width="1">
                    <rect width="82.909" height="82.909" rx="41.455" stroke="none"/>
                    <rect x="0.5" y="0.5" width="81.909" height="81.909" rx="40.955" fill="none"/>
                  </g>
                </g>
              </g>
            </g>
          </g>
        </g>
      </g>
    </g>
    <g id="collaboration_10939107" transform="translate(637.459 11323.434)">
      <g id="Grupo_1212708" data-name="Grupo 1212708" transform="translate(1.045 0.689)">
        <g id="Grupo_1212703" data-name="Grupo 1212703" transform="translate(26.045 0)">
          <path id="Trazado_1246757" data-name="Trazado 1246757" d="M244.024,86.566h13.511a.578.578,0,0,0,.568-.7,7.476,7.476,0,0,0-14.648,0,.578.578,0,0,0,.568.7Z" transform="translate(-243.443 -72.075)" fill="#8ac9fe" fill-rule="evenodd"/>
          <path id="Trazado_1246758" data-name="Trazado 1246758" d="M305.7,86.566h1.321a.578.578,0,0,0,.568-.7,7.477,7.477,0,0,0-7.324-5.975q-.334,0-.66.029a7.48,7.48,0,0,1,6.663,5.946A.578.578,0,0,1,305.7,86.566Z" transform="translate(-292.934 -72.075)" fill="#60b7ff" fill-rule="evenodd"/>
          <ellipse id="Elipse_12393" data-name="Elipse 12393" cx="3.779" cy="3.779" rx="3.779" ry="3.779" transform="translate(3.315 0.537) rotate(-4.069)" fill="#f6dccd"/>
          <path id="Trazado_1246759" data-name="Trazado 1246759" d="M301.264,16.3a3.779,3.779,0,1,1-.527,7.522,3.779,3.779,0,0,0,0-7.485A3.827,3.827,0,0,1,301.264,16.3Z" transform="translate(-293.927 -16.037)" fill="#f1cbbc" fill-rule="evenodd"/>
        </g>
        <g id="Grupo_1212704" data-name="Grupo 1212704" transform="translate(37.347 42.838)">
          <path id="Trazado_1246760" data-name="Trazado 1246760" d="M339.116,446.844h13.511a.578.578,0,0,0,.568-.7,7.476,7.476,0,0,0-14.648,0A.578.578,0,0,0,339.116,446.844Z" transform="translate(-338.535 -432.371)" fill="#8ac9fe" fill-rule="evenodd"/>
          <path id="Trazado_1246761" data-name="Trazado 1246761" d="M400.8,446.844h1.321a.578.578,0,0,0,.568-.7,7.477,7.477,0,0,0-7.324-5.975q-.334,0-.66.029a7.48,7.48,0,0,1,6.664,5.946.578.578,0,0,1-.568.7Z" transform="translate(-388.026 -432.371)" fill="#60b7ff" fill-rule="evenodd"/>
          <ellipse id="Elipse_12394" data-name="Elipse 12394" cx="3.779" cy="3.779" rx="3.779" ry="3.779" transform="translate(3.364 7.551) rotate(-86.849)" fill="#f6dccd"/>
          <path id="Trazado_1246762" data-name="Trazado 1246762" d="M396.356,376.578a3.779,3.779,0,1,1-.527,7.522,3.779,3.779,0,0,0,0-7.485A3.831,3.831,0,0,1,396.356,376.578Z" transform="translate(-389.02 -376.334)" fill="#f1cbbc" fill-rule="evenodd"/>
        </g>
        <g id="Grupo_1212705" data-name="Grupo 1212705" transform="translate(0 30.994)">
          <path id="Trazado_1246763" data-name="Trazado 1246763" d="M24.884,346.669H38.4a.578.578,0,0,0,.568-.7,7.476,7.476,0,0,0-14.648,0A.578.578,0,0,0,24.884,346.669Z" transform="translate(-24.304 -332.258)" fill="#8ac9fe" fill-rule="evenodd"/>
          <path id="Trazado_1246764" data-name="Trazado 1246764" d="M86.566,346.669h1.321a.578.578,0,0,0,.568-.7A7.477,7.477,0,0,0,81.131,340q-.334,0-.66.029a7.48,7.48,0,0,1,6.664,5.946.578.578,0,0,1-.568.7Z" transform="translate(-73.795 -332.258)" fill="#60b7ff" fill-rule="evenodd"/>
          <ellipse id="Elipse_12395" data-name="Elipse 12395" cx="3.779" cy="3.779" rx="3.779" ry="3.779" transform="translate(3.347 0.416) rotate(-3.151)" fill="#f6dccd"/>
          <path id="Trazado_1246765" data-name="Trazado 1246765" d="M82.125,276.4a3.779,3.779,0,1,1-.527,7.522,3.779,3.779,0,0,0,0-7.485A3.824,3.824,0,0,1,82.125,276.4Z" transform="translate(-74.788 -276.22)" fill="#f1cbbc" fill-rule="evenodd"/>
        </g>
        <g id="Grupo_1212706" data-name="Grupo 1212706" transform="translate(16.475 34.061)">
          <path id="Trazado_1246766" data-name="Trazado 1246766" d="M164.757,300.68a11.223,11.223,0,0,1,11.183,10.283,11.228,11.228,0,0,0,13.024-10.132,11.228,11.228,0,0,0-13.024,10.132,11.228,11.228,0,0,1-13.024-10.132A11.3,11.3,0,0,1,164.757,300.68Z" transform="translate(-162.916 -300.68)" fill="#6cf5c2" fill-rule="evenodd"/>
          <path id="Trazado_1246767" data-name="Trazado 1246767" d="M175.782,310.734a11.2,11.2,0,0,1,.159,1.164,11.228,11.228,0,0,0,13.024-10.132l-.159-.025a11.228,11.228,0,0,1-12.707,8.993,11.208,11.208,0,0,0-.159,1.164,11.228,11.228,0,0,1-13.024-10.132l.159-.025a11.228,11.228,0,0,0,12.707,8.993Z" transform="translate(-162.917 -301.615)" fill="#00e499" fill-rule="evenodd"/>
        </g>
        <g id="Grupo_1212707" data-name="Grupo 1212707" transform="translate(21.783 18.25)">
          <circle id="Elipse_12396" data-name="Elipse 12396" cx="7.716" cy="7.716" r="7.716" fill="#ffc338"/>
          <path id="Trazado_1246768" data-name="Trazado 1246768" d="M268.092,167.648a7.716,7.716,0,0,1,0,15.432q-.3,0-.594-.023a7.716,7.716,0,0,0,0-15.387Q267.792,167.648,268.092,167.648Z" transform="translate(-260.376 -167.648)" fill="#f5b829" fill-rule="evenodd"/>
        </g>
      </g>
      <path id="Trazado_1246769" data-name="Trazado 1246769" d="M17.6,53.445a6.515,6.515,0,0,1,6.288-4.769h.006a6.513,6.513,0,0,1,6.282,4.769Zm3.463-9.5a2.828,2.828,0,1,1,2.831,2.828h-.006a2.829,2.829,0,0,1-2.825-2.828ZM32.027,55.033a.962.962,0,0,0,.241-.737A8.4,8.4,0,0,0,27.1,47.41a4.727,4.727,0,0,0-5.728-7.469,23.657,23.657,0,0,1,8.772-17,23.908,23.908,0,0,1,8.766-4.507l-1.1,1.475A.953.953,0,0,0,38,21.238a.964.964,0,0,0,.571.189.941.941,0,0,0,.761-.383l2.624-3.514a.969.969,0,0,0,.151-.844.954.954,0,0,0-.593-.62l-4.067-1.443a.951.951,0,0,0-.638,1.791l1.007.356a25.81,25.81,0,0,0-8.867,4.692,25.485,25.485,0,0,0-7.334,9.595A26.079,26.079,0,0,0,19.44,42.33a4.834,4.834,0,0,0-.28,1.617,4.719,4.719,0,0,0,1.511,3.463A8.388,8.388,0,0,0,15.513,54.3a.945.945,0,0,0,.945,1.052H31.322a.944.944,0,0,0,.7-.314Zm22.925,10.32a6.526,6.526,0,0,1,12.57,0Zm3.457-9.5a2.828,2.828,0,1,1,2.825,2.828A2.829,2.829,0,0,1,58.409,55.854Zm6.042,3.463a4.727,4.727,0,1,0-6.433,0,8.4,8.4,0,0,0-4.576,4.578A23.938,23.938,0,0,1,28.62,58.65l1.443.266a.951.951,0,0,0,.347-1.87l-4.246-.784a.953.953,0,0,0-1.113,1.046l.515,4.356a.952.952,0,0,0,.94.84,1.024,1.024,0,0,0,.117-.007.949.949,0,0,0,.828-1.056L27.283,60a25.813,25.813,0,0,0,25.588,6.1c0,.036-.011.071-.011.107a.946.946,0,0,0,.945,1.052H68.67a.945.945,0,0,0,.7-.315.961.961,0,0,0,.241-.737A8.4,8.4,0,0,0,64.451,59.317ZM43.646,22.532a6.53,6.53,0,0,1,12.576,0ZM49.934,10.2A2.829,2.829,0,1,1,47.1,13.033,2.833,2.833,0,0,1,49.934,10.2ZM72.445,46.832a.948.948,0,0,1-.106,1.341l-3.278,2.8a.97.97,0,0,1-.621.228.885.885,0,0,1-.213-.025.948.948,0,0,1-.66-.55l-1.734-4.031a.953.953,0,0,1,1.751-.751l.727,1.689a23.728,23.728,0,0,0-4.571-21.124,23.989,23.989,0,0,0-5.98-5.258,8.638,8.638,0,0,1,.548,2.231.946.946,0,0,1-.945,1.052H42.5a.945.945,0,0,1-.7-.315.961.961,0,0,1-.241-.737A8.4,8.4,0,0,1,46.717,16.5a4.733,4.733,0,1,1,6.433,0,8.388,8.388,0,0,1,2.042,1.2,25.761,25.761,0,0,1,15.1,29.724l.817-.694A.947.947,0,0,1,72.445,46.832ZM46.052,40.791a.95.95,0,0,0,.951-.95V39.6a3.413,3.413,0,0,0,1.885-1.032,2.438,2.438,0,0,0,.571-1.923c-.179-1.438-1.27-2.333-3.245-2.657-1.4-.23-1.421-.713-1.432-.9-.034-.673.677-.887.9-.935a1.5,1.5,0,0,1,1.768.82.952.952,0,0,0,1.757-.736A3.212,3.212,0,0,0,47,30.336v-.261a.951.951,0,0,0-1.9,0v.27a2.807,2.807,0,0,0-2.215,2.844c.039.821.481,2.262,3.021,2.679,1.572.258,1.634.786,1.661,1.01a.533.533,0,0,1-.117.449,1.917,1.917,0,0,1-1.32.471,1.531,1.531,0,0,1-1.634-1,.951.951,0,0,0-1.846.46,3.217,3.217,0,0,0,2.45,2.324v.253a.95.95,0,0,0,.951.951Zm-6.763-5.833a6.763,6.763,0,1,1,6.763,6.765A6.77,6.77,0,0,1,39.288,34.958ZM57.235,44c.257,0,.515.01.778.03a10.333,10.333,0,0,1-10.12,8.5c-.257,0-.52-.01-.778-.03A10.334,10.334,0,0,1,57.235,44ZM44.211,52.536a10.333,10.333,0,0,1-10.12-8.5c.257-.02.52-.03.778-.03a10.343,10.343,0,0,1,10.12,8.5C44.726,52.527,44.469,52.536,44.211,52.536ZM54.717,34.958A8.679,8.679,0,0,1,47,43.571v4.112A12.168,12.168,0,0,1,57.235,42.1a12.344,12.344,0,0,1,2,.164.946.946,0,0,1,.789,1.016A12.172,12.172,0,0,1,47.892,54.438c-.3,0-.593-.013-.889-.034v4.1a.951.951,0,1,1-1.9,0V54.4c-.3.021-.593.034-.889.034A12.183,12.183,0,0,1,32.077,43.282a.955.955,0,0,1,.794-1.016,12.344,12.344,0,0,1,2-.164A12.168,12.168,0,0,1,45.1,47.683V43.571a8.666,8.666,0,1,1,9.617-8.613Z" transform="translate(-15.507 -8.303)" fill="#242222" fill-rule="evenodd"/>
    </g>
  </g>
</svg>
